ISO-10303-21;
HEADER;
/* Generated by software containing ST-Developer
 * from STEP Tools, Inc. (www.steptools.com) 
 */

FILE_DESCRIPTION(
/* description */ (''),
/* implementation_level */ '2;1');

FILE_NAME(
/* name */ 'Forearm 2.step',
/* time_stamp */ '2026-01-04T20:45:38Z',
/* author */ (''),
/* organization */ (''),
/* preprocessor_version */ 'ST-DEVELOPER v20.1',
/* originating_system */ 'Autodesk Translation Framework v14.21.0.0',
/* authorisation */ '');

FILE_SCHEMA (('AUTOMOTIVE_DESIGN { 1 0 10303 214 3 1 1 }'));
ENDSEC;

DATA;
#10=MECHANICAL_DESIGN_GEOMETRIC_PRESENTATION_REPRESENTATION('',(#21),#1514);
#11=ITEM_DEFINED_TRANSFORMATION($,$,#869,#980);
#12=ITEM_DEFINED_TRANSFORMATION($,$,#868,#981);
#13=(
REPRESENTATION_RELATIONSHIP($,$,#1529,#1528)
REPRESENTATION_RELATIONSHIP_WITH_TRANSFORMATION(#11)
SHAPE_REPRESENTATION_RELATIONSHIP()
);
#14=(
REPRESENTATION_RELATIONSHIP($,$,#1528,#1527)
REPRESENTATION_RELATIONSHIP_WITH_TRANSFORMATION(#12)
SHAPE_REPRESENTATION_RELATIONSHIP()
);
#15=CONTEXT_DEPENDENT_SHAPE_REPRESENTATION(#13,#1525);
#16=CONTEXT_DEPENDENT_SHAPE_REPRESENTATION(#14,#1526);
#17=NEXT_ASSEMBLY_USAGE_OCCURRENCE('Forearm 2:1','Forearm 2:1',
'Forearm 2:1',#1532,#1533,'Forearm 2:1');
#18=NEXT_ASSEMBLY_USAGE_OCCURRENCE('Arm:1','Arm:1','Arm:1',#1531,#1532,
'Arm:1');
#19=SHAPE_REPRESENTATION_RELATIONSHIP('SRR','None',#1529,#20);
#20=ADVANCED_BREP_SHAPE_REPRESENTATION('',(#22),#1513);
#21=STYLED_ITEM('',(#1547),#22);
#22=MANIFOLD_SOLID_BREP('Body1',#854);
#23=FACE_BOUND('',#160,.T.);
#24=FACE_BOUND('',#161,.T.);
#25=FACE_BOUND('',#162,.T.);
#26=FACE_BOUND('',#163,.T.);
#27=FACE_BOUND('',#164,.T.);
#28=FACE_BOUND('',#165,.T.);
#29=FACE_BOUND('',#166,.T.);
#30=FACE_BOUND('',#200,.T.);
#31=FACE_BOUND('',#201,.T.);
#32=FACE_BOUND('',#202,.T.);
#33=FACE_BOUND('',#203,.T.);
#34=FACE_BOUND('',#204,.T.);
#35=FACE_BOUND('',#205,.T.);
#36=FACE_BOUND('',#206,.T.);
#37=FACE_BOUND('',#207,.T.);
#38=FACE_BOUND('',#208,.T.);
#39=FACE_BOUND('',#209,.T.);
#40=FACE_BOUND('',#210,.T.);
#41=FACE_BOUND('',#211,.T.);
#42=FACE_BOUND('',#212,.T.);
#43=FACE_BOUND('',#213,.T.);
#44=FACE_BOUND('',#215,.T.);
#45=FACE_BOUND('',#216,.T.);
#46=PLANE('',#873);
#47=PLANE('',#877);
#48=PLANE('',#881);
#49=PLANE('',#885);
#50=PLANE('',#889);
#51=PLANE('',#893);
#52=PLANE('',#897);
#53=PLANE('',#901);
#54=PLANE('',#905);
#55=PLANE('',#906);
#56=PLANE('',#910);
#57=PLANE('',#914);
#58=PLANE('',#918);
#59=PLANE('',#922);
#60=PLANE('',#926);
#61=PLANE('',#930);
#62=PLANE('',#934);
#63=PLANE('',#938);
#64=PLANE('',#942);
#65=PLANE('',#946);
#66=PLANE('',#950);
#67=PLANE('',#954);
#68=PLANE('',#958);
#69=PLANE('',#962);
#70=PLANE('',#966);
#71=PLANE('',#970);
#72=PLANE('',#971);
#73=PLANE('',#972);
#74=PLANE('',#973);
#75=PLANE('',#974);
#76=PLANE('',#975);
#77=PLANE('',#976);
#78=PLANE('',#977);
#79=PLANE('',#978);
#80=PLANE('',#979);
#81=FACE_OUTER_BOUND('',#141,.T.);
#82=FACE_OUTER_BOUND('',#142,.T.);
#83=FACE_OUTER_BOUND('',#143,.T.);
#84=FACE_OUTER_BOUND('',#144,.T.);
#85=FACE_OUTER_BOUND('',#145,.T.);
#86=FACE_OUTER_BOUND('',#146,.T.);
#87=FACE_OUTER_BOUND('',#147,.T.);
#88=FACE_OUTER_BOUND('',#148,.T.);
#89=FACE_OUTER_BOUND('',#149,.T.);
#90=FACE_OUTER_BOUND('',#150,.T.);
#91=FACE_OUTER_BOUND('',#151,.T.);
#92=FACE_OUTER_BOUND('',#152,.T.);
#93=FACE_OUTER_BOUND('',#153,.T.);
#94=FACE_OUTER_BOUND('',#154,.T.);
#95=FACE_OUTER_BOUND('',#155,.T.);
#96=FACE_OUTER_BOUND('',#156,.T.);
#97=FACE_OUTER_BOUND('',#157,.T.);
#98=FACE_OUTER_BOUND('',#158,.T.);
#99=FACE_OUTER_BOUND('',#159,.T.);
#100=FACE_OUTER_BOUND('',#167,.T.);
#101=FACE_OUTER_BOUND('',#168,.T.);
#102=FACE_OUTER_BOUND('',#169,.T.);
#103=FACE_OUTER_BOUND('',#170,.T.);
#104=FACE_OUTER_BOUND('',#171,.T.);
#105=FACE_OUTER_BOUND('',#172,.T.);
#106=FACE_OUTER_BOUND('',#173,.T.);
#107=FACE_OUTER_BOUND('',#174,.T.);
#108=FACE_OUTER_BOUND('',#175,.T.);
#109=FACE_OUTER_BOUND('',#176,.T.);
#110=FACE_OUTER_BOUND('',#177,.T.);
#111=FACE_OUTER_BOUND('',#178,.T.);
#112=FACE_OUTER_BOUND('',#179,.T.);
#113=FACE_OUTER_BOUND('',#180,.T.);
#114=FACE_OUTER_BOUND('',#181,.T.);
#115=FACE_OUTER_BOUND('',#182,.T.);
#116=FACE_OUTER_BOUND('',#183,.T.);
#117=FACE_OUTER_BOUND('',#184,.T.);
#118=FACE_OUTER_BOUND('',#185,.T.);
#119=FACE_OUTER_BOUND('',#186,.T.);
#120=FACE_OUTER_BOUND('',#187,.T.);
#121=FACE_OUTER_BOUND('',#188,.T.);
#122=FACE_OUTER_BOUND('',#189,.T.);
#123=FACE_OUTER_BOUND('',#190,.T.);
#124=FACE_OUTER_BOUND('',#191,.T.);
#125=FACE_OUTER_BOUND('',#192,.T.);
#126=FACE_OUTER_BOUND('',#193,.T.);
#127=FACE_OUTER_BOUND('',#194,.T.);
#128=FACE_OUTER_BOUND('',#195,.T.);
#129=FACE_OUTER_BOUND('',#196,.T.);
#130=FACE_OUTER_BOUND('',#197,.T.);
#131=FACE_OUTER_BOUND('',#198,.T.);
#132=FACE_OUTER_BOUND('',#199,.T.);
#133=FACE_OUTER_BOUND('',#214,.T.);
#134=FACE_OUTER_BOUND('',#217,.T.);
#135=FACE_OUTER_BOUND('',#218,.T.);
#136=FACE_OUTER_BOUND('',#219,.T.);
#137=FACE_OUTER_BOUND('',#220,.T.);
#138=FACE_OUTER_BOUND('',#221,.T.);
#139=FACE_OUTER_BOUND('',#222,.T.);
#140=FACE_OUTER_BOUND('',#223,.T.);
#141=EDGE_LOOP('',(#559,#560,#561,#562));
#142=EDGE_LOOP('',(#563));
#143=EDGE_LOOP('',(#564,#565,#566,#567));
#144=EDGE_LOOP('',(#568));
#145=EDGE_LOOP('',(#569,#570,#571,#572));
#146=EDGE_LOOP('',(#573));
#147=EDGE_LOOP('',(#574,#575,#576,#577));
#148=EDGE_LOOP('',(#578));
#149=EDGE_LOOP('',(#579,#580,#581,#582));
#150=EDGE_LOOP('',(#583,#584));
#151=EDGE_LOOP('',(#585,#586,#587,#588));
#152=EDGE_LOOP('',(#589));
#153=EDGE_LOOP('',(#590,#591,#592,#593));
#154=EDGE_LOOP('',(#594,#595));
#155=EDGE_LOOP('',(#596,#597,#598,#599));
#156=EDGE_LOOP('',(#600));
#157=EDGE_LOOP('',(#601,#602,#603,#604));
#158=EDGE_LOOP('',(#605));
#159=EDGE_LOOP('',(#606,#607,#608,#609,#610,#611,#612,#613,#614,#615,#616,
#617));
#160=EDGE_LOOP('',(#618));
#161=EDGE_LOOP('',(#619));
#162=EDGE_LOOP('',(#620));
#163=EDGE_LOOP('',(#621));
#164=EDGE_LOOP('',(#622));
#165=EDGE_LOOP('',(#623));
#166=EDGE_LOOP('',(#624));
#167=EDGE_LOOP('',(#625,#626,#627,#628));
#168=EDGE_LOOP('',(#629));
#169=EDGE_LOOP('',(#630,#631,#632,#633));
#170=EDGE_LOOP('',(#634));
#171=EDGE_LOOP('',(#635,#636,#637,#638));
#172=EDGE_LOOP('',(#639));
#173=EDGE_LOOP('',(#640,#641,#642,#643));
#174=EDGE_LOOP('',(#644));
#175=EDGE_LOOP('',(#645,#646,#647,#648));
#176=EDGE_LOOP('',(#649));
#177=EDGE_LOOP('',(#650,#651,#652,#653));
#178=EDGE_LOOP('',(#654));
#179=EDGE_LOOP('',(#655,#656,#657,#658));
#180=EDGE_LOOP('',(#659));
#181=EDGE_LOOP('',(#660,#661,#662,#663));
#182=EDGE_LOOP('',(#664));
#183=EDGE_LOOP('',(#665,#666,#667,#668));
#184=EDGE_LOOP('',(#669));
#185=EDGE_LOOP('',(#670,#671,#672,#673));
#186=EDGE_LOOP('',(#674));
#187=EDGE_LOOP('',(#675,#676,#677,#678));
#188=EDGE_LOOP('',(#679));
#189=EDGE_LOOP('',(#680,#681,#682,#683));
#190=EDGE_LOOP('',(#684));
#191=EDGE_LOOP('',(#685,#686,#687,#688));
#192=EDGE_LOOP('',(#689));
#193=EDGE_LOOP('',(#690,#691,#692,#693));
#194=EDGE_LOOP('',(#694));
#195=EDGE_LOOP('',(#695,#696,#697,#698));
#196=EDGE_LOOP('',(#699));
#197=EDGE_LOOP('',(#700,#701,#702,#703));
#198=EDGE_LOOP('',(#704));
#199=EDGE_LOOP('',(#705,#706,#707,#708,#709,#710,#711,#712,#713,#714,#715,
#716,#717,#718,#719,#720));
#200=EDGE_LOOP('',(#721));
#201=EDGE_LOOP('',(#722));
#202=EDGE_LOOP('',(#723));
#203=EDGE_LOOP('',(#724));
#204=EDGE_LOOP('',(#725));
#205=EDGE_LOOP('',(#726));
#206=EDGE_LOOP('',(#727));
#207=EDGE_LOOP('',(#728));
#208=EDGE_LOOP('',(#729));
#209=EDGE_LOOP('',(#730));
#210=EDGE_LOOP('',(#731));
#211=EDGE_LOOP('',(#732));
#212=EDGE_LOOP('',(#733));
#213=EDGE_LOOP('',(#734));
#214=EDGE_LOOP('',(#735,#736,#737,#738));
#215=EDGE_LOOP('',(#739));
#216=EDGE_LOOP('',(#740));
#217=EDGE_LOOP('',(#741,#742,#743,#744));
#218=EDGE_LOOP('',(#745,#746,#747,#748));
#219=EDGE_LOOP('',(#749,#750,#751,#752));
#220=EDGE_LOOP('',(#753,#754,#755,#756));
#221=EDGE_LOOP('',(#757,#758,#759,#760));
#222=EDGE_LOOP('',(#761,#762,#763,#764));
#223=EDGE_LOOP('',(#765,#766,#767,#768));
#224=LINE('',#1274,#279);
#225=LINE('',#1281,#280);
#226=LINE('',#1288,#281);
#227=LINE('',#1295,#282);
#228=LINE('',#1301,#283);
#229=LINE('',#1305,#284);
#230=LINE('',#1308,#285);
#231=LINE('',#1313,#286);
#232=LINE('',#1319,#287);
#233=LINE('',#1323,#288);
#234=LINE('',#1326,#289);
#235=LINE('',#1331,#290);
#236=LINE('',#1338,#291);
#237=LINE('',#1343,#292);
#238=LINE('',#1345,#293);
#239=LINE('',#1347,#294);
#240=LINE('',#1349,#295);
#241=LINE('',#1350,#296);
#242=LINE('',#1352,#297);
#243=LINE('',#1354,#298);
#244=LINE('',#1356,#299);
#245=LINE('',#1358,#300);
#246=LINE('',#1359,#301);
#247=LINE('',#1364,#302);
#248=LINE('',#1371,#303);
#249=LINE('',#1378,#304);
#250=LINE('',#1385,#305);
#251=LINE('',#1392,#306);
#252=LINE('',#1399,#307);
#253=LINE('',#1406,#308);
#254=LINE('',#1413,#309);
#255=LINE('',#1420,#310);
#256=LINE('',#1427,#311);
#257=LINE('',#1434,#312);
#258=LINE('',#1441,#313);
#259=LINE('',#1448,#314);
#260=LINE('',#1455,#315);
#261=LINE('',#1462,#316);
#262=LINE('',#1469,#317);
#263=LINE('',#1474,#318);
#264=LINE('',#1476,#319);
#265=LINE('',#1477,#320);
#266=LINE('',#1479,#321);
#267=LINE('',#1481,#322);
#268=LINE('',#1482,#323);
#269=LINE('',#1485,#324);
#270=LINE('',#1487,#325);
#271=LINE('',#1488,#326);
#272=LINE('',#1491,#327);
#273=LINE('',#1492,#328);
#274=LINE('',#1495,#329);
#275=LINE('',#1496,#330);
#276=LINE('',#1498,#331);
#277=LINE('',#1501,#332);
#278=LINE('',#1503,#333);
#279=VECTOR('',#992,2.55);
#280=VECTOR('',#1001,2.55000000000001);
#281=VECTOR('',#1010,2.55000000000001);
#282=VECTOR('',#1019,2.55);
#283=VECTOR('',#1026,10.);
#284=VECTOR('',#1029,10.);
#285=VECTOR('',#1034,10.);
#286=VECTOR('',#1039,2.55000000000001);
#287=VECTOR('',#1046,10.);
#288=VECTOR('',#1049,10.);
#289=VECTOR('',#1054,10.);
#290=VECTOR('',#1059,2.55000000000001);
#291=VECTOR('',#1068,2.55);
#292=VECTOR('',#1075,10.);
#293=VECTOR('',#1076,10.);
#294=VECTOR('',#1077,10.);
#295=VECTOR('',#1078,10.);
#296=VECTOR('',#1079,10.);
#297=VECTOR('',#1080,10.);
#298=VECTOR('',#1081,10.);
#299=VECTOR('',#1082,10.);
#300=VECTOR('',#1083,10.);
#301=VECTOR('',#1084,10.);
#302=VECTOR('',#1089,2.55);
#303=VECTOR('',#1098,2.55);
#304=VECTOR('',#1107,2.55000000000001);
#305=VECTOR('',#1116,2.55000000000001);
#306=VECTOR('',#1125,2.55000000000001);
#307=VECTOR('',#1134,2.55);
#308=VECTOR('',#1143,2.55);
#309=VECTOR('',#1152,2.55);
#310=VECTOR('',#1161,2.55);
#311=VECTOR('',#1170,2.55000000000001);
#312=VECTOR('',#1179,2.55000000000001);
#313=VECTOR('',#1188,2.55000000000001);
#314=VECTOR('',#1197,2.55);
#315=VECTOR('',#1206,2.54999999999999);
#316=VECTOR('',#1215,2.55000000000001);
#317=VECTOR('',#1224,2.55);
#318=VECTOR('',#1231,10.);
#319=VECTOR('',#1232,10.);
#320=VECTOR('',#1233,10.);
#321=VECTOR('',#1234,10.);
#322=VECTOR('',#1235,10.);
#323=VECTOR('',#1236,10.);
#324=VECTOR('',#1239,10.);
#325=VECTOR('',#1240,10.);
#326=VECTOR('',#1241,10.);
#327=VECTOR('',#1244,10.);
#328=VECTOR('',#1245,10.);
#329=VECTOR('',#1248,10.);
#330=VECTOR('',#1249,10.);
#331=VECTOR('',#1252,10.);
#332=VECTOR('',#1257,10.);
#333=VECTOR('',#1260,10.);
#334=CIRCLE('',#871,2.55);
#335=CIRCLE('',#872,2.55);
#336=CIRCLE('',#875,2.55000000000001);
#337=CIRCLE('',#876,2.55000000000001);
#338=CIRCLE('',#879,2.55000000000001);
#339=CIRCLE('',#880,2.55000000000001);
#340=CIRCLE('',#883,2.55);
#341=CIRCLE('',#884,2.55);
#342=CIRCLE('',#887,2.55);
#343=CIRCLE('',#888,2.55);
#344=CIRCLE('',#891,2.55000000000001);
#345=CIRCLE('',#892,2.55000000000001);
#346=CIRCLE('',#895,2.55000000000001);
#347=CIRCLE('',#896,2.55000000000001);
#348=CIRCLE('',#899,2.55000000000001);
#349=CIRCLE('',#900,2.55000000000001);
#350=CIRCLE('',#903,2.55);
#351=CIRCLE('',#904,2.55);
#352=CIRCLE('',#908,2.55);
#353=CIRCLE('',#909,2.55);
#354=CIRCLE('',#912,2.55);
#355=CIRCLE('',#913,2.55);
#356=CIRCLE('',#916,2.55000000000001);
#357=CIRCLE('',#917,2.55000000000001);
#358=CIRCLE('',#920,2.55000000000001);
#359=CIRCLE('',#921,2.55000000000001);
#360=CIRCLE('',#924,2.55000000000001);
#361=CIRCLE('',#925,2.55000000000001);
#362=CIRCLE('',#928,2.55);
#363=CIRCLE('',#929,2.55);
#364=CIRCLE('',#932,2.55);
#365=CIRCLE('',#933,2.55);
#366=CIRCLE('',#936,2.55);
#367=CIRCLE('',#937,2.55);
#368=CIRCLE('',#940,2.55);
#369=CIRCLE('',#941,2.55);
#370=CIRCLE('',#944,2.55000000000001);
#371=CIRCLE('',#945,2.55000000000001);
#372=CIRCLE('',#948,2.55000000000001);
#373=CIRCLE('',#949,2.55000000000001);
#374=CIRCLE('',#952,2.55000000000001);
#375=CIRCLE('',#953,2.55000000000001);
#376=CIRCLE('',#956,2.55);
#377=CIRCLE('',#957,2.55);
#378=CIRCLE('',#960,2.54999999999999);
#379=CIRCLE('',#961,2.54999999999999);
#380=CIRCLE('',#964,2.55000000000001);
#381=CIRCLE('',#965,2.55000000000001);
#382=CIRCLE('',#968,2.55);
#383=CIRCLE('',#969,2.55);
#384=VERTEX_POINT('',#1271);
#385=VERTEX_POINT('',#1273);
#386=VERTEX_POINT('',#1278);
#387=VERTEX_POINT('',#1280);
#388=VERTEX_POINT('',#1285);
#389=VERTEX_POINT('',#1287);
#390=VERTEX_POINT('',#1292);
#391=VERTEX_POINT('',#1294);
#392=VERTEX_POINT('',#1299);
#393=VERTEX_POINT('',#1300);
#394=VERTEX_POINT('',#1302);
#395=VERTEX_POINT('',#1304);
#396=VERTEX_POINT('',#1310);
#397=VERTEX_POINT('',#1312);
#398=VERTEX_POINT('',#1317);
#399=VERTEX_POINT('',#1318);
#400=VERTEX_POINT('',#1320);
#401=VERTEX_POINT('',#1322);
#402=VERTEX_POINT('',#1328);
#403=VERTEX_POINT('',#1330);
#404=VERTEX_POINT('',#1335);
#405=VERTEX_POINT('',#1337);
#406=VERTEX_POINT('',#1342);
#407=VERTEX_POINT('',#1344);
#408=VERTEX_POINT('',#1346);
#409=VERTEX_POINT('',#1348);
#410=VERTEX_POINT('',#1351);
#411=VERTEX_POINT('',#1353);
#412=VERTEX_POINT('',#1355);
#413=VERTEX_POINT('',#1357);
#414=VERTEX_POINT('',#1361);
#415=VERTEX_POINT('',#1363);
#416=VERTEX_POINT('',#1368);
#417=VERTEX_POINT('',#1370);
#418=VERTEX_POINT('',#1375);
#419=VERTEX_POINT('',#1377);
#420=VERTEX_POINT('',#1382);
#421=VERTEX_POINT('',#1384);
#422=VERTEX_POINT('',#1389);
#423=VERTEX_POINT('',#1391);
#424=VERTEX_POINT('',#1396);
#425=VERTEX_POINT('',#1398);
#426=VERTEX_POINT('',#1403);
#427=VERTEX_POINT('',#1405);
#428=VERTEX_POINT('',#1410);
#429=VERTEX_POINT('',#1412);
#430=VERTEX_POINT('',#1417);
#431=VERTEX_POINT('',#1419);
#432=VERTEX_POINT('',#1424);
#433=VERTEX_POINT('',#1426);
#434=VERTEX_POINT('',#1431);
#435=VERTEX_POINT('',#1433);
#436=VERTEX_POINT('',#1438);
#437=VERTEX_POINT('',#1440);
#438=VERTEX_POINT('',#1445);
#439=VERTEX_POINT('',#1447);
#440=VERTEX_POINT('',#1452);
#441=VERTEX_POINT('',#1454);
#442=VERTEX_POINT('',#1459);
#443=VERTEX_POINT('',#1461);
#444=VERTEX_POINT('',#1466);
#445=VERTEX_POINT('',#1468);
#446=VERTEX_POINT('',#1473);
#447=VERTEX_POINT('',#1475);
#448=VERTEX_POINT('',#1478);
#449=VERTEX_POINT('',#1480);
#450=VERTEX_POINT('',#1484);
#451=VERTEX_POINT('',#1486);
#452=VERTEX_POINT('',#1490);
#453=VERTEX_POINT('',#1494);
#454=EDGE_CURVE('',#384,#384,#334,.T.);
#455=EDGE_CURVE('',#384,#385,#224,.T.);
#456=EDGE_CURVE('',#385,#385,#335,.T.);
#457=EDGE_CURVE('',#386,#386,#336,.T.);
#458=EDGE_CURVE('',#386,#387,#225,.T.);
#459=EDGE_CURVE('',#387,#387,#337,.T.);
#460=EDGE_CURVE('',#388,#388,#338,.T.);
#461=EDGE_CURVE('',#388,#389,#226,.T.);
#462=EDGE_CURVE('',#389,#389,#339,.T.);
#463=EDGE_CURVE('',#390,#390,#340,.T.);
#464=EDGE_CURVE('',#390,#391,#227,.T.);
#465=EDGE_CURVE('',#391,#391,#341,.T.);
#466=EDGE_CURVE('',#392,#393,#228,.T.);
#467=EDGE_CURVE('',#392,#394,#342,.T.);
#468=EDGE_CURVE('',#395,#394,#229,.T.);
#469=EDGE_CURVE('',#393,#395,#343,.T.);
#470=EDGE_CURVE('',#394,#392,#230,.T.);
#471=EDGE_CURVE('',#396,#396,#344,.T.);
#472=EDGE_CURVE('',#396,#397,#231,.T.);
#473=EDGE_CURVE('',#397,#397,#345,.T.);
#474=EDGE_CURVE('',#398,#399,#232,.T.);
#475=EDGE_CURVE('',#398,#400,#346,.T.);
#476=EDGE_CURVE('',#401,#400,#233,.T.);
#477=EDGE_CURVE('',#399,#401,#347,.T.);
#478=EDGE_CURVE('',#400,#398,#234,.T.);
#479=EDGE_CURVE('',#402,#402,#348,.T.);
#480=EDGE_CURVE('',#402,#403,#235,.T.);
#481=EDGE_CURVE('',#403,#403,#349,.T.);
#482=EDGE_CURVE('',#404,#404,#350,.T.);
#483=EDGE_CURVE('',#404,#405,#236,.T.);
#484=EDGE_CURVE('',#405,#405,#351,.T.);
#485=EDGE_CURVE('',#395,#406,#237,.T.);
#486=EDGE_CURVE('',#406,#407,#238,.T.);
#487=EDGE_CURVE('',#407,#408,#239,.T.);
#488=EDGE_CURVE('',#408,#409,#240,.T.);
#489=EDGE_CURVE('',#409,#399,#241,.T.);
#490=EDGE_CURVE('',#401,#410,#242,.T.);
#491=EDGE_CURVE('',#410,#411,#243,.T.);
#492=EDGE_CURVE('',#411,#412,#244,.T.);
#493=EDGE_CURVE('',#412,#413,#245,.T.);
#494=EDGE_CURVE('',#413,#393,#246,.T.);
#495=EDGE_CURVE('',#414,#414,#352,.T.);
#496=EDGE_CURVE('',#414,#415,#247,.T.);
#497=EDGE_CURVE('',#415,#415,#353,.T.);
#498=EDGE_CURVE('',#416,#416,#354,.T.);
#499=EDGE_CURVE('',#416,#417,#248,.T.);
#500=EDGE_CURVE('',#417,#417,#355,.T.);
#501=EDGE_CURVE('',#418,#418,#356,.T.);
#502=EDGE_CURVE('',#418,#419,#249,.T.);
#503=EDGE_CURVE('',#419,#419,#357,.T.);
#504=EDGE_CURVE('',#420,#420,#358,.T.);
#505=EDGE_CURVE('',#420,#421,#250,.T.);
#506=EDGE_CURVE('',#421,#421,#359,.T.);
#507=EDGE_CURVE('',#422,#422,#360,.T.);
#508=EDGE_CURVE('',#422,#423,#251,.T.);
#509=EDGE_CURVE('',#423,#423,#361,.T.);
#510=EDGE_CURVE('',#424,#424,#362,.T.);
#511=EDGE_CURVE('',#424,#425,#252,.T.);
#512=EDGE_CURVE('',#425,#425,#363,.T.);
#513=EDGE_CURVE('',#426,#426,#364,.T.);
#514=EDGE_CURVE('',#426,#427,#253,.T.);
#515=EDGE_CURVE('',#427,#427,#365,.T.);
#516=EDGE_CURVE('',#428,#428,#366,.T.);
#517=EDGE_CURVE('',#428,#429,#254,.T.);
#518=EDGE_CURVE('',#429,#429,#367,.T.);
#519=EDGE_CURVE('',#430,#430,#368,.T.);
#520=EDGE_CURVE('',#430,#431,#255,.T.);
#521=EDGE_CURVE('',#431,#431,#369,.T.);
#522=EDGE_CURVE('',#432,#432,#370,.T.);
#523=EDGE_CURVE('',#432,#433,#256,.T.);
#524=EDGE_CURVE('',#433,#433,#371,.T.);
#525=EDGE_CURVE('',#434,#434,#372,.T.);
#526=EDGE_CURVE('',#434,#435,#257,.T.);
#527=EDGE_CURVE('',#435,#435,#373,.T.);
#528=EDGE_CURVE('',#436,#436,#374,.T.);
#529=EDGE_CURVE('',#436,#437,#258,.T.);
#530=EDGE_CURVE('',#437,#437,#375,.T.);
#531=EDGE_CURVE('',#438,#438,#376,.T.);
#532=EDGE_CURVE('',#438,#439,#259,.T.);
#533=EDGE_CURVE('',#439,#439,#377,.T.);
#534=EDGE_CURVE('',#440,#440,#378,.T.);
#535=EDGE_CURVE('',#440,#441,#260,.T.);
#536=EDGE_CURVE('',#441,#441,#379,.T.);
#537=EDGE_CURVE('',#442,#442,#380,.T.);
#538=EDGE_CURVE('',#442,#443,#261,.T.);
#539=EDGE_CURVE('',#443,#443,#381,.T.);
#540=EDGE_CURVE('',#444,#444,#382,.T.);
#541=EDGE_CURVE('',#444,#445,#262,.T.);
#542=EDGE_CURVE('',#445,#445,#383,.T.);
#543=EDGE_CURVE('',#446,#413,#263,.T.);
#544=EDGE_CURVE('',#447,#446,#264,.T.);
#545=EDGE_CURVE('',#447,#410,#265,.T.);
#546=EDGE_CURVE('',#448,#409,#266,.F.);
#547=EDGE_CURVE('',#449,#448,#267,.T.);
#548=EDGE_CURVE('',#449,#406,#268,.F.);
#549=EDGE_CURVE('',#450,#446,#269,.T.);
#550=EDGE_CURVE('',#451,#450,#270,.T.);
#551=EDGE_CURVE('',#447,#451,#271,.T.);
#552=EDGE_CURVE('',#448,#452,#272,.F.);
#553=EDGE_CURVE('',#452,#408,#273,.T.);
#554=EDGE_CURVE('',#453,#449,#274,.F.);
#555=EDGE_CURVE('',#453,#407,#275,.F.);
#556=EDGE_CURVE('',#452,#453,#276,.F.);
#557=EDGE_CURVE('',#451,#411,#277,.T.);
#558=EDGE_CURVE('',#450,#412,#278,.T.);
#559=ORIENTED_EDGE('',*,*,#454,.F.);
#560=ORIENTED_EDGE('',*,*,#455,.T.);
#561=ORIENTED_EDGE('',*,*,#456,.T.);
#562=ORIENTED_EDGE('',*,*,#455,.F.);
#563=ORIENTED_EDGE('',*,*,#456,.F.);
#564=ORIENTED_EDGE('',*,*,#457,.F.);
#565=ORIENTED_EDGE('',*,*,#458,.T.);
#566=ORIENTED_EDGE('',*,*,#459,.T.);
#567=ORIENTED_EDGE('',*,*,#458,.F.);
#568=ORIENTED_EDGE('',*,*,#459,.F.);
#569=ORIENTED_EDGE('',*,*,#460,.F.);
#570=ORIENTED_EDGE('',*,*,#461,.T.);
#571=ORIENTED_EDGE('',*,*,#462,.T.);
#572=ORIENTED_EDGE('',*,*,#461,.F.);
#573=ORIENTED_EDGE('',*,*,#462,.F.);
#574=ORIENTED_EDGE('',*,*,#463,.F.);
#575=ORIENTED_EDGE('',*,*,#464,.T.);
#576=ORIENTED_EDGE('',*,*,#465,.T.);
#577=ORIENTED_EDGE('',*,*,#464,.F.);
#578=ORIENTED_EDGE('',*,*,#465,.F.);
#579=ORIENTED_EDGE('',*,*,#466,.F.);
#580=ORIENTED_EDGE('',*,*,#467,.T.);
#581=ORIENTED_EDGE('',*,*,#468,.F.);
#582=ORIENTED_EDGE('',*,*,#469,.F.);
#583=ORIENTED_EDGE('',*,*,#470,.F.);
#584=ORIENTED_EDGE('',*,*,#467,.F.);
#585=ORIENTED_EDGE('',*,*,#471,.F.);
#586=ORIENTED_EDGE('',*,*,#472,.T.);
#587=ORIENTED_EDGE('',*,*,#473,.T.);
#588=ORIENTED_EDGE('',*,*,#472,.F.);
#589=ORIENTED_EDGE('',*,*,#473,.F.);
#590=ORIENTED_EDGE('',*,*,#474,.F.);
#591=ORIENTED_EDGE('',*,*,#475,.T.);
#592=ORIENTED_EDGE('',*,*,#476,.F.);
#593=ORIENTED_EDGE('',*,*,#477,.F.);
#594=ORIENTED_EDGE('',*,*,#478,.F.);
#595=ORIENTED_EDGE('',*,*,#475,.F.);
#596=ORIENTED_EDGE('',*,*,#479,.F.);
#597=ORIENTED_EDGE('',*,*,#480,.T.);
#598=ORIENTED_EDGE('',*,*,#481,.T.);
#599=ORIENTED_EDGE('',*,*,#480,.F.);
#600=ORIENTED_EDGE('',*,*,#481,.F.);
#601=ORIENTED_EDGE('',*,*,#482,.F.);
#602=ORIENTED_EDGE('',*,*,#483,.T.);
#603=ORIENTED_EDGE('',*,*,#484,.T.);
#604=ORIENTED_EDGE('',*,*,#483,.F.);
#605=ORIENTED_EDGE('',*,*,#484,.F.);
#606=ORIENTED_EDGE('',*,*,#469,.T.);
#607=ORIENTED_EDGE('',*,*,#485,.T.);
#608=ORIENTED_EDGE('',*,*,#486,.T.);
#609=ORIENTED_EDGE('',*,*,#487,.T.);
#610=ORIENTED_EDGE('',*,*,#488,.T.);
#611=ORIENTED_EDGE('',*,*,#489,.T.);
#612=ORIENTED_EDGE('',*,*,#477,.T.);
#613=ORIENTED_EDGE('',*,*,#490,.T.);
#614=ORIENTED_EDGE('',*,*,#491,.T.);
#615=ORIENTED_EDGE('',*,*,#492,.T.);
#616=ORIENTED_EDGE('',*,*,#493,.T.);
#617=ORIENTED_EDGE('',*,*,#494,.T.);
#618=ORIENTED_EDGE('',*,*,#482,.T.);
#619=ORIENTED_EDGE('',*,*,#479,.T.);
#620=ORIENTED_EDGE('',*,*,#471,.T.);
#621=ORIENTED_EDGE('',*,*,#463,.T.);
#622=ORIENTED_EDGE('',*,*,#460,.T.);
#623=ORIENTED_EDGE('',*,*,#457,.T.);
#624=ORIENTED_EDGE('',*,*,#454,.T.);
#625=ORIENTED_EDGE('',*,*,#495,.F.);
#626=ORIENTED_EDGE('',*,*,#496,.T.);
#627=ORIENTED_EDGE('',*,*,#497,.T.);
#628=ORIENTED_EDGE('',*,*,#496,.F.);
#629=ORIENTED_EDGE('',*,*,#497,.F.);
#630=ORIENTED_EDGE('',*,*,#498,.F.);
#631=ORIENTED_EDGE('',*,*,#499,.T.);
#632=ORIENTED_EDGE('',*,*,#500,.T.);
#633=ORIENTED_EDGE('',*,*,#499,.F.);
#634=ORIENTED_EDGE('',*,*,#500,.F.);
#635=ORIENTED_EDGE('',*,*,#501,.F.);
#636=ORIENTED_EDGE('',*,*,#502,.T.);
#637=ORIENTED_EDGE('',*,*,#503,.T.);
#638=ORIENTED_EDGE('',*,*,#502,.F.);
#639=ORIENTED_EDGE('',*,*,#503,.F.);
#640=ORIENTED_EDGE('',*,*,#504,.F.);
#641=ORIENTED_EDGE('',*,*,#505,.T.);
#642=ORIENTED_EDGE('',*,*,#506,.T.);
#643=ORIENTED_EDGE('',*,*,#505,.F.);
#644=ORIENTED_EDGE('',*,*,#506,.F.);
#645=ORIENTED_EDGE('',*,*,#507,.F.);
#646=ORIENTED_EDGE('',*,*,#508,.T.);
#647=ORIENTED_EDGE('',*,*,#509,.T.);
#648=ORIENTED_EDGE('',*,*,#508,.F.);
#649=ORIENTED_EDGE('',*,*,#509,.F.);
#650=ORIENTED_EDGE('',*,*,#510,.F.);
#651=ORIENTED_EDGE('',*,*,#511,.T.);
#652=ORIENTED_EDGE('',*,*,#512,.T.);
#653=ORIENTED_EDGE('',*,*,#511,.F.);
#654=ORIENTED_EDGE('',*,*,#512,.F.);
#655=ORIENTED_EDGE('',*,*,#513,.F.);
#656=ORIENTED_EDGE('',*,*,#514,.T.);
#657=ORIENTED_EDGE('',*,*,#515,.T.);
#658=ORIENTED_EDGE('',*,*,#514,.F.);
#659=ORIENTED_EDGE('',*,*,#515,.F.);
#660=ORIENTED_EDGE('',*,*,#516,.F.);
#661=ORIENTED_EDGE('',*,*,#517,.T.);
#662=ORIENTED_EDGE('',*,*,#518,.T.);
#663=ORIENTED_EDGE('',*,*,#517,.F.);
#664=ORIENTED_EDGE('',*,*,#518,.F.);
#665=ORIENTED_EDGE('',*,*,#519,.F.);
#666=ORIENTED_EDGE('',*,*,#520,.T.);
#667=ORIENTED_EDGE('',*,*,#521,.T.);
#668=ORIENTED_EDGE('',*,*,#520,.F.);
#669=ORIENTED_EDGE('',*,*,#521,.F.);
#670=ORIENTED_EDGE('',*,*,#522,.F.);
#671=ORIENTED_EDGE('',*,*,#523,.T.);
#672=ORIENTED_EDGE('',*,*,#524,.T.);
#673=ORIENTED_EDGE('',*,*,#523,.F.);
#674=ORIENTED_EDGE('',*,*,#524,.F.);
#675=ORIENTED_EDGE('',*,*,#525,.F.);
#676=ORIENTED_EDGE('',*,*,#526,.T.);
#677=ORIENTED_EDGE('',*,*,#527,.T.);
#678=ORIENTED_EDGE('',*,*,#526,.F.);
#679=ORIENTED_EDGE('',*,*,#527,.F.);
#680=ORIENTED_EDGE('',*,*,#528,.F.);
#681=ORIENTED_EDGE('',*,*,#529,.T.);
#682=ORIENTED_EDGE('',*,*,#530,.T.);
#683=ORIENTED_EDGE('',*,*,#529,.F.);
#684=ORIENTED_EDGE('',*,*,#530,.F.);
#685=ORIENTED_EDGE('',*,*,#531,.F.);
#686=ORIENTED_EDGE('',*,*,#532,.T.);
#687=ORIENTED_EDGE('',*,*,#533,.T.);
#688=ORIENTED_EDGE('',*,*,#532,.F.);
#689=ORIENTED_EDGE('',*,*,#533,.F.);
#690=ORIENTED_EDGE('',*,*,#534,.F.);
#691=ORIENTED_EDGE('',*,*,#535,.T.);
#692=ORIENTED_EDGE('',*,*,#536,.T.);
#693=ORIENTED_EDGE('',*,*,#535,.F.);
#694=ORIENTED_EDGE('',*,*,#536,.F.);
#695=ORIENTED_EDGE('',*,*,#537,.F.);
#696=ORIENTED_EDGE('',*,*,#538,.T.);
#697=ORIENTED_EDGE('',*,*,#539,.T.);
#698=ORIENTED_EDGE('',*,*,#538,.F.);
#699=ORIENTED_EDGE('',*,*,#539,.F.);
#700=ORIENTED_EDGE('',*,*,#540,.F.);
#701=ORIENTED_EDGE('',*,*,#541,.T.);
#702=ORIENTED_EDGE('',*,*,#542,.T.);
#703=ORIENTED_EDGE('',*,*,#541,.F.);
#704=ORIENTED_EDGE('',*,*,#542,.F.);
#705=ORIENTED_EDGE('',*,*,#466,.T.);
#706=ORIENTED_EDGE('',*,*,#494,.F.);
#707=ORIENTED_EDGE('',*,*,#543,.F.);
#708=ORIENTED_EDGE('',*,*,#544,.F.);
#709=ORIENTED_EDGE('',*,*,#545,.T.);
#710=ORIENTED_EDGE('',*,*,#490,.F.);
#711=ORIENTED_EDGE('',*,*,#476,.T.);
#712=ORIENTED_EDGE('',*,*,#478,.T.);
#713=ORIENTED_EDGE('',*,*,#474,.T.);
#714=ORIENTED_EDGE('',*,*,#489,.F.);
#715=ORIENTED_EDGE('',*,*,#546,.F.);
#716=ORIENTED_EDGE('',*,*,#547,.F.);
#717=ORIENTED_EDGE('',*,*,#548,.T.);
#718=ORIENTED_EDGE('',*,*,#485,.F.);
#719=ORIENTED_EDGE('',*,*,#468,.T.);
#720=ORIENTED_EDGE('',*,*,#470,.T.);
#721=ORIENTED_EDGE('',*,*,#495,.T.);
#722=ORIENTED_EDGE('',*,*,#498,.T.);
#723=ORIENTED_EDGE('',*,*,#501,.T.);
#724=ORIENTED_EDGE('',*,*,#504,.T.);
#725=ORIENTED_EDGE('',*,*,#507,.T.);
#726=ORIENTED_EDGE('',*,*,#510,.T.);
#727=ORIENTED_EDGE('',*,*,#513,.T.);
#728=ORIENTED_EDGE('',*,*,#516,.T.);
#729=ORIENTED_EDGE('',*,*,#519,.T.);
#730=ORIENTED_EDGE('',*,*,#522,.T.);
#731=ORIENTED_EDGE('',*,*,#525,.T.);
#732=ORIENTED_EDGE('',*,*,#528,.T.);
#733=ORIENTED_EDGE('',*,*,#531,.T.);
#734=ORIENTED_EDGE('',*,*,#534,.T.);
#735=ORIENTED_EDGE('',*,*,#544,.T.);
#736=ORIENTED_EDGE('',*,*,#549,.F.);
#737=ORIENTED_EDGE('',*,*,#550,.F.);
#738=ORIENTED_EDGE('',*,*,#551,.F.);
#739=ORIENTED_EDGE('',*,*,#537,.T.);
#740=ORIENTED_EDGE('',*,*,#540,.T.);
#741=ORIENTED_EDGE('',*,*,#552,.F.);
#742=ORIENTED_EDGE('',*,*,#546,.T.);
#743=ORIENTED_EDGE('',*,*,#488,.F.);
#744=ORIENTED_EDGE('',*,*,#553,.F.);
#745=ORIENTED_EDGE('',*,*,#554,.F.);
#746=ORIENTED_EDGE('',*,*,#555,.T.);
#747=ORIENTED_EDGE('',*,*,#486,.F.);
#748=ORIENTED_EDGE('',*,*,#548,.F.);
#749=ORIENTED_EDGE('',*,*,#556,.F.);
#750=ORIENTED_EDGE('',*,*,#553,.T.);
#751=ORIENTED_EDGE('',*,*,#487,.F.);
#752=ORIENTED_EDGE('',*,*,#555,.F.);
#753=ORIENTED_EDGE('',*,*,#547,.T.);
#754=ORIENTED_EDGE('',*,*,#552,.T.);
#755=ORIENTED_EDGE('',*,*,#556,.T.);
#756=ORIENTED_EDGE('',*,*,#554,.T.);
#757=ORIENTED_EDGE('',*,*,#551,.T.);
#758=ORIENTED_EDGE('',*,*,#557,.T.);
#759=ORIENTED_EDGE('',*,*,#491,.F.);
#760=ORIENTED_EDGE('',*,*,#545,.F.);
#761=ORIENTED_EDGE('',*,*,#549,.T.);
#762=ORIENTED_EDGE('',*,*,#543,.T.);
#763=ORIENTED_EDGE('',*,*,#493,.F.);
#764=ORIENTED_EDGE('',*,*,#558,.F.);
#765=ORIENTED_EDGE('',*,*,#550,.T.);
#766=ORIENTED_EDGE('',*,*,#558,.T.);
#767=ORIENTED_EDGE('',*,*,#492,.F.);
#768=ORIENTED_EDGE('',*,*,#557,.F.);
#769=CYLINDRICAL_SURFACE('',#870,2.55);
#770=CYLINDRICAL_SURFACE('',#874,2.55000000000001);
#771=CYLINDRICAL_SURFACE('',#878,2.55000000000001);
#772=CYLINDRICAL_SURFACE('',#882,2.55);
#773=CYLINDRICAL_SURFACE('',#886,2.55);
#774=CYLINDRICAL_SURFACE('',#890,2.55000000000001);
#775=CYLINDRICAL_SURFACE('',#894,2.55000000000001);
#776=CYLINDRICAL_SURFACE('',#898,2.55000000000001);
#777=CYLINDRICAL_SURFACE('',#902,2.55);
#778=CYLINDRICAL_SURFACE('',#907,2.55);
#779=CYLINDRICAL_SURFACE('',#911,2.55);
#780=CYLINDRICAL_SURFACE('',#915,2.55000000000001);
#781=CYLINDRICAL_SURFACE('',#919,2.55000000000001);
#782=CYLINDRICAL_SURFACE('',#923,2.55000000000001);
#783=CYLINDRICAL_SURFACE('',#927,2.55);
#784=CYLINDRICAL_SURFACE('',#931,2.55);
#785=CYLINDRICAL_SURFACE('',#935,2.55);
#786=CYLINDRICAL_SURFACE('',#939,2.55);
#787=CYLINDRICAL_SURFACE('',#943,2.55000000000001);
#788=CYLINDRICAL_SURFACE('',#947,2.55000000000001);
#789=CYLINDRICAL_SURFACE('',#951,2.55000000000001);
#790=CYLINDRICAL_SURFACE('',#955,2.55);
#791=CYLINDRICAL_SURFACE('',#959,2.54999999999999);
#792=CYLINDRICAL_SURFACE('',#963,2.55000000000001);
#793=CYLINDRICAL_SURFACE('',#967,2.55);
#794=ADVANCED_FACE('',(#81),#769,.F.);
#795=ADVANCED_FACE('',(#82),#46,.T.);
#796=ADVANCED_FACE('',(#83),#770,.F.);
#797=ADVANCED_FACE('',(#84),#47,.T.);
#798=ADVANCED_FACE('',(#85),#771,.F.);
#799=ADVANCED_FACE('',(#86),#48,.T.);
#800=ADVANCED_FACE('',(#87),#772,.F.);
#801=ADVANCED_FACE('',(#88),#49,.T.);
#802=ADVANCED_FACE('',(#89),#773,.F.);
#803=ADVANCED_FACE('',(#90),#50,.T.);
#804=ADVANCED_FACE('',(#91),#774,.F.);
#805=ADVANCED_FACE('',(#92),#51,.T.);
#806=ADVANCED_FACE('',(#93),#775,.F.);
#807=ADVANCED_FACE('',(#94),#52,.T.);
#808=ADVANCED_FACE('',(#95),#776,.F.);
#809=ADVANCED_FACE('',(#96),#53,.T.);
#810=ADVANCED_FACE('',(#97),#777,.F.);
#811=ADVANCED_FACE('',(#98),#54,.T.);
#812=ADVANCED_FACE('',(#99,#23,#24,#25,#26,#27,#28,#29),#55,.T.);
#813=ADVANCED_FACE('',(#100),#778,.F.);
#814=ADVANCED_FACE('',(#101),#56,.F.);
#815=ADVANCED_FACE('',(#102),#779,.F.);
#816=ADVANCED_FACE('',(#103),#57,.F.);
#817=ADVANCED_FACE('',(#104),#780,.F.);
#818=ADVANCED_FACE('',(#105),#58,.F.);
#819=ADVANCED_FACE('',(#106),#781,.F.);
#820=ADVANCED_FACE('',(#107),#59,.F.);
#821=ADVANCED_FACE('',(#108),#782,.F.);
#822=ADVANCED_FACE('',(#109),#60,.F.);
#823=ADVANCED_FACE('',(#110),#783,.F.);
#824=ADVANCED_FACE('',(#111),#61,.F.);
#825=ADVANCED_FACE('',(#112),#784,.F.);
#826=ADVANCED_FACE('',(#113),#62,.F.);
#827=ADVANCED_FACE('',(#114),#785,.F.);
#828=ADVANCED_FACE('',(#115),#63,.F.);
#829=ADVANCED_FACE('',(#116),#786,.F.);
#830=ADVANCED_FACE('',(#117),#64,.F.);
#831=ADVANCED_FACE('',(#118),#787,.F.);
#832=ADVANCED_FACE('',(#119),#65,.F.);
#833=ADVANCED_FACE('',(#120),#788,.F.);
#834=ADVANCED_FACE('',(#121),#66,.F.);
#835=ADVANCED_FACE('',(#122),#789,.F.);
#836=ADVANCED_FACE('',(#123),#67,.F.);
#837=ADVANCED_FACE('',(#124),#790,.F.);
#838=ADVANCED_FACE('',(#125),#68,.F.);
#839=ADVANCED_FACE('',(#126),#791,.F.);
#840=ADVANCED_FACE('',(#127),#69,.F.);
#841=ADVANCED_FACE('',(#128),#792,.F.);
#842=ADVANCED_FACE('',(#129),#70,.T.);
#843=ADVANCED_FACE('',(#130),#793,.F.);
#844=ADVANCED_FACE('',(#131),#71,.T.);
#845=ADVANCED_FACE('',(#132,#30,#31,#32,#33,#34,#35,#36,#37,#38,#39,#40,
#41,#42,#43),#72,.F.);
#846=ADVANCED_FACE('',(#133,#44,#45),#73,.F.);
#847=ADVANCED_FACE('',(#134),#74,.F.);
#848=ADVANCED_FACE('',(#135),#75,.F.);
#849=ADVANCED_FACE('',(#136),#76,.F.);
#850=ADVANCED_FACE('',(#137),#77,.T.);
#851=ADVANCED_FACE('',(#138),#78,.T.);
#852=ADVANCED_FACE('',(#139),#79,.T.);
#853=ADVANCED_FACE('',(#140),#80,.T.);
#854=CLOSED_SHELL('',(#794,#795,#796,#797,#798,#799,#800,#801,#802,#803,
#804,#805,#806,#807,#808,#809,#810,#811,#812,#813,#814,#815,#816,#817,#818,
#819,#820,#821,#822,#823,#824,#825,#826,#827,#828,#829,#830,#831,#832,#833,
#834,#835,#836,#837,#838,#839,#840,#841,#842,#843,#844,#845,#846,#847,#848,
#849,#850,#851,#852,#853));
#855=DERIVED_UNIT_ELEMENT(#857,1.);
#856=DERIVED_UNIT_ELEMENT(#1516,-3.);
#857=(
MASS_UNIT()
NAMED_UNIT(*)
SI_UNIT(.KILO.,.GRAM.)
);
#858=DERIVED_UNIT((#855,#856));
#859=MEASURE_REPRESENTATION_ITEM('density measure',
POSITIVE_RATIO_MEASURE(7850.),#858);
#860=PROPERTY_DEFINITION_REPRESENTATION(#865,#862);
#861=PROPERTY_DEFINITION_REPRESENTATION(#866,#863);
#862=REPRESENTATION('material name',(#864),#1513);
#863=REPRESENTATION('density',(#859),#1513);
#864=DESCRIPTIVE_REPRESENTATION_ITEM('Steel','Steel');
#865=PROPERTY_DEFINITION('material property','material name',#1533);
#866=PROPERTY_DEFINITION('material property','density of part',#1533);
#867=AXIS2_PLACEMENT_3D('',#1267,#982,#983);
#868=AXIS2_PLACEMENT_3D('',#1268,#984,#985);
#869=AXIS2_PLACEMENT_3D('',#1269,#986,#987);
#870=AXIS2_PLACEMENT_3D('',#1270,#988,#989);
#871=AXIS2_PLACEMENT_3D('',#1272,#990,#991);
#872=AXIS2_PLACEMENT_3D('',#1275,#993,#994);
#873=AXIS2_PLACEMENT_3D('',#1276,#995,#996);
#874=AXIS2_PLACEMENT_3D('',#1277,#997,#998);
#875=AXIS2_PLACEMENT_3D('',#1279,#999,#1000);
#876=AXIS2_PLACEMENT_3D('',#1282,#1002,#1003);
#877=AXIS2_PLACEMENT_3D('',#1283,#1004,#1005);
#878=AXIS2_PLACEMENT_3D('',#1284,#1006,#1007);
#879=AXIS2_PLACEMENT_3D('',#1286,#1008,#1009);
#880=AXIS2_PLACEMENT_3D('',#1289,#1011,#1012);
#881=AXIS2_PLACEMENT_3D('',#1290,#1013,#1014);
#882=AXIS2_PLACEMENT_3D('',#1291,#1015,#1016);
#883=AXIS2_PLACEMENT_3D('',#1293,#1017,#1018);
#884=AXIS2_PLACEMENT_3D('',#1296,#1020,#1021);
#885=AXIS2_PLACEMENT_3D('',#1297,#1022,#1023);
#886=AXIS2_PLACEMENT_3D('',#1298,#1024,#1025);
#887=AXIS2_PLACEMENT_3D('',#1303,#1027,#1028);
#888=AXIS2_PLACEMENT_3D('',#1306,#1030,#1031);
#889=AXIS2_PLACEMENT_3D('',#1307,#1032,#1033);
#890=AXIS2_PLACEMENT_3D('',#1309,#1035,#1036);
#891=AXIS2_PLACEMENT_3D('',#1311,#1037,#1038);
#892=AXIS2_PLACEMENT_3D('',#1314,#1040,#1041);
#893=AXIS2_PLACEMENT_3D('',#1315,#1042,#1043);
#894=AXIS2_PLACEMENT_3D('',#1316,#1044,#1045);
#895=AXIS2_PLACEMENT_3D('',#1321,#1047,#1048);
#896=AXIS2_PLACEMENT_3D('',#1324,#1050,#1051);
#897=AXIS2_PLACEMENT_3D('',#1325,#1052,#1053);
#898=AXIS2_PLACEMENT_3D('',#1327,#1055,#1056);
#899=AXIS2_PLACEMENT_3D('',#1329,#1057,#1058);
#900=AXIS2_PLACEMENT_3D('',#1332,#1060,#1061);
#901=AXIS2_PLACEMENT_3D('',#1333,#1062,#1063);
#902=AXIS2_PLACEMENT_3D('',#1334,#1064,#1065);
#903=AXIS2_PLACEMENT_3D('',#1336,#1066,#1067);
#904=AXIS2_PLACEMENT_3D('',#1339,#1069,#1070);
#905=AXIS2_PLACEMENT_3D('',#1340,#1071,#1072);
#906=AXIS2_PLACEMENT_3D('',#1341,#1073,#1074);
#907=AXIS2_PLACEMENT_3D('',#1360,#1085,#1086);
#908=AXIS2_PLACEMENT_3D('',#1362,#1087,#1088);
#909=AXIS2_PLACEMENT_3D('',#1365,#1090,#1091);
#910=AXIS2_PLACEMENT_3D('',#1366,#1092,#1093);
#911=AXIS2_PLACEMENT_3D('',#1367,#1094,#1095);
#912=AXIS2_PLACEMENT_3D('',#1369,#1096,#1097);
#913=AXIS2_PLACEMENT_3D('',#1372,#1099,#1100);
#914=AXIS2_PLACEMENT_3D('',#1373,#1101,#1102);
#915=AXIS2_PLACEMENT_3D('',#1374,#1103,#1104);
#916=AXIS2_PLACEMENT_3D('',#1376,#1105,#1106);
#917=AXIS2_PLACEMENT_3D('',#1379,#1108,#1109);
#918=AXIS2_PLACEMENT_3D('',#1380,#1110,#1111);
#919=AXIS2_PLACEMENT_3D('',#1381,#1112,#1113);
#920=AXIS2_PLACEMENT_3D('',#1383,#1114,#1115);
#921=AXIS2_PLACEMENT_3D('',#1386,#1117,#1118);
#922=AXIS2_PLACEMENT_3D('',#1387,#1119,#1120);
#923=AXIS2_PLACEMENT_3D('',#1388,#1121,#1122);
#924=AXIS2_PLACEMENT_3D('',#1390,#1123,#1124);
#925=AXIS2_PLACEMENT_3D('',#1393,#1126,#1127);
#926=AXIS2_PLACEMENT_3D('',#1394,#1128,#1129);
#927=AXIS2_PLACEMENT_3D('',#1395,#1130,#1131);
#928=AXIS2_PLACEMENT_3D('',#1397,#1132,#1133);
#929=AXIS2_PLACEMENT_3D('',#1400,#1135,#1136);
#930=AXIS2_PLACEMENT_3D('',#1401,#1137,#1138);
#931=AXIS2_PLACEMENT_3D('',#1402,#1139,#1140);
#932=AXIS2_PLACEMENT_3D('',#1404,#1141,#1142);
#933=AXIS2_PLACEMENT_3D('',#1407,#1144,#1145);
#934=AXIS2_PLACEMENT_3D('',#1408,#1146,#1147);
#935=AXIS2_PLACEMENT_3D('',#1409,#1148,#1149);
#936=AXIS2_PLACEMENT_3D('',#1411,#1150,#1151);
#937=AXIS2_PLACEMENT_3D('',#1414,#1153,#1154);
#938=AXIS2_PLACEMENT_3D('',#1415,#1155,#1156);
#939=AXIS2_PLACEMENT_3D('',#1416,#1157,#1158);
#940=AXIS2_PLACEMENT_3D('',#1418,#1159,#1160);
#941=AXIS2_PLACEMENT_3D('',#1421,#1162,#1163);
#942=AXIS2_PLACEMENT_3D('',#1422,#1164,#1165);
#943=AXIS2_PLACEMENT_3D('',#1423,#1166,#1167);
#944=AXIS2_PLACEMENT_3D('',#1425,#1168,#1169);
#945=AXIS2_PLACEMENT_3D('',#1428,#1171,#1172);
#946=AXIS2_PLACEMENT_3D('',#1429,#1173,#1174);
#947=AXIS2_PLACEMENT_3D('',#1430,#1175,#1176);
#948=AXIS2_PLACEMENT_3D('',#1432,#1177,#1178);
#949=AXIS2_PLACEMENT_3D('',#1435,#1180,#1181);
#950=AXIS2_PLACEMENT_3D('',#1436,#1182,#1183);
#951=AXIS2_PLACEMENT_3D('',#1437,#1184,#1185);
#952=AXIS2_PLACEMENT_3D('',#1439,#1186,#1187);
#953=AXIS2_PLACEMENT_3D('',#1442,#1189,#1190);
#954=AXIS2_PLACEMENT_3D('',#1443,#1191,#1192);
#955=AXIS2_PLACEMENT_3D('',#1444,#1193,#1194);
#956=AXIS2_PLACEMENT_3D('',#1446,#1195,#1196);
#957=AXIS2_PLACEMENT_3D('',#1449,#1198,#1199);
#958=AXIS2_PLACEMENT_3D('',#1450,#1200,#1201);
#959=AXIS2_PLACEMENT_3D('',#1451,#1202,#1203);
#960=AXIS2_PLACEMENT_3D('',#1453,#1204,#1205);
#961=AXIS2_PLACEMENT_3D('',#1456,#1207,#1208);
#962=AXIS2_PLACEMENT_3D('',#1457,#1209,#1210);
#963=AXIS2_PLACEMENT_3D('',#1458,#1211,#1212);
#964=AXIS2_PLACEMENT_3D('',#1460,#1213,#1214);
#965=AXIS2_PLACEMENT_3D('',#1463,#1216,#1217);
#966=AXIS2_PLACEMENT_3D('',#1464,#1218,#1219);
#967=AXIS2_PLACEMENT_3D('',#1465,#1220,#1221);
#968=AXIS2_PLACEMENT_3D('',#1467,#1222,#1223);
#969=AXIS2_PLACEMENT_3D('',#1470,#1225,#1226);
#970=AXIS2_PLACEMENT_3D('',#1471,#1227,#1228);
#971=AXIS2_PLACEMENT_3D('',#1472,#1229,#1230);
#972=AXIS2_PLACEMENT_3D('',#1483,#1237,#1238);
#973=AXIS2_PLACEMENT_3D('',#1489,#1242,#1243);
#974=AXIS2_PLACEMENT_3D('',#1493,#1246,#1247);
#975=AXIS2_PLACEMENT_3D('',#1497,#1250,#1251);
#976=AXIS2_PLACEMENT_3D('',#1499,#1253,#1254);
#977=AXIS2_PLACEMENT_3D('',#1500,#1255,#1256);
#978=AXIS2_PLACEMENT_3D('',#1502,#1258,#1259);
#979=AXIS2_PLACEMENT_3D('',#1504,#1261,#1262);
#980=AXIS2_PLACEMENT_3D('',#1505,#1263,#1264);
#981=AXIS2_PLACEMENT_3D('',#1506,#1265,#1266);
#982=DIRECTION('axis',(0.,0.,1.));
#983=DIRECTION('refdir',(1.,0.,0.));
#984=DIRECTION('axis',(0.,0.,1.));
#985=DIRECTION('refdir',(1.,0.,0.));
#986=DIRECTION('axis',(0.,0.,1.));
#987=DIRECTION('refdir',(1.,0.,0.));
#988=DIRECTION('center_axis',(0.,0.,1.));
#989=DIRECTION('ref_axis',(1.,0.,0.));
#990=DIRECTION('center_axis',(0.,0.,1.));
#991=DIRECTION('ref_axis',(1.,0.,0.));
#992=DIRECTION('',(0.,0.,1.));
#993=DIRECTION('center_axis',(0.,0.,1.));
#994=DIRECTION('ref_axis',(1.,0.,0.));
#995=DIRECTION('center_axis',(0.,0.,-1.));
#996=DIRECTION('ref_axis',(1.,0.,0.));
#997=DIRECTION('center_axis',(0.,0.,1.));
#998=DIRECTION('ref_axis',(1.,0.,0.));
#999=DIRECTION('center_axis',(0.,0.,1.));
#1000=DIRECTION('ref_axis',(1.,0.,0.));
#1001=DIRECTION('',(0.,0.,1.));
#1002=DIRECTION('center_axis',(0.,0.,1.));
#1003=DIRECTION('ref_axis',(1.,0.,0.));
#1004=DIRECTION('center_axis',(0.,0.,-1.));
#1005=DIRECTION('ref_axis',(1.,0.,0.));
#1006=DIRECTION('center_axis',(0.,0.,1.));
#1007=DIRECTION('ref_axis',(1.,0.,0.));
#1008=DIRECTION('center_axis',(0.,0.,1.));
#1009=DIRECTION('ref_axis',(1.,0.,0.));
#1010=DIRECTION('',(0.,0.,1.));
#1011=DIRECTION('center_axis',(0.,0.,1.));
#1012=DIRECTION('ref_axis',(1.,0.,0.));
#1013=DIRECTION('center_axis',(0.,0.,-1.));
#1014=DIRECTION('ref_axis',(1.,0.,0.));
#1015=DIRECTION('center_axis',(0.,0.,1.));
#1016=DIRECTION('ref_axis',(1.,0.,0.));
#1017=DIRECTION('center_axis',(0.,0.,1.));
#1018=DIRECTION('ref_axis',(1.,0.,0.));
#1019=DIRECTION('',(0.,0.,1.));
#1020=DIRECTION('center_axis',(0.,0.,1.));
#1021=DIRECTION('ref_axis',(1.,0.,0.));
#1022=DIRECTION('center_axis',(0.,0.,-1.));
#1023=DIRECTION('ref_axis',(1.,0.,0.));
#1024=DIRECTION('center_axis',(0.,0.,1.));
#1025=DIRECTION('ref_axis',(1.,0.,0.));
#1026=DIRECTION('',(0.,0.,-1.));
#1027=DIRECTION('center_axis',(0.,0.,1.));
#1028=DIRECTION('ref_axis',(1.,0.,0.));
#1029=DIRECTION('',(0.,0.,1.));
#1030=DIRECTION('center_axis',(0.,0.,1.));
#1031=DIRECTION('ref_axis',(1.,0.,0.));
#1032=DIRECTION('center_axis',(0.,0.,-1.));
#1033=DIRECTION('ref_axis',(1.,0.,0.));
#1034=DIRECTION('',(1.,5.26422409407486E-16,0.));
#1035=DIRECTION('center_axis',(0.,0.,1.));
#1036=DIRECTION('ref_axis',(1.,0.,0.));
#1037=DIRECTION('center_axis',(0.,0.,1.));
#1038=DIRECTION('ref_axis',(1.,0.,0.));
#1039=DIRECTION('',(0.,0.,1.));
#1040=DIRECTION('center_axis',(0.,0.,1.));
#1041=DIRECTION('ref_axis',(1.,0.,0.));
#1042=DIRECTION('center_axis',(0.,0.,-1.));
#1043=DIRECTION('ref_axis',(1.,0.,0.));
#1044=DIRECTION('center_axis',(0.,0.,1.));
#1045=DIRECTION('ref_axis',(1.,0.,0.));
#1046=DIRECTION('',(0.,0.,-1.));
#1047=DIRECTION('center_axis',(0.,0.,1.));
#1048=DIRECTION('ref_axis',(1.,0.,0.));
#1049=DIRECTION('',(0.,0.,1.));
#1050=DIRECTION('center_axis',(0.,0.,1.));
#1051=DIRECTION('ref_axis',(1.,0.,0.));
#1052=DIRECTION('center_axis',(0.,0.,-1.));
#1053=DIRECTION('ref_axis',(1.,0.,0.));
#1054=DIRECTION('',(1.,5.26422409407486E-16,0.));
#1055=DIRECTION('center_axis',(0.,0.,1.));
#1056=DIRECTION('ref_axis',(1.,0.,0.));
#1057=DIRECTION('center_axis',(0.,0.,1.));
#1058=DIRECTION('ref_axis',(1.,0.,0.));
#1059=DIRECTION('',(0.,0.,1.));
#1060=DIRECTION('center_axis',(0.,0.,1.));
#1061=DIRECTION('ref_axis',(1.,0.,0.));
#1062=DIRECTION('center_axis',(0.,0.,-1.));
#1063=DIRECTION('ref_axis',(1.,0.,0.));
#1064=DIRECTION('center_axis',(0.,0.,1.));
#1065=DIRECTION('ref_axis',(1.,0.,0.));
#1066=DIRECTION('center_axis',(0.,0.,1.));
#1067=DIRECTION('ref_axis',(1.,0.,0.));
#1068=DIRECTION('',(0.,0.,1.));
#1069=DIRECTION('center_axis',(0.,0.,1.));
#1070=DIRECTION('ref_axis',(1.,0.,0.));
#1071=DIRECTION('center_axis',(0.,0.,-1.));
#1072=DIRECTION('ref_axis',(1.,0.,0.));
#1073=DIRECTION('center_axis',(0.,0.,-1.));
#1074=DIRECTION('ref_axis',(-1.,0.,0.));
#1075=DIRECTION('',(-1.,-5.26422409407486E-16,0.));
#1076=DIRECTION('',(-0.5,0.866025403784439,0.));
#1077=DIRECTION('',(-1.,-3.07674029821369E-16,0.));
#1078=DIRECTION('',(-0.5,-0.866025403784439,0.));
#1079=DIRECTION('',(-1.,-5.26422409407486E-16,0.));
#1080=DIRECTION('',(-1.,-5.26422409407486E-16,0.));
#1081=DIRECTION('',(0.5,0.866025403784439,0.));
#1082=DIRECTION('',(1.,3.07674029821369E-16,0.));
#1083=DIRECTION('',(0.5,-0.866025403784439,0.));
#1084=DIRECTION('',(-1.,-5.26422409407486E-16,0.));
#1085=DIRECTION('center_axis',(0.,1.,0.));
#1086=DIRECTION('ref_axis',(-1.,0.,0.));
#1087=DIRECTION('center_axis',(-5.26422409407486E-16,1.,0.));
#1088=DIRECTION('ref_axis',(-1.,0.,0.));
#1089=DIRECTION('',(0.,1.,0.));
#1090=DIRECTION('center_axis',(0.,1.,0.));
#1091=DIRECTION('ref_axis',(-1.,0.,0.));
#1092=DIRECTION('center_axis',(0.,1.,0.));
#1093=DIRECTION('ref_axis',(-1.,0.,0.));
#1094=DIRECTION('center_axis',(0.,1.,0.));
#1095=DIRECTION('ref_axis',(-1.,0.,0.));
#1096=DIRECTION('center_axis',(-5.26422409407486E-16,1.,0.));
#1097=DIRECTION('ref_axis',(-1.,0.,0.));
#1098=DIRECTION('',(0.,1.,0.));
#1099=DIRECTION('center_axis',(0.,1.,0.));
#1100=DIRECTION('ref_axis',(-1.,0.,0.));
#1101=DIRECTION('center_axis',(0.,1.,0.));
#1102=DIRECTION('ref_axis',(-1.,0.,0.));
#1103=DIRECTION('center_axis',(0.,1.,0.));
#1104=DIRECTION('ref_axis',(-1.,0.,0.));
#1105=DIRECTION('center_axis',(-5.26422409407486E-16,1.,0.));
#1106=DIRECTION('ref_axis',(-1.,0.,0.));
#1107=DIRECTION('',(0.,1.,0.));
#1108=DIRECTION('center_axis',(0.,1.,0.));
#1109=DIRECTION('ref_axis',(-1.,0.,0.));
#1110=DIRECTION('center_axis',(0.,1.,0.));
#1111=DIRECTION('ref_axis',(-1.,0.,0.));
#1112=DIRECTION('center_axis',(0.,1.,0.));
#1113=DIRECTION('ref_axis',(-1.,0.,0.));
#1114=DIRECTION('center_axis',(-5.26422409407486E-16,1.,0.));
#1115=DIRECTION('ref_axis',(-1.,0.,0.));
#1116=DIRECTION('',(0.,1.,0.));
#1117=DIRECTION('center_axis',(0.,1.,0.));
#1118=DIRECTION('ref_axis',(-1.,0.,0.));
#1119=DIRECTION('center_axis',(0.,1.,0.));
#1120=DIRECTION('ref_axis',(-1.,0.,0.));
#1121=DIRECTION('center_axis',(0.,1.,0.));
#1122=DIRECTION('ref_axis',(-1.,0.,0.));
#1123=DIRECTION('center_axis',(-5.26422409407486E-16,1.,0.));
#1124=DIRECTION('ref_axis',(-1.,0.,0.));
#1125=DIRECTION('',(0.,1.,0.));
#1126=DIRECTION('center_axis',(0.,1.,0.));
#1127=DIRECTION('ref_axis',(-1.,0.,0.));
#1128=DIRECTION('center_axis',(0.,1.,0.));
#1129=DIRECTION('ref_axis',(-1.,0.,0.));
#1130=DIRECTION('center_axis',(0.,1.,0.));
#1131=DIRECTION('ref_axis',(-1.,0.,0.));
#1132=DIRECTION('center_axis',(-5.26422409407486E-16,1.,0.));
#1133=DIRECTION('ref_axis',(-1.,0.,0.));
#1134=DIRECTION('',(0.,1.,0.));
#1135=DIRECTION('center_axis',(0.,1.,0.));
#1136=DIRECTION('ref_axis',(-1.,0.,0.));
#1137=DIRECTION('center_axis',(0.,1.,0.));
#1138=DIRECTION('ref_axis',(-1.,0.,0.));
#1139=DIRECTION('center_axis',(0.,1.,0.));
#1140=DIRECTION('ref_axis',(-1.,0.,0.));
#1141=DIRECTION('center_axis',(-5.26422409407486E-16,1.,0.));
#1142=DIRECTION('ref_axis',(-1.,0.,0.));
#1143=DIRECTION('',(0.,1.,0.));
#1144=DIRECTION('center_axis',(0.,1.,0.));
#1145=DIRECTION('ref_axis',(-1.,0.,0.));
#1146=DIRECTION('center_axis',(0.,1.,0.));
#1147=DIRECTION('ref_axis',(-1.,0.,0.));
#1148=DIRECTION('center_axis',(0.,1.,0.));
#1149=DIRECTION('ref_axis',(-1.,0.,0.));
#1150=DIRECTION('center_axis',(-5.26422409407486E-16,1.,0.));
#1151=DIRECTION('ref_axis',(-1.,0.,0.));
#1152=DIRECTION('',(0.,1.,0.));
#1153=DIRECTION('center_axis',(0.,1.,0.));
#1154=DIRECTION('ref_axis',(-1.,0.,0.));
#1155=DIRECTION('center_axis',(0.,1.,0.));
#1156=DIRECTION('ref_axis',(-1.,0.,0.));
#1157=DIRECTION('center_axis',(0.,1.,0.));
#1158=DIRECTION('ref_axis',(-1.,0.,0.));
#1159=DIRECTION('center_axis',(-5.26422409407486E-16,1.,0.));
#1160=DIRECTION('ref_axis',(-1.,0.,0.));
#1161=DIRECTION('',(0.,1.,0.));
#1162=DIRECTION('center_axis',(0.,1.,0.));
#1163=DIRECTION('ref_axis',(-1.,0.,0.));
#1164=DIRECTION('center_axis',(0.,1.,0.));
#1165=DIRECTION('ref_axis',(-1.,0.,0.));
#1166=DIRECTION('center_axis',(0.,1.,0.));
#1167=DIRECTION('ref_axis',(-1.,0.,0.));
#1168=DIRECTION('center_axis',(-5.26422409407486E-16,1.,0.));
#1169=DIRECTION('ref_axis',(-1.,0.,0.));
#1170=DIRECTION('',(0.,1.,0.));
#1171=DIRECTION('center_axis',(0.,1.,0.));
#1172=DIRECTION('ref_axis',(-1.,0.,0.));
#1173=DIRECTION('center_axis',(0.,1.,0.));
#1174=DIRECTION('ref_axis',(-1.,0.,0.));
#1175=DIRECTION('center_axis',(0.,1.,0.));
#1176=DIRECTION('ref_axis',(-1.,0.,0.));
#1177=DIRECTION('center_axis',(-5.26422409407486E-16,1.,0.));
#1178=DIRECTION('ref_axis',(-1.,0.,0.));
#1179=DIRECTION('',(0.,1.,0.));
#1180=DIRECTION('center_axis',(0.,1.,0.));
#1181=DIRECTION('ref_axis',(-1.,0.,0.));
#1182=DIRECTION('center_axis',(0.,1.,0.));
#1183=DIRECTION('ref_axis',(-1.,0.,0.));
#1184=DIRECTION('center_axis',(0.,1.,0.));
#1185=DIRECTION('ref_axis',(-1.,0.,0.));
#1186=DIRECTION('center_axis',(-5.26422409407486E-16,1.,0.));
#1187=DIRECTION('ref_axis',(-1.,0.,0.));
#1188=DIRECTION('',(0.,1.,0.));
#1189=DIRECTION('center_axis',(0.,1.,0.));
#1190=DIRECTION('ref_axis',(-1.,0.,0.));
#1191=DIRECTION('center_axis',(0.,1.,0.));
#1192=DIRECTION('ref_axis',(-1.,0.,0.));
#1193=DIRECTION('center_axis',(0.,1.,0.));
#1194=DIRECTION('ref_axis',(-1.,0.,0.));
#1195=DIRECTION('center_axis',(-5.26422409407486E-16,1.,0.));
#1196=DIRECTION('ref_axis',(-1.,0.,0.));
#1197=DIRECTION('',(0.,1.,0.));
#1198=DIRECTION('center_axis',(0.,1.,0.));
#1199=DIRECTION('ref_axis',(-1.,0.,0.));
#1200=DIRECTION('center_axis',(0.,1.,0.));
#1201=DIRECTION('ref_axis',(-1.,0.,0.));
#1202=DIRECTION('center_axis',(0.,1.,0.));
#1203=DIRECTION('ref_axis',(-1.,0.,0.));
#1204=DIRECTION('center_axis',(-5.26422409407486E-16,1.,0.));
#1205=DIRECTION('ref_axis',(-1.,0.,0.));
#1206=DIRECTION('',(0.,1.,0.));
#1207=DIRECTION('center_axis',(0.,1.,0.));
#1208=DIRECTION('ref_axis',(-1.,0.,0.));
#1209=DIRECTION('center_axis',(0.,1.,0.));
#1210=DIRECTION('ref_axis',(-1.,0.,0.));
#1211=DIRECTION('center_axis',(0.,0.,-1.));
#1212=DIRECTION('ref_axis',(-1.,0.,0.));
#1213=DIRECTION('center_axis',(0.,0.,-1.));
#1214=DIRECTION('ref_axis',(-1.,0.,0.));
#1215=DIRECTION('',(0.,0.,-1.));
#1216=DIRECTION('center_axis',(0.,0.,-1.));
#1217=DIRECTION('ref_axis',(-1.,0.,0.));
#1218=DIRECTION('center_axis',(0.,0.,1.));
#1219=DIRECTION('ref_axis',(-1.,0.,0.));
#1220=DIRECTION('center_axis',(0.,0.,-1.));
#1221=DIRECTION('ref_axis',(-1.,0.,0.));
#1222=DIRECTION('center_axis',(0.,0.,-1.));
#1223=DIRECTION('ref_axis',(-1.,0.,0.));
#1224=DIRECTION('',(0.,0.,-1.));
#1225=DIRECTION('center_axis',(0.,0.,-1.));
#1226=DIRECTION('ref_axis',(-1.,0.,0.));
#1227=DIRECTION('center_axis',(0.,0.,1.));
#1228=DIRECTION('ref_axis',(-1.,0.,0.));
#1229=DIRECTION('center_axis',(-5.26422409407486E-16,1.,0.));
#1230=DIRECTION('ref_axis',(0.,0.,1.));
#1231=DIRECTION('',(0.,0.,-1.));
#1232=DIRECTION('',(1.,5.26422409407486E-16,0.));
#1233=DIRECTION('',(0.,0.,-1.));
#1234=DIRECTION('',(0.,0.,1.));
#1235=DIRECTION('',(-1.,-5.26422409407486E-16,0.));
#1236=DIRECTION('',(0.,0.,1.));
#1237=DIRECTION('center_axis',(0.,0.,-1.));
#1238=DIRECTION('ref_axis',(1.,0.,0.));
#1239=DIRECTION('',(0.5,-0.866025403784439,0.));
#1240=DIRECTION('',(1.,3.07674029821369E-16,0.));
#1241=DIRECTION('',(0.5,0.866025403784439,0.));
#1242=DIRECTION('center_axis',(-0.866025403784439,0.5,0.));
#1243=DIRECTION('ref_axis',(0.5,0.866025403784439,0.));
#1244=DIRECTION('',(-0.5,-0.866025403784439,0.));
#1245=DIRECTION('',(0.,0.,-1.));
#1246=DIRECTION('center_axis',(0.866025403784439,0.5,0.));
#1247=DIRECTION('ref_axis',(0.5,-0.866025403784439,0.));
#1248=DIRECTION('',(-0.5,0.866025403784439,0.));
#1249=DIRECTION('',(0.,0.,1.));
#1250=DIRECTION('center_axis',(-3.07674029821369E-16,1.,0.));
#1251=DIRECTION('ref_axis',(1.,3.07674029821369E-16,0.));
#1252=DIRECTION('',(-1.,-3.07674029821369E-16,0.));
#1253=DIRECTION('center_axis',(0.,0.,-1.));
#1254=DIRECTION('ref_axis',(1.,0.,0.));
#1255=DIRECTION('center_axis',(-0.866025403784439,0.5,0.));
#1256=DIRECTION('ref_axis',(0.5,0.866025403784439,0.));
#1257=DIRECTION('',(0.,0.,-1.));
#1258=DIRECTION('center_axis',(0.866025403784439,0.5,0.));
#1259=DIRECTION('ref_axis',(0.5,-0.866025403784439,0.));
#1260=DIRECTION('',(0.,0.,-1.));
#1261=DIRECTION('center_axis',(-3.07674029821369E-16,1.,0.));
#1262=DIRECTION('ref_axis',(1.,3.07674029821369E-16,0.));
#1263=DIRECTION('',(0.,0.,1.));
#1264=DIRECTION('',(1.,0.,0.));
#1265=DIRECTION('',(0.,0.,1.));
#1266=DIRECTION('',(1.,0.,0.));
#1267=CARTESIAN_POINT('',(0.,0.,0.));
#1268=CARTESIAN_POINT('',(0.,0.,0.));
#1269=CARTESIAN_POINT('',(0.,0.,0.));
#1270=CARTESIAN_POINT('Origin',(-58.8534620031767,31.7653718043599,-215.));
#1271=CARTESIAN_POINT('',(-61.4034620031767,31.7653718043599,-215.));
#1272=CARTESIAN_POINT('Origin',(-58.8534620031767,31.7653718043599,-215.));
#1273=CARTESIAN_POINT('',(-61.4034620031767,31.7653718043599,-212.9));
#1274=CARTESIAN_POINT('',(-61.4034620031767,31.7653718043599,-215.));
#1275=CARTESIAN_POINT('Origin',(-58.8534620031767,31.7653718043599,-212.9));
#1276=CARTESIAN_POINT('Origin',(-58.8534620031767,31.7653718043599,-212.9));
#1277=CARTESIAN_POINT('Origin',(-131.164372503151,0.588457268120223,-215.));
#1278=CARTESIAN_POINT('',(-133.714372503151,0.588457268120223,-215.));
#1279=CARTESIAN_POINT('Origin',(-131.164372503151,0.588457268120223,-215.));
#1280=CARTESIAN_POINT('',(-133.714372503151,0.588457268120223,-212.9));
#1281=CARTESIAN_POINT('',(-133.714372503151,0.588457268120222,-215.));
#1282=CARTESIAN_POINT('Origin',(-131.164372503151,0.588457268120223,-212.9));
#1283=CARTESIAN_POINT('Origin',(-131.164372503151,0.588457268120223,-212.9));
#1284=CARTESIAN_POINT('Origin',(-122.164372503151,16.1769145362401,-215.));
#1285=CARTESIAN_POINT('',(-124.714372503151,16.1769145362401,-215.));
#1286=CARTESIAN_POINT('Origin',(-122.164372503151,16.1769145362401,-215.));
#1287=CARTESIAN_POINT('',(-124.714372503151,16.1769145362401,-212.9));
#1288=CARTESIAN_POINT('',(-124.714372503151,16.1769145362401,-215.));
#1289=CARTESIAN_POINT('Origin',(-122.164372503151,16.1769145362401,-212.9));
#1290=CARTESIAN_POINT('Origin',(-122.164372503151,16.1769145362401,-212.9));
#1291=CARTESIAN_POINT('Origin',(-49.8534620031766,16.1769145362401,-215.));
#1292=CARTESIAN_POINT('',(-52.4034620031766,16.1769145362401,-215.));
#1293=CARTESIAN_POINT('Origin',(-49.8534620031766,16.1769145362401,-215.));
#1294=CARTESIAN_POINT('',(-52.4034620031766,16.1769145362401,-212.9));
#1295=CARTESIAN_POINT('',(-52.4034620031766,16.1769145362401,-215.));
#1296=CARTESIAN_POINT('Origin',(-49.8534620031766,16.1769145362401,-212.9));
#1297=CARTESIAN_POINT('Origin',(-49.8534620031766,16.1769145362401,-212.9));
#1298=CARTESIAN_POINT('Origin',(-31.8534620031765,-15.0000000000003,-215.));
#1299=CARTESIAN_POINT('',(-29.3034620031765,-14.9999999999999,-212.9));
#1300=CARTESIAN_POINT('',(-29.3034620031765,-14.9999999999999,-215.));
#1301=CARTESIAN_POINT('',(-29.3034620031765,-14.9999999999999,-215.));
#1302=CARTESIAN_POINT('',(-34.4034620031765,-15.0000000000003,-212.9));
#1303=CARTESIAN_POINT('Origin',(-31.8534620031765,-15.0000000000003,-212.9));
#1304=CARTESIAN_POINT('',(-34.4034620031765,-15.0000000000003,-215.));
#1305=CARTESIAN_POINT('',(-34.4034620031765,-15.,-215.));
#1306=CARTESIAN_POINT('Origin',(-31.8534620031765,-15.0000000000003,-215.));
#1307=CARTESIAN_POINT('Origin',(-31.8534620031765,-15.0000000000003,-212.9));
#1308=CARTESIAN_POINT('',(-58.9311896281701,-15.,-212.9));
#1309=CARTESIAN_POINT('Origin',(-86.0089172531637,31.9000000000003,-215.));
#1310=CARTESIAN_POINT('',(-88.5589172531637,31.9000000000003,-215.));
#1311=CARTESIAN_POINT('Origin',(-86.0089172531637,31.9000000000003,-215.));
#1312=CARTESIAN_POINT('',(-88.5589172531637,31.9000000000003,-212.9));
#1313=CARTESIAN_POINT('',(-88.5589172531637,31.9000000000003,-215.));
#1314=CARTESIAN_POINT('Origin',(-86.0089172531637,31.9000000000003,-212.9));
#1315=CARTESIAN_POINT('Origin',(-86.0089172531637,31.9000000000003,-212.9));
#1316=CARTESIAN_POINT('Origin',(-140.164372503151,-15.,-215.));
#1317=CARTESIAN_POINT('',(-137.614372503151,-15.,-212.9));
#1318=CARTESIAN_POINT('',(-137.614372503151,-15.,-215.));
#1319=CARTESIAN_POINT('',(-137.614372503151,-15.,-215.));
#1320=CARTESIAN_POINT('',(-142.714372503151,-15.,-212.9));
#1321=CARTESIAN_POINT('Origin',(-140.164372503151,-15.,-212.9));
#1322=CARTESIAN_POINT('',(-142.714372503151,-15.,-215.));
#1323=CARTESIAN_POINT('',(-142.714372503151,-15.,-215.));
#1324=CARTESIAN_POINT('Origin',(-140.164372503151,-15.,-215.));
#1325=CARTESIAN_POINT('Origin',(-140.164372503151,-15.,-212.9));
#1326=CARTESIAN_POINT('',(-113.086644878157,-15.,-212.9));
#1327=CARTESIAN_POINT('Origin',(-113.164372503151,31.76537180436,-215.));
#1328=CARTESIAN_POINT('',(-115.714372503151,31.76537180436,-215.));
#1329=CARTESIAN_POINT('Origin',(-113.164372503151,31.76537180436,-215.));
#1330=CARTESIAN_POINT('',(-115.714372503151,31.76537180436,-212.9));
#1331=CARTESIAN_POINT('',(-115.714372503151,31.76537180436,-215.));
#1332=CARTESIAN_POINT('Origin',(-113.164372503151,31.76537180436,-212.9));
#1333=CARTESIAN_POINT('Origin',(-113.164372503151,31.76537180436,-212.9));
#1334=CARTESIAN_POINT('Origin',(-40.8534620031766,0.588457268120205,-215.));
#1335=CARTESIAN_POINT('',(-43.4034620031766,0.588457268120205,-215.));
#1336=CARTESIAN_POINT('Origin',(-40.8534620031766,0.588457268120205,-215.));
#1337=CARTESIAN_POINT('',(-43.4034620031766,0.588457268120205,-212.9));
#1338=CARTESIAN_POINT('',(-43.4034620031766,0.588457268120205,-215.));
#1339=CARTESIAN_POINT('Origin',(-40.8534620031766,0.588457268120205,-212.9));
#1340=CARTESIAN_POINT('Origin',(-40.8534620031766,0.588457268120205,-212.9));
#1341=CARTESIAN_POINT('Origin',(-86.0089172531638,-15.,-215.));
#1342=CARTESIAN_POINT('',(-35.4330336721524,-15.,-215.));
#1343=CARTESIAN_POINT('',(-86.0089172531638,-15.,-215.));
#1344=CARTESIAN_POINT('',(-60.7209754626581,28.8000000000001,-215.));
#1345=CARTESIAN_POINT('',(-55.2938829322756,19.4000000000001,-215.));
#1346=CARTESIAN_POINT('',(-111.296859043669,28.8000000000001,-215.));
#1347=CARTESIAN_POINT('',(-100.442673982904,28.8000000000001,-215.));
#1348=CARTESIAN_POINT('',(-136.584800834175,-15.,-215.));
#1349=CARTESIAN_POINT('',(-131.157708303793,-5.59999999999998,-215.));
#1350=CARTESIAN_POINT('',(-86.0089172531638,-15.,-215.));
#1351=CARTESIAN_POINT('',(-143.743944172126,-15.,-215.));
#1352=CARTESIAN_POINT('',(-86.0089172531638,-15.,-215.));
#1353=CARTESIAN_POINT('',(-114.876430712645,35.0000000000001,-215.));
#1354=CARTESIAN_POINT('',(-143.743944172126,-15.,-215.));
#1355=CARTESIAN_POINT('',(-57.1414037936824,35.0000000000001,-215.));
#1356=CARTESIAN_POINT('',(-114.876430712645,35.0000000000001,-215.));
#1357=CARTESIAN_POINT('',(-28.2738903342011,-15.,-215.));
#1358=CARTESIAN_POINT('',(-57.1414037936824,35.0000000000001,-215.));
#1359=CARTESIAN_POINT('',(-86.0089172531638,-15.,-215.));
#1360=CARTESIAN_POINT('Origin',(-32.436509374254,-14.9999999999999,-161.433333333333));
#1361=CARTESIAN_POINT('',(-29.886509374254,-14.9999999999999,-161.433333333333));
#1362=CARTESIAN_POINT('Origin',(-32.436509374254,-15.,-161.433333333333));
#1363=CARTESIAN_POINT('',(-29.886509374254,-12.8999999999999,-161.433333333333));
#1364=CARTESIAN_POINT('',(-29.886509374254,-14.9999999999999,-161.433333333333));
#1365=CARTESIAN_POINT('Origin',(-32.436509374254,-12.8999999999999,-161.433333333333));
#1366=CARTESIAN_POINT('Origin',(-32.436509374254,-12.8999999999999,-161.433333333333));
#1367=CARTESIAN_POINT('Origin',(-32.436509374254,-14.9999999999999,-48.1));
#1368=CARTESIAN_POINT('',(-29.886509374254,-14.9999999999999,-48.1));
#1369=CARTESIAN_POINT('Origin',(-32.436509374254,-15.,-48.1));
#1370=CARTESIAN_POINT('',(-29.886509374254,-12.8999999999999,-48.1));
#1371=CARTESIAN_POINT('',(-29.886509374254,-14.9999999999999,-48.1));
#1372=CARTESIAN_POINT('Origin',(-32.436509374254,-12.8999999999999,-48.1));
#1373=CARTESIAN_POINT('Origin',(-32.436509374254,-12.8999999999999,-48.1));
#1374=CARTESIAN_POINT('Origin',(-139.581325132073,-14.9999999999999,-104.766666666667));
#1375=CARTESIAN_POINT('',(-137.031325132073,-14.9999999999999,-104.766666666667));
#1376=CARTESIAN_POINT('Origin',(-139.581325132073,-15.,-104.766666666667));
#1377=CARTESIAN_POINT('',(-137.031325132073,-12.8999999999999,-104.766666666667));
#1378=CARTESIAN_POINT('',(-137.031325132073,-14.9999999999999,-104.766666666667));
#1379=CARTESIAN_POINT('Origin',(-139.581325132073,-12.8999999999999,-104.766666666667));
#1380=CARTESIAN_POINT('Origin',(-139.581325132073,-12.8999999999999,-104.766666666667));
#1381=CARTESIAN_POINT('Origin',(-139.581325132073,-14.9999999999999,-189.766666666667));
#1382=CARTESIAN_POINT('',(-137.031325132073,-14.9999999999999,-189.766666666667));
#1383=CARTESIAN_POINT('Origin',(-139.581325132073,-15.,-189.766666666667));
#1384=CARTESIAN_POINT('',(-137.031325132073,-12.8999999999999,-189.766666666667));
#1385=CARTESIAN_POINT('',(-137.031325132073,-14.9999999999999,-189.766666666667));
#1386=CARTESIAN_POINT('Origin',(-139.581325132073,-12.8999999999999,-189.766666666667));
#1387=CARTESIAN_POINT('Origin',(-139.581325132073,-12.8999999999999,-189.766666666667));
#1388=CARTESIAN_POINT('Origin',(-139.581325132073,-14.9999999999999,-76.4333333333333));
#1389=CARTESIAN_POINT('',(-137.031325132073,-14.9999999999999,-76.4333333333333));
#1390=CARTESIAN_POINT('Origin',(-139.581325132073,-15.,-76.4333333333333));
#1391=CARTESIAN_POINT('',(-137.031325132073,-12.8999999999999,-76.4333333333333));
#1392=CARTESIAN_POINT('',(-137.031325132073,-14.9999999999999,-76.4333333333333));
#1393=CARTESIAN_POINT('Origin',(-139.581325132073,-12.8999999999999,-76.4333333333333));
#1394=CARTESIAN_POINT('Origin',(-139.581325132073,-12.8999999999999,-76.4333333333333));
#1395=CARTESIAN_POINT('Origin',(-32.436509374254,-14.9999999999999,-76.4333333333333));
#1396=CARTESIAN_POINT('',(-29.886509374254,-14.9999999999999,-76.4333333333333));
#1397=CARTESIAN_POINT('Origin',(-32.436509374254,-15.,-76.4333333333333));
#1398=CARTESIAN_POINT('',(-29.886509374254,-12.8999999999999,-76.4333333333333));
#1399=CARTESIAN_POINT('',(-29.886509374254,-14.9999999999999,-76.4333333333333));
#1400=CARTESIAN_POINT('Origin',(-32.436509374254,-12.8999999999999,-76.4333333333333));
#1401=CARTESIAN_POINT('Origin',(-32.436509374254,-12.8999999999999,-76.4333333333333));
#1402=CARTESIAN_POINT('Origin',(-32.436509374254,-14.9999999999999,-189.766666666667));
#1403=CARTESIAN_POINT('',(-29.886509374254,-14.9999999999999,-189.766666666667));
#1404=CARTESIAN_POINT('Origin',(-32.436509374254,-15.,-189.766666666667));
#1405=CARTESIAN_POINT('',(-29.886509374254,-12.8999999999999,-189.766666666667));
#1406=CARTESIAN_POINT('',(-29.886509374254,-14.9999999999999,-189.766666666667));
#1407=CARTESIAN_POINT('Origin',(-32.436509374254,-12.8999999999999,-189.766666666667));
#1408=CARTESIAN_POINT('Origin',(-32.436509374254,-12.8999999999999,-189.766666666667));
#1409=CARTESIAN_POINT('Origin',(-32.436509374254,-14.9999999999999,-133.1));
#1410=CARTESIAN_POINT('',(-29.886509374254,-14.9999999999999,-133.1));
#1411=CARTESIAN_POINT('Origin',(-32.436509374254,-15.,-133.1));
#1412=CARTESIAN_POINT('',(-29.886509374254,-12.8999999999999,-133.1));
#1413=CARTESIAN_POINT('',(-29.886509374254,-14.9999999999999,-133.1));
#1414=CARTESIAN_POINT('Origin',(-32.436509374254,-12.8999999999999,-133.1));
#1415=CARTESIAN_POINT('Origin',(-32.436509374254,-12.8999999999999,-133.1));
#1416=CARTESIAN_POINT('Origin',(-62.436509374254,-14.9999999999999,-48.1));
#1417=CARTESIAN_POINT('',(-59.886509374254,-14.9999999999999,-48.1));
#1418=CARTESIAN_POINT('Origin',(-62.436509374254,-15.,-48.1));
#1419=CARTESIAN_POINT('',(-59.886509374254,-12.8999999999999,-48.1));
#1420=CARTESIAN_POINT('',(-59.886509374254,-14.9999999999999,-48.1));
#1421=CARTESIAN_POINT('Origin',(-62.436509374254,-12.8999999999999,-48.1));
#1422=CARTESIAN_POINT('Origin',(-62.436509374254,-12.8999999999999,-48.1));
#1423=CARTESIAN_POINT('Origin',(-139.581325132073,-14.9999999999999,-133.1));
#1424=CARTESIAN_POINT('',(-137.031325132073,-14.9999999999999,-133.1));
#1425=CARTESIAN_POINT('Origin',(-139.581325132073,-15.,-133.1));
#1426=CARTESIAN_POINT('',(-137.031325132073,-12.8999999999999,-133.1));
#1427=CARTESIAN_POINT('',(-137.031325132073,-14.9999999999999,-133.1));
#1428=CARTESIAN_POINT('Origin',(-139.581325132073,-12.8999999999999,-133.1));
#1429=CARTESIAN_POINT('Origin',(-139.581325132073,-12.8999999999999,-133.1));
#1430=CARTESIAN_POINT('Origin',(-139.581325132073,-14.9999999999999,-161.433333333333));
#1431=CARTESIAN_POINT('',(-137.031325132073,-14.9999999999999,-161.433333333333));
#1432=CARTESIAN_POINT('Origin',(-139.581325132073,-15.,-161.433333333333));
#1433=CARTESIAN_POINT('',(-137.031325132073,-12.8999999999999,-161.433333333333));
#1434=CARTESIAN_POINT('',(-137.031325132073,-14.9999999999999,-161.433333333333));
#1435=CARTESIAN_POINT('Origin',(-139.581325132073,-12.8999999999999,-161.433333333333));
#1436=CARTESIAN_POINT('Origin',(-139.581325132073,-12.8999999999999,-161.433333333333));
#1437=CARTESIAN_POINT('Origin',(-139.581325132073,-14.9999999999999,-48.1));
#1438=CARTESIAN_POINT('',(-137.031325132073,-14.9999999999999,-48.1));
#1439=CARTESIAN_POINT('Origin',(-139.581325132073,-15.,-48.1));
#1440=CARTESIAN_POINT('',(-137.031325132073,-12.8999999999999,-48.1));
#1441=CARTESIAN_POINT('',(-137.031325132073,-14.9999999999999,-48.1));
#1442=CARTESIAN_POINT('Origin',(-139.581325132073,-12.8999999999999,-48.1));
#1443=CARTESIAN_POINT('Origin',(-139.581325132073,-12.8999999999999,-48.1));
#1444=CARTESIAN_POINT('Origin',(-32.436509374254,-14.9999999999999,-104.766666666667));
#1445=CARTESIAN_POINT('',(-29.886509374254,-14.9999999999999,-104.766666666667));
#1446=CARTESIAN_POINT('Origin',(-32.436509374254,-15.,-104.766666666667));
#1447=CARTESIAN_POINT('',(-29.886509374254,-12.8999999999999,-104.766666666667));
#1448=CARTESIAN_POINT('',(-29.886509374254,-14.9999999999999,-104.766666666667));
#1449=CARTESIAN_POINT('Origin',(-32.436509374254,-12.8999999999999,-104.766666666667));
#1450=CARTESIAN_POINT('Origin',(-32.436509374254,-12.8999999999999,-104.766666666667));
#1451=CARTESIAN_POINT('Origin',(-109.581325132073,-14.9999999999999,-48.1));
#1452=CARTESIAN_POINT('',(-107.031325132074,-14.9999999999999,-48.1));
#1453=CARTESIAN_POINT('Origin',(-109.581325132073,-15.,-48.1));
#1454=CARTESIAN_POINT('',(-107.031325132074,-12.8999999999999,-48.1));
#1455=CARTESIAN_POINT('',(-107.031325132074,-14.9999999999999,-48.1));
#1456=CARTESIAN_POINT('Origin',(-109.581325132073,-12.8999999999999,-48.1));
#1457=CARTESIAN_POINT('Origin',(-109.581325132073,-12.8999999999999,-48.1));
#1458=CARTESIAN_POINT('Origin',(-107.087602245556,-7.12604247183648,-45.));
#1459=CARTESIAN_POINT('',(-104.537602245556,-7.12604247183648,-45.));
#1460=CARTESIAN_POINT('Origin',(-107.087602245556,-7.12604247183648,-45.));
#1461=CARTESIAN_POINT('',(-104.537602245556,-7.12604247183648,-47.1));
#1462=CARTESIAN_POINT('',(-104.537602245556,-7.12604247183648,-45.));
#1463=CARTESIAN_POINT('Origin',(-107.087602245556,-7.12604247183648,-47.1));
#1464=CARTESIAN_POINT('Origin',(-107.087602245556,-7.12604247183648,-47.1));
#1465=CARTESIAN_POINT('Origin',(-64.930232260772,-7.12604247183648,-45.));
#1466=CARTESIAN_POINT('',(-62.380232260772,-7.12604247183648,-45.));
#1467=CARTESIAN_POINT('Origin',(-64.930232260772,-7.12604247183648,-45.));
#1468=CARTESIAN_POINT('',(-62.380232260772,-7.12604247183648,-47.1));
#1469=CARTESIAN_POINT('',(-62.380232260772,-7.12604247183648,-45.));
#1470=CARTESIAN_POINT('Origin',(-64.930232260772,-7.12604247183648,-47.1));
#1471=CARTESIAN_POINT('Origin',(-64.930232260772,-7.12604247183648,-47.1));
#1472=CARTESIAN_POINT('Origin',(-86.0089172531638,-15.,-130.));
#1473=CARTESIAN_POINT('',(-28.2738903342011,-15.,-45.));
#1474=CARTESIAN_POINT('',(-28.2738903342011,-15.,-45.));
#1475=CARTESIAN_POINT('',(-143.743944172126,-15.,-45.));
#1476=CARTESIAN_POINT('',(-86.0089172531638,-15.,-45.));
#1477=CARTESIAN_POINT('',(-143.743944172126,-15.,-45.));
#1478=CARTESIAN_POINT('',(-136.584800834175,-15.,-51.2));
#1479=CARTESIAN_POINT('',(-136.584800834175,-15.,-45.));
#1480=CARTESIAN_POINT('',(-35.4330336721524,-15.,-51.2));
#1481=CARTESIAN_POINT('',(-86.0089172531638,-15.,-51.2));
#1482=CARTESIAN_POINT('',(-35.4330336721525,-15.,-45.));
#1483=CARTESIAN_POINT('Origin',(-86.0089172531638,-15.,-45.));
#1484=CARTESIAN_POINT('',(-57.1414037936824,35.0000000000001,-45.));
#1485=CARTESIAN_POINT('',(-57.1414037936824,35.0000000000001,-45.));
#1486=CARTESIAN_POINT('',(-114.876430712645,35.0000000000001,-45.));
#1487=CARTESIAN_POINT('',(-114.876430712645,35.0000000000001,-45.));
#1488=CARTESIAN_POINT('',(-143.743944172126,-15.,-45.));
#1489=CARTESIAN_POINT('Origin',(-138.374586668663,-18.1,-45.));
#1490=CARTESIAN_POINT('',(-111.296859043669,28.8000000000001,-51.2));
#1491=CARTESIAN_POINT('',(-131.157708303793,-5.59999999999998,-51.2));
#1492=CARTESIAN_POINT('',(-111.296859043669,28.8000000000001,-45.));
#1493=CARTESIAN_POINT('Origin',(-62.5107612971459,31.9000000000001,-45.));
#1494=CARTESIAN_POINT('',(-60.7209754626581,28.8000000000001,-51.2));
#1495=CARTESIAN_POINT('',(-55.2938829322756,19.4000000000001,-51.2));
#1496=CARTESIAN_POINT('',(-60.7209754626581,28.8000000000001,-45.));
#1497=CARTESIAN_POINT('Origin',(-114.876430712645,28.8000000000001,-45.));
#1498=CARTESIAN_POINT('',(-100.442673982904,28.8000000000001,-51.2));
#1499=CARTESIAN_POINT('Origin',(-86.0089172531638,-15.,-51.2));
#1500=CARTESIAN_POINT('Origin',(-143.743944172126,-15.,-45.));
#1501=CARTESIAN_POINT('',(-114.876430712645,35.0000000000001,-45.));
#1502=CARTESIAN_POINT('Origin',(-57.1414037936824,35.0000000000001,-45.));
#1503=CARTESIAN_POINT('',(-57.1414037936824,35.0000000000001,-45.));
#1504=CARTESIAN_POINT('Origin',(-114.876430712645,35.0000000000001,-45.));
#1505=CARTESIAN_POINT('',(0.,0.,0.));
#1506=CARTESIAN_POINT('',(0.,0.,0.));
#1507=UNCERTAINTY_MEASURE_WITH_UNIT(LENGTH_MEASURE(0.01),#1515,
'DISTANCE_ACCURACY_VALUE',
'Maximum model space distance between geometric entities at asserted c
onnectivities');
#1508=UNCERTAINTY_MEASURE_WITH_UNIT(LENGTH_MEASURE(0.01),#1515,
'DISTANCE_ACCURACY_VALUE',
'Maximum model space distance between geometric entities at asserted c
onnectivities');
#1509=UNCERTAINTY_MEASURE_WITH_UNIT(LENGTH_MEASURE(0.01),#1515,
'DISTANCE_ACCURACY_VALUE',
'Maximum model space distance between geometric entities at asserted c
onnectivities');
#1510=UNCERTAINTY_MEASURE_WITH_UNIT(LENGTH_MEASURE(0.01),#1515,
'DISTANCE_ACCURACY_VALUE',
'Maximum model space distance between geometric entities at asserted c
onnectivities');
#1511=(
GEOMETRIC_REPRESENTATION_CONTEXT(3)
GLOBAL_UNCERTAINTY_ASSIGNED_CONTEXT((#1507))
GLOBAL_UNIT_ASSIGNED_CONTEXT((#1515,#1517,#1518))
REPRESENTATION_CONTEXT('','3D')
);
#1512=(
GEOMETRIC_REPRESENTATION_CONTEXT(3)
GLOBAL_UNCERTAINTY_ASSIGNED_CONTEXT((#1508))
GLOBAL_UNIT_ASSIGNED_CONTEXT((#1515,#1517,#1518))
REPRESENTATION_CONTEXT('','3D')
);
#1513=(
GEOMETRIC_REPRESENTATION_CONTEXT(3)
GLOBAL_UNCERTAINTY_ASSIGNED_CONTEXT((#1509))
GLOBAL_UNIT_ASSIGNED_CONTEXT((#1515,#1517,#1518))
REPRESENTATION_CONTEXT('','3D')
);
#1514=(
GEOMETRIC_REPRESENTATION_CONTEXT(3)
GLOBAL_UNCERTAINTY_ASSIGNED_CONTEXT((#1510))
GLOBAL_UNIT_ASSIGNED_CONTEXT((#1515,#1517,#1518))
REPRESENTATION_CONTEXT('','3D')
);
#1515=(
LENGTH_UNIT()
NAMED_UNIT(*)
SI_UNIT(.MILLI.,.METRE.)
);
#1516=(
LENGTH_UNIT()
NAMED_UNIT(*)
SI_UNIT($,.METRE.)
);
#1517=(
NAMED_UNIT(*)
PLANE_ANGLE_UNIT()
SI_UNIT($,.RADIAN.)
);
#1518=(
NAMED_UNIT(*)
SI_UNIT($,.STERADIAN.)
SOLID_ANGLE_UNIT()
);
#1519=SHAPE_DEFINITION_REPRESENTATION(#1522,#1527);
#1520=SHAPE_DEFINITION_REPRESENTATION(#1523,#1528);
#1521=SHAPE_DEFINITION_REPRESENTATION(#1524,#1529);
#1522=PRODUCT_DEFINITION_SHAPE('',$,#1531);
#1523=PRODUCT_DEFINITION_SHAPE('',$,#1532);
#1524=PRODUCT_DEFINITION_SHAPE('',$,#1533);
#1525=PRODUCT_DEFINITION_SHAPE($,$,#17);
#1526=PRODUCT_DEFINITION_SHAPE($,$,#18);
#1527=SHAPE_REPRESENTATION('',(#867,#981),#1511);
#1528=SHAPE_REPRESENTATION('',(#868,#980),#1512);
#1529=SHAPE_REPRESENTATION('',(#869),#1513);
#1530=PRODUCT_DEFINITION_CONTEXT('part definition',#1541,'design');
#1531=PRODUCT_DEFINITION('2025-12-08-00-33-07-883','Arm (1)',#1534,#1530);
#1532=PRODUCT_DEFINITION('2025-12-08-00-40-28-529','Arm',#1535,#1530);
#1533=PRODUCT_DEFINITION('2025-12-08-02-41-26-132','Forearm 2',#1536,#1530);
#1534=PRODUCT_DEFINITION_FORMATION('',$,#1543);
#1535=PRODUCT_DEFINITION_FORMATION('',$,#1544);
#1536=PRODUCT_DEFINITION_FORMATION('',$,#1545);
#1537=PRODUCT_RELATED_PRODUCT_CATEGORY('Arm (1)','Arm (1)',(#1543));
#1538=PRODUCT_RELATED_PRODUCT_CATEGORY('Arm','Arm',(#1544));
#1539=PRODUCT_RELATED_PRODUCT_CATEGORY('Forearm 2','Forearm 2',(#1545));
#1540=APPLICATION_PROTOCOL_DEFINITION('international standard',
'automotive_design',2009,#1541);
#1541=APPLICATION_CONTEXT(
'Core Data for Automotive Mechanical Design Process');
#1542=PRODUCT_CONTEXT('part definition',#1541,'mechanical');
#1543=PRODUCT('2025-12-08-00-33-07-883','Arm (1)',$,(#1542));
#1544=PRODUCT('2025-12-08-00-40-28-529','Arm',$,(#1542));
#1545=PRODUCT('2025-12-08-02-41-26-132','Forearm 2',$,(#1542));
#1546=PRESENTATION_STYLE_ASSIGNMENT((#1558));
#1547=PRESENTATION_STYLE_ASSIGNMENT((#1559));
#1548=PRESENTATION_STYLE_ASSIGNMENT((#1560));
#1549=PRESENTATION_STYLE_ASSIGNMENT((#1561));
#1550=PRESENTATION_STYLE_ASSIGNMENT((#1562));
#1551=PRESENTATION_STYLE_ASSIGNMENT((#1563));
#1552=PRESENTATION_STYLE_ASSIGNMENT((#1564));
#1553=PRESENTATION_STYLE_ASSIGNMENT((#1565));
#1554=PRESENTATION_STYLE_ASSIGNMENT((#1566));
#1555=PRESENTATION_STYLE_ASSIGNMENT((#1567));
#1556=PRESENTATION_STYLE_ASSIGNMENT((#1568));
#1557=PRESENTATION_STYLE_ASSIGNMENT((#1569));
#1558=SURFACE_STYLE_USAGE(.BOTH.,#1570);
#1559=SURFACE_STYLE_USAGE(.BOTH.,#1571);
#1560=SURFACE_STYLE_USAGE(.BOTH.,#1572);
#1561=SURFACE_STYLE_USAGE(.BOTH.,#1573);
#1562=SURFACE_STYLE_USAGE(.BOTH.,#1574);
#1563=SURFACE_STYLE_USAGE(.BOTH.,#1575);
#1564=SURFACE_STYLE_USAGE(.BOTH.,#1576);
#1565=SURFACE_STYLE_USAGE(.BOTH.,#1577);
#1566=SURFACE_STYLE_USAGE(.BOTH.,#1578);
#1567=SURFACE_STYLE_USAGE(.BOTH.,#1579);
#1568=SURFACE_STYLE_USAGE(.BOTH.,#1580);
#1569=SURFACE_STYLE_USAGE(.BOTH.,#1581);
#1570=SURFACE_SIDE_STYLE('',(#1582));
#1571=SURFACE_SIDE_STYLE('',(#1583));
#1572=SURFACE_SIDE_STYLE('',(#1584));
#1573=SURFACE_SIDE_STYLE('',(#1585));
#1574=SURFACE_SIDE_STYLE('',(#1586));
#1575=SURFACE_SIDE_STYLE('',(#1587));
#1576=SURFACE_SIDE_STYLE('',(#1588));
#1577=SURFACE_SIDE_STYLE('',(#1589));
#1578=SURFACE_SIDE_STYLE('',(#1590));
#1579=SURFACE_SIDE_STYLE('',(#1591));
#1580=SURFACE_SIDE_STYLE('',(#1592));
#1581=SURFACE_SIDE_STYLE('',(#1593));
#1582=SURFACE_STYLE_FILL_AREA(#1594);
#1583=SURFACE_STYLE_FILL_AREA(#1595);
#1584=SURFACE_STYLE_FILL_AREA(#1596);
#1585=SURFACE_STYLE_FILL_AREA(#1597);
#1586=SURFACE_STYLE_FILL_AREA(#1598);
#1587=SURFACE_STYLE_FILL_AREA(#1599);
#1588=SURFACE_STYLE_FILL_AREA(#1600);
#1589=SURFACE_STYLE_FILL_AREA(#1601);
#1590=SURFACE_STYLE_FILL_AREA(#1602);
#1591=SURFACE_STYLE_FILL_AREA(#1603);
#1592=SURFACE_STYLE_FILL_AREA(#1604);
#1593=SURFACE_STYLE_FILL_AREA(#1605);
#1594=FILL_AREA_STYLE('Steel - Satin',(#1606));
#1595=FILL_AREA_STYLE('Plastic - Matte (Black)',(#1607));
#1596=FILL_AREA_STYLE('Aluminum - Satin',(#1608));
#1597=FILL_AREA_STYLE('Aluminum - Polished',(#1609));
#1598=FILL_AREA_STYLE('Paek (Beige)',(#1610));
#1599=FILL_AREA_STYLE('Copper - Patina',(#1611));
#1600=FILL_AREA_STYLE('Plastic - Matte (Yellow)',(#1612));
#1601=FILL_AREA_STYLE('Plastic - Matte (Red)',(#1613));
#1602=FILL_AREA_STYLE('Stainless Steel - Polished',(#1614));
#1603=FILL_AREA_STYLE('Plastic - Matte (Green)',(#1615));
#1604=FILL_AREA_STYLE('Plastic - Matte (Blue)',(#1616));
#1605=FILL_AREA_STYLE('Opaque(64,64,64)',(#1617));
#1606=FILL_AREA_STYLE_COLOUR('Steel - Satin',#1618);
#1607=FILL_AREA_STYLE_COLOUR('Plastic - Matte (Black)',#1619);
#1608=FILL_AREA_STYLE_COLOUR('Aluminum - Satin',#1620);
#1609=FILL_AREA_STYLE_COLOUR('Aluminum - Polished',#1621);
#1610=FILL_AREA_STYLE_COLOUR('Paek (Beige)',#1622);
#1611=FILL_AREA_STYLE_COLOUR('Copper - Patina',#1623);
#1612=FILL_AREA_STYLE_COLOUR('Plastic - Matte (Yellow)',#1624);
#1613=FILL_AREA_STYLE_COLOUR('Plastic - Matte (Red)',#1625);
#1614=FILL_AREA_STYLE_COLOUR('Stainless Steel - Polished',#1626);
#1615=FILL_AREA_STYLE_COLOUR('Plastic - Matte (Green)',#1627);
#1616=FILL_AREA_STYLE_COLOUR('Plastic - Matte (Blue)',#1628);
#1617=FILL_AREA_STYLE_COLOUR('Opaque(64,64,64)',#1629);
#1618=COLOUR_RGB('Steel - Satin',0.627450980392157,0.627450980392157,0.627450980392157);
#1619=COLOUR_RGB('Plastic - Matte (Black)',0.0980392156862745,0.0980392156862745,
0.0980392156862745);
#1620=COLOUR_RGB('Aluminum - Satin',0.96078431372549,0.96078431372549,0.964705882352941);
#1621=COLOUR_RGB('Aluminum - Polished',0.96078431372549,0.96078431372549,
0.964705882352941);
#1622=COLOUR_RGB('Paek (Beige)',0.898039215686275,0.792156862745098,0.619607843137255);
#1623=COLOUR_RGB('Copper - Patina',0.929411764705882,0.807843137254902,
0.764705882352941);
#1624=COLOUR_RGB('Plastic - Matte (Yellow)',0.909803921568627,0.67843137254902,
0.137254901960784);
#1625=COLOUR_RGB('Plastic - Matte (Red)',0.768627450980392,0.207843137254902,
0.152941176470588);
#1626=COLOUR_RGB('Stainless Steel - Polished',0.796078431372549,0.796078431372549,
0.796078431372549);
#1627=COLOUR_RGB('Plastic - Matte (Green)',0.266666666666667,0.588235294117647,
0.282352941176471);
#1628=COLOUR_RGB('Plastic - Matte (Blue)',0.188235294117647,0.231372549019608,
0.588235294117647);
#1629=COLOUR_RGB('Opaque(64,64,64)',0.250980392156863,0.250980392156863,
0.250980392156863);
ENDSEC;
END-ISO-10303-21;
