ISO-10303-21;
HEADER;
/* Generated by software containing ST-Developer
 * from STEP Tools, Inc. (www.steptools.com) 
 */

FILE_DESCRIPTION(
/* description */ (''),
/* implementation_level */ '2;1');

FILE_NAME(
/* name */ 'Index proximal phalanx.step',
/* time_stamp */ '2026-01-04T20:27:58Z',
/* author */ (''),
/* organization */ (''),
/* preprocessor_version */ 'ST-DEVELOPER v20.1',
/* originating_system */ 'Autodesk Translation Framework v14.21.0.0',
/* authorisation */ '');

FILE_SCHEMA (('AUTOMOTIVE_DESIGN { 1 0 10303 214 3 1 1 }'));
ENDSEC;

DATA;
#10=MECHANICAL_DESIGN_GEOMETRIC_PRESENTATION_REPRESENTATION('',(#17),#576);
#11=ITEM_DEFINED_TRANSFORMATION($,$,#205,#223);
#12=(
REPRESENTATION_RELATIONSHIP($,$,#587,#586)
REPRESENTATION_RELATIONSHIP_WITH_TRANSFORMATION(#11)
SHAPE_REPRESENTATION_RELATIONSHIP()
);
#13=CONTEXT_DEPENDENT_SHAPE_REPRESENTATION(#12,#585);
#14=NEXT_ASSEMBLY_USAGE_OCCURRENCE('Proximal phalanx:1',
'Proximal phalanx:1','Proximal phalanx:1',#589,#590,
'Proximal phalanx:1');
#15=SHAPE_REPRESENTATION_RELATIONSHIP('SRR','None',#587,#16);
#16=ADVANCED_BREP_SHAPE_REPRESENTATION('',(#18),#575);
#17=STYLED_ITEM('',(#600),#18);
#18=MANIFOLD_SOLID_BREP('Body1',#191);
#19=FACE_BOUND('',#58,.T.);
#20=FACE_BOUND('',#60,.T.);
#21=FACE_BOUND('',#63,.T.);
#22=FACE_BOUND('',#64,.T.);
#23=FACE_BOUND('',#66,.T.);
#24=FACE_BOUND('',#67,.T.);
#25=PLANE('',#216);
#26=PLANE('',#218);
#27=PLANE('',#221);
#28=PLANE('',#222);
#29=ELLIPSE('',#214,8.5,8.);
#30=ELLIPSE('',#215,8.5,8.);
#31=ELLIPSE('',#217,1.76776695296637,1.25);
#32=ELLIPSE('',#219,1.76776695296637,1.25);
#33=B_SPLINE_SURFACE_WITH_KNOTS('',3,3,((#421,#422,#423,#424),(#425,#426,
#427,#428),(#429,#430,#431,#432),(#433,#434,#435,#436),(#437,#438,#439,
#440),(#441,#442,#443,#444),(#445,#446,#447,#448),(#449,#450,#451,#452),
(#453,#454,#455,#456),(#457,#458,#459,#460),(#461,#462,#463,#464),(#465,
#466,#467,#468),(#469,#470,#471,#472),(#473,#474,#475,#476),(#477,#478,
#479,#480),(#481,#482,#483,#484),(#485,#486,#487,#488)),.UNSPECIFIED.,.T.,
 .F.,.F.,(4,1,1,1,1,1,1,1,1,1,1,1,1,1,4),(4,4),(0.,0.0714285714285714,0.142857142857143,
0.214285714285714,0.285714285714286,0.357142857142857,0.428571428571429,
0.476190476190476,0.571428571428571,0.619047619047619,0.714285714285714,
0.785714285714286,0.857142857142857,0.928571428571429,1.),(0.,1.),
 .UNSPECIFIED.);
#34=B_SPLINE_CURVE_WITH_KNOTS('',3,(#289,#290,#291,#292,#293,#294,#295,
#296,#297,#298,#299,#300,#301,#302,#303,#304,#305,#306,#307,#308,#309,#310,
#311,#312,#313,#314,#315,#316,#317,#318,#319),.UNSPECIFIED.,.F.,.F.,(4,
3,3,3,3,3,3,3,3,3,4),(-0.15781120957789,-0.147152247953564,-0.129281839039389,
-0.110702433566613,-0.108844084525888,-0.08517580723225,-0.0689406982163242,
-0.0484074117127707,-0.032703854583051,-0.0149182005004273,0.),
 .UNSPECIFIED.);
#35=B_SPLINE_CURVE_WITH_KNOTS('',3,(#323,#324,#325,#326,#327,#328,#329,
#330,#331,#332,#333,#334,#335,#336,#337,#338,#339,#340,#341,#342,#343,#344,
#345,#346,#347,#348,#349,#350,#351,#352,#353,#354,#355,#356),
 .UNSPECIFIED.,.F.,.F.,(4,3,3,3,3,3,3,3,3,3,3,4),(0.,0.00439371759410112,
0.0223426911477417,0.0373457078998576,0.0587408944035048,0.0733487449445419,
0.0970449921719168,0.113039742528353,0.131317303396621,0.149019166853106,
0.152775546051065,0.157804454492256),.UNSPECIFIED.);
#36=B_SPLINE_CURVE_WITH_KNOTS('',3,(#361,#362,#363,#364,#365,#366,#367,
#368,#369,#370,#371,#372,#373,#374,#375,#376,#377,#378,#379,#380,#381,#382,
#383,#384,#385,#386,#387,#388),.UNSPECIFIED.,.F.,.F.,(4,3,3,3,3,3,3,3,3,
4),(-0.15772885329114,-0.143998040784105,-0.124989438399051,-0.105980836013997,
-0.0809935687332763,-0.0660792239669332,-0.0456227699051227,-0.0309548729240282,
-0.0129397741205876,0.),.UNSPECIFIED.);
#37=B_SPLINE_CURVE_WITH_KNOTS('',3,(#392,#393,#394,#395,#396,#397,#398,
#399,#400,#401,#402,#403,#404,#405,#406,#407,#408,#409,#410,#411,#412,#413,
#414,#415,#416,#417,#418,#419),.UNSPECIFIED.,.F.,.F.,(4,3,3,3,3,3,3,3,3,
4),(0.,0.0127202068501998,0.0312991156286522,0.0448435633237234,0.0671883148390117,
0.082011534086784,0.103529724915687,0.121662793134265,0.139693977191559,
0.157725161248852),.UNSPECIFIED.);
#38=B_SPLINE_CURVE_WITH_KNOTS('',3,(#489,#490,#491,#492,#493,#494,#495,
#496,#497,#498,#499,#500,#501,#502,#503,#504,#505,#506,#507,#508),
 .UNSPECIFIED.,.F.,.F.,(4,2,2,2,2,2,2,2,2,4),(-3.63832351673042,-3.03323030344905,
-2.55260414352835,-2.21933841111509,-1.95958212917436,-1.71288985163962,
-1.44586006095821,-1.1069501352509,-0.644235900976694,-0.0500665813280215),
 .UNSPECIFIED.);
#39=B_SPLINE_CURVE_WITH_KNOTS('',3,(#510,#511,#512,#513,#514,#515,#516,
#517,#518,#519,#520,#521,#522),.UNSPECIFIED.,.F.,.F.,(4,3,3,3,4),(-3.14159265358979,
-2.69279370307697,-2.24399475256414,-1.79519580205131,-1.69566920020375),
 .UNSPECIFIED.);
#40=B_SPLINE_CURVE_WITH_KNOTS('',3,(#526,#527,#528,#529,#530,#531,#532,
#533,#534,#535,#536,#537,#538,#539,#540,#541,#542,#543,#544,#545),
 .UNSPECIFIED.,.F.,.F.,(4,2,2,2,2,2,2,2,2,4),(-3.80170451416493,-3.22037337560217,
-2.69999865405953,-2.33997120984778,-2.06092824624948,-1.7980461889784,
-1.51456444334894,-1.15810896060453,-0.675232474000388,-0.0500647475888994),
 .UNSPECIFIED.);
#41=B_SPLINE_CURVE_WITH_KNOTS('',3,(#547,#548,#549,#550,#551,#552,#553,
#554,#555,#556,#557,#558,#559),.UNSPECIFIED.,.F.,.F.,(4,3,3,3,4),(1.69566920055118,
1.79519580205131,2.24399475256414,2.69279370307697,3.14159265358979),
 .UNSPECIFIED.);
#42=FACE_OUTER_BOUND('',#52,.T.);
#43=FACE_OUTER_BOUND('',#53,.T.);
#44=FACE_OUTER_BOUND('',#54,.T.);
#45=FACE_OUTER_BOUND('',#55,.T.);
#46=FACE_OUTER_BOUND('',#56,.T.);
#47=FACE_OUTER_BOUND('',#57,.T.);
#48=FACE_OUTER_BOUND('',#59,.T.);
#49=FACE_OUTER_BOUND('',#61,.T.);
#50=FACE_OUTER_BOUND('',#62,.T.);
#51=FACE_OUTER_BOUND('',#65,.T.);
#52=EDGE_LOOP('',(#128,#129,#130,#131));
#53=EDGE_LOOP('',(#132,#133,#134,#135));
#54=EDGE_LOOP('',(#136,#137,#138,#139));
#55=EDGE_LOOP('',(#140,#141,#142,#143));
#56=EDGE_LOOP('',(#144,#145,#146,#147,#148,#149,#150,#151,#152,#153,#154,
#155));
#57=EDGE_LOOP('',(#156,#157));
#58=EDGE_LOOP('',(#158));
#59=EDGE_LOOP('',(#159,#160));
#60=EDGE_LOOP('',(#161));
#61=EDGE_LOOP('',(#162,#163,#164,#165));
#62=EDGE_LOOP('',(#166,#167,#168));
#63=EDGE_LOOP('',(#169));
#64=EDGE_LOOP('',(#170));
#65=EDGE_LOOP('',(#171,#172,#173));
#66=EDGE_LOOP('',(#174));
#67=EDGE_LOOP('',(#175));
#68=LINE('',#278,#76);
#69=LINE('',#284,#77);
#70=LINE('',#321,#78);
#71=LINE('',#357,#79);
#72=LINE('',#390,#80);
#73=LINE('',#420,#81);
#74=LINE('',#524,#82);
#75=LINE('',#567,#83);
#76=VECTOR('',#232,2.);
#77=VECTOR('',#239,2.);
#78=VECTOR('',#244,10.);
#79=VECTOR('',#245,10.);
#80=VECTOR('',#248,10.);
#81=VECTOR('',#249,10.);
#82=VECTOR('',#250,40.0031248779392);
#83=VECTOR('',#265,1.25);
#84=CIRCLE('',#207,2.);
#85=CIRCLE('',#208,2.);
#86=CIRCLE('',#210,2.);
#87=CIRCLE('',#211,2.);
#88=VERTEX_POINT('',#275);
#89=VERTEX_POINT('',#277);
#90=VERTEX_POINT('',#281);
#91=VERTEX_POINT('',#283);
#92=VERTEX_POINT('',#287);
#93=VERTEX_POINT('',#288);
#94=VERTEX_POINT('',#320);
#95=VERTEX_POINT('',#322);
#96=VERTEX_POINT('',#359);
#97=VERTEX_POINT('',#360);
#98=VERTEX_POINT('',#389);
#99=VERTEX_POINT('',#391);
#100=VERTEX_POINT('',#509);
#101=VERTEX_POINT('',#523);
#102=VERTEX_POINT('',#561);
#103=VERTEX_POINT('',#564);
#104=EDGE_CURVE('',#88,#88,#84,.T.);
#105=EDGE_CURVE('',#88,#89,#68,.T.);
#106=EDGE_CURVE('',#89,#89,#85,.T.);
#107=EDGE_CURVE('',#90,#90,#86,.T.);
#108=EDGE_CURVE('',#90,#91,#69,.T.);
#109=EDGE_CURVE('',#91,#91,#87,.T.);
#110=EDGE_CURVE('',#92,#93,#34,.T.);
#111=EDGE_CURVE('',#93,#94,#70,.T.);
#112=EDGE_CURVE('',#94,#95,#35,.T.);
#113=EDGE_CURVE('',#95,#92,#71,.T.);
#114=EDGE_CURVE('',#96,#97,#36,.T.);
#115=EDGE_CURVE('',#97,#98,#72,.T.);
#116=EDGE_CURVE('',#98,#99,#37,.T.);
#117=EDGE_CURVE('',#96,#99,#73,.T.);
#118=EDGE_CURVE('',#92,#95,#38,.T.);
#119=EDGE_CURVE('',#100,#94,#39,.T.);
#120=EDGE_CURVE('',#100,#101,#74,.T.);
#121=EDGE_CURVE('',#101,#97,#29,.T.);
#122=EDGE_CURVE('',#96,#99,#40,.T.);
#123=EDGE_CURVE('',#98,#101,#30,.T.);
#124=EDGE_CURVE('',#93,#100,#41,.T.);
#125=EDGE_CURVE('',#102,#102,#31,.T.);
#126=EDGE_CURVE('',#103,#103,#32,.T.);
#127=EDGE_CURVE('',#103,#102,#75,.T.);
#128=ORIENTED_EDGE('',*,*,#104,.F.);
#129=ORIENTED_EDGE('',*,*,#105,.T.);
#130=ORIENTED_EDGE('',*,*,#106,.F.);
#131=ORIENTED_EDGE('',*,*,#105,.F.);
#132=ORIENTED_EDGE('',*,*,#107,.F.);
#133=ORIENTED_EDGE('',*,*,#108,.T.);
#134=ORIENTED_EDGE('',*,*,#109,.F.);
#135=ORIENTED_EDGE('',*,*,#108,.F.);
#136=ORIENTED_EDGE('',*,*,#110,.T.);
#137=ORIENTED_EDGE('',*,*,#111,.T.);
#138=ORIENTED_EDGE('',*,*,#112,.T.);
#139=ORIENTED_EDGE('',*,*,#113,.T.);
#140=ORIENTED_EDGE('',*,*,#114,.T.);
#141=ORIENTED_EDGE('',*,*,#115,.T.);
#142=ORIENTED_EDGE('',*,*,#116,.T.);
#143=ORIENTED_EDGE('',*,*,#117,.F.);
#144=ORIENTED_EDGE('',*,*,#110,.F.);
#145=ORIENTED_EDGE('',*,*,#118,.T.);
#146=ORIENTED_EDGE('',*,*,#112,.F.);
#147=ORIENTED_EDGE('',*,*,#119,.F.);
#148=ORIENTED_EDGE('',*,*,#120,.T.);
#149=ORIENTED_EDGE('',*,*,#121,.T.);
#150=ORIENTED_EDGE('',*,*,#114,.F.);
#151=ORIENTED_EDGE('',*,*,#122,.T.);
#152=ORIENTED_EDGE('',*,*,#116,.F.);
#153=ORIENTED_EDGE('',*,*,#123,.T.);
#154=ORIENTED_EDGE('',*,*,#120,.F.);
#155=ORIENTED_EDGE('',*,*,#124,.F.);
#156=ORIENTED_EDGE('',*,*,#122,.F.);
#157=ORIENTED_EDGE('',*,*,#117,.T.);
#158=ORIENTED_EDGE('',*,*,#125,.F.);
#159=ORIENTED_EDGE('',*,*,#118,.F.);
#160=ORIENTED_EDGE('',*,*,#113,.F.);
#161=ORIENTED_EDGE('',*,*,#126,.F.);
#162=ORIENTED_EDGE('',*,*,#126,.T.);
#163=ORIENTED_EDGE('',*,*,#127,.T.);
#164=ORIENTED_EDGE('',*,*,#125,.T.);
#165=ORIENTED_EDGE('',*,*,#127,.F.);
#166=ORIENTED_EDGE('',*,*,#115,.F.);
#167=ORIENTED_EDGE('',*,*,#121,.F.);
#168=ORIENTED_EDGE('',*,*,#123,.F.);
#169=ORIENTED_EDGE('',*,*,#106,.T.);
#170=ORIENTED_EDGE('',*,*,#109,.T.);
#171=ORIENTED_EDGE('',*,*,#111,.F.);
#172=ORIENTED_EDGE('',*,*,#124,.T.);
#173=ORIENTED_EDGE('',*,*,#119,.T.);
#174=ORIENTED_EDGE('',*,*,#104,.T.);
#175=ORIENTED_EDGE('',*,*,#107,.T.);
#176=CYLINDRICAL_SURFACE('',#206,2.);
#177=CYLINDRICAL_SURFACE('',#209,2.);
#178=CYLINDRICAL_SURFACE('',#212,1.);
#179=CYLINDRICAL_SURFACE('',#213,1.);
#180=CYLINDRICAL_SURFACE('',#220,1.25);
#181=ADVANCED_FACE('',(#42),#176,.F.);
#182=ADVANCED_FACE('',(#43),#177,.F.);
#183=ADVANCED_FACE('',(#44),#178,.T.);
#184=ADVANCED_FACE('',(#45),#179,.T.);
#185=ADVANCED_FACE('',(#46),#33,.F.);
#186=ADVANCED_FACE('',(#47,#19),#25,.F.);
#187=ADVANCED_FACE('',(#48,#20),#26,.F.);
#188=ADVANCED_FACE('',(#49),#180,.F.);
#189=ADVANCED_FACE('',(#50,#21,#22),#27,.F.);
#190=ADVANCED_FACE('',(#51,#23,#24),#28,.T.);
#191=CLOSED_SHELL('',(#181,#182,#183,#184,#185,#186,#187,#188,#189,#190));
#192=DERIVED_UNIT_ELEMENT(#194,1.);
#193=DERIVED_UNIT_ELEMENT(#578,-3.);
#194=(
MASS_UNIT()
NAMED_UNIT(*)
SI_UNIT(.KILO.,.GRAM.)
);
#195=DERIVED_UNIT((#192,#193));
#196=MEASURE_REPRESENTATION_ITEM('density measure',
POSITIVE_RATIO_MEASURE(7850.),#195);
#197=PROPERTY_DEFINITION_REPRESENTATION(#202,#199);
#198=PROPERTY_DEFINITION_REPRESENTATION(#203,#200);
#199=REPRESENTATION('material name',(#201),#575);
#200=REPRESENTATION('density',(#196),#575);
#201=DESCRIPTIVE_REPRESENTATION_ITEM('Steel','Steel');
#202=PROPERTY_DEFINITION('material property','material name',#590);
#203=PROPERTY_DEFINITION('material property','density of part',#590);
#204=AXIS2_PLACEMENT_3D('',#272,#224,#225);
#205=AXIS2_PLACEMENT_3D('',#273,#226,#227);
#206=AXIS2_PLACEMENT_3D('',#274,#228,#229);
#207=AXIS2_PLACEMENT_3D('',#276,#230,#231);
#208=AXIS2_PLACEMENT_3D('',#279,#233,#234);
#209=AXIS2_PLACEMENT_3D('',#280,#235,#236);
#210=AXIS2_PLACEMENT_3D('',#282,#237,#238);
#211=AXIS2_PLACEMENT_3D('',#285,#240,#241);
#212=AXIS2_PLACEMENT_3D('',#286,#242,#243);
#213=AXIS2_PLACEMENT_3D('',#358,#246,#247);
#214=AXIS2_PLACEMENT_3D('',#525,#251,#252);
#215=AXIS2_PLACEMENT_3D('',#546,#253,#254);
#216=AXIS2_PLACEMENT_3D('',#560,#255,#256);
#217=AXIS2_PLACEMENT_3D('',#562,#257,#258);
#218=AXIS2_PLACEMENT_3D('',#563,#259,#260);
#219=AXIS2_PLACEMENT_3D('',#565,#261,#262);
#220=AXIS2_PLACEMENT_3D('',#566,#263,#264);
#221=AXIS2_PLACEMENT_3D('',#568,#266,#267);
#222=AXIS2_PLACEMENT_3D('',#569,#268,#269);
#223=AXIS2_PLACEMENT_3D('',#570,#270,#271);
#224=DIRECTION('axis',(0.,0.,1.));
#225=DIRECTION('refdir',(1.,0.,0.));
#226=DIRECTION('axis',(0.,0.,1.));
#227=DIRECTION('refdir',(1.,0.,0.));
#228=DIRECTION('center_axis',(0.,0.,-1.));
#229=DIRECTION('ref_axis',(-1.,0.,0.));
#230=DIRECTION('center_axis',(0.,0.,-1.));
#231=DIRECTION('ref_axis',(-1.,0.,0.));
#232=DIRECTION('',(0.,0.,-1.));
#233=DIRECTION('center_axis',(0.,0.,1.));
#234=DIRECTION('ref_axis',(-1.,0.,0.));
#235=DIRECTION('center_axis',(0.,0.,-1.));
#236=DIRECTION('ref_axis',(-1.,0.,0.));
#237=DIRECTION('center_axis',(0.,0.,-1.));
#238=DIRECTION('ref_axis',(-1.,0.,0.));
#239=DIRECTION('',(0.,0.,-1.));
#240=DIRECTION('center_axis',(0.,0.,1.));
#241=DIRECTION('ref_axis',(-1.,0.,0.));
#242=DIRECTION('center_axis',(0.,1.,0.));
#243=DIRECTION('ref_axis',(0.707106781186546,0.,0.707106781186549));
#244=DIRECTION('',(0.,-1.,0.));
#245=DIRECTION('',(0.,1.,0.));
#246=DIRECTION('center_axis',(0.,-1.,0.));
#247=DIRECTION('ref_axis',(0.707106781186548,0.,-0.707106781186548));
#248=DIRECTION('',(0.,1.,0.));
#249=DIRECTION('',(0.,1.,0.));
#250=DIRECTION('',(-0.012499023551926,-1.62635697594169E-18,-0.999921884154082));
#251=DIRECTION('center_axis',(0.,0.,1.));
#252=DIRECTION('ref_axis',(1.,0.,0.));
#253=DIRECTION('center_axis',(0.,0.,1.));
#254=DIRECTION('ref_axis',(1.,0.,0.));
#255=DIRECTION('center_axis',(-0.707106781186548,0.,0.707106781186548));
#256=DIRECTION('ref_axis',(0.707106781186548,0.,0.707106781186548));
#257=DIRECTION('center_axis',(0.707106781186548,0.,-0.707106781186548));
#258=DIRECTION('ref_axis',(-0.707106781186547,0.,-0.707106781186547));
#259=DIRECTION('center_axis',(-0.707106781186548,0.,-0.707106781186548));
#260=DIRECTION('ref_axis',(-0.707106781186548,0.,0.707106781186548));
#261=DIRECTION('center_axis',(0.707106781186548,0.,0.707106781186548));
#262=DIRECTION('ref_axis',(-0.707106781186547,0.,0.707106781186547));
#263=DIRECTION('center_axis',(0.,0.,-1.));
#264=DIRECTION('ref_axis',(-1.,0.,0.));
#265=DIRECTION('',(0.,0.,-1.));
#266=DIRECTION('center_axis',(0.,0.,1.));
#267=DIRECTION('ref_axis',(1.,0.,0.));
#268=DIRECTION('center_axis',(0.,0.,1.));
#269=DIRECTION('ref_axis',(1.,0.,0.));
#270=DIRECTION('',(0.,0.,1.));
#271=DIRECTION('',(1.,0.,0.));
#272=CARTESIAN_POINT('',(0.,0.,0.));
#273=CARTESIAN_POINT('',(0.,0.,0.));
#274=CARTESIAN_POINT('Origin',(-4.49999999995312,-3.1003675175674,40.));
#275=CARTESIAN_POINT('',(-2.49999999995312,-3.1003675175674,40.));
#276=CARTESIAN_POINT('Origin',(-4.49999999995312,-3.1003675175674,40.));
#277=CARTESIAN_POINT('',(-2.49999999995312,-3.1003675175674,0.));
#278=CARTESIAN_POINT('',(-2.49999999995312,-3.1003675175674,40.));
#279=CARTESIAN_POINT('Origin',(-4.49999999995312,-3.1003675175674,0.));
#280=CARTESIAN_POINT('Origin',(-4.49999999992833,3.10036751753942,40.));
#281=CARTESIAN_POINT('',(-2.49999999992833,3.10036751753942,40.));
#282=CARTESIAN_POINT('Origin',(-4.49999999992833,3.10036751753942,40.));
#283=CARTESIAN_POINT('',(-2.49999999992833,3.10036751753942,0.));
#284=CARTESIAN_POINT('',(-2.49999999992833,3.10036751753942,40.));
#285=CARTESIAN_POINT('Origin',(-4.49999999992833,3.10036751753942,0.));
#286=CARTESIAN_POINT('Origin',(-1.,1.63430257182091E-17,39.));
#287=CARTESIAN_POINT('',(-6.16297582203915E-32,7.51249999254942,39.0000005960464));
#288=CARTESIAN_POINT('',(-0.999999999999871,7.4411613516213,40.));
#289=CARTESIAN_POINT('Ctrl Pts',(0.000905015433420253,7.51250249530922,
39.0000005960464));
#290=CARTESIAN_POINT('Ctrl Pts',(0.0009050281333413,7.51206009562041,39.0353879151795));
#291=CARTESIAN_POINT('Ctrl Pts',(-0.000974850028355882,7.51161645472732,
39.0708167105716));
#292=CARTESIAN_POINT('Ctrl Pts',(-0.00474794017290403,7.51116971530915,
39.1061373995792));
#293=CARTESIAN_POINT('Ctrl Pts',(-0.0110737489306774,7.51042073025562,39.1653546234713));
#294=CARTESIAN_POINT('Ctrl Pts',(-0.0226660536146914,7.50967224413192,39.2237512995505));
#295=CARTESIAN_POINT('Ctrl Pts',(-0.0393167678824244,7.50887124908099,39.280650822256));
#296=CARTESIAN_POINT('Ctrl Pts',(-0.0566280881368895,7.50803847508548,39.3398077955873));
#297=CARTESIAN_POINT('Ctrl Pts',(-0.0794072780866216,7.50714873995849,39.3973464618227));
#298=CARTESIAN_POINT('Ctrl Pts',(-0.107419711661706,7.50608673264115,39.452506446486));
#299=CARTESIAN_POINT('Ctrl Pts',(-0.110221570910589,7.50598050855974,39.4580236577195));
#300=CARTESIAN_POINT('Ctrl Pts',(-0.113075783969028,7.50587251833106,39.4635170716763));
#301=CARTESIAN_POINT('Ctrl Pts',(-0.115982114777146,7.5057626187522,39.4689859274805));
#302=CARTESIAN_POINT('Ctrl Pts',(-0.15299768180256,7.50436291737757,39.5386382870833));
#303=CARTESIAN_POINT('Ctrl Pts',(-0.19803250974632,7.50267476433229,39.6034902321858));
#304=CARTESIAN_POINT('Ctrl Pts',(-0.250038737142605,7.5003862036208,39.6622777900642));
#305=CARTESIAN_POINT('Ctrl Pts',(-0.285712088473192,7.49881637949801,39.7026027532669));
#306=CARTESIAN_POINT('Ctrl Pts',(-0.324665457514713,7.49696242529368,39.7400743073496));
#307=CARTESIAN_POINT('Ctrl Pts',(-0.366557216848047,7.49471489809249,39.7742845056508));
#308=CARTESIAN_POINT('Ctrl Pts',(-0.419539644972519,7.49187234742645,39.8175517114561));
#309=CARTESIAN_POINT('Ctrl Pts',(-0.476673877241251,7.48842597878426,39.8551573287685));
#310=CARTESIAN_POINT('Ctrl Pts',(-0.537021401137409,7.48420967348995,39.8866118963369));
#311=CARTESIAN_POINT('Ctrl Pts',(-0.583174304569425,7.48098510488257,39.910667889454));
#312=CARTESIAN_POINT('Ctrl Pts',(-0.631206476752386,7.47731071197178,39.9311261541006));
#313=CARTESIAN_POINT('Ctrl Pts',(-0.680696289051113,7.47313313231616,39.9477677442685));
#314=CARTESIAN_POINT('Ctrl Pts',(-0.736747836792059,7.46840165739976,39.9666158029387));
#315=CARTESIAN_POINT('Ctrl Pts',(-0.794201886154384,7.46306230926768,39.980411512774));
#316=CARTESIAN_POINT('Ctrl Pts',(-0.852380341225246,7.45710833108996,39.9890756772927));
#317=CARTESIAN_POINT('Ctrl Pts',(-0.901179100805315,7.45211427015648,39.9963429806406));
#318=CARTESIAN_POINT('Ctrl Pts',(-0.950487464352866,7.44668855906323,39.9999999999997));
#319=CARTESIAN_POINT('Ctrl Pts',(-0.999907485942275,7.44085552242917,40.));
#320=CARTESIAN_POINT('',(-0.999999999763014,-7.44116135167726,40.));
#321=CARTESIAN_POINT('',(-1.,1.63430257182091E-17,40.));
#322=CARTESIAN_POINT('',(-6.16297582203915E-32,-7.51249999254942,39.0000005960464));
#323=CARTESIAN_POINT('Ctrl Pts',(-1.00036775739376,-7.44080383619914,40.));
#324=CARTESIAN_POINT('Ctrl Pts',(-0.985824711762564,-7.44251051734244,39.9999999999999));
#325=CARTESIAN_POINT('Ctrl Pts',(-0.971279442331809,-7.44418341073623,39.9996826849374));
#326=CARTESIAN_POINT('Ctrl Pts',(-0.95674222013069,-7.44582148405878,39.99904775792));
#327=CARTESIAN_POINT('Ctrl Pts',(-0.897355559235233,-7.45251325113662,39.996453988976));
#328=CARTESIAN_POINT('Ctrl Pts',(-0.838367521065311,-7.45858982826106,39.9885729500347));
#329=CARTESIAN_POINT('Ctrl Pts',(-0.780467091880264,-7.46403215765046,39.9755187318372));
#330=CARTESIAN_POINT('Ctrl Pts',(-0.732069833595722,-7.46858124001194,39.9646070964884));
#331=CARTESIAN_POINT('Ctrl Pts',(-0.684432633724053,-7.47268828644135,39.9500810672407));
#332=CARTESIAN_POINT('Ctrl Pts',(-0.637959462765944,-7.47637001847739,39.9320072737132));
#333=CARTESIAN_POINT('Ctrl Pts',(-0.571685980806097,-7.48162038544483,39.9062329784673));
#334=CARTESIAN_POINT('Ctrl Pts',(-0.508445652286518,-7.48595183761617,39.8735014935545));
#335=CARTESIAN_POINT('Ctrl Pts',(-0.449277314930735,-7.48953125506605,39.8344182101024));
#336=CARTESIAN_POINT('Ctrl Pts',(-0.408879339025845,-7.49197515033768,39.8077335741342));
#337=CARTESIAN_POINT('Ctrl Pts',(-0.370379500576371,-7.49407003201281,39.7780879464296));
#338=CARTESIAN_POINT('Ctrl Pts',(-0.334106733848182,-7.49588244736992,39.7456740114849));
#339=CARTESIAN_POINT('Ctrl Pts',(-0.275266561189143,-7.49882247213674,39.6930934751558));
#340=CARTESIAN_POINT('Ctrl Pts',(-0.2229824504831,-7.50098865640934,39.6338455723278));
#341=CARTESIAN_POINT('Ctrl Pts',(-0.178256714878165,-7.50272010757948,39.5692444481238));
#342=CARTESIAN_POINT('Ctrl Pts',(-0.148067252021681,-7.50388882129836,39.5256392795723));
#343=CARTESIAN_POINT('Ctrl Pts',(-0.121321148257622,-7.50485925347802,39.4795951155655));
#344=CARTESIAN_POINT('Ctrl Pts',(-0.0983238969725326,-7.50572176279425,
39.4315161009162));
#345=CARTESIAN_POINT('Ctrl Pts',(-0.072044420844483,-7.50670737158311,39.3765751298378));
#346=CARTESIAN_POINT('Ctrl Pts',(-0.0509022877863633,-7.50754544581295,
39.3194813625183));
#347=CARTESIAN_POINT('Ctrl Pts',(-0.0350848875645686,-7.50834062311787,
39.2609684233506));
#348=CARTESIAN_POINT('Ctrl Pts',(-0.0197656958528941,-7.50911075432832,
39.2042984952869));
#349=CARTESIAN_POINT('Ctrl Pts',(-0.0094409954557226,-7.50984078781084,
39.1462973881465));
#350=CARTESIAN_POINT('Ctrl Pts',(-0.00428038658575502,-7.51057647793685,
39.0876315648715));
#351=CARTESIAN_POINT('Ctrl Pts',(-0.00318529262259123,-7.51073259320078,
39.0751825321059));
#352=CARTESIAN_POINT('Ctrl Pts',(-0.00232273719222796,-7.51088877701256,
39.0627035672463));
#353=CARTESIAN_POINT('Ctrl Pts',(-0.00169434161186977,-7.51104515924305,
39.0502010386485));
#354=CARTESIAN_POINT('Ctrl Pts',(-0.00085306686223001,-7.51125451848413,
39.0334630762173));
#355=CARTESIAN_POINT('Ctrl Pts',(-0.00043356056328256,-7.5114637283622,
39.0167243901843));
#356=CARTESIAN_POINT('Ctrl Pts',(-0.000433571402950639,-7.51167277837584,
39.0000005960464));
#357=CARTESIAN_POINT('',(-6.16297582203915E-32,0.,39.0000005960464));
#358=CARTESIAN_POINT('Origin',(-1.,0.,1.));
#359=CARTESIAN_POINT('',(0.,-7.9875,1.));
#360=CARTESIAN_POINT('',(-1.,-7.94444377229842,0.));
#361=CARTESIAN_POINT('Ctrl Pts',(-0.000475388910947672,-7.98665559123228,
1.00000000000001));
#362=CARTESIAN_POINT('Ctrl Pts',(-0.00047538031264649,-7.98722513170199,
0.95443732627854));
#363=CARTESIAN_POINT('Ctrl Pts',(-0.00358910476261565,-7.98779681175713,
0.908830029051449));
#364=CARTESIAN_POINT('Ctrl Pts',(-0.009834916694764,-7.98835697771434,0.863498783717894));
#365=CARTESIAN_POINT('Ctrl Pts',(-0.0184814774624753,-7.98913245879536,
0.800743233004758));
#366=CARTESIAN_POINT('Ctrl Pts',(-0.0330509918207713,-7.98988081861727,
0.739093346739978));
#367=CARTESIAN_POINT('Ctrl Pts',(-0.0532713530685978,-7.99051006949303,
0.679356660600234));
#368=CARTESIAN_POINT('Ctrl Pts',(-0.0734917143164242,-7.99113932036879,
0.61961997446049));
#369=CARTESIAN_POINT('Ctrl Pts',(-0.0993630903894081,-7.99164878065981,
0.561796488445783));
#370=CARTESIAN_POINT('Ctrl Pts',(-0.130610111917281,-7.99189063722264,0.506693738232798));
#371=CARTESIAN_POINT('Ctrl Pts',(-0.171685076968753,-7.99220856352025,0.434259841222189));
#372=CARTESIAN_POINT('Ctrl Pts',(-0.221544006585433,-7.99205778115707,0.367415656288553));
#373=CARTESIAN_POINT('Ctrl Pts',(-0.278920143461864,-7.99104949364552,0.30761918026198));
#374=CARTESIAN_POINT('Ctrl Pts',(-0.313166684995288,-7.99044766922823,0.271927992055866));
#375=CARTESIAN_POINT('Ctrl Pts',(-0.350090945687535,-7.98953909098103,0.238747642410278));
#376=CARTESIAN_POINT('Ctrl Pts',(-0.389419543582388,-7.98823676929734,0.208388167826556));
#377=CARTESIAN_POINT('Ctrl Pts',(-0.443362487020778,-7.98645051022169,0.166747237105674));
#378=CARTESIAN_POINT('Ctrl Pts',(-0.501277312859334,-7.98393834919732,0.130836464602007));
#379=CARTESIAN_POINT('Ctrl Pts',(-0.562227165078139,-7.98054043844063,0.101121154421733));
#380=CARTESIAN_POINT('Ctrl Pts',(-0.605930054672643,-7.97810403353978,0.079814377246738));
#381=CARTESIAN_POINT('Ctrl Pts',(-0.651193131733504,-7.97521292178877,0.0616928881230174));
#382=CARTESIAN_POINT('Ctrl Pts',(-0.697668877398054,-7.97182491367284,0.0469282207181791));
#383=CARTESIAN_POINT('Ctrl Pts',(-0.754750349349323,-7.96766376493869,0.0287942685612381));
#384=CARTESIAN_POINT('Ctrl Pts',(-0.813190959989991,-7.96278520395818,0.0158728999483859));
#385=CARTESIAN_POINT('Ctrl Pts',(-0.872285921258968,-7.95718592472503,0.00823885253723233));
#386=CARTESIAN_POINT('Ctrl Pts',(-0.914732285768465,-7.95316410895228,0.00275551602023704));
#387=CARTESIAN_POINT('Ctrl Pts',(-0.957516231905595,-7.94877147318304,-9.5789430786549E-13));
#388=CARTESIAN_POINT('Ctrl Pts',(-1.00037762495129,-7.94402344887822,0.));
#389=CARTESIAN_POINT('',(-1.,7.94444377229842,0.));
#390=CARTESIAN_POINT('',(-1.,0.,0.));
#391=CARTESIAN_POINT('',(0.,7.9875,1.));
#392=CARTESIAN_POINT('Ctrl Pts',(-0.999797962758529,7.94413653965479,0.));
#393=CARTESIAN_POINT('Ctrl Pts',(-0.957628872931844,7.94883728340034,8.97060203897126E-13));
#394=CARTESIAN_POINT('Ctrl Pts',(-0.915467103419349,7.95320235495948,0.00266346897042348));
#395=CARTESIAN_POINT('Ctrl Pts',(-0.87356272279302,7.95721329970906,0.00798813030478841));
#396=CARTESIAN_POINT('Ctrl Pts',(-0.812357926814258,7.96307161455373,0.015765236319837));
#397=CARTESIAN_POINT('Ctrl Pts',(-0.752052066917798,7.96813879521798,0.0291735530425746));
#398=CARTESIAN_POINT('Ctrl Pts',(-0.693402242822449,7.97243273554295,0.0480218858587449));
#399=CARTESIAN_POINT('Ctrl Pts',(-0.650645185114846,7.97556311584843,0.0617627498143286));
#400=CARTESIAN_POINT('Ctrl Pts',(-0.608768340114165,7.97828379450437,0.0783948420323652));
#401=CARTESIAN_POINT('Ctrl Pts',(-0.568064849298011,7.98061905243702,0.0978440828582877));
#402=CARTESIAN_POINT('Ctrl Pts',(-0.500914869574383,7.98447160954411,0.129930179183528));
#403=CARTESIAN_POINT('Ctrl Pts',(-0.437670434342451,7.98723286214368,0.169346140061979));
#404=CARTESIAN_POINT('Ctrl Pts',(-0.379461875227316,7.98913477979248,0.215291293096449));
#405=CARTESIAN_POINT('Ctrl Pts',(-0.340847069720519,7.99039648736977,0.245770713569593));
#406=CARTESIAN_POINT('Ctrl Pts',(-0.304448187971671,7.99128138707227,0.279123516631061));
#407=CARTESIAN_POINT('Ctrl Pts',(-0.270591663477869,7.99186625393014,0.315115949995843));
#408=CARTESIAN_POINT('Ctrl Pts',(-0.221443692130786,7.99271527845356,0.367364522764967));
#409=CARTESIAN_POINT('Ctrl Pts',(-0.178178786014954,7.99292664539037,0.424618835105017));
#410=CARTESIAN_POINT('Ctrl Pts',(-0.141456631601119,7.99276268861578,0.485829158862103));
#411=CARTESIAN_POINT('Ctrl Pts',(-0.110511403147021,7.99262452461296,0.537410213477424));
#412=CARTESIAN_POINT('Ctrl Pts',(-0.0842119489710996,7.99221998585391,0.591800506632665));
#413=CARTESIAN_POINT('Ctrl Pts',(-0.0629472390482153,7.99167747523223,0.648371873714354));
#414=CARTESIAN_POINT('Ctrl Pts',(-0.0418020106963161,7.99113801285442,0.704625379144682));
#415=CARTESIAN_POINT('Ctrl Pts',(-0.0258250116359719,7.9904683834304,0.762532793168198));
#416=CARTESIAN_POINT('Ctrl Pts',(-0.0151346349901533,7.98975935816016,0.821376639608076));
#417=CARTESIAN_POINT('Ctrl Pts',(-0.00444425834433478,7.98905033288993,
0.880220486047954));
#418=CARTESIAN_POINT('Ctrl Pts',(0.000959591797544842,7.98830219230056,
0.940000764904205));
#419=CARTESIAN_POINT('Ctrl Pts',(0.000959544053465322,7.98755210313464,
1.));
#420=CARTESIAN_POINT('',(0.,0.,1.));
#421=CARTESIAN_POINT('Ctrl Pts',(-8.,-9.14658078113179E-16,40.));
#422=CARTESIAN_POINT('Ctrl Pts',(-8.16666666666667,-9.36344531848081E-16,
26.6666666666667));
#423=CARTESIAN_POINT('Ctrl Pts',(-8.33333333333333,-9.58030985582982E-16,
13.3333333333333));
#424=CARTESIAN_POINT('Ctrl Pts',(-8.5,-9.79717439317883E-16,0.));
#425=CARTESIAN_POINT('Ctrl Pts',(-8.,-1.11732238721423,40.));
#426=CARTESIAN_POINT('Ctrl Pts',(-8.16676952879689,-1.14381800567309,26.6666666666667));
#427=CARTESIAN_POINT('Ctrl Pts',(-8.33323047120311,-1.17030158290868,13.3333333333333));
#428=CARTESIAN_POINT('Ctrl Pts',(-8.5,-1.19679720136754,0.));
#429=CARTESIAN_POINT('Ctrl Pts',(-7.45914310795225,-3.35143148464379,40.));
#430=CARTESIAN_POINT('Ctrl Pts',(-7.61266024476044,-3.43077877668222,26.6666666666667));
#431=CARTESIAN_POINT('Ctrl Pts',(-7.76630301748357,-3.51013477995288,13.3333333333333));
#432=CARTESIAN_POINT('Ctrl Pts',(-7.91982015429175,-3.58948207199131,0.));
#433=CARTESIAN_POINT('Ctrl Pts',(-5.17324325125067,-6.05479541721837,40.));
#434=CARTESIAN_POINT('Ctrl Pts',(-5.27600789706715,-6.19295063433671,26.6666666666666));
#435=CARTESIAN_POINT('Ctrl Pts',(-5.3786164847543,-6.3310838217781,13.3333333333333));
#436=CARTESIAN_POINT('Ctrl Pts',(-5.48138113057078,-6.46923903889644,0.));
#437=CARTESIAN_POINT('Ctrl Pts',(-1.84856546795389,-7.56183949758447,40.));
#438=CARTESIAN_POINT('Ctrl Pts',(-1.88428179395656,-7.72974064047877,26.6666666666667));
#439=CARTESIAN_POINT('Ctrl Pts',(-1.92009543321542,-7.89763656596322,13.3333333333333));
#440=CARTESIAN_POINT('Ctrl Pts',(-1.95581175921808,-8.06553770885753,0.));
#441=CARTESIAN_POINT('Ctrl Pts',(1.8476631936915,-7.56216005939971,40.));
#442=CARTESIAN_POINT('Ctrl Pts',(1.88335060129612,-7.73008003104468,26.6666666666667));
#443=CARTESIAN_POINT('Ctrl Pts',(1.91912327706986,-7.8979498112497,13.3333333333333));
#444=CARTESIAN_POINT('Ctrl Pts',(1.95481068467448,-8.06586978289466,0.));
#445=CARTESIAN_POINT('Ctrl Pts',(5.17322771783109,-6.05349872586682,40.));
#446=CARTESIAN_POINT('Ctrl Pts',(5.2760856565556,-6.19161984157308,26.6666666666666));
#447=CARTESIAN_POINT('Ctrl Pts',(5.37868565271886,-6.32974568019766,13.3333333333333));
#448=CARTESIAN_POINT('Ctrl Pts',(5.48154359144338,-6.46786679590392,0.));
#449=CARTESIAN_POINT('Ctrl Pts',(7.20277077524061,-3.65228378782022,40.));
#450=CARTESIAN_POINT('Ctrl Pts',(7.35047987367663,-3.73822835717255,26.6666666666667));
#451=CARTESIAN_POINT('Ctrl Pts',(7.49842853647801,-3.82410941652214,13.3333333333333));
#452=CARTESIAN_POINT('Ctrl Pts',(7.64613763491403,-3.91005398587448,0.));
#453=CARTESIAN_POINT('Ctrl Pts',(8.26974284736405,-0.407758239718932,40.));
#454=CARTESIAN_POINT('Ctrl Pts',(8.44295699443358,-0.417675025266163,26.6666666666666));
#455=CARTESIAN_POINT('Ctrl Pts',(8.61588914828592,-0.427776509898419,13.3333333333334));
#456=CARTESIAN_POINT('Ctrl Pts',(8.78910329535545,-0.43769329544565,0.));
#457=CARTESIAN_POINT('Ctrl Pts',(7.77787809657618,2.66524382965097,40.));
#458=CARTESIAN_POINT('Ctrl Pts',(7.93893946375023,2.72880464186635,26.6666666666667));
#459=CARTESIAN_POINT('Ctrl Pts',(8.0999697090019,2.79242605493744,13.3333333333333));
#460=CARTESIAN_POINT('Ctrl Pts',(8.26103107617594,2.85598686715282,0.));
#461=CARTESIAN_POINT('Ctrl Pts',(5.51270043748705,5.79451003940198,40.));
#462=CARTESIAN_POINT('Ctrl Pts',(5.62261488414642,5.92742298783922,26.6666666666666));
#463=CARTESIAN_POINT('Ctrl Pts',(5.73274131767756,6.0603684920258,13.3333333333334));
#464=CARTESIAN_POINT('Ctrl Pts',(5.84265576433693,6.19328144046304,0.));
#465=CARTESIAN_POINT('Ctrl Pts',(2.26384218456616,7.5663643669281,40.));
#466=CARTESIAN_POINT('Ctrl Pts',(2.30755798068074,7.73441985183621,26.6666666666667));
#467=CARTESIAN_POINT('Ctrl Pts',(2.35128538347835,7.90235536233566,13.3333333333333));
#468=CARTESIAN_POINT('Ctrl Pts',(2.39500117959292,8.07041084724378,0.));
#469=CARTESIAN_POINT('Ctrl Pts',(-1.85031046153,7.56022319789544,40.));
#470=CARTESIAN_POINT('Ctrl Pts',(-1.88607447778078,7.72805742838199,26.6666666666667));
#471=CARTESIAN_POINT('Ctrl Pts',(-1.9217638014723,7.8959623928338,13.3333333333333));
#472=CARTESIAN_POINT('Ctrl Pts',(-1.95752781772308,8.06379662332035,0.));
#473=CARTESIAN_POINT('Ctrl Pts',(-5.17137341905728,6.05484300570947,40.));
#474=CARTESIAN_POINT('Ctrl Pts',(-5.27410704251042,6.19303693149559,26.6666666666667));
#475=CARTESIAN_POINT('Ctrl Pts',(-5.37675997564093,6.33119643108816,13.3333333333333));
#476=CARTESIAN_POINT('Ctrl Pts',(-5.47949359909408,6.46939035687428,0.));
#477=CARTESIAN_POINT('Ctrl Pts',(-7.45962949385336,3.35101473201784,40.));
#478=CARTESIAN_POINT('Ctrl Pts',(-7.61317075263094,3.4303326862161,26.6666666666667));
#479=CARTESIAN_POINT('Ctrl Pts',(-7.76675802796683,3.50971284060905,13.3333333333333));
#480=CARTESIAN_POINT('Ctrl Pts',(-7.92029928674442,3.58903079480731,0.));
#481=CARTESIAN_POINT('Ctrl Pts',(-8.,1.11732238721423,40.));
#482=CARTESIAN_POINT('Ctrl Pts',(-8.16675632949654,1.14383391069385,26.6666666666667));
#483=CARTESIAN_POINT('Ctrl Pts',(-8.33324367050346,1.17028567788792,13.3333333333333));
#484=CARTESIAN_POINT('Ctrl Pts',(-8.5,1.19679720136754,0.));
#485=CARTESIAN_POINT('Ctrl Pts',(-8.,9.14658078113179E-16,40.));
#486=CARTESIAN_POINT('Ctrl Pts',(-8.16666666666667,9.36344531848081E-16,
26.6666666666667));
#487=CARTESIAN_POINT('Ctrl Pts',(-8.33333333333333,9.58030985582982E-16,
13.3333333333333));
#488=CARTESIAN_POINT('Ctrl Pts',(-8.5,9.79717439317883E-16,0.));
#489=CARTESIAN_POINT('Ctrl Pts',(-1.38777878078145E-15,7.51249999254942,
39.0000005960464));
#490=CARTESIAN_POINT('Ctrl Pts',(1.1612278357477,7.52701534049627,37.8387727602987));
#491=CARTESIAN_POINT('Ctrl Pts',(2.33863806215909,7.30518082468246,36.6613625338873));
#492=CARTESIAN_POINT('Ctrl Pts',(4.32009602020695,6.45353194329328,34.6799045758395));
#493=CARTESIAN_POINT('Ctrl Pts',(5.17571866157383,5.90574993696974,33.8242819344726));
#494=CARTESIAN_POINT('Ctrl Pts',(6.44097864878288,4.65116493863967,32.5590219472636));
#495=CARTESIAN_POINT('Ctrl Pts',(6.91425979834246,4.03649818256768,32.085740797704));
#496=CARTESIAN_POINT('Ctrl Pts',(7.58331291161403,2.76137508573708,31.4166876844324));
#497=CARTESIAN_POINT('Ctrl Pts',(7.8147401865518,2.14512491064329,31.1852604094945));
#498=CARTESIAN_POINT('Ctrl Pts',(8.09215992380649,0.849234349318745,30.9078406722398));
#499=CARTESIAN_POINT('Ctrl Pts',(8.14177405585986,0.197438776698501,30.8582265401429));
#500=CARTESIAN_POINT('Ctrl Pts',(8.05264611201088,-1.16963317413612,30.9473544839919));
#501=CARTESIAN_POINT('Ctrl Pts',(7.90055555550841,-1.84893565532923,31.099445040538));
#502=CARTESIAN_POINT('Ctrl Pts',(7.36604522285186,-3.28330224666693,31.6339553731946));
#503=CARTESIAN_POINT('Ctrl Pts',(6.94259584063264,-3.98462933653908,32.0574047554138));
#504=CARTESIAN_POINT('Ctrl Pts',(5.79077930863955,-5.39096928533915,33.2092212874069));
#505=CARTESIAN_POINT('Ctrl Pts',(4.95588145530069,-6.06680582805395,34.0441191407458));
#506=CARTESIAN_POINT('Ctrl Pts',(2.77715274837226,-7.20456914743846,36.2228478476742));
#507=CARTESIAN_POINT('Ctrl Pts',(1.39743917367221,-7.52996798222032,37.6025614223742));
#508=CARTESIAN_POINT('Ctrl Pts',(1.11022302462516E-15,-7.51249999254942,
39.0000005960464));
#509=CARTESIAN_POINT('',(-8.,-9.14658078113179E-16,40.));
#510=CARTESIAN_POINT('Ctrl Pts',(-8.,-9.14658078113179E-16,40.));
#511=CARTESIAN_POINT('Ctrl Pts',(-8.,-1.11732238721423,40.));
#512=CARTESIAN_POINT('Ctrl Pts',(-7.72957155397613,-2.23437693592901,40.));
#513=CARTESIAN_POINT('Ctrl Pts',(-7.21337402151393,-3.2434648657155,40.));
#514=CARTESIAN_POINT('Ctrl Pts',(-6.69717648905173,-4.25255279550198,40.));
#515=CARTESIAN_POINT('Ctrl Pts',(-5.9352098701512,-5.15367410636018,40.));
#516=CARTESIAN_POINT('Ctrl Pts',(-5.00011359681814,-5.85540877518362,40.));
#517=CARTESIAN_POINT('Ctrl Pts',(-4.06501732348508,-6.55714344400707,40.));
#518=CARTESIAN_POINT('Ctrl Pts',(-2.95679139571948,-7.05949147079577,40.));
#519=CARTESIAN_POINT('Ctrl Pts',(-1.78664032156246,-7.31071891115933,40.));
#520=CARTESIAN_POINT('Ctrl Pts',(-1.52714515133969,-7.36643163820932,40.));
#521=CARTESIAN_POINT('Ctrl Pts',(-1.26460459945087,-7.40979464831178,40.));
#522=CARTESIAN_POINT('Ctrl Pts',(-1.00036775463239,-7.4408038365232,40.));
#523=CARTESIAN_POINT('',(-8.5,-9.79717439317883E-16,0.));
#524=CARTESIAN_POINT('',(-8.,-9.14658078113179E-16,40.));
#525=CARTESIAN_POINT('Origin',(0.,0.,0.));
#526=CARTESIAN_POINT('Ctrl Pts',(1.11022302462516E-15,-7.9875,1.));
#527=CARTESIAN_POINT('Ctrl Pts',(1.10906380281224,-7.97363670246485,2.10906380281224));
#528=CARTESIAN_POINT('Ctrl Pts',(2.228240912899,-7.75520266325051,3.228240912899));
#529=CARTESIAN_POINT('Ctrl Pts',(4.23671303658673,-6.92959697054308,5.23671303658673));
#530=CARTESIAN_POINT('Ctrl Pts',(5.1636796424621,-6.35437343487354,6.1636796424621));
#531=CARTESIAN_POINT('Ctrl Pts',(6.53728758542307,-5.02698870498095,7.53728758542307));
#532=CARTESIAN_POINT('Ctrl Pts',(7.05226189900348,-4.37500764449077,8.05226189900348));
#533=CARTESIAN_POINT('Ctrl Pts',(7.78274035266272,-3.02114898689871,8.78274035266273));
#534=CARTESIAN_POINT('Ctrl Pts',(8.03718288654632,-2.36721800505456,9.0371828865465));
#535=CARTESIAN_POINT('Ctrl Pts',(8.34773882683788,-0.99385088905095,9.34773882683805));
#536=CARTESIAN_POINT('Ctrl Pts',(8.40898708725845,-0.303888514164599,9.40898708721738));
#537=CARTESIAN_POINT('Ctrl Pts',(8.33295260513886,1.14515375072628,9.33295260509778));
#538=CARTESIAN_POINT('Ctrl Pts',(8.18188221306299,1.8665135289307,9.18188221306299));
#539=CARTESIAN_POINT('Ctrl Pts',(7.63888875580587,3.38754489823786,8.63888875580587));
#540=CARTESIAN_POINT('Ctrl Pts',(7.20550182242093,4.13195106082942,8.20550182242093));
#541=CARTESIAN_POINT('Ctrl Pts',(6.02356592996184,5.62588678920635,7.02356592996184));
#542=CARTESIAN_POINT('Ctrl Pts',(5.1665842754496,6.34827805708569,6.1665842754496));
#543=CARTESIAN_POINT('Ctrl Pts',(2.91131899535184,7.59214739675824,3.91131899535184));
#544=CARTESIAN_POINT('Ctrl Pts',(1.46968408650725,7.96912894891866,2.46968408650725));
#545=CARTESIAN_POINT('Ctrl Pts',(5.55111512312578E-16,7.9875,1.));
#546=CARTESIAN_POINT('Origin',(0.,0.,0.));
#547=CARTESIAN_POINT('Ctrl Pts',(-0.999907485948137,7.44085552242848,40.));
#548=CARTESIAN_POINT('Ctrl Pts',(-1.26436544189017,7.40964159544958,40.));
#549=CARTESIAN_POINT('Ctrl Pts',(-1.52709592887809,7.36609133722792,40.));
#550=CARTESIAN_POINT('Ctrl Pts',(-1.78669805753679,7.31024767455268,40.));
#551=CARTESIAN_POINT('Ctrl Pts',(-2.95733144737243,7.05842980050012,40.));
#552=CARTESIAN_POINT('Ctrl Pts',(-4.06435243321485,6.55663640310479,40.));
#553=CARTESIAN_POINT('Ctrl Pts',(-4.99923893860208,5.85510165879186,40.));
#554=CARTESIAN_POINT('Ctrl Pts',(-5.93412544398931,5.15356691447892,40.));
#555=CARTESIAN_POINT('Ctrl Pts',(-6.69687746892133,4.25229082324838,40.));
#556=CARTESIAN_POINT('Ctrl Pts',(-7.21334610792401,3.24322969143221,40.));
#557=CARTESIAN_POINT('Ctrl Pts',(-7.72981474692668,2.23416855961603,40.));
#558=CARTESIAN_POINT('Ctrl Pts',(-8.,1.11732238721423,40.));
#559=CARTESIAN_POINT('Ctrl Pts',(-8.,1.11022302462516E-15,40.));
#560=CARTESIAN_POINT('Origin',(0.,0.,1.));
#561=CARTESIAN_POINT('',(5.25,5.24235077979224E-15,6.25));
#562=CARTESIAN_POINT('Origin',(4.,5.39543162968565E-15,5.));
#563=CARTESIAN_POINT('Origin',(11.0000001639128,0.,28.0000004321337));
#564=CARTESIAN_POINT('',(5.25,5.54851247957907E-15,33.7500005960464));
#565=CARTESIAN_POINT('Origin',(4.,5.39543162968565E-15,35.0000005960464));
#566=CARTESIAN_POINT('Origin',(4.,5.39543162968565E-15,40.));
#567=CARTESIAN_POINT('',(5.25,5.24235077979224E-15,40.));
#568=CARTESIAN_POINT('Origin',(0.,0.,0.));
#569=CARTESIAN_POINT('Origin',(-0.727272727272727,3.26860514364183E-17,
40.));
#570=CARTESIAN_POINT('',(0.,0.,0.));
#571=UNCERTAINTY_MEASURE_WITH_UNIT(LENGTH_MEASURE(0.01),#577,
'DISTANCE_ACCURACY_VALUE',
'Maximum model space distance between geometric entities at asserted c
onnectivities');
#572=UNCERTAINTY_MEASURE_WITH_UNIT(LENGTH_MEASURE(0.01),#577,
'DISTANCE_ACCURACY_VALUE',
'Maximum model space distance between geometric entities at asserted c
onnectivities');
#573=UNCERTAINTY_MEASURE_WITH_UNIT(LENGTH_MEASURE(0.01),#577,
'DISTANCE_ACCURACY_VALUE',
'Maximum model space distance between geometric entities at asserted c
onnectivities');
#574=(
GEOMETRIC_REPRESENTATION_CONTEXT(3)
GLOBAL_UNCERTAINTY_ASSIGNED_CONTEXT((#571))
GLOBAL_UNIT_ASSIGNED_CONTEXT((#577,#579,#580))
REPRESENTATION_CONTEXT('','3D')
);
#575=(
GEOMETRIC_REPRESENTATION_CONTEXT(3)
GLOBAL_UNCERTAINTY_ASSIGNED_CONTEXT((#572))
GLOBAL_UNIT_ASSIGNED_CONTEXT((#577,#579,#580))
REPRESENTATION_CONTEXT('','3D')
);
#576=(
GEOMETRIC_REPRESENTATION_CONTEXT(3)
GLOBAL_UNCERTAINTY_ASSIGNED_CONTEXT((#573))
GLOBAL_UNIT_ASSIGNED_CONTEXT((#577,#579,#580))
REPRESENTATION_CONTEXT('','3D')
);
#577=(
LENGTH_UNIT()
NAMED_UNIT(*)
SI_UNIT(.MILLI.,.METRE.)
);
#578=(
LENGTH_UNIT()
NAMED_UNIT(*)
SI_UNIT($,.METRE.)
);
#579=(
NAMED_UNIT(*)
PLANE_ANGLE_UNIT()
SI_UNIT($,.RADIAN.)
);
#580=(
NAMED_UNIT(*)
SI_UNIT($,.STERADIAN.)
SOLID_ANGLE_UNIT()
);
#581=SHAPE_DEFINITION_REPRESENTATION(#583,#586);
#582=SHAPE_DEFINITION_REPRESENTATION(#584,#587);
#583=PRODUCT_DEFINITION_SHAPE('',$,#589);
#584=PRODUCT_DEFINITION_SHAPE('',$,#590);
#585=PRODUCT_DEFINITION_SHAPE($,$,#14);
#586=SHAPE_REPRESENTATION('',(#204,#223),#574);
#587=SHAPE_REPRESENTATION('',(#205),#575);
#588=PRODUCT_DEFINITION_CONTEXT('part definition',#596,'design');
#589=PRODUCT_DEFINITION('2025-12-07-22-13-42-785','Index Finger',#591,#588);
#590=PRODUCT_DEFINITION('2025-12-07-22-14-24-885','Proximal phalanx',#592,
#588);
#591=PRODUCT_DEFINITION_FORMATION('',$,#598);
#592=PRODUCT_DEFINITION_FORMATION('',$,#599);
#593=PRODUCT_RELATED_PRODUCT_CATEGORY('Index Finger','Index Finger',(#598));
#594=PRODUCT_RELATED_PRODUCT_CATEGORY('Proximal phalanx',
'Proximal phalanx',(#599));
#595=APPLICATION_PROTOCOL_DEFINITION('international standard',
'automotive_design',2009,#596);
#596=APPLICATION_CONTEXT(
'Core Data for Automotive Mechanical Design Process');
#597=PRODUCT_CONTEXT('part definition',#596,'mechanical');
#598=PRODUCT('2025-12-07-22-13-42-785','Index Finger',$,(#597));
#599=PRODUCT('2025-12-07-22-14-24-885','Proximal phalanx',$,(#597));
#600=PRESENTATION_STYLE_ASSIGNMENT((#601));
#601=SURFACE_STYLE_USAGE(.BOTH.,#602);
#602=SURFACE_SIDE_STYLE('',(#603));
#603=SURFACE_STYLE_FILL_AREA(#604);
#604=FILL_AREA_STYLE('Steel - Satin',(#605));
#605=FILL_AREA_STYLE_COLOUR('Steel - Satin',#606);
#606=COLOUR_RGB('Steel - Satin',0.627450980392157,0.627450980392157,0.627450980392157);
ENDSEC;
END-ISO-10303-21;
