ISO-10303-21;
HEADER;
/* Generated by software containing ST-Developer
 * from STEP Tools, Inc. (www.steptools.com) 
 */

FILE_DESCRIPTION(
/* description */ (''),
/* implementation_level */ '2;1');

FILE_NAME(
/* name */ 'Lid.step',
/* time_stamp */ '2026-01-04T20:46:32Z',
/* author */ (''),
/* organization */ (''),
/* preprocessor_version */ 'ST-DEVELOPER v20.1',
/* originating_system */ 'Autodesk Translation Framework v14.21.0.0',
/* authorisation */ '');

FILE_SCHEMA (('AUTOMOTIVE_DESIGN { 1 0 10303 214 3 1 1 }'));
ENDSEC;

DATA;
#10=MECHANICAL_DESIGN_GEOMETRIC_PRESENTATION_REPRESENTATION('',(#21),#1993);
#11=ITEM_DEFINED_TRANSFORMATION($,$,#1164,#1298);
#12=ITEM_DEFINED_TRANSFORMATION($,$,#1163,#1299);
#13=(
REPRESENTATION_RELATIONSHIP($,$,#2008,#2007)
REPRESENTATION_RELATIONSHIP_WITH_TRANSFORMATION(#11)
SHAPE_REPRESENTATION_RELATIONSHIP()
);
#14=(
REPRESENTATION_RELATIONSHIP($,$,#2007,#2006)
REPRESENTATION_RELATIONSHIP_WITH_TRANSFORMATION(#12)
SHAPE_REPRESENTATION_RELATIONSHIP()
);
#15=CONTEXT_DEPENDENT_SHAPE_REPRESENTATION(#13,#2004);
#16=CONTEXT_DEPENDENT_SHAPE_REPRESENTATION(#14,#2005);
#17=NEXT_ASSEMBLY_USAGE_OCCURRENCE('Lid:1','Lid:1','Lid:1',#2011,#2012,
'Lid:1');
#18=NEXT_ASSEMBLY_USAGE_OCCURRENCE('Arm:1','Arm:1','Arm:1',#2010,#2011,
'Arm:1');
#19=SHAPE_REPRESENTATION_RELATIONSHIP('SRR','None',#2008,#20);
#20=ADVANCED_BREP_SHAPE_REPRESENTATION('',(#22),#1992);
#21=STYLED_ITEM('',(#2026),#22);
#22=MANIFOLD_SOLID_BREP('Body1',#1149);
#23=FACE_BOUND('',#203,.T.);
#24=FACE_BOUND('',#204,.T.);
#25=FACE_BOUND('',#205,.T.);
#26=FACE_BOUND('',#206,.T.);
#27=FACE_BOUND('',#207,.T.);
#28=FACE_BOUND('',#208,.T.);
#29=FACE_BOUND('',#209,.T.);
#30=FACE_BOUND('',#210,.T.);
#31=FACE_BOUND('',#211,.T.);
#32=FACE_BOUND('',#212,.T.);
#33=FACE_BOUND('',#213,.T.);
#34=FACE_BOUND('',#253,.T.);
#35=FACE_BOUND('',#254,.T.);
#36=FACE_BOUND('',#255,.T.);
#37=FACE_BOUND('',#256,.T.);
#38=FACE_BOUND('',#257,.T.);
#39=FACE_BOUND('',#258,.T.);
#40=FACE_BOUND('',#259,.T.);
#41=FACE_BOUND('',#260,.T.);
#42=FACE_BOUND('',#261,.T.);
#43=FACE_BOUND('',#262,.T.);
#44=FACE_BOUND('',#263,.T.);
#45=FACE_BOUND('',#264,.T.);
#46=FACE_BOUND('',#265,.T.);
#47=FACE_BOUND('',#266,.T.);
#48=FACE_BOUND('',#267,.T.);
#49=FACE_BOUND('',#268,.T.);
#50=FACE_BOUND('',#269,.T.);
#51=FACE_BOUND('',#283,.T.);
#52=PLANE('',#1168);
#53=PLANE('',#1172);
#54=PLANE('',#1176);
#55=PLANE('',#1180);
#56=PLANE('',#1184);
#57=PLANE('',#1188);
#58=PLANE('',#1192);
#59=PLANE('',#1196);
#60=PLANE('',#1200);
#61=PLANE('',#1204);
#62=PLANE('',#1208);
#63=PLANE('',#1212);
#64=PLANE('',#1213);
#65=PLANE('',#1217);
#66=PLANE('',#1221);
#67=PLANE('',#1225);
#68=PLANE('',#1229);
#69=PLANE('',#1233);
#70=PLANE('',#1237);
#71=PLANE('',#1241);
#72=PLANE('',#1245);
#73=PLANE('',#1249);
#74=PLANE('',#1253);
#75=PLANE('',#1257);
#76=PLANE('',#1261);
#77=PLANE('',#1265);
#78=PLANE('',#1269);
#79=PLANE('',#1273);
#80=PLANE('',#1277);
#81=PLANE('',#1278);
#82=PLANE('',#1279);
#83=PLANE('',#1280);
#84=PLANE('',#1281);
#85=PLANE('',#1282);
#86=PLANE('',#1283);
#87=PLANE('',#1284);
#88=PLANE('',#1285);
#89=PLANE('',#1286);
#90=PLANE('',#1287);
#91=PLANE('',#1288);
#92=PLANE('',#1289);
#93=PLANE('',#1290);
#94=PLANE('',#1291);
#95=PLANE('',#1292);
#96=PLANE('',#1293);
#97=PLANE('',#1294);
#98=PLANE('',#1295);
#99=PLANE('',#1296);
#100=PLANE('',#1297);
#101=FACE_OUTER_BOUND('',#178,.T.);
#102=FACE_OUTER_BOUND('',#179,.T.);
#103=FACE_OUTER_BOUND('',#180,.T.);
#104=FACE_OUTER_BOUND('',#181,.T.);
#105=FACE_OUTER_BOUND('',#182,.T.);
#106=FACE_OUTER_BOUND('',#183,.T.);
#107=FACE_OUTER_BOUND('',#184,.T.);
#108=FACE_OUTER_BOUND('',#185,.T.);
#109=FACE_OUTER_BOUND('',#186,.T.);
#110=FACE_OUTER_BOUND('',#187,.T.);
#111=FACE_OUTER_BOUND('',#188,.T.);
#112=FACE_OUTER_BOUND('',#189,.T.);
#113=FACE_OUTER_BOUND('',#190,.T.);
#114=FACE_OUTER_BOUND('',#191,.T.);
#115=FACE_OUTER_BOUND('',#192,.T.);
#116=FACE_OUTER_BOUND('',#193,.T.);
#117=FACE_OUTER_BOUND('',#194,.T.);
#118=FACE_OUTER_BOUND('',#195,.T.);
#119=FACE_OUTER_BOUND('',#196,.T.);
#120=FACE_OUTER_BOUND('',#197,.T.);
#121=FACE_OUTER_BOUND('',#198,.T.);
#122=FACE_OUTER_BOUND('',#199,.T.);
#123=FACE_OUTER_BOUND('',#200,.T.);
#124=FACE_OUTER_BOUND('',#201,.T.);
#125=FACE_OUTER_BOUND('',#202,.T.);
#126=FACE_OUTER_BOUND('',#214,.T.);
#127=FACE_OUTER_BOUND('',#215,.T.);
#128=FACE_OUTER_BOUND('',#216,.T.);
#129=FACE_OUTER_BOUND('',#217,.T.);
#130=FACE_OUTER_BOUND('',#218,.T.);
#131=FACE_OUTER_BOUND('',#219,.T.);
#132=FACE_OUTER_BOUND('',#220,.T.);
#133=FACE_OUTER_BOUND('',#221,.T.);
#134=FACE_OUTER_BOUND('',#222,.T.);
#135=FACE_OUTER_BOUND('',#223,.T.);
#136=FACE_OUTER_BOUND('',#224,.T.);
#137=FACE_OUTER_BOUND('',#225,.T.);
#138=FACE_OUTER_BOUND('',#226,.T.);
#139=FACE_OUTER_BOUND('',#227,.T.);
#140=FACE_OUTER_BOUND('',#228,.T.);
#141=FACE_OUTER_BOUND('',#229,.T.);
#142=FACE_OUTER_BOUND('',#230,.T.);
#143=FACE_OUTER_BOUND('',#231,.T.);
#144=FACE_OUTER_BOUND('',#232,.T.);
#145=FACE_OUTER_BOUND('',#233,.T.);
#146=FACE_OUTER_BOUND('',#234,.T.);
#147=FACE_OUTER_BOUND('',#235,.T.);
#148=FACE_OUTER_BOUND('',#236,.T.);
#149=FACE_OUTER_BOUND('',#237,.T.);
#150=FACE_OUTER_BOUND('',#238,.T.);
#151=FACE_OUTER_BOUND('',#239,.T.);
#152=FACE_OUTER_BOUND('',#240,.T.);
#153=FACE_OUTER_BOUND('',#241,.T.);
#154=FACE_OUTER_BOUND('',#242,.T.);
#155=FACE_OUTER_BOUND('',#243,.T.);
#156=FACE_OUTER_BOUND('',#244,.T.);
#157=FACE_OUTER_BOUND('',#245,.T.);
#158=FACE_OUTER_BOUND('',#246,.T.);
#159=FACE_OUTER_BOUND('',#247,.T.);
#160=FACE_OUTER_BOUND('',#248,.T.);
#161=FACE_OUTER_BOUND('',#249,.T.);
#162=FACE_OUTER_BOUND('',#250,.T.);
#163=FACE_OUTER_BOUND('',#251,.T.);
#164=FACE_OUTER_BOUND('',#252,.T.);
#165=FACE_OUTER_BOUND('',#270,.T.);
#166=FACE_OUTER_BOUND('',#271,.T.);
#167=FACE_OUTER_BOUND('',#272,.T.);
#168=FACE_OUTER_BOUND('',#273,.T.);
#169=FACE_OUTER_BOUND('',#274,.T.);
#170=FACE_OUTER_BOUND('',#275,.T.);
#171=FACE_OUTER_BOUND('',#276,.T.);
#172=FACE_OUTER_BOUND('',#277,.T.);
#173=FACE_OUTER_BOUND('',#278,.T.);
#174=FACE_OUTER_BOUND('',#279,.T.);
#175=FACE_OUTER_BOUND('',#280,.T.);
#176=FACE_OUTER_BOUND('',#281,.T.);
#177=FACE_OUTER_BOUND('',#282,.T.);
#178=EDGE_LOOP('',(#756,#757,#758,#759));
#179=EDGE_LOOP('',(#760));
#180=EDGE_LOOP('',(#761,#762,#763,#764));
#181=EDGE_LOOP('',(#765,#766));
#182=EDGE_LOOP('',(#767,#768,#769,#770));
#183=EDGE_LOOP('',(#771));
#184=EDGE_LOOP('',(#772,#773,#774,#775));
#185=EDGE_LOOP('',(#776));
#186=EDGE_LOOP('',(#777,#778,#779,#780));
#187=EDGE_LOOP('',(#781));
#188=EDGE_LOOP('',(#782,#783,#784,#785));
#189=EDGE_LOOP('',(#786));
#190=EDGE_LOOP('',(#787,#788,#789,#790));
#191=EDGE_LOOP('',(#791));
#192=EDGE_LOOP('',(#792,#793,#794,#795));
#193=EDGE_LOOP('',(#796));
#194=EDGE_LOOP('',(#797,#798,#799,#800));
#195=EDGE_LOOP('',(#801));
#196=EDGE_LOOP('',(#802,#803,#804,#805));
#197=EDGE_LOOP('',(#806));
#198=EDGE_LOOP('',(#807,#808,#809,#810));
#199=EDGE_LOOP('',(#811));
#200=EDGE_LOOP('',(#812,#813,#814,#815));
#201=EDGE_LOOP('',(#816,#817));
#202=EDGE_LOOP('',(#818,#819,#820,#821,#822,#823,#824,#825,#826,#827));
#203=EDGE_LOOP('',(#828,#829,#830,#831,#832,#833));
#204=EDGE_LOOP('',(#834));
#205=EDGE_LOOP('',(#835));
#206=EDGE_LOOP('',(#836));
#207=EDGE_LOOP('',(#837));
#208=EDGE_LOOP('',(#838));
#209=EDGE_LOOP('',(#839));
#210=EDGE_LOOP('',(#840));
#211=EDGE_LOOP('',(#841));
#212=EDGE_LOOP('',(#842));
#213=EDGE_LOOP('',(#843));
#214=EDGE_LOOP('',(#844,#845,#846,#847));
#215=EDGE_LOOP('',(#848));
#216=EDGE_LOOP('',(#849,#850,#851,#852));
#217=EDGE_LOOP('',(#853));
#218=EDGE_LOOP('',(#854,#855,#856,#857));
#219=EDGE_LOOP('',(#858));
#220=EDGE_LOOP('',(#859,#860,#861,#862));
#221=EDGE_LOOP('',(#863));
#222=EDGE_LOOP('',(#864,#865,#866,#867));
#223=EDGE_LOOP('',(#868));
#224=EDGE_LOOP('',(#869,#870,#871,#872));
#225=EDGE_LOOP('',(#873));
#226=EDGE_LOOP('',(#874,#875,#876,#877));
#227=EDGE_LOOP('',(#878));
#228=EDGE_LOOP('',(#879,#880,#881,#882));
#229=EDGE_LOOP('',(#883));
#230=EDGE_LOOP('',(#884,#885,#886,#887));
#231=EDGE_LOOP('',(#888));
#232=EDGE_LOOP('',(#889,#890,#891,#892));
#233=EDGE_LOOP('',(#893));
#234=EDGE_LOOP('',(#894,#895,#896,#897));
#235=EDGE_LOOP('',(#898));
#236=EDGE_LOOP('',(#899,#900,#901,#902));
#237=EDGE_LOOP('',(#903));
#238=EDGE_LOOP('',(#904,#905,#906,#907));
#239=EDGE_LOOP('',(#908));
#240=EDGE_LOOP('',(#909,#910,#911,#912));
#241=EDGE_LOOP('',(#913));
#242=EDGE_LOOP('',(#914,#915,#916,#917));
#243=EDGE_LOOP('',(#918));
#244=EDGE_LOOP('',(#919,#920,#921,#922));
#245=EDGE_LOOP('',(#923));
#246=EDGE_LOOP('',(#924,#925,#926,#927));
#247=EDGE_LOOP('',(#928,#929,#930,#931));
#248=EDGE_LOOP('',(#932,#933,#934,#935));
#249=EDGE_LOOP('',(#936,#937,#938,#939,#940,#941,#942,#943));
#250=EDGE_LOOP('',(#944,#945,#946,#947));
#251=EDGE_LOOP('',(#948,#949,#950,#951,#952,#953,#954,#955));
#252=EDGE_LOOP('',(#956,#957,#958,#959,#960,#961));
#253=EDGE_LOOP('',(#962));
#254=EDGE_LOOP('',(#963));
#255=EDGE_LOOP('',(#964));
#256=EDGE_LOOP('',(#965));
#257=EDGE_LOOP('',(#966));
#258=EDGE_LOOP('',(#967));
#259=EDGE_LOOP('',(#968));
#260=EDGE_LOOP('',(#969));
#261=EDGE_LOOP('',(#970));
#262=EDGE_LOOP('',(#971));
#263=EDGE_LOOP('',(#972));
#264=EDGE_LOOP('',(#973));
#265=EDGE_LOOP('',(#974));
#266=EDGE_LOOP('',(#975));
#267=EDGE_LOOP('',(#976));
#268=EDGE_LOOP('',(#977));
#269=EDGE_LOOP('',(#978,#979,#980,#981,#982,#983));
#270=EDGE_LOOP('',(#984,#985,#986,#987));
#271=EDGE_LOOP('',(#988,#989,#990,#991));
#272=EDGE_LOOP('',(#992,#993,#994,#995));
#273=EDGE_LOOP('',(#996,#997,#998,#999));
#274=EDGE_LOOP('',(#1000,#1001,#1002,#1003));
#275=EDGE_LOOP('',(#1004,#1005,#1006,#1007));
#276=EDGE_LOOP('',(#1008,#1009,#1010,#1011));
#277=EDGE_LOOP('',(#1012,#1013,#1014,#1015));
#278=EDGE_LOOP('',(#1016,#1017,#1018,#1019));
#279=EDGE_LOOP('',(#1020,#1021,#1022,#1023));
#280=EDGE_LOOP('',(#1024,#1025,#1026,#1027));
#281=EDGE_LOOP('',(#1028,#1029,#1030,#1031));
#282=EDGE_LOOP('',(#1032,#1033,#1034,#1035,#1036,#1037));
#283=EDGE_LOOP('',(#1038,#1039,#1040,#1041,#1042,#1043));
#284=LINE('',#1671,#372);
#285=LINE('',#1677,#373);
#286=LINE('',#1681,#374);
#287=LINE('',#1684,#375);
#288=LINE('',#1689,#376);
#289=LINE('',#1696,#377);
#290=LINE('',#1703,#378);
#291=LINE('',#1710,#379);
#292=LINE('',#1717,#380);
#293=LINE('',#1724,#381);
#294=LINE('',#1731,#382);
#295=LINE('',#1738,#383);
#296=LINE('',#1745,#384);
#297=LINE('',#1751,#385);
#298=LINE('',#1755,#386);
#299=LINE('',#1758,#387);
#300=LINE('',#1761,#388);
#301=LINE('',#1763,#389);
#302=LINE('',#1764,#390);
#303=LINE('',#1766,#391);
#304=LINE('',#1768,#392);
#305=LINE('',#1770,#393);
#306=LINE('',#1772,#394);
#307=LINE('',#1773,#395);
#308=LINE('',#1776,#396);
#309=LINE('',#1778,#397);
#310=LINE('',#1780,#398);
#311=LINE('',#1782,#399);
#312=LINE('',#1784,#400);
#313=LINE('',#1785,#401);
#314=LINE('',#1790,#402);
#315=LINE('',#1797,#403);
#316=LINE('',#1804,#404);
#317=LINE('',#1811,#405);
#318=LINE('',#1818,#406);
#319=LINE('',#1825,#407);
#320=LINE('',#1832,#408);
#321=LINE('',#1839,#409);
#322=LINE('',#1846,#410);
#323=LINE('',#1853,#411);
#324=LINE('',#1860,#412);
#325=LINE('',#1867,#413);
#326=LINE('',#1874,#414);
#327=LINE('',#1881,#415);
#328=LINE('',#1888,#416);
#329=LINE('',#1895,#417);
#330=LINE('',#1900,#418);
#331=LINE('',#1902,#419);
#332=LINE('',#1903,#420);
#333=LINE('',#1906,#421);
#334=LINE('',#1907,#422);
#335=LINE('',#1910,#423);
#336=LINE('',#1911,#424);
#337=LINE('',#1914,#425);
#338=LINE('',#1915,#426);
#339=LINE('',#1918,#427);
#340=LINE('',#1919,#428);
#341=LINE('',#1921,#429);
#342=LINE('',#1925,#430);
#343=LINE('',#1927,#431);
#344=LINE('',#1929,#432);
#345=LINE('',#1931,#433);
#346=LINE('',#1933,#434);
#347=LINE('',#1934,#435);
#348=LINE('',#1938,#436);
#349=LINE('',#1939,#437);
#350=LINE('',#1940,#438);
#351=LINE('',#1943,#439);
#352=LINE('',#1944,#440);
#353=LINE('',#1947,#441);
#354=LINE('',#1948,#442);
#355=LINE('',#1951,#443);
#356=LINE('',#1952,#444);
#357=LINE('',#1955,#445);
#358=LINE('',#1956,#446);
#359=LINE('',#1958,#447);
#360=LINE('',#1961,#448);
#361=LINE('',#1963,#449);
#362=LINE('',#1964,#450);
#363=LINE('',#1967,#451);
#364=LINE('',#1968,#452);
#365=LINE('',#1971,#453);
#366=LINE('',#1972,#454);
#367=LINE('',#1975,#455);
#368=LINE('',#1976,#456);
#369=LINE('',#1979,#457);
#370=LINE('',#1980,#458);
#371=LINE('',#1982,#459);
#372=VECTOR('',#1310,2.55);
#373=VECTOR('',#1317,10.);
#374=VECTOR('',#1320,10.);
#375=VECTOR('',#1325,10.);
#376=VECTOR('',#1330,2.55);
#377=VECTOR('',#1339,2.55000000000001);
#378=VECTOR('',#1348,2.55000000000001);
#379=VECTOR('',#1357,2.55);
#380=VECTOR('',#1366,2.55000000000001);
#381=VECTOR('',#1375,2.55000000000001);
#382=VECTOR('',#1384,2.55);
#383=VECTOR('',#1393,2.55000000000001);
#384=VECTOR('',#1402,2.55000000000001);
#385=VECTOR('',#1409,10.);
#386=VECTOR('',#1412,10.);
#387=VECTOR('',#1417,10.);
#388=VECTOR('',#1420,10.);
#389=VECTOR('',#1421,10.);
#390=VECTOR('',#1422,10.);
#391=VECTOR('',#1423,10.);
#392=VECTOR('',#1424,10.);
#393=VECTOR('',#1425,10.);
#394=VECTOR('',#1426,10.);
#395=VECTOR('',#1427,10.);
#396=VECTOR('',#1428,10.);
#397=VECTOR('',#1429,10.);
#398=VECTOR('',#1430,10.);
#399=VECTOR('',#1431,10.);
#400=VECTOR('',#1432,10.);
#401=VECTOR('',#1433,10.);
#402=VECTOR('',#1438,2.55000000000001);
#403=VECTOR('',#1447,2.55);
#404=VECTOR('',#1456,2.55);
#405=VECTOR('',#1465,2.55000000000001);
#406=VECTOR('',#1474,2.55000000000001);
#407=VECTOR('',#1483,2.55);
#408=VECTOR('',#1492,2.55);
#409=VECTOR('',#1501,2.55000000000001);
#410=VECTOR('',#1510,2.55000000000001);
#411=VECTOR('',#1519,2.55);
#412=VECTOR('',#1528,2.55000000000001);
#413=VECTOR('',#1537,2.55000000000001);
#414=VECTOR('',#1546,2.55000000000001);
#415=VECTOR('',#1555,2.55);
#416=VECTOR('',#1564,2.55);
#417=VECTOR('',#1573,2.55000000000001);
#418=VECTOR('',#1580,10.);
#419=VECTOR('',#1581,10.);
#420=VECTOR('',#1582,10.);
#421=VECTOR('',#1585,10.);
#422=VECTOR('',#1586,10.);
#423=VECTOR('',#1589,10.);
#424=VECTOR('',#1590,10.);
#425=VECTOR('',#1593,10.);
#426=VECTOR('',#1594,10.);
#427=VECTOR('',#1597,10.);
#428=VECTOR('',#1598,10.);
#429=VECTOR('',#1601,10.);
#430=VECTOR('',#1604,10.);
#431=VECTOR('',#1605,10.);
#432=VECTOR('',#1606,10.);
#433=VECTOR('',#1607,10.);
#434=VECTOR('',#1608,10.);
#435=VECTOR('',#1609,10.);
#436=VECTOR('',#1612,10.);
#437=VECTOR('',#1613,10.);
#438=VECTOR('',#1614,10.);
#439=VECTOR('',#1617,10.);
#440=VECTOR('',#1618,10.);
#441=VECTOR('',#1621,10.);
#442=VECTOR('',#1622,10.);
#443=VECTOR('',#1625,10.);
#444=VECTOR('',#1626,10.);
#445=VECTOR('',#1629,10.);
#446=VECTOR('',#1630,10.);
#447=VECTOR('',#1633,10.);
#448=VECTOR('',#1636,10.);
#449=VECTOR('',#1637,10.);
#450=VECTOR('',#1638,10.);
#451=VECTOR('',#1641,10.);
#452=VECTOR('',#1642,10.);
#453=VECTOR('',#1645,10.);
#454=VECTOR('',#1646,10.);
#455=VECTOR('',#1649,10.);
#456=VECTOR('',#1650,10.);
#457=VECTOR('',#1653,10.);
#458=VECTOR('',#1654,10.);
#459=VECTOR('',#1657,10.);
#460=CIRCLE('',#1166,2.55);
#461=CIRCLE('',#1167,2.55);
#462=CIRCLE('',#1170,2.55000000000001);
#463=CIRCLE('',#1171,2.55000000000001);
#464=CIRCLE('',#1174,2.55);
#465=CIRCLE('',#1175,2.55);
#466=CIRCLE('',#1178,2.55000000000001);
#467=CIRCLE('',#1179,2.55000000000001);
#468=CIRCLE('',#1182,2.55000000000001);
#469=CIRCLE('',#1183,2.55000000000001);
#470=CIRCLE('',#1186,2.55);
#471=CIRCLE('',#1187,2.55);
#472=CIRCLE('',#1190,2.55000000000001);
#473=CIRCLE('',#1191,2.55000000000001);
#474=CIRCLE('',#1194,2.55000000000001);
#475=CIRCLE('',#1195,2.55000000000001);
#476=CIRCLE('',#1198,2.55);
#477=CIRCLE('',#1199,2.55);
#478=CIRCLE('',#1202,2.55000000000001);
#479=CIRCLE('',#1203,2.55000000000001);
#480=CIRCLE('',#1206,2.55000000000001);
#481=CIRCLE('',#1207,2.55000000000001);
#482=CIRCLE('',#1210,2.55);
#483=CIRCLE('',#1211,2.55);
#484=CIRCLE('',#1215,2.55000000000001);
#485=CIRCLE('',#1216,2.55000000000001);
#486=CIRCLE('',#1219,2.55);
#487=CIRCLE('',#1220,2.55);
#488=CIRCLE('',#1223,2.55);
#489=CIRCLE('',#1224,2.55);
#490=CIRCLE('',#1227,2.55000000000001);
#491=CIRCLE('',#1228,2.55000000000001);
#492=CIRCLE('',#1231,2.55000000000001);
#493=CIRCLE('',#1232,2.55000000000001);
#494=CIRCLE('',#1235,2.55);
#495=CIRCLE('',#1236,2.55);
#496=CIRCLE('',#1239,2.55);
#497=CIRCLE('',#1240,2.55);
#498=CIRCLE('',#1243,2.55000000000001);
#499=CIRCLE('',#1244,2.55000000000001);
#500=CIRCLE('',#1247,2.55000000000001);
#501=CIRCLE('',#1248,2.55000000000001);
#502=CIRCLE('',#1251,2.55);
#503=CIRCLE('',#1252,2.55);
#504=CIRCLE('',#1255,2.55000000000001);
#505=CIRCLE('',#1256,2.55000000000001);
#506=CIRCLE('',#1259,2.55000000000001);
#507=CIRCLE('',#1260,2.55000000000001);
#508=CIRCLE('',#1263,2.55000000000001);
#509=CIRCLE('',#1264,2.55000000000001);
#510=CIRCLE('',#1267,2.55);
#511=CIRCLE('',#1268,2.55);
#512=CIRCLE('',#1271,2.55);
#513=CIRCLE('',#1272,2.55);
#514=CIRCLE('',#1275,2.55000000000001);
#515=CIRCLE('',#1276,2.55000000000001);
#516=VERTEX_POINT('',#1668);
#517=VERTEX_POINT('',#1670);
#518=VERTEX_POINT('',#1675);
#519=VERTEX_POINT('',#1676);
#520=VERTEX_POINT('',#1678);
#521=VERTEX_POINT('',#1680);
#522=VERTEX_POINT('',#1686);
#523=VERTEX_POINT('',#1688);
#524=VERTEX_POINT('',#1693);
#525=VERTEX_POINT('',#1695);
#526=VERTEX_POINT('',#1700);
#527=VERTEX_POINT('',#1702);
#528=VERTEX_POINT('',#1707);
#529=VERTEX_POINT('',#1709);
#530=VERTEX_POINT('',#1714);
#531=VERTEX_POINT('',#1716);
#532=VERTEX_POINT('',#1721);
#533=VERTEX_POINT('',#1723);
#534=VERTEX_POINT('',#1728);
#535=VERTEX_POINT('',#1730);
#536=VERTEX_POINT('',#1735);
#537=VERTEX_POINT('',#1737);
#538=VERTEX_POINT('',#1742);
#539=VERTEX_POINT('',#1744);
#540=VERTEX_POINT('',#1749);
#541=VERTEX_POINT('',#1750);
#542=VERTEX_POINT('',#1752);
#543=VERTEX_POINT('',#1754);
#544=VERTEX_POINT('',#1760);
#545=VERTEX_POINT('',#1762);
#546=VERTEX_POINT('',#1765);
#547=VERTEX_POINT('',#1767);
#548=VERTEX_POINT('',#1769);
#549=VERTEX_POINT('',#1771);
#550=VERTEX_POINT('',#1774);
#551=VERTEX_POINT('',#1775);
#552=VERTEX_POINT('',#1777);
#553=VERTEX_POINT('',#1779);
#554=VERTEX_POINT('',#1781);
#555=VERTEX_POINT('',#1783);
#556=VERTEX_POINT('',#1787);
#557=VERTEX_POINT('',#1789);
#558=VERTEX_POINT('',#1794);
#559=VERTEX_POINT('',#1796);
#560=VERTEX_POINT('',#1801);
#561=VERTEX_POINT('',#1803);
#562=VERTEX_POINT('',#1808);
#563=VERTEX_POINT('',#1810);
#564=VERTEX_POINT('',#1815);
#565=VERTEX_POINT('',#1817);
#566=VERTEX_POINT('',#1822);
#567=VERTEX_POINT('',#1824);
#568=VERTEX_POINT('',#1829);
#569=VERTEX_POINT('',#1831);
#570=VERTEX_POINT('',#1836);
#571=VERTEX_POINT('',#1838);
#572=VERTEX_POINT('',#1843);
#573=VERTEX_POINT('',#1845);
#574=VERTEX_POINT('',#1850);
#575=VERTEX_POINT('',#1852);
#576=VERTEX_POINT('',#1857);
#577=VERTEX_POINT('',#1859);
#578=VERTEX_POINT('',#1864);
#579=VERTEX_POINT('',#1866);
#580=VERTEX_POINT('',#1871);
#581=VERTEX_POINT('',#1873);
#582=VERTEX_POINT('',#1878);
#583=VERTEX_POINT('',#1880);
#584=VERTEX_POINT('',#1885);
#585=VERTEX_POINT('',#1887);
#586=VERTEX_POINT('',#1892);
#587=VERTEX_POINT('',#1894);
#588=VERTEX_POINT('',#1899);
#589=VERTEX_POINT('',#1901);
#590=VERTEX_POINT('',#1905);
#591=VERTEX_POINT('',#1909);
#592=VERTEX_POINT('',#1913);
#593=VERTEX_POINT('',#1917);
#594=VERTEX_POINT('',#1923);
#595=VERTEX_POINT('',#1924);
#596=VERTEX_POINT('',#1926);
#597=VERTEX_POINT('',#1928);
#598=VERTEX_POINT('',#1930);
#599=VERTEX_POINT('',#1932);
#600=VERTEX_POINT('',#1936);
#601=VERTEX_POINT('',#1937);
#602=VERTEX_POINT('',#1942);
#603=VERTEX_POINT('',#1946);
#604=VERTEX_POINT('',#1950);
#605=VERTEX_POINT('',#1954);
#606=VERTEX_POINT('',#1960);
#607=VERTEX_POINT('',#1962);
#608=VERTEX_POINT('',#1966);
#609=VERTEX_POINT('',#1970);
#610=VERTEX_POINT('',#1974);
#611=VERTEX_POINT('',#1978);
#612=EDGE_CURVE('',#516,#516,#460,.T.);
#613=EDGE_CURVE('',#516,#517,#284,.T.);
#614=EDGE_CURVE('',#517,#517,#461,.T.);
#615=EDGE_CURVE('',#518,#519,#285,.T.);
#616=EDGE_CURVE('',#518,#520,#462,.T.);
#617=EDGE_CURVE('',#521,#520,#286,.T.);
#618=EDGE_CURVE('',#519,#521,#463,.T.);
#619=EDGE_CURVE('',#520,#518,#287,.T.);
#620=EDGE_CURVE('',#522,#522,#464,.T.);
#621=EDGE_CURVE('',#522,#523,#288,.T.);
#622=EDGE_CURVE('',#523,#523,#465,.T.);
#623=EDGE_CURVE('',#524,#524,#466,.T.);
#624=EDGE_CURVE('',#524,#525,#289,.T.);
#625=EDGE_CURVE('',#525,#525,#467,.T.);
#626=EDGE_CURVE('',#526,#526,#468,.T.);
#627=EDGE_CURVE('',#526,#527,#290,.T.);
#628=EDGE_CURVE('',#527,#527,#469,.T.);
#629=EDGE_CURVE('',#528,#528,#470,.T.);
#630=EDGE_CURVE('',#528,#529,#291,.T.);
#631=EDGE_CURVE('',#529,#529,#471,.T.);
#632=EDGE_CURVE('',#530,#530,#472,.T.);
#633=EDGE_CURVE('',#530,#531,#292,.T.);
#634=EDGE_CURVE('',#531,#531,#473,.T.);
#635=EDGE_CURVE('',#532,#532,#474,.T.);
#636=EDGE_CURVE('',#532,#533,#293,.T.);
#637=EDGE_CURVE('',#533,#533,#475,.T.);
#638=EDGE_CURVE('',#534,#534,#476,.T.);
#639=EDGE_CURVE('',#534,#535,#294,.T.);
#640=EDGE_CURVE('',#535,#535,#477,.T.);
#641=EDGE_CURVE('',#536,#536,#478,.T.);
#642=EDGE_CURVE('',#536,#537,#295,.T.);
#643=EDGE_CURVE('',#537,#537,#479,.T.);
#644=EDGE_CURVE('',#538,#538,#480,.T.);
#645=EDGE_CURVE('',#538,#539,#296,.T.);
#646=EDGE_CURVE('',#539,#539,#481,.T.);
#647=EDGE_CURVE('',#540,#541,#297,.T.);
#648=EDGE_CURVE('',#540,#542,#482,.T.);
#649=EDGE_CURVE('',#543,#542,#298,.T.);
#650=EDGE_CURVE('',#541,#543,#483,.T.);
#651=EDGE_CURVE('',#542,#540,#299,.T.);
#652=EDGE_CURVE('',#521,#544,#300,.T.);
#653=EDGE_CURVE('',#544,#545,#301,.T.);
#654=EDGE_CURVE('',#545,#541,#302,.T.);
#655=EDGE_CURVE('',#543,#546,#303,.T.);
#656=EDGE_CURVE('',#546,#547,#304,.T.);
#657=EDGE_CURVE('',#547,#548,#305,.T.);
#658=EDGE_CURVE('',#548,#549,#306,.T.);
#659=EDGE_CURVE('',#549,#519,#307,.T.);
#660=EDGE_CURVE('',#550,#551,#308,.T.);
#661=EDGE_CURVE('',#552,#550,#309,.T.);
#662=EDGE_CURVE('',#553,#552,#310,.T.);
#663=EDGE_CURVE('',#554,#553,#311,.T.);
#664=EDGE_CURVE('',#555,#554,#312,.T.);
#665=EDGE_CURVE('',#551,#555,#313,.T.);
#666=EDGE_CURVE('',#556,#556,#484,.T.);
#667=EDGE_CURVE('',#556,#557,#314,.T.);
#668=EDGE_CURVE('',#557,#557,#485,.T.);
#669=EDGE_CURVE('',#558,#558,#486,.T.);
#670=EDGE_CURVE('',#558,#559,#315,.T.);
#671=EDGE_CURVE('',#559,#559,#487,.T.);
#672=EDGE_CURVE('',#560,#560,#488,.T.);
#673=EDGE_CURVE('',#560,#561,#316,.T.);
#674=EDGE_CURVE('',#561,#561,#489,.T.);
#675=EDGE_CURVE('',#562,#562,#490,.T.);
#676=EDGE_CURVE('',#562,#563,#317,.T.);
#677=EDGE_CURVE('',#563,#563,#491,.T.);
#678=EDGE_CURVE('',#564,#564,#492,.T.);
#679=EDGE_CURVE('',#564,#565,#318,.T.);
#680=EDGE_CURVE('',#565,#565,#493,.T.);
#681=EDGE_CURVE('',#566,#566,#494,.T.);
#682=EDGE_CURVE('',#566,#567,#319,.T.);
#683=EDGE_CURVE('',#567,#567,#495,.T.);
#684=EDGE_CURVE('',#568,#568,#496,.T.);
#685=EDGE_CURVE('',#568,#569,#320,.T.);
#686=EDGE_CURVE('',#569,#569,#497,.T.);
#687=EDGE_CURVE('',#570,#570,#498,.T.);
#688=EDGE_CURVE('',#570,#571,#321,.T.);
#689=EDGE_CURVE('',#571,#571,#499,.T.);
#690=EDGE_CURVE('',#572,#572,#500,.T.);
#691=EDGE_CURVE('',#572,#573,#322,.T.);
#692=EDGE_CURVE('',#573,#573,#501,.T.);
#693=EDGE_CURVE('',#574,#574,#502,.T.);
#694=EDGE_CURVE('',#574,#575,#323,.T.);
#695=EDGE_CURVE('',#575,#575,#503,.T.);
#696=EDGE_CURVE('',#576,#576,#504,.T.);
#697=EDGE_CURVE('',#576,#577,#324,.T.);
#698=EDGE_CURVE('',#577,#577,#505,.T.);
#699=EDGE_CURVE('',#578,#578,#506,.T.);
#700=EDGE_CURVE('',#578,#579,#325,.T.);
#701=EDGE_CURVE('',#579,#579,#507,.T.);
#702=EDGE_CURVE('',#580,#580,#508,.T.);
#703=EDGE_CURVE('',#580,#581,#326,.T.);
#704=EDGE_CURVE('',#581,#581,#509,.T.);
#705=EDGE_CURVE('',#582,#582,#510,.T.);
#706=EDGE_CURVE('',#582,#583,#327,.T.);
#707=EDGE_CURVE('',#583,#583,#511,.T.);
#708=EDGE_CURVE('',#584,#584,#512,.T.);
#709=EDGE_CURVE('',#584,#585,#328,.T.);
#710=EDGE_CURVE('',#585,#585,#513,.T.);
#711=EDGE_CURVE('',#586,#586,#514,.T.);
#712=EDGE_CURVE('',#586,#587,#329,.T.);
#713=EDGE_CURVE('',#587,#587,#515,.T.);
#714=EDGE_CURVE('',#546,#588,#330,.T.);
#715=EDGE_CURVE('',#589,#588,#331,.T.);
#716=EDGE_CURVE('',#547,#589,#332,.T.);
#717=EDGE_CURVE('',#590,#589,#333,.T.);
#718=EDGE_CURVE('',#548,#590,#334,.T.);
#719=EDGE_CURVE('',#591,#590,#335,.T.);
#720=EDGE_CURVE('',#549,#591,#336,.T.);
#721=EDGE_CURVE('',#592,#591,#337,.T.);
#722=EDGE_CURVE('',#544,#592,#338,.T.);
#723=EDGE_CURVE('',#593,#592,#339,.T.);
#724=EDGE_CURVE('',#545,#593,#340,.T.);
#725=EDGE_CURVE('',#588,#593,#341,.T.);
#726=EDGE_CURVE('',#594,#595,#342,.T.);
#727=EDGE_CURVE('',#595,#596,#343,.T.);
#728=EDGE_CURVE('',#596,#597,#344,.T.);
#729=EDGE_CURVE('',#597,#598,#345,.T.);
#730=EDGE_CURVE('',#598,#599,#346,.T.);
#731=EDGE_CURVE('',#599,#594,#347,.T.);
#732=EDGE_CURVE('',#600,#601,#348,.T.);
#733=EDGE_CURVE('',#600,#595,#349,.T.);
#734=EDGE_CURVE('',#601,#594,#350,.T.);
#735=EDGE_CURVE('',#602,#600,#351,.T.);
#736=EDGE_CURVE('',#602,#596,#352,.T.);
#737=EDGE_CURVE('',#603,#602,#353,.T.);
#738=EDGE_CURVE('',#603,#597,#354,.T.);
#739=EDGE_CURVE('',#604,#603,#355,.T.);
#740=EDGE_CURVE('',#604,#598,#356,.T.);
#741=EDGE_CURVE('',#605,#604,#357,.T.);
#742=EDGE_CURVE('',#605,#599,#358,.T.);
#743=EDGE_CURVE('',#601,#605,#359,.T.);
#744=EDGE_CURVE('',#551,#606,#360,.F.);
#745=EDGE_CURVE('',#607,#606,#361,.F.);
#746=EDGE_CURVE('',#550,#607,#362,.F.);
#747=EDGE_CURVE('',#608,#607,#363,.F.);
#748=EDGE_CURVE('',#552,#608,#364,.T.);
#749=EDGE_CURVE('',#609,#608,#365,.F.);
#750=EDGE_CURVE('',#553,#609,#366,.T.);
#751=EDGE_CURVE('',#610,#609,#367,.F.);
#752=EDGE_CURVE('',#554,#610,#368,.F.);
#753=EDGE_CURVE('',#611,#610,#369,.F.);
#754=EDGE_CURVE('',#555,#611,#370,.F.);
#755=EDGE_CURVE('',#606,#611,#371,.F.);
#756=ORIENTED_EDGE('',*,*,#612,.F.);
#757=ORIENTED_EDGE('',*,*,#613,.T.);
#758=ORIENTED_EDGE('',*,*,#614,.T.);
#759=ORIENTED_EDGE('',*,*,#613,.F.);
#760=ORIENTED_EDGE('',*,*,#614,.F.);
#761=ORIENTED_EDGE('',*,*,#615,.F.);
#762=ORIENTED_EDGE('',*,*,#616,.T.);
#763=ORIENTED_EDGE('',*,*,#617,.F.);
#764=ORIENTED_EDGE('',*,*,#618,.F.);
#765=ORIENTED_EDGE('',*,*,#619,.F.);
#766=ORIENTED_EDGE('',*,*,#616,.F.);
#767=ORIENTED_EDGE('',*,*,#620,.F.);
#768=ORIENTED_EDGE('',*,*,#621,.T.);
#769=ORIENTED_EDGE('',*,*,#622,.T.);
#770=ORIENTED_EDGE('',*,*,#621,.F.);
#771=ORIENTED_EDGE('',*,*,#622,.F.);
#772=ORIENTED_EDGE('',*,*,#623,.F.);
#773=ORIENTED_EDGE('',*,*,#624,.T.);
#774=ORIENTED_EDGE('',*,*,#625,.T.);
#775=ORIENTED_EDGE('',*,*,#624,.F.);
#776=ORIENTED_EDGE('',*,*,#625,.F.);
#777=ORIENTED_EDGE('',*,*,#626,.F.);
#778=ORIENTED_EDGE('',*,*,#627,.T.);
#779=ORIENTED_EDGE('',*,*,#628,.T.);
#780=ORIENTED_EDGE('',*,*,#627,.F.);
#781=ORIENTED_EDGE('',*,*,#628,.F.);
#782=ORIENTED_EDGE('',*,*,#629,.F.);
#783=ORIENTED_EDGE('',*,*,#630,.T.);
#784=ORIENTED_EDGE('',*,*,#631,.T.);
#785=ORIENTED_EDGE('',*,*,#630,.F.);
#786=ORIENTED_EDGE('',*,*,#631,.F.);
#787=ORIENTED_EDGE('',*,*,#632,.F.);
#788=ORIENTED_EDGE('',*,*,#633,.T.);
#789=ORIENTED_EDGE('',*,*,#634,.T.);
#790=ORIENTED_EDGE('',*,*,#633,.F.);
#791=ORIENTED_EDGE('',*,*,#634,.F.);
#792=ORIENTED_EDGE('',*,*,#635,.F.);
#793=ORIENTED_EDGE('',*,*,#636,.T.);
#794=ORIENTED_EDGE('',*,*,#637,.T.);
#795=ORIENTED_EDGE('',*,*,#636,.F.);
#796=ORIENTED_EDGE('',*,*,#637,.F.);
#797=ORIENTED_EDGE('',*,*,#638,.F.);
#798=ORIENTED_EDGE('',*,*,#639,.T.);
#799=ORIENTED_EDGE('',*,*,#640,.T.);
#800=ORIENTED_EDGE('',*,*,#639,.F.);
#801=ORIENTED_EDGE('',*,*,#640,.F.);
#802=ORIENTED_EDGE('',*,*,#641,.F.);
#803=ORIENTED_EDGE('',*,*,#642,.T.);
#804=ORIENTED_EDGE('',*,*,#643,.T.);
#805=ORIENTED_EDGE('',*,*,#642,.F.);
#806=ORIENTED_EDGE('',*,*,#643,.F.);
#807=ORIENTED_EDGE('',*,*,#644,.F.);
#808=ORIENTED_EDGE('',*,*,#645,.T.);
#809=ORIENTED_EDGE('',*,*,#646,.T.);
#810=ORIENTED_EDGE('',*,*,#645,.F.);
#811=ORIENTED_EDGE('',*,*,#646,.F.);
#812=ORIENTED_EDGE('',*,*,#647,.F.);
#813=ORIENTED_EDGE('',*,*,#648,.T.);
#814=ORIENTED_EDGE('',*,*,#649,.F.);
#815=ORIENTED_EDGE('',*,*,#650,.F.);
#816=ORIENTED_EDGE('',*,*,#651,.F.);
#817=ORIENTED_EDGE('',*,*,#648,.F.);
#818=ORIENTED_EDGE('',*,*,#618,.T.);
#819=ORIENTED_EDGE('',*,*,#652,.T.);
#820=ORIENTED_EDGE('',*,*,#653,.T.);
#821=ORIENTED_EDGE('',*,*,#654,.T.);
#822=ORIENTED_EDGE('',*,*,#650,.T.);
#823=ORIENTED_EDGE('',*,*,#655,.T.);
#824=ORIENTED_EDGE('',*,*,#656,.T.);
#825=ORIENTED_EDGE('',*,*,#657,.T.);
#826=ORIENTED_EDGE('',*,*,#658,.T.);
#827=ORIENTED_EDGE('',*,*,#659,.T.);
#828=ORIENTED_EDGE('',*,*,#660,.F.);
#829=ORIENTED_EDGE('',*,*,#661,.F.);
#830=ORIENTED_EDGE('',*,*,#662,.F.);
#831=ORIENTED_EDGE('',*,*,#663,.F.);
#832=ORIENTED_EDGE('',*,*,#664,.F.);
#833=ORIENTED_EDGE('',*,*,#665,.F.);
#834=ORIENTED_EDGE('',*,*,#644,.T.);
#835=ORIENTED_EDGE('',*,*,#641,.T.);
#836=ORIENTED_EDGE('',*,*,#638,.T.);
#837=ORIENTED_EDGE('',*,*,#635,.T.);
#838=ORIENTED_EDGE('',*,*,#632,.T.);
#839=ORIENTED_EDGE('',*,*,#629,.T.);
#840=ORIENTED_EDGE('',*,*,#626,.T.);
#841=ORIENTED_EDGE('',*,*,#623,.T.);
#842=ORIENTED_EDGE('',*,*,#620,.T.);
#843=ORIENTED_EDGE('',*,*,#612,.T.);
#844=ORIENTED_EDGE('',*,*,#666,.F.);
#845=ORIENTED_EDGE('',*,*,#667,.T.);
#846=ORIENTED_EDGE('',*,*,#668,.T.);
#847=ORIENTED_EDGE('',*,*,#667,.F.);
#848=ORIENTED_EDGE('',*,*,#668,.F.);
#849=ORIENTED_EDGE('',*,*,#669,.F.);
#850=ORIENTED_EDGE('',*,*,#670,.T.);
#851=ORIENTED_EDGE('',*,*,#671,.T.);
#852=ORIENTED_EDGE('',*,*,#670,.F.);
#853=ORIENTED_EDGE('',*,*,#671,.F.);
#854=ORIENTED_EDGE('',*,*,#672,.F.);
#855=ORIENTED_EDGE('',*,*,#673,.T.);
#856=ORIENTED_EDGE('',*,*,#674,.T.);
#857=ORIENTED_EDGE('',*,*,#673,.F.);
#858=ORIENTED_EDGE('',*,*,#674,.F.);
#859=ORIENTED_EDGE('',*,*,#675,.F.);
#860=ORIENTED_EDGE('',*,*,#676,.T.);
#861=ORIENTED_EDGE('',*,*,#677,.T.);
#862=ORIENTED_EDGE('',*,*,#676,.F.);
#863=ORIENTED_EDGE('',*,*,#677,.F.);
#864=ORIENTED_EDGE('',*,*,#678,.F.);
#865=ORIENTED_EDGE('',*,*,#679,.T.);
#866=ORIENTED_EDGE('',*,*,#680,.T.);
#867=ORIENTED_EDGE('',*,*,#679,.F.);
#868=ORIENTED_EDGE('',*,*,#680,.F.);
#869=ORIENTED_EDGE('',*,*,#681,.F.);
#870=ORIENTED_EDGE('',*,*,#682,.T.);
#871=ORIENTED_EDGE('',*,*,#683,.T.);
#872=ORIENTED_EDGE('',*,*,#682,.F.);
#873=ORIENTED_EDGE('',*,*,#683,.F.);
#874=ORIENTED_EDGE('',*,*,#684,.F.);
#875=ORIENTED_EDGE('',*,*,#685,.T.);
#876=ORIENTED_EDGE('',*,*,#686,.T.);
#877=ORIENTED_EDGE('',*,*,#685,.F.);
#878=ORIENTED_EDGE('',*,*,#686,.F.);
#879=ORIENTED_EDGE('',*,*,#687,.F.);
#880=ORIENTED_EDGE('',*,*,#688,.T.);
#881=ORIENTED_EDGE('',*,*,#689,.T.);
#882=ORIENTED_EDGE('',*,*,#688,.F.);
#883=ORIENTED_EDGE('',*,*,#689,.F.);
#884=ORIENTED_EDGE('',*,*,#690,.F.);
#885=ORIENTED_EDGE('',*,*,#691,.T.);
#886=ORIENTED_EDGE('',*,*,#692,.T.);
#887=ORIENTED_EDGE('',*,*,#691,.F.);
#888=ORIENTED_EDGE('',*,*,#692,.F.);
#889=ORIENTED_EDGE('',*,*,#693,.F.);
#890=ORIENTED_EDGE('',*,*,#694,.T.);
#891=ORIENTED_EDGE('',*,*,#695,.T.);
#892=ORIENTED_EDGE('',*,*,#694,.F.);
#893=ORIENTED_EDGE('',*,*,#695,.F.);
#894=ORIENTED_EDGE('',*,*,#696,.F.);
#895=ORIENTED_EDGE('',*,*,#697,.T.);
#896=ORIENTED_EDGE('',*,*,#698,.T.);
#897=ORIENTED_EDGE('',*,*,#697,.F.);
#898=ORIENTED_EDGE('',*,*,#698,.F.);
#899=ORIENTED_EDGE('',*,*,#699,.F.);
#900=ORIENTED_EDGE('',*,*,#700,.T.);
#901=ORIENTED_EDGE('',*,*,#701,.T.);
#902=ORIENTED_EDGE('',*,*,#700,.F.);
#903=ORIENTED_EDGE('',*,*,#701,.F.);
#904=ORIENTED_EDGE('',*,*,#702,.F.);
#905=ORIENTED_EDGE('',*,*,#703,.T.);
#906=ORIENTED_EDGE('',*,*,#704,.T.);
#907=ORIENTED_EDGE('',*,*,#703,.F.);
#908=ORIENTED_EDGE('',*,*,#704,.F.);
#909=ORIENTED_EDGE('',*,*,#705,.F.);
#910=ORIENTED_EDGE('',*,*,#706,.T.);
#911=ORIENTED_EDGE('',*,*,#707,.T.);
#912=ORIENTED_EDGE('',*,*,#706,.F.);
#913=ORIENTED_EDGE('',*,*,#707,.F.);
#914=ORIENTED_EDGE('',*,*,#708,.F.);
#915=ORIENTED_EDGE('',*,*,#709,.T.);
#916=ORIENTED_EDGE('',*,*,#710,.T.);
#917=ORIENTED_EDGE('',*,*,#709,.F.);
#918=ORIENTED_EDGE('',*,*,#710,.F.);
#919=ORIENTED_EDGE('',*,*,#711,.F.);
#920=ORIENTED_EDGE('',*,*,#712,.T.);
#921=ORIENTED_EDGE('',*,*,#713,.T.);
#922=ORIENTED_EDGE('',*,*,#712,.F.);
#923=ORIENTED_EDGE('',*,*,#713,.F.);
#924=ORIENTED_EDGE('',*,*,#656,.F.);
#925=ORIENTED_EDGE('',*,*,#714,.T.);
#926=ORIENTED_EDGE('',*,*,#715,.F.);
#927=ORIENTED_EDGE('',*,*,#716,.F.);
#928=ORIENTED_EDGE('',*,*,#657,.F.);
#929=ORIENTED_EDGE('',*,*,#716,.T.);
#930=ORIENTED_EDGE('',*,*,#717,.F.);
#931=ORIENTED_EDGE('',*,*,#718,.F.);
#932=ORIENTED_EDGE('',*,*,#658,.F.);
#933=ORIENTED_EDGE('',*,*,#718,.T.);
#934=ORIENTED_EDGE('',*,*,#719,.F.);
#935=ORIENTED_EDGE('',*,*,#720,.F.);
#936=ORIENTED_EDGE('',*,*,#615,.T.);
#937=ORIENTED_EDGE('',*,*,#659,.F.);
#938=ORIENTED_EDGE('',*,*,#720,.T.);
#939=ORIENTED_EDGE('',*,*,#721,.F.);
#940=ORIENTED_EDGE('',*,*,#722,.F.);
#941=ORIENTED_EDGE('',*,*,#652,.F.);
#942=ORIENTED_EDGE('',*,*,#617,.T.);
#943=ORIENTED_EDGE('',*,*,#619,.T.);
#944=ORIENTED_EDGE('',*,*,#653,.F.);
#945=ORIENTED_EDGE('',*,*,#722,.T.);
#946=ORIENTED_EDGE('',*,*,#723,.F.);
#947=ORIENTED_EDGE('',*,*,#724,.F.);
#948=ORIENTED_EDGE('',*,*,#647,.T.);
#949=ORIENTED_EDGE('',*,*,#654,.F.);
#950=ORIENTED_EDGE('',*,*,#724,.T.);
#951=ORIENTED_EDGE('',*,*,#725,.F.);
#952=ORIENTED_EDGE('',*,*,#714,.F.);
#953=ORIENTED_EDGE('',*,*,#655,.F.);
#954=ORIENTED_EDGE('',*,*,#649,.T.);
#955=ORIENTED_EDGE('',*,*,#651,.T.);
#956=ORIENTED_EDGE('',*,*,#725,.T.);
#957=ORIENTED_EDGE('',*,*,#723,.T.);
#958=ORIENTED_EDGE('',*,*,#721,.T.);
#959=ORIENTED_EDGE('',*,*,#719,.T.);
#960=ORIENTED_EDGE('',*,*,#717,.T.);
#961=ORIENTED_EDGE('',*,*,#715,.T.);
#962=ORIENTED_EDGE('',*,*,#666,.T.);
#963=ORIENTED_EDGE('',*,*,#669,.T.);
#964=ORIENTED_EDGE('',*,*,#672,.T.);
#965=ORIENTED_EDGE('',*,*,#675,.T.);
#966=ORIENTED_EDGE('',*,*,#678,.T.);
#967=ORIENTED_EDGE('',*,*,#681,.T.);
#968=ORIENTED_EDGE('',*,*,#684,.T.);
#969=ORIENTED_EDGE('',*,*,#687,.T.);
#970=ORIENTED_EDGE('',*,*,#690,.T.);
#971=ORIENTED_EDGE('',*,*,#693,.T.);
#972=ORIENTED_EDGE('',*,*,#696,.T.);
#973=ORIENTED_EDGE('',*,*,#699,.T.);
#974=ORIENTED_EDGE('',*,*,#702,.T.);
#975=ORIENTED_EDGE('',*,*,#705,.T.);
#976=ORIENTED_EDGE('',*,*,#708,.T.);
#977=ORIENTED_EDGE('',*,*,#711,.T.);
#978=ORIENTED_EDGE('',*,*,#726,.T.);
#979=ORIENTED_EDGE('',*,*,#727,.T.);
#980=ORIENTED_EDGE('',*,*,#728,.T.);
#981=ORIENTED_EDGE('',*,*,#729,.T.);
#982=ORIENTED_EDGE('',*,*,#730,.T.);
#983=ORIENTED_EDGE('',*,*,#731,.T.);
#984=ORIENTED_EDGE('',*,*,#732,.F.);
#985=ORIENTED_EDGE('',*,*,#733,.T.);
#986=ORIENTED_EDGE('',*,*,#726,.F.);
#987=ORIENTED_EDGE('',*,*,#734,.F.);
#988=ORIENTED_EDGE('',*,*,#735,.F.);
#989=ORIENTED_EDGE('',*,*,#736,.T.);
#990=ORIENTED_EDGE('',*,*,#727,.F.);
#991=ORIENTED_EDGE('',*,*,#733,.F.);
#992=ORIENTED_EDGE('',*,*,#737,.F.);
#993=ORIENTED_EDGE('',*,*,#738,.T.);
#994=ORIENTED_EDGE('',*,*,#728,.F.);
#995=ORIENTED_EDGE('',*,*,#736,.F.);
#996=ORIENTED_EDGE('',*,*,#739,.F.);
#997=ORIENTED_EDGE('',*,*,#740,.T.);
#998=ORIENTED_EDGE('',*,*,#729,.F.);
#999=ORIENTED_EDGE('',*,*,#738,.F.);
#1000=ORIENTED_EDGE('',*,*,#741,.F.);
#1001=ORIENTED_EDGE('',*,*,#742,.T.);
#1002=ORIENTED_EDGE('',*,*,#730,.F.);
#1003=ORIENTED_EDGE('',*,*,#740,.F.);
#1004=ORIENTED_EDGE('',*,*,#743,.F.);
#1005=ORIENTED_EDGE('',*,*,#734,.T.);
#1006=ORIENTED_EDGE('',*,*,#731,.F.);
#1007=ORIENTED_EDGE('',*,*,#742,.F.);
#1008=ORIENTED_EDGE('',*,*,#660,.T.);
#1009=ORIENTED_EDGE('',*,*,#744,.T.);
#1010=ORIENTED_EDGE('',*,*,#745,.F.);
#1011=ORIENTED_EDGE('',*,*,#746,.F.);
#1012=ORIENTED_EDGE('',*,*,#661,.T.);
#1013=ORIENTED_EDGE('',*,*,#746,.T.);
#1014=ORIENTED_EDGE('',*,*,#747,.F.);
#1015=ORIENTED_EDGE('',*,*,#748,.F.);
#1016=ORIENTED_EDGE('',*,*,#662,.T.);
#1017=ORIENTED_EDGE('',*,*,#748,.T.);
#1018=ORIENTED_EDGE('',*,*,#749,.F.);
#1019=ORIENTED_EDGE('',*,*,#750,.F.);
#1020=ORIENTED_EDGE('',*,*,#663,.T.);
#1021=ORIENTED_EDGE('',*,*,#750,.T.);
#1022=ORIENTED_EDGE('',*,*,#751,.F.);
#1023=ORIENTED_EDGE('',*,*,#752,.F.);
#1024=ORIENTED_EDGE('',*,*,#664,.T.);
#1025=ORIENTED_EDGE('',*,*,#752,.T.);
#1026=ORIENTED_EDGE('',*,*,#753,.F.);
#1027=ORIENTED_EDGE('',*,*,#754,.F.);
#1028=ORIENTED_EDGE('',*,*,#665,.T.);
#1029=ORIENTED_EDGE('',*,*,#754,.T.);
#1030=ORIENTED_EDGE('',*,*,#755,.F.);
#1031=ORIENTED_EDGE('',*,*,#744,.F.);
#1032=ORIENTED_EDGE('',*,*,#755,.T.);
#1033=ORIENTED_EDGE('',*,*,#753,.T.);
#1034=ORIENTED_EDGE('',*,*,#751,.T.);
#1035=ORIENTED_EDGE('',*,*,#749,.T.);
#1036=ORIENTED_EDGE('',*,*,#747,.T.);
#1037=ORIENTED_EDGE('',*,*,#745,.T.);
#1038=ORIENTED_EDGE('',*,*,#732,.T.);
#1039=ORIENTED_EDGE('',*,*,#743,.T.);
#1040=ORIENTED_EDGE('',*,*,#741,.T.);
#1041=ORIENTED_EDGE('',*,*,#739,.T.);
#1042=ORIENTED_EDGE('',*,*,#737,.T.);
#1043=ORIENTED_EDGE('',*,*,#735,.T.);
#1044=CYLINDRICAL_SURFACE('',#1165,2.55);
#1045=CYLINDRICAL_SURFACE('',#1169,2.55000000000001);
#1046=CYLINDRICAL_SURFACE('',#1173,2.55);
#1047=CYLINDRICAL_SURFACE('',#1177,2.55000000000001);
#1048=CYLINDRICAL_SURFACE('',#1181,2.55000000000001);
#1049=CYLINDRICAL_SURFACE('',#1185,2.55);
#1050=CYLINDRICAL_SURFACE('',#1189,2.55000000000001);
#1051=CYLINDRICAL_SURFACE('',#1193,2.55000000000001);
#1052=CYLINDRICAL_SURFACE('',#1197,2.55);
#1053=CYLINDRICAL_SURFACE('',#1201,2.55000000000001);
#1054=CYLINDRICAL_SURFACE('',#1205,2.55000000000001);
#1055=CYLINDRICAL_SURFACE('',#1209,2.55);
#1056=CYLINDRICAL_SURFACE('',#1214,2.55000000000001);
#1057=CYLINDRICAL_SURFACE('',#1218,2.55);
#1058=CYLINDRICAL_SURFACE('',#1222,2.55);
#1059=CYLINDRICAL_SURFACE('',#1226,2.55000000000001);
#1060=CYLINDRICAL_SURFACE('',#1230,2.55000000000001);
#1061=CYLINDRICAL_SURFACE('',#1234,2.55);
#1062=CYLINDRICAL_SURFACE('',#1238,2.55);
#1063=CYLINDRICAL_SURFACE('',#1242,2.55000000000001);
#1064=CYLINDRICAL_SURFACE('',#1246,2.55000000000001);
#1065=CYLINDRICAL_SURFACE('',#1250,2.55);
#1066=CYLINDRICAL_SURFACE('',#1254,2.55000000000001);
#1067=CYLINDRICAL_SURFACE('',#1258,2.55000000000001);
#1068=CYLINDRICAL_SURFACE('',#1262,2.55000000000001);
#1069=CYLINDRICAL_SURFACE('',#1266,2.55);
#1070=CYLINDRICAL_SURFACE('',#1270,2.55);
#1071=CYLINDRICAL_SURFACE('',#1274,2.55000000000001);
#1072=ADVANCED_FACE('',(#101),#1044,.F.);
#1073=ADVANCED_FACE('',(#102),#52,.F.);
#1074=ADVANCED_FACE('',(#103),#1045,.F.);
#1075=ADVANCED_FACE('',(#104),#53,.F.);
#1076=ADVANCED_FACE('',(#105),#1046,.F.);
#1077=ADVANCED_FACE('',(#106),#54,.F.);
#1078=ADVANCED_FACE('',(#107),#1047,.F.);
#1079=ADVANCED_FACE('',(#108),#55,.F.);
#1080=ADVANCED_FACE('',(#109),#1048,.F.);
#1081=ADVANCED_FACE('',(#110),#56,.F.);
#1082=ADVANCED_FACE('',(#111),#1049,.F.);
#1083=ADVANCED_FACE('',(#112),#57,.F.);
#1084=ADVANCED_FACE('',(#113),#1050,.F.);
#1085=ADVANCED_FACE('',(#114),#58,.F.);
#1086=ADVANCED_FACE('',(#115),#1051,.F.);
#1087=ADVANCED_FACE('',(#116),#59,.F.);
#1088=ADVANCED_FACE('',(#117),#1052,.F.);
#1089=ADVANCED_FACE('',(#118),#60,.F.);
#1090=ADVANCED_FACE('',(#119),#1053,.F.);
#1091=ADVANCED_FACE('',(#120),#61,.F.);
#1092=ADVANCED_FACE('',(#121),#1054,.F.);
#1093=ADVANCED_FACE('',(#122),#62,.F.);
#1094=ADVANCED_FACE('',(#123),#1055,.F.);
#1095=ADVANCED_FACE('',(#124),#63,.F.);
#1096=ADVANCED_FACE('',(#125,#23,#24,#25,#26,#27,#28,#29,#30,#31,#32,#33),
#64,.F.);
#1097=ADVANCED_FACE('',(#126),#1056,.F.);
#1098=ADVANCED_FACE('',(#127),#65,.T.);
#1099=ADVANCED_FACE('',(#128),#1057,.F.);
#1100=ADVANCED_FACE('',(#129),#66,.T.);
#1101=ADVANCED_FACE('',(#130),#1058,.F.);
#1102=ADVANCED_FACE('',(#131),#67,.T.);
#1103=ADVANCED_FACE('',(#132),#1059,.F.);
#1104=ADVANCED_FACE('',(#133),#68,.T.);
#1105=ADVANCED_FACE('',(#134),#1060,.F.);
#1106=ADVANCED_FACE('',(#135),#69,.T.);
#1107=ADVANCED_FACE('',(#136),#1061,.F.);
#1108=ADVANCED_FACE('',(#137),#70,.T.);
#1109=ADVANCED_FACE('',(#138),#1062,.F.);
#1110=ADVANCED_FACE('',(#139),#71,.T.);
#1111=ADVANCED_FACE('',(#140),#1063,.F.);
#1112=ADVANCED_FACE('',(#141),#72,.T.);
#1113=ADVANCED_FACE('',(#142),#1064,.F.);
#1114=ADVANCED_FACE('',(#143),#73,.T.);
#1115=ADVANCED_FACE('',(#144),#1065,.F.);
#1116=ADVANCED_FACE('',(#145),#74,.T.);
#1117=ADVANCED_FACE('',(#146),#1066,.F.);
#1118=ADVANCED_FACE('',(#147),#75,.T.);
#1119=ADVANCED_FACE('',(#148),#1067,.F.);
#1120=ADVANCED_FACE('',(#149),#76,.T.);
#1121=ADVANCED_FACE('',(#150),#1068,.F.);
#1122=ADVANCED_FACE('',(#151),#77,.T.);
#1123=ADVANCED_FACE('',(#152),#1069,.F.);
#1124=ADVANCED_FACE('',(#153),#78,.T.);
#1125=ADVANCED_FACE('',(#154),#1070,.F.);
#1126=ADVANCED_FACE('',(#155),#79,.T.);
#1127=ADVANCED_FACE('',(#156),#1071,.F.);
#1128=ADVANCED_FACE('',(#157),#80,.T.);
#1129=ADVANCED_FACE('',(#158),#81,.T.);
#1130=ADVANCED_FACE('',(#159),#82,.T.);
#1131=ADVANCED_FACE('',(#160),#83,.T.);
#1132=ADVANCED_FACE('',(#161),#84,.T.);
#1133=ADVANCED_FACE('',(#162),#85,.T.);
#1134=ADVANCED_FACE('',(#163),#86,.T.);
#1135=ADVANCED_FACE('',(#164,#34,#35,#36,#37,#38,#39,#40,#41,#42,#43,#44,
#45,#46,#47,#48,#49,#50),#87,.T.);
#1136=ADVANCED_FACE('',(#165),#88,.F.);
#1137=ADVANCED_FACE('',(#166),#89,.F.);
#1138=ADVANCED_FACE('',(#167),#90,.F.);
#1139=ADVANCED_FACE('',(#168),#91,.F.);
#1140=ADVANCED_FACE('',(#169),#92,.F.);
#1141=ADVANCED_FACE('',(#170),#93,.F.);
#1142=ADVANCED_FACE('',(#171),#94,.T.);
#1143=ADVANCED_FACE('',(#172),#95,.T.);
#1144=ADVANCED_FACE('',(#173),#96,.T.);
#1145=ADVANCED_FACE('',(#174),#97,.T.);
#1146=ADVANCED_FACE('',(#175),#98,.T.);
#1147=ADVANCED_FACE('',(#176),#99,.T.);
#1148=ADVANCED_FACE('',(#177,#51),#100,.T.);
#1149=CLOSED_SHELL('',(#1072,#1073,#1074,#1075,#1076,#1077,#1078,#1079,
#1080,#1081,#1082,#1083,#1084,#1085,#1086,#1087,#1088,#1089,#1090,#1091,
#1092,#1093,#1094,#1095,#1096,#1097,#1098,#1099,#1100,#1101,#1102,#1103,
#1104,#1105,#1106,#1107,#1108,#1109,#1110,#1111,#1112,#1113,#1114,#1115,
#1116,#1117,#1118,#1119,#1120,#1121,#1122,#1123,#1124,#1125,#1126,#1127,
#1128,#1129,#1130,#1131,#1132,#1133,#1134,#1135,#1136,#1137,#1138,#1139,
#1140,#1141,#1142,#1143,#1144,#1145,#1146,#1147,#1148));
#1150=DERIVED_UNIT_ELEMENT(#1152,1.);
#1151=DERIVED_UNIT_ELEMENT(#1995,-3.);
#1152=(
MASS_UNIT()
NAMED_UNIT(*)
SI_UNIT(.KILO.,.GRAM.)
);
#1153=DERIVED_UNIT((#1150,#1151));
#1154=MEASURE_REPRESENTATION_ITEM('density measure',
POSITIVE_RATIO_MEASURE(7850.),#1153);
#1155=PROPERTY_DEFINITION_REPRESENTATION(#1160,#1157);
#1156=PROPERTY_DEFINITION_REPRESENTATION(#1161,#1158);
#1157=REPRESENTATION('material name',(#1159),#1992);
#1158=REPRESENTATION('density',(#1154),#1992);
#1159=DESCRIPTIVE_REPRESENTATION_ITEM('Steel','Steel');
#1160=PROPERTY_DEFINITION('material property','material name',#2012);
#1161=PROPERTY_DEFINITION('material property','density of part',#2012);
#1162=AXIS2_PLACEMENT_3D('',#1664,#1300,#1301);
#1163=AXIS2_PLACEMENT_3D('',#1665,#1302,#1303);
#1164=AXIS2_PLACEMENT_3D('',#1666,#1304,#1305);
#1165=AXIS2_PLACEMENT_3D('',#1667,#1306,#1307);
#1166=AXIS2_PLACEMENT_3D('',#1669,#1308,#1309);
#1167=AXIS2_PLACEMENT_3D('',#1672,#1311,#1312);
#1168=AXIS2_PLACEMENT_3D('',#1673,#1313,#1314);
#1169=AXIS2_PLACEMENT_3D('',#1674,#1315,#1316);
#1170=AXIS2_PLACEMENT_3D('',#1679,#1318,#1319);
#1171=AXIS2_PLACEMENT_3D('',#1682,#1321,#1322);
#1172=AXIS2_PLACEMENT_3D('',#1683,#1323,#1324);
#1173=AXIS2_PLACEMENT_3D('',#1685,#1326,#1327);
#1174=AXIS2_PLACEMENT_3D('',#1687,#1328,#1329);
#1175=AXIS2_PLACEMENT_3D('',#1690,#1331,#1332);
#1176=AXIS2_PLACEMENT_3D('',#1691,#1333,#1334);
#1177=AXIS2_PLACEMENT_3D('',#1692,#1335,#1336);
#1178=AXIS2_PLACEMENT_3D('',#1694,#1337,#1338);
#1179=AXIS2_PLACEMENT_3D('',#1697,#1340,#1341);
#1180=AXIS2_PLACEMENT_3D('',#1698,#1342,#1343);
#1181=AXIS2_PLACEMENT_3D('',#1699,#1344,#1345);
#1182=AXIS2_PLACEMENT_3D('',#1701,#1346,#1347);
#1183=AXIS2_PLACEMENT_3D('',#1704,#1349,#1350);
#1184=AXIS2_PLACEMENT_3D('',#1705,#1351,#1352);
#1185=AXIS2_PLACEMENT_3D('',#1706,#1353,#1354);
#1186=AXIS2_PLACEMENT_3D('',#1708,#1355,#1356);
#1187=AXIS2_PLACEMENT_3D('',#1711,#1358,#1359);
#1188=AXIS2_PLACEMENT_3D('',#1712,#1360,#1361);
#1189=AXIS2_PLACEMENT_3D('',#1713,#1362,#1363);
#1190=AXIS2_PLACEMENT_3D('',#1715,#1364,#1365);
#1191=AXIS2_PLACEMENT_3D('',#1718,#1367,#1368);
#1192=AXIS2_PLACEMENT_3D('',#1719,#1369,#1370);
#1193=AXIS2_PLACEMENT_3D('',#1720,#1371,#1372);
#1194=AXIS2_PLACEMENT_3D('',#1722,#1373,#1374);
#1195=AXIS2_PLACEMENT_3D('',#1725,#1376,#1377);
#1196=AXIS2_PLACEMENT_3D('',#1726,#1378,#1379);
#1197=AXIS2_PLACEMENT_3D('',#1727,#1380,#1381);
#1198=AXIS2_PLACEMENT_3D('',#1729,#1382,#1383);
#1199=AXIS2_PLACEMENT_3D('',#1732,#1385,#1386);
#1200=AXIS2_PLACEMENT_3D('',#1733,#1387,#1388);
#1201=AXIS2_PLACEMENT_3D('',#1734,#1389,#1390);
#1202=AXIS2_PLACEMENT_3D('',#1736,#1391,#1392);
#1203=AXIS2_PLACEMENT_3D('',#1739,#1394,#1395);
#1204=AXIS2_PLACEMENT_3D('',#1740,#1396,#1397);
#1205=AXIS2_PLACEMENT_3D('',#1741,#1398,#1399);
#1206=AXIS2_PLACEMENT_3D('',#1743,#1400,#1401);
#1207=AXIS2_PLACEMENT_3D('',#1746,#1403,#1404);
#1208=AXIS2_PLACEMENT_3D('',#1747,#1405,#1406);
#1209=AXIS2_PLACEMENT_3D('',#1748,#1407,#1408);
#1210=AXIS2_PLACEMENT_3D('',#1753,#1410,#1411);
#1211=AXIS2_PLACEMENT_3D('',#1756,#1413,#1414);
#1212=AXIS2_PLACEMENT_3D('',#1757,#1415,#1416);
#1213=AXIS2_PLACEMENT_3D('',#1759,#1418,#1419);
#1214=AXIS2_PLACEMENT_3D('',#1786,#1434,#1435);
#1215=AXIS2_PLACEMENT_3D('',#1788,#1436,#1437);
#1216=AXIS2_PLACEMENT_3D('',#1791,#1439,#1440);
#1217=AXIS2_PLACEMENT_3D('',#1792,#1441,#1442);
#1218=AXIS2_PLACEMENT_3D('',#1793,#1443,#1444);
#1219=AXIS2_PLACEMENT_3D('',#1795,#1445,#1446);
#1220=AXIS2_PLACEMENT_3D('',#1798,#1448,#1449);
#1221=AXIS2_PLACEMENT_3D('',#1799,#1450,#1451);
#1222=AXIS2_PLACEMENT_3D('',#1800,#1452,#1453);
#1223=AXIS2_PLACEMENT_3D('',#1802,#1454,#1455);
#1224=AXIS2_PLACEMENT_3D('',#1805,#1457,#1458);
#1225=AXIS2_PLACEMENT_3D('',#1806,#1459,#1460);
#1226=AXIS2_PLACEMENT_3D('',#1807,#1461,#1462);
#1227=AXIS2_PLACEMENT_3D('',#1809,#1463,#1464);
#1228=AXIS2_PLACEMENT_3D('',#1812,#1466,#1467);
#1229=AXIS2_PLACEMENT_3D('',#1813,#1468,#1469);
#1230=AXIS2_PLACEMENT_3D('',#1814,#1470,#1471);
#1231=AXIS2_PLACEMENT_3D('',#1816,#1472,#1473);
#1232=AXIS2_PLACEMENT_3D('',#1819,#1475,#1476);
#1233=AXIS2_PLACEMENT_3D('',#1820,#1477,#1478);
#1234=AXIS2_PLACEMENT_3D('',#1821,#1479,#1480);
#1235=AXIS2_PLACEMENT_3D('',#1823,#1481,#1482);
#1236=AXIS2_PLACEMENT_3D('',#1826,#1484,#1485);
#1237=AXIS2_PLACEMENT_3D('',#1827,#1486,#1487);
#1238=AXIS2_PLACEMENT_3D('',#1828,#1488,#1489);
#1239=AXIS2_PLACEMENT_3D('',#1830,#1490,#1491);
#1240=AXIS2_PLACEMENT_3D('',#1833,#1493,#1494);
#1241=AXIS2_PLACEMENT_3D('',#1834,#1495,#1496);
#1242=AXIS2_PLACEMENT_3D('',#1835,#1497,#1498);
#1243=AXIS2_PLACEMENT_3D('',#1837,#1499,#1500);
#1244=AXIS2_PLACEMENT_3D('',#1840,#1502,#1503);
#1245=AXIS2_PLACEMENT_3D('',#1841,#1504,#1505);
#1246=AXIS2_PLACEMENT_3D('',#1842,#1506,#1507);
#1247=AXIS2_PLACEMENT_3D('',#1844,#1508,#1509);
#1248=AXIS2_PLACEMENT_3D('',#1847,#1511,#1512);
#1249=AXIS2_PLACEMENT_3D('',#1848,#1513,#1514);
#1250=AXIS2_PLACEMENT_3D('',#1849,#1515,#1516);
#1251=AXIS2_PLACEMENT_3D('',#1851,#1517,#1518);
#1252=AXIS2_PLACEMENT_3D('',#1854,#1520,#1521);
#1253=AXIS2_PLACEMENT_3D('',#1855,#1522,#1523);
#1254=AXIS2_PLACEMENT_3D('',#1856,#1524,#1525);
#1255=AXIS2_PLACEMENT_3D('',#1858,#1526,#1527);
#1256=AXIS2_PLACEMENT_3D('',#1861,#1529,#1530);
#1257=AXIS2_PLACEMENT_3D('',#1862,#1531,#1532);
#1258=AXIS2_PLACEMENT_3D('',#1863,#1533,#1534);
#1259=AXIS2_PLACEMENT_3D('',#1865,#1535,#1536);
#1260=AXIS2_PLACEMENT_3D('',#1868,#1538,#1539);
#1261=AXIS2_PLACEMENT_3D('',#1869,#1540,#1541);
#1262=AXIS2_PLACEMENT_3D('',#1870,#1542,#1543);
#1263=AXIS2_PLACEMENT_3D('',#1872,#1544,#1545);
#1264=AXIS2_PLACEMENT_3D('',#1875,#1547,#1548);
#1265=AXIS2_PLACEMENT_3D('',#1876,#1549,#1550);
#1266=AXIS2_PLACEMENT_3D('',#1877,#1551,#1552);
#1267=AXIS2_PLACEMENT_3D('',#1879,#1553,#1554);
#1268=AXIS2_PLACEMENT_3D('',#1882,#1556,#1557);
#1269=AXIS2_PLACEMENT_3D('',#1883,#1558,#1559);
#1270=AXIS2_PLACEMENT_3D('',#1884,#1560,#1561);
#1271=AXIS2_PLACEMENT_3D('',#1886,#1562,#1563);
#1272=AXIS2_PLACEMENT_3D('',#1889,#1565,#1566);
#1273=AXIS2_PLACEMENT_3D('',#1890,#1567,#1568);
#1274=AXIS2_PLACEMENT_3D('',#1891,#1569,#1570);
#1275=AXIS2_PLACEMENT_3D('',#1893,#1571,#1572);
#1276=AXIS2_PLACEMENT_3D('',#1896,#1574,#1575);
#1277=AXIS2_PLACEMENT_3D('',#1897,#1576,#1577);
#1278=AXIS2_PLACEMENT_3D('',#1898,#1578,#1579);
#1279=AXIS2_PLACEMENT_3D('',#1904,#1583,#1584);
#1280=AXIS2_PLACEMENT_3D('',#1908,#1587,#1588);
#1281=AXIS2_PLACEMENT_3D('',#1912,#1591,#1592);
#1282=AXIS2_PLACEMENT_3D('',#1916,#1595,#1596);
#1283=AXIS2_PLACEMENT_3D('',#1920,#1599,#1600);
#1284=AXIS2_PLACEMENT_3D('',#1922,#1602,#1603);
#1285=AXIS2_PLACEMENT_3D('',#1935,#1610,#1611);
#1286=AXIS2_PLACEMENT_3D('',#1941,#1615,#1616);
#1287=AXIS2_PLACEMENT_3D('',#1945,#1619,#1620);
#1288=AXIS2_PLACEMENT_3D('',#1949,#1623,#1624);
#1289=AXIS2_PLACEMENT_3D('',#1953,#1627,#1628);
#1290=AXIS2_PLACEMENT_3D('',#1957,#1631,#1632);
#1291=AXIS2_PLACEMENT_3D('',#1959,#1634,#1635);
#1292=AXIS2_PLACEMENT_3D('',#1965,#1639,#1640);
#1293=AXIS2_PLACEMENT_3D('',#1969,#1643,#1644);
#1294=AXIS2_PLACEMENT_3D('',#1973,#1647,#1648);
#1295=AXIS2_PLACEMENT_3D('',#1977,#1651,#1652);
#1296=AXIS2_PLACEMENT_3D('',#1981,#1655,#1656);
#1297=AXIS2_PLACEMENT_3D('',#1983,#1658,#1659);
#1298=AXIS2_PLACEMENT_3D('',#1984,#1660,#1661);
#1299=AXIS2_PLACEMENT_3D('',#1985,#1662,#1663);
#1300=DIRECTION('axis',(0.,0.,1.));
#1301=DIRECTION('refdir',(1.,0.,0.));
#1302=DIRECTION('axis',(0.,0.,1.));
#1303=DIRECTION('refdir',(1.,0.,0.));
#1304=DIRECTION('axis',(0.,0.,1.));
#1305=DIRECTION('refdir',(1.,0.,0.));
#1306=DIRECTION('center_axis',(0.,0.,1.));
#1307=DIRECTION('ref_axis',(-1.,0.,0.));
#1308=DIRECTION('center_axis',(0.,0.,1.));
#1309=DIRECTION('ref_axis',(-1.,0.,0.));
#1310=DIRECTION('',(0.,0.,1.));
#1311=DIRECTION('center_axis',(0.,0.,1.));
#1312=DIRECTION('ref_axis',(-1.,0.,0.));
#1313=DIRECTION('center_axis',(0.,0.,1.));
#1314=DIRECTION('ref_axis',(-1.,0.,0.));
#1315=DIRECTION('center_axis',(0.,0.,1.));
#1316=DIRECTION('ref_axis',(0.866025403784439,-0.5,0.));
#1317=DIRECTION('',(0.,0.,-1.));
#1318=DIRECTION('center_axis',(0.,0.,1.));
#1319=DIRECTION('ref_axis',(-1.,0.,0.));
#1320=DIRECTION('',(0.,0.,1.));
#1321=DIRECTION('center_axis',(0.,0.,1.));
#1322=DIRECTION('ref_axis',(-1.,0.,0.));
#1323=DIRECTION('center_axis',(0.,0.,1.));
#1324=DIRECTION('ref_axis',(-1.,0.,0.));
#1325=DIRECTION('',(-0.5,-0.866025403784439,0.));
#1326=DIRECTION('center_axis',(0.,0.,1.));
#1327=DIRECTION('ref_axis',(-1.,0.,0.));
#1328=DIRECTION('center_axis',(0.,0.,1.));
#1329=DIRECTION('ref_axis',(-1.,0.,0.));
#1330=DIRECTION('',(0.,0.,1.));
#1331=DIRECTION('center_axis',(0.,0.,1.));
#1332=DIRECTION('ref_axis',(-1.,0.,0.));
#1333=DIRECTION('center_axis',(0.,0.,1.));
#1334=DIRECTION('ref_axis',(-1.,0.,0.));
#1335=DIRECTION('center_axis',(0.,0.,1.));
#1336=DIRECTION('ref_axis',(-1.,0.,0.));
#1337=DIRECTION('center_axis',(0.,0.,1.));
#1338=DIRECTION('ref_axis',(-1.,0.,0.));
#1339=DIRECTION('',(0.,0.,1.));
#1340=DIRECTION('center_axis',(0.,0.,1.));
#1341=DIRECTION('ref_axis',(-1.,0.,0.));
#1342=DIRECTION('center_axis',(0.,0.,1.));
#1343=DIRECTION('ref_axis',(-1.,0.,0.));
#1344=DIRECTION('center_axis',(0.,0.,1.));
#1345=DIRECTION('ref_axis',(-1.,0.,0.));
#1346=DIRECTION('center_axis',(0.,0.,1.));
#1347=DIRECTION('ref_axis',(-1.,0.,0.));
#1348=DIRECTION('',(0.,0.,1.));
#1349=DIRECTION('center_axis',(0.,0.,1.));
#1350=DIRECTION('ref_axis',(-1.,0.,0.));
#1351=DIRECTION('center_axis',(0.,0.,1.));
#1352=DIRECTION('ref_axis',(-1.,0.,0.));
#1353=DIRECTION('center_axis',(0.,0.,1.));
#1354=DIRECTION('ref_axis',(-1.,0.,0.));
#1355=DIRECTION('center_axis',(0.,0.,1.));
#1356=DIRECTION('ref_axis',(-1.,0.,0.));
#1357=DIRECTION('',(0.,0.,1.));
#1358=DIRECTION('center_axis',(0.,0.,1.));
#1359=DIRECTION('ref_axis',(-1.,0.,0.));
#1360=DIRECTION('center_axis',(0.,0.,1.));
#1361=DIRECTION('ref_axis',(-1.,0.,0.));
#1362=DIRECTION('center_axis',(0.,0.,1.));
#1363=DIRECTION('ref_axis',(-1.,0.,0.));
#1364=DIRECTION('center_axis',(0.,0.,1.));
#1365=DIRECTION('ref_axis',(-1.,0.,0.));
#1366=DIRECTION('',(0.,0.,1.));
#1367=DIRECTION('center_axis',(0.,0.,1.));
#1368=DIRECTION('ref_axis',(-1.,0.,0.));
#1369=DIRECTION('center_axis',(0.,0.,1.));
#1370=DIRECTION('ref_axis',(-1.,0.,0.));
#1371=DIRECTION('center_axis',(0.,0.,1.));
#1372=DIRECTION('ref_axis',(-1.,0.,0.));
#1373=DIRECTION('center_axis',(0.,0.,1.));
#1374=DIRECTION('ref_axis',(-1.,0.,0.));
#1375=DIRECTION('',(0.,0.,1.));
#1376=DIRECTION('center_axis',(0.,0.,1.));
#1377=DIRECTION('ref_axis',(-1.,0.,0.));
#1378=DIRECTION('center_axis',(0.,0.,1.));
#1379=DIRECTION('ref_axis',(-1.,0.,0.));
#1380=DIRECTION('center_axis',(0.,0.,1.));
#1381=DIRECTION('ref_axis',(-1.,0.,0.));
#1382=DIRECTION('center_axis',(0.,0.,1.));
#1383=DIRECTION('ref_axis',(-1.,0.,0.));
#1384=DIRECTION('',(0.,0.,1.));
#1385=DIRECTION('center_axis',(0.,0.,1.));
#1386=DIRECTION('ref_axis',(-1.,0.,0.));
#1387=DIRECTION('center_axis',(0.,0.,1.));
#1388=DIRECTION('ref_axis',(-1.,0.,0.));
#1389=DIRECTION('center_axis',(0.,0.,1.));
#1390=DIRECTION('ref_axis',(-1.,0.,0.));
#1391=DIRECTION('center_axis',(0.,0.,1.));
#1392=DIRECTION('ref_axis',(-1.,0.,0.));
#1393=DIRECTION('',(0.,0.,1.));
#1394=DIRECTION('center_axis',(0.,0.,1.));
#1395=DIRECTION('ref_axis',(-1.,0.,0.));
#1396=DIRECTION('center_axis',(0.,0.,1.));
#1397=DIRECTION('ref_axis',(-1.,0.,0.));
#1398=DIRECTION('center_axis',(0.,0.,1.));
#1399=DIRECTION('ref_axis',(-1.,0.,0.));
#1400=DIRECTION('center_axis',(0.,0.,1.));
#1401=DIRECTION('ref_axis',(-1.,0.,0.));
#1402=DIRECTION('',(0.,0.,1.));
#1403=DIRECTION('center_axis',(0.,0.,1.));
#1404=DIRECTION('ref_axis',(-1.,0.,0.));
#1405=DIRECTION('center_axis',(0.,0.,1.));
#1406=DIRECTION('ref_axis',(-1.,0.,0.));
#1407=DIRECTION('center_axis',(0.,0.,1.));
#1408=DIRECTION('ref_axis',(-0.866025403784438,-0.5,0.));
#1409=DIRECTION('',(0.,0.,-1.));
#1410=DIRECTION('center_axis',(0.,0.,1.));
#1411=DIRECTION('ref_axis',(-1.,0.,0.));
#1412=DIRECTION('',(0.,0.,1.));
#1413=DIRECTION('center_axis',(0.,0.,1.));
#1414=DIRECTION('ref_axis',(-1.,0.,0.));
#1415=DIRECTION('center_axis',(0.,0.,1.));
#1416=DIRECTION('ref_axis',(-1.,0.,0.));
#1417=DIRECTION('',(-0.5,0.866025403784438,0.));
#1418=DIRECTION('center_axis',(0.,0.,1.));
#1419=DIRECTION('ref_axis',(-1.,0.,0.));
#1420=DIRECTION('',(0.5,0.866025403784439,0.));
#1421=DIRECTION('',(1.,0.,0.));
#1422=DIRECTION('',(0.5,-0.866025403784438,0.));
#1423=DIRECTION('',(0.5,-0.866025403784438,0.));
#1424=DIRECTION('',(-0.5,-0.866025403784439,0.));
#1425=DIRECTION('',(-1.,0.,0.));
#1426=DIRECTION('',(-0.500000000000001,0.866025403784438,0.));
#1427=DIRECTION('',(0.5,0.866025403784439,0.));
#1428=DIRECTION('',(-1.,0.,0.));
#1429=DIRECTION('',(-0.5,-0.866025403784439,0.));
#1430=DIRECTION('',(0.500000000000001,-0.866025403784438,0.));
#1431=DIRECTION('',(1.,0.,0.));
#1432=DIRECTION('',(0.5,0.866025403784439,0.));
#1433=DIRECTION('',(-0.500000000000001,0.866025403784438,0.));
#1434=DIRECTION('center_axis',(0.,0.,-1.));
#1435=DIRECTION('ref_axis',(-1.,0.,0.));
#1436=DIRECTION('center_axis',(0.,0.,-1.));
#1437=DIRECTION('ref_axis',(-1.,0.,0.));
#1438=DIRECTION('',(0.,0.,-1.));
#1439=DIRECTION('center_axis',(0.,0.,-1.));
#1440=DIRECTION('ref_axis',(-1.,0.,0.));
#1441=DIRECTION('center_axis',(0.,0.,1.));
#1442=DIRECTION('ref_axis',(-1.,0.,0.));
#1443=DIRECTION('center_axis',(0.,0.,-1.));
#1444=DIRECTION('ref_axis',(-1.,0.,0.));
#1445=DIRECTION('center_axis',(0.,0.,-1.));
#1446=DIRECTION('ref_axis',(-1.,0.,0.));
#1447=DIRECTION('',(0.,0.,-1.));
#1448=DIRECTION('center_axis',(0.,0.,-1.));
#1449=DIRECTION('ref_axis',(-1.,0.,0.));
#1450=DIRECTION('center_axis',(0.,0.,1.));
#1451=DIRECTION('ref_axis',(-1.,0.,0.));
#1452=DIRECTION('center_axis',(0.,0.,-1.));
#1453=DIRECTION('ref_axis',(-1.,0.,0.));
#1454=DIRECTION('center_axis',(0.,0.,-1.));
#1455=DIRECTION('ref_axis',(-1.,0.,0.));
#1456=DIRECTION('',(0.,0.,-1.));
#1457=DIRECTION('center_axis',(0.,0.,-1.));
#1458=DIRECTION('ref_axis',(-1.,0.,0.));
#1459=DIRECTION('center_axis',(0.,0.,1.));
#1460=DIRECTION('ref_axis',(-1.,0.,0.));
#1461=DIRECTION('center_axis',(0.,0.,-1.));
#1462=DIRECTION('ref_axis',(-1.,0.,0.));
#1463=DIRECTION('center_axis',(0.,0.,-1.));
#1464=DIRECTION('ref_axis',(-1.,0.,0.));
#1465=DIRECTION('',(0.,0.,-1.));
#1466=DIRECTION('center_axis',(0.,0.,-1.));
#1467=DIRECTION('ref_axis',(-1.,0.,0.));
#1468=DIRECTION('center_axis',(0.,0.,1.));
#1469=DIRECTION('ref_axis',(-1.,0.,0.));
#1470=DIRECTION('center_axis',(0.,0.,-1.));
#1471=DIRECTION('ref_axis',(-1.,0.,0.));
#1472=DIRECTION('center_axis',(0.,0.,-1.));
#1473=DIRECTION('ref_axis',(-1.,0.,0.));
#1474=DIRECTION('',(0.,0.,-1.));
#1475=DIRECTION('center_axis',(0.,0.,-1.));
#1476=DIRECTION('ref_axis',(-1.,0.,0.));
#1477=DIRECTION('center_axis',(0.,0.,1.));
#1478=DIRECTION('ref_axis',(-1.,0.,0.));
#1479=DIRECTION('center_axis',(0.,0.,-1.));
#1480=DIRECTION('ref_axis',(-1.,0.,0.));
#1481=DIRECTION('center_axis',(0.,0.,-1.));
#1482=DIRECTION('ref_axis',(-1.,0.,0.));
#1483=DIRECTION('',(0.,0.,-1.));
#1484=DIRECTION('center_axis',(0.,0.,-1.));
#1485=DIRECTION('ref_axis',(-1.,0.,0.));
#1486=DIRECTION('center_axis',(0.,0.,1.));
#1487=DIRECTION('ref_axis',(-1.,0.,0.));
#1488=DIRECTION('center_axis',(0.,0.,-1.));
#1489=DIRECTION('ref_axis',(-1.,0.,0.));
#1490=DIRECTION('center_axis',(0.,0.,-1.));
#1491=DIRECTION('ref_axis',(-1.,0.,0.));
#1492=DIRECTION('',(0.,0.,-1.));
#1493=DIRECTION('center_axis',(0.,0.,-1.));
#1494=DIRECTION('ref_axis',(-1.,0.,0.));
#1495=DIRECTION('center_axis',(0.,0.,1.));
#1496=DIRECTION('ref_axis',(-1.,0.,0.));
#1497=DIRECTION('center_axis',(0.,0.,-1.));
#1498=DIRECTION('ref_axis',(-1.,0.,0.));
#1499=DIRECTION('center_axis',(0.,0.,-1.));
#1500=DIRECTION('ref_axis',(-1.,0.,0.));
#1501=DIRECTION('',(0.,0.,-1.));
#1502=DIRECTION('center_axis',(0.,0.,-1.));
#1503=DIRECTION('ref_axis',(-1.,0.,0.));
#1504=DIRECTION('center_axis',(0.,0.,1.));
#1505=DIRECTION('ref_axis',(-1.,0.,0.));
#1506=DIRECTION('center_axis',(0.,0.,-1.));
#1507=DIRECTION('ref_axis',(-1.,0.,0.));
#1508=DIRECTION('center_axis',(0.,0.,-1.));
#1509=DIRECTION('ref_axis',(-1.,0.,0.));
#1510=DIRECTION('',(0.,0.,-1.));
#1511=DIRECTION('center_axis',(0.,0.,-1.));
#1512=DIRECTION('ref_axis',(-1.,0.,0.));
#1513=DIRECTION('center_axis',(0.,0.,1.));
#1514=DIRECTION('ref_axis',(-1.,0.,0.));
#1515=DIRECTION('center_axis',(0.,0.,-1.));
#1516=DIRECTION('ref_axis',(-1.,0.,0.));
#1517=DIRECTION('center_axis',(0.,0.,-1.));
#1518=DIRECTION('ref_axis',(-1.,0.,0.));
#1519=DIRECTION('',(0.,0.,-1.));
#1520=DIRECTION('center_axis',(0.,0.,-1.));
#1521=DIRECTION('ref_axis',(-1.,0.,0.));
#1522=DIRECTION('center_axis',(0.,0.,1.));
#1523=DIRECTION('ref_axis',(-1.,0.,0.));
#1524=DIRECTION('center_axis',(0.,0.,-1.));
#1525=DIRECTION('ref_axis',(-1.,0.,0.));
#1526=DIRECTION('center_axis',(0.,0.,-1.));
#1527=DIRECTION('ref_axis',(-1.,0.,0.));
#1528=DIRECTION('',(0.,0.,-1.));
#1529=DIRECTION('center_axis',(0.,0.,-1.));
#1530=DIRECTION('ref_axis',(-1.,0.,0.));
#1531=DIRECTION('center_axis',(0.,0.,1.));
#1532=DIRECTION('ref_axis',(-1.,0.,0.));
#1533=DIRECTION('center_axis',(0.,0.,-1.));
#1534=DIRECTION('ref_axis',(-1.,0.,0.));
#1535=DIRECTION('center_axis',(0.,0.,-1.));
#1536=DIRECTION('ref_axis',(-1.,0.,0.));
#1537=DIRECTION('',(0.,0.,-1.));
#1538=DIRECTION('center_axis',(0.,0.,-1.));
#1539=DIRECTION('ref_axis',(-1.,0.,0.));
#1540=DIRECTION('center_axis',(0.,0.,1.));
#1541=DIRECTION('ref_axis',(-1.,0.,0.));
#1542=DIRECTION('center_axis',(0.,0.,-1.));
#1543=DIRECTION('ref_axis',(-1.,0.,0.));
#1544=DIRECTION('center_axis',(0.,0.,-1.));
#1545=DIRECTION('ref_axis',(-1.,0.,0.));
#1546=DIRECTION('',(0.,0.,-1.));
#1547=DIRECTION('center_axis',(0.,0.,-1.));
#1548=DIRECTION('ref_axis',(-1.,0.,0.));
#1549=DIRECTION('center_axis',(0.,0.,1.));
#1550=DIRECTION('ref_axis',(-1.,0.,0.));
#1551=DIRECTION('center_axis',(0.,0.,-1.));
#1552=DIRECTION('ref_axis',(-1.,0.,0.));
#1553=DIRECTION('center_axis',(0.,0.,-1.));
#1554=DIRECTION('ref_axis',(-1.,0.,0.));
#1555=DIRECTION('',(0.,0.,-1.));
#1556=DIRECTION('center_axis',(0.,0.,-1.));
#1557=DIRECTION('ref_axis',(-1.,0.,0.));
#1558=DIRECTION('center_axis',(0.,0.,1.));
#1559=DIRECTION('ref_axis',(-1.,0.,0.));
#1560=DIRECTION('center_axis',(0.,0.,-1.));
#1561=DIRECTION('ref_axis',(-1.,0.,0.));
#1562=DIRECTION('center_axis',(0.,0.,-1.));
#1563=DIRECTION('ref_axis',(-1.,0.,0.));
#1564=DIRECTION('',(0.,0.,-1.));
#1565=DIRECTION('center_axis',(0.,0.,-1.));
#1566=DIRECTION('ref_axis',(-1.,0.,0.));
#1567=DIRECTION('center_axis',(0.,0.,1.));
#1568=DIRECTION('ref_axis',(-1.,0.,0.));
#1569=DIRECTION('center_axis',(0.,0.,-1.));
#1570=DIRECTION('ref_axis',(-1.,0.,0.));
#1571=DIRECTION('center_axis',(0.,0.,-1.));
#1572=DIRECTION('ref_axis',(-1.,0.,0.));
#1573=DIRECTION('',(0.,0.,-1.));
#1574=DIRECTION('center_axis',(0.,0.,-1.));
#1575=DIRECTION('ref_axis',(-1.,0.,0.));
#1576=DIRECTION('center_axis',(0.,0.,1.));
#1577=DIRECTION('ref_axis',(-1.,0.,0.));
#1578=DIRECTION('center_axis',(0.866025403784439,-0.5,0.));
#1579=DIRECTION('ref_axis',(0.5,0.866025403784439,0.));
#1580=DIRECTION('',(0.,0.,1.));
#1581=DIRECTION('',(0.5,0.866025403784439,0.));
#1582=DIRECTION('',(0.,0.,1.));
#1583=DIRECTION('center_axis',(0.,-1.,0.));
#1584=DIRECTION('ref_axis',(1.,0.,0.));
#1585=DIRECTION('',(1.,0.,0.));
#1586=DIRECTION('',(0.,0.,1.));
#1587=DIRECTION('center_axis',(-0.866025403784438,-0.500000000000001,0.));
#1588=DIRECTION('ref_axis',(0.500000000000001,-0.866025403784438,0.));
#1589=DIRECTION('',(0.500000000000001,-0.866025403784438,0.));
#1590=DIRECTION('',(0.,0.,1.));
#1591=DIRECTION('center_axis',(-0.866025403784439,0.5,0.));
#1592=DIRECTION('ref_axis',(-0.5,-0.866025403784439,0.));
#1593=DIRECTION('',(-0.5,-0.866025403784439,0.));
#1594=DIRECTION('',(0.,0.,1.));
#1595=DIRECTION('center_axis',(0.,1.,0.));
#1596=DIRECTION('ref_axis',(-1.,0.,0.));
#1597=DIRECTION('',(-1.,0.,0.));
#1598=DIRECTION('',(0.,0.,1.));
#1599=DIRECTION('center_axis',(0.866025403784438,0.5,0.));
#1600=DIRECTION('ref_axis',(-0.5,0.866025403784438,0.));
#1601=DIRECTION('',(-0.5,0.866025403784438,0.));
#1602=DIRECTION('center_axis',(0.,0.,1.));
#1603=DIRECTION('ref_axis',(1.,0.,0.));
#1604=DIRECTION('',(-0.5,0.866025403784438,0.));
#1605=DIRECTION('',(0.499999999999999,0.866025403784439,0.));
#1606=DIRECTION('',(1.,0.,0.));
#1607=DIRECTION('',(0.500000000000001,-0.866025403784438,0.));
#1608=DIRECTION('',(-0.5,-0.866025403784438,0.));
#1609=DIRECTION('',(-1.,-3.7705150713403E-16,0.));
#1610=DIRECTION('center_axis',(-0.866025403784438,-0.5,0.));
#1611=DIRECTION('ref_axis',(0.5,-0.866025403784438,0.));
#1612=DIRECTION('',(0.5,-0.866025403784438,0.));
#1613=DIRECTION('',(0.,0.,1.));
#1614=DIRECTION('',(0.,0.,1.));
#1615=DIRECTION('center_axis',(-0.866025403784439,0.499999999999999,0.));
#1616=DIRECTION('ref_axis',(-0.499999999999999,-0.866025403784439,0.));
#1617=DIRECTION('',(-0.499999999999999,-0.866025403784439,0.));
#1618=DIRECTION('',(0.,0.,1.));
#1619=DIRECTION('center_axis',(0.,1.,0.));
#1620=DIRECTION('ref_axis',(-1.,0.,0.));
#1621=DIRECTION('',(-1.,0.,0.));
#1622=DIRECTION('',(0.,0.,1.));
#1623=DIRECTION('center_axis',(0.866025403784438,0.500000000000001,0.));
#1624=DIRECTION('ref_axis',(-0.500000000000001,0.866025403784438,0.));
#1625=DIRECTION('',(-0.500000000000001,0.866025403784438,0.));
#1626=DIRECTION('',(0.,0.,1.));
#1627=DIRECTION('center_axis',(0.866025403784438,-0.5,0.));
#1628=DIRECTION('ref_axis',(0.5,0.866025403784438,0.));
#1629=DIRECTION('',(0.5,0.866025403784438,0.));
#1630=DIRECTION('',(0.,0.,1.));
#1631=DIRECTION('center_axis',(3.7705150713403E-16,-1.,0.));
#1632=DIRECTION('ref_axis',(1.,3.7705150713403E-16,0.));
#1633=DIRECTION('',(1.,3.7705150713403E-16,0.));
#1634=DIRECTION('center_axis',(0.,-1.,0.));
#1635=DIRECTION('ref_axis',(-1.,0.,0.));
#1636=DIRECTION('',(0.,0.,1.));
#1637=DIRECTION('',(1.,0.,0.));
#1638=DIRECTION('',(0.,0.,1.));
#1639=DIRECTION('center_axis',(0.866025403784439,-0.5,0.));
#1640=DIRECTION('ref_axis',(-0.5,-0.866025403784439,0.));
#1641=DIRECTION('',(0.5,0.866025403784439,0.));
#1642=DIRECTION('',(0.,0.,-1.));
#1643=DIRECTION('center_axis',(0.866025403784438,0.500000000000001,0.));
#1644=DIRECTION('ref_axis',(0.500000000000001,-0.866025403784438,0.));
#1645=DIRECTION('',(-0.500000000000001,0.866025403784438,0.));
#1646=DIRECTION('',(0.,0.,-1.));
#1647=DIRECTION('center_axis',(0.,1.,0.));
#1648=DIRECTION('ref_axis',(1.,0.,0.));
#1649=DIRECTION('',(-1.,0.,0.));
#1650=DIRECTION('',(0.,0.,1.));
#1651=DIRECTION('center_axis',(-0.866025403784439,0.5,0.));
#1652=DIRECTION('ref_axis',(0.5,0.866025403784439,0.));
#1653=DIRECTION('',(-0.5,-0.866025403784439,0.));
#1654=DIRECTION('',(0.,0.,1.));
#1655=DIRECTION('center_axis',(-0.866025403784438,-0.500000000000001,0.));
#1656=DIRECTION('ref_axis',(-0.500000000000001,0.866025403784438,0.));
#1657=DIRECTION('',(0.500000000000001,-0.866025403784438,0.));
#1658=DIRECTION('center_axis',(0.,0.,-1.));
#1659=DIRECTION('ref_axis',(-1.,0.,0.));
#1660=DIRECTION('',(0.,0.,1.));
#1661=DIRECTION('',(1.,0.,0.));
#1662=DIRECTION('',(0.,0.,1.));
#1663=DIRECTION('',(1.,0.,0.));
#1664=CARTESIAN_POINT('',(0.,0.,0.));
#1665=CARTESIAN_POINT('',(0.,0.,0.));
#1666=CARTESIAN_POINT('',(0.,0.,0.));
#1667=CARTESIAN_POINT('Origin',(-50.4906076523751,-75.4435158004642,-215.));
#1668=CARTESIAN_POINT('',(-47.9406076523751,-75.4435158004642,-215.));
#1669=CARTESIAN_POINT('Origin',(-50.4906076523751,-75.4435158004642,-215.));
#1670=CARTESIAN_POINT('',(-47.9406076523751,-75.4435158004642,-212.9));
#1671=CARTESIAN_POINT('',(-47.9406076523751,-75.4435158004642,-215.));
#1672=CARTESIAN_POINT('Origin',(-50.4906076523751,-75.4435158004642,-212.9));
#1673=CARTESIAN_POINT('Origin',(-50.4906076523751,-75.4435158004642,-212.9));
#1674=CARTESIAN_POINT('Origin',(-157.277226853952,-13.5226994298768,-215.));
#1675=CARTESIAN_POINT('',(-159.583890368088,-12.4355916005623,-212.9));
#1676=CARTESIAN_POINT('',(-159.583890368088,-12.4355916005624,-215.));
#1677=CARTESIAN_POINT('',(-159.583890368088,-12.4355916005623,-215.));
#1678=CARTESIAN_POINT('',(-159.372021607859,-12.0686241433103,-212.9));
#1679=CARTESIAN_POINT('Origin',(-157.277226853952,-13.5226994298768,-212.9));
#1680=CARTESIAN_POINT('',(-159.372021607859,-12.0686241433101,-215.));
#1681=CARTESIAN_POINT('',(-159.372021607859,-12.0686241433103,-215.));
#1682=CARTESIAN_POINT('Origin',(-157.277226853952,-13.5226994298768,-215.));
#1683=CARTESIAN_POINT('Origin',(-157.277226853952,-13.5226994298768,-212.9));
#1684=CARTESIAN_POINT('',(-141.507320369231,18.8739460640318,-212.9));
#1685=CARTESIAN_POINT('Origin',(-50.4906076523751,45.4435158004638,-215.));
#1686=CARTESIAN_POINT('',(-47.9406076523751,45.4435158004638,-215.));
#1687=CARTESIAN_POINT('Origin',(-50.4906076523751,45.4435158004638,-215.));
#1688=CARTESIAN_POINT('',(-47.9406076523751,45.4435158004638,-212.9));
#1689=CARTESIAN_POINT('',(-47.9406076523751,45.4435158004638,-215.));
#1690=CARTESIAN_POINT('Origin',(-50.4906076523751,45.4435158004638,-212.9));
#1691=CARTESIAN_POINT('Origin',(-50.4906076523751,45.4435158004638,-212.9));
#1692=CARTESIAN_POINT('Origin',(-86.0089172531636,46.7499999999998,-215.));
#1693=CARTESIAN_POINT('',(-83.4589172531636,46.7499999999998,-215.));
#1694=CARTESIAN_POINT('Origin',(-86.0089172531636,46.7499999999998,-215.));
#1695=CARTESIAN_POINT('',(-83.4589172531636,46.7499999999998,-212.9));
#1696=CARTESIAN_POINT('',(-83.4589172531636,46.7499999999998,-215.));
#1697=CARTESIAN_POINT('Origin',(-86.0089172531636,46.7499999999998,-212.9));
#1698=CARTESIAN_POINT('Origin',(-86.0089172531636,46.7499999999998,-212.9));
#1699=CARTESIAN_POINT('Origin',(-139.402226853952,-44.4831076151705,-215.));
#1700=CARTESIAN_POINT('',(-136.852226853952,-44.4831076151705,-215.));
#1701=CARTESIAN_POINT('Origin',(-139.402226853952,-44.4831076151705,-215.));
#1702=CARTESIAN_POINT('',(-136.852226853952,-44.4831076151705,-212.9));
#1703=CARTESIAN_POINT('',(-136.852226853952,-44.4831076151705,-215.));
#1704=CARTESIAN_POINT('Origin',(-139.402226853952,-44.4831076151705,-212.9));
#1705=CARTESIAN_POINT('Origin',(-139.402226853952,-44.4831076151705,-212.9));
#1706=CARTESIAN_POINT('Origin',(-32.615607652375,-44.4831076151705,-215.));
#1707=CARTESIAN_POINT('',(-30.065607652375,-44.4831076151705,-215.));
#1708=CARTESIAN_POINT('Origin',(-32.615607652375,-44.4831076151705,-215.));
#1709=CARTESIAN_POINT('',(-30.065607652375,-44.4831076151705,-212.9));
#1710=CARTESIAN_POINT('',(-30.065607652375,-44.4831076151705,-215.));
#1711=CARTESIAN_POINT('Origin',(-32.615607652375,-44.4831076151705,-212.9));
#1712=CARTESIAN_POINT('Origin',(-32.615607652375,-44.4831076151705,-212.9));
#1713=CARTESIAN_POINT('Origin',(-86.0089172531636,-76.7500000000001,-215.));
#1714=CARTESIAN_POINT('',(-83.4589172531636,-76.7500000000001,-215.));
#1715=CARTESIAN_POINT('Origin',(-86.0089172531636,-76.7500000000001,-215.));
#1716=CARTESIAN_POINT('',(-83.4589172531636,-76.7500000000001,-212.9));
#1717=CARTESIAN_POINT('',(-83.4589172531636,-76.7500000000001,-215.));
#1718=CARTESIAN_POINT('Origin',(-86.0089172531636,-76.7500000000001,-212.9));
#1719=CARTESIAN_POINT('Origin',(-86.0089172531636,-76.7500000000001,-212.9));
#1720=CARTESIAN_POINT('Origin',(-139.402226853952,14.4831076151702,-215.));
#1721=CARTESIAN_POINT('',(-136.852226853952,14.4831076151702,-215.));
#1722=CARTESIAN_POINT('Origin',(-139.402226853952,14.4831076151702,-215.));
#1723=CARTESIAN_POINT('',(-136.852226853952,14.4831076151702,-212.9));
#1724=CARTESIAN_POINT('',(-136.852226853952,14.4831076151702,-215.));
#1725=CARTESIAN_POINT('Origin',(-139.402226853952,14.4831076151702,-212.9));
#1726=CARTESIAN_POINT('Origin',(-139.402226853952,14.4831076151702,-212.9));
#1727=CARTESIAN_POINT('Origin',(-32.615607652375,14.4831076151702,-215.));
#1728=CARTESIAN_POINT('',(-30.065607652375,14.4831076151702,-215.));
#1729=CARTESIAN_POINT('Origin',(-32.615607652375,14.4831076151702,-215.));
#1730=CARTESIAN_POINT('',(-30.065607652375,14.4831076151702,-212.9));
#1731=CARTESIAN_POINT('',(-30.065607652375,14.4831076151702,-215.));
#1732=CARTESIAN_POINT('Origin',(-32.615607652375,14.4831076151702,-212.9));
#1733=CARTESIAN_POINT('Origin',(-32.615607652375,14.4831076151702,-212.9));
#1734=CARTESIAN_POINT('Origin',(-121.527226853952,45.4435158004638,-215.));
#1735=CARTESIAN_POINT('',(-118.977226853952,45.4435158004638,-215.));
#1736=CARTESIAN_POINT('Origin',(-121.527226853952,45.4435158004638,-215.));
#1737=CARTESIAN_POINT('',(-118.977226853952,45.4435158004638,-212.9));
#1738=CARTESIAN_POINT('',(-118.977226853952,45.4435158004638,-215.));
#1739=CARTESIAN_POINT('Origin',(-121.527226853952,45.4435158004638,-212.9));
#1740=CARTESIAN_POINT('Origin',(-121.527226853952,45.4435158004638,-212.9));
#1741=CARTESIAN_POINT('Origin',(-121.527226853952,-75.4435158004642,-215.));
#1742=CARTESIAN_POINT('',(-118.977226853952,-75.4435158004642,-215.));
#1743=CARTESIAN_POINT('Origin',(-121.527226853952,-75.4435158004642,-215.));
#1744=CARTESIAN_POINT('',(-118.977226853952,-75.4435158004642,-212.9));
#1745=CARTESIAN_POINT('',(-118.977226853952,-75.4435158004642,-215.));
#1746=CARTESIAN_POINT('Origin',(-121.527226853952,-75.4435158004642,-212.9));
#1747=CARTESIAN_POINT('Origin',(-121.527226853952,-75.4435158004642,-212.9));
#1748=CARTESIAN_POINT('Origin',(-14.740607652375,-13.5226994298768,-215.));
#1749=CARTESIAN_POINT('',(-12.6458128984683,-12.0686241433099,-212.9));
#1750=CARTESIAN_POINT('',(-12.6458128984683,-12.0686241433098,-215.));
#1751=CARTESIAN_POINT('',(-12.6458128984683,-12.0686241433099,-215.));
#1752=CARTESIAN_POINT('',(-12.4339441382395,-12.4355916005627,-212.9));
#1753=CARTESIAN_POINT('Origin',(-14.740607652375,-13.5226994298768,-212.9));
#1754=CARTESIAN_POINT('',(-12.4339441382395,-12.4355916005627,-215.));
#1755=CARTESIAN_POINT('',(-12.4339441382395,-12.4355916005627,-215.));
#1756=CARTESIAN_POINT('Origin',(-14.740607652375,-13.5226994298768,-215.));
#1757=CARTESIAN_POINT('Origin',(-14.740607652375,-13.5226994298768,-212.9));
#1758=CARTESIAN_POINT('',(-11.746630388433,-13.6260539359682,-212.9));
#1759=CARTESIAN_POINT('Origin',(-86.0089172531637,-15.0000000000001,-215.));
#1760=CARTESIAN_POINT('',(-123.536684750489,49.9999999999999,-215.));
#1761=CARTESIAN_POINT('',(-161.064452247815,-15.0000000000002,-215.));
#1762=CARTESIAN_POINT('',(-48.4811497558379,49.9999999999999,-215.));
#1763=CARTESIAN_POINT('',(-123.536684750489,49.9999999999999,-215.));
#1764=CARTESIAN_POINT('',(-48.4811497558379,49.9999999999999,-215.));
#1765=CARTESIAN_POINT('',(-10.9533822585122,-15.0000000000002,-215.));
#1766=CARTESIAN_POINT('',(-48.4811497558379,49.9999999999999,-215.));
#1767=CARTESIAN_POINT('',(-48.4811497558378,-80.0000000000001,-215.));
#1768=CARTESIAN_POINT('',(-10.9533822585122,-15.0000000000002,-215.));
#1769=CARTESIAN_POINT('',(-123.536684750489,-80.0000000000001,-215.));
#1770=CARTESIAN_POINT('',(-48.4811497558378,-80.0000000000001,-215.));
#1771=CARTESIAN_POINT('',(-161.064452247815,-15.0000000000002,-215.));
#1772=CARTESIAN_POINT('',(-123.536684750489,-80.0000000000001,-215.));
#1773=CARTESIAN_POINT('',(-161.064452247815,-15.0000000000002,-215.));
#1774=CARTESIAN_POINT('',(-53.9659773131393,-70.5000000000001,-215.));
#1775=CARTESIAN_POINT('',(-118.051857193188,-70.5000000000001,-215.));
#1776=CARTESIAN_POINT('',(-69.121421879367,-70.5000000000001,-215.));
#1777=CARTESIAN_POINT('',(-21.9230373731151,-15.0000000000002,-215.));
#1778=CARTESIAN_POINT('',(-29.5007596562289,-28.1250000000002,-215.));
#1779=CARTESIAN_POINT('',(-53.9659773131394,40.4999999999999,-215.));
#1780=CARTESIAN_POINT('',(-46.3882550300255,27.3749999999999,-215.));
#1781=CARTESIAN_POINT('',(-118.051857193188,40.4999999999999,-215.));
#1782=CARTESIAN_POINT('',(-102.89641262696,40.4999999999999,-215.));
#1783=CARTESIAN_POINT('',(-150.094797133212,-15.0000000000002,-215.));
#1784=CARTESIAN_POINT('',(-142.517074850098,-1.87500000000012,-215.));
#1785=CARTESIAN_POINT('',(-125.629579476302,-57.3750000000002,-215.));
#1786=CARTESIAN_POINT('Origin',(-113.164372503151,31.76537180436,-210.));
#1787=CARTESIAN_POINT('',(-110.614372503151,31.76537180436,-210.));
#1788=CARTESIAN_POINT('Origin',(-113.164372503151,31.76537180436,-210.));
#1789=CARTESIAN_POINT('',(-110.614372503151,31.76537180436,-212.1));
#1790=CARTESIAN_POINT('',(-110.614372503151,31.76537180436,-210.));
#1791=CARTESIAN_POINT('Origin',(-113.164372503151,31.76537180436,-212.1));
#1792=CARTESIAN_POINT('Origin',(-113.164372503151,31.76537180436,-212.1));
#1793=CARTESIAN_POINT('Origin',(-40.8534620031766,0.588457268120205,-210.));
#1794=CARTESIAN_POINT('',(-38.3034620031766,0.588457268120205,-210.));
#1795=CARTESIAN_POINT('Origin',(-40.8534620031766,0.588457268120205,-210.));
#1796=CARTESIAN_POINT('',(-38.3034620031766,0.588457268120205,-212.1));
#1797=CARTESIAN_POINT('',(-38.3034620031766,0.588457268120205,-210.));
#1798=CARTESIAN_POINT('Origin',(-40.8534620031766,0.588457268120205,-212.1));
#1799=CARTESIAN_POINT('Origin',(-40.8534620031766,0.588457268120205,-212.1));
#1800=CARTESIAN_POINT('Origin',(-58.8534620031768,-61.7653718043598,-210.));
#1801=CARTESIAN_POINT('',(-56.3034620031768,-61.7653718043598,-210.));
#1802=CARTESIAN_POINT('Origin',(-58.8534620031768,-61.7653718043598,-210.));
#1803=CARTESIAN_POINT('',(-56.3034620031768,-61.7653718043598,-212.1));
#1804=CARTESIAN_POINT('',(-56.3034620031768,-61.7653718043598,-210.));
#1805=CARTESIAN_POINT('Origin',(-58.8534620031768,-61.7653718043598,-212.1));
#1806=CARTESIAN_POINT('Origin',(-58.8534620031768,-61.7653718043598,-212.1));
#1807=CARTESIAN_POINT('Origin',(-131.164372503151,-30.5884572681199,-210.));
#1808=CARTESIAN_POINT('',(-128.614372503151,-30.5884572681199,-210.));
#1809=CARTESIAN_POINT('Origin',(-131.164372503151,-30.5884572681199,-210.));
#1810=CARTESIAN_POINT('',(-128.614372503151,-30.5884572681199,-212.1));
#1811=CARTESIAN_POINT('',(-128.614372503151,-30.5884572681199,-210.));
#1812=CARTESIAN_POINT('Origin',(-131.164372503151,-30.5884572681199,-212.1));
#1813=CARTESIAN_POINT('Origin',(-131.164372503151,-30.5884572681199,-212.1));
#1814=CARTESIAN_POINT('Origin',(-122.164372503151,-46.1769145362398,-210.));
#1815=CARTESIAN_POINT('',(-119.614372503151,-46.1769145362398,-210.));
#1816=CARTESIAN_POINT('Origin',(-122.164372503151,-46.1769145362398,-210.));
#1817=CARTESIAN_POINT('',(-119.614372503151,-46.1769145362398,-212.1));
#1818=CARTESIAN_POINT('',(-119.614372503151,-46.1769145362398,-210.));
#1819=CARTESIAN_POINT('Origin',(-122.164372503151,-46.1769145362398,-212.1));
#1820=CARTESIAN_POINT('Origin',(-122.164372503151,-46.1769145362398,-212.1));
#1821=CARTESIAN_POINT('Origin',(-49.8534620031767,-46.17691453624,-210.));
#1822=CARTESIAN_POINT('',(-47.3034620031767,-46.17691453624,-210.));
#1823=CARTESIAN_POINT('Origin',(-49.8534620031767,-46.17691453624,-210.));
#1824=CARTESIAN_POINT('',(-47.3034620031767,-46.17691453624,-212.1));
#1825=CARTESIAN_POINT('',(-47.3034620031767,-46.17691453624,-210.));
#1826=CARTESIAN_POINT('Origin',(-49.8534620031767,-46.17691453624,-212.1));
#1827=CARTESIAN_POINT('Origin',(-49.8534620031767,-46.17691453624,-212.1));
#1828=CARTESIAN_POINT('Origin',(-49.8534620031766,16.1769145362401,-210.));
#1829=CARTESIAN_POINT('',(-47.3034620031766,16.1769145362401,-210.));
#1830=CARTESIAN_POINT('Origin',(-49.8534620031766,16.1769145362401,-210.));
#1831=CARTESIAN_POINT('',(-47.3034620031766,16.1769145362401,-212.1));
#1832=CARTESIAN_POINT('',(-47.3034620031766,16.1769145362401,-210.));
#1833=CARTESIAN_POINT('Origin',(-49.8534620031766,16.1769145362401,-212.1));
#1834=CARTESIAN_POINT('Origin',(-49.8534620031766,16.1769145362401,-212.1));
#1835=CARTESIAN_POINT('Origin',(-122.164372503151,16.1769145362401,-210.));
#1836=CARTESIAN_POINT('',(-119.614372503151,16.1769145362401,-210.));
#1837=CARTESIAN_POINT('Origin',(-122.164372503151,16.1769145362401,-210.));
#1838=CARTESIAN_POINT('',(-119.614372503151,16.1769145362401,-212.1));
#1839=CARTESIAN_POINT('',(-119.614372503151,16.1769145362401,-210.));
#1840=CARTESIAN_POINT('Origin',(-122.164372503151,16.1769145362401,-212.1));
#1841=CARTESIAN_POINT('Origin',(-122.164372503151,16.1769145362401,-212.1));
#1842=CARTESIAN_POINT('Origin',(-86.0089172531637,31.9000000000003,-210.));
#1843=CARTESIAN_POINT('',(-83.4589172531636,31.9000000000003,-210.));
#1844=CARTESIAN_POINT('Origin',(-86.0089172531637,31.9000000000003,-210.));
#1845=CARTESIAN_POINT('',(-83.4589172531636,31.9000000000003,-212.1));
#1846=CARTESIAN_POINT('',(-83.4589172531636,31.9000000000003,-210.));
#1847=CARTESIAN_POINT('Origin',(-86.0089172531637,31.9000000000003,-212.1));
#1848=CARTESIAN_POINT('Origin',(-86.0089172531637,31.9000000000003,-212.1));
#1849=CARTESIAN_POINT('Origin',(-31.8534620031765,-15.0000000000003,-210.));
#1850=CARTESIAN_POINT('',(-29.3034620031765,-15.0000000000003,-210.));
#1851=CARTESIAN_POINT('Origin',(-31.8534620031765,-15.0000000000003,-210.));
#1852=CARTESIAN_POINT('',(-29.3034620031765,-15.0000000000003,-212.1));
#1853=CARTESIAN_POINT('',(-29.3034620031765,-15.0000000000003,-210.));
#1854=CARTESIAN_POINT('Origin',(-31.8534620031765,-15.0000000000003,-212.1));
#1855=CARTESIAN_POINT('Origin',(-31.8534620031765,-15.0000000000003,-212.1));
#1856=CARTESIAN_POINT('Origin',(-86.0089172531638,-61.9000000000001,-210.));
#1857=CARTESIAN_POINT('',(-83.4589172531638,-61.9000000000001,-210.));
#1858=CARTESIAN_POINT('Origin',(-86.0089172531638,-61.9000000000001,-210.));
#1859=CARTESIAN_POINT('',(-83.4589172531638,-61.9000000000001,-212.1));
#1860=CARTESIAN_POINT('',(-83.4589172531638,-61.9000000000001,-210.));
#1861=CARTESIAN_POINT('Origin',(-86.0089172531638,-61.9000000000001,-212.1));
#1862=CARTESIAN_POINT('Origin',(-86.0089172531638,-61.9000000000001,-212.1));
#1863=CARTESIAN_POINT('Origin',(-140.164372503151,-15.,-210.));
#1864=CARTESIAN_POINT('',(-137.614372503151,-15.,-210.));
#1865=CARTESIAN_POINT('Origin',(-140.164372503151,-15.,-210.));
#1866=CARTESIAN_POINT('',(-137.614372503151,-15.,-212.1));
#1867=CARTESIAN_POINT('',(-137.614372503151,-15.,-210.));
#1868=CARTESIAN_POINT('Origin',(-140.164372503151,-15.,-212.1));
#1869=CARTESIAN_POINT('Origin',(-140.164372503151,-15.,-212.1));
#1870=CARTESIAN_POINT('Origin',(-113.164372503151,-61.7653718043597,-210.));
#1871=CARTESIAN_POINT('',(-110.614372503151,-61.7653718043597,-210.));
#1872=CARTESIAN_POINT('Origin',(-113.164372503151,-61.7653718043597,-210.));
#1873=CARTESIAN_POINT('',(-110.614372503151,-61.7653718043597,-212.1));
#1874=CARTESIAN_POINT('',(-110.614372503151,-61.7653718043597,-210.));
#1875=CARTESIAN_POINT('Origin',(-113.164372503151,-61.7653718043597,-212.1));
#1876=CARTESIAN_POINT('Origin',(-113.164372503151,-61.7653718043597,-212.1));
#1877=CARTESIAN_POINT('Origin',(-40.8534620031766,-30.5884572681202,-210.));
#1878=CARTESIAN_POINT('',(-38.3034620031766,-30.5884572681202,-210.));
#1879=CARTESIAN_POINT('Origin',(-40.8534620031766,-30.5884572681202,-210.));
#1880=CARTESIAN_POINT('',(-38.3034620031766,-30.5884572681202,-212.1));
#1881=CARTESIAN_POINT('',(-38.3034620031766,-30.5884572681202,-210.));
#1882=CARTESIAN_POINT('Origin',(-40.8534620031766,-30.5884572681202,-212.1));
#1883=CARTESIAN_POINT('Origin',(-40.8534620031766,-30.5884572681202,-212.1));
#1884=CARTESIAN_POINT('Origin',(-58.8534620031767,31.7653718043599,-210.));
#1885=CARTESIAN_POINT('',(-56.3034620031767,31.7653718043599,-210.));
#1886=CARTESIAN_POINT('Origin',(-58.8534620031767,31.7653718043599,-210.));
#1887=CARTESIAN_POINT('',(-56.3034620031767,31.7653718043599,-212.1));
#1888=CARTESIAN_POINT('',(-56.3034620031767,31.7653718043599,-210.));
#1889=CARTESIAN_POINT('Origin',(-58.8534620031767,31.7653718043599,-212.1));
#1890=CARTESIAN_POINT('Origin',(-58.8534620031767,31.7653718043599,-212.1));
#1891=CARTESIAN_POINT('Origin',(-131.164372503151,0.588457268120223,-210.));
#1892=CARTESIAN_POINT('',(-128.614372503151,0.588457268120223,-210.));
#1893=CARTESIAN_POINT('Origin',(-131.164372503151,0.588457268120223,-210.));
#1894=CARTESIAN_POINT('',(-128.614372503151,0.588457268120223,-212.1));
#1895=CARTESIAN_POINT('',(-128.614372503151,0.588457268120222,-210.));
#1896=CARTESIAN_POINT('Origin',(-131.164372503151,0.588457268120223,-212.1));
#1897=CARTESIAN_POINT('Origin',(-131.164372503151,0.588457268120223,-212.1));
#1898=CARTESIAN_POINT('Origin',(-48.4811497558378,-80.0000000000001,-215.));
#1899=CARTESIAN_POINT('',(-10.9533822585122,-15.0000000000002,-210.));
#1900=CARTESIAN_POINT('',(-10.9533822585122,-15.0000000000002,-215.));
#1901=CARTESIAN_POINT('',(-48.4811497558378,-80.0000000000001,-210.));
#1902=CARTESIAN_POINT('',(-10.9533822585122,-15.0000000000002,-210.));
#1903=CARTESIAN_POINT('',(-48.4811497558378,-80.0000000000001,-215.));
#1904=CARTESIAN_POINT('Origin',(-123.536684750489,-80.0000000000001,-215.));
#1905=CARTESIAN_POINT('',(-123.536684750489,-80.0000000000001,-210.));
#1906=CARTESIAN_POINT('',(-48.4811497558378,-80.0000000000001,-210.));
#1907=CARTESIAN_POINT('',(-123.536684750489,-80.0000000000001,-215.));
#1908=CARTESIAN_POINT('Origin',(-161.064452247815,-15.0000000000002,-215.));
#1909=CARTESIAN_POINT('',(-161.064452247815,-15.0000000000002,-210.));
#1910=CARTESIAN_POINT('',(-123.536684750489,-80.0000000000001,-210.));
#1911=CARTESIAN_POINT('',(-161.064452247815,-15.0000000000002,-215.));
#1912=CARTESIAN_POINT('Origin',(-123.536684750489,49.9999999999999,-215.));
#1913=CARTESIAN_POINT('',(-123.536684750489,49.9999999999999,-210.));
#1914=CARTESIAN_POINT('',(-161.064452247815,-15.0000000000002,-210.));
#1915=CARTESIAN_POINT('',(-123.536684750489,49.9999999999999,-215.));
#1916=CARTESIAN_POINT('Origin',(-48.4811497558379,49.9999999999999,-215.));
#1917=CARTESIAN_POINT('',(-48.4811497558379,49.9999999999999,-210.));
#1918=CARTESIAN_POINT('',(-123.536684750489,49.9999999999999,-210.));
#1919=CARTESIAN_POINT('',(-48.4811497558379,49.9999999999999,-215.));
#1920=CARTESIAN_POINT('Origin',(-10.9533822585122,-15.0000000000002,-215.));
#1921=CARTESIAN_POINT('',(-48.4811497558379,49.9999999999999,-210.));
#1922=CARTESIAN_POINT('Origin',(-86.0089172531637,-15.0000000000001,-210.));
#1923=CARTESIAN_POINT('',(-109.564808236101,-55.8000000000001,-210.));
#1924=CARTESIAN_POINT('',(-133.120699219037,-15.0000000000002,-210.));
#1925=CARTESIAN_POINT('',(-127.231726473303,-25.2000000000002,-210.));
#1926=CARTESIAN_POINT('',(-109.564808236101,25.7999999999999,-210.));
#1927=CARTESIAN_POINT('',(-115.453780981835,15.6,-210.));
#1928=CARTESIAN_POINT('',(-62.4530262702271,25.7999999999999,-210.));
#1929=CARTESIAN_POINT('',(-74.2309717616954,25.7999999999999,-210.));
#1930=CARTESIAN_POINT('',(-38.8971352872903,-15.0000000000002,-210.));
#1931=CARTESIAN_POINT('',(-44.7861080330245,-4.80000000000016,-210.));
#1932=CARTESIAN_POINT('',(-62.453026270227,-55.8000000000001,-210.));
#1933=CARTESIAN_POINT('',(-56.5640535244928,-45.6000000000001,-210.));
#1934=CARTESIAN_POINT('',(-97.7868627446322,-55.8000000000001,-210.));
#1935=CARTESIAN_POINT('Origin',(-133.120699219037,-15.0000000000002,-225.));
#1936=CARTESIAN_POINT('',(-133.120699219037,-15.0000000000002,-225.));
#1937=CARTESIAN_POINT('',(-109.564808236101,-55.8000000000001,-225.));
#1938=CARTESIAN_POINT('',(-127.231726473303,-25.2000000000002,-225.));
#1939=CARTESIAN_POINT('',(-133.120699219037,-15.0000000000002,-215.));
#1940=CARTESIAN_POINT('',(-109.564808236101,-55.8000000000001,-225.));
#1941=CARTESIAN_POINT('Origin',(-109.564808236101,25.7999999999999,-225.));
#1942=CARTESIAN_POINT('',(-109.564808236101,25.7999999999999,-225.));
#1943=CARTESIAN_POINT('',(-115.453780981835,15.6,-225.));
#1944=CARTESIAN_POINT('',(-109.564808236101,25.7999999999999,-215.));
#1945=CARTESIAN_POINT('Origin',(-62.4530262702271,25.7999999999999,-225.));
#1946=CARTESIAN_POINT('',(-62.4530262702271,25.7999999999999,-225.));
#1947=CARTESIAN_POINT('',(-74.2309717616954,25.7999999999999,-225.));
#1948=CARTESIAN_POINT('',(-62.4530262702271,25.7999999999999,-215.));
#1949=CARTESIAN_POINT('Origin',(-38.8971352872903,-15.0000000000002,-225.));
#1950=CARTESIAN_POINT('',(-38.8971352872903,-15.0000000000002,-225.));
#1951=CARTESIAN_POINT('',(-44.7861080330245,-4.80000000000016,-225.));
#1952=CARTESIAN_POINT('',(-38.8971352872903,-15.0000000000002,-215.));
#1953=CARTESIAN_POINT('Origin',(-62.453026270227,-55.8000000000001,-225.));
#1954=CARTESIAN_POINT('',(-62.453026270227,-55.8000000000001,-225.));
#1955=CARTESIAN_POINT('',(-56.5640535244928,-45.6000000000001,-225.));
#1956=CARTESIAN_POINT('',(-62.453026270227,-55.8000000000001,-215.));
#1957=CARTESIAN_POINT('Origin',(-109.564808236101,-55.8000000000001,-225.));
#1958=CARTESIAN_POINT('',(-97.7868627446322,-55.8000000000001,-225.));
#1959=CARTESIAN_POINT('Origin',(-52.2339265055704,-70.5000000000001,-215.));
#1960=CARTESIAN_POINT('',(-118.051857193188,-70.5000000000001,-225.));
#1961=CARTESIAN_POINT('',(-118.051857193188,-70.5000000000001,-215.));
#1962=CARTESIAN_POINT('',(-53.9659773131393,-70.5000000000001,-225.));
#1963=CARTESIAN_POINT('',(-69.121421879367,-70.5000000000001,-225.));
#1964=CARTESIAN_POINT('',(-53.9659773131393,-70.5000000000001,-215.));
#1965=CARTESIAN_POINT('Origin',(-21.0570119693306,-13.5000000000002,-215.));
#1966=CARTESIAN_POINT('',(-21.9230373731151,-15.0000000000002,-225.));
#1967=CARTESIAN_POINT('',(-29.5007596562289,-28.1250000000002,-225.));
#1968=CARTESIAN_POINT('',(-21.9230373731151,-15.0000000000002,-215.));
#1969=CARTESIAN_POINT('Origin',(-54.8320027169238,41.9999999999999,-215.));
#1970=CARTESIAN_POINT('',(-53.9659773131394,40.4999999999999,-225.));
#1971=CARTESIAN_POINT('',(-46.3882550300255,27.3749999999999,-225.));
#1972=CARTESIAN_POINT('',(-53.9659773131394,40.4999999999999,-215.));
#1973=CARTESIAN_POINT('Origin',(-119.783908000757,40.4999999999999,-215.));
#1974=CARTESIAN_POINT('',(-118.051857193188,40.4999999999999,-225.));
#1975=CARTESIAN_POINT('',(-102.89641262696,40.4999999999999,-225.));
#1976=CARTESIAN_POINT('',(-118.051857193188,40.4999999999999,-215.));
#1977=CARTESIAN_POINT('Origin',(-150.960822536997,-16.5000000000002,-215.));
#1978=CARTESIAN_POINT('',(-150.094797133212,-15.0000000000002,-225.));
#1979=CARTESIAN_POINT('',(-142.517074850098,-1.87500000000012,-225.));
#1980=CARTESIAN_POINT('',(-150.094797133212,-15.0000000000002,-215.));
#1981=CARTESIAN_POINT('Origin',(-117.185831789404,-72.0000000000001,-215.));
#1982=CARTESIAN_POINT('',(-125.629579476302,-57.3750000000002,-225.));
#1983=CARTESIAN_POINT('Origin',(-86.0089172531637,-15.0000000000001,-225.));
#1984=CARTESIAN_POINT('',(0.,0.,0.));
#1985=CARTESIAN_POINT('',(0.,0.,0.));
#1986=UNCERTAINTY_MEASURE_WITH_UNIT(LENGTH_MEASURE(0.01),#1994,
'DISTANCE_ACCURACY_VALUE',
'Maximum model space distance between geometric entities at asserted c
onnectivities');
#1987=UNCERTAINTY_MEASURE_WITH_UNIT(LENGTH_MEASURE(0.01),#1994,
'DISTANCE_ACCURACY_VALUE',
'Maximum model space distance between geometric entities at asserted c
onnectivities');
#1988=UNCERTAINTY_MEASURE_WITH_UNIT(LENGTH_MEASURE(0.01),#1994,
'DISTANCE_ACCURACY_VALUE',
'Maximum model space distance between geometric entities at asserted c
onnectivities');
#1989=UNCERTAINTY_MEASURE_WITH_UNIT(LENGTH_MEASURE(0.01),#1994,
'DISTANCE_ACCURACY_VALUE',
'Maximum model space distance between geometric entities at asserted c
onnectivities');
#1990=(
GEOMETRIC_REPRESENTATION_CONTEXT(3)
GLOBAL_UNCERTAINTY_ASSIGNED_CONTEXT((#1986))
GLOBAL_UNIT_ASSIGNED_CONTEXT((#1994,#1996,#1997))
REPRESENTATION_CONTEXT('','3D')
);
#1991=(
GEOMETRIC_REPRESENTATION_CONTEXT(3)
GLOBAL_UNCERTAINTY_ASSIGNED_CONTEXT((#1987))
GLOBAL_UNIT_ASSIGNED_CONTEXT((#1994,#1996,#1997))
REPRESENTATION_CONTEXT('','3D')
);
#1992=(
GEOMETRIC_REPRESENTATION_CONTEXT(3)
GLOBAL_UNCERTAINTY_ASSIGNED_CONTEXT((#1988))
GLOBAL_UNIT_ASSIGNED_CONTEXT((#1994,#1996,#1997))
REPRESENTATION_CONTEXT('','3D')
);
#1993=(
GEOMETRIC_REPRESENTATION_CONTEXT(3)
GLOBAL_UNCERTAINTY_ASSIGNED_CONTEXT((#1989))
GLOBAL_UNIT_ASSIGNED_CONTEXT((#1994,#1996,#1997))
REPRESENTATION_CONTEXT('','3D')
);
#1994=(
LENGTH_UNIT()
NAMED_UNIT(*)
SI_UNIT(.MILLI.,.METRE.)
);
#1995=(
LENGTH_UNIT()
NAMED_UNIT(*)
SI_UNIT($,.METRE.)
);
#1996=(
NAMED_UNIT(*)
PLANE_ANGLE_UNIT()
SI_UNIT($,.RADIAN.)
);
#1997=(
NAMED_UNIT(*)
SI_UNIT($,.STERADIAN.)
SOLID_ANGLE_UNIT()
);
#1998=SHAPE_DEFINITION_REPRESENTATION(#2001,#2006);
#1999=SHAPE_DEFINITION_REPRESENTATION(#2002,#2007);
#2000=SHAPE_DEFINITION_REPRESENTATION(#2003,#2008);
#2001=PRODUCT_DEFINITION_SHAPE('',$,#2010);
#2002=PRODUCT_DEFINITION_SHAPE('',$,#2011);
#2003=PRODUCT_DEFINITION_SHAPE('',$,#2012);
#2004=PRODUCT_DEFINITION_SHAPE($,$,#17);
#2005=PRODUCT_DEFINITION_SHAPE($,$,#18);
#2006=SHAPE_REPRESENTATION('',(#1162,#1299),#1990);
#2007=SHAPE_REPRESENTATION('',(#1163,#1298),#1991);
#2008=SHAPE_REPRESENTATION('',(#1164),#1992);
#2009=PRODUCT_DEFINITION_CONTEXT('part definition',#2020,'design');
#2010=PRODUCT_DEFINITION('2025-12-08-00-33-07-883','Arm (1)',#2013,#2009);
#2011=PRODUCT_DEFINITION('2025-12-08-00-40-28-529','Arm',#2014,#2009);
#2012=PRODUCT_DEFINITION('2025-12-08-02-46-42-908','Lid',#2015,#2009);
#2013=PRODUCT_DEFINITION_FORMATION('',$,#2022);
#2014=PRODUCT_DEFINITION_FORMATION('',$,#2023);
#2015=PRODUCT_DEFINITION_FORMATION('',$,#2024);
#2016=PRODUCT_RELATED_PRODUCT_CATEGORY('Arm (1)','Arm (1)',(#2022));
#2017=PRODUCT_RELATED_PRODUCT_CATEGORY('Arm','Arm',(#2023));
#2018=PRODUCT_RELATED_PRODUCT_CATEGORY('Lid','Lid',(#2024));
#2019=APPLICATION_PROTOCOL_DEFINITION('international standard',
'automotive_design',2009,#2020);
#2020=APPLICATION_CONTEXT(
'Core Data for Automotive Mechanical Design Process');
#2021=PRODUCT_CONTEXT('part definition',#2020,'mechanical');
#2022=PRODUCT('2025-12-08-00-33-07-883','Arm (1)',$,(#2021));
#2023=PRODUCT('2025-12-08-00-40-28-529','Arm',$,(#2021));
#2024=PRODUCT('2025-12-08-02-46-42-908','Lid',$,(#2021));
#2025=PRESENTATION_STYLE_ASSIGNMENT((#2037));
#2026=PRESENTATION_STYLE_ASSIGNMENT((#2038));
#2027=PRESENTATION_STYLE_ASSIGNMENT((#2039));
#2028=PRESENTATION_STYLE_ASSIGNMENT((#2040));
#2029=PRESENTATION_STYLE_ASSIGNMENT((#2041));
#2030=PRESENTATION_STYLE_ASSIGNMENT((#2042));
#2031=PRESENTATION_STYLE_ASSIGNMENT((#2043));
#2032=PRESENTATION_STYLE_ASSIGNMENT((#2044));
#2033=PRESENTATION_STYLE_ASSIGNMENT((#2045));
#2034=PRESENTATION_STYLE_ASSIGNMENT((#2046));
#2035=PRESENTATION_STYLE_ASSIGNMENT((#2047));
#2036=PRESENTATION_STYLE_ASSIGNMENT((#2048));
#2037=SURFACE_STYLE_USAGE(.BOTH.,#2049);
#2038=SURFACE_STYLE_USAGE(.BOTH.,#2050);
#2039=SURFACE_STYLE_USAGE(.BOTH.,#2051);
#2040=SURFACE_STYLE_USAGE(.BOTH.,#2052);
#2041=SURFACE_STYLE_USAGE(.BOTH.,#2053);
#2042=SURFACE_STYLE_USAGE(.BOTH.,#2054);
#2043=SURFACE_STYLE_USAGE(.BOTH.,#2055);
#2044=SURFACE_STYLE_USAGE(.BOTH.,#2056);
#2045=SURFACE_STYLE_USAGE(.BOTH.,#2057);
#2046=SURFACE_STYLE_USAGE(.BOTH.,#2058);
#2047=SURFACE_STYLE_USAGE(.BOTH.,#2059);
#2048=SURFACE_STYLE_USAGE(.BOTH.,#2060);
#2049=SURFACE_SIDE_STYLE('',(#2061));
#2050=SURFACE_SIDE_STYLE('',(#2062));
#2051=SURFACE_SIDE_STYLE('',(#2063));
#2052=SURFACE_SIDE_STYLE('',(#2064));
#2053=SURFACE_SIDE_STYLE('',(#2065));
#2054=SURFACE_SIDE_STYLE('',(#2066));
#2055=SURFACE_SIDE_STYLE('',(#2067));
#2056=SURFACE_SIDE_STYLE('',(#2068));
#2057=SURFACE_SIDE_STYLE('',(#2069));
#2058=SURFACE_SIDE_STYLE('',(#2070));
#2059=SURFACE_SIDE_STYLE('',(#2071));
#2060=SURFACE_SIDE_STYLE('',(#2072));
#2061=SURFACE_STYLE_FILL_AREA(#2073);
#2062=SURFACE_STYLE_FILL_AREA(#2074);
#2063=SURFACE_STYLE_FILL_AREA(#2075);
#2064=SURFACE_STYLE_FILL_AREA(#2076);
#2065=SURFACE_STYLE_FILL_AREA(#2077);
#2066=SURFACE_STYLE_FILL_AREA(#2078);
#2067=SURFACE_STYLE_FILL_AREA(#2079);
#2068=SURFACE_STYLE_FILL_AREA(#2080);
#2069=SURFACE_STYLE_FILL_AREA(#2081);
#2070=SURFACE_STYLE_FILL_AREA(#2082);
#2071=SURFACE_STYLE_FILL_AREA(#2083);
#2072=SURFACE_STYLE_FILL_AREA(#2084);
#2073=FILL_AREA_STYLE('Steel - Satin',(#2085));
#2074=FILL_AREA_STYLE('Plastic - Matte (Black)',(#2086));
#2075=FILL_AREA_STYLE('Aluminum - Satin',(#2087));
#2076=FILL_AREA_STYLE('Aluminum - Polished',(#2088));
#2077=FILL_AREA_STYLE('Paek (Beige)',(#2089));
#2078=FILL_AREA_STYLE('Copper - Patina',(#2090));
#2079=FILL_AREA_STYLE('Plastic - Matte (Yellow)',(#2091));
#2080=FILL_AREA_STYLE('Plastic - Matte (Red)',(#2092));
#2081=FILL_AREA_STYLE('Stainless Steel - Polished',(#2093));
#2082=FILL_AREA_STYLE('Plastic - Matte (Green)',(#2094));
#2083=FILL_AREA_STYLE('Plastic - Matte (Blue)',(#2095));
#2084=FILL_AREA_STYLE('Opaque(64,64,64)',(#2096));
#2085=FILL_AREA_STYLE_COLOUR('Steel - Satin',#2097);
#2086=FILL_AREA_STYLE_COLOUR('Plastic - Matte (Black)',#2098);
#2087=FILL_AREA_STYLE_COLOUR('Aluminum - Satin',#2099);
#2088=FILL_AREA_STYLE_COLOUR('Aluminum - Polished',#2100);
#2089=FILL_AREA_STYLE_COLOUR('Paek (Beige)',#2101);
#2090=FILL_AREA_STYLE_COLOUR('Copper - Patina',#2102);
#2091=FILL_AREA_STYLE_COLOUR('Plastic - Matte (Yellow)',#2103);
#2092=FILL_AREA_STYLE_COLOUR('Plastic - Matte (Red)',#2104);
#2093=FILL_AREA_STYLE_COLOUR('Stainless Steel - Polished',#2105);
#2094=FILL_AREA_STYLE_COLOUR('Plastic - Matte (Green)',#2106);
#2095=FILL_AREA_STYLE_COLOUR('Plastic - Matte (Blue)',#2107);
#2096=FILL_AREA_STYLE_COLOUR('Opaque(64,64,64)',#2108);
#2097=COLOUR_RGB('Steel - Satin',0.627450980392157,0.627450980392157,0.627450980392157);
#2098=COLOUR_RGB('Plastic - Matte (Black)',0.0980392156862745,0.0980392156862745,
0.0980392156862745);
#2099=COLOUR_RGB('Aluminum - Satin',0.96078431372549,0.96078431372549,0.964705882352941);
#2100=COLOUR_RGB('Aluminum - Polished',0.96078431372549,0.96078431372549,
0.964705882352941);
#2101=COLOUR_RGB('Paek (Beige)',0.898039215686275,0.792156862745098,0.619607843137255);
#2102=COLOUR_RGB('Copper - Patina',0.929411764705882,0.807843137254902,
0.764705882352941);
#2103=COLOUR_RGB('Plastic - Matte (Yellow)',0.909803921568627,0.67843137254902,
0.137254901960784);
#2104=COLOUR_RGB('Plastic - Matte (Red)',0.768627450980392,0.207843137254902,
0.152941176470588);
#2105=COLOUR_RGB('Stainless Steel - Polished',0.796078431372549,0.796078431372549,
0.796078431372549);
#2106=COLOUR_RGB('Plastic - Matte (Green)',0.266666666666667,0.588235294117647,
0.282352941176471);
#2107=COLOUR_RGB('Plastic - Matte (Blue)',0.188235294117647,0.231372549019608,
0.588235294117647);
#2108=COLOUR_RGB('Opaque(64,64,64)',0.250980392156863,0.250980392156863,
0.250980392156863);
ENDSEC;
END-ISO-10303-21;
