ISO-10303-21;
HEADER;
/* Generated by software containing ST-Developer
 * from STEP Tools, Inc. (www.steptools.com) 
 */

FILE_DESCRIPTION(
/* description */ (''),
/* implementation_level */ '2;1');

FILE_NAME(
/* name */ 'Ring middle phalanx.step',
/* time_stamp */ '2026-01-04T20:34:48Z',
/* author */ (''),
/* organization */ (''),
/* preprocessor_version */ 'ST-DEVELOPER v20.1',
/* originating_system */ 'Autodesk Translation Framework v14.21.0.0',
/* authorisation */ '');

FILE_SCHEMA (('AUTOMOTIVE_DESIGN { 1 0 10303 214 3 1 1 }'));
ENDSEC;

DATA;
#10=MECHANICAL_DESIGN_GEOMETRIC_PRESENTATION_REPRESENTATION('',(#17),#592);
#11=ITEM_DEFINED_TRANSFORMATION($,$,#205,#221);
#12=(
REPRESENTATION_RELATIONSHIP($,$,#603,#602)
REPRESENTATION_RELATIONSHIP_WITH_TRANSFORMATION(#11)
SHAPE_REPRESENTATION_RELATIONSHIP()
);
#13=CONTEXT_DEPENDENT_SHAPE_REPRESENTATION(#12,#601);
#14=NEXT_ASSEMBLY_USAGE_OCCURRENCE('Middle phalanx:1',
'Middle phalanx:1','Middle phalanx:1',#605,#606,'Middle phalanx:1');
#15=SHAPE_REPRESENTATION_RELATIONSHIP('SRR','None',#603,#16);
#16=ADVANCED_BREP_SHAPE_REPRESENTATION('',(#18),#591);
#17=STYLED_ITEM('',(#616),#18);
#18=MANIFOLD_SOLID_BREP('Body1',#191);
#19=ELLIPSE('',#216,1.76776695296637,1.25);
#20=ELLIPSE('',#218,1.76776695296637,1.25);
#21=FACE_BOUND('',#58,.T.);
#22=FACE_BOUND('',#59,.T.);
#23=FACE_BOUND('',#61,.T.);
#24=FACE_BOUND('',#63,.T.);
#25=FACE_BOUND('',#66,.T.);
#26=FACE_BOUND('',#67,.T.);
#27=PLANE('',#214);
#28=PLANE('',#215);
#29=PLANE('',#217);
#30=PLANE('',#220);
#31=B_SPLINE_SURFACE_WITH_KNOTS('',3,3,((#346,#347,#348,#349),(#350,#351,
#352,#353),(#354,#355,#356,#357),(#358,#359,#360,#361),(#362,#363,#364,
#365),(#366,#367,#368,#369),(#370,#371,#372,#373),(#374,#375,#376,#377),
(#378,#379,#380,#381),(#382,#383,#384,#385),(#386,#387,#388,#389),(#390,
#391,#392,#393),(#394,#395,#396,#397),(#398,#399,#400,#401),(#402,#403,
#404,#405),(#406,#407,#408,#409),(#410,#411,#412,#413),(#414,#415,#416,
#417)),.UNSPECIFIED.,.T.,.F.,.F.,(4,1,1,1,1,1,1,1,1,1,1,1,1,1,1,4),(4,4),
(0.,0.0714285714285714,0.142857142857143,0.214285714285714,0.285714285714286,
0.357142857142857,0.428571428571429,0.476190476190476,0.571428571428571,
0.619047619047619,0.666666666666667,0.714285714285714,0.785714285714286,
0.857142857142857,0.928571428571429,1.),(0.,1.),.UNSPECIFIED.);
#32=B_SPLINE_CURVE_WITH_KNOTS('',3,(#283,#284,#285,#286,#287,#288,#289,
#290,#291,#292,#293,#294,#295,#296,#297,#298,#299,#300,#301,#302,#303,#304,
#305,#306,#307,#308,#309,#310),.UNSPECIFIED.,.F.,.F.,(4,3,3,3,3,3,3,3,3,
4),(-0.157689664781721,-0.139638637125306,-0.120356621441758,-0.102017547322436,
-0.0744653719303798,-0.0620347493618,-0.0416992142362525,-0.0285975159394233,
-0.0103632271256851,0.),.UNSPECIFIED.);
#33=B_SPLINE_CURVE_WITH_KNOTS('',3,(#314,#315,#316,#317,#318,#319,#320,
#321,#322,#323,#324,#325,#326,#327,#328,#329,#330,#331,#332,#333,#334,#335,
#336,#337,#338,#339,#340,#341,#342,#343,#344),.UNSPECIFIED.,.F.,.F.,(4,
3,3,3,3,3,3,3,3,3,4),(0.,0.0181228460353295,0.0213067105153925,0.0408832086548049,
0.0529966117371632,0.0789309147757801,0.0907373842654075,0.111135128025988,
0.130401821944921,0.148427836675817,0.157686087180585),.UNSPECIFIED.);
#34=B_SPLINE_CURVE_WITH_KNOTS('',3,(#418,#419,#420,#421,#422,#423,#424,
#425,#426,#427,#428,#429,#430,#431,#432,#433,#434,#435,#436,#437),
 .UNSPECIFIED.,.F.,.F.,(4,2,2,2,2,2,2,2,2,4),(-3.81035071237416,-3.12367968373021,
-2.61588417493775,-2.27914062341015,-2.02398514361337,-1.78435612348157,
-1.52379047108287,-1.17545281003537,-0.706743069358202,-0.050069043784495),
 .UNSPECIFIED.);
#35=B_SPLINE_CURVE_WITH_KNOTS('',3,(#439,#440,#441,#442,#443,#444,#445,
#446,#447,#448,#449,#450,#451),.UNSPECIFIED.,.F.,.F.,(4,3,3,3,4),(1.68798062824562,
1.79519580205131,2.24399475256414,2.69279370307697,3.14159265358979),
 .UNSPECIFIED.);
#36=B_SPLINE_CURVE_WITH_KNOTS('',3,(#455,#456,#457,#458,#459,#460,#461,
#462,#463,#464,#465,#466,#467),.UNSPECIFIED.,.F.,.F.,(4,3,3,3,4),(1.69445028508511,
1.79519580205131,2.24399475256414,2.69279370307697,3.14159265358979),
 .UNSPECIFIED.);
#37=B_SPLINE_CURVE_WITH_KNOTS('',3,(#469,#470,#471,#472,#473,#474,#475,
#476,#477,#478,#479,#480,#481,#482,#483,#484,#485,#486,#487,#488,#489,#490,
#491,#492,#493,#494,#495,#496),.UNSPECIFIED.,.F.,.F.,(4,3,3,3,3,3,3,3,3,
4),(-0.157762402012145,-0.142528345515157,-0.123576547786598,-0.104624750058039,
-0.0780434967532559,-0.0646266736576862,-0.0440631756959116,-0.03011094265856,
-0.0120983169401122,0.),.UNSPECIFIED.);
#38=B_SPLINE_CURVE_WITH_KNOTS('',3,(#498,#499,#500,#501,#502,#503,#504,
#505,#506,#507,#508,#509,#510,#511,#512,#513,#514,#515,#516,#517),
 .UNSPECIFIED.,.F.,.F.,(4,2,2,2,2,2,2,2,2,4),(-3.62943381144431,-2.92385003038604,
-2.46336773333643,-2.15644550110264,-1.92094390162343,-1.69610087324271,
-1.44963259283442,-1.1274588250326,-0.677357423170065,-0.0500702200130716),
 .UNSPECIFIED.);
#39=B_SPLINE_CURVE_WITH_KNOTS('',3,(#519,#520,#521,#522,#523,#524,#525,
#526,#527,#528,#529,#530,#531,#532,#533,#534,#535,#536,#537,#538,#539,#540,
#541,#542,#543,#544,#545,#546),.UNSPECIFIED.,.F.,.F.,(4,3,3,3,3,3,3,3,3,
4),(0.,0.0182520374149925,0.0372638260335479,0.0504895789521856,0.0753633079563659,
0.0879375413705695,0.108481524107858,0.127639360544658,0.145482819708724,
0.15775896643354),.UNSPECIFIED.);
#40=B_SPLINE_CURVE_WITH_KNOTS('',3,(#547,#548,#549,#550,#551,#552,#553,
#554,#555,#556,#557,#558,#559),.UNSPECIFIED.,.F.,.F.,(4,3,3,3,4),(-3.14159265358979,
-2.69279370307697,-2.24399475256414,-1.79519580205131,-1.69452554175672),
 .UNSPECIFIED.);
#41=B_SPLINE_CURVE_WITH_KNOTS('',3,(#560,#561,#562,#563,#564,#565,#566,
#567,#568,#569,#570,#571,#572),.UNSPECIFIED.,.F.,.F.,(4,3,3,3,4),(-3.14159265358979,
-2.69279683325137,-2.24400101291295,-1.79520519257453,-1.68806558508037),
 .UNSPECIFIED.);
#42=FACE_OUTER_BOUND('',#52,.T.);
#43=FACE_OUTER_BOUND('',#53,.T.);
#44=FACE_OUTER_BOUND('',#54,.T.);
#45=FACE_OUTER_BOUND('',#55,.T.);
#46=FACE_OUTER_BOUND('',#56,.T.);
#47=FACE_OUTER_BOUND('',#57,.T.);
#48=FACE_OUTER_BOUND('',#60,.T.);
#49=FACE_OUTER_BOUND('',#62,.T.);
#50=FACE_OUTER_BOUND('',#64,.T.);
#51=FACE_OUTER_BOUND('',#65,.T.);
#52=EDGE_LOOP('',(#128,#129,#130,#131));
#53=EDGE_LOOP('',(#132,#133,#134,#135));
#54=EDGE_LOOP('',(#136,#137,#138,#139));
#55=EDGE_LOOP('',(#140,#141,#142,#143,#144,#145,#146,#147,#148,#149,#150,
#151));
#56=EDGE_LOOP('',(#152,#153,#154,#155));
#57=EDGE_LOOP('',(#156,#157,#158));
#58=EDGE_LOOP('',(#159));
#59=EDGE_LOOP('',(#160));
#60=EDGE_LOOP('',(#161,#162));
#61=EDGE_LOOP('',(#163));
#62=EDGE_LOOP('',(#164,#165));
#63=EDGE_LOOP('',(#166));
#64=EDGE_LOOP('',(#167,#168,#169,#170));
#65=EDGE_LOOP('',(#171,#172,#173));
#66=EDGE_LOOP('',(#174));
#67=EDGE_LOOP('',(#175));
#68=LINE('',#272,#76);
#69=LINE('',#278,#77);
#70=LINE('',#312,#78);
#71=LINE('',#345,#79);
#72=LINE('',#453,#80);
#73=LINE('',#574,#81);
#74=LINE('',#575,#82);
#75=LINE('',#584,#83);
#76=VECTOR('',#230,2.);
#77=VECTOR('',#237,2.);
#78=VECTOR('',#242,10.);
#79=VECTOR('',#243,10.);
#80=VECTOR('',#244,37.0033782241568);
#81=VECTOR('',#247,10.);
#82=VECTOR('',#248,10.);
#83=VECTOR('',#261,1.25);
#84=CIRCLE('',#207,2.);
#85=CIRCLE('',#208,2.);
#86=CIRCLE('',#210,2.);
#87=CIRCLE('',#211,2.);
#88=VERTEX_POINT('',#269);
#89=VERTEX_POINT('',#271);
#90=VERTEX_POINT('',#275);
#91=VERTEX_POINT('',#277);
#92=VERTEX_POINT('',#281);
#93=VERTEX_POINT('',#282);
#94=VERTEX_POINT('',#311);
#95=VERTEX_POINT('',#313);
#96=VERTEX_POINT('',#438);
#97=VERTEX_POINT('',#452);
#98=VERTEX_POINT('',#454);
#99=VERTEX_POINT('',#468);
#100=VERTEX_POINT('',#497);
#101=VERTEX_POINT('',#518);
#102=VERTEX_POINT('',#578);
#103=VERTEX_POINT('',#581);
#104=EDGE_CURVE('',#88,#88,#84,.T.);
#105=EDGE_CURVE('',#88,#89,#68,.T.);
#106=EDGE_CURVE('',#89,#89,#85,.T.);
#107=EDGE_CURVE('',#90,#90,#86,.T.);
#108=EDGE_CURVE('',#90,#91,#69,.T.);
#109=EDGE_CURVE('',#91,#91,#87,.T.);
#110=EDGE_CURVE('',#92,#93,#32,.T.);
#111=EDGE_CURVE('',#93,#94,#70,.T.);
#112=EDGE_CURVE('',#94,#95,#33,.T.);
#113=EDGE_CURVE('',#92,#95,#71,.T.);
#114=EDGE_CURVE('',#92,#95,#34,.T.);
#115=EDGE_CURVE('',#94,#96,#35,.T.);
#116=EDGE_CURVE('',#97,#96,#72,.T.);
#117=EDGE_CURVE('',#98,#97,#36,.T.);
#118=EDGE_CURVE('',#99,#98,#37,.T.);
#119=EDGE_CURVE('',#99,#100,#38,.T.);
#120=EDGE_CURVE('',#101,#100,#39,.T.);
#121=EDGE_CURVE('',#97,#101,#40,.T.);
#122=EDGE_CURVE('',#96,#93,#41,.T.);
#123=EDGE_CURVE('',#98,#101,#73,.T.);
#124=EDGE_CURVE('',#100,#99,#74,.T.);
#125=EDGE_CURVE('',#102,#102,#19,.T.);
#126=EDGE_CURVE('',#103,#103,#20,.T.);
#127=EDGE_CURVE('',#103,#102,#75,.T.);
#128=ORIENTED_EDGE('',*,*,#104,.F.);
#129=ORIENTED_EDGE('',*,*,#105,.T.);
#130=ORIENTED_EDGE('',*,*,#106,.F.);
#131=ORIENTED_EDGE('',*,*,#105,.F.);
#132=ORIENTED_EDGE('',*,*,#107,.F.);
#133=ORIENTED_EDGE('',*,*,#108,.T.);
#134=ORIENTED_EDGE('',*,*,#109,.F.);
#135=ORIENTED_EDGE('',*,*,#108,.F.);
#136=ORIENTED_EDGE('',*,*,#110,.T.);
#137=ORIENTED_EDGE('',*,*,#111,.T.);
#138=ORIENTED_EDGE('',*,*,#112,.T.);
#139=ORIENTED_EDGE('',*,*,#113,.F.);
#140=ORIENTED_EDGE('',*,*,#110,.F.);
#141=ORIENTED_EDGE('',*,*,#114,.T.);
#142=ORIENTED_EDGE('',*,*,#112,.F.);
#143=ORIENTED_EDGE('',*,*,#115,.T.);
#144=ORIENTED_EDGE('',*,*,#116,.F.);
#145=ORIENTED_EDGE('',*,*,#117,.F.);
#146=ORIENTED_EDGE('',*,*,#118,.F.);
#147=ORIENTED_EDGE('',*,*,#119,.T.);
#148=ORIENTED_EDGE('',*,*,#120,.F.);
#149=ORIENTED_EDGE('',*,*,#121,.F.);
#150=ORIENTED_EDGE('',*,*,#116,.T.);
#151=ORIENTED_EDGE('',*,*,#122,.T.);
#152=ORIENTED_EDGE('',*,*,#118,.T.);
#153=ORIENTED_EDGE('',*,*,#123,.T.);
#154=ORIENTED_EDGE('',*,*,#120,.T.);
#155=ORIENTED_EDGE('',*,*,#124,.T.);
#156=ORIENTED_EDGE('',*,*,#123,.F.);
#157=ORIENTED_EDGE('',*,*,#117,.T.);
#158=ORIENTED_EDGE('',*,*,#121,.T.);
#159=ORIENTED_EDGE('',*,*,#104,.T.);
#160=ORIENTED_EDGE('',*,*,#107,.T.);
#161=ORIENTED_EDGE('',*,*,#114,.F.);
#162=ORIENTED_EDGE('',*,*,#113,.T.);
#163=ORIENTED_EDGE('',*,*,#125,.F.);
#164=ORIENTED_EDGE('',*,*,#119,.F.);
#165=ORIENTED_EDGE('',*,*,#124,.F.);
#166=ORIENTED_EDGE('',*,*,#126,.F.);
#167=ORIENTED_EDGE('',*,*,#126,.T.);
#168=ORIENTED_EDGE('',*,*,#127,.T.);
#169=ORIENTED_EDGE('',*,*,#125,.T.);
#170=ORIENTED_EDGE('',*,*,#127,.F.);
#171=ORIENTED_EDGE('',*,*,#111,.F.);
#172=ORIENTED_EDGE('',*,*,#122,.F.);
#173=ORIENTED_EDGE('',*,*,#115,.F.);
#174=ORIENTED_EDGE('',*,*,#106,.T.);
#175=ORIENTED_EDGE('',*,*,#109,.T.);
#176=CYLINDRICAL_SURFACE('',#206,2.);
#177=CYLINDRICAL_SURFACE('',#209,2.);
#178=CYLINDRICAL_SURFACE('',#212,1.);
#179=CYLINDRICAL_SURFACE('',#213,1.);
#180=CYLINDRICAL_SURFACE('',#219,1.25);
#181=ADVANCED_FACE('',(#42),#176,.F.);
#182=ADVANCED_FACE('',(#43),#177,.F.);
#183=ADVANCED_FACE('',(#44),#178,.T.);
#184=ADVANCED_FACE('',(#45),#31,.F.);
#185=ADVANCED_FACE('',(#46),#179,.T.);
#186=ADVANCED_FACE('',(#47,#21,#22),#27,.T.);
#187=ADVANCED_FACE('',(#48,#23),#28,.F.);
#188=ADVANCED_FACE('',(#49,#24),#29,.F.);
#189=ADVANCED_FACE('',(#50),#180,.F.);
#190=ADVANCED_FACE('',(#51,#25,#26),#30,.F.);
#191=CLOSED_SHELL('',(#181,#182,#183,#184,#185,#186,#187,#188,#189,#190));
#192=DERIVED_UNIT_ELEMENT(#194,1.);
#193=DERIVED_UNIT_ELEMENT(#594,-3.);
#194=(
MASS_UNIT()
NAMED_UNIT(*)
SI_UNIT(.KILO.,.GRAM.)
);
#195=DERIVED_UNIT((#192,#193));
#196=MEASURE_REPRESENTATION_ITEM('density measure',
POSITIVE_RATIO_MEASURE(7850.),#195);
#197=PROPERTY_DEFINITION_REPRESENTATION(#202,#199);
#198=PROPERTY_DEFINITION_REPRESENTATION(#203,#200);
#199=REPRESENTATION('material name',(#201),#591);
#200=REPRESENTATION('density',(#196),#591);
#201=DESCRIPTIVE_REPRESENTATION_ITEM('Steel','Steel');
#202=PROPERTY_DEFINITION('material property','material name',#606);
#203=PROPERTY_DEFINITION('material property','density of part',#606);
#204=AXIS2_PLACEMENT_3D('',#266,#222,#223);
#205=AXIS2_PLACEMENT_3D('',#267,#224,#225);
#206=AXIS2_PLACEMENT_3D('',#268,#226,#227);
#207=AXIS2_PLACEMENT_3D('',#270,#228,#229);
#208=AXIS2_PLACEMENT_3D('',#273,#231,#232);
#209=AXIS2_PLACEMENT_3D('',#274,#233,#234);
#210=AXIS2_PLACEMENT_3D('',#276,#235,#236);
#211=AXIS2_PLACEMENT_3D('',#279,#238,#239);
#212=AXIS2_PLACEMENT_3D('',#280,#240,#241);
#213=AXIS2_PLACEMENT_3D('',#573,#245,#246);
#214=AXIS2_PLACEMENT_3D('',#576,#249,#250);
#215=AXIS2_PLACEMENT_3D('',#577,#251,#252);
#216=AXIS2_PLACEMENT_3D('',#579,#253,#254);
#217=AXIS2_PLACEMENT_3D('',#580,#255,#256);
#218=AXIS2_PLACEMENT_3D('',#582,#257,#258);
#219=AXIS2_PLACEMENT_3D('',#583,#259,#260);
#220=AXIS2_PLACEMENT_3D('',#585,#262,#263);
#221=AXIS2_PLACEMENT_3D('',#586,#264,#265);
#222=DIRECTION('axis',(0.,0.,1.));
#223=DIRECTION('refdir',(1.,0.,0.));
#224=DIRECTION('axis',(0.,0.,1.));
#225=DIRECTION('refdir',(1.,0.,0.));
#226=DIRECTION('center_axis',(0.,0.,-1.));
#227=DIRECTION('ref_axis',(-1.,0.,0.));
#228=DIRECTION('center_axis',(6.11682992487496E-32,3.245518479077E-31,-1.));
#229=DIRECTION('ref_axis',(-1.,0.,0.));
#230=DIRECTION('',(0.,0.,-1.));
#231=DIRECTION('center_axis',(0.,0.,1.));
#232=DIRECTION('ref_axis',(-1.,0.,0.));
#233=DIRECTION('center_axis',(0.,0.,-1.));
#234=DIRECTION('ref_axis',(-1.,0.,0.));
#235=DIRECTION('center_axis',(6.11682992487496E-32,3.245518479077E-31,-1.));
#236=DIRECTION('ref_axis',(-1.,0.,0.));
#237=DIRECTION('',(0.,0.,-1.));
#238=DIRECTION('center_axis',(0.,0.,1.));
#239=DIRECTION('ref_axis',(-1.,0.,0.));
#240=DIRECTION('center_axis',(0.,-1.,0.));
#241=DIRECTION('ref_axis',(0.707106781186555,0.,-0.70710678118654));
#242=DIRECTION('',(0.,1.,0.));
#243=DIRECTION('',(0.,1.,0.));
#244=DIRECTION('',(-0.0135122797970264,-1.86162097457162E-18,-0.999908704979953));
#245=DIRECTION('center_axis',(1.10011285540931E-61,1.,3.245518479077E-31));
#246=DIRECTION('ref_axis',(0.707106781186543,0.,0.707106781186553));
#247=DIRECTION('',(-1.10011285540931E-61,-1.,-3.245518479077E-31));
#248=DIRECTION('',(0.,1.,0.));
#249=DIRECTION('center_axis',(-6.11682992487496E-32,-3.245518479077E-31,
1.));
#250=DIRECTION('ref_axis',(1.,0.,6.11682992487496E-32));
#251=DIRECTION('center_axis',(-0.707106781186547,0.,0.707106781186548));
#252=DIRECTION('ref_axis',(0.707106781186548,0.,0.707106781186547));
#253=DIRECTION('center_axis',(0.707106781186547,0.,-0.707106781186548));
#254=DIRECTION('ref_axis',(-0.707106781186548,0.,-0.707106781186547));
#255=DIRECTION('center_axis',(-0.707106781186548,0.,-0.707106781186548));
#256=DIRECTION('ref_axis',(-0.707106781186548,0.,0.707106781186548));
#257=DIRECTION('center_axis',(0.707106781186548,0.,0.707106781186548));
#258=DIRECTION('ref_axis',(-0.707106781186547,0.,0.707106781186547));
#259=DIRECTION('center_axis',(0.,0.,-1.));
#260=DIRECTION('ref_axis',(-1.,0.,0.));
#261=DIRECTION('',(0.,0.,-1.));
#262=DIRECTION('center_axis',(0.,0.,1.));
#263=DIRECTION('ref_axis',(1.,0.,0.));
#264=DIRECTION('',(0.,0.,1.));
#265=DIRECTION('',(1.,0.,0.));
#266=CARTESIAN_POINT('',(0.,0.,0.));
#267=CARTESIAN_POINT('',(0.,0.,0.));
#268=CARTESIAN_POINT('Origin',(-4.49999999995468,-2.89285527710857,87.));
#269=CARTESIAN_POINT('',(-2.49999999995468,-2.89285527710857,87.));
#270=CARTESIAN_POINT('Origin',(-4.49999999995468,-2.89285527710857,87.));
#271=CARTESIAN_POINT('',(-2.49999999995468,-2.89285527710857,50.));
#272=CARTESIAN_POINT('',(-2.49999999995468,-2.89285527710857,87.));
#273=CARTESIAN_POINT('Origin',(-4.49999999995468,-2.89285527710857,50.));
#274=CARTESIAN_POINT('Origin',(-4.49999999993444,2.89285527710842,87.));
#275=CARTESIAN_POINT('',(-2.49999999993444,2.89285527710842,87.));
#276=CARTESIAN_POINT('Origin',(-4.49999999993444,2.89285527710842,87.));
#277=CARTESIAN_POINT('',(-2.49999999993444,2.89285527710842,50.));
#278=CARTESIAN_POINT('',(-2.49999999993444,2.89285527710842,87.));
#279=CARTESIAN_POINT('Origin',(-4.49999999993444,2.89285527710842,50.));
#280=CARTESIAN_POINT('Origin',(-1.,-1.03373777356162E-5,51.));
#281=CARTESIAN_POINT('',(-1.22464679914734E-16,-7.48648647641813,51.0000007450581));
#282=CARTESIAN_POINT('',(-0.999999999852407,-7.44787133719908,50.));
#283=CARTESIAN_POINT('Ctrl Pts',(-0.000525194852101674,-7.48596175953794,
51.0000007450581));
#284=CARTESIAN_POINT('Ctrl Pts',(-0.000525225903461114,-7.48677099828505,
50.9401218249957));
#285=CARTESIAN_POINT('Ctrl Pts',(-0.00590115124324919,-7.48758486907349,
50.8802239823938));
#286=CARTESIAN_POINT('Ctrl Pts',(-0.0166631308350091,-7.48836660487655,
50.8210370413966));
#287=CARTESIAN_POINT('Ctrl Pts',(-0.0281590372198828,-7.48920165214022,
50.7578137721913));
#288=CARTESIAN_POINT('Ctrl Pts',(-0.0456939995064258,-7.48999207210306,
50.6959857459173));
#289=CARTESIAN_POINT('Ctrl Pts',(-0.0689516820073348,-7.49063283093238,
50.6363837934585));
#290=CARTESIAN_POINT('Ctrl Pts',(-0.0910720023217581,-7.49124225496025,
50.5796965341109));
#291=CARTESIAN_POINT('Ctrl Pts',(-0.118369145828087,-7.49171529185415,50.5250229503701));
#292=CARTESIAN_POINT('Ctrl Pts',(-0.150567528509721,-7.49191806601639,50.4730778471904));
#293=CARTESIAN_POINT('Ctrl Pts',(-0.198941589338137,-7.49222270894693,50.3950367975577));
#294=CARTESIAN_POINT('Ctrl Pts',(-0.257725470125676,-7.49191074392594,50.3242070075563));
#295=CARTESIAN_POINT('Ctrl Pts',(-0.325147019315802,-7.49048403024625,50.2624731892296));
#296=CARTESIAN_POINT('Ctrl Pts',(-0.355565373549023,-7.48984034462022,50.2346209494548));
#297=CARTESIAN_POINT('Ctrl Pts',(-0.38774148707649,-7.48896911334886,50.2086202069275));
#298=CARTESIAN_POINT('Ctrl Pts',(-0.421510224587528,-7.48782394160212,50.1846440452648));
#299=CARTESIAN_POINT('Ctrl Pts',(-0.476753262014861,-7.48595052937742,50.1454209029825));
#300=CARTESIAN_POINT('Ctrl Pts',(-0.535710726029008,-7.483359186464,50.1120034873971));
#301=CARTESIAN_POINT('Ctrl Pts',(-0.597445974341174,-7.47991288296628,50.084820544419));
#302=CARTESIAN_POINT('Ctrl Pts',(-0.637220516425867,-7.47769251215293,50.0673072252208));
#303=CARTESIAN_POINT('Ctrl Pts',(-0.678147915942826,-7.47511807227333,50.052381783431));
#304=CARTESIAN_POINT('Ctrl Pts',(-0.719976406353467,-7.47216458829931,50.0401588801108));
#305=CARTESIAN_POINT('Ctrl Pts',(-0.778191208550135,-7.46805407693132,50.0231476542199));
#306=CARTESIAN_POINT('Ctrl Pts',(-0.837699914347152,-7.4632387082716,50.0115028949206));
#307=CARTESIAN_POINT('Ctrl Pts',(-0.897767408592208,-7.45772265650856,50.0052971181145));
#308=CARTESIAN_POINT('Ctrl Pts',(-0.931906008243174,-7.45458767834509,50.0017701434576));
#309=CARTESIAN_POINT('Ctrl Pts',(-0.966225130714793,-7.45122729475544,49.9999999999992));
#310=CARTESIAN_POINT('Ctrl Pts',(-1.00059037497706,-7.44764981003885,50.));
#311=CARTESIAN_POINT('',(-0.999999999988895,7.44787133717051,50.));
#312=CARTESIAN_POINT('',(-1.,-1.03373777356162E-5,50.));
#313=CARTESIAN_POINT('',(-1.22464679914734E-16,7.48648647641813,51.0000007450581));
#314=CARTESIAN_POINT('Ctrl Pts',(-0.998978858499241,7.44796591778501,50.));
#315=CARTESIAN_POINT('Ctrl Pts',(-0.938901374772319,7.45421696801615,50.0000000000013));
#316=CARTESIAN_POINT('Ctrl Pts',(-0.878917503413418,7.4598059777228,50.0054139692894));
#317=CARTESIAN_POINT('Ctrl Pts',(-0.819751189154946,7.46469651575621,50.0161985345679));
#318=CARTESIAN_POINT('Ctrl Pts',(-0.809356711046123,7.46555569705161,50.0180931925182));
#319=CARTESIAN_POINT('Ctrl Pts',(-0.798987477348565,7.46639345013276,50.0201536101217));
#320=CARTESIAN_POINT('Ctrl Pts',(-0.788647425723139,7.4672097415848,50.0223795521948));
#321=CARTESIAN_POINT('Ctrl Pts',(-0.725069970503506,7.47222883966271,50.0360661117593));
#322=CARTESIAN_POINT('Ctrl Pts',(-0.663052586145812,7.47639592027172,50.0559126942089));
#323=CARTESIAN_POINT('Ctrl Pts',(-0.603449185402855,7.47977349856716,50.0816118234934));
#324=CARTESIAN_POINT('Ctrl Pts',(-0.566568226758612,7.48186345188994,50.0975137437282));
#325=CARTESIAN_POINT('Ctrl Pts',(-0.530611520586009,7.48365229381832,50.1156564852463));
#326=CARTESIAN_POINT('Ctrl Pts',(-0.495780740323415,7.48516465583246,50.1359672022041));
#327=CARTESIAN_POINT('Ctrl Pts',(-0.421209457236403,7.48840256135844,50.1794516206565));
#328=CARTESIAN_POINT('Ctrl Pts',(-0.352688134172876,7.49033277432681,50.2323493693839));
#329=CARTESIAN_POINT('Ctrl Pts',(-0.291873767963849,7.49134571892901,50.2932527154534));
#330=CARTESIAN_POINT('Ctrl Pts',(-0.264188313756394,7.4918068571953,50.3209786773239));
#331=CARTESIAN_POINT('Ctrl Pts',(-0.238099736352714,7.49207859587092,50.3503637854775));
#332=CARTESIAN_POINT('Ctrl Pts',(-0.213762516312143,7.49219930728038,50.3812752219943));
#333=CARTESIAN_POINT('Ctrl Pts',(-0.171715706411133,7.49240785738092,50.4346801422286));
#334=CARTESIAN_POINT('Ctrl Pts',(-0.135320372963136,7.49216682810215,50.492104391259));
#335=CARTESIAN_POINT('Ctrl Pts',(-0.105058933163394,7.49167934077854,50.5526084244364));
#336=CARTESIAN_POINT('Ctrl Pts',(-0.0764754827087108,7.49121888450634,50.6097575239531));
#337=CARTESIAN_POINT('Ctrl Pts',(-0.0533642806192169,7.49053911612311,50.6696543304152));
#338=CARTESIAN_POINT('Ctrl Pts',(-0.0361261082092774,7.48976876151519,50.7315070855276));
#339=CARTESIAN_POINT('Ctrl Pts',(-0.0199979969171725,7.48904801429469,50.7893768001616));
#340=CARTESIAN_POINT('Ctrl Pts',(-0.00915504417293043,7.48825503616501,
50.8484439999105));
#341=CARTESIAN_POINT('Ctrl Pts',(-0.00365346711903936,7.4874528837362,50.9079841876432));
#342=CARTESIAN_POINT('Ctrl Pts',(-0.000827829877719167,7.48704089427321,
50.9385643231507));
#343=CARTESIAN_POINT('Ctrl Pts',(0.000588825353479585,7.486625652709,50.9692692281825));
#344=CARTESIAN_POINT('Ctrl Pts',(0.000588955379964284,7.48621033899368,
51.0000007450581));
#345=CARTESIAN_POINT('',(-1.22464679914734E-16,0.,51.0000007450581));
#346=CARTESIAN_POINT('Ctrl Pts',(-8.,-8.41944674413805E-16,87.));
#347=CARTESIAN_POINT('Ctrl Pts',(-8.16666666666667,-8.64906801897818E-16,
74.6666666666667));
#348=CARTESIAN_POINT('Ctrl Pts',(-8.33333333333333,-8.87868929381831E-16,
62.3333333333333));
#349=CARTESIAN_POINT('Ctrl Pts',(-8.5,-9.10831056865844E-16,50.));
#350=CARTESIAN_POINT('Ctrl Pts',(-8.,-1.02849759492523,87.));
#351=CARTESIAN_POINT('Ctrl Pts',(-8.16688567321175,-1.05657087663662,74.6666666666667));
#352=CARTESIAN_POINT('Ctrl Pts',(-8.33311432678825,-1.08457411643499,62.3333333333333));
#353=CARTESIAN_POINT('Ctrl Pts',(-8.5,-1.11264739814639,50.));
#354=CARTESIAN_POINT('Ctrl Pts',(-7.47300599050672,-3.09029610353351,87.));
#355=CARTESIAN_POINT('Ctrl Pts',(-7.62453923200588,-3.17418146021633,74.6666666666666));
#356=CARTESIAN_POINT('Ctrl Pts',(-7.77626749174577,-3.25816466059863,62.3333333333333));
#357=CARTESIAN_POINT('Ctrl Pts',(-7.92780073324493,-3.34205001728144,50.));
#358=CARTESIAN_POINT('Ctrl Pts',(-5.21642966414242,-5.62217625493898,87.));
#359=CARTESIAN_POINT('Ctrl Pts',(-5.31476049109313,-5.76323651484441,74.6666666666667));
#360=CARTESIAN_POINT('Ctrl Pts',(-5.41282561458269,-5.90421056869582,62.3333333333333));
#361=CARTESIAN_POINT('Ctrl Pts',(-5.51115644153339,-6.04527082860125,50.));
#362=CARTESIAN_POINT('Ctrl Pts',(-1.8673659218965,-7.05916948772154,87.));
#363=CARTESIAN_POINT('Ctrl Pts',(-1.90076889052449,-7.22695383993745,74.6666666666666));
#364=CARTESIAN_POINT('Ctrl Pts',(-1.93432790193602,-7.39475901950655,62.3333333333333));
#365=CARTESIAN_POINT('Ctrl Pts',(-1.96773087056401,-7.56254337172246,50.));
#366=CARTESIAN_POINT('Ctrl Pts',(1.86651844894563,-7.05952323417973,87.));
#367=CARTESIAN_POINT('Ctrl Pts',(1.89988732613831,-7.22732783137864,74.6666666666666));
#368=CARTESIAN_POINT('Ctrl Pts',(1.93340504788209,-7.39511754831893,62.3333333333333));
#369=CARTESIAN_POINT('Ctrl Pts',(1.96677392507477,-7.56292214551784,50.));
#370=CARTESIAN_POINT('Ctrl Pts',(5.21477981070756,-5.62077188648099,87.));
#371=CARTESIAN_POINT('Ctrl Pts',(5.31322423267649,-5.76179494640333,74.6666666666666));
#372=CARTESIAN_POINT('Ctrl Pts',(5.41129227991776,-5.90286405921158,62.3333333333333));
#373=CARTESIAN_POINT('Ctrl Pts',(5.50973670188669,-6.04388711913391,50.));
#374=CARTESIAN_POINT('Ctrl Pts',(7.22136196017742,-3.3703912234606,87.));
#375=CARTESIAN_POINT('Ctrl Pts',(7.3667752038025,-3.46069487691451,74.6666666666667));
#376=CARTESIAN_POINT('Ctrl Pts',(7.51242042259195,-3.55103449858515,62.3333333333333));
#377=CARTESIAN_POINT('Ctrl Pts',(7.65783366621703,-3.64133815203906,50.));
#378=CARTESIAN_POINT('Ctrl Pts',(8.26136493779561,-0.371530028430863,87.));
#379=CARTESIAN_POINT('Ctrl Pts',(8.43545357386405,-0.382374715284727,74.6666666666666));
#380=CARTESIAN_POINT('Ctrl Pts',(8.60889267595444,-0.393513741800227,62.3333333333333));
#381=CARTESIAN_POINT('Ctrl Pts',(8.78298131202288,-0.404358428654091,50.));
#382=CARTESIAN_POINT('Ctrl Pts',(7.78872439869298,2.4523702529197,87.));
#383=CARTESIAN_POINT('Ctrl Pts',(7.94870356499984,2.5201460208195,74.6666666666667));
#384=CARTESIAN_POINT('Ctrl Pts',(8.10894177386429,2.58796753396156,62.3333333333333));
#385=CARTESIAN_POINT('Ctrl Pts',(8.26892094017114,2.65574330186135,50.));
#386=CARTESIAN_POINT('Ctrl Pts',(5.99616301911254,4.78857809888666,87.));
#387=CARTESIAN_POINT('Ctrl Pts',(6.11255822605136,4.91112092630925,74.6666666666666));
#388=CARTESIAN_POINT('Ctrl Pts',(6.22928227831963,5.03373097281163,62.3333333333333));
#389=CARTESIAN_POINT('Ctrl Pts',(6.34567748525846,5.15627380023422,50.));
#390=CARTESIAN_POINT('Ctrl Pts',(4.11004834840222,6.12914828319439,87.));
#391=CARTESIAN_POINT('Ctrl Pts',(4.18682394802983,6.27961686513348,74.6666666666667));
#392=CARTESIAN_POINT('Ctrl Pts',(4.26368803894655,6.43009260268392,62.3333333333333));
#393=CARTESIAN_POINT('Ctrl Pts',(4.34046363857416,6.58056118462301,50.));
#394=CARTESIAN_POINT('Ctrl Pts',(1.45165877891074,7.059410241669,87.));
#395=CARTESIAN_POINT('Ctrl Pts',(1.47762519694941,7.22719890532799,74.6666666666666));
#396=CARTESIAN_POINT('Ctrl Pts',(1.50389395713374,7.39502359400008,62.3333333333333));
#397=CARTESIAN_POINT('Ctrl Pts',(1.52986037517242,7.56281225765907,50.));
#398=CARTESIAN_POINT('Ctrl Pts',(-1.86623902254706,7.05966135939144,87.));
#399=CARTESIAN_POINT('Ctrl Pts',(-1.89967313432977,7.22744548593391,74.6666666666666));
#400=CARTESIAN_POINT('Ctrl Pts',(-1.93307249099199,7.39529535170577,62.3333333333333));
#401=CARTESIAN_POINT('Ctrl Pts',(-1.96650660277469,7.56307947824824,50.));
#402=CARTESIAN_POINT('Ctrl Pts',(-5.21432314568666,5.62145241560617,87.));
#403=CARTESIAN_POINT('Ctrl Pts',(-5.31261765883078,5.76252290413783,74.6666666666667));
#404=CARTESIAN_POINT('Ctrl Pts',(-5.41061104110522,5.9035981308808,62.3333333333333));
#405=CARTESIAN_POINT('Ctrl Pts',(-5.50890555424934,6.04466861941247,50.));
#406=CARTESIAN_POINT('Ctrl Pts',(-7.47431154653127,3.0882717090196,87.));
#407=CARTESIAN_POINT('Ctrl Pts',(-7.62589776657862,3.17211528339758,74.6666666666667));
#408=CARTESIAN_POINT('Ctrl Pts',(-7.77760526805572,3.25604287111339,62.3333333333333));
#409=CARTESIAN_POINT('Ctrl Pts',(-7.92919148810307,3.33988644549137,50.));
#410=CARTESIAN_POINT('Ctrl Pts',(-8.,1.02849759492523,87.));
#411=CARTESIAN_POINT('Ctrl Pts',(-8.16685842952842,1.05658867718331,74.6666666666667));
#412=CARTESIAN_POINT('Ctrl Pts',(-8.33314157047158,1.08455631588831,62.3333333333333));
#413=CARTESIAN_POINT('Ctrl Pts',(-8.5,1.11264739814639,50.));
#414=CARTESIAN_POINT('Ctrl Pts',(-8.,8.41944674413805E-16,87.));
#415=CARTESIAN_POINT('Ctrl Pts',(-8.16666666666667,8.64906801897818E-16,
74.6666666666667));
#416=CARTESIAN_POINT('Ctrl Pts',(-8.33333333333333,8.87868929381831E-16,
62.3333333333333));
#417=CARTESIAN_POINT('Ctrl Pts',(-8.5,9.10831056865844E-16,50.));
#418=CARTESIAN_POINT('Ctrl Pts',(-8.32667268468867E-16,-7.48648647641813,
51.000000745058));
#419=CARTESIAN_POINT('Ctrl Pts',(1.26799187850747,-7.4693514510329,52.2679926235655));
#420=CARTESIAN_POINT('Ctrl Pts',(2.55507074523508,-7.20131927571984,53.5550714902931));
#421=CARTESIAN_POINT('Ctrl Pts',(4.63913721482854,-6.25729678207021,55.6391379598866));
#422=CARTESIAN_POINT('Ctrl Pts',(5.50822246243062,-5.69042715029233,56.5082232074887));
#423=CARTESIAN_POINT('Ctrl Pts',(6.76325257856766,-4.42997090370064,57.7632533236257));
#424=CARTESIAN_POINT('Ctrl Pts',(7.22370365483605,-3.8321100455522,58.2237043998941));
#425=CARTESIAN_POINT('Ctrl Pts',(7.86528019079662,-2.61083524504496,58.8652809358547));
#426=CARTESIAN_POINT('Ctrl Pts',(8.085634091249,-2.0308457101896,59.0856348363078));
#427=CARTESIAN_POINT('Ctrl Pts',(8.34975701313124,-0.817033970335245,59.34975775819));
#428=CARTESIAN_POINT('Ctrl Pts',(8.39855241738815,-0.210466842311132,59.3985531623666));
#429=CARTESIAN_POINT('Ctrl Pts',(8.3202209688478,1.06810569826117,59.3202217138263));
#430=CARTESIAN_POINT('Ctrl Pts',(8.17969212490908,1.70464055269048,59.1796928699671));
#431=CARTESIAN_POINT('Ctrl Pts',(7.66982413015747,3.09263299508165,58.6698248752155));
#432=CARTESIAN_POINT('Ctrl Pts',(7.24925614059257,3.78558560976359,58.2492568856506));
#433=CARTESIAN_POINT('Ctrl Pts',(6.12238892143062,5.1625225463237,57.1223896664887));
#434=CARTESIAN_POINT('Ctrl Pts',(5.30697695427971,5.83470963876497,56.3069776993378));
#435=CARTESIAN_POINT('Ctrl Pts',(3.05339636738268,7.07392151913126,54.0533971124407));
#436=CARTESIAN_POINT('Ctrl Pts',(1.54342340923075,7.46562940332042,52.5434241542888));
#437=CARTESIAN_POINT('Ctrl Pts',(-4.16333634234434E-15,7.48648647641813,
51.0000007450581));
#438=CARTESIAN_POINT('',(-8.5,-9.10830939445902E-16,50.));
#439=CARTESIAN_POINT('Ctrl Pts',(-0.998978858509046,7.44796591778399,50.));
#440=CARTESIAN_POINT('Ctrl Pts',(-1.30231068132797,7.41640430195821,50.));
#441=CARTESIAN_POINT('Ctrl Pts',(-1.60368375157842,7.37040535475856,50.));
#442=CARTESIAN_POINT('Ctrl Pts',(-1.90133761965538,7.30996089791514,50.));
#443=CARTESIAN_POINT('Ctrl Pts',(-3.14730625326624,7.05694252530298,50.));
#444=CARTESIAN_POINT('Ctrl Pts',(-4.32810590375779,6.55080557235772,50.));
#445=CARTESIAN_POINT('Ctrl Pts',(-5.32188671797919,5.84694006689824,50.));
#446=CARTESIAN_POINT('Ctrl Pts',(-6.31566753220058,5.14307456143877,50.));
#447=CARTESIAN_POINT('Ctrl Pts',(-7.12242951015183,4.24148050346507,50.));
#448=CARTESIAN_POINT('Ctrl Pts',(-7.66851262710168,3.23387371264197,50.));
#449=CARTESIAN_POINT('Ctrl Pts',(-8.21459574405153,2.22626692181888,50.));
#450=CARTESIAN_POINT('Ctrl Pts',(-8.5,1.11264739814639,50.));
#451=CARTESIAN_POINT('Ctrl Pts',(-8.5,1.11022302462516E-15,50.));
#452=CARTESIAN_POINT('',(-8.,-8.41944674413805E-16,87.));
#453=CARTESIAN_POINT('',(-8.,-8.41944674413805E-16,87.));
#454=CARTESIAN_POINT('',(-0.999999999999997,6.94499079231823,87.));
#455=CARTESIAN_POINT('Ctrl Pts',(-0.999162263632189,6.94506790130346,87.));
#456=CARTESIAN_POINT('Ctrl Pts',(-1.26909556443549,6.91542606936527,87.));
#457=CARTESIAN_POINT('Ctrl Pts',(-1.53723619097683,6.87370993991612,87.));
#458=CARTESIAN_POINT('Ctrl Pts',(-1.80214720529699,6.81991278418761,87.));
#459=CARTESIAN_POINT('Ctrl Pts',(-2.98226706359359,6.58025837812969,87.));
#460=CARTESIAN_POINT('Ctrl Pts',(-4.09829510464013,6.10085539686793,87.));
#461=CARTESIAN_POINT('Ctrl Pts',(-5.0329738586375,5.43895712180595,87.));
#462=CARTESIAN_POINT('Ctrl Pts',(-5.96765261263486,4.77705884674398,87.));
#463=CARTESIAN_POINT('Ctrl Pts',(-6.72098207958307,3.93266527788178,87.));
#464=CARTESIAN_POINT('Ctrl Pts',(-7.22906892642435,2.9955249649271,87.));
#465=CARTESIAN_POINT('Ctrl Pts',(-7.73715577326564,2.05838465197241,87.));
#466=CARTESIAN_POINT('Ctrl Pts',(-8.,1.02849759492523,87.));
#467=CARTESIAN_POINT('Ctrl Pts',(-8.,5.55111512312578E-16,87.));
#468=CARTESIAN_POINT('',(-3.38963670212154E-31,7.01351349599458,86.000001296401));
#469=CARTESIAN_POINT('Ctrl Pts',(0.000446099935038635,7.01317147011089,
86.000001296401));
#470=CARTESIAN_POINT('Ctrl Pts',(0.000446033692388898,7.01248843709199,
86.0505429468035));
#471=CARTESIAN_POINT('Ctrl Pts',(-0.00338542421221781,7.01180718210357,
86.1011251459609));
#472=CARTESIAN_POINT('Ctrl Pts',(-0.0110667807353235,7.01111922562625,86.1513097388445));
#473=CARTESIAN_POINT('Ctrl Pts',(-0.0206226892559191,7.01026338080983,86.2137413389527));
#474=CARTESIAN_POINT('Ctrl Pts',(-0.0360493286379834,7.0094062536837,86.2749843371211));
#475=CARTESIAN_POINT('Ctrl Pts',(-0.0570624271112583,7.00847386139008,86.3342431100011));
#476=CARTESIAN_POINT('Ctrl Pts',(-0.0780755255845333,7.00754146909647,86.3935018828811));
#477=CARTESIAN_POINT('Ctrl Pts',(-0.104675226482847,7.00653313226166,86.4507764304728));
#478=CARTESIAN_POINT('Ctrl Pts',(-0.136575692485358,7.00532148249132,86.5052711294278));
#479=CARTESIAN_POINT('Ctrl Pts',(-0.181318380197541,7.00362205693163,86.5817038466527));
#480=CARTESIAN_POINT('Ctrl Pts',(-0.235900569127393,7.00154242745033,86.6516645643846));
#481=CARTESIAN_POINT('Ctrl Pts',(-0.298755163114182,6.99866229667899,86.7134280215815));
#482=CARTESIAN_POINT('Ctrl Pts',(-0.330480866887257,6.99720855766194,86.744602976708));
#483=CARTESIAN_POINT('Ctrl Pts',(-0.364313865427952,6.99554990226061,86.7736895148454));
#484=CARTESIAN_POINT('Ctrl Pts',(-0.400050694954187,6.99363011274895,86.8004657767471));
#485=CARTESIAN_POINT('Ctrl Pts',(-0.454823290216746,6.99068771815755,86.8415048217666));
#486=CARTESIAN_POINT('Ctrl Pts',(-0.513510444495276,6.98715835574878,86.8767047820365));
#487=CARTESIAN_POINT('Ctrl Pts',(-0.575174116283811,6.98289668614186,86.905604732445));
#488=CARTESIAN_POINT('Ctrl Pts',(-0.617012616734061,6.98000516410634,86.9252132077937));
#489=CARTESIAN_POINT('Ctrl Pts',(-0.660221240644687,6.97677728752818,86.9419214381387));
#490=CARTESIAN_POINT('Ctrl Pts',(-0.704506101499583,6.97318164024958,86.9555854539601));
#491=CARTESIAN_POINT('Ctrl Pts',(-0.761678786433765,6.96853958413775,86.9732259852029));
#492=CARTESIAN_POINT('Ctrl Pts',(-0.820192666462691,6.96331890008098,86.9856549840069));
#493=CARTESIAN_POINT('Ctrl Pts',(-0.879339531283598,6.95751971503153,86.9927948907528));
#494=CARTESIAN_POINT('Ctrl Pts',(-0.919065972492247,6.95362464832559,86.9975904633742));
#495=CARTESIAN_POINT('Ctrl Pts',(-0.959078006938313,6.9494696212718,86.9999999999992));
#496=CARTESIAN_POINT('Ctrl Pts',(-0.99916226361308,6.94506790130556,87.));
#497=CARTESIAN_POINT('',(-3.38963670212154E-31,-7.01351349599458,86.000001296401));
#498=CARTESIAN_POINT('Ctrl Pts',(-2.77555756156289E-15,7.01351349599458,
86.000001296401));
#499=CARTESIAN_POINT('Ctrl Pts',(1.39902467324051,7.03241923482215,84.6009766231605));
#500=CARTESIAN_POINT('Ctrl Pts',(2.77986999231075,6.730073932112,83.2201313040903));
#501=CARTESIAN_POINT('Ctrl Pts',(4.80636310902675,5.7438682673677,81.1936381873743));
#502=CARTESIAN_POINT('Ctrl Pts',(5.58904017473102,5.20534684392668,80.41096112167));
#503=CARTESIAN_POINT('Ctrl Pts',(6.71556087431484,4.02176151530916,79.2844404220862));
#504=CARTESIAN_POINT('Ctrl Pts',(7.12737595991678,3.46222141732932,78.8726253364842));
#505=CARTESIAN_POINT('Ctrl Pts',(7.69838162867781,2.31974223436729,78.3016196677232));
#506=CARTESIAN_POINT('Ctrl Pts',(7.89218357901087,1.77576996370178,78.1078177173906));
#507=CARTESIAN_POINT('Ctrl Pts',(8.11673205232968,0.633373814268511,77.8832692440718));
#508=CARTESIAN_POINT('Ctrl Pts',(8.1499613755353,0.0607080210983083,77.8500399207387));
#509=CARTESIAN_POINT('Ctrl Pts',(8.04892558645947,-1.14444788867679,77.9510757098145));
#510=CARTESIAN_POINT('Ctrl Pts',(7.90126338875321,-1.74290698965581,78.0987379076478));
#511=CARTESIAN_POINT('Ctrl Pts',(7.39533003986314,-3.02262962912327,78.6046712565379));
#512=CARTESIAN_POINT('Ctrl Pts',(6.99460281396052,-3.65346690022084,79.0053984824405));
#513=CARTESIAN_POINT('Ctrl Pts',(5.90942594463358,-4.93266254379581,80.0905753517675));
#514=CARTESIAN_POINT('Ctrl Pts',(5.11384686052667,-5.56119465909915,80.8861544358744));
#515=CARTESIAN_POINT('Ctrl Pts',(2.92830694301322,-6.69631223229737,83.0716943533878));
#516=CARTESIAN_POINT('Ctrl Pts',(1.4750542305666,-7.03344666127251,84.5249470658344));
#517=CARTESIAN_POINT('Ctrl Pts',(-2.77555756156289E-16,-7.01351349599458,
86.000001296401));
#518=CARTESIAN_POINT('',(-0.999999999778246,-6.94499079236721,87.));
#519=CARTESIAN_POINT('Ctrl Pts',(-1.00060786034697,-6.94478849329714,87.));
#520=CARTESIAN_POINT('Ctrl Pts',(-0.940117607899456,-6.95143291824295,86.999999999999));
#521=CARTESIAN_POINT('Ctrl Pts',(-0.879696916472517,-6.9575238145167,86.9945151107926));
#522=CARTESIAN_POINT('Ctrl Pts',(-0.820085566128701,-6.96301943902992,86.9835810031261));
#523=CARTESIAN_POINT('Ctrl Pts',(-0.757992860189343,-6.96874382196847,86.9721917571498));
#524=CARTESIAN_POINT('Ctrl Pts',(-0.697176386230661,-6.97378607301337,86.9549639945259));
#525=CARTESIAN_POINT('Ctrl Pts',(-0.638435461105783,-6.97818488951071,86.932154176935));
#526=CARTESIAN_POINT('Ctrl Pts',(-0.597571711907793,-6.98124497298288,86.9162862847745));
#527=CARTESIAN_POINT('Ctrl Pts',(-0.557712479839044,-6.98399494807087,86.8977169921831));
#528=CARTESIAN_POINT('Ctrl Pts',(-0.519126851004762,-6.98646256918061,86.8765326397022));
#529=CARTESIAN_POINT('Ctrl Pts',(-0.446558696965887,-6.99110343455487,86.8366911391101));
#530=CARTESIAN_POINT('Ctrl Pts',(-0.379334844163231,-6.99469038184319,86.7880573554547));
#531=CARTESIAN_POINT('Ctrl Pts',(-0.31894413041107,-6.99754298619286,86.7318238706855));
#532=CARTESIAN_POINT('Ctrl Pts',(-0.288415256729025,-6.99898504230456,86.7033965704177));
#533=CARTESIAN_POINT('Ctrl Pts',(-0.259632367571459,-7.00024037387266,86.6730271425898));
#534=CARTESIAN_POINT('Ctrl Pts',(-0.23278633121051,-7.00135324925519,86.6408696543665));
#535=CARTESIAN_POINT('Ctrl Pts',(-0.188924849607904,-7.00317148277245,86.5883302381514));
#536=CARTESIAN_POINT('Ctrl Pts',(-0.150679414522292,-7.00459440377072,86.5315506602729));
#537=CARTESIAN_POINT('Ctrl Pts',(-0.118566636065505,-7.00581872101964,86.4714743834005));
#538=CARTESIAN_POINT('Ctrl Pts',(-0.088620575212871,-7.00696043097441,86.4154515809688));
#539=CARTESIAN_POINT('Ctrl Pts',(-0.0640072870507326,-7.00792999607348,
86.3565619419738));
#540=CARTESIAN_POINT('Ctrl Pts',(-0.0451423272493325,-7.00884606108346,
86.2955705522829));
#541=CARTESIAN_POINT('Ctrl Pts',(-0.0275716427857498,-7.00969927727941,
86.2387636216276));
#542=CARTESIAN_POINT('Ctrl Pts',(-0.0151439924196192,-7.01049925413352,
86.1806380288558));
#543=CARTESIAN_POINT('Ctrl Pts',(-0.00793231170981135,-7.01129909950758,
86.1218947502955));
#544=CARTESIAN_POINT('Ctrl Pts',(-0.00297073729130354,-7.01184938625854,
86.0814798789372));
#545=CARTESIAN_POINT('Ctrl Pts',(-0.000478035984196807,-7.01239857033612,
86.0407726370134));
#546=CARTESIAN_POINT('Ctrl Pts',(-0.000477944176749734,-7.01294957808087,
86.000001296401));
#547=CARTESIAN_POINT('Ctrl Pts',(-8.,-8.41944674413805E-16,87.));
#548=CARTESIAN_POINT('Ctrl Pts',(-8.,-1.02849759492523,87.));
#549=CARTESIAN_POINT('Ctrl Pts',(-7.73650299525336,-2.05939684922937,87.));
#550=CARTESIAN_POINT('Ctrl Pts',(-7.22865843848599,-2.99682650161569,87.));
#551=CARTESIAN_POINT('Ctrl Pts',(-6.72081388171862,-3.934256154002,87.));
#552=CARTESIAN_POINT('Ctrl Pts',(-5.96862177293052,-4.77821620447049,87.));
#553=CARTESIAN_POINT('Ctrl Pts',(-5.03434842816215,-5.43969510183516,87.));
#554=CARTESIAN_POINT('Ctrl Pts',(-4.10007508339378,-6.10117399919983,87.));
#555=CARTESIAN_POINT('Ctrl Pts',(-2.98372050264514,-6.58017174346069,87.));
#556=CARTESIAN_POINT('Ctrl Pts',(-1.8032291504638,-6.81972957333415,87.));
#557=CARTESIAN_POINT('Ctrl Pts',(-1.53843269413561,-6.87346487966989,87.));
#558=CARTESIAN_POINT('Ctrl Pts',(-1.27040918693388,-6.91515273229654,87.));
#559=CARTESIAN_POINT('Ctrl Pts',(-1.00060786013882,-6.94478849332001,87.));
#560=CARTESIAN_POINT('Ctrl Pts',(-8.5,-5.86568282441604E-16,50.));
#561=CARTESIAN_POINT('Ctrl Pts',(-8.49999999999999,-1.11264739814639,50.0000000000005));
#562=CARTESIAN_POINT('Ctrl Pts',(-8.21390036662245,-2.22734870771391,50.0000000000011));
#563=CARTESIAN_POINT('Ctrl Pts',(-7.66807650131509,-3.2352361643843,50.0000000000016));
#564=CARTESIAN_POINT('Ctrl Pts',(-7.12225263600773,-4.24312362105469,50.0000000000022));
#565=CARTESIAN_POINT('Ctrl Pts',(-6.31670453877054,-5.14419722482796,50.0000000000027));
#566=CARTESIAN_POINT('Ctrl Pts',(-5.32335956165706,-5.84761278390145,50.0000000000032));
#567=CARTESIAN_POINT('Ctrl Pts',(-4.33001458454357,-6.55102834297495,50.0000000000038));
#568=CARTESIAN_POINT('Ctrl Pts',(-3.14887272755379,-7.05678585734867,50.0000000000043));
#569=CARTESIAN_POINT('Ctrl Pts',(-1.90255099978577,-7.30972774350143,50.0000000000049));
#570=CARTESIAN_POINT('Ctrl Pts',(-1.60502055348211,-7.37011176040426,50.000000000005));
#571=CARTESIAN_POINT('Ctrl Pts',(-1.30377547351796,-7.41608768733583,50.0000000000051));
#572=CARTESIAN_POINT('Ctrl Pts',(-1.00059037479439,-7.4476498100578,50.0000000000053));
#573=CARTESIAN_POINT('Origin',(-1.,-9.70930850283565E-6,86.));
#574=CARTESIAN_POINT('',(-1.,-9.70930850283565E-6,87.));
#575=CARTESIAN_POINT('',(-3.38963670212154E-31,0.,86.000001296401));
#576=CARTESIAN_POINT('Origin',(-0.727301328562939,-1.94186170056713E-5,
87.));
#577=CARTESIAN_POINT('Origin',(-1.22464679914734E-16,0.,51.0000007450581));
#578=CARTESIAN_POINT('',(5.25,-1.81694929988442E-13,56.2500007450581));
#579=CARTESIAN_POINT('Origin',(4.,-1.81541849138548E-13,55.0000007450581));
#580=CARTESIAN_POINT('Origin',(8.92588691547152,0.,77.0741143809295));
#581=CARTESIAN_POINT('',(5.25,-1.81388768288655E-13,80.750001296401));
#582=CARTESIAN_POINT('Origin',(4.,-1.81541849138548E-13,82.000001296401));
#583=CARTESIAN_POINT('Origin',(4.,-1.81541849138548E-13,87.));
#584=CARTESIAN_POINT('',(5.25,-1.81694929988442E-13,87.));
#585=CARTESIAN_POINT('Origin',(-0.772758380211779,-2.06747554712323E-5,
50.));
#586=CARTESIAN_POINT('',(0.,0.,0.));
#587=UNCERTAINTY_MEASURE_WITH_UNIT(LENGTH_MEASURE(0.01),#593,
'DISTANCE_ACCURACY_VALUE',
'Maximum model space distance between geometric entities at asserted c
onnectivities');
#588=UNCERTAINTY_MEASURE_WITH_UNIT(LENGTH_MEASURE(0.01),#593,
'DISTANCE_ACCURACY_VALUE',
'Maximum model space distance between geometric entities at asserted c
onnectivities');
#589=UNCERTAINTY_MEASURE_WITH_UNIT(LENGTH_MEASURE(0.01),#593,
'DISTANCE_ACCURACY_VALUE',
'Maximum model space distance between geometric entities at asserted c
onnectivities');
#590=(
GEOMETRIC_REPRESENTATION_CONTEXT(3)
GLOBAL_UNCERTAINTY_ASSIGNED_CONTEXT((#587))
GLOBAL_UNIT_ASSIGNED_CONTEXT((#593,#595,#596))
REPRESENTATION_CONTEXT('','3D')
);
#591=(
GEOMETRIC_REPRESENTATION_CONTEXT(3)
GLOBAL_UNCERTAINTY_ASSIGNED_CONTEXT((#588))
GLOBAL_UNIT_ASSIGNED_CONTEXT((#593,#595,#596))
REPRESENTATION_CONTEXT('','3D')
);
#592=(
GEOMETRIC_REPRESENTATION_CONTEXT(3)
GLOBAL_UNCERTAINTY_ASSIGNED_CONTEXT((#589))
GLOBAL_UNIT_ASSIGNED_CONTEXT((#593,#595,#596))
REPRESENTATION_CONTEXT('','3D')
);
#593=(
LENGTH_UNIT()
NAMED_UNIT(*)
SI_UNIT(.MILLI.,.METRE.)
);
#594=(
LENGTH_UNIT()
NAMED_UNIT(*)
SI_UNIT($,.METRE.)
);
#595=(
NAMED_UNIT(*)
PLANE_ANGLE_UNIT()
SI_UNIT($,.RADIAN.)
);
#596=(
NAMED_UNIT(*)
SI_UNIT($,.STERADIAN.)
SOLID_ANGLE_UNIT()
);
#597=SHAPE_DEFINITION_REPRESENTATION(#599,#602);
#598=SHAPE_DEFINITION_REPRESENTATION(#600,#603);
#599=PRODUCT_DEFINITION_SHAPE('',$,#605);
#600=PRODUCT_DEFINITION_SHAPE('',$,#606);
#601=PRODUCT_DEFINITION_SHAPE($,$,#14);
#602=SHAPE_REPRESENTATION('',(#204,#221),#590);
#603=SHAPE_REPRESENTATION('',(#205),#591);
#604=PRODUCT_DEFINITION_CONTEXT('part definition',#612,'design');
#605=PRODUCT_DEFINITION('2025-12-07-23-20-28-318','Ring Finger',#607,#604);
#606=PRODUCT_DEFINITION('2025-12-07-23-30-12-145','Middle phalanx',#608,
#604);
#607=PRODUCT_DEFINITION_FORMATION('',$,#614);
#608=PRODUCT_DEFINITION_FORMATION('',$,#615);
#609=PRODUCT_RELATED_PRODUCT_CATEGORY('Ring Finger','Ring Finger',(#614));
#610=PRODUCT_RELATED_PRODUCT_CATEGORY('Middle phalanx','Middle phalanx',
(#615));
#611=APPLICATION_PROTOCOL_DEFINITION('international standard',
'automotive_design',2009,#612);
#612=APPLICATION_CONTEXT(
'Core Data for Automotive Mechanical Design Process');
#613=PRODUCT_CONTEXT('part definition',#612,'mechanical');
#614=PRODUCT('2025-12-07-23-20-28-318','Ring Finger',$,(#613));
#615=PRODUCT('2025-12-07-23-30-12-145','Middle phalanx',$,(#613));
#616=PRESENTATION_STYLE_ASSIGNMENT((#617));
#617=SURFACE_STYLE_USAGE(.BOTH.,#618);
#618=SURFACE_SIDE_STYLE('',(#619));
#619=SURFACE_STYLE_FILL_AREA(#620);
#620=FILL_AREA_STYLE('Steel - Satin',(#621));
#621=FILL_AREA_STYLE_COLOUR('Steel - Satin',#622);
#622=COLOUR_RGB('Steel - Satin',0.627450980392157,0.627450980392157,0.627450980392157);
ENDSEC;
END-ISO-10303-21;
