ISO-10303-21;
HEADER;
/* Generated by software containing ST-Developer
 * from STEP Tools, Inc. (www.steptools.com) 
 */

FILE_DESCRIPTION(
/* description */ (''),
/* implementation_level */ '2;1');

FILE_NAME(
/* name */ 'Ring proximal phalanx.step',
/* time_stamp */ '2026-01-04T20:33:57Z',
/* author */ (''),
/* organization */ (''),
/* preprocessor_version */ 'ST-DEVELOPER v20.1',
/* originating_system */ 'Autodesk Translation Framework v14.21.0.0',
/* authorisation */ '');

FILE_SCHEMA (('AUTOMOTIVE_DESIGN { 1 0 10303 214 3 1 1 }'));
ENDSEC;

DATA;
#10=MECHANICAL_DESIGN_GEOMETRIC_PRESENTATION_REPRESENTATION('',(#17),#576);
#11=ITEM_DEFINED_TRANSFORMATION($,$,#205,#223);
#12=(
REPRESENTATION_RELATIONSHIP($,$,#587,#586)
REPRESENTATION_RELATIONSHIP_WITH_TRANSFORMATION(#11)
SHAPE_REPRESENTATION_RELATIONSHIP()
);
#13=CONTEXT_DEPENDENT_SHAPE_REPRESENTATION(#12,#585);
#14=NEXT_ASSEMBLY_USAGE_OCCURRENCE('Proximal phalanx:1',
'Proximal phalanx:1','Proximal phalanx:1',#589,#590,
'Proximal phalanx:1');
#15=SHAPE_REPRESENTATION_RELATIONSHIP('SRR','None',#587,#16);
#16=ADVANCED_BREP_SHAPE_REPRESENTATION('',(#18),#575);
#17=STYLED_ITEM('',(#600),#18);
#18=MANIFOLD_SOLID_BREP('Body1',#191);
#19=FACE_BOUND('',#58,.T.);
#20=FACE_BOUND('',#59,.T.);
#21=FACE_BOUND('',#61,.T.);
#22=FACE_BOUND('',#63,.T.);
#23=FACE_BOUND('',#66,.T.);
#24=FACE_BOUND('',#67,.T.);
#25=PLANE('',#216);
#26=PLANE('',#217);
#27=PLANE('',#219);
#28=PLANE('',#222);
#29=ELLIPSE('',#213,9.,8.);
#30=ELLIPSE('',#214,9.,8.);
#31=ELLIPSE('',#218,1.76776695296637,1.25);
#32=ELLIPSE('',#220,1.76776695296637,1.25);
#33=B_SPLINE_SURFACE_WITH_KNOTS('',3,3,((#352,#353,#354,#355),(#356,#357,
#358,#359),(#360,#361,#362,#363),(#364,#365,#366,#367),(#368,#369,#370,
#371),(#372,#373,#374,#375),(#376,#377,#378,#379),(#380,#381,#382,#383),
(#384,#385,#386,#387),(#388,#389,#390,#391),(#392,#393,#394,#395),(#396,
#397,#398,#399),(#400,#401,#402,#403),(#404,#405,#406,#407),(#408,#409,
#410,#411),(#412,#413,#414,#415),(#416,#417,#418,#419)),.UNSPECIFIED.,.T.,
 .F.,.F.,(4,1,1,1,1,1,1,1,1,1,1,1,1,1,4),(4,4),(0.,0.0714285714285714,0.142857142857143,
0.214285714285714,0.285714285714286,0.357142857142857,0.428571428571429,
0.523809523809524,0.571428571428571,0.666666666666667,0.714285714285714,
0.785714285714286,0.857142857142857,0.928571428571429,1.),(0.,1.),
 .UNSPECIFIED.);
#34=B_SPLINE_CURVE_WITH_KNOTS('',3,(#289,#290,#291,#292,#293,#294,#295,
#296,#297,#298,#299,#300,#301,#302,#303,#304,#305,#306,#307,#308,#309,#310,
#311,#312,#313,#314,#315,#316),.UNSPECIFIED.,.F.,.F.,(4,3,3,3,3,3,3,3,3,
4),(-0.157719823626018,-0.151730616964113,-0.132382709035473,-0.113034801106832,
-0.0899895522680325,-0.073244282025645,-0.0512483843895219,-0.0354087128344098,
-0.0168154245878477,0.),.UNSPECIFIED.);
#35=B_SPLINE_CURVE_WITH_KNOTS('',3,(#320,#321,#322,#323,#324,#325,#326,
#327,#328,#329,#330,#331,#332,#333,#334,#335,#336,#337,#338,#339,#340,#341,
#342,#343,#344,#345,#346,#347,#348,#349,#350),.UNSPECIFIED.,.F.,.F.,(4,
3,3,3,3,3,3,3,3,3,4),(0.,0.0183623193139033,0.0221104313602282,0.0421799555893315,
0.0587355315158825,0.0904770137063158,0.0983678899912616,0.118284053831206,
0.138200217671151,0.156361432912898,0.15769770227741),.UNSPECIFIED.);
#36=B_SPLINE_CURVE_WITH_KNOTS('',3,(#420,#421,#422,#423,#424,#425,#426,
#427,#428,#429,#430,#431,#432,#433,#434,#435,#436,#437,#438,#439),
 .UNSPECIFIED.,.F.,.F.,(4,2,2,2,2,2,2,2,2,4),(-3.92527165299987,-3.33388788711601,
-2.80933717972549,-2.43715961940777,-2.15777812532736,-1.89988349394764,
-1.62003487053773,-1.25601107756457,-0.747005754404833,-0.0500637579051217),
 .UNSPECIFIED.);
#37=B_SPLINE_CURVE_WITH_KNOTS('',3,(#445,#446,#447,#448,#449,#450,#451,
#452,#453,#454,#455,#456,#457),.UNSPECIFIED.,.F.,.F.,(4,3,3,3,4),(1.68795601525481,
1.79519580205131,2.24399475256414,2.69279370307697,3.14159265358979),
 .UNSPECIFIED.);
#38=B_SPLINE_CURVE_WITH_KNOTS('',3,(#459,#460,#461,#462,#463,#464,#465,
#466,#467,#468,#469,#470,#471,#472,#473,#474,#475,#476,#477,#478,#479,#480,
#481,#482,#483,#484,#485,#486,#487,#488,#489),.UNSPECIFIED.,.F.,.F.,(4,
3,3,3,3,3,3,3,3,3,4),(-0.157792131287155,-0.154549544011913,-0.136389825646624,
-0.117711540790342,-0.115622983101327,-0.0934861634083809,-0.0758360578634448,
-0.0535066713524975,-0.0371388282153585,-0.0185694141076792,0.),
 .UNSPECIFIED.);
#39=B_SPLINE_CURVE_WITH_KNOTS('',3,(#491,#492,#493,#494,#495,#496,#497,
#498,#499,#500,#501,#502,#503,#504,#505,#506,#507,#508,#509,#510),
 .UNSPECIFIED.,.F.,.F.,(4,2,2,2,2,2,2,2,2,4),(-3.75183315766851,-3.14808961222255,
-2.66176982185772,-2.31600250817921,-2.05554718860695,-1.81362595097656,
-1.5499291326386,-1.20365734768058,-0.715537282486229,-0.0500654415953401),
 .UNSPECIFIED.);
#40=B_SPLINE_CURVE_WITH_KNOTS('',3,(#512,#513,#514,#515,#516,#517,#518,
#519,#520,#521,#522,#523,#524,#525,#526,#527,#528,#529,#530,#531,#532,#533,
#534,#535,#536,#537,#538,#539,#540,#541,#542),.UNSPECIFIED.,.F.,.F.,(4,
3,3,3,3,3,3,3,3,3,4),(0.,0.0180876118219163,0.0191554896140672,0.038752568716675,
0.0568690224818958,0.0882730257677278,0.0927538607365028,0.112922735936758,
0.132473655810798,0.150480296776487,0.157744191260039),.UNSPECIFIED.);
#41=B_SPLINE_CURVE_WITH_KNOTS('',3,(#543,#544,#545,#546,#547,#548,#549,
#550,#551,#552,#553,#554,#555),.UNSPECIFIED.,.F.,.F.,(4,3,3,3,4),(-3.14159265358979,
-2.69279370307697,-2.24399475256414,-1.79519580205131,-1.68795601483288),
 .UNSPECIFIED.);
#42=FACE_OUTER_BOUND('',#52,.T.);
#43=FACE_OUTER_BOUND('',#53,.T.);
#44=FACE_OUTER_BOUND('',#54,.T.);
#45=FACE_OUTER_BOUND('',#55,.T.);
#46=FACE_OUTER_BOUND('',#56,.T.);
#47=FACE_OUTER_BOUND('',#57,.T.);
#48=FACE_OUTER_BOUND('',#60,.T.);
#49=FACE_OUTER_BOUND('',#62,.T.);
#50=FACE_OUTER_BOUND('',#64,.T.);
#51=FACE_OUTER_BOUND('',#65,.T.);
#52=EDGE_LOOP('',(#128,#129,#130,#131));
#53=EDGE_LOOP('',(#132,#133,#134,#135));
#54=EDGE_LOOP('',(#136,#137,#138,#139));
#55=EDGE_LOOP('',(#140,#141,#142,#143,#144,#145,#146,#147,#148,#149,#150,
#151));
#56=EDGE_LOOP('',(#152,#153,#154,#155));
#57=EDGE_LOOP('',(#156,#157,#158));
#58=EDGE_LOOP('',(#159));
#59=EDGE_LOOP('',(#160));
#60=EDGE_LOOP('',(#161,#162));
#61=EDGE_LOOP('',(#163));
#62=EDGE_LOOP('',(#164,#165));
#63=EDGE_LOOP('',(#166));
#64=EDGE_LOOP('',(#167,#168,#169,#170));
#65=EDGE_LOOP('',(#171,#172,#173));
#66=EDGE_LOOP('',(#174));
#67=EDGE_LOOP('',(#175));
#68=LINE('',#278,#76);
#69=LINE('',#284,#77);
#70=LINE('',#318,#78);
#71=LINE('',#351,#79);
#72=LINE('',#443,#80);
#73=LINE('',#558,#81);
#74=LINE('',#559,#82);
#75=LINE('',#568,#83);
#76=VECTOR('',#232,2.);
#77=VECTOR('',#239,2.);
#78=VECTOR('',#244,10.);
#79=VECTOR('',#245,10.);
#80=VECTOR('',#248,49.0025509540065);
#81=VECTOR('',#253,10.);
#82=VECTOR('',#254,10.);
#83=VECTOR('',#267,1.25);
#84=CIRCLE('',#207,2.);
#85=CIRCLE('',#208,2.);
#86=CIRCLE('',#210,2.);
#87=CIRCLE('',#211,2.);
#88=VERTEX_POINT('',#275);
#89=VERTEX_POINT('',#277);
#90=VERTEX_POINT('',#281);
#91=VERTEX_POINT('',#283);
#92=VERTEX_POINT('',#287);
#93=VERTEX_POINT('',#288);
#94=VERTEX_POINT('',#317);
#95=VERTEX_POINT('',#319);
#96=VERTEX_POINT('',#440);
#97=VERTEX_POINT('',#442);
#98=VERTEX_POINT('',#444);
#99=VERTEX_POINT('',#458);
#100=VERTEX_POINT('',#490);
#101=VERTEX_POINT('',#511);
#102=VERTEX_POINT('',#562);
#103=VERTEX_POINT('',#565);
#104=EDGE_CURVE('',#88,#88,#84,.T.);
#105=EDGE_CURVE('',#88,#89,#68,.T.);
#106=EDGE_CURVE('',#89,#89,#85,.T.);
#107=EDGE_CURVE('',#90,#90,#86,.T.);
#108=EDGE_CURVE('',#90,#91,#69,.T.);
#109=EDGE_CURVE('',#91,#91,#87,.T.);
#110=EDGE_CURVE('',#92,#93,#34,.T.);
#111=EDGE_CURVE('',#93,#94,#70,.T.);
#112=EDGE_CURVE('',#94,#95,#35,.T.);
#113=EDGE_CURVE('',#92,#95,#71,.T.);
#114=EDGE_CURVE('',#92,#95,#36,.T.);
#115=EDGE_CURVE('',#94,#96,#29,.T.);
#116=EDGE_CURVE('',#97,#96,#72,.T.);
#117=EDGE_CURVE('',#98,#97,#37,.T.);
#118=EDGE_CURVE('',#99,#98,#38,.T.);
#119=EDGE_CURVE('',#99,#100,#39,.T.);
#120=EDGE_CURVE('',#101,#100,#40,.T.);
#121=EDGE_CURVE('',#97,#101,#41,.T.);
#122=EDGE_CURVE('',#96,#93,#30,.T.);
#123=EDGE_CURVE('',#98,#101,#73,.T.);
#124=EDGE_CURVE('',#100,#99,#74,.T.);
#125=EDGE_CURVE('',#102,#102,#31,.T.);
#126=EDGE_CURVE('',#103,#103,#32,.T.);
#127=EDGE_CURVE('',#102,#103,#75,.T.);
#128=ORIENTED_EDGE('',*,*,#104,.F.);
#129=ORIENTED_EDGE('',*,*,#105,.T.);
#130=ORIENTED_EDGE('',*,*,#106,.F.);
#131=ORIENTED_EDGE('',*,*,#105,.F.);
#132=ORIENTED_EDGE('',*,*,#107,.F.);
#133=ORIENTED_EDGE('',*,*,#108,.T.);
#134=ORIENTED_EDGE('',*,*,#109,.F.);
#135=ORIENTED_EDGE('',*,*,#108,.F.);
#136=ORIENTED_EDGE('',*,*,#110,.T.);
#137=ORIENTED_EDGE('',*,*,#111,.T.);
#138=ORIENTED_EDGE('',*,*,#112,.T.);
#139=ORIENTED_EDGE('',*,*,#113,.F.);
#140=ORIENTED_EDGE('',*,*,#110,.F.);
#141=ORIENTED_EDGE('',*,*,#114,.T.);
#142=ORIENTED_EDGE('',*,*,#112,.F.);
#143=ORIENTED_EDGE('',*,*,#115,.T.);
#144=ORIENTED_EDGE('',*,*,#116,.F.);
#145=ORIENTED_EDGE('',*,*,#117,.F.);
#146=ORIENTED_EDGE('',*,*,#118,.F.);
#147=ORIENTED_EDGE('',*,*,#119,.T.);
#148=ORIENTED_EDGE('',*,*,#120,.F.);
#149=ORIENTED_EDGE('',*,*,#121,.F.);
#150=ORIENTED_EDGE('',*,*,#116,.T.);
#151=ORIENTED_EDGE('',*,*,#122,.T.);
#152=ORIENTED_EDGE('',*,*,#118,.T.);
#153=ORIENTED_EDGE('',*,*,#123,.T.);
#154=ORIENTED_EDGE('',*,*,#120,.T.);
#155=ORIENTED_EDGE('',*,*,#124,.T.);
#156=ORIENTED_EDGE('',*,*,#123,.F.);
#157=ORIENTED_EDGE('',*,*,#117,.T.);
#158=ORIENTED_EDGE('',*,*,#121,.T.);
#159=ORIENTED_EDGE('',*,*,#104,.T.);
#160=ORIENTED_EDGE('',*,*,#107,.T.);
#161=ORIENTED_EDGE('',*,*,#119,.F.);
#162=ORIENTED_EDGE('',*,*,#124,.F.);
#163=ORIENTED_EDGE('',*,*,#125,.F.);
#164=ORIENTED_EDGE('',*,*,#114,.F.);
#165=ORIENTED_EDGE('',*,*,#113,.T.);
#166=ORIENTED_EDGE('',*,*,#126,.F.);
#167=ORIENTED_EDGE('',*,*,#125,.T.);
#168=ORIENTED_EDGE('',*,*,#127,.T.);
#169=ORIENTED_EDGE('',*,*,#126,.T.);
#170=ORIENTED_EDGE('',*,*,#127,.F.);
#171=ORIENTED_EDGE('',*,*,#111,.F.);
#172=ORIENTED_EDGE('',*,*,#122,.F.);
#173=ORIENTED_EDGE('',*,*,#115,.F.);
#174=ORIENTED_EDGE('',*,*,#106,.T.);
#175=ORIENTED_EDGE('',*,*,#109,.T.);
#176=CYLINDRICAL_SURFACE('',#206,2.);
#177=CYLINDRICAL_SURFACE('',#209,2.);
#178=CYLINDRICAL_SURFACE('',#212,1.);
#179=CYLINDRICAL_SURFACE('',#215,1.);
#180=CYLINDRICAL_SURFACE('',#221,1.25);
#181=ADVANCED_FACE('',(#42),#176,.F.);
#182=ADVANCED_FACE('',(#43),#177,.F.);
#183=ADVANCED_FACE('',(#44),#178,.T.);
#184=ADVANCED_FACE('',(#45),#33,.F.);
#185=ADVANCED_FACE('',(#46),#179,.T.);
#186=ADVANCED_FACE('',(#47,#19,#20),#25,.T.);
#187=ADVANCED_FACE('',(#48,#21),#26,.F.);
#188=ADVANCED_FACE('',(#49,#22),#27,.F.);
#189=ADVANCED_FACE('',(#50),#180,.F.);
#190=ADVANCED_FACE('',(#51,#23,#24),#28,.F.);
#191=CLOSED_SHELL('',(#181,#182,#183,#184,#185,#186,#187,#188,#189,#190));
#192=DERIVED_UNIT_ELEMENT(#194,1.);
#193=DERIVED_UNIT_ELEMENT(#578,-3.);
#194=(
MASS_UNIT()
NAMED_UNIT(*)
SI_UNIT(.KILO.,.GRAM.)
);
#195=DERIVED_UNIT((#192,#193));
#196=MEASURE_REPRESENTATION_ITEM('density measure',
POSITIVE_RATIO_MEASURE(7850.),#195);
#197=PROPERTY_DEFINITION_REPRESENTATION(#202,#199);
#198=PROPERTY_DEFINITION_REPRESENTATION(#203,#200);
#199=REPRESENTATION('material name',(#201),#575);
#200=REPRESENTATION('density',(#196),#575);
#201=DESCRIPTIVE_REPRESENTATION_ITEM('Steel','Steel');
#202=PROPERTY_DEFINITION('material property','material name',#590);
#203=PROPERTY_DEFINITION('material property','density of part',#590);
#204=AXIS2_PLACEMENT_3D('',#272,#224,#225);
#205=AXIS2_PLACEMENT_3D('',#273,#226,#227);
#206=AXIS2_PLACEMENT_3D('',#274,#228,#229);
#207=AXIS2_PLACEMENT_3D('',#276,#230,#231);
#208=AXIS2_PLACEMENT_3D('',#279,#233,#234);
#209=AXIS2_PLACEMENT_3D('',#280,#235,#236);
#210=AXIS2_PLACEMENT_3D('',#282,#237,#238);
#211=AXIS2_PLACEMENT_3D('',#285,#240,#241);
#212=AXIS2_PLACEMENT_3D('',#286,#242,#243);
#213=AXIS2_PLACEMENT_3D('',#441,#246,#247);
#214=AXIS2_PLACEMENT_3D('',#556,#249,#250);
#215=AXIS2_PLACEMENT_3D('',#557,#251,#252);
#216=AXIS2_PLACEMENT_3D('',#560,#255,#256);
#217=AXIS2_PLACEMENT_3D('',#561,#257,#258);
#218=AXIS2_PLACEMENT_3D('',#563,#259,#260);
#219=AXIS2_PLACEMENT_3D('',#564,#261,#262);
#220=AXIS2_PLACEMENT_3D('',#566,#263,#264);
#221=AXIS2_PLACEMENT_3D('',#567,#265,#266);
#222=AXIS2_PLACEMENT_3D('',#569,#268,#269);
#223=AXIS2_PLACEMENT_3D('',#570,#270,#271);
#224=DIRECTION('axis',(0.,0.,1.));
#225=DIRECTION('refdir',(1.,0.,0.));
#226=DIRECTION('axis',(0.,0.,1.));
#227=DIRECTION('refdir',(1.,0.,0.));
#228=DIRECTION('center_axis',(0.,0.,-1.));
#229=DIRECTION('ref_axis',(-1.,0.,0.));
#230=DIRECTION('center_axis',(5.43982898138863E-32,-1.07777066857043E-48,
-1.));
#231=DIRECTION('ref_axis',(-1.,0.,0.));
#232=DIRECTION('',(0.,0.,-1.));
#233=DIRECTION('center_axis',(0.,0.,1.));
#234=DIRECTION('ref_axis',(-1.,0.,0.));
#235=DIRECTION('center_axis',(0.,0.,-1.));
#236=DIRECTION('ref_axis',(-1.,0.,0.));
#237=DIRECTION('center_axis',(5.43982898138863E-32,-1.07777066857043E-48,
-1.));
#238=DIRECTION('ref_axis',(-1.,0.,0.));
#239=DIRECTION('',(0.,0.,-1.));
#240=DIRECTION('center_axis',(0.,0.,1.));
#241=DIRECTION('ref_axis',(-1.,0.,0.));
#242=DIRECTION('center_axis',(0.,-1.,0.));
#243=DIRECTION('ref_axis',(0.707106781186548,0.,-0.707106781186548));
#244=DIRECTION('',(0.,1.,0.));
#245=DIRECTION('',(0.,1.,0.));
#246=DIRECTION('center_axis',(0.,0.,1.));
#247=DIRECTION('ref_axis',(1.,0.,0.));
#248=DIRECTION('',(-0.0102035504329009,-1.40577135497895E-18,-0.999947942424286));
#249=DIRECTION('center_axis',(0.,0.,1.));
#250=DIRECTION('ref_axis',(1.,0.,0.));
#251=DIRECTION('center_axis',(-1.32845491442051E-79,1.,-1.07777066857043E-48));
#252=DIRECTION('ref_axis',(0.707106781186543,0.,0.707106781186553));
#253=DIRECTION('',(1.32845491442051E-79,-1.,1.07777066857043E-48));
#254=DIRECTION('',(0.,1.,0.));
#255=DIRECTION('center_axis',(-5.43982898138863E-32,1.07777066857043E-48,
1.));
#256=DIRECTION('ref_axis',(1.,0.,5.43982898138863E-32));
#257=DIRECTION('center_axis',(-0.707106781186548,0.,-0.707106781186547));
#258=DIRECTION('ref_axis',(-0.707106781186547,0.,0.707106781186548));
#259=DIRECTION('center_axis',(0.707106781186548,0.,0.707106781186547));
#260=DIRECTION('ref_axis',(-0.707106781186547,0.,0.707106781186548));
#261=DIRECTION('center_axis',(-0.707106781186547,0.,0.707106781186548));
#262=DIRECTION('ref_axis',(0.707106781186548,0.,0.707106781186547));
#263=DIRECTION('center_axis',(0.707106781186547,0.,-0.707106781186548));
#264=DIRECTION('ref_axis',(-0.707106781186548,0.,-0.707106781186547));
#265=DIRECTION('center_axis',(0.,0.,-1.));
#266=DIRECTION('ref_axis',(-1.,0.,0.));
#267=DIRECTION('',(0.,0.,-1.));
#268=DIRECTION('center_axis',(0.,0.,1.));
#269=DIRECTION('ref_axis',(1.,0.,0.));
#270=DIRECTION('',(0.,0.,1.));
#271=DIRECTION('',(1.,0.,0.));
#272=CARTESIAN_POINT('',(0.,0.,0.));
#273=CARTESIAN_POINT('',(0.,0.,0.));
#274=CARTESIAN_POINT('Origin',(-4.74999999996591,-3.1093879237477,49.));
#275=CARTESIAN_POINT('',(-2.74999999996591,-3.1093879237477,49.));
#276=CARTESIAN_POINT('Origin',(-4.74999999996591,-3.1093879237477,49.));
#277=CARTESIAN_POINT('',(-2.74999999996591,-3.1093879237477,0.));
#278=CARTESIAN_POINT('',(-2.74999999996591,-3.1093879237477,49.));
#279=CARTESIAN_POINT('Origin',(-4.74999999996591,-3.1093879237477,0.));
#280=CARTESIAN_POINT('Origin',(-4.74999999995376,3.10938792374761,49.));
#281=CARTESIAN_POINT('',(-2.74999999995376,3.10938792374761,49.));
#282=CARTESIAN_POINT('Origin',(-4.74999999995376,3.10938792374761,49.));
#283=CARTESIAN_POINT('',(-2.74999999995376,3.10938792374761,0.));
#284=CARTESIAN_POINT('',(-2.74999999995376,3.10938792374761,49.));
#285=CARTESIAN_POINT('Origin',(-4.74999999995376,3.10938792374761,0.));
#286=CARTESIAN_POINT('Origin',(-1.,0.,1.));
#287=CARTESIAN_POINT('',(3.08148791101958E-32,-7.98979591836735,1.));
#288=CARTESIAN_POINT('',(-1.,-7.95046391999925,0.));
#289=CARTESIAN_POINT('Ctrl Pts',(0.000901212977575394,-7.98875608464247,
1.));
#290=CARTESIAN_POINT('Ctrl Pts',(0.000901287453668111,-7.98895926072238,
0.980089222724178));
#291=CARTESIAN_POINT('Ctrl Pts',(0.00030639020618036,-7.98916272293595,
0.960158276397714));
#292=CARTESIAN_POINT('Ctrl Pts',(-0.00088705017713564,-7.98936588835043,
0.940233558650192));
#293=CARTESIAN_POINT('Ctrl Pts',(-0.00474241752733388,-7.9900222071047,
0.875867455961156));
#294=CARTESIAN_POINT('Ctrl Pts',(-0.0148075791205815,-7.99067396429932,
0.81217631337358));
#295=CARTESIAN_POINT('Ctrl Pts',(-0.0308584904257472,-7.99125898758923,
0.750030188918813));
#296=CARTESIAN_POINT('Ctrl Pts',(-0.0469094017309129,-7.99184401087913,
0.687884064464047));
#297=CARTESIAN_POINT('Ctrl Pts',(-0.0689462057796659,-7.99236177061708,
0.627282958142082));
#298=CARTESIAN_POINT('Ctrl Pts',(-0.0967428963004333,-7.99269124765781,
0.569096927984269));
#299=CARTESIAN_POINT('Ctrl Pts',(-0.129851470742114,-7.99308368700673,0.499791680674106));
#300=CARTESIAN_POINT('Ctrl Pts',(-0.170754851359335,-7.99320282611864,0.434699266668906));
#301=CARTESIAN_POINT('Ctrl Pts',(-0.218543801437436,-7.99278773045455,0.375033228517907));
#302=CARTESIAN_POINT('Ctrl Pts',(-0.253268481099408,-7.99248611127394,0.331678351331728));
#303=CARTESIAN_POINT('Ctrl Pts',(-0.291628456921734,-7.99190083326955,0.291188518760434));
#304=CARTESIAN_POINT('Ctrl Pts',(-0.333270318367117,-7.99091979538479,0.254029303266286));
#305=CARTESIAN_POINT('Ctrl Pts',(-0.387969353286942,-7.98963114440587,0.205218487530454));
#306=CARTESIAN_POINT('Ctrl Pts',(-0.44772550358889,-7.98767001280511,0.162693881418732));
#307=CARTESIAN_POINT('Ctrl Pts',(-0.511404949005729,-7.98483908210763,0.127115209726782));
#308=CARTESIAN_POINT('Ctrl Pts',(-0.557261749982922,-7.98280047412785,0.10149431971854));
#309=CARTESIAN_POINT('Ctrl Pts',(-0.605152788904981,-7.98031132856519,0.0794753959897484));
#310=CARTESIAN_POINT('Ctrl Pts',(-0.654651600399802,-7.97731495055646,0.061304801977009));
#311=CARTESIAN_POINT('Ctrl Pts',(-0.712755435872857,-7.97379767307895,0.0399753766215284));
#312=CARTESIAN_POINT('Ctrl Pts',(-0.772541673004973,-7.9696116648116,0.0241424338893272));
#313=CARTESIAN_POINT('Ctrl Pts',(-0.83323471410025,-7.9647401428535,0.0139147861744107));
#314=CARTESIAN_POINT('Ctrl Pts',(-0.888124373315503,-7.9603344288653,0.0046650915221992));
#315=CARTESIAN_POINT('Ctrl Pts',(-0.943755572959561,-7.95536846937863,-1.23490032354963E-12));
#316=CARTESIAN_POINT('Ctrl Pts',(-0.999556476457526,-7.94986665221947,0.));
#317=CARTESIAN_POINT('',(-1.,7.95046391999925,0.));
#318=CARTESIAN_POINT('',(-1.,0.,0.));
#319=CARTESIAN_POINT('',(3.08148791101958E-32,7.98979591836735,1.));
#320=CARTESIAN_POINT('Ctrl Pts',(-1.00062360726793,7.94970670293307,0.));
#321=CARTESIAN_POINT('Ctrl Pts',(-0.939739519070627,7.95570652032761,1.29211944692737E-12));
#322=CARTESIAN_POINT('Ctrl Pts',(-0.878956886207659,7.96107641883648,0.00556391387136323));
#323=CARTESIAN_POINT('Ctrl Pts',(-0.819027859622453,7.96578066371623,0.0166393099834181));
#324=CARTESIAN_POINT('Ctrl Pts',(-0.806795161637593,7.96674089300977,0.0189000170801508));
#325=CARTESIAN_POINT('Ctrl Pts',(-0.794598043191935,7.96767356125427,0.021390359383188));
#326=CARTESIAN_POINT('Ctrl Pts',(-0.782442919599509,7.96857862829495,0.0241098909812578));
#327=CARTESIAN_POINT('Ctrl Pts',(-0.717357472731624,7.97342487213118,0.0386718103221653));
#328=CARTESIAN_POINT('Ctrl Pts',(-0.65399517521341,7.97743642835832,0.0596877315027815));
#329=CARTESIAN_POINT('Ctrl Pts',(-0.593276001218851,7.98068199298857,0.086791063301618));
#330=CARTESIAN_POINT('Ctrl Pts',(-0.543188072686561,7.98335929570125,0.109148906085328));
#331=CARTESIAN_POINT('Ctrl Pts',(-0.494898793404192,7.98551677478526,0.13564910114754));
#332=CARTESIAN_POINT('Ctrl Pts',(-0.448922779867552,7.98721945333234,0.166085868229231));
#333=CARTESIAN_POINT('Ctrl Pts',(-0.36077442300369,7.99048394506719,0.224441319259389));
#334=CARTESIAN_POINT('Ctrl Pts',(-0.282550556604844,7.99202681114638,0.296334590216463));
#335=CARTESIAN_POINT('Ctrl Pts',(-0.217084299951978,7.99256187436923,0.3789833225756));
#336=CARTESIAN_POINT('Ctrl Pts',(-0.200809504434017,7.99269489013928,0.399529651138357));
#337=CARTESIAN_POINT('Ctrl Pts',(-0.185322886300926,7.9927656742449,0.42074067883034));
#338=CARTESIAN_POINT('Ctrl Pts',(-0.170667485915792,7.99278490464469,0.442573658499455));
#339=CARTESIAN_POINT('Ctrl Pts',(-0.133678012925681,7.99283344117968,0.497678970571558));
#340=CARTESIAN_POINT('Ctrl Pts',(-0.102355218206982,7.99255663202382,0.556195090242757));
#341=CARTESIAN_POINT('Ctrl Pts',(-0.0770771931476357,7.99212007293238,0.617216526878181));
#342=CARTESIAN_POINT('Ctrl Pts',(-0.0517991680882896,7.99168351384093,0.678237963513605));
#343=CARTESIAN_POINT('Ctrl Pts',(-0.0325657226127663,7.99108808770466,0.741764717113245));
#344=CARTESIAN_POINT('Ctrl Pts',(-0.0197506067739797,7.99044610638053,0.806891297042228));
#345=CARTESIAN_POINT('Ctrl Pts',(-0.00806472455775683,7.98986069472815,
0.866279097493652));
#346=CARTESIAN_POINT('Ctrl Pts',(-0.00182127818336942,7.9892419192923,0.926463986042134));
#347=CARTESIAN_POINT('Ctrl Pts',(-0.00102030163848577,7.98862726368481,
0.986702663684909));
#348=CARTESIAN_POINT('Ctrl Pts',(-0.000961367233250581,7.9885820384371,
0.991134916616294));
#349=CARTESIAN_POINT('Ctrl Pts',(-0.000931896816376474,7.98853681210301,
0.9955674607484));
#350=CARTESIAN_POINT('Ctrl Pts',(-0.000931890331101304,7.98849158846647,
1.));
#351=CARTESIAN_POINT('',(3.08148791101958E-32,0.,1.));
#352=CARTESIAN_POINT('Ctrl Pts',(-8.5,-9.10831056865844E-16,49.));
#353=CARTESIAN_POINT('Ctrl Pts',(-8.66666666666667,-9.33793184349857E-16,
32.6666666666667));
#354=CARTESIAN_POINT('Ctrl Pts',(-8.83333333333333,-9.5675531183387E-16,
16.3333333333333));
#355=CARTESIAN_POINT('Ctrl Pts',(-9.,-9.79717439317883E-16,0.));
#356=CARTESIAN_POINT('Ctrl Pts',(-8.5,-1.11264739814639,49.));
#357=CARTESIAN_POINT('Ctrl Pts',(-8.6668317717352,-1.14073143603523,32.6666666666667));
#358=CARTESIAN_POINT('Ctrl Pts',(-8.8331682282648,-1.1687131634787,16.3333333333333));
#359=CARTESIAN_POINT('Ctrl Pts',(-9.,-1.19679720136754,0.));
#360=CARTESIAN_POINT('Ctrl Pts',(-7.93080710879754,-3.33802040190282,49.));
#361=CARTESIAN_POINT('Ctrl Pts',(-8.08245983363165,-3.42183080305215,32.6666666666667));
#362=CARTESIAN_POINT('Ctrl Pts',(-8.23418675771554,-3.50567633310993,16.3333333333333));
#363=CARTESIAN_POINT('Ctrl Pts',(-8.38583948254964,-3.58948673425926,0.));
#364=CARTESIAN_POINT('Ctrl Pts',(-5.50844274204114,-6.04597446550122,49.));
#365=CARTESIAN_POINT('Ctrl Pts',(-5.60666927495061,-6.18705580892984,32.6666666666667));
#366=CARTESIAN_POINT('Ctrl Pts',(-5.70467900282678,-6.32804585781142,16.3333333333333));
#367=CARTESIAN_POINT('Ctrl Pts',(-5.80290553573625,-6.46912720124004,0.));
#368=CARTESIAN_POINT('Ctrl Pts',(-1.97079391457523,-7.56223909200104,49.));
#369=CARTESIAN_POINT('Ctrl Pts',(-2.00435710847663,-7.73000880841057,32.6666666666666));
#370=CARTESIAN_POINT('Ctrl Pts',(-2.03786731579485,-7.89777066348438,16.3333333333333));
#371=CARTESIAN_POINT('Ctrl Pts',(-2.07143050969624,-8.06554037989391,0.));
#372=CARTESIAN_POINT('Ctrl Pts',(1.97235581621957,-7.56206165511989,49.));
#373=CARTESIAN_POINT('Ctrl Pts',(2.00599370184001,-7.72986139066928,32.6666666666667));
#374=CARTESIAN_POINT('Ctrl Pts',(2.03978312263807,-7.89765717795863,16.3333333333333));
#375=CARTESIAN_POINT('Ctrl Pts',(2.0734210082585,-8.06545691350802,0.));
#376=CARTESIAN_POINT('Ctrl Pts',(5.5062628909764,-6.04508330234206,49.));
#377=CARTESIAN_POINT('Ctrl Pts',(5.60426947187527,-6.18611741851053,32.6666666666666));
#378=CARTESIAN_POINT('Ctrl Pts',(5.70247373094148,-6.32700131504209,16.3333333333333));
#379=CARTESIAN_POINT('Ctrl Pts',(5.80048031184035,-6.46803543121056,0.));
#380=CARTESIAN_POINT('Ctrl Pts',(8.20707641946013,-3.0364592752197,49.));
#381=CARTESIAN_POINT('Ctrl Pts',(8.36520180814044,-3.11403327359266,32.6666666666667));
#382=CARTESIAN_POINT('Ctrl Pts',(8.52322998222585,-3.19173910385845,16.3333333333333));
#383=CARTESIAN_POINT('Ctrl Pts',(8.68135537090615,-3.2693131022314,0.));
#384=CARTESIAN_POINT('Ctrl Pts',(8.78216163616761,0.405218941878912,49.));
#385=CARTESIAN_POINT('Ctrl Pts',(8.95627724788286,0.416035169947819,32.6666666666667));
#386=CARTESIAN_POINT('Ctrl Pts',(9.13016775128442,0.427026415752868,16.3333333333333));
#387=CARTESIAN_POINT('Ctrl Pts',(9.30428336299966,0.437842643821775,0.));
#388=CARTESIAN_POINT('Ctrl Pts',(7.53795309636363,4.0007621734015,49.));
#389=CARTESIAN_POINT('Ctrl Pts',(7.68018373896872,4.0998965865653,32.6666666666666));
#390=CARTESIAN_POINT('Ctrl Pts',(7.82251721034559,4.19897043825462,16.3333333333334));
#391=CARTESIAN_POINT('Ctrl Pts',(7.96474785295068,4.29810485141841,0.));
#392=CARTESIAN_POINT('Ctrl Pts',(5.14391005330937,6.30340121403215,49.));
#393=CARTESIAN_POINT('Ctrl Pts',(5.23498304267643,6.44910395288268,32.6666666666667));
#394=CARTESIAN_POINT('Ctrl Pts',(5.32600997162441,6.59457893628241,16.3333333333333));
#395=CARTESIAN_POINT('Ctrl Pts',(5.41708296099148,6.74028167513293,0.));
#396=CARTESIAN_POINT('Ctrl Pts',(1.52991934882878,7.56109718349411,49.));
#397=CARTESIAN_POINT('Ctrl Pts',(1.55603104584587,7.72877463869036,32.6666666666666));
#398=CARTESIAN_POINT('Ctrl Pts',(1.58214806715388,7.89656029173414,16.3333333333333));
#399=CARTESIAN_POINT('Ctrl Pts',(1.60825976417097,8.06423774693039,0.));
#400=CARTESIAN_POINT('Ctrl Pts',(-1.96971349913999,7.56280392871052,49.));
#401=CARTESIAN_POINT('Ctrl Pts',(-2.00325462291836,7.73064919675701,32.6666666666667));
#402=CARTESIAN_POINT('Ctrl Pts',(-2.03678717798124,7.89833861878211,16.3333333333333));
#403=CARTESIAN_POINT('Ctrl Pts',(-2.07032830175961,8.0661838868286,0.));
#404=CARTESIAN_POINT('Ctrl Pts',(-5.50947719461512,6.0443940321882,49.));
#405=CARTESIAN_POINT('Ctrl Pts',(-5.60772698989519,6.1854298769208,32.6666666666667));
#406=CARTESIAN_POINT('Ctrl Pts',(-5.70580443889792,6.32650074248353,16.3333333333333));
#407=CARTESIAN_POINT('Ctrl Pts',(-5.804054234178,6.46753658721613,0.));
#408=CARTESIAN_POINT('Ctrl Pts',(-7.9305114882643,3.33819307611334,49.));
#409=CARTESIAN_POINT('Ctrl Pts',(-8.08214468386692,3.42203827439307,32.6666666666667));
#410=CARTESIAN_POINT('Ctrl Pts',(-8.23390476545265,3.50583512756589,16.3333333333334));
#411=CARTESIAN_POINT('Ctrl Pts',(-8.38553796105526,3.58968032584562,0.));
#412=CARTESIAN_POINT('Ctrl Pts',(-8.5,1.11264739814639,49.));
#413=CARTESIAN_POINT('Ctrl Pts',(-8.66684273950809,1.14071250880367,32.6666666666667));
#414=CARTESIAN_POINT('Ctrl Pts',(-8.83315726049191,1.16873209071026,16.3333333333333));
#415=CARTESIAN_POINT('Ctrl Pts',(-9.,1.19679720136754,0.));
#416=CARTESIAN_POINT('Ctrl Pts',(-8.5,9.10831056865844E-16,49.));
#417=CARTESIAN_POINT('Ctrl Pts',(-8.66666666666667,9.33793184349857E-16,
32.6666666666667));
#418=CARTESIAN_POINT('Ctrl Pts',(-8.83333333333333,9.5675531183387E-16,
16.3333333333333));
#419=CARTESIAN_POINT('Ctrl Pts',(-9.,9.79717439317883E-16,0.));
#420=CARTESIAN_POINT('Ctrl Pts',(5.55111512312578E-16,-7.98979591836735,
1.));
#421=CARTESIAN_POINT('Ctrl Pts',(1.25908643734833,-7.97694809757808,2.25908643734833));
#422=CARTESIAN_POINT('Ctrl Pts',(2.53485759307655,-7.72903197925607,3.53485759307655));
#423=CARTESIAN_POINT('Ctrl Pts',(4.79853440214875,-6.78100515569343,5.79853440214875));
#424=CARTESIAN_POINT('Ctrl Pts',(5.74683828551343,-6.15880218622337,6.74683828551342));
#425=CARTESIAN_POINT('Ctrl Pts',(7.09558520478488,-4.85128691066892,8.09558520478487));
#426=CARTESIAN_POINT('Ctrl Pts',(7.61187795841254,-4.20046822066097,8.61187795841254));
#427=CARTESIAN_POINT('Ctrl Pts',(8.32895571655409,-2.86707707659377,9.32895571655409));
#428=CARTESIAN_POINT('Ctrl Pts',(8.57479399626826,-2.23504136312353,9.57479399626828));
#429=CARTESIAN_POINT('Ctrl Pts',(8.86844450527929,-0.919791244406784,9.86844450527931));
#430=CARTESIAN_POINT('Ctrl Pts',(8.92471417910003,-0.267283941060062,9.92471417908659));
#431=CARTESIAN_POINT('Ctrl Pts',(8.84838754089626,1.10834695319345,9.84838754088282));
#432=CARTESIAN_POINT('Ctrl Pts',(8.70157365401245,1.79372503830394,9.70157365401244));
#433=CARTESIAN_POINT('Ctrl Pts',(8.16995789194664,3.26711034712952,9.16995789194664));
#434=CARTESIAN_POINT('Ctrl Pts',(7.73717830668815,3.99728488417779,8.73717830668815));
#435=CARTESIAN_POINT('Ctrl Pts',(6.54575295145675,5.48865287347088,7.54575295145675));
#436=CARTESIAN_POINT('Ctrl Pts',(5.66190185979073,6.22658324989163,6.66190185979073));
#437=CARTESIAN_POINT('Ctrl Pts',(3.24306537646158,7.55906575223429,4.24306537646158));
#438=CARTESIAN_POINT('Ctrl Pts',(1.63847845069446,7.97307675050312,2.63847845069446));
#439=CARTESIAN_POINT('Ctrl Pts',(5.55111512312578E-16,7.98979591836735,
1.));
#440=CARTESIAN_POINT('',(-9.,-9.79717439317883E-16,0.));
#441=CARTESIAN_POINT('Origin',(0.,0.,0.));
#442=CARTESIAN_POINT('',(-8.5,-9.10831056865844E-16,49.));
#443=CARTESIAN_POINT('',(-8.5,-9.10831056865844E-16,49.));
#444=CARTESIAN_POINT('',(-0.999999999989694,7.44787133717035,49.));
#445=CARTESIAN_POINT('Ctrl Pts',(-1.00064444920975,7.44722483056431,49.));
#446=CARTESIAN_POINT('Ctrl Pts',(-1.30418486344742,7.41573565284761,49.));
#447=CARTESIAN_POINT('Ctrl Pts',(-1.60572938485013,7.36980939765794,49.));
#448=CARTESIAN_POINT('Ctrl Pts',(-1.90349295605836,7.30941559789539,49.));
#449=CARTESIAN_POINT('Ctrl Pts',(-3.14963473096503,7.05666729653642,49.));
#450=CARTESIAN_POINT('Ctrl Pts',(-4.32955596279008,6.55053066436231,49.));
#451=CARTESIAN_POINT('Ctrl Pts',(-5.3230222943108,5.84642885559611,49.));
#452=CARTESIAN_POINT('Ctrl Pts',(-6.31648862583151,5.14232704682992,49.));
#453=CARTESIAN_POINT('Ctrl Pts',(-7.12350005704791,4.24026006147163,49.));
#454=CARTESIAN_POINT('Ctrl Pts',(-7.66937790059003,3.23284014930074,49.));
#455=CARTESIAN_POINT('Ctrl Pts',(-8.21525574413215,2.22542023712986,49.));
#456=CARTESIAN_POINT('Ctrl Pts',(-8.5,1.11264739814639,49.));
#457=CARTESIAN_POINT('Ctrl Pts',(-8.5,1.11022302462516E-15,49.));
#458=CARTESIAN_POINT('',(-1.23259516440783E-31,7.51020407418207,48.0000007301569));
#459=CARTESIAN_POINT('Ctrl Pts',(-0.000969243416417909,7.50897860202749,
48.0000007301569));
#460=CARTESIAN_POINT('Ctrl Pts',(-0.000969257850160112,7.50886851013012,
48.0107912526482));
#461=CARTESIAN_POINT('Ctrl Pts',(-0.0011438899274046,7.50875836131715,48.0215889292005));
#462=CARTESIAN_POINT('Ctrl Pts',(-0.0014938393000985,7.50864816990618,48.0323895881104));
#463=CARTESIAN_POINT('Ctrl Pts',(-0.00345368746681497,7.50803105654172,
48.0928773420981));
#464=CARTESIAN_POINT('Ctrl Pts',(-0.0108946465259711,7.50742237909997,48.1529181423256));
#465=CARTESIAN_POINT('Ctrl Pts',(-0.0236494687990685,7.5067928836737,48.211788285205));
#466=CARTESIAN_POINT('Ctrl Pts',(-0.036768516072596,7.50614541246016,48.2723395160176));
#467=CARTESIAN_POINT('Ctrl Pts',(-0.0555093234447855,7.5054757741135,48.3316522766146));
#468=CARTESIAN_POINT('Ctrl Pts',(-0.0796892909704132,7.50469742939508,48.3889390782017));
#469=CARTESIAN_POINT('Ctrl Pts',(-0.0823930326407196,7.50461039689402,48.3953447407588));
#470=CARTESIAN_POINT('Ctrl Pts',(-0.085164779363678,7.50452195184996,48.4017250724744));
#471=CARTESIAN_POINT('Ctrl Pts',(-0.0880042745030871,7.5044319336121,48.4080789723853));
#472=CARTESIAN_POINT('Ctrl Pts',(-0.118100350972847,7.50347782182905,48.4754245560932));
#473=CARTESIAN_POINT('Ctrl Pts',(-0.155475958963304,7.50236206723954,48.539060836295));
#474=CARTESIAN_POINT('Ctrl Pts',(-0.199348867489492,7.50087035730438,48.597894738387));
#475=CARTESIAN_POINT('Ctrl Pts',(-0.234329568276304,7.49968098872464,48.6448041226593));
#476=CARTESIAN_POINT('Ctrl Pts',(-0.273440688347286,7.49825091297676,48.6886605511871));
#477=CARTESIAN_POINT('Ctrl Pts',(-0.316282176008238,7.49645379068993,48.7289099776929));
#478=CARTESIAN_POINT('Ctrl Pts',(-0.370481519703372,7.49418022705327,48.7798300698705));
#479=CARTESIAN_POINT('Ctrl Pts',(-0.43003272982781,7.49134083523421,48.8243991385822));
#480=CARTESIAN_POINT('Ctrl Pts',(-0.49376936383969,7.48772638925423,48.861907909354));
#481=CARTESIAN_POINT('Ctrl Pts',(-0.540489466386359,7.48507693514589,48.8894025149921));
#482=CARTESIAN_POINT('Ctrl Pts',(-0.589458251636376,7.48201143145507,48.9131035134858));
#483=CARTESIAN_POINT('Ctrl Pts',(-0.64021397443734,7.4784657309948,48.9327315486317));
#484=CARTESIAN_POINT('Ctrl Pts',(-0.697796639858118,7.47444311301166,48.9549996697085));
#485=CARTESIAN_POINT('Ctrl Pts',(-0.757136964469183,7.46983819283835,48.97181678255));
#486=CARTESIAN_POINT('Ctrl Pts',(-0.817464892887469,7.46462964418952,48.9830668651225));
#487=CARTESIAN_POINT('Ctrl Pts',(-0.877792821305754,7.45942109554069,48.994316947695));
#488=CARTESIAN_POINT('Ctrl Pts',(-0.939108121355315,7.45360858795978,48.9999999999987));
#489=CARTESIAN_POINT('Ctrl Pts',(-1.00064444939735,7.44722483054484,49.));
#490=CARTESIAN_POINT('',(-1.23259516440783E-31,-7.51020407418207,48.0000007301569));
#491=CARTESIAN_POINT('Ctrl Pts',(5.55111512312578E-16,7.51020407418207,
48.0000007301569));
#492=CARTESIAN_POINT('Ctrl Pts',(1.29483788980298,7.52341670571067,46.7051628403539));
#493=CARTESIAN_POINT('Ctrl Pts',(2.61277354769802,7.27612005761253,45.3872271824589));
#494=CARTESIAN_POINT('Ctrl Pts',(4.83095771741765,6.31521471392245,43.1690430127393));
#495=CARTESIAN_POINT('Ctrl Pts',(5.7088306018167,5.72502079054426,42.2911701283402));
#496=CARTESIAN_POINT('Ctrl Pts',(6.95433687985924,4.49309451145877,41.0456638502976));
#497=CARTESIAN_POINT('Ctrl Pts',(7.4303874827357,3.88091358097434,40.5696132474212));
#498=CARTESIAN_POINT('Ctrl Pts',(8.08920466074939,2.62804040695023,39.9107960694075));
#499=CARTESIAN_POINT('Ctrl Pts',(8.31365764966429,2.03425171951464,39.6863430804926));
#500=CARTESIAN_POINT('Ctrl Pts',(8.57768924069579,0.797471490869626,39.4223114894611));
#501=CARTESIAN_POINT('Ctrl Pts',(8.62433133634842,0.183433840298352,39.3756693937953));
#502=CARTESIAN_POINT('Ctrl Pts',(8.53925906019403,-1.11073690624214,39.4607416699497));
#503=CARTESIAN_POINT('Ctrl Pts',(8.39364703688848,-1.75500244581737,39.6063536932684));
#504=CARTESIAN_POINT('Ctrl Pts',(7.87516099227007,-3.14318122722141,40.1248397378868));
#505=CARTESIAN_POINT('Ctrl Pts',(7.45508229200556,-3.83105204946282,40.5449184381513));
#506=CARTESIAN_POINT('Ctrl Pts',(6.30011791156834,-5.23656939612368,41.6998828185886));
#507=CARTESIAN_POINT('Ctrl Pts',(5.44224916433441,-5.92950115700307,42.5577515658225));
#508=CARTESIAN_POINT('Ctrl Pts',(3.10572087689782,-7.16100955609,44.8942798532591));
#509=CARTESIAN_POINT('Ctrl Pts',(1.56497711712297,-7.52617322843843,46.4350236130339));
#510=CARTESIAN_POINT('Ctrl Pts',(1.66533453693773E-15,-7.51020407418207,
48.0000007301569));
#511=CARTESIAN_POINT('',(-0.999999999849655,-7.44787133719965,49.));
#512=CARTESIAN_POINT('Ctrl Pts',(-0.999724338222221,-7.44733958817938,49.));
#513=CARTESIAN_POINT('Ctrl Pts',(-0.939736190006537,-7.45356298062097,49.0000000000013));
#514=CARTESIAN_POINT('Ctrl Pts',(-0.879827306108204,-7.45925822953566,48.9946068140987));
#515=CARTESIAN_POINT('Ctrl Pts',(-0.820718108832098,-7.46438682785853,48.9838611384817));
#516=CARTESIAN_POINT('Ctrl Pts',(-0.817228350222477,-7.46468961610431,48.9832267225916));
#517=CARTESIAN_POINT('Ctrl Pts',(-0.813741380473279,-7.46499044418983,48.98257364993));
#518=CARTESIAN_POINT('Ctrl Pts',(-0.810257348343309,-7.46528930979039,48.9819019288717));
#519=CARTESIAN_POINT('Ctrl Pts',(-0.746320394368885,-7.47077391941354,48.9695748903179));
#520=CARTESIAN_POINT('Ctrl Pts',(-0.683847251944604,-7.47555202534328,48.951060291917));
#521=CARTESIAN_POINT('Ctrl Pts',(-0.623701256593095,-7.47967157156414,48.9266753613079));
#522=CARTESIAN_POINT('Ctrl Pts',(-0.568099493787341,-7.48347987219166,48.904132794345));
#523=CARTESIAN_POINT('Ctrl Pts',(-0.514486678827184,-7.48672652560507,48.8765734322332));
#524=CARTESIAN_POINT('Ctrl Pts',(-0.463544090833341,-7.48948899236911,48.8442478954495));
#525=CARTESIAN_POINT('Ctrl Pts',(-0.375237559020879,-7.49427759594789,48.7882131285724));
#526=CARTESIAN_POINT('Ctrl Pts',(-0.296311031185911,-7.49754042425137,48.7187088721102));
#527=CARTESIAN_POINT('Ctrl Pts',(-0.229616341912101,-7.49993616514516,48.6383123148321));
#528=CARTESIAN_POINT('Ctrl Pts',(-0.220100106252283,-7.50027799798333,48.6268410478748));
#529=CARTESIAN_POINT('Ctrl Pts',(-0.210832830076226,-7.50060223241367,48.6151480289424));
#530=CARTESIAN_POINT('Ctrl Pts',(-0.201822736581678,-7.50091078633532,48.603240744349));
#531=CARTESIAN_POINT('Ctrl Pts',(-0.161267024867116,-7.50229963140139,48.5496443636271));
#532=CARTESIAN_POINT('Ctrl Pts',(-0.126316347141473,-7.50336080208902,48.4922267345762));
#533=CARTESIAN_POINT('Ctrl Pts',(-0.0974169309744377,-7.50426602359165,
48.4319034744923));
#534=CARTESIAN_POINT('Ctrl Pts',(-0.0694029656799763,-7.50514350996063,
48.3734284622403));
#535=CARTESIAN_POINT('Ctrl Pts',(-0.047074929788621,-7.50587518892897,48.3122231428812));
#536=CARTESIAN_POINT('Ctrl Pts',(-0.0308363209975877,-7.50657076683779,
48.2491215250348));
#537=CARTESIAN_POINT('Ctrl Pts',(-0.015880345588413,-7.50721140337466,48.1910040928745));
#538=CARTESIAN_POINT('Ctrl Pts',(-0.0062239959244452,-7.50781613471903,
48.13179774756));
#539=CARTESIAN_POINT('Ctrl Pts',(-0.00190813636443088,-7.50842493550534,
48.072225821069));
#540=CARTESIAN_POINT('Ctrl Pts',(-0.000167114898544375,-7.50867052626719,
48.0481944545839));
#541=CARTESIAN_POINT('Ctrl Pts',(0.000704838171577694,-7.50891619047904,
48.0241035962495));
#542=CARTESIAN_POINT('Ctrl Pts',(0.000705039724555379,-7.50916214399676,
48.0000007301569));
#543=CARTESIAN_POINT('Ctrl Pts',(-8.5,-9.10831056865844E-16,49.));
#544=CARTESIAN_POINT('Ctrl Pts',(-8.5,-1.11264739814639,49.));
#545=CARTESIAN_POINT('Ctrl Pts',(-8.21540355439877,-2.22533390002461,49.));
#546=CARTESIAN_POINT('Ctrl Pts',(-7.66937793713875,-3.23300282823011,49.));
#547=CARTESIAN_POINT('Ctrl Pts',(-7.12335231987874,-4.24067175643562,49.));
#548=CARTESIAN_POINT('Ctrl Pts',(-6.31589753095994,-5.14332311096842,49.));
#549=CARTESIAN_POINT('Ctrl Pts',(-5.32256199858956,-5.84735955931813,49.));
#550=CARTESIAN_POINT('Ctrl Pts',(-4.32922646621917,-6.55139600766783,49.));
#551=CARTESIAN_POINT('Ctrl Pts',(-3.1500101903972,-7.05681754983443,49.));
#552=CARTESIAN_POINT('Ctrl Pts',(-1.90321043068708,-7.30949874810421,49.));
#553=CARTESIAN_POINT('Ctrl Pts',(-1.60528963389707,-7.36987651392917,49.));
#554=CARTESIAN_POINT('Ctrl Pts',(-1.30351006795974,-7.4158237327447,49.));
#555=CARTESIAN_POINT('Ctrl Pts',(-0.999724334405104,-7.44733958857538,49.));
#556=CARTESIAN_POINT('Origin',(0.,0.,0.));
#557=CARTESIAN_POINT('Origin',(-1.,4.14014116757202E-17,48.));
#558=CARTESIAN_POINT('',(-1.,4.14014116757202E-17,49.));
#559=CARTESIAN_POINT('',(-1.23259516440783E-31,0.,48.0000007301569));
#560=CARTESIAN_POINT('Origin',(-0.772727272727272,8.28028233514404E-17,
49.));
#561=CARTESIAN_POINT('Origin',(11.0000001639128,0.,37.0000005662441));
#562=CARTESIAN_POINT('',(5.5,1.77856329801667E-16,42.5000007301569));
#563=CARTESIAN_POINT('Origin',(4.25,2.47754799082476E-17,43.7500007301569));
#564=CARTESIAN_POINT('Origin',(3.08148791101958E-32,0.,1.));
#565=CARTESIAN_POINT('',(5.5,-1.28305369985172E-16,6.49999999999999));
#566=CARTESIAN_POINT('Origin',(4.25,2.47754799082476E-17,5.24999999999999));
#567=CARTESIAN_POINT('Origin',(4.25,2.47754799082476E-17,49.));
#568=CARTESIAN_POINT('',(5.5,-1.28305369985172E-16,49.));
#569=CARTESIAN_POINT('Origin',(0.,0.,0.));
#570=CARTESIAN_POINT('',(0.,0.,0.));
#571=UNCERTAINTY_MEASURE_WITH_UNIT(LENGTH_MEASURE(0.01),#577,
'DISTANCE_ACCURACY_VALUE',
'Maximum model space distance between geometric entities at asserted c
onnectivities');
#572=UNCERTAINTY_MEASURE_WITH_UNIT(LENGTH_MEASURE(0.01),#577,
'DISTANCE_ACCURACY_VALUE',
'Maximum model space distance between geometric entities at asserted c
onnectivities');
#573=UNCERTAINTY_MEASURE_WITH_UNIT(LENGTH_MEASURE(0.01),#577,
'DISTANCE_ACCURACY_VALUE',
'Maximum model space distance between geometric entities at asserted c
onnectivities');
#574=(
GEOMETRIC_REPRESENTATION_CONTEXT(3)
GLOBAL_UNCERTAINTY_ASSIGNED_CONTEXT((#571))
GLOBAL_UNIT_ASSIGNED_CONTEXT((#577,#579,#580))
REPRESENTATION_CONTEXT('','3D')
);
#575=(
GEOMETRIC_REPRESENTATION_CONTEXT(3)
GLOBAL_UNCERTAINTY_ASSIGNED_CONTEXT((#572))
GLOBAL_UNIT_ASSIGNED_CONTEXT((#577,#579,#580))
REPRESENTATION_CONTEXT('','3D')
);
#576=(
GEOMETRIC_REPRESENTATION_CONTEXT(3)
GLOBAL_UNCERTAINTY_ASSIGNED_CONTEXT((#573))
GLOBAL_UNIT_ASSIGNED_CONTEXT((#577,#579,#580))
REPRESENTATION_CONTEXT('','3D')
);
#577=(
LENGTH_UNIT()
NAMED_UNIT(*)
SI_UNIT(.MILLI.,.METRE.)
);
#578=(
LENGTH_UNIT()
NAMED_UNIT(*)
SI_UNIT($,.METRE.)
);
#579=(
NAMED_UNIT(*)
PLANE_ANGLE_UNIT()
SI_UNIT($,.RADIAN.)
);
#580=(
NAMED_UNIT(*)
SI_UNIT($,.STERADIAN.)
SOLID_ANGLE_UNIT()
);
#581=SHAPE_DEFINITION_REPRESENTATION(#583,#586);
#582=SHAPE_DEFINITION_REPRESENTATION(#584,#587);
#583=PRODUCT_DEFINITION_SHAPE('',$,#589);
#584=PRODUCT_DEFINITION_SHAPE('',$,#590);
#585=PRODUCT_DEFINITION_SHAPE($,$,#14);
#586=SHAPE_REPRESENTATION('',(#204,#223),#574);
#587=SHAPE_REPRESENTATION('',(#205),#575);
#588=PRODUCT_DEFINITION_CONTEXT('part definition',#596,'design');
#589=PRODUCT_DEFINITION('2025-12-07-23-20-28-318','Ring Finger',#591,#588);
#590=PRODUCT_DEFINITION('2025-12-07-23-25-41-943','Proximal phalanx',#592,
#588);
#591=PRODUCT_DEFINITION_FORMATION('',$,#598);
#592=PRODUCT_DEFINITION_FORMATION('',$,#599);
#593=PRODUCT_RELATED_PRODUCT_CATEGORY('Ring Finger','Ring Finger',(#598));
#594=PRODUCT_RELATED_PRODUCT_CATEGORY('Proximal phalanx',
'Proximal phalanx',(#599));
#595=APPLICATION_PROTOCOL_DEFINITION('international standard',
'automotive_design',2009,#596);
#596=APPLICATION_CONTEXT(
'Core Data for Automotive Mechanical Design Process');
#597=PRODUCT_CONTEXT('part definition',#596,'mechanical');
#598=PRODUCT('2025-12-07-23-20-28-318','Ring Finger',$,(#597));
#599=PRODUCT('2025-12-07-23-25-41-943','Proximal phalanx',$,(#597));
#600=PRESENTATION_STYLE_ASSIGNMENT((#601));
#601=SURFACE_STYLE_USAGE(.BOTH.,#602);
#602=SURFACE_SIDE_STYLE('',(#603));
#603=SURFACE_STYLE_FILL_AREA(#604);
#604=FILL_AREA_STYLE('Steel - Satin',(#605));
#605=FILL_AREA_STYLE_COLOUR('Steel - Satin',#606);
#606=COLOUR_RGB('Steel - Satin',0.627450980392157,0.627450980392157,0.627450980392157);
ENDSEC;
END-ISO-10303-21;
