ISO-10303-21;
HEADER;
/* Generated by software containing ST-Developer
 * from STEP Tools, Inc. (www.steptools.com) 
 */

FILE_DESCRIPTION(
/* description */ (''),
/* implementation_level */ '2;1');

FILE_NAME(
/* name */ 'Thumb proximal phalanx.step',
/* time_stamp */ '2026-01-04T20:40:08Z',
/* author */ (''),
/* organization */ (''),
/* preprocessor_version */ 'ST-DEVELOPER v20.1',
/* originating_system */ 'Autodesk Translation Framework v14.21.0.0',
/* authorisation */ '');

FILE_SCHEMA (('AUTOMOTIVE_DESIGN { 1 0 10303 214 3 1 1 }'));
ENDSEC;

DATA;
#10=MECHANICAL_DESIGN_GEOMETRIC_PRESENTATION_REPRESENTATION('',(#17),#533);
#11=ITEM_DEFINED_TRANSFORMATION($,$,#205,#223);
#12=(
REPRESENTATION_RELATIONSHIP($,$,#544,#543)
REPRESENTATION_RELATIONSHIP_WITH_TRANSFORMATION(#11)
SHAPE_REPRESENTATION_RELATIONSHIP()
);
#13=CONTEXT_DEPENDENT_SHAPE_REPRESENTATION(#12,#542);
#14=NEXT_ASSEMBLY_USAGE_OCCURRENCE('Proximal phalanx:1',
'Proximal phalanx:1','Proximal phalanx:1',#546,#547,
'Proximal phalanx:1');
#15=SHAPE_REPRESENTATION_RELATIONSHIP('SRR','None',#544,#16);
#16=ADVANCED_BREP_SHAPE_REPRESENTATION('',(#18),#532);
#17=STYLED_ITEM('',(#557),#18);
#18=MANIFOLD_SOLID_BREP('Body1',#191);
#19=FACE_BOUND('',#58,.T.);
#20=FACE_BOUND('',#59,.T.);
#21=FACE_BOUND('',#61,.T.);
#22=FACE_BOUND('',#63,.T.);
#23=FACE_BOUND('',#66,.T.);
#24=FACE_BOUND('',#67,.T.);
#25=PLANE('',#216);
#26=PLANE('',#217);
#27=PLANE('',#219);
#28=PLANE('',#222);
#29=ELLIPSE('',#213,10.,9.);
#30=ELLIPSE('',#214,10.,9.);
#31=ELLIPSE('',#218,1.76776695296637,1.25);
#32=ELLIPSE('',#220,1.76776695296638,1.25);
#33=B_SPLINE_SURFACE_WITH_KNOTS('',3,3,((#321,#322,#323,#324),(#325,#326,
#327,#328),(#329,#330,#331,#332),(#333,#334,#335,#336),(#337,#338,#339,
#340),(#341,#342,#343,#344),(#345,#346,#347,#348),(#349,#350,#351,#352),
(#353,#354,#355,#356),(#357,#358,#359,#360),(#361,#362,#363,#364),(#365,
#366,#367,#368),(#369,#370,#371,#372),(#373,#374,#375,#376),(#377,#378,
#379,#380),(#381,#382,#383,#384),(#385,#386,#387,#388)),.UNSPECIFIED.,.T.,
 .F.,.F.,(4,1,1,1,1,1,1,1,1,1,1,1,1,1,4),(4,4),(0.,0.0714285714285714,0.142857142857143,
0.214285714285714,0.285714285714286,0.357142857142857,0.428571428571429,
0.523809523809524,0.571428571428571,0.619047619047619,0.714285714285714,
0.785714285714286,0.857142857142857,0.928571428571429,1.),(0.,1.),
 .UNSPECIFIED.);
#34=B_SPLINE_CURVE_WITH_KNOTS('',3,(#289,#290,#291,#292,#293,#294,#295,
#296,#297,#298,#299,#300,#301,#302),.UNSPECIFIED.,.F.,.F.,(4,2,2,2,2,2,
4),(-0.157589922896792,-0.156012594115628,-0.118437010964662,-0.082866328752776,
-0.0432171522903605,-0.018753860023571,0.),.UNSPECIFIED.);
#35=B_SPLINE_CURVE_WITH_KNOTS('',3,(#306,#307,#308,#309,#310,#311,#312,
#313,#314,#315,#316,#317,#318,#319),.UNSPECIFIED.,.F.,.F.,(4,2,2,2,2,2,
4),(0.,0.016117036467566,0.0393600102014301,0.0764431067956756,0.115734722054045,
0.155816836743716,0.157610853093329),.UNSPECIFIED.);
#36=B_SPLINE_CURVE_WITH_KNOTS('',3,(#389,#390,#391,#392,#393,#394,#395,
#396,#397,#398,#399,#400,#401,#402,#403,#404,#405,#406,#407,#408,#409,#410),
 .UNSPECIFIED.,.F.,.F.,(4,2,2,2,2,2,2,2,2,2,4),(-3.78062505270364,-3.42644461887159,
-3.01523433005532,-2.64425753881536,-2.29916396492931,-2.07574834818222,
-1.89148691079222,-1.65487063751496,-1.29154047942049,-0.811423324304388,
-0.0500609348951256),.UNSPECIFIED.);
#37=B_SPLINE_CURVE_WITH_KNOTS('',3,(#416,#417,#418,#419,#420,#421,#422,
#423,#424,#425,#426,#427,#428),.UNSPECIFIED.,.F.,.F.,(4,3,3,3,4),(1.67570585005415,
1.79519580205131,2.24399475256414,2.69279370307697,3.14159265358979),
 .UNSPECIFIED.);
#38=B_SPLINE_CURVE_WITH_KNOTS('',3,(#430,#431,#432,#433,#434,#435,#436,
#437,#438,#439,#440,#441),.UNSPECIFIED.,.F.,.F.,(4,2,2,2,2,4),(-0.157663270412951,
-0.120687363232406,-0.0848375059129017,-0.0450548170288538,-0.0196427135145407,
0.),.UNSPECIFIED.);
#39=B_SPLINE_CURVE_WITH_KNOTS('',3,(#443,#444,#445,#446,#447,#448,#449,
#450,#451,#452,#453,#454,#455,#456,#457,#458,#459,#460,#461,#462,#463,#464),
 .UNSPECIFIED.,.F.,.F.,(4,2,2,2,2,2,2,2,2,2,4),(-4.11084384580196,-3.67941454234179,
-3.18047008814236,-2.78346033987605,-2.41269183867568,-2.16957991572786,
-1.96354462470142,-1.69724386580248,-1.2934129501525,-0.787272876223949,
-0.0500609846060526),.UNSPECIFIED.);
#40=B_SPLINE_CURVE_WITH_KNOTS('',3,(#466,#467,#468,#469,#470,#471,#472,
#473,#474,#475,#476,#477,#478,#479,#480,#481,#482,#483,#484,#485,#486,#487,
#488,#489,#490,#491,#492,#493,#494,#495,#496,#497,#498,#499),
 .UNSPECIFIED.,.F.,.F.,(4,3,3,3,3,3,3,3,3,3,3,4),(0.,0.0141554902107524,
0.0332400756902966,0.0372705674727469,0.0596921351202504,0.072146971621928,
0.09780339697935,0.111472979199879,0.131331320423784,0.150055656809269,
0.151189661647688,0.157660354600809),.UNSPECIFIED.);
#41=B_SPLINE_CURVE_WITH_KNOTS('',3,(#500,#501,#502,#503,#504,#505,#506,
#507,#508,#509,#510,#511,#512),.UNSPECIFIED.,.F.,.F.,(4,3,3,3,4),(-3.14159265358979,
-2.69279370307697,-2.24399475256414,-1.79519580205131,-1.6757058502269),
 .UNSPECIFIED.);
#42=FACE_OUTER_BOUND('',#52,.T.);
#43=FACE_OUTER_BOUND('',#53,.T.);
#44=FACE_OUTER_BOUND('',#54,.T.);
#45=FACE_OUTER_BOUND('',#55,.T.);
#46=FACE_OUTER_BOUND('',#56,.T.);
#47=FACE_OUTER_BOUND('',#57,.T.);
#48=FACE_OUTER_BOUND('',#60,.T.);
#49=FACE_OUTER_BOUND('',#62,.T.);
#50=FACE_OUTER_BOUND('',#64,.T.);
#51=FACE_OUTER_BOUND('',#65,.T.);
#52=EDGE_LOOP('',(#128,#129,#130,#131));
#53=EDGE_LOOP('',(#132,#133,#134,#135));
#54=EDGE_LOOP('',(#136,#137,#138,#139));
#55=EDGE_LOOP('',(#140,#141,#142,#143,#144,#145,#146,#147,#148,#149,#150,
#151));
#56=EDGE_LOOP('',(#152,#153,#154,#155));
#57=EDGE_LOOP('',(#156,#157,#158));
#58=EDGE_LOOP('',(#159));
#59=EDGE_LOOP('',(#160));
#60=EDGE_LOOP('',(#161,#162));
#61=EDGE_LOOP('',(#163));
#62=EDGE_LOOP('',(#164,#165));
#63=EDGE_LOOP('',(#166));
#64=EDGE_LOOP('',(#167,#168,#169,#170));
#65=EDGE_LOOP('',(#171,#172,#173));
#66=EDGE_LOOP('',(#174));
#67=EDGE_LOOP('',(#175));
#68=LINE('',#278,#76);
#69=LINE('',#284,#77);
#70=LINE('',#304,#78);
#71=LINE('',#320,#79);
#72=LINE('',#414,#80);
#73=LINE('',#515,#81);
#74=LINE('',#516,#82);
#75=LINE('',#525,#83);
#76=VECTOR('',#232,2.);
#77=VECTOR('',#239,2.);
#78=VECTOR('',#244,10.);
#79=VECTOR('',#245,10.);
#80=VECTOR('',#248,28.0044639298809);
#81=VECTOR('',#253,10.);
#82=VECTOR('',#254,10.);
#83=VECTOR('',#267,1.25);
#84=CIRCLE('',#207,2.);
#85=CIRCLE('',#208,2.);
#86=CIRCLE('',#210,2.);
#87=CIRCLE('',#211,2.);
#88=VERTEX_POINT('',#275);
#89=VERTEX_POINT('',#277);
#90=VERTEX_POINT('',#281);
#91=VERTEX_POINT('',#283);
#92=VERTEX_POINT('',#287);
#93=VERTEX_POINT('',#288);
#94=VERTEX_POINT('',#303);
#95=VERTEX_POINT('',#305);
#96=VERTEX_POINT('',#411);
#97=VERTEX_POINT('',#413);
#98=VERTEX_POINT('',#415);
#99=VERTEX_POINT('',#429);
#100=VERTEX_POINT('',#442);
#101=VERTEX_POINT('',#465);
#102=VERTEX_POINT('',#519);
#103=VERTEX_POINT('',#522);
#104=EDGE_CURVE('',#88,#88,#84,.T.);
#105=EDGE_CURVE('',#88,#89,#68,.T.);
#106=EDGE_CURVE('',#89,#89,#85,.T.);
#107=EDGE_CURVE('',#90,#90,#86,.T.);
#108=EDGE_CURVE('',#90,#91,#69,.T.);
#109=EDGE_CURVE('',#91,#91,#87,.T.);
#110=EDGE_CURVE('',#92,#93,#34,.T.);
#111=EDGE_CURVE('',#93,#94,#70,.T.);
#112=EDGE_CURVE('',#94,#95,#35,.T.);
#113=EDGE_CURVE('',#92,#95,#71,.T.);
#114=EDGE_CURVE('',#92,#95,#36,.T.);
#115=EDGE_CURVE('',#94,#96,#29,.T.);
#116=EDGE_CURVE('',#97,#96,#72,.T.);
#117=EDGE_CURVE('',#98,#97,#37,.T.);
#118=EDGE_CURVE('',#99,#98,#38,.T.);
#119=EDGE_CURVE('',#99,#100,#39,.T.);
#120=EDGE_CURVE('',#101,#100,#40,.T.);
#121=EDGE_CURVE('',#97,#101,#41,.T.);
#122=EDGE_CURVE('',#96,#93,#30,.T.);
#123=EDGE_CURVE('',#98,#101,#73,.T.);
#124=EDGE_CURVE('',#100,#99,#74,.T.);
#125=EDGE_CURVE('',#102,#102,#31,.T.);
#126=EDGE_CURVE('',#103,#103,#32,.T.);
#127=EDGE_CURVE('',#103,#102,#75,.T.);
#128=ORIENTED_EDGE('',*,*,#104,.F.);
#129=ORIENTED_EDGE('',*,*,#105,.T.);
#130=ORIENTED_EDGE('',*,*,#106,.F.);
#131=ORIENTED_EDGE('',*,*,#105,.F.);
#132=ORIENTED_EDGE('',*,*,#107,.F.);
#133=ORIENTED_EDGE('',*,*,#108,.T.);
#134=ORIENTED_EDGE('',*,*,#109,.F.);
#135=ORIENTED_EDGE('',*,*,#108,.F.);
#136=ORIENTED_EDGE('',*,*,#110,.T.);
#137=ORIENTED_EDGE('',*,*,#111,.T.);
#138=ORIENTED_EDGE('',*,*,#112,.T.);
#139=ORIENTED_EDGE('',*,*,#113,.F.);
#140=ORIENTED_EDGE('',*,*,#110,.F.);
#141=ORIENTED_EDGE('',*,*,#114,.T.);
#142=ORIENTED_EDGE('',*,*,#112,.F.);
#143=ORIENTED_EDGE('',*,*,#115,.T.);
#144=ORIENTED_EDGE('',*,*,#116,.F.);
#145=ORIENTED_EDGE('',*,*,#117,.F.);
#146=ORIENTED_EDGE('',*,*,#118,.F.);
#147=ORIENTED_EDGE('',*,*,#119,.T.);
#148=ORIENTED_EDGE('',*,*,#120,.F.);
#149=ORIENTED_EDGE('',*,*,#121,.F.);
#150=ORIENTED_EDGE('',*,*,#116,.T.);
#151=ORIENTED_EDGE('',*,*,#122,.T.);
#152=ORIENTED_EDGE('',*,*,#118,.T.);
#153=ORIENTED_EDGE('',*,*,#123,.T.);
#154=ORIENTED_EDGE('',*,*,#120,.T.);
#155=ORIENTED_EDGE('',*,*,#124,.T.);
#156=ORIENTED_EDGE('',*,*,#123,.F.);
#157=ORIENTED_EDGE('',*,*,#117,.T.);
#158=ORIENTED_EDGE('',*,*,#121,.T.);
#159=ORIENTED_EDGE('',*,*,#104,.T.);
#160=ORIENTED_EDGE('',*,*,#107,.T.);
#161=ORIENTED_EDGE('',*,*,#114,.F.);
#162=ORIENTED_EDGE('',*,*,#113,.T.);
#163=ORIENTED_EDGE('',*,*,#125,.F.);
#164=ORIENTED_EDGE('',*,*,#119,.F.);
#165=ORIENTED_EDGE('',*,*,#124,.F.);
#166=ORIENTED_EDGE('',*,*,#126,.F.);
#167=ORIENTED_EDGE('',*,*,#126,.T.);
#168=ORIENTED_EDGE('',*,*,#127,.T.);
#169=ORIENTED_EDGE('',*,*,#125,.T.);
#170=ORIENTED_EDGE('',*,*,#127,.F.);
#171=ORIENTED_EDGE('',*,*,#111,.F.);
#172=ORIENTED_EDGE('',*,*,#122,.F.);
#173=ORIENTED_EDGE('',*,*,#115,.F.);
#174=ORIENTED_EDGE('',*,*,#106,.T.);
#175=ORIENTED_EDGE('',*,*,#109,.T.);
#176=CYLINDRICAL_SURFACE('',#206,2.);
#177=CYLINDRICAL_SURFACE('',#209,2.);
#178=CYLINDRICAL_SURFACE('',#212,1.);
#179=CYLINDRICAL_SURFACE('',#215,1.);
#180=CYLINDRICAL_SURFACE('',#221,1.25);
#181=ADVANCED_FACE('',(#42),#176,.F.);
#182=ADVANCED_FACE('',(#43),#177,.F.);
#183=ADVANCED_FACE('',(#44),#178,.T.);
#184=ADVANCED_FACE('',(#45),#33,.F.);
#185=ADVANCED_FACE('',(#46),#179,.T.);
#186=ADVANCED_FACE('',(#47,#19,#20),#25,.T.);
#187=ADVANCED_FACE('',(#48,#21),#26,.F.);
#188=ADVANCED_FACE('',(#49,#22),#27,.F.);
#189=ADVANCED_FACE('',(#50),#180,.F.);
#190=ADVANCED_FACE('',(#51,#23,#24),#28,.F.);
#191=CLOSED_SHELL('',(#181,#182,#183,#184,#185,#186,#187,#188,#189,#190));
#192=DERIVED_UNIT_ELEMENT(#194,1.);
#193=DERIVED_UNIT_ELEMENT(#535,-3.);
#194=(
MASS_UNIT()
NAMED_UNIT(*)
SI_UNIT(.KILO.,.GRAM.)
);
#195=DERIVED_UNIT((#192,#193));
#196=MEASURE_REPRESENTATION_ITEM('density measure',
POSITIVE_RATIO_MEASURE(7850.),#195);
#197=PROPERTY_DEFINITION_REPRESENTATION(#202,#199);
#198=PROPERTY_DEFINITION_REPRESENTATION(#203,#200);
#199=REPRESENTATION('material name',(#201),#532);
#200=REPRESENTATION('density',(#196),#532);
#201=DESCRIPTIVE_REPRESENTATION_ITEM('Steel','Steel');
#202=PROPERTY_DEFINITION('material property','material name',#547);
#203=PROPERTY_DEFINITION('material property','density of part',#547);
#204=AXIS2_PLACEMENT_3D('',#272,#224,#225);
#205=AXIS2_PLACEMENT_3D('',#273,#226,#227);
#206=AXIS2_PLACEMENT_3D('',#274,#228,#229);
#207=AXIS2_PLACEMENT_3D('',#276,#230,#231);
#208=AXIS2_PLACEMENT_3D('',#279,#233,#234);
#209=AXIS2_PLACEMENT_3D('',#280,#235,#236);
#210=AXIS2_PLACEMENT_3D('',#282,#237,#238);
#211=AXIS2_PLACEMENT_3D('',#285,#240,#241);
#212=AXIS2_PLACEMENT_3D('',#286,#242,#243);
#213=AXIS2_PLACEMENT_3D('',#412,#246,#247);
#214=AXIS2_PLACEMENT_3D('',#513,#249,#250);
#215=AXIS2_PLACEMENT_3D('',#514,#251,#252);
#216=AXIS2_PLACEMENT_3D('',#517,#255,#256);
#217=AXIS2_PLACEMENT_3D('',#518,#257,#258);
#218=AXIS2_PLACEMENT_3D('',#520,#259,#260);
#219=AXIS2_PLACEMENT_3D('',#521,#261,#262);
#220=AXIS2_PLACEMENT_3D('',#523,#263,#264);
#221=AXIS2_PLACEMENT_3D('',#524,#265,#266);
#222=AXIS2_PLACEMENT_3D('',#526,#268,#269);
#223=AXIS2_PLACEMENT_3D('',#527,#270,#271);
#224=DIRECTION('axis',(0.,0.,1.));
#225=DIRECTION('refdir',(1.,0.,0.));
#226=DIRECTION('axis',(0.,0.,1.));
#227=DIRECTION('refdir',(1.,0.,0.));
#228=DIRECTION('center_axis',(0.,0.,-1.));
#229=DIRECTION('ref_axis',(-1.,0.,0.));
#230=DIRECTION('center_axis',(-4.35801045394908E-32,3.42233133062628E-32,
-1.));
#231=DIRECTION('ref_axis',(-1.,0.,0.));
#232=DIRECTION('',(0.,0.,-1.));
#233=DIRECTION('center_axis',(0.,0.,1.));
#234=DIRECTION('ref_axis',(-1.,0.,0.));
#235=DIRECTION('center_axis',(0.,0.,-1.));
#236=DIRECTION('ref_axis',(-1.,0.,0.));
#237=DIRECTION('center_axis',(-4.35801045394908E-32,3.42233133062628E-32,
-1.));
#238=DIRECTION('ref_axis',(-1.,0.,0.));
#239=DIRECTION('',(0.,0.,-1.));
#240=DIRECTION('center_axis',(0.,0.,1.));
#241=DIRECTION('ref_axis',(-1.,0.,0.));
#242=DIRECTION('center_axis',(0.,-1.,0.));
#243=DIRECTION('ref_axis',(0.707106781186548,0.,-0.707106781186548));
#244=DIRECTION('',(0.,1.,0.));
#245=DIRECTION('',(0.,1.,0.));
#246=DIRECTION('center_axis',(0.,0.,1.));
#247=DIRECTION('ref_axis',(1.,0.,0.));
#248=DIRECTION('',(-0.017854296416883,-2.42946743977375E-18,-0.999840599345445));
#249=DIRECTION('center_axis',(0.,0.,1.));
#250=DIRECTION('ref_axis',(1.,0.,0.));
#251=DIRECTION('center_axis',(0.,1.,3.42233133062628E-32));
#252=DIRECTION('ref_axis',(0.707106781186549,-2.17894099802632E-32,0.707106781186546));
#253=DIRECTION('',(0.,-1.,-3.42233133062628E-32));
#254=DIRECTION('',(0.,1.,0.));
#255=DIRECTION('center_axis',(4.35801045394908E-32,-3.42233133062628E-32,
1.));
#256=DIRECTION('ref_axis',(1.,0.,-4.35801045394908E-32));
#257=DIRECTION('center_axis',(-0.707106781186548,0.,0.707106781186547));
#258=DIRECTION('ref_axis',(0.707106781186547,0.,0.707106781186548));
#259=DIRECTION('center_axis',(0.707106781186548,0.,-0.707106781186547));
#260=DIRECTION('ref_axis',(-0.707106781186547,0.,-0.707106781186548));
#261=DIRECTION('center_axis',(-0.707106781186551,0.,-0.707106781186544));
#262=DIRECTION('ref_axis',(-0.707106781186544,0.,0.707106781186551));
#263=DIRECTION('center_axis',(0.707106781186551,0.,0.707106781186544));
#264=DIRECTION('ref_axis',(-0.707106781186544,0.,0.707106781186551));
#265=DIRECTION('center_axis',(0.,0.,-1.));
#266=DIRECTION('ref_axis',(-1.,0.,0.));
#267=DIRECTION('',(0.,0.,-1.));
#268=DIRECTION('center_axis',(0.,0.,1.));
#269=DIRECTION('ref_axis',(1.,0.,0.));
#270=DIRECTION('',(0.,0.,1.));
#271=DIRECTION('',(1.,0.,0.));
#272=CARTESIAN_POINT('',(0.,0.,0.));
#273=CARTESIAN_POINT('',(0.,0.,0.));
#274=CARTESIAN_POINT('Origin',(-5.24999999997047,-3.54171460801231,28.));
#275=CARTESIAN_POINT('',(-3.24999999997047,-3.54171460801231,28.));
#276=CARTESIAN_POINT('Origin',(-5.24999999997047,-3.54171460801231,28.));
#277=CARTESIAN_POINT('',(-3.24999999997047,-3.54171460801231,0.));
#278=CARTESIAN_POINT('',(-3.24999999997047,-3.54171460801231,28.));
#279=CARTESIAN_POINT('Origin',(-5.24999999997047,-3.54171460801231,0.));
#280=CARTESIAN_POINT('Origin',(-5.24999999997124,3.54171460801231,28.));
#281=CARTESIAN_POINT('',(-3.24999999997124,3.54171460801231,28.));
#282=CARTESIAN_POINT('Origin',(-5.24999999997124,3.54171460801231,28.));
#283=CARTESIAN_POINT('',(-3.24999999997124,3.54171460801231,0.));
#284=CARTESIAN_POINT('',(-3.24999999997124,3.54171460801231,28.));
#285=CARTESIAN_POINT('Origin',(-5.24999999997124,3.54171460801231,0.));
#286=CARTESIAN_POINT('Origin',(-1.,0.,1.));
#287=CARTESIAN_POINT('',(-3.08148791101958E-32,-8.98214285714286,1.));
#288=CARTESIAN_POINT('',(-1.,-8.95488693395958,0.));
#289=CARTESIAN_POINT('Ctrl Pts',(6.1133930839579E-16,-8.98214285714286,
1.));
#290=CARTESIAN_POINT('Ctrl Pts',(6.08423501735628E-16,-8.98223665446992,
0.994747349684722));
#291=CARTESIAN_POINT('Ctrl Pts',(-4.13854329820855E-5,-8.98233048598857,
0.989492797646554));
#292=CARTESIAN_POINT('Ctrl Pts',(-0.00209818962482704,-8.98466020143591,
0.859027442586045));
#293=CARTESIAN_POINT('Ctrl Pts',(-0.0275737211622743,-8.98693771558189,
0.735295079849855));
#294=CARTESIAN_POINT('Ctrl Pts',(-0.120331069107128,-8.99033477793911,0.509861904579271));
#295=CARTESIAN_POINT('Ctrl Pts',(-0.184577939100456,-8.99145099198783,0.409118166573712));
#296=CARTESIAN_POINT('Ctrl Pts',(-0.35455549357285,-8.99068564692255,0.224846093824436));
#297=CARTESIAN_POINT('Ctrl Pts',(-0.46248591065254,-8.9884022304531,0.146468601823787));
#298=CARTESIAN_POINT('Ctrl Pts',(-0.656508070414761,-8.97980643743771,0.0573169536902228));
#299=CARTESIAN_POINT('Ctrl Pts',(-0.734355393693263,-8.97540811249858,0.0325028251181044));
#300=CARTESIAN_POINT('Ctrl Pts',(-0.875569540819522,-8.96550217641236,0.00581373560448911));
#301=CARTESIAN_POINT('Ctrl Pts',(-0.937741309075495,-8.96051844444342,-1.36139488945995E-12));
#302=CARTESIAN_POINT('Ctrl Pts',(-1.00000000002187,-8.9548869339576,0.));
#303=CARTESIAN_POINT('',(-1.,8.95488693395958,0.));
#304=CARTESIAN_POINT('',(-1.,0.,0.));
#305=CARTESIAN_POINT('',(-3.08148791101958E-32,8.98214285714286,1.));
#306=CARTESIAN_POINT('Ctrl Pts',(-0.999999999978913,8.95488693396149,0.));
#307=CARTESIAN_POINT('Ctrl Pts',(-0.946494983350611,8.95972664481294,1.12825769756477E-12));
#308=CARTESIAN_POINT('Ctrl Pts',(-0.893038976734319,8.96409014841853,0.00429391649105326));
#309=CARTESIAN_POINT('Ctrl Pts',(-0.763861867325854,8.97351784631715,0.0252126786221368));
#310=CARTESIAN_POINT('Ctrl Pts',(-0.689215191160526,8.97800047960131,0.0463737634968104));
#311=CARTESIAN_POINT('Ctrl Pts',(-0.503595754403534,8.98696711007334,0.123170078183683));
#312=CARTESIAN_POINT('Ctrl Pts',(-0.399171029066793,8.98977206396302,0.191124771302654));
#313=CARTESIAN_POINT('Ctrl Pts',(-0.214993471906689,8.99177245157177,0.366823167492269));
#314=CARTESIAN_POINT('Ctrl Pts',(-0.138912232737443,8.99077647277865,0.47495231911709));
#315=CARTESIAN_POINT('Ctrl Pts',(-0.0316879445047428,8.98728720224356,0.716775926402559));
#316=CARTESIAN_POINT('Ctrl Pts',(-0.00255560758222346,8.98484796075922,
0.848512189242885));
#317=CARTESIAN_POINT('Ctrl Pts',(-5.35338614985397E-5,8.98235625744493,
0.988049604850529));
#318=CARTESIAN_POINT('Ctrl Pts',(6.08023042780474E-16,8.98224953666135,
0.99402594696424));
#319=CARTESIAN_POINT('Ctrl Pts',(6.1133930839579E-16,8.98214285714286,1.));
#320=CARTESIAN_POINT('',(-3.08148791101958E-32,0.,1.));
#321=CARTESIAN_POINT('Ctrl Pts',(-9.5,-1.03414618594665E-15,28.));
#322=CARTESIAN_POINT('Ctrl Pts',(-9.66666666666667,-1.05682483037531E-15,
18.6666666666667));
#323=CARTESIAN_POINT('Ctrl Pts',(-9.83333333333333,-1.07950347480396E-15,
9.33333333333333));
#324=CARTESIAN_POINT('Ctrl Pts',(-10.,-1.10218211923262E-15,0.));
#325=CARTESIAN_POINT('Ctrl Pts',(-9.5,-1.26328593477685,28.));
#326=CARTESIAN_POINT('Ctrl Pts',(-9.66681281561475,-1.29101526834585,18.6666666666667));
#327=CARTESIAN_POINT('Ctrl Pts',(-9.83318718438525,-1.31866751796949,9.33333333333333));
#328=CARTESIAN_POINT('Ctrl Pts',(-10.,-1.34639685153848,0.));
#329=CARTESIAN_POINT('Ctrl Pts',(-8.86126627815761,-3.7896412487139,28.));
#330=CARTESIAN_POINT('Ctrl Pts',(-9.01335291622043,-3.8724682891778,18.6666666666667));
#331=CARTESIAN_POINT('Ctrl Pts',(-9.16552483011616,-3.9553316295233,9.33333333333333));
#332=CARTESIAN_POINT('Ctrl Pts',(-9.31761146817897,-4.0381586699872,0.));
#333=CARTESIAN_POINT('Ctrl Pts',(-6.15057496382371,-6.85657870476813,28.));
#334=CARTESIAN_POINT('Ctrl Pts',(-6.2497795438858,-6.9970486890963,18.6666666666667));
#335=CARTESIAN_POINT('Ctrl Pts',(-6.34882106655887,-7.137448306564,9.33333333333334));
#336=CARTESIAN_POINT('Ctrl Pts',(-6.44802564662096,-7.27791829089218,0.));
#337=CARTESIAN_POINT('Ctrl Pts',(-2.1994890592664,-8.57034859698855,28.));
#338=CARTESIAN_POINT('Ctrl Pts',(-2.23351434359358,-8.73814326187354,18.6666666666667));
#339=CARTESIAN_POINT('Ctrl Pts',(-2.26751804409825,-8.90594681176742,9.33333333333333));
#340=CARTESIAN_POINT('Ctrl Pts',(-2.30154332842543,-9.07374147665241,0.));
#341=CARTESIAN_POINT('Ctrl Pts',(2.20021874069199,-8.57074667999906,28.));
#342=CARTESIAN_POINT('Ctrl Pts',(2.23430829946704,-8.73857889798101,18.6666666666667));
#343=CARTESIAN_POINT('Ctrl Pts',(2.26845241290198,-8.90639856865459,9.33333333333334));
#344=CARTESIAN_POINT('Ctrl Pts',(2.30254197167703,-9.07423078663655,0.));
#345=CARTESIAN_POINT('Ctrl Pts',(6.14846897262637,-6.85513575846348,28.));
#346=CARTESIAN_POINT('Ctrl Pts',(6.24748426416794,-6.99554630330517,18.6666666666667));
#347=CARTESIAN_POINT('Ctrl Pts',(6.34668046147142,-7.13588409793908,9.33333333333333));
#348=CARTESIAN_POINT('Ctrl Pts',(6.44569575301299,-7.27629464278077,0.));
#349=CARTESIAN_POINT('Ctrl Pts',(9.16695954606658,-3.44992991239757,28.));
#350=CARTESIAN_POINT('Ctrl Pts',(9.32538637927847,-3.5264965981118,18.6666666666667));
#351=CARTESIAN_POINT('Ctrl Pts',(9.48354449169836,-3.60313028569697,9.33333333333333));
#352=CARTESIAN_POINT('Ctrl Pts',(9.64197132491025,-3.67969697141121,0.));
#353=CARTESIAN_POINT('Ctrl Pts',(9.8205266359976,0.462400061706224,28.));
#354=CARTESIAN_POINT('Ctrl Pts',(9.99445670335841,0.473087540946871,18.6666666666667));
#355=CARTESIAN_POINT('Ctrl Pts',(10.1683440885325,0.483777064707067,9.33333333333334));
#356=CARTESIAN_POINT('Ctrl Pts',(10.3422741558933,0.494464543947714,0.));
#357=CARTESIAN_POINT('Ctrl Pts',(8.69474520926793,3.72100565645873,28.));
#358=CARTESIAN_POINT('Ctrl Pts',(8.84386010640726,3.80148337647016,18.6666666666667));
#359=CARTESIAN_POINT('Ctrl Pts',(8.99305622405729,3.88190368788825,9.33333333333333));
#360=CARTESIAN_POINT('Ctrl Pts',(9.14217112119662,3.96238140789968,0.));
#361=CARTESIAN_POINT('Ctrl Pts',(6.557814902477,6.56204473404593,28.));
#362=CARTESIAN_POINT('Ctrl Pts',(6.66451826831945,6.6976986468441,18.6666666666667));
#363=CARTESIAN_POINT('Ctrl Pts',(6.77112652691384,6.83337642435725,9.33333333333334));
#364=CARTESIAN_POINT('Ctrl Pts',(6.87782989275629,6.96903033715542,0.));
#365=CARTESIAN_POINT('Ctrl Pts',(2.69092318533663,8.57516997436513,28.));
#366=CARTESIAN_POINT('Ctrl Pts',(2.73224986397271,8.74310015085865,18.6666666666667));
#367=CARTESIAN_POINT('Ctrl Pts',(2.77377169443137,8.91090919017668,9.33333333333333));
#368=CARTESIAN_POINT('Ctrl Pts',(2.81509837306745,9.0788393666702,0.));
#369=CARTESIAN_POINT('Ctrl Pts',(-2.20041380666604,8.56885784624562,28.));
#370=CARTESIAN_POINT('Ctrl Pts',(-2.23429647561529,8.73660747049414,18.6666666666667));
#371=CARTESIAN_POINT('Ctrl Pts',(-2.26829731206832,8.90442288509514,9.33333333333334));
#372=CARTESIAN_POINT('Ctrl Pts',(-2.30217998101757,9.07217250934366,0.));
#373=CARTESIAN_POINT('Ctrl Pts',(-6.1495326866972,6.85653590888811,28.));
#374=CARTESIAN_POINT('Ctrl Pts',(-6.24883158652037,6.99703120443278,18.6666666666667));
#375=CARTESIAN_POINT('Ctrl Pts',(-6.3479270316288,7.13749088825001,9.33333333333332));
#376=CARTESIAN_POINT('Ctrl Pts',(-6.44722593145197,7.27798618379469,0.));
#377=CARTESIAN_POINT('Ctrl Pts',(-8.86154114746238,3.78927609722678,28.));
#378=CARTESIAN_POINT('Ctrl Pts',(-9.01355416588096,3.87208408475427,18.6666666666666));
#379=CARTESIAN_POINT('Ctrl Pts',(-9.16579232612131,3.95496127459717,9.33333333333335));
#380=CARTESIAN_POINT('Ctrl Pts',(-9.3178053445399,4.03776926212467,0.));
#381=CARTESIAN_POINT('Ctrl Pts',(-9.5,1.26328593477685,28.));
#382=CARTESIAN_POINT('Ctrl Pts',(-9.66685315462651,1.29102557143334,18.6666666666667));
#383=CARTESIAN_POINT('Ctrl Pts',(-9.83314684537349,1.318657214882,9.33333333333332));
#384=CARTESIAN_POINT('Ctrl Pts',(-10.,1.34639685153848,0.));
#385=CARTESIAN_POINT('Ctrl Pts',(-9.5,1.03414618594665E-15,28.));
#386=CARTESIAN_POINT('Ctrl Pts',(-9.66666666666667,1.05682483037531E-15,
18.6666666666667));
#387=CARTESIAN_POINT('Ctrl Pts',(-9.83333333333333,1.07950347480396E-15,
9.33333333333333));
#388=CARTESIAN_POINT('Ctrl Pts',(-10.,1.10218211923262E-15,0.));
#389=CARTESIAN_POINT('Ctrl Pts',(0.,-8.98214285714286,1.));
#390=CARTESIAN_POINT('Ctrl Pts',(0.883150796994205,-8.96637230719653,1.88315079699421));
#391=CARTESIAN_POINT('Ctrl Pts',(1.76997042522105,-8.84509341094262,2.76997042522106));
#392=CARTESIAN_POINT('Ctrl Pts',(3.64156195688495,-8.34743079885391,4.64156195688495));
#393=CARTESIAN_POINT('Ctrl Pts',(4.63951049558902,-7.9275732290043,5.63951049558902));
#394=CARTESIAN_POINT('Ctrl Pts',(6.41092439625506,-6.80380941099458,7.41092439625506));
#395=CARTESIAN_POINT('Ctrl Pts',(7.21849179501588,-6.11741753017944,8.21849179501589));
#396=CARTESIAN_POINT('Ctrl Pts',(8.5494139487547,-4.46572365086853,9.54941394875471));
#397=CARTESIAN_POINT('Ctrl Pts',(9.04065779183247,-3.58196367167211,10.0406577918815));
#398=CARTESIAN_POINT('Ctrl Pts',(9.57185100212072,-2.03595892187617,10.5718510021698));
#399=CARTESIAN_POINT('Ctrl Pts',(9.7141331385464,-1.39265323672209,10.7141331385464));
#400=CARTESIAN_POINT('Ctrl Pts',(9.82425964160745,-0.170815837646311,10.8242596416075));
#401=CARTESIAN_POINT('Ctrl Pts',(9.81682698026862,0.383470344599853,10.8168269802731));
#402=CARTESIAN_POINT('Ctrl Pts',(9.67061846297287,1.63819195574569,10.6706184629773));
#403=CARTESIAN_POINT('Ctrl Pts',(9.49819035133078,2.31003589726407,10.4981903513308));
#404=CARTESIAN_POINT('Ctrl Pts',(8.88326386857584,3.90236654239364,9.88326386857584));
#405=CARTESIAN_POINT('Ctrl Pts',(8.35563354970536,4.73968175666323,9.35563354970537));
#406=CARTESIAN_POINT('Ctrl Pts',(6.96430740709304,6.37714926053159,7.96430740709304));
#407=CARTESIAN_POINT('Ctrl Pts',(6.03144130801636,7.09955302191383,7.03144130801637));
#408=CARTESIAN_POINT('Ctrl Pts',(3.5401374990861,8.48620208419914,4.5401374990861));
#409=CARTESIAN_POINT('Ctrl Pts',(1.79000485417464,8.95017848474688,2.79000485417464));
#410=CARTESIAN_POINT('Ctrl Pts',(5.55111512312578E-16,8.98214285714286,
1.));
#411=CARTESIAN_POINT('',(-10.,-1.10218211923262E-15,0.));
#412=CARTESIAN_POINT('Origin',(0.,0.,0.));
#413=CARTESIAN_POINT('',(-9.5,-1.03414618594665E-15,28.));
#414=CARTESIAN_POINT('',(-9.5,-1.03414618594665E-15,28.));
#415=CARTESIAN_POINT('',(-0.999999999936885,8.45274853334118,28.));
#416=CARTESIAN_POINT('Ctrl Pts',(-0.9999655506637,8.45255846855367,28.));
#417=CARTESIAN_POINT('Ctrl Pts',(-1.37838419425008,8.41672413371152,28.));
#418=CARTESIAN_POINT('Ctrl Pts',(-1.75431840280441,8.36065228613844,28.));
#419=CARTESIAN_POINT('Ctrl Pts',(-2.12489973787083,8.28441767590396,28.));
#420=CARTESIAN_POINT('Ctrl Pts',(-3.51678676667643,7.99808386712645,28.));
#421=CARTESIAN_POINT('Ctrl Pts',(-4.83315972668682,7.42730988800728,28.));
#422=CARTESIAN_POINT('Ctrl Pts',(-5.94334761681954,6.63071292983747,28.));
#423=CARTESIAN_POINT('Ctrl Pts',(-7.05353550695226,5.83411597166766,28.));
#424=CARTESIAN_POINT('Ctrl Pts',(-7.95753832720732,4.81169603444722,28.));
#425=CARTESIAN_POINT('Ctrl Pts',(-8.56915445046925,3.66898852522452,28.));
#426=CARTESIAN_POINT('Ctrl Pts',(-9.18077057373119,2.52628101600181,28.));
#427=CARTESIAN_POINT('Ctrl Pts',(-9.5,1.26328593477685,28.));
#428=CARTESIAN_POINT('Ctrl Pts',(-9.5,1.11022302462516E-15,28.));
#429=CARTESIAN_POINT('',(0.,8.51785713540656,27.0000004172325));
#430=CARTESIAN_POINT('Ctrl Pts',(-8.5118544157492E-14,8.51785713540656,
27.0000004172325));
#431=CARTESIAN_POINT('Ctrl Pts',(-5.13953228977035E-8,8.51565746956855,
27.1231817041614));
#432=CARTESIAN_POINT('Ctrl Pts',(-0.0227609819010727,8.51354466612801,27.2453303533414));
#433=CARTESIAN_POINT('Ctrl Pts',(-0.11019504573343,8.50894915908124,27.4717197748801));
#434=CARTESIAN_POINT('Ctrl Pts',(-0.172855809737631,8.50648700924851,27.5745407831371));
#435=CARTESIAN_POINT('Ctrl Pts',(-0.340129791115589,8.4991471341814,27.7629792531279));
#436=CARTESIAN_POINT('Ctrl Pts',(-0.44689999696068,8.49405389164648,27.8435695461979));
#437=CARTESIAN_POINT('Ctrl Pts',(-0.642391051390043,8.48192284199615,27.9376930684735));
#438=CARTESIAN_POINT('Ctrl Pts',(-0.722873869152823,8.47630322254561,27.9645375533908));
#439=CARTESIAN_POINT('Ctrl Pts',(-0.869745594573215,8.46459022741808,27.9936270692656));
#440=CARTESIAN_POINT('Ctrl Pts',(-0.934816331148182,8.45892576105705,27.9999999999986));
#441=CARTESIAN_POINT('Ctrl Pts',(-0.999999999978855,8.45274853333123,28.));
#442=CARTESIAN_POINT('',(0.,-8.51785713540656,27.0000004172325));
#443=CARTESIAN_POINT('Ctrl Pts',(1.11022302462516E-15,8.51785713540656,
27.0000004172325));
#444=CARTESIAN_POINT('Ctrl Pts',(0.929572349967065,8.53445664165598,26.0704280672654));
#445=CARTESIAN_POINT('Ctrl Pts',(1.86618924516425,8.42926067240249,25.1338111720683));
#446=CARTESIAN_POINT('Ctrl Pts',(3.83447472381501,7.93042768271306,23.1655256934175));
#447=CARTESIAN_POINT('Ctrl Pts',(4.88400089327167,7.48750856465875,22.1159995239608));
#448=CARTESIAN_POINT('Ctrl Pts',(6.62094524175859,6.33265481842631,20.3790551754739));
#449=CARTESIAN_POINT('Ctrl Pts',(7.35815245598983,5.6804510218329,19.6418479612426));
#450=CARTESIAN_POINT('Ctrl Pts',(8.57022635924038,4.1205416732601,18.4297740579921));
#451=CARTESIAN_POINT('Ctrl Pts',(9.01512135704644,3.28856521829972,17.9848790601496));
#452=CARTESIAN_POINT('Ctrl Pts',(9.49336201164454,1.83130402546736,17.5066384055515));
#453=CARTESIAN_POINT('Ctrl Pts',(9.6192657978505,1.22215501437757,17.3807346193819));
#454=CARTESIAN_POINT('Ctrl Pts',(9.7095367312107,0.0544496699708249,17.2904636860217));
#455=CARTESIAN_POINT('Ctrl Pts',(9.69433467578117,-0.481710759945805,17.3056657414513));
#456=CARTESIAN_POINT('Ctrl Pts',(9.53273192441281,-1.69577990383924,17.4672684928196));
#457=CARTESIAN_POINT('Ctrl Pts',(9.35267960441765,-2.34449794108262,17.6473208128148));
#458=CARTESIAN_POINT('Ctrl Pts',(8.72965497764808,-3.86175608786533,18.2703454395844));
#459=CARTESIAN_POINT('Ctrl Pts',(8.20804308689559,-4.65079849170671,18.7919573303369));
#460=CARTESIAN_POINT('Ctrl Pts',(6.88503347733338,-6.1399118805987,20.1149669398991));
#461=CARTESIAN_POINT('Ctrl Pts',(5.98335063352537,-6.83932406655815,21.0166497837071));
#462=CARTESIAN_POINT('Ctrl Pts',(3.44571499257528,-8.15533657118239,23.5542854246572));
#463=CARTESIAN_POINT('Ctrl Pts',(1.73424497962447,-8.548825795757,25.265755437608));
#464=CARTESIAN_POINT('Ctrl Pts',(5.55111512312578E-16,-8.51785713540656,
27.0000004172325));
#465=CARTESIAN_POINT('',(-0.999999999946521,-8.45274853333936,28.));
#466=CARTESIAN_POINT('Ctrl Pts',(-0.999975820491853,-8.45224481124902,28.));
#467=CARTESIAN_POINT('Ctrl Pts',(-0.952989166718526,-8.45666265504583,28.000000000001));
#468=CARTESIAN_POINT('Ctrl Pts',(-0.906037446727493,-8.4608191205027,27.996690212094));
#469=CARTESIAN_POINT('Ctrl Pts',(-0.85946799425384,-8.46469365189921,27.990084874943));
#470=CARTESIAN_POINT('Ctrl Pts',(-0.796682553182084,-8.46991733716402,27.9811794877326));
#471=CARTESIAN_POINT('Ctrl Pts',(-0.734881434028443,-8.47460273136603,27.9663252319925));
#472=CARTESIAN_POINT('Ctrl Pts',(-0.674895236489067,-8.4787630409868,27.9457169881022));
#473=CARTESIAN_POINT('Ctrl Pts',(-0.662226694303435,-8.47964166073765,27.9413647134489));
#474=CARTESIAN_POINT('Ctrl Pts',(-0.649639108754248,-8.48049704678507,27.9367558016122));
#475=CARTESIAN_POINT('Ctrl Pts',(-0.637140313799796,-8.48132961424496,27.9318920882596));
#476=CARTESIAN_POINT('Ctrl Pts',(-0.567609697758411,-8.48596117501491,27.9048353210363));
#477=CARTESIAN_POINT('Ctrl Pts',(-0.501421655993035,-8.48984200907645,27.8701249836091));
#478=CARTESIAN_POINT('Ctrl Pts',(-0.439775350187333,-8.49312119685577,27.8284639126757));
#479=CARTESIAN_POINT('Ctrl Pts',(-0.40553177401045,-8.49494273530892,27.8053218275585));
#480=CARTESIAN_POINT('Ctrl Pts',(-0.372689557338143,-8.49657978838845,27.7800350019469));
#481=CARTESIAN_POINT('Ctrl Pts',(-0.341453686275527,-8.49806451958153,27.7527239035359));
#482=CARTESIAN_POINT('Ctrl Pts',(-0.277109140742223,-8.50112300172427,27.6964642201817));
#483=CARTESIAN_POINT('Ctrl Pts',(-0.220373242291348,-8.50350118613766,27.6323041648271));
#484=CARTESIAN_POINT('Ctrl Pts',(-0.172534118066169,-8.50553037873497,27.5618974337869));
#485=CARTESIAN_POINT('Ctrl Pts',(-0.147045733271947,-8.50661151980056,27.5243851698833));
#486=CARTESIAN_POINT('Ctrl Pts',(-0.124082678619715,-8.50759315214453,27.4850996674973));
#487=CARTESIAN_POINT('Ctrl Pts',(-0.103838850077029,-8.50851877878976,27.4442910377725));
#488=CARTESIAN_POINT('Ctrl Pts',(-0.0744298419308171,-8.50986347312427,
27.3850067318675));
#489=CARTESIAN_POINT('Ctrl Pts',(-0.0510516441468726,-8.51108011589231,
27.3230953761822));
#490=CARTESIAN_POINT('Ctrl Pts',(-0.0339572685919158,-8.51227074570027,
27.2594945083548));
#491=CARTESIAN_POINT('Ctrl Pts',(-0.017839062414376,-8.51339338493704,27.1995255497101));
#492=CARTESIAN_POINT('Ctrl Pts',(-0.00730741906820769,-8.51449286802296,
27.1380545277176));
#493=CARTESIAN_POINT('Ctrl Pts',(-0.00257430608282316,-8.51560474061916,
27.0758673637682));
#494=CARTESIAN_POINT('Ctrl Pts',(-0.00228765383968302,-8.51567207912867,
27.0721011130796));
#495=CARTESIAN_POINT('Ctrl Pts',(-0.00202227012266058,-8.51573944706907,
27.0683322356571));
#496=CARTESIAN_POINT('Ctrl Pts',(-0.00177820207115564,-8.51580684604808,
27.0645609060849));
#497=CARTESIAN_POINT('Ctrl Pts',(-0.000385534744190533,-8.51619142877148,
27.0430414673789));
#498=CARTESIAN_POINT('Ctrl Pts',(0.000308741263143275,-8.51657587300847,
27.021510186672));
#499=CARTESIAN_POINT('Ctrl Pts',(0.000308804530790407,-8.51695998963017,
27.0000004172325));
#500=CARTESIAN_POINT('Ctrl Pts',(-9.5,-1.03414618594665E-15,28.));
#501=CARTESIAN_POINT('Ctrl Pts',(-9.5,-1.26328593477685,28.));
#502=CARTESIAN_POINT('Ctrl Pts',(-9.18063313907881,-2.52646359174537,28.));
#503=CARTESIAN_POINT('Ctrl Pts',(-8.56916782289589,-3.66920866290534,28.));
#504=CARTESIAN_POINT('Ctrl Pts',(-7.95770250671298,-4.81195373406531,28.));
#505=CARTESIAN_POINT('Ctrl Pts',(-7.05413873526834,-5.83426621941672,28.));
#506=CARTESIAN_POINT('Ctrl Pts',(-5.94384253211981,-6.63105077746249,28.));
#507=CARTESIAN_POINT('Ctrl Pts',(-4.83354632897127,-7.42783533550827,28.));
#508=CARTESIAN_POINT('Ctrl Pts',(-3.51651769411884,-7.99909196624841,28.));
#509=CARTESIAN_POINT('Ctrl Pts',(-2.12471874336622,-8.28478662878689,28.));
#510=CARTESIAN_POINT('Ctrl Pts',(-1.75416085907379,-8.36085107016807,28.));
#511=CARTESIAN_POINT('Ctrl Pts',(-1.37830282281111,-8.41667322943273,28.));
#512=CARTESIAN_POINT('Ctrl Pts',(-0.999975819667908,-8.45224481132649,28.));
#513=CARTESIAN_POINT('Origin',(0.,0.,0.));
#514=CARTESIAN_POINT('Origin',(-1.,-1.04387403996764E-16,27.));
#515=CARTESIAN_POINT('',(-1.,-1.04387403996764E-16,28.));
#516=CARTESIAN_POINT('',(0.,0.,27.0000004172325));
#517=CARTESIAN_POINT('Origin',(-0.863636363636363,-2.08774807993529E-16,
28.));
#518=CARTESIAN_POINT('Origin',(-3.08148791101958E-32,0.,1.));
#519=CARTESIAN_POINT('',(6.,-1.84090355718759E-16,7.));
#520=CARTESIAN_POINT('Origin',(4.75,-3.10095058253402E-17,5.75));
#521=CARTESIAN_POINT('Origin',(10.3761615268936,0.,16.6238388903388));
#522=CARTESIAN_POINT('',(6.,1.22071344068079E-16,21.0000004172325));
#523=CARTESIAN_POINT('Origin',(4.75,-3.10095058253402E-17,22.2500004172325));
#524=CARTESIAN_POINT('Origin',(4.75,-3.10095058253402E-17,28.));
#525=CARTESIAN_POINT('',(6.,-1.84090355718759E-16,28.));
#526=CARTESIAN_POINT('Origin',(0.,0.,0.));
#527=CARTESIAN_POINT('',(0.,0.,0.));
#528=UNCERTAINTY_MEASURE_WITH_UNIT(LENGTH_MEASURE(0.01),#534,
'DISTANCE_ACCURACY_VALUE',
'Maximum model space distance between geometric entities at asserted c
onnectivities');
#529=UNCERTAINTY_MEASURE_WITH_UNIT(LENGTH_MEASURE(0.01),#534,
'DISTANCE_ACCURACY_VALUE',
'Maximum model space distance between geometric entities at asserted c
onnectivities');
#530=UNCERTAINTY_MEASURE_WITH_UNIT(LENGTH_MEASURE(0.01),#534,
'DISTANCE_ACCURACY_VALUE',
'Maximum model space distance between geometric entities at asserted c
onnectivities');
#531=(
GEOMETRIC_REPRESENTATION_CONTEXT(3)
GLOBAL_UNCERTAINTY_ASSIGNED_CONTEXT((#528))
GLOBAL_UNIT_ASSIGNED_CONTEXT((#534,#536,#537))
REPRESENTATION_CONTEXT('','3D')
);
#532=(
GEOMETRIC_REPRESENTATION_CONTEXT(3)
GLOBAL_UNCERTAINTY_ASSIGNED_CONTEXT((#529))
GLOBAL_UNIT_ASSIGNED_CONTEXT((#534,#536,#537))
REPRESENTATION_CONTEXT('','3D')
);
#533=(
GEOMETRIC_REPRESENTATION_CONTEXT(3)
GLOBAL_UNCERTAINTY_ASSIGNED_CONTEXT((#530))
GLOBAL_UNIT_ASSIGNED_CONTEXT((#534,#536,#537))
REPRESENTATION_CONTEXT('','3D')
);
#534=(
LENGTH_UNIT()
NAMED_UNIT(*)
SI_UNIT(.MILLI.,.METRE.)
);
#535=(
LENGTH_UNIT()
NAMED_UNIT(*)
SI_UNIT($,.METRE.)
);
#536=(
NAMED_UNIT(*)
PLANE_ANGLE_UNIT()
SI_UNIT($,.RADIAN.)
);
#537=(
NAMED_UNIT(*)
SI_UNIT($,.STERADIAN.)
SOLID_ANGLE_UNIT()
);
#538=SHAPE_DEFINITION_REPRESENTATION(#540,#543);
#539=SHAPE_DEFINITION_REPRESENTATION(#541,#544);
#540=PRODUCT_DEFINITION_SHAPE('',$,#546);
#541=PRODUCT_DEFINITION_SHAPE('',$,#547);
#542=PRODUCT_DEFINITION_SHAPE($,$,#14);
#543=SHAPE_REPRESENTATION('',(#204,#223),#531);
#544=SHAPE_REPRESENTATION('',(#205),#532);
#545=PRODUCT_DEFINITION_CONTEXT('part definition',#553,'design');
#546=PRODUCT_DEFINITION('2025-12-08-00-09-45-361','Thumb',#548,#545);
#547=PRODUCT_DEFINITION('2025-12-08-00-10-08-646','Proximal phalanx',#549,
#545);
#548=PRODUCT_DEFINITION_FORMATION('',$,#555);
#549=PRODUCT_DEFINITION_FORMATION('',$,#556);
#550=PRODUCT_RELATED_PRODUCT_CATEGORY('Thumb','Thumb',(#555));
#551=PRODUCT_RELATED_PRODUCT_CATEGORY('Proximal phalanx',
'Proximal phalanx',(#556));
#552=APPLICATION_PROTOCOL_DEFINITION('international standard',
'automotive_design',2009,#553);
#553=APPLICATION_CONTEXT(
'Core Data for Automotive Mechanical Design Process');
#554=PRODUCT_CONTEXT('part definition',#553,'mechanical');
#555=PRODUCT('2025-12-08-00-09-45-361','Thumb',$,(#554));
#556=PRODUCT('2025-12-08-00-10-08-646','Proximal phalanx',$,(#554));
#557=PRESENTATION_STYLE_ASSIGNMENT((#558));
#558=SURFACE_STYLE_USAGE(.BOTH.,#559);
#559=SURFACE_SIDE_STYLE('',(#560));
#560=SURFACE_STYLE_FILL_AREA(#561);
#561=FILL_AREA_STYLE('Steel - Satin',(#562));
#562=FILL_AREA_STYLE_COLOUR('Steel - Satin',#563);
#563=COLOUR_RGB('Steel - Satin',0.627450980392157,0.627450980392157,0.627450980392157);
ENDSEC;
END-ISO-10303-21;
