ISO-10303-21;
HEADER;
/* Generated by software containing ST-Developer
 * from STEP Tools, Inc. (www.steptools.com) 
 */

FILE_DESCRIPTION(
/* description */ (''),
/* implementation_level */ '2;1');

FILE_NAME(
/* name */ 'Forearm 2.step',
/* time_stamp */ '2026-01-29T12:06:44Z',
/* author */ (''),
/* organization */ (''),
/* preprocessor_version */ 'ST-DEVELOPER v20.1',
/* originating_system */ 'Autodesk Translation Framework v14.24.0.0',
/* authorisation */ '');

FILE_SCHEMA (('AUTOMOTIVE_DESIGN { 1 0 10303 214 3 1 1 }'));
ENDSEC;

DATA;
#10=MECHANICAL_DESIGN_GEOMETRIC_PRESENTATION_REPRESENTATION('',(#21),#1795);
#11=ITEM_DEFINED_TRANSFORMATION($,$,#1044,#1166);
#12=ITEM_DEFINED_TRANSFORMATION($,$,#1043,#1167);
#13=(
REPRESENTATION_RELATIONSHIP($,$,#1810,#1809)
REPRESENTATION_RELATIONSHIP_WITH_TRANSFORMATION(#11)
SHAPE_REPRESENTATION_RELATIONSHIP()
);
#14=(
REPRESENTATION_RELATIONSHIP($,$,#1809,#1808)
REPRESENTATION_RELATIONSHIP_WITH_TRANSFORMATION(#12)
SHAPE_REPRESENTATION_RELATIONSHIP()
);
#15=CONTEXT_DEPENDENT_SHAPE_REPRESENTATION(#13,#1806);
#16=CONTEXT_DEPENDENT_SHAPE_REPRESENTATION(#14,#1807);
#17=NEXT_ASSEMBLY_USAGE_OCCURRENCE('Forearm 2:1','Forearm 2:1',
'Forearm 2:1',#1813,#1814,'Forearm 2:1');
#18=NEXT_ASSEMBLY_USAGE_OCCURRENCE('Arm:1','Arm:1','Arm:1',#1812,#1813,
'Arm:1');
#19=SHAPE_REPRESENTATION_RELATIONSHIP('SRR','None',#1810,#20);
#20=ADVANCED_BREP_SHAPE_REPRESENTATION('',(#22),#1794);
#21=STYLED_ITEM('',(#1828),#22);
#22=MANIFOLD_SOLID_BREP('Body1',#1029);
#23=CIRCLE('',#1055,2.55000000000001);
#24=CIRCLE('',#1056,2.55000000000001);
#25=CIRCLE('',#1057,2.55000000000001);
#26=CIRCLE('',#1059,2.55);
#27=CIRCLE('',#1060,2.55);
#28=CIRCLE('',#1061,2.55);
#29=CIRCLE('',#1063,2.55000000000001);
#30=CIRCLE('',#1065,2.55000000000001);
#31=CIRCLE('',#1068,2.55);
#32=CIRCLE('',#1070,2.55);
#33=CIRCLE('',#1072,2.55000000000001);
#34=CIRCLE('',#1073,2.55000000000001);
#35=CIRCLE('',#1076,2.55000000000001);
#36=CIRCLE('',#1077,2.55000000000001);
#37=CIRCLE('',#1080,2.55);
#38=CIRCLE('',#1081,2.55);
#39=CIRCLE('',#1084,2.55);
#40=CIRCLE('',#1085,2.55);
#41=CIRCLE('',#1088,2.55000000000001);
#42=CIRCLE('',#1089,2.55000000000001);
#43=CIRCLE('',#1092,2.55000000000001);
#44=CIRCLE('',#1093,2.55000000000001);
#45=CIRCLE('',#1096,2.55);
#46=CIRCLE('',#1097,2.55);
#47=CIRCLE('',#1101,2.55);
#48=CIRCLE('',#1102,2.55);
#49=CIRCLE('',#1106,2.55000000000001);
#50=CIRCLE('',#1107,2.55000000000001);
#51=CIRCLE('',#1110,2.55000000000001);
#52=CIRCLE('',#1111,2.55000000000001);
#53=CIRCLE('',#1114,2.55000000000001);
#54=CIRCLE('',#1115,2.55000000000001);
#55=CIRCLE('',#1118,2.55);
#56=CIRCLE('',#1119,2.55);
#57=CIRCLE('',#1122,2.55);
#58=CIRCLE('',#1123,2.55);
#59=CIRCLE('',#1126,2.55);
#60=CIRCLE('',#1127,2.55);
#61=CIRCLE('',#1130,2.55);
#62=CIRCLE('',#1131,2.55);
#63=CIRCLE('',#1134,2.55000000000001);
#64=CIRCLE('',#1135,2.55000000000001);
#65=CIRCLE('',#1138,2.55000000000001);
#66=CIRCLE('',#1139,2.55000000000001);
#67=CIRCLE('',#1143,2.55);
#68=CIRCLE('',#1144,2.55);
#69=CIRCLE('',#1147,2.54999999999999);
#70=CIRCLE('',#1148,2.54999999999999);
#71=CIRCLE('',#1151,2.55000000000001);
#72=CIRCLE('',#1152,2.55000000000001);
#73=CIRCLE('',#1155,2.55);
#74=CIRCLE('',#1156,2.55);
#75=CYLINDRICAL_SURFACE('',#1054,2.55000000000001);
#76=CYLINDRICAL_SURFACE('',#1058,2.55);
#77=CYLINDRICAL_SURFACE('',#1064,2.55000000000001);
#78=CYLINDRICAL_SURFACE('',#1069,2.55);
#79=CYLINDRICAL_SURFACE('',#1071,2.55000000000001);
#80=CYLINDRICAL_SURFACE('',#1075,2.55000000000001);
#81=CYLINDRICAL_SURFACE('',#1079,2.55);
#82=CYLINDRICAL_SURFACE('',#1083,2.55);
#83=CYLINDRICAL_SURFACE('',#1087,2.55000000000001);
#84=CYLINDRICAL_SURFACE('',#1091,2.55000000000001);
#85=CYLINDRICAL_SURFACE('',#1095,2.55);
#86=CYLINDRICAL_SURFACE('',#1100,2.55);
#87=CYLINDRICAL_SURFACE('',#1105,2.55000000000001);
#88=CYLINDRICAL_SURFACE('',#1109,2.55000000000001);
#89=CYLINDRICAL_SURFACE('',#1113,2.55000000000001);
#90=CYLINDRICAL_SURFACE('',#1117,2.55);
#91=CYLINDRICAL_SURFACE('',#1121,2.55);
#92=CYLINDRICAL_SURFACE('',#1125,2.55);
#93=CYLINDRICAL_SURFACE('',#1129,2.55);
#94=CYLINDRICAL_SURFACE('',#1133,2.55000000000001);
#95=CYLINDRICAL_SURFACE('',#1137,2.55000000000001);
#96=CYLINDRICAL_SURFACE('',#1142,2.55);
#97=CYLINDRICAL_SURFACE('',#1146,2.54999999999999);
#98=CYLINDRICAL_SURFACE('',#1150,2.55000000000001);
#99=CYLINDRICAL_SURFACE('',#1154,2.55);
#100=FACE_BOUND('',#197,.T.);
#101=FACE_BOUND('',#199,.T.);
#102=FACE_BOUND('',#223,.T.);
#103=FACE_BOUND('',#224,.T.);
#104=FACE_BOUND('',#225,.T.);
#105=FACE_BOUND('',#226,.T.);
#106=FACE_BOUND('',#227,.T.);
#107=FACE_BOUND('',#259,.T.);
#108=FACE_BOUND('',#260,.T.);
#109=FACE_BOUND('',#261,.T.);
#110=FACE_BOUND('',#262,.T.);
#111=FACE_BOUND('',#263,.T.);
#112=FACE_BOUND('',#264,.T.);
#113=FACE_BOUND('',#265,.T.);
#114=FACE_BOUND('',#266,.T.);
#115=FACE_BOUND('',#267,.T.);
#116=FACE_BOUND('',#268,.T.);
#117=FACE_BOUND('',#269,.T.);
#118=FACE_BOUND('',#270,.T.);
#119=FACE_BOUND('',#271,.T.);
#120=FACE_BOUND('',#272,.T.);
#121=FACE_BOUND('',#274,.T.);
#122=FACE_BOUND('',#275,.T.);
#123=ELLIPSE('',#1050,7.21248916810282,2.55000000000001);
#124=ELLIPSE('',#1052,7.21248916810277,2.55);
#125=FACE_OUTER_BOUND('',#192,.T.);
#126=FACE_OUTER_BOUND('',#193,.T.);
#127=FACE_OUTER_BOUND('',#194,.T.);
#128=FACE_OUTER_BOUND('',#195,.T.);
#129=FACE_OUTER_BOUND('',#196,.T.);
#130=FACE_OUTER_BOUND('',#198,.T.);
#131=FACE_OUTER_BOUND('',#200,.T.);
#132=FACE_OUTER_BOUND('',#201,.T.);
#133=FACE_OUTER_BOUND('',#202,.T.);
#134=FACE_OUTER_BOUND('',#203,.T.);
#135=FACE_OUTER_BOUND('',#204,.T.);
#136=FACE_OUTER_BOUND('',#205,.T.);
#137=FACE_OUTER_BOUND('',#206,.T.);
#138=FACE_OUTER_BOUND('',#207,.T.);
#139=FACE_OUTER_BOUND('',#208,.T.);
#140=FACE_OUTER_BOUND('',#209,.T.);
#141=FACE_OUTER_BOUND('',#210,.T.);
#142=FACE_OUTER_BOUND('',#211,.T.);
#143=FACE_OUTER_BOUND('',#212,.T.);
#144=FACE_OUTER_BOUND('',#213,.T.);
#145=FACE_OUTER_BOUND('',#214,.T.);
#146=FACE_OUTER_BOUND('',#215,.T.);
#147=FACE_OUTER_BOUND('',#216,.T.);
#148=FACE_OUTER_BOUND('',#217,.T.);
#149=FACE_OUTER_BOUND('',#218,.T.);
#150=FACE_OUTER_BOUND('',#219,.T.);
#151=FACE_OUTER_BOUND('',#220,.T.);
#152=FACE_OUTER_BOUND('',#221,.T.);
#153=FACE_OUTER_BOUND('',#222,.T.);
#154=FACE_OUTER_BOUND('',#228,.T.);
#155=FACE_OUTER_BOUND('',#229,.T.);
#156=FACE_OUTER_BOUND('',#230,.T.);
#157=FACE_OUTER_BOUND('',#231,.T.);
#158=FACE_OUTER_BOUND('',#232,.T.);
#159=FACE_OUTER_BOUND('',#233,.T.);
#160=FACE_OUTER_BOUND('',#234,.T.);
#161=FACE_OUTER_BOUND('',#235,.T.);
#162=FACE_OUTER_BOUND('',#236,.T.);
#163=FACE_OUTER_BOUND('',#237,.T.);
#164=FACE_OUTER_BOUND('',#238,.T.);
#165=FACE_OUTER_BOUND('',#239,.T.);
#166=FACE_OUTER_BOUND('',#240,.T.);
#167=FACE_OUTER_BOUND('',#241,.T.);
#168=FACE_OUTER_BOUND('',#242,.T.);
#169=FACE_OUTER_BOUND('',#243,.T.);
#170=FACE_OUTER_BOUND('',#244,.T.);
#171=FACE_OUTER_BOUND('',#245,.T.);
#172=FACE_OUTER_BOUND('',#246,.T.);
#173=FACE_OUTER_BOUND('',#247,.T.);
#174=FACE_OUTER_BOUND('',#248,.T.);
#175=FACE_OUTER_BOUND('',#249,.T.);
#176=FACE_OUTER_BOUND('',#250,.T.);
#177=FACE_OUTER_BOUND('',#251,.T.);
#178=FACE_OUTER_BOUND('',#252,.T.);
#179=FACE_OUTER_BOUND('',#253,.T.);
#180=FACE_OUTER_BOUND('',#254,.T.);
#181=FACE_OUTER_BOUND('',#255,.T.);
#182=FACE_OUTER_BOUND('',#256,.T.);
#183=FACE_OUTER_BOUND('',#257,.T.);
#184=FACE_OUTER_BOUND('',#258,.T.);
#185=FACE_OUTER_BOUND('',#273,.T.);
#186=FACE_OUTER_BOUND('',#276,.T.);
#187=FACE_OUTER_BOUND('',#277,.T.);
#188=FACE_OUTER_BOUND('',#278,.T.);
#189=FACE_OUTER_BOUND('',#279,.T.);
#190=FACE_OUTER_BOUND('',#280,.T.);
#191=FACE_OUTER_BOUND('',#281,.T.);
#192=EDGE_LOOP('',(#656,#657,#658));
#193=EDGE_LOOP('',(#659,#660,#661));
#194=EDGE_LOOP('',(#662,#663,#664,#665));
#195=EDGE_LOOP('',(#666,#667,#668,#669,#670,#671,#672,#673));
#196=EDGE_LOOP('',(#674,#675,#676,#677));
#197=EDGE_LOOP('',(#678,#679));
#198=EDGE_LOOP('',(#680,#681,#682,#683));
#199=EDGE_LOOP('',(#684,#685));
#200=EDGE_LOOP('',(#686,#687,#688,#689,#690,#691,#692,#693));
#201=EDGE_LOOP('',(#694,#695,#696,#697,#698,#699));
#202=EDGE_LOOP('',(#700,#701,#702,#703,#704,#705));
#203=EDGE_LOOP('',(#706,#707));
#204=EDGE_LOOP('',(#708,#709,#710,#711));
#205=EDGE_LOOP('',(#712,#713,#714,#715));
#206=EDGE_LOOP('',(#716,#717));
#207=EDGE_LOOP('',(#718,#719,#720,#721));
#208=EDGE_LOOP('',(#722,#723,#724,#725));
#209=EDGE_LOOP('',(#726));
#210=EDGE_LOOP('',(#727,#728,#729,#730));
#211=EDGE_LOOP('',(#731));
#212=EDGE_LOOP('',(#732,#733,#734,#735));
#213=EDGE_LOOP('',(#736));
#214=EDGE_LOOP('',(#737,#738,#739,#740));
#215=EDGE_LOOP('',(#741,#742));
#216=EDGE_LOOP('',(#743,#744,#745,#746));
#217=EDGE_LOOP('',(#747));
#218=EDGE_LOOP('',(#748,#749,#750,#751));
#219=EDGE_LOOP('',(#752,#753));
#220=EDGE_LOOP('',(#754,#755,#756,#757));
#221=EDGE_LOOP('',(#758));
#222=EDGE_LOOP('',(#759,#760,#761,#762,#763,#764,#765,#766,#767,#768,#769,
#770,#771,#772,#773,#774,#775,#776));
#223=EDGE_LOOP('',(#777));
#224=EDGE_LOOP('',(#778));
#225=EDGE_LOOP('',(#779));
#226=EDGE_LOOP('',(#780));
#227=EDGE_LOOP('',(#781));
#228=EDGE_LOOP('',(#782,#783,#784,#785));
#229=EDGE_LOOP('',(#786));
#230=EDGE_LOOP('',(#787,#788,#789));
#231=EDGE_LOOP('',(#790,#791,#792,#793));
#232=EDGE_LOOP('',(#794));
#233=EDGE_LOOP('',(#795,#796,#797,#798));
#234=EDGE_LOOP('',(#799));
#235=EDGE_LOOP('',(#800,#801,#802,#803));
#236=EDGE_LOOP('',(#804));
#237=EDGE_LOOP('',(#805,#806,#807,#808));
#238=EDGE_LOOP('',(#809));
#239=EDGE_LOOP('',(#810,#811,#812,#813));
#240=EDGE_LOOP('',(#814));
#241=EDGE_LOOP('',(#815,#816,#817,#818));
#242=EDGE_LOOP('',(#819));
#243=EDGE_LOOP('',(#820,#821,#822,#823));
#244=EDGE_LOOP('',(#824));
#245=EDGE_LOOP('',(#825,#826,#827,#828));
#246=EDGE_LOOP('',(#829));
#247=EDGE_LOOP('',(#830,#831,#832,#833));
#248=EDGE_LOOP('',(#834));
#249=EDGE_LOOP('',(#835,#836,#837));
#250=EDGE_LOOP('',(#838,#839,#840,#841));
#251=EDGE_LOOP('',(#842));
#252=EDGE_LOOP('',(#843,#844,#845,#846));
#253=EDGE_LOOP('',(#847));
#254=EDGE_LOOP('',(#848,#849,#850,#851));
#255=EDGE_LOOP('',(#852));
#256=EDGE_LOOP('',(#853,#854,#855,#856));
#257=EDGE_LOOP('',(#857));
#258=EDGE_LOOP('',(#858,#859,#860,#861,#862,#863,#864,#865,#866,#867,#868,
#869,#870,#871,#872,#873,#874,#875));
#259=EDGE_LOOP('',(#876));
#260=EDGE_LOOP('',(#877));
#261=EDGE_LOOP('',(#878));
#262=EDGE_LOOP('',(#879));
#263=EDGE_LOOP('',(#880));
#264=EDGE_LOOP('',(#881));
#265=EDGE_LOOP('',(#882));
#266=EDGE_LOOP('',(#883));
#267=EDGE_LOOP('',(#884));
#268=EDGE_LOOP('',(#885));
#269=EDGE_LOOP('',(#886));
#270=EDGE_LOOP('',(#887));
#271=EDGE_LOOP('',(#888));
#272=EDGE_LOOP('',(#889));
#273=EDGE_LOOP('',(#890,#891,#892,#893));
#274=EDGE_LOOP('',(#894));
#275=EDGE_LOOP('',(#895));
#276=EDGE_LOOP('',(#896,#897,#898,#899));
#277=EDGE_LOOP('',(#900,#901,#902,#903));
#278=EDGE_LOOP('',(#904,#905,#906,#907));
#279=EDGE_LOOP('',(#908,#909,#910,#911));
#280=EDGE_LOOP('',(#912,#913,#914,#915));
#281=EDGE_LOOP('',(#916,#917,#918,#919));
#282=LINE('',#1504,#360);
#283=LINE('',#1506,#361);
#284=LINE('',#1507,#362);
#285=LINE('',#1511,#363);
#286=LINE('',#1513,#364);
#287=LINE('',#1514,#365);
#288=LINE('',#1516,#366);
#289=LINE('',#1517,#367);
#290=LINE('',#1521,#368);
#291=LINE('',#1522,#369);
#292=LINE('',#1524,#370);
#293=LINE('',#1526,#371);
#294=LINE('',#1528,#372);
#295=LINE('',#1530,#373);
#296=LINE('',#1531,#374);
#297=LINE('',#1535,#375);
#298=LINE('',#1536,#376);
#299=LINE('',#1537,#377);
#300=LINE('',#1541,#378);
#301=LINE('',#1545,#379);
#302=LINE('',#1546,#380);
#303=LINE('',#1547,#381);
#304=LINE('',#1551,#382);
#305=LINE('',#1555,#383);
#306=LINE('',#1556,#384);
#307=LINE('',#1558,#385);
#308=LINE('',#1560,#386);
#309=LINE('',#1562,#387);
#310=LINE('',#1564,#388);
#311=LINE('',#1565,#389);
#312=LINE('',#1570,#390);
#313=LINE('',#1577,#391);
#314=LINE('',#1585,#392);
#315=LINE('',#1594,#393);
#316=LINE('',#1601,#394);
#317=LINE('',#1608,#395);
#318=LINE('',#1614,#396);
#319=LINE('',#1618,#397);
#320=LINE('',#1621,#398);
#321=LINE('',#1626,#399);
#322=LINE('',#1632,#400);
#323=LINE('',#1636,#401);
#324=LINE('',#1639,#402);
#325=LINE('',#1644,#403);
#326=LINE('',#1649,#404);
#327=LINE('',#1650,#405);
#328=LINE('',#1652,#406);
#329=LINE('',#1654,#407);
#330=LINE('',#1656,#408);
#331=LINE('',#1658,#409);
#332=LINE('',#1659,#410);
#333=LINE('',#1661,#411);
#334=LINE('',#1662,#412);
#335=LINE('',#1667,#413);
#336=LINE('',#1675,#414);
#337=LINE('',#1682,#415);
#338=LINE('',#1689,#416);
#339=LINE('',#1696,#417);
#340=LINE('',#1703,#418);
#341=LINE('',#1710,#419);
#342=LINE('',#1717,#420);
#343=LINE('',#1724,#421);
#344=LINE('',#1731,#422);
#345=LINE('',#1739,#423);
#346=LINE('',#1746,#424);
#347=LINE('',#1753,#425);
#348=LINE('',#1760,#426);
#349=LINE('',#1764,#427);
#350=LINE('',#1766,#428);
#351=LINE('',#1768,#429);
#352=LINE('',#1769,#430);
#353=LINE('',#1770,#431);
#354=LINE('',#1771,#432);
#355=LINE('',#1775,#433);
#356=LINE('',#1776,#434);
#357=LINE('',#1779,#435);
#358=LINE('',#1780,#436);
#359=LINE('',#1782,#437);
#360=VECTOR('',#1176,10.);
#361=VECTOR('',#1177,10.);
#362=VECTOR('',#1178,10.);
#363=VECTOR('',#1181,10.);
#364=VECTOR('',#1182,10.);
#365=VECTOR('',#1183,10.);
#366=VECTOR('',#1186,10.);
#367=VECTOR('',#1187,10.);
#368=VECTOR('',#1190,10.);
#369=VECTOR('',#1191,10.);
#370=VECTOR('',#1192,10.);
#371=VECTOR('',#1193,10.);
#372=VECTOR('',#1194,10.);
#373=VECTOR('',#1195,10.);
#374=VECTOR('',#1196,10.);
#375=VECTOR('',#1199,10.);
#376=VECTOR('',#1200,10.);
#377=VECTOR('',#1201,10.);
#378=VECTOR('',#1204,10.);
#379=VECTOR('',#1207,10.);
#380=VECTOR('',#1208,10.);
#381=VECTOR('',#1209,10.);
#382=VECTOR('',#1212,10.);
#383=VECTOR('',#1215,10.);
#384=VECTOR('',#1216,10.);
#385=VECTOR('',#1217,10.);
#386=VECTOR('',#1218,10.);
#387=VECTOR('',#1219,10.);
#388=VECTOR('',#1220,10.);
#389=VECTOR('',#1221,10.);
#390=VECTOR('',#1226,2.55000000000001);
#391=VECTOR('',#1235,2.55);
#392=VECTOR('',#1250,10.);
#393=VECTOR('',#1263,2.55000000000001);
#394=VECTOR('',#1272,2.55000000000001);
#395=VECTOR('',#1281,2.55);
#396=VECTOR('',#1288,10.);
#397=VECTOR('',#1291,10.);
#398=VECTOR('',#1296,10.);
#399=VECTOR('',#1301,2.55000000000001);
#400=VECTOR('',#1308,10.);
#401=VECTOR('',#1311,10.);
#402=VECTOR('',#1316,10.);
#403=VECTOR('',#1321,2.55);
#404=VECTOR('',#1328,10.);
#405=VECTOR('',#1329,10.);
#406=VECTOR('',#1330,10.);
#407=VECTOR('',#1331,10.);
#408=VECTOR('',#1332,10.);
#409=VECTOR('',#1333,10.);
#410=VECTOR('',#1334,10.);
#411=VECTOR('',#1335,10.);
#412=VECTOR('',#1336,10.);
#413=VECTOR('',#1341,2.55);
#414=VECTOR('',#1352,2.55000000000001);
#415=VECTOR('',#1361,2.55000000000001);
#416=VECTOR('',#1370,2.55000000000001);
#417=VECTOR('',#1379,2.55);
#418=VECTOR('',#1388,2.55);
#419=VECTOR('',#1397,2.55);
#420=VECTOR('',#1406,2.55);
#421=VECTOR('',#1415,2.55000000000001);
#422=VECTOR('',#1424,2.55000000000001);
#423=VECTOR('',#1435,2.55);
#424=VECTOR('',#1444,2.54999999999999);
#425=VECTOR('',#1453,2.55000000000001);
#426=VECTOR('',#1462,2.55);
#427=VECTOR('',#1469,10.);
#428=VECTOR('',#1470,10.);
#429=VECTOR('',#1471,10.);
#430=VECTOR('',#1472,10.);
#431=VECTOR('',#1473,10.);
#432=VECTOR('',#1474,10.);
#433=VECTOR('',#1479,10.);
#434=VECTOR('',#1480,10.);
#435=VECTOR('',#1483,10.);
#436=VECTOR('',#1484,10.);
#437=VECTOR('',#1487,10.);
#438=VERTEX_POINT('',#1502);
#439=VERTEX_POINT('',#1503);
#440=VERTEX_POINT('',#1505);
#441=VERTEX_POINT('',#1509);
#442=VERTEX_POINT('',#1510);
#443=VERTEX_POINT('',#1512);
#444=VERTEX_POINT('',#1519);
#445=VERTEX_POINT('',#1520);
#446=VERTEX_POINT('',#1523);
#447=VERTEX_POINT('',#1525);
#448=VERTEX_POINT('',#1527);
#449=VERTEX_POINT('',#1529);
#450=VERTEX_POINT('',#1533);
#451=VERTEX_POINT('',#1534);
#452=VERTEX_POINT('',#1538);
#453=VERTEX_POINT('',#1539);
#454=VERTEX_POINT('',#1543);
#455=VERTEX_POINT('',#1544);
#456=VERTEX_POINT('',#1548);
#457=VERTEX_POINT('',#1549);
#458=VERTEX_POINT('',#1553);
#459=VERTEX_POINT('',#1554);
#460=VERTEX_POINT('',#1557);
#461=VERTEX_POINT('',#1559);
#462=VERTEX_POINT('',#1561);
#463=VERTEX_POINT('',#1563);
#464=VERTEX_POINT('',#1567);
#465=VERTEX_POINT('',#1569);
#466=VERTEX_POINT('',#1574);
#467=VERTEX_POINT('',#1576);
#468=VERTEX_POINT('',#1591);
#469=VERTEX_POINT('',#1593);
#470=VERTEX_POINT('',#1598);
#471=VERTEX_POINT('',#1600);
#472=VERTEX_POINT('',#1605);
#473=VERTEX_POINT('',#1607);
#474=VERTEX_POINT('',#1612);
#475=VERTEX_POINT('',#1613);
#476=VERTEX_POINT('',#1615);
#477=VERTEX_POINT('',#1617);
#478=VERTEX_POINT('',#1623);
#479=VERTEX_POINT('',#1625);
#480=VERTEX_POINT('',#1630);
#481=VERTEX_POINT('',#1631);
#482=VERTEX_POINT('',#1633);
#483=VERTEX_POINT('',#1635);
#484=VERTEX_POINT('',#1641);
#485=VERTEX_POINT('',#1643);
#486=VERTEX_POINT('',#1648);
#487=VERTEX_POINT('',#1651);
#488=VERTEX_POINT('',#1653);
#489=VERTEX_POINT('',#1655);
#490=VERTEX_POINT('',#1657);
#491=VERTEX_POINT('',#1660);
#492=VERTEX_POINT('',#1664);
#493=VERTEX_POINT('',#1666);
#494=VERTEX_POINT('',#1672);
#495=VERTEX_POINT('',#1674);
#496=VERTEX_POINT('',#1679);
#497=VERTEX_POINT('',#1681);
#498=VERTEX_POINT('',#1686);
#499=VERTEX_POINT('',#1688);
#500=VERTEX_POINT('',#1693);
#501=VERTEX_POINT('',#1695);
#502=VERTEX_POINT('',#1700);
#503=VERTEX_POINT('',#1702);
#504=VERTEX_POINT('',#1707);
#505=VERTEX_POINT('',#1709);
#506=VERTEX_POINT('',#1714);
#507=VERTEX_POINT('',#1716);
#508=VERTEX_POINT('',#1721);
#509=VERTEX_POINT('',#1723);
#510=VERTEX_POINT('',#1728);
#511=VERTEX_POINT('',#1730);
#512=VERTEX_POINT('',#1736);
#513=VERTEX_POINT('',#1738);
#514=VERTEX_POINT('',#1743);
#515=VERTEX_POINT('',#1745);
#516=VERTEX_POINT('',#1750);
#517=VERTEX_POINT('',#1752);
#518=VERTEX_POINT('',#1757);
#519=VERTEX_POINT('',#1759);
#520=VERTEX_POINT('',#1765);
#521=VERTEX_POINT('',#1767);
#522=VERTEX_POINT('',#1774);
#523=VERTEX_POINT('',#1778);
#524=EDGE_CURVE('',#438,#439,#282,.T.);
#525=EDGE_CURVE('',#440,#438,#283,.T.);
#526=EDGE_CURVE('',#439,#440,#284,.T.);
#527=EDGE_CURVE('',#441,#442,#285,.T.);
#528=EDGE_CURVE('',#443,#441,#286,.T.);
#529=EDGE_CURVE('',#442,#443,#287,.T.);
#530=EDGE_CURVE('',#438,#443,#288,.T.);
#531=EDGE_CURVE('',#441,#440,#289,.T.);
#532=EDGE_CURVE('',#444,#445,#290,.T.);
#533=EDGE_CURVE('',#445,#442,#291,.T.);
#534=EDGE_CURVE('',#443,#446,#292,.T.);
#535=EDGE_CURVE('',#446,#447,#293,.T.);
#536=EDGE_CURVE('',#447,#448,#294,.T.);
#537=EDGE_CURVE('',#448,#449,#295,.T.);
#538=EDGE_CURVE('',#449,#444,#296,.T.);
#539=EDGE_CURVE('',#450,#451,#297,.T.);
#540=EDGE_CURVE('',#451,#441,#298,.T.);
#541=EDGE_CURVE('',#442,#450,#299,.T.);
#542=EDGE_CURVE('',#452,#453,#123,.T.);
#543=EDGE_CURVE('',#453,#452,#300,.T.);
#544=EDGE_CURVE('',#454,#455,#301,.T.);
#545=EDGE_CURVE('',#455,#439,#302,.T.);
#546=EDGE_CURVE('',#440,#454,#303,.T.);
#547=EDGE_CURVE('',#456,#457,#124,.T.);
#548=EDGE_CURVE('',#457,#456,#304,.T.);
#549=EDGE_CURVE('',#458,#459,#305,.T.);
#550=EDGE_CURVE('',#459,#438,#306,.T.);
#551=EDGE_CURVE('',#439,#460,#307,.T.);
#552=EDGE_CURVE('',#460,#461,#308,.T.);
#553=EDGE_CURVE('',#461,#462,#309,.T.);
#554=EDGE_CURVE('',#462,#463,#310,.T.);
#555=EDGE_CURVE('',#463,#458,#311,.T.);
#556=EDGE_CURVE('',#464,#464,#23,.T.);
#557=EDGE_CURVE('',#464,#465,#312,.T.);
#558=EDGE_CURVE('',#465,#453,#24,.T.);
#559=EDGE_CURVE('',#452,#465,#25,.T.);
#560=EDGE_CURVE('',#466,#466,#26,.T.);
#561=EDGE_CURVE('',#466,#467,#313,.T.);
#562=EDGE_CURVE('',#467,#457,#27,.T.);
#563=EDGE_CURVE('',#456,#467,#28,.T.);
#564=EDGE_CURVE('',#449,#448,#29,.T.);
#565=EDGE_CURVE('',#444,#447,#30,.T.);
#566=EDGE_CURVE('',#446,#459,#314,.T.);
#567=EDGE_CURVE('',#463,#462,#31,.T.);
#568=EDGE_CURVE('',#458,#461,#32,.T.);
#569=EDGE_CURVE('',#468,#468,#33,.T.);
#570=EDGE_CURVE('',#468,#469,#315,.T.);
#571=EDGE_CURVE('',#469,#469,#34,.T.);
#572=EDGE_CURVE('',#470,#470,#35,.T.);
#573=EDGE_CURVE('',#470,#471,#316,.T.);
#574=EDGE_CURVE('',#471,#471,#36,.T.);
#575=EDGE_CURVE('',#472,#472,#37,.T.);
#576=EDGE_CURVE('',#472,#473,#317,.T.);
#577=EDGE_CURVE('',#473,#473,#38,.T.);
#578=EDGE_CURVE('',#474,#475,#318,.T.);
#579=EDGE_CURVE('',#474,#476,#39,.T.);
#580=EDGE_CURVE('',#477,#476,#319,.T.);
#581=EDGE_CURVE('',#475,#477,#40,.T.);
#582=EDGE_CURVE('',#476,#474,#320,.T.);
#583=EDGE_CURVE('',#478,#478,#41,.T.);
#584=EDGE_CURVE('',#478,#479,#321,.T.);
#585=EDGE_CURVE('',#479,#479,#42,.T.);
#586=EDGE_CURVE('',#480,#481,#322,.T.);
#587=EDGE_CURVE('',#480,#482,#43,.T.);
#588=EDGE_CURVE('',#483,#482,#323,.T.);
#589=EDGE_CURVE('',#481,#483,#44,.T.);
#590=EDGE_CURVE('',#482,#480,#324,.T.);
#591=EDGE_CURVE('',#484,#484,#45,.T.);
#592=EDGE_CURVE('',#484,#485,#325,.T.);
#593=EDGE_CURVE('',#485,#485,#46,.T.);
#594=EDGE_CURVE('',#460,#486,#326,.T.);
#595=EDGE_CURVE('',#486,#475,#327,.T.);
#596=EDGE_CURVE('',#477,#487,#328,.T.);
#597=EDGE_CURVE('',#487,#488,#329,.T.);
#598=EDGE_CURVE('',#488,#489,#330,.T.);
#599=EDGE_CURVE('',#489,#490,#331,.T.);
#600=EDGE_CURVE('',#490,#481,#332,.T.);
#601=EDGE_CURVE('',#483,#491,#333,.T.);
#602=EDGE_CURVE('',#491,#445,#334,.T.);
#603=EDGE_CURVE('',#492,#492,#47,.T.);
#604=EDGE_CURVE('',#492,#493,#335,.T.);
#605=EDGE_CURVE('',#493,#493,#48,.T.);
#606=EDGE_CURVE('',#494,#494,#49,.T.);
#607=EDGE_CURVE('',#494,#495,#336,.T.);
#608=EDGE_CURVE('',#495,#495,#50,.T.);
#609=EDGE_CURVE('',#496,#496,#51,.T.);
#610=EDGE_CURVE('',#496,#497,#337,.T.);
#611=EDGE_CURVE('',#497,#497,#52,.T.);
#612=EDGE_CURVE('',#498,#498,#53,.T.);
#613=EDGE_CURVE('',#498,#499,#338,.T.);
#614=EDGE_CURVE('',#499,#499,#54,.T.);
#615=EDGE_CURVE('',#500,#500,#55,.T.);
#616=EDGE_CURVE('',#500,#501,#339,.T.);
#617=EDGE_CURVE('',#501,#501,#56,.T.);
#618=EDGE_CURVE('',#502,#502,#57,.T.);
#619=EDGE_CURVE('',#502,#503,#340,.T.);
#620=EDGE_CURVE('',#503,#503,#58,.T.);
#621=EDGE_CURVE('',#504,#504,#59,.T.);
#622=EDGE_CURVE('',#504,#505,#341,.T.);
#623=EDGE_CURVE('',#505,#505,#60,.T.);
#624=EDGE_CURVE('',#506,#506,#61,.T.);
#625=EDGE_CURVE('',#506,#507,#342,.T.);
#626=EDGE_CURVE('',#507,#507,#62,.T.);
#627=EDGE_CURVE('',#508,#508,#63,.T.);
#628=EDGE_CURVE('',#508,#509,#343,.T.);
#629=EDGE_CURVE('',#509,#509,#64,.T.);
#630=EDGE_CURVE('',#510,#510,#65,.T.);
#631=EDGE_CURVE('',#510,#511,#344,.T.);
#632=EDGE_CURVE('',#511,#511,#66,.T.);
#633=EDGE_CURVE('',#512,#512,#67,.T.);
#634=EDGE_CURVE('',#512,#513,#345,.T.);
#635=EDGE_CURVE('',#513,#513,#68,.T.);
#636=EDGE_CURVE('',#514,#514,#69,.T.);
#637=EDGE_CURVE('',#514,#515,#346,.T.);
#638=EDGE_CURVE('',#515,#515,#70,.T.);
#639=EDGE_CURVE('',#516,#516,#71,.T.);
#640=EDGE_CURVE('',#516,#517,#347,.T.);
#641=EDGE_CURVE('',#517,#517,#72,.T.);
#642=EDGE_CURVE('',#518,#518,#73,.T.);
#643=EDGE_CURVE('',#518,#519,#348,.T.);
#644=EDGE_CURVE('',#519,#519,#74,.T.);
#645=EDGE_CURVE('',#450,#491,#349,.T.);
#646=EDGE_CURVE('',#520,#490,#350,.F.);
#647=EDGE_CURVE('',#521,#520,#351,.T.);
#648=EDGE_CURVE('',#521,#487,#352,.F.);
#649=EDGE_CURVE('',#455,#486,#353,.T.);
#650=EDGE_CURVE('',#451,#454,#354,.T.);
#651=EDGE_CURVE('',#520,#522,#355,.F.);
#652=EDGE_CURVE('',#522,#489,#356,.T.);
#653=EDGE_CURVE('',#523,#521,#357,.F.);
#654=EDGE_CURVE('',#523,#488,#358,.F.);
#655=EDGE_CURVE('',#522,#523,#359,.F.);
#656=ORIENTED_EDGE('',*,*,#524,.F.);
#657=ORIENTED_EDGE('',*,*,#525,.F.);
#658=ORIENTED_EDGE('',*,*,#526,.F.);
#659=ORIENTED_EDGE('',*,*,#527,.F.);
#660=ORIENTED_EDGE('',*,*,#528,.F.);
#661=ORIENTED_EDGE('',*,*,#529,.F.);
#662=ORIENTED_EDGE('',*,*,#525,.T.);
#663=ORIENTED_EDGE('',*,*,#530,.T.);
#664=ORIENTED_EDGE('',*,*,#528,.T.);
#665=ORIENTED_EDGE('',*,*,#531,.T.);
#666=ORIENTED_EDGE('',*,*,#532,.T.);
#667=ORIENTED_EDGE('',*,*,#533,.T.);
#668=ORIENTED_EDGE('',*,*,#529,.T.);
#669=ORIENTED_EDGE('',*,*,#534,.T.);
#670=ORIENTED_EDGE('',*,*,#535,.T.);
#671=ORIENTED_EDGE('',*,*,#536,.T.);
#672=ORIENTED_EDGE('',*,*,#537,.T.);
#673=ORIENTED_EDGE('',*,*,#538,.T.);
#674=ORIENTED_EDGE('',*,*,#539,.T.);
#675=ORIENTED_EDGE('',*,*,#540,.T.);
#676=ORIENTED_EDGE('',*,*,#527,.T.);
#677=ORIENTED_EDGE('',*,*,#541,.T.);
#678=ORIENTED_EDGE('',*,*,#542,.T.);
#679=ORIENTED_EDGE('',*,*,#543,.T.);
#680=ORIENTED_EDGE('',*,*,#544,.T.);
#681=ORIENTED_EDGE('',*,*,#545,.T.);
#682=ORIENTED_EDGE('',*,*,#526,.T.);
#683=ORIENTED_EDGE('',*,*,#546,.T.);
#684=ORIENTED_EDGE('',*,*,#547,.T.);
#685=ORIENTED_EDGE('',*,*,#548,.T.);
#686=ORIENTED_EDGE('',*,*,#549,.T.);
#687=ORIENTED_EDGE('',*,*,#550,.T.);
#688=ORIENTED_EDGE('',*,*,#524,.T.);
#689=ORIENTED_EDGE('',*,*,#551,.T.);
#690=ORIENTED_EDGE('',*,*,#552,.T.);
#691=ORIENTED_EDGE('',*,*,#553,.T.);
#692=ORIENTED_EDGE('',*,*,#554,.T.);
#693=ORIENTED_EDGE('',*,*,#555,.T.);
#694=ORIENTED_EDGE('',*,*,#556,.F.);
#695=ORIENTED_EDGE('',*,*,#557,.T.);
#696=ORIENTED_EDGE('',*,*,#558,.T.);
#697=ORIENTED_EDGE('',*,*,#542,.F.);
#698=ORIENTED_EDGE('',*,*,#559,.T.);
#699=ORIENTED_EDGE('',*,*,#557,.F.);
#700=ORIENTED_EDGE('',*,*,#560,.F.);
#701=ORIENTED_EDGE('',*,*,#561,.T.);
#702=ORIENTED_EDGE('',*,*,#562,.T.);
#703=ORIENTED_EDGE('',*,*,#547,.F.);
#704=ORIENTED_EDGE('',*,*,#563,.T.);
#705=ORIENTED_EDGE('',*,*,#561,.F.);
#706=ORIENTED_EDGE('',*,*,#537,.F.);
#707=ORIENTED_EDGE('',*,*,#564,.F.);
#708=ORIENTED_EDGE('',*,*,#538,.F.);
#709=ORIENTED_EDGE('',*,*,#564,.T.);
#710=ORIENTED_EDGE('',*,*,#536,.F.);
#711=ORIENTED_EDGE('',*,*,#565,.F.);
#712=ORIENTED_EDGE('',*,*,#534,.F.);
#713=ORIENTED_EDGE('',*,*,#530,.F.);
#714=ORIENTED_EDGE('',*,*,#550,.F.);
#715=ORIENTED_EDGE('',*,*,#566,.F.);
#716=ORIENTED_EDGE('',*,*,#554,.F.);
#717=ORIENTED_EDGE('',*,*,#567,.F.);
#718=ORIENTED_EDGE('',*,*,#555,.F.);
#719=ORIENTED_EDGE('',*,*,#567,.T.);
#720=ORIENTED_EDGE('',*,*,#553,.F.);
#721=ORIENTED_EDGE('',*,*,#568,.F.);
#722=ORIENTED_EDGE('',*,*,#569,.F.);
#723=ORIENTED_EDGE('',*,*,#570,.T.);
#724=ORIENTED_EDGE('',*,*,#571,.T.);
#725=ORIENTED_EDGE('',*,*,#570,.F.);
#726=ORIENTED_EDGE('',*,*,#571,.F.);
#727=ORIENTED_EDGE('',*,*,#572,.F.);
#728=ORIENTED_EDGE('',*,*,#573,.T.);
#729=ORIENTED_EDGE('',*,*,#574,.T.);
#730=ORIENTED_EDGE('',*,*,#573,.F.);
#731=ORIENTED_EDGE('',*,*,#574,.F.);
#732=ORIENTED_EDGE('',*,*,#575,.F.);
#733=ORIENTED_EDGE('',*,*,#576,.T.);
#734=ORIENTED_EDGE('',*,*,#577,.T.);
#735=ORIENTED_EDGE('',*,*,#576,.F.);
#736=ORIENTED_EDGE('',*,*,#577,.F.);
#737=ORIENTED_EDGE('',*,*,#578,.F.);
#738=ORIENTED_EDGE('',*,*,#579,.T.);
#739=ORIENTED_EDGE('',*,*,#580,.F.);
#740=ORIENTED_EDGE('',*,*,#581,.F.);
#741=ORIENTED_EDGE('',*,*,#582,.F.);
#742=ORIENTED_EDGE('',*,*,#579,.F.);
#743=ORIENTED_EDGE('',*,*,#583,.F.);
#744=ORIENTED_EDGE('',*,*,#584,.T.);
#745=ORIENTED_EDGE('',*,*,#585,.T.);
#746=ORIENTED_EDGE('',*,*,#584,.F.);
#747=ORIENTED_EDGE('',*,*,#585,.F.);
#748=ORIENTED_EDGE('',*,*,#586,.F.);
#749=ORIENTED_EDGE('',*,*,#587,.T.);
#750=ORIENTED_EDGE('',*,*,#588,.F.);
#751=ORIENTED_EDGE('',*,*,#589,.F.);
#752=ORIENTED_EDGE('',*,*,#590,.F.);
#753=ORIENTED_EDGE('',*,*,#587,.F.);
#754=ORIENTED_EDGE('',*,*,#591,.F.);
#755=ORIENTED_EDGE('',*,*,#592,.T.);
#756=ORIENTED_EDGE('',*,*,#593,.T.);
#757=ORIENTED_EDGE('',*,*,#592,.F.);
#758=ORIENTED_EDGE('',*,*,#593,.F.);
#759=ORIENTED_EDGE('',*,*,#532,.F.);
#760=ORIENTED_EDGE('',*,*,#565,.T.);
#761=ORIENTED_EDGE('',*,*,#535,.F.);
#762=ORIENTED_EDGE('',*,*,#566,.T.);
#763=ORIENTED_EDGE('',*,*,#549,.F.);
#764=ORIENTED_EDGE('',*,*,#568,.T.);
#765=ORIENTED_EDGE('',*,*,#552,.F.);
#766=ORIENTED_EDGE('',*,*,#594,.T.);
#767=ORIENTED_EDGE('',*,*,#595,.T.);
#768=ORIENTED_EDGE('',*,*,#581,.T.);
#769=ORIENTED_EDGE('',*,*,#596,.T.);
#770=ORIENTED_EDGE('',*,*,#597,.T.);
#771=ORIENTED_EDGE('',*,*,#598,.T.);
#772=ORIENTED_EDGE('',*,*,#599,.T.);
#773=ORIENTED_EDGE('',*,*,#600,.T.);
#774=ORIENTED_EDGE('',*,*,#589,.T.);
#775=ORIENTED_EDGE('',*,*,#601,.T.);
#776=ORIENTED_EDGE('',*,*,#602,.T.);
#777=ORIENTED_EDGE('',*,*,#591,.T.);
#778=ORIENTED_EDGE('',*,*,#583,.T.);
#779=ORIENTED_EDGE('',*,*,#575,.T.);
#780=ORIENTED_EDGE('',*,*,#572,.T.);
#781=ORIENTED_EDGE('',*,*,#569,.T.);
#782=ORIENTED_EDGE('',*,*,#603,.F.);
#783=ORIENTED_EDGE('',*,*,#604,.T.);
#784=ORIENTED_EDGE('',*,*,#605,.T.);
#785=ORIENTED_EDGE('',*,*,#604,.F.);
#786=ORIENTED_EDGE('',*,*,#605,.F.);
#787=ORIENTED_EDGE('',*,*,#548,.F.);
#788=ORIENTED_EDGE('',*,*,#562,.F.);
#789=ORIENTED_EDGE('',*,*,#563,.F.);
#790=ORIENTED_EDGE('',*,*,#606,.F.);
#791=ORIENTED_EDGE('',*,*,#607,.T.);
#792=ORIENTED_EDGE('',*,*,#608,.T.);
#793=ORIENTED_EDGE('',*,*,#607,.F.);
#794=ORIENTED_EDGE('',*,*,#608,.F.);
#795=ORIENTED_EDGE('',*,*,#609,.F.);
#796=ORIENTED_EDGE('',*,*,#610,.T.);
#797=ORIENTED_EDGE('',*,*,#611,.T.);
#798=ORIENTED_EDGE('',*,*,#610,.F.);
#799=ORIENTED_EDGE('',*,*,#611,.F.);
#800=ORIENTED_EDGE('',*,*,#612,.F.);
#801=ORIENTED_EDGE('',*,*,#613,.T.);
#802=ORIENTED_EDGE('',*,*,#614,.T.);
#803=ORIENTED_EDGE('',*,*,#613,.F.);
#804=ORIENTED_EDGE('',*,*,#614,.F.);
#805=ORIENTED_EDGE('',*,*,#615,.F.);
#806=ORIENTED_EDGE('',*,*,#616,.T.);
#807=ORIENTED_EDGE('',*,*,#617,.T.);
#808=ORIENTED_EDGE('',*,*,#616,.F.);
#809=ORIENTED_EDGE('',*,*,#617,.F.);
#810=ORIENTED_EDGE('',*,*,#618,.F.);
#811=ORIENTED_EDGE('',*,*,#619,.T.);
#812=ORIENTED_EDGE('',*,*,#620,.T.);
#813=ORIENTED_EDGE('',*,*,#619,.F.);
#814=ORIENTED_EDGE('',*,*,#620,.F.);
#815=ORIENTED_EDGE('',*,*,#621,.F.);
#816=ORIENTED_EDGE('',*,*,#622,.T.);
#817=ORIENTED_EDGE('',*,*,#623,.T.);
#818=ORIENTED_EDGE('',*,*,#622,.F.);
#819=ORIENTED_EDGE('',*,*,#623,.F.);
#820=ORIENTED_EDGE('',*,*,#624,.F.);
#821=ORIENTED_EDGE('',*,*,#625,.T.);
#822=ORIENTED_EDGE('',*,*,#626,.T.);
#823=ORIENTED_EDGE('',*,*,#625,.F.);
#824=ORIENTED_EDGE('',*,*,#626,.F.);
#825=ORIENTED_EDGE('',*,*,#627,.F.);
#826=ORIENTED_EDGE('',*,*,#628,.T.);
#827=ORIENTED_EDGE('',*,*,#629,.T.);
#828=ORIENTED_EDGE('',*,*,#628,.F.);
#829=ORIENTED_EDGE('',*,*,#629,.F.);
#830=ORIENTED_EDGE('',*,*,#630,.F.);
#831=ORIENTED_EDGE('',*,*,#631,.T.);
#832=ORIENTED_EDGE('',*,*,#632,.T.);
#833=ORIENTED_EDGE('',*,*,#631,.F.);
#834=ORIENTED_EDGE('',*,*,#632,.F.);
#835=ORIENTED_EDGE('',*,*,#543,.F.);
#836=ORIENTED_EDGE('',*,*,#558,.F.);
#837=ORIENTED_EDGE('',*,*,#559,.F.);
#838=ORIENTED_EDGE('',*,*,#633,.F.);
#839=ORIENTED_EDGE('',*,*,#634,.T.);
#840=ORIENTED_EDGE('',*,*,#635,.T.);
#841=ORIENTED_EDGE('',*,*,#634,.F.);
#842=ORIENTED_EDGE('',*,*,#635,.F.);
#843=ORIENTED_EDGE('',*,*,#636,.F.);
#844=ORIENTED_EDGE('',*,*,#637,.T.);
#845=ORIENTED_EDGE('',*,*,#638,.T.);
#846=ORIENTED_EDGE('',*,*,#637,.F.);
#847=ORIENTED_EDGE('',*,*,#638,.F.);
#848=ORIENTED_EDGE('',*,*,#639,.F.);
#849=ORIENTED_EDGE('',*,*,#640,.T.);
#850=ORIENTED_EDGE('',*,*,#641,.T.);
#851=ORIENTED_EDGE('',*,*,#640,.F.);
#852=ORIENTED_EDGE('',*,*,#641,.F.);
#853=ORIENTED_EDGE('',*,*,#642,.F.);
#854=ORIENTED_EDGE('',*,*,#643,.T.);
#855=ORIENTED_EDGE('',*,*,#644,.T.);
#856=ORIENTED_EDGE('',*,*,#643,.F.);
#857=ORIENTED_EDGE('',*,*,#644,.F.);
#858=ORIENTED_EDGE('',*,*,#539,.F.);
#859=ORIENTED_EDGE('',*,*,#645,.T.);
#860=ORIENTED_EDGE('',*,*,#601,.F.);
#861=ORIENTED_EDGE('',*,*,#588,.T.);
#862=ORIENTED_EDGE('',*,*,#590,.T.);
#863=ORIENTED_EDGE('',*,*,#586,.T.);
#864=ORIENTED_EDGE('',*,*,#600,.F.);
#865=ORIENTED_EDGE('',*,*,#646,.F.);
#866=ORIENTED_EDGE('',*,*,#647,.F.);
#867=ORIENTED_EDGE('',*,*,#648,.T.);
#868=ORIENTED_EDGE('',*,*,#596,.F.);
#869=ORIENTED_EDGE('',*,*,#580,.T.);
#870=ORIENTED_EDGE('',*,*,#582,.T.);
#871=ORIENTED_EDGE('',*,*,#578,.T.);
#872=ORIENTED_EDGE('',*,*,#595,.F.);
#873=ORIENTED_EDGE('',*,*,#649,.F.);
#874=ORIENTED_EDGE('',*,*,#544,.F.);
#875=ORIENTED_EDGE('',*,*,#650,.F.);
#876=ORIENTED_EDGE('',*,*,#603,.T.);
#877=ORIENTED_EDGE('',*,*,#560,.T.);
#878=ORIENTED_EDGE('',*,*,#606,.T.);
#879=ORIENTED_EDGE('',*,*,#609,.T.);
#880=ORIENTED_EDGE('',*,*,#612,.T.);
#881=ORIENTED_EDGE('',*,*,#615,.T.);
#882=ORIENTED_EDGE('',*,*,#618,.T.);
#883=ORIENTED_EDGE('',*,*,#621,.T.);
#884=ORIENTED_EDGE('',*,*,#624,.T.);
#885=ORIENTED_EDGE('',*,*,#627,.T.);
#886=ORIENTED_EDGE('',*,*,#630,.T.);
#887=ORIENTED_EDGE('',*,*,#556,.T.);
#888=ORIENTED_EDGE('',*,*,#633,.T.);
#889=ORIENTED_EDGE('',*,*,#636,.T.);
#890=ORIENTED_EDGE('',*,*,#540,.F.);
#891=ORIENTED_EDGE('',*,*,#650,.T.);
#892=ORIENTED_EDGE('',*,*,#546,.F.);
#893=ORIENTED_EDGE('',*,*,#531,.F.);
#894=ORIENTED_EDGE('',*,*,#639,.T.);
#895=ORIENTED_EDGE('',*,*,#642,.T.);
#896=ORIENTED_EDGE('',*,*,#651,.F.);
#897=ORIENTED_EDGE('',*,*,#646,.T.);
#898=ORIENTED_EDGE('',*,*,#599,.F.);
#899=ORIENTED_EDGE('',*,*,#652,.F.);
#900=ORIENTED_EDGE('',*,*,#653,.F.);
#901=ORIENTED_EDGE('',*,*,#654,.T.);
#902=ORIENTED_EDGE('',*,*,#597,.F.);
#903=ORIENTED_EDGE('',*,*,#648,.F.);
#904=ORIENTED_EDGE('',*,*,#655,.F.);
#905=ORIENTED_EDGE('',*,*,#652,.T.);
#906=ORIENTED_EDGE('',*,*,#598,.F.);
#907=ORIENTED_EDGE('',*,*,#654,.F.);
#908=ORIENTED_EDGE('',*,*,#647,.T.);
#909=ORIENTED_EDGE('',*,*,#651,.T.);
#910=ORIENTED_EDGE('',*,*,#655,.T.);
#911=ORIENTED_EDGE('',*,*,#653,.T.);
#912=ORIENTED_EDGE('',*,*,#533,.F.);
#913=ORIENTED_EDGE('',*,*,#602,.F.);
#914=ORIENTED_EDGE('',*,*,#645,.F.);
#915=ORIENTED_EDGE('',*,*,#541,.F.);
#916=ORIENTED_EDGE('',*,*,#545,.F.);
#917=ORIENTED_EDGE('',*,*,#649,.T.);
#918=ORIENTED_EDGE('',*,*,#594,.F.);
#919=ORIENTED_EDGE('',*,*,#551,.F.);
#920=PLANE('',#1045);
#921=PLANE('',#1046);
#922=PLANE('',#1047);
#923=PLANE('',#1048);
#924=PLANE('',#1049);
#925=PLANE('',#1051);
#926=PLANE('',#1053);
#927=PLANE('',#1062);
#928=PLANE('',#1066);
#929=PLANE('',#1067);
#930=PLANE('',#1074);
#931=PLANE('',#1078);
#932=PLANE('',#1082);
#933=PLANE('',#1086);
#934=PLANE('',#1090);
#935=PLANE('',#1094);
#936=PLANE('',#1098);
#937=PLANE('',#1099);
#938=PLANE('',#1103);
#939=PLANE('',#1104);
#940=PLANE('',#1108);
#941=PLANE('',#1112);
#942=PLANE('',#1116);
#943=PLANE('',#1120);
#944=PLANE('',#1124);
#945=PLANE('',#1128);
#946=PLANE('',#1132);
#947=PLANE('',#1136);
#948=PLANE('',#1140);
#949=PLANE('',#1141);
#950=PLANE('',#1145);
#951=PLANE('',#1149);
#952=PLANE('',#1153);
#953=PLANE('',#1157);
#954=PLANE('',#1158);
#955=PLANE('',#1159);
#956=PLANE('',#1160);
#957=PLANE('',#1161);
#958=PLANE('',#1162);
#959=PLANE('',#1163);
#960=PLANE('',#1164);
#961=PLANE('',#1165);
#962=ADVANCED_FACE('',(#125),#920,.T.);
#963=ADVANCED_FACE('',(#126),#921,.T.);
#964=ADVANCED_FACE('',(#127),#922,.T.);
#965=ADVANCED_FACE('',(#128),#923,.T.);
#966=ADVANCED_FACE('',(#129,#100),#924,.T.);
#967=ADVANCED_FACE('',(#130,#101),#925,.T.);
#968=ADVANCED_FACE('',(#131),#926,.T.);
#969=ADVANCED_FACE('',(#132),#75,.F.);
#970=ADVANCED_FACE('',(#133),#76,.F.);
#971=ADVANCED_FACE('',(#134),#927,.T.);
#972=ADVANCED_FACE('',(#135),#77,.F.);
#973=ADVANCED_FACE('',(#136),#928,.T.);
#974=ADVANCED_FACE('',(#137),#929,.T.);
#975=ADVANCED_FACE('',(#138),#78,.F.);
#976=ADVANCED_FACE('',(#139),#79,.F.);
#977=ADVANCED_FACE('',(#140),#930,.T.);
#978=ADVANCED_FACE('',(#141),#80,.F.);
#979=ADVANCED_FACE('',(#142),#931,.T.);
#980=ADVANCED_FACE('',(#143),#81,.F.);
#981=ADVANCED_FACE('',(#144),#932,.T.);
#982=ADVANCED_FACE('',(#145),#82,.F.);
#983=ADVANCED_FACE('',(#146),#933,.T.);
#984=ADVANCED_FACE('',(#147),#83,.F.);
#985=ADVANCED_FACE('',(#148),#934,.T.);
#986=ADVANCED_FACE('',(#149),#84,.F.);
#987=ADVANCED_FACE('',(#150),#935,.T.);
#988=ADVANCED_FACE('',(#151),#85,.F.);
#989=ADVANCED_FACE('',(#152),#936,.T.);
#990=ADVANCED_FACE('',(#153,#102,#103,#104,#105,#106),#937,.T.);
#991=ADVANCED_FACE('',(#154),#86,.F.);
#992=ADVANCED_FACE('',(#155),#938,.F.);
#993=ADVANCED_FACE('',(#156),#939,.F.);
#994=ADVANCED_FACE('',(#157),#87,.F.);
#995=ADVANCED_FACE('',(#158),#940,.F.);
#996=ADVANCED_FACE('',(#159),#88,.F.);
#997=ADVANCED_FACE('',(#160),#941,.F.);
#998=ADVANCED_FACE('',(#161),#89,.F.);
#999=ADVANCED_FACE('',(#162),#942,.F.);
#1000=ADVANCED_FACE('',(#163),#90,.F.);
#1001=ADVANCED_FACE('',(#164),#943,.F.);
#1002=ADVANCED_FACE('',(#165),#91,.F.);
#1003=ADVANCED_FACE('',(#166),#944,.F.);
#1004=ADVANCED_FACE('',(#167),#92,.F.);
#1005=ADVANCED_FACE('',(#168),#945,.F.);
#1006=ADVANCED_FACE('',(#169),#93,.F.);
#1007=ADVANCED_FACE('',(#170),#946,.F.);
#1008=ADVANCED_FACE('',(#171),#94,.F.);
#1009=ADVANCED_FACE('',(#172),#947,.F.);
#1010=ADVANCED_FACE('',(#173),#95,.F.);
#1011=ADVANCED_FACE('',(#174),#948,.F.);
#1012=ADVANCED_FACE('',(#175),#949,.F.);
#1013=ADVANCED_FACE('',(#176),#96,.F.);
#1014=ADVANCED_FACE('',(#177),#950,.F.);
#1015=ADVANCED_FACE('',(#178),#97,.F.);
#1016=ADVANCED_FACE('',(#179),#951,.F.);
#1017=ADVANCED_FACE('',(#180),#98,.F.);
#1018=ADVANCED_FACE('',(#181),#952,.T.);
#1019=ADVANCED_FACE('',(#182),#99,.F.);
#1020=ADVANCED_FACE('',(#183),#953,.T.);
#1021=ADVANCED_FACE('',(#184,#107,#108,#109,#110,#111,#112,#113,#114,#115,
#116,#117,#118,#119,#120),#954,.F.);
#1022=ADVANCED_FACE('',(#185,#121,#122),#955,.F.);
#1023=ADVANCED_FACE('',(#186),#956,.F.);
#1024=ADVANCED_FACE('',(#187),#957,.F.);
#1025=ADVANCED_FACE('',(#188),#958,.F.);
#1026=ADVANCED_FACE('',(#189),#959,.T.);
#1027=ADVANCED_FACE('',(#190),#960,.T.);
#1028=ADVANCED_FACE('',(#191),#961,.T.);
#1029=CLOSED_SHELL('',(#962,#963,#964,#965,#966,#967,#968,#969,#970,#971,
#972,#973,#974,#975,#976,#977,#978,#979,#980,#981,#982,#983,#984,#985,#986,
#987,#988,#989,#990,#991,#992,#993,#994,#995,#996,#997,#998,#999,#1000,
#1001,#1002,#1003,#1004,#1005,#1006,#1007,#1008,#1009,#1010,#1011,#1012,
#1013,#1014,#1015,#1016,#1017,#1018,#1019,#1020,#1021,#1022,#1023,#1024,
#1025,#1026,#1027,#1028));
#1030=DERIVED_UNIT_ELEMENT(#1032,1.);
#1031=DERIVED_UNIT_ELEMENT(#1797,-3.);
#1032=(
MASS_UNIT()
NAMED_UNIT(*)
SI_UNIT(.KILO.,.GRAM.)
);
#1033=DERIVED_UNIT((#1030,#1031));
#1034=MEASURE_REPRESENTATION_ITEM('density measure',
POSITIVE_RATIO_MEASURE(7850.),#1033);
#1035=PROPERTY_DEFINITION_REPRESENTATION(#1040,#1037);
#1036=PROPERTY_DEFINITION_REPRESENTATION(#1041,#1038);
#1037=REPRESENTATION('material name',(#1039),#1794);
#1038=REPRESENTATION('density',(#1034),#1794);
#1039=DESCRIPTIVE_REPRESENTATION_ITEM('Steel','Steel');
#1040=PROPERTY_DEFINITION('material property','material name',#1814);
#1041=PROPERTY_DEFINITION('material property','density of part',#1814);
#1042=AXIS2_PLACEMENT_3D('',#1498,#1168,#1169);
#1043=AXIS2_PLACEMENT_3D('',#1499,#1170,#1171);
#1044=AXIS2_PLACEMENT_3D('',#1500,#1172,#1173);
#1045=AXIS2_PLACEMENT_3D('',#1501,#1174,#1175);
#1046=AXIS2_PLACEMENT_3D('',#1508,#1179,#1180);
#1047=AXIS2_PLACEMENT_3D('',#1515,#1184,#1185);
#1048=AXIS2_PLACEMENT_3D('',#1518,#1188,#1189);
#1049=AXIS2_PLACEMENT_3D('',#1532,#1197,#1198);
#1050=AXIS2_PLACEMENT_3D('',#1540,#1202,#1203);
#1051=AXIS2_PLACEMENT_3D('',#1542,#1205,#1206);
#1052=AXIS2_PLACEMENT_3D('',#1550,#1210,#1211);
#1053=AXIS2_PLACEMENT_3D('',#1552,#1213,#1214);
#1054=AXIS2_PLACEMENT_3D('',#1566,#1222,#1223);
#1055=AXIS2_PLACEMENT_3D('',#1568,#1224,#1225);
#1056=AXIS2_PLACEMENT_3D('',#1571,#1227,#1228);
#1057=AXIS2_PLACEMENT_3D('',#1572,#1229,#1230);
#1058=AXIS2_PLACEMENT_3D('',#1573,#1231,#1232);
#1059=AXIS2_PLACEMENT_3D('',#1575,#1233,#1234);
#1060=AXIS2_PLACEMENT_3D('',#1578,#1236,#1237);
#1061=AXIS2_PLACEMENT_3D('',#1579,#1238,#1239);
#1062=AXIS2_PLACEMENT_3D('',#1580,#1240,#1241);
#1063=AXIS2_PLACEMENT_3D('',#1581,#1242,#1243);
#1064=AXIS2_PLACEMENT_3D('',#1582,#1244,#1245);
#1065=AXIS2_PLACEMENT_3D('',#1583,#1246,#1247);
#1066=AXIS2_PLACEMENT_3D('',#1584,#1248,#1249);
#1067=AXIS2_PLACEMENT_3D('',#1586,#1251,#1252);
#1068=AXIS2_PLACEMENT_3D('',#1587,#1253,#1254);
#1069=AXIS2_PLACEMENT_3D('',#1588,#1255,#1256);
#1070=AXIS2_PLACEMENT_3D('',#1589,#1257,#1258);
#1071=AXIS2_PLACEMENT_3D('',#1590,#1259,#1260);
#1072=AXIS2_PLACEMENT_3D('',#1592,#1261,#1262);
#1073=AXIS2_PLACEMENT_3D('',#1595,#1264,#1265);
#1074=AXIS2_PLACEMENT_3D('',#1596,#1266,#1267);
#1075=AXIS2_PLACEMENT_3D('',#1597,#1268,#1269);
#1076=AXIS2_PLACEMENT_3D('',#1599,#1270,#1271);
#1077=AXIS2_PLACEMENT_3D('',#1602,#1273,#1274);
#1078=AXIS2_PLACEMENT_3D('',#1603,#1275,#1276);
#1079=AXIS2_PLACEMENT_3D('',#1604,#1277,#1278);
#1080=AXIS2_PLACEMENT_3D('',#1606,#1279,#1280);
#1081=AXIS2_PLACEMENT_3D('',#1609,#1282,#1283);
#1082=AXIS2_PLACEMENT_3D('',#1610,#1284,#1285);
#1083=AXIS2_PLACEMENT_3D('',#1611,#1286,#1287);
#1084=AXIS2_PLACEMENT_3D('',#1616,#1289,#1290);
#1085=AXIS2_PLACEMENT_3D('',#1619,#1292,#1293);
#1086=AXIS2_PLACEMENT_3D('',#1620,#1294,#1295);
#1087=AXIS2_PLACEMENT_3D('',#1622,#1297,#1298);
#1088=AXIS2_PLACEMENT_3D('',#1624,#1299,#1300);
#1089=AXIS2_PLACEMENT_3D('',#1627,#1302,#1303);
#1090=AXIS2_PLACEMENT_3D('',#1628,#1304,#1305);
#1091=AXIS2_PLACEMENT_3D('',#1629,#1306,#1307);
#1092=AXIS2_PLACEMENT_3D('',#1634,#1309,#1310);
#1093=AXIS2_PLACEMENT_3D('',#1637,#1312,#1313);
#1094=AXIS2_PLACEMENT_3D('',#1638,#1314,#1315);
#1095=AXIS2_PLACEMENT_3D('',#1640,#1317,#1318);
#1096=AXIS2_PLACEMENT_3D('',#1642,#1319,#1320);
#1097=AXIS2_PLACEMENT_3D('',#1645,#1322,#1323);
#1098=AXIS2_PLACEMENT_3D('',#1646,#1324,#1325);
#1099=AXIS2_PLACEMENT_3D('',#1647,#1326,#1327);
#1100=AXIS2_PLACEMENT_3D('',#1663,#1337,#1338);
#1101=AXIS2_PLACEMENT_3D('',#1665,#1339,#1340);
#1102=AXIS2_PLACEMENT_3D('',#1668,#1342,#1343);
#1103=AXIS2_PLACEMENT_3D('',#1669,#1344,#1345);
#1104=AXIS2_PLACEMENT_3D('',#1670,#1346,#1347);
#1105=AXIS2_PLACEMENT_3D('',#1671,#1348,#1349);
#1106=AXIS2_PLACEMENT_3D('',#1673,#1350,#1351);
#1107=AXIS2_PLACEMENT_3D('',#1676,#1353,#1354);
#1108=AXIS2_PLACEMENT_3D('',#1677,#1355,#1356);
#1109=AXIS2_PLACEMENT_3D('',#1678,#1357,#1358);
#1110=AXIS2_PLACEMENT_3D('',#1680,#1359,#1360);
#1111=AXIS2_PLACEMENT_3D('',#1683,#1362,#1363);
#1112=AXIS2_PLACEMENT_3D('',#1684,#1364,#1365);
#1113=AXIS2_PLACEMENT_3D('',#1685,#1366,#1367);
#1114=AXIS2_PLACEMENT_3D('',#1687,#1368,#1369);
#1115=AXIS2_PLACEMENT_3D('',#1690,#1371,#1372);
#1116=AXIS2_PLACEMENT_3D('',#1691,#1373,#1374);
#1117=AXIS2_PLACEMENT_3D('',#1692,#1375,#1376);
#1118=AXIS2_PLACEMENT_3D('',#1694,#1377,#1378);
#1119=AXIS2_PLACEMENT_3D('',#1697,#1380,#1381);
#1120=AXIS2_PLACEMENT_3D('',#1698,#1382,#1383);
#1121=AXIS2_PLACEMENT_3D('',#1699,#1384,#1385);
#1122=AXIS2_PLACEMENT_3D('',#1701,#1386,#1387);
#1123=AXIS2_PLACEMENT_3D('',#1704,#1389,#1390);
#1124=AXIS2_PLACEMENT_3D('',#1705,#1391,#1392);
#1125=AXIS2_PLACEMENT_3D('',#1706,#1393,#1394);
#1126=AXIS2_PLACEMENT_3D('',#1708,#1395,#1396);
#1127=AXIS2_PLACEMENT_3D('',#1711,#1398,#1399);
#1128=AXIS2_PLACEMENT_3D('',#1712,#1400,#1401);
#1129=AXIS2_PLACEMENT_3D('',#1713,#1402,#1403);
#1130=AXIS2_PLACEMENT_3D('',#1715,#1404,#1405);
#1131=AXIS2_PLACEMENT_3D('',#1718,#1407,#1408);
#1132=AXIS2_PLACEMENT_3D('',#1719,#1409,#1410);
#1133=AXIS2_PLACEMENT_3D('',#1720,#1411,#1412);
#1134=AXIS2_PLACEMENT_3D('',#1722,#1413,#1414);
#1135=AXIS2_PLACEMENT_3D('',#1725,#1416,#1417);
#1136=AXIS2_PLACEMENT_3D('',#1726,#1418,#1419);
#1137=AXIS2_PLACEMENT_3D('',#1727,#1420,#1421);
#1138=AXIS2_PLACEMENT_3D('',#1729,#1422,#1423);
#1139=AXIS2_PLACEMENT_3D('',#1732,#1425,#1426);
#1140=AXIS2_PLACEMENT_3D('',#1733,#1427,#1428);
#1141=AXIS2_PLACEMENT_3D('',#1734,#1429,#1430);
#1142=AXIS2_PLACEMENT_3D('',#1735,#1431,#1432);
#1143=AXIS2_PLACEMENT_3D('',#1737,#1433,#1434);
#1144=AXIS2_PLACEMENT_3D('',#1740,#1436,#1437);
#1145=AXIS2_PLACEMENT_3D('',#1741,#1438,#1439);
#1146=AXIS2_PLACEMENT_3D('',#1742,#1440,#1441);
#1147=AXIS2_PLACEMENT_3D('',#1744,#1442,#1443);
#1148=AXIS2_PLACEMENT_3D('',#1747,#1445,#1446);
#1149=AXIS2_PLACEMENT_3D('',#1748,#1447,#1448);
#1150=AXIS2_PLACEMENT_3D('',#1749,#1449,#1450);
#1151=AXIS2_PLACEMENT_3D('',#1751,#1451,#1452);
#1152=AXIS2_PLACEMENT_3D('',#1754,#1454,#1455);
#1153=AXIS2_PLACEMENT_3D('',#1755,#1456,#1457);
#1154=AXIS2_PLACEMENT_3D('',#1756,#1458,#1459);
#1155=AXIS2_PLACEMENT_3D('',#1758,#1460,#1461);
#1156=AXIS2_PLACEMENT_3D('',#1761,#1463,#1464);
#1157=AXIS2_PLACEMENT_3D('',#1762,#1465,#1466);
#1158=AXIS2_PLACEMENT_3D('',#1763,#1467,#1468);
#1159=AXIS2_PLACEMENT_3D('',#1772,#1475,#1476);
#1160=AXIS2_PLACEMENT_3D('',#1773,#1477,#1478);
#1161=AXIS2_PLACEMENT_3D('',#1777,#1481,#1482);
#1162=AXIS2_PLACEMENT_3D('',#1781,#1485,#1486);
#1163=AXIS2_PLACEMENT_3D('',#1783,#1488,#1489);
#1164=AXIS2_PLACEMENT_3D('',#1784,#1490,#1491);
#1165=AXIS2_PLACEMENT_3D('',#1785,#1492,#1493);
#1166=AXIS2_PLACEMENT_3D('',#1786,#1494,#1495);
#1167=AXIS2_PLACEMENT_3D('',#1787,#1496,#1497);
#1168=DIRECTION('axis',(0.,0.,1.));
#1169=DIRECTION('refdir',(1.,0.,0.));
#1170=DIRECTION('axis',(0.,0.,1.));
#1171=DIRECTION('refdir',(1.,0.,0.));
#1172=DIRECTION('axis',(0.,0.,1.));
#1173=DIRECTION('refdir',(1.,0.,0.));
#1174=DIRECTION('center_axis',(0.418321028566615,0.724553275351851,0.547750005235851));
#1175=DIRECTION('ref_axis',(0.79474037420506,0.,-0.606949534647157));
#1176=DIRECTION('',(0.866025403784439,-0.5,0.));
#1177=DIRECTION('',(-0.286344323664979,0.677497944020809,-0.677497944020809));
#1178=DIRECTION('',(-0.729902592366236,-0.0907675134870618,0.67749794402081));
#1179=DIRECTION('center_axis',(-0.418321028566615,0.72455327535185,0.547750005235851));
#1180=DIRECTION('ref_axis',(0.794740374205061,0.,0.606949534647157));
#1181=DIRECTION('',(-0.729902592366238,0.0907675134870585,-0.677497944020808));
#1182=DIRECTION('',(-0.286344323664977,-0.677497944020809,0.677497944020809));
#1183=DIRECTION('',(0.866025403784439,0.5,0.));
#1184=DIRECTION('center_axis',(-2.17558392881682E-16,0.707106781186548,
0.707106781186548));
#1185=DIRECTION('ref_axis',(1.,0.,3.07674029821369E-16));
#1186=DIRECTION('',(-1.,-3.07674029821369E-16,0.));
#1187=DIRECTION('',(1.,3.07674029821369E-16,0.));
#1188=DIRECTION('center_axis',(-0.5,0.866025403784439,0.));
#1189=DIRECTION('ref_axis',(0.,0.,1.));
#1190=DIRECTION('',(-0.866025403784439,-0.5,0.));
#1191=DIRECTION('',(0.,0.,1.));
#1192=DIRECTION('',(0.,0.,-1.));
#1193=DIRECTION('',(-0.866025403784439,-0.5,0.));
#1194=DIRECTION('',(0.,0.,1.));
#1195=DIRECTION('',(-0.866025403784439,-0.5,0.));
#1196=DIRECTION('',(0.,0.,-1.));
#1197=DIRECTION('center_axis',(-0.612372435695794,0.353553390593273,0.707106781186548));
#1198=DIRECTION('ref_axis',(0.755928946018455,0.,0.654653670707976));
#1199=DIRECTION('',(0.755928946018455,3.97937937103896E-16,0.654653670707976));
#1200=DIRECTION('',(0.5,0.866025403784439,0.));
#1201=DIRECTION('',(-0.5,-0.866025403784439,0.));
#1202=DIRECTION('center_axis',(0.612372435695794,-0.353553390593273,-0.707106781186548));
#1203=DIRECTION('ref_axis',(-0.231455024943137,-0.935414346693486,0.267261241912424));
#1204=DIRECTION('',(0.755928946018455,0.,0.654653670707976));
#1205=DIRECTION('center_axis',(0.612372435695795,0.353553390593274,0.707106781186547));
#1206=DIRECTION('ref_axis',(0.755928946018454,0.,-0.654653670707978));
#1207=DIRECTION('',(0.755928946018454,3.97937937103896E-16,-0.654653670707978));
#1208=DIRECTION('',(-0.5,0.866025403784439,0.));
#1209=DIRECTION('',(0.5,-0.866025403784439,0.));
#1210=DIRECTION('center_axis',(-0.612372435695795,-0.353553390593274,-0.707106781186547));
#1211=DIRECTION('ref_axis',(-0.231455024943138,0.935414346693485,-0.267261241912425));
#1212=DIRECTION('',(0.755928946018454,0.,-0.654653670707978));
#1213=DIRECTION('center_axis',(0.5,0.866025403784439,0.));
#1214=DIRECTION('ref_axis',(0.,0.,1.));
#1215=DIRECTION('',(-0.866025403784439,0.5,0.));
#1216=DIRECTION('',(0.,0.,1.));
#1217=DIRECTION('',(0.,0.,-1.));
#1218=DIRECTION('',(-0.866025403784439,0.5,0.));
#1219=DIRECTION('',(0.,0.,1.));
#1220=DIRECTION('',(-0.866025403784439,0.5,0.));
#1221=DIRECTION('',(0.,0.,-1.));
#1222=DIRECTION('center_axis',(0.,1.,0.));
#1223=DIRECTION('ref_axis',(-1.,0.,0.));
#1224=DIRECTION('center_axis',(-5.26422409407486E-16,1.,0.));
#1225=DIRECTION('ref_axis',(-1.,0.,0.));
#1226=DIRECTION('',(0.,1.,0.));
#1227=DIRECTION('center_axis',(0.,1.,0.));
#1228=DIRECTION('ref_axis',(-1.,0.,0.));
#1229=DIRECTION('center_axis',(0.,1.,0.));
#1230=DIRECTION('ref_axis',(-1.,0.,0.));
#1231=DIRECTION('center_axis',(0.,1.,0.));
#1232=DIRECTION('ref_axis',(-1.,0.,0.));
#1233=DIRECTION('center_axis',(-5.26422409407486E-16,1.,0.));
#1234=DIRECTION('ref_axis',(-1.,0.,0.));
#1235=DIRECTION('',(0.,1.,0.));
#1236=DIRECTION('center_axis',(0.,1.,0.));
#1237=DIRECTION('ref_axis',(-1.,0.,0.));
#1238=DIRECTION('center_axis',(0.,1.,0.));
#1239=DIRECTION('ref_axis',(-1.,0.,0.));
#1240=DIRECTION('center_axis',(0.,0.,-1.));
#1241=DIRECTION('ref_axis',(1.,0.,0.));
#1242=DIRECTION('center_axis',(0.,0.,1.));
#1243=DIRECTION('ref_axis',(1.,0.,0.));
#1244=DIRECTION('center_axis',(0.,0.,1.));
#1245=DIRECTION('ref_axis',(0.499999999999999,-0.866025403784439,0.));
#1246=DIRECTION('center_axis',(0.,0.,1.));
#1247=DIRECTION('ref_axis',(1.,0.,0.));
#1248=DIRECTION('center_axis',(-3.07674029821369E-16,1.,0.));
#1249=DIRECTION('ref_axis',(1.,3.07674029821369E-16,0.));
#1250=DIRECTION('',(1.,3.07674029821369E-16,0.));
#1251=DIRECTION('center_axis',(0.,0.,-1.));
#1252=DIRECTION('ref_axis',(1.,0.,0.));
#1253=DIRECTION('center_axis',(0.,0.,1.));
#1254=DIRECTION('ref_axis',(1.,0.,0.));
#1255=DIRECTION('center_axis',(0.,0.,1.));
#1256=DIRECTION('ref_axis',(-0.500000000000001,-0.866025403784438,0.));
#1257=DIRECTION('center_axis',(0.,0.,1.));
#1258=DIRECTION('ref_axis',(1.,0.,0.));
#1259=DIRECTION('center_axis',(0.,0.,1.));
#1260=DIRECTION('ref_axis',(1.,0.,0.));
#1261=DIRECTION('center_axis',(0.,0.,1.));
#1262=DIRECTION('ref_axis',(1.,0.,0.));
#1263=DIRECTION('',(0.,0.,1.));
#1264=DIRECTION('center_axis',(0.,0.,1.));
#1265=DIRECTION('ref_axis',(1.,0.,0.));
#1266=DIRECTION('center_axis',(0.,0.,-1.));
#1267=DIRECTION('ref_axis',(1.,0.,0.));
#1268=DIRECTION('center_axis',(0.,0.,1.));
#1269=DIRECTION('ref_axis',(1.,0.,0.));
#1270=DIRECTION('center_axis',(0.,0.,1.));
#1271=DIRECTION('ref_axis',(1.,0.,0.));
#1272=DIRECTION('',(0.,0.,1.));
#1273=DIRECTION('center_axis',(0.,0.,1.));
#1274=DIRECTION('ref_axis',(1.,0.,0.));
#1275=DIRECTION('center_axis',(0.,0.,-1.));
#1276=DIRECTION('ref_axis',(1.,0.,0.));
#1277=DIRECTION('center_axis',(0.,0.,1.));
#1278=DIRECTION('ref_axis',(1.,0.,0.));
#1279=DIRECTION('center_axis',(0.,0.,1.));
#1280=DIRECTION('ref_axis',(1.,0.,0.));
#1281=DIRECTION('',(0.,0.,1.));
#1282=DIRECTION('center_axis',(0.,0.,1.));
#1283=DIRECTION('ref_axis',(1.,0.,0.));
#1284=DIRECTION('center_axis',(0.,0.,-1.));
#1285=DIRECTION('ref_axis',(1.,0.,0.));
#1286=DIRECTION('center_axis',(0.,0.,1.));
#1287=DIRECTION('ref_axis',(1.,0.,0.));
#1288=DIRECTION('',(0.,0.,-1.));
#1289=DIRECTION('center_axis',(0.,0.,1.));
#1290=DIRECTION('ref_axis',(1.,0.,0.));
#1291=DIRECTION('',(0.,0.,1.));
#1292=DIRECTION('center_axis',(0.,0.,1.));
#1293=DIRECTION('ref_axis',(1.,0.,0.));
#1294=DIRECTION('center_axis',(0.,0.,-1.));
#1295=DIRECTION('ref_axis',(1.,0.,0.));
#1296=DIRECTION('',(1.,5.26422409407486E-16,0.));
#1297=DIRECTION('center_axis',(0.,0.,1.));
#1298=DIRECTION('ref_axis',(1.,0.,0.));
#1299=DIRECTION('center_axis',(0.,0.,1.));
#1300=DIRECTION('ref_axis',(1.,0.,0.));
#1301=DIRECTION('',(0.,0.,1.));
#1302=DIRECTION('center_axis',(0.,0.,1.));
#1303=DIRECTION('ref_axis',(1.,0.,0.));
#1304=DIRECTION('center_axis',(0.,0.,-1.));
#1305=DIRECTION('ref_axis',(1.,0.,0.));
#1306=DIRECTION('center_axis',(0.,0.,1.));
#1307=DIRECTION('ref_axis',(1.,0.,0.));
#1308=DIRECTION('',(0.,0.,-1.));
#1309=DIRECTION('center_axis',(0.,0.,1.));
#1310=DIRECTION('ref_axis',(1.,0.,0.));
#1311=DIRECTION('',(0.,0.,1.));
#1312=DIRECTION('center_axis',(0.,0.,1.));
#1313=DIRECTION('ref_axis',(1.,0.,0.));
#1314=DIRECTION('center_axis',(0.,0.,-1.));
#1315=DIRECTION('ref_axis',(1.,0.,0.));
#1316=DIRECTION('',(1.,5.26422409407486E-16,0.));
#1317=DIRECTION('center_axis',(0.,0.,1.));
#1318=DIRECTION('ref_axis',(1.,0.,0.));
#1319=DIRECTION('center_axis',(0.,0.,1.));
#1320=DIRECTION('ref_axis',(1.,0.,0.));
#1321=DIRECTION('',(0.,0.,1.));
#1322=DIRECTION('center_axis',(0.,0.,1.));
#1323=DIRECTION('ref_axis',(1.,0.,0.));
#1324=DIRECTION('center_axis',(0.,0.,-1.));
#1325=DIRECTION('ref_axis',(1.,0.,0.));
#1326=DIRECTION('center_axis',(0.,0.,-1.));
#1327=DIRECTION('ref_axis',(-1.,0.,0.));
#1328=DIRECTION('',(0.5,-0.866025403784439,0.));
#1329=DIRECTION('',(-1.,-5.26422409407486E-16,0.));
#1330=DIRECTION('',(-1.,-5.26422409407486E-16,0.));
#1331=DIRECTION('',(-0.5,0.866025403784439,0.));
#1332=DIRECTION('',(-1.,-3.07674029821369E-16,0.));
#1333=DIRECTION('',(-0.5,-0.866025403784439,0.));
#1334=DIRECTION('',(-1.,-5.26422409407486E-16,0.));
#1335=DIRECTION('',(-1.,-5.26422409407486E-16,0.));
#1336=DIRECTION('',(0.5,0.866025403784439,0.));
#1337=DIRECTION('center_axis',(0.,1.,0.));
#1338=DIRECTION('ref_axis',(-1.,0.,0.));
#1339=DIRECTION('center_axis',(-5.26422409407486E-16,1.,0.));
#1340=DIRECTION('ref_axis',(-1.,0.,0.));
#1341=DIRECTION('',(0.,1.,0.));
#1342=DIRECTION('center_axis',(0.,1.,0.));
#1343=DIRECTION('ref_axis',(-1.,0.,0.));
#1344=DIRECTION('center_axis',(0.,1.,0.));
#1345=DIRECTION('ref_axis',(-1.,0.,0.));
#1346=DIRECTION('center_axis',(0.,1.,0.));
#1347=DIRECTION('ref_axis',(-1.,0.,0.));
#1348=DIRECTION('center_axis',(0.,1.,0.));
#1349=DIRECTION('ref_axis',(-1.,0.,0.));
#1350=DIRECTION('center_axis',(-5.26422409407486E-16,1.,0.));
#1351=DIRECTION('ref_axis',(-1.,0.,0.));
#1352=DIRECTION('',(0.,1.,0.));
#1353=DIRECTION('center_axis',(0.,1.,0.));
#1354=DIRECTION('ref_axis',(-1.,0.,0.));
#1355=DIRECTION('center_axis',(0.,1.,0.));
#1356=DIRECTION('ref_axis',(-1.,0.,0.));
#1357=DIRECTION('center_axis',(0.,1.,0.));
#1358=DIRECTION('ref_axis',(-1.,0.,0.));
#1359=DIRECTION('center_axis',(-5.26422409407486E-16,1.,0.));
#1360=DIRECTION('ref_axis',(-1.,0.,0.));
#1361=DIRECTION('',(0.,1.,0.));
#1362=DIRECTION('center_axis',(0.,1.,0.));
#1363=DIRECTION('ref_axis',(-1.,0.,0.));
#1364=DIRECTION('center_axis',(0.,1.,0.));
#1365=DIRECTION('ref_axis',(-1.,0.,0.));
#1366=DIRECTION('center_axis',(0.,1.,0.));
#1367=DIRECTION('ref_axis',(-1.,0.,0.));
#1368=DIRECTION('center_axis',(-5.26422409407486E-16,1.,0.));
#1369=DIRECTION('ref_axis',(-1.,0.,0.));
#1370=DIRECTION('',(0.,1.,0.));
#1371=DIRECTION('center_axis',(0.,1.,0.));
#1372=DIRECTION('ref_axis',(-1.,0.,0.));
#1373=DIRECTION('center_axis',(0.,1.,0.));
#1374=DIRECTION('ref_axis',(-1.,0.,0.));
#1375=DIRECTION('center_axis',(0.,1.,0.));
#1376=DIRECTION('ref_axis',(-1.,0.,0.));
#1377=DIRECTION('center_axis',(-5.26422409407486E-16,1.,0.));
#1378=DIRECTION('ref_axis',(-1.,0.,0.));
#1379=DIRECTION('',(0.,1.,0.));
#1380=DIRECTION('center_axis',(0.,1.,0.));
#1381=DIRECTION('ref_axis',(-1.,0.,0.));
#1382=DIRECTION('center_axis',(0.,1.,0.));
#1383=DIRECTION('ref_axis',(-1.,0.,0.));
#1384=DIRECTION('center_axis',(0.,1.,0.));
#1385=DIRECTION('ref_axis',(-1.,0.,0.));
#1386=DIRECTION('center_axis',(-5.26422409407486E-16,1.,0.));
#1387=DIRECTION('ref_axis',(-1.,0.,0.));
#1388=DIRECTION('',(0.,1.,0.));
#1389=DIRECTION('center_axis',(0.,1.,0.));
#1390=DIRECTION('ref_axis',(-1.,0.,0.));
#1391=DIRECTION('center_axis',(0.,1.,0.));
#1392=DIRECTION('ref_axis',(-1.,0.,0.));
#1393=DIRECTION('center_axis',(0.,1.,0.));
#1394=DIRECTION('ref_axis',(-1.,0.,0.));
#1395=DIRECTION('center_axis',(-5.26422409407486E-16,1.,0.));
#1396=DIRECTION('ref_axis',(-1.,0.,0.));
#1397=DIRECTION('',(0.,1.,0.));
#1398=DIRECTION('center_axis',(0.,1.,0.));
#1399=DIRECTION('ref_axis',(-1.,0.,0.));
#1400=DIRECTION('center_axis',(0.,1.,0.));
#1401=DIRECTION('ref_axis',(-1.,0.,0.));
#1402=DIRECTION('center_axis',(0.,1.,0.));
#1403=DIRECTION('ref_axis',(-1.,0.,0.));
#1404=DIRECTION('center_axis',(-5.26422409407486E-16,1.,0.));
#1405=DIRECTION('ref_axis',(-1.,0.,0.));
#1406=DIRECTION('',(0.,1.,0.));
#1407=DIRECTION('center_axis',(0.,1.,0.));
#1408=DIRECTION('ref_axis',(-1.,0.,0.));
#1409=DIRECTION('center_axis',(0.,1.,0.));
#1410=DIRECTION('ref_axis',(-1.,0.,0.));
#1411=DIRECTION('center_axis',(0.,1.,0.));
#1412=DIRECTION('ref_axis',(-1.,0.,0.));
#1413=DIRECTION('center_axis',(-5.26422409407486E-16,1.,0.));
#1414=DIRECTION('ref_axis',(-1.,0.,0.));
#1415=DIRECTION('',(0.,1.,0.));
#1416=DIRECTION('center_axis',(0.,1.,0.));
#1417=DIRECTION('ref_axis',(-1.,0.,0.));
#1418=DIRECTION('center_axis',(0.,1.,0.));
#1419=DIRECTION('ref_axis',(-1.,0.,0.));
#1420=DIRECTION('center_axis',(0.,1.,0.));
#1421=DIRECTION('ref_axis',(-1.,0.,0.));
#1422=DIRECTION('center_axis',(-5.26422409407486E-16,1.,0.));
#1423=DIRECTION('ref_axis',(-1.,0.,0.));
#1424=DIRECTION('',(0.,1.,0.));
#1425=DIRECTION('center_axis',(0.,1.,0.));
#1426=DIRECTION('ref_axis',(-1.,0.,0.));
#1427=DIRECTION('center_axis',(0.,1.,0.));
#1428=DIRECTION('ref_axis',(-1.,0.,0.));
#1429=DIRECTION('center_axis',(0.,1.,0.));
#1430=DIRECTION('ref_axis',(-1.,0.,0.));
#1431=DIRECTION('center_axis',(0.,1.,0.));
#1432=DIRECTION('ref_axis',(-1.,0.,0.));
#1433=DIRECTION('center_axis',(-5.26422409407486E-16,1.,0.));
#1434=DIRECTION('ref_axis',(-1.,0.,0.));
#1435=DIRECTION('',(0.,1.,0.));
#1436=DIRECTION('center_axis',(0.,1.,0.));
#1437=DIRECTION('ref_axis',(-1.,0.,0.));
#1438=DIRECTION('center_axis',(0.,1.,0.));
#1439=DIRECTION('ref_axis',(-1.,0.,0.));
#1440=DIRECTION('center_axis',(0.,1.,0.));
#1441=DIRECTION('ref_axis',(-1.,0.,0.));
#1442=DIRECTION('center_axis',(-5.26422409407486E-16,1.,0.));
#1443=DIRECTION('ref_axis',(-1.,0.,0.));
#1444=DIRECTION('',(0.,1.,0.));
#1445=DIRECTION('center_axis',(0.,1.,0.));
#1446=DIRECTION('ref_axis',(-1.,0.,0.));
#1447=DIRECTION('center_axis',(0.,1.,0.));
#1448=DIRECTION('ref_axis',(-1.,0.,0.));
#1449=DIRECTION('center_axis',(0.,0.,-1.));
#1450=DIRECTION('ref_axis',(-1.,0.,0.));
#1451=DIRECTION('center_axis',(0.,0.,-1.));
#1452=DIRECTION('ref_axis',(-1.,0.,0.));
#1453=DIRECTION('',(0.,0.,-1.));
#1454=DIRECTION('center_axis',(0.,0.,-1.));
#1455=DIRECTION('ref_axis',(-1.,0.,0.));
#1456=DIRECTION('center_axis',(0.,0.,1.));
#1457=DIRECTION('ref_axis',(-1.,0.,0.));
#1458=DIRECTION('center_axis',(0.,0.,-1.));
#1459=DIRECTION('ref_axis',(-1.,0.,0.));
#1460=DIRECTION('center_axis',(0.,0.,-1.));
#1461=DIRECTION('ref_axis',(-1.,0.,0.));
#1462=DIRECTION('',(0.,0.,-1.));
#1463=DIRECTION('center_axis',(0.,0.,-1.));
#1464=DIRECTION('ref_axis',(-1.,0.,0.));
#1465=DIRECTION('center_axis',(0.,0.,1.));
#1466=DIRECTION('ref_axis',(-1.,0.,0.));
#1467=DIRECTION('center_axis',(-5.26422409407486E-16,1.,0.));
#1468=DIRECTION('ref_axis',(0.,0.,1.));
#1469=DIRECTION('',(0.,0.,-1.));
#1470=DIRECTION('',(0.,0.,1.));
#1471=DIRECTION('',(-1.,-5.26422409407486E-16,0.));
#1472=DIRECTION('',(0.,0.,1.));
#1473=DIRECTION('',(0.,0.,-1.));
#1474=DIRECTION('',(1.,5.26422409407486E-16,0.));
#1475=DIRECTION('center_axis',(0.,0.,-1.));
#1476=DIRECTION('ref_axis',(1.,0.,0.));
#1477=DIRECTION('center_axis',(-0.866025403784439,0.5,0.));
#1478=DIRECTION('ref_axis',(0.5,0.866025403784439,0.));
#1479=DIRECTION('',(-0.5,-0.866025403784439,0.));
#1480=DIRECTION('',(0.,0.,-1.));
#1481=DIRECTION('center_axis',(0.866025403784439,0.5,0.));
#1482=DIRECTION('ref_axis',(0.5,-0.866025403784439,0.));
#1483=DIRECTION('',(-0.5,0.866025403784439,0.));
#1484=DIRECTION('',(0.,0.,1.));
#1485=DIRECTION('center_axis',(-3.07674029821369E-16,1.,0.));
#1486=DIRECTION('ref_axis',(1.,3.07674029821369E-16,0.));
#1487=DIRECTION('',(-1.,-3.07674029821369E-16,0.));
#1488=DIRECTION('center_axis',(0.,0.,-1.));
#1489=DIRECTION('ref_axis',(1.,0.,0.));
#1490=DIRECTION('center_axis',(-0.866025403784439,0.5,0.));
#1491=DIRECTION('ref_axis',(0.5,0.866025403784439,0.));
#1492=DIRECTION('center_axis',(0.866025403784439,0.5,0.));
#1493=DIRECTION('ref_axis',(0.5,-0.866025403784439,0.));
#1494=DIRECTION('',(0.,0.,1.));
#1495=DIRECTION('',(1.,0.,0.));
#1496=DIRECTION('',(0.,0.,1.));
#1497=DIRECTION('',(1.,0.,0.));
#1498=CARTESIAN_POINT('',(0.,0.,0.));
#1499=CARTESIAN_POINT('',(0.,0.,0.));
#1500=CARTESIAN_POINT('',(0.,0.,0.));
#1501=CARTESIAN_POINT('Origin',(-58.8734546012513,32.0000000000001,-45.));
#1502=CARTESIAN_POINT('',(-60.1414037936824,35.0000000000001,-48.));
#1503=CARTESIAN_POINT('',(-55.6414037936824,32.4019237886468,-48.));
#1504=CARTESIAN_POINT('',(-60.1414037936824,35.0000000000001,-48.));
#1505=CARTESIAN_POINT('',(-58.8734546012513,32.0000000000001,-45.));
#1506=CARTESIAN_POINT('',(-58.8734546012513,32.0000000000001,-45.));
#1507=CARTESIAN_POINT('',(-55.6414037936824,32.4019237886468,-48.));
#1508=CARTESIAN_POINT('Origin',(-111.876430712645,35.0000000000001,-48.));
#1509=CARTESIAN_POINT('',(-113.144379905076,32.0000000000001,-45.));
#1510=CARTESIAN_POINT('',(-116.376430712645,32.4019237886468,-48.));
#1511=CARTESIAN_POINT('',(-113.144379905076,32.0000000000001,-45.));
#1512=CARTESIAN_POINT('',(-111.876430712645,35.0000000000001,-48.));
#1513=CARTESIAN_POINT('',(-111.876430712645,35.0000000000001,-48.));
#1514=CARTESIAN_POINT('',(-116.376430712645,32.4019237886468,-48.));
#1515=CARTESIAN_POINT('Origin',(-100.442673982904,33.5000000000001,-46.5));
#1516=CARTESIAN_POINT('',(-100.442673982904,35.0000000000001,-48.));
#1517=CARTESIAN_POINT('',(-100.442673982904,32.0000000000001,-45.));
#1518=CARTESIAN_POINT('Origin',(-114.126430712645,33.7009618943234,-45.));
#1519=CARTESIAN_POINT('',(-115.420485447729,32.9538390446767,-215.));
#1520=CARTESIAN_POINT('',(-116.376430712645,32.4019237886468,-215.));
#1521=CARTESIAN_POINT('',(-114.126430712645,33.7009618943234,-215.));
#1522=CARTESIAN_POINT('',(-116.376430712645,32.4019237886468,-45.));
#1523=CARTESIAN_POINT('',(-111.876430712645,35.0000000000001,-215.));
#1524=CARTESIAN_POINT('',(-111.876430712645,35.0000000000001,-45.));
#1525=CARTESIAN_POINT('',(-113.065558852541,34.3134565483301,-215.));
#1526=CARTESIAN_POINT('',(-114.126430712645,33.7009618943234,-215.));
#1527=CARTESIAN_POINT('',(-113.065558852541,34.3134565483301,-212.9));
#1528=CARTESIAN_POINT('',(-113.065558852541,34.3134565483301,-215.));
#1529=CARTESIAN_POINT('',(-115.420485447729,32.9538390446767,-212.9));
#1530=CARTESIAN_POINT('',(-114.18472643139,33.6673048454134,-212.9));
#1531=CARTESIAN_POINT('',(-115.420485447729,32.9538390446767,-215.));
#1532=CARTESIAN_POINT('Origin',(-135.228027701579,-3.24999999999998,-46.5));
#1533=CARTESIAN_POINT('',(-143.743944172126,-15.,-48.));
#1534=CARTESIAN_POINT('',(-140.279842556989,-15.,-45.));
#1535=CARTESIAN_POINT('',(-144.733687490737,-15.,-48.8571428571428));
#1536=CARTESIAN_POINT('',(-133.928989595903,-3.99999999999999,-45.));
#1537=CARTESIAN_POINT('',(-136.527065807256,-2.49999999999998,-48.));
#1538=CARTESIAN_POINT('',(-139.706014520234,-12.8999999999999,-45.5530503427668));
#1539=CARTESIAN_POINT('',(-142.084338768421,-12.8999999999999,-47.612739560133));
#1540=CARTESIAN_POINT('Origin',(-139.581325132073,-7.59013233007465,-48.1));
#1541=CARTESIAN_POINT('',(-139.255480051028,-12.8999999999999,-45.1628760471535));
#1542=CARTESIAN_POINT('Origin',(-51.2235635344888,21.7500000000001,-46.5));
#1543=CARTESIAN_POINT('',(-31.7379919493389,-14.9999999999999,-45.));
#1544=CARTESIAN_POINT('',(-28.2738903342011,-15.,-48.));
#1545=CARTESIAN_POINT('',(-31.4080775098019,-14.9999999999999,-45.2857142857143));
#1546=CARTESIAN_POINT('',(-49.9245254288121,22.5000000000001,-48.));
#1547=CARTESIAN_POINT('',(-52.5226016401654,21.0000000000001,-45.));
#1548=CARTESIAN_POINT('',(-29.9334957379067,-12.8999999999999,-47.6127395601331));
#1549=CARTESIAN_POINT('',(-32.3118199860934,-12.8999999999999,-45.5530503427668));
#1550=CARTESIAN_POINT('Origin',(-32.436509374254,-7.59013233007479,-48.1));
#1551=CARTESIAN_POINT('',(-36.8862849495114,-12.8999999999999,-41.591447475725));
#1552=CARTESIAN_POINT('Origin',(-57.8914037936824,33.7009618943234,-45.));
#1553=CARTESIAN_POINT('',(-58.9522756537862,34.3134565483301,-215.));
#1554=CARTESIAN_POINT('',(-60.1414037936824,35.0000000000001,-215.));
#1555=CARTESIAN_POINT('',(-57.8914037936824,33.7009618943234,-215.));
#1556=CARTESIAN_POINT('',(-60.1414037936824,35.0000000000001,-45.));
#1557=CARTESIAN_POINT('',(-55.6414037936824,32.4019237886468,-215.));
#1558=CARTESIAN_POINT('',(-55.6414037936824,32.4019237886468,-45.));
#1559=CARTESIAN_POINT('',(-56.5973490585982,32.9538390446765,-215.));
#1560=CARTESIAN_POINT('',(-57.8914037936824,33.7009618943234,-215.));
#1561=CARTESIAN_POINT('',(-56.5973490585982,32.9538390446765,-212.9));
#1562=CARTESIAN_POINT('',(-56.5973490585982,32.9538390446765,-215.));
#1563=CARTESIAN_POINT('',(-58.9522756537862,34.3134565483301,-212.9));
#1564=CARTESIAN_POINT('',(-57.8331080749373,33.6673048454133,-212.9));
#1565=CARTESIAN_POINT('',(-58.9522756537862,34.3134565483301,-215.));
#1566=CARTESIAN_POINT('Origin',(-139.581325132073,-14.9999999999999,-48.1));
#1567=CARTESIAN_POINT('',(-137.031325132073,-14.9999999999999,-48.1));
#1568=CARTESIAN_POINT('Origin',(-139.581325132073,-15.,-48.1));
#1569=CARTESIAN_POINT('',(-137.031325132073,-12.8999999999999,-48.1));
#1570=CARTESIAN_POINT('',(-137.031325132073,-14.9999999999999,-48.1));
#1571=CARTESIAN_POINT('Origin',(-139.581325132073,-12.8999999999999,-48.1));
#1572=CARTESIAN_POINT('Origin',(-139.581325132073,-12.8999999999999,-48.1));
#1573=CARTESIAN_POINT('Origin',(-32.436509374254,-14.9999999999999,-48.1));
#1574=CARTESIAN_POINT('',(-29.886509374254,-14.9999999999999,-48.1));
#1575=CARTESIAN_POINT('Origin',(-32.436509374254,-15.,-48.1));
#1576=CARTESIAN_POINT('',(-29.886509374254,-12.8999999999999,-48.1));
#1577=CARTESIAN_POINT('',(-29.886509374254,-14.9999999999999,-48.1));
#1578=CARTESIAN_POINT('Origin',(-32.436509374254,-12.8999999999999,-48.1));
#1579=CARTESIAN_POINT('Origin',(-32.436509374254,-12.8999999999999,-48.1));
#1580=CARTESIAN_POINT('Origin',(-113.164372503151,31.76537180436,-212.9));
#1581=CARTESIAN_POINT('Origin',(-113.164372503151,31.76537180436,-212.9));
#1582=CARTESIAN_POINT('Origin',(-113.164372503151,31.76537180436,-215.));
#1583=CARTESIAN_POINT('Origin',(-113.164372503151,31.76537180436,-215.));
#1584=CARTESIAN_POINT('Origin',(-114.876430712645,35.0000000000001,-45.));
#1585=CARTESIAN_POINT('',(-114.876430712645,35.0000000000001,-215.));
#1586=CARTESIAN_POINT('Origin',(-58.8534620031767,31.7653718043599,-212.9));
#1587=CARTESIAN_POINT('Origin',(-58.8534620031767,31.7653718043599,-212.9));
#1588=CARTESIAN_POINT('Origin',(-58.8534620031767,31.7653718043599,-215.));
#1589=CARTESIAN_POINT('Origin',(-58.8534620031767,31.7653718043599,-215.));
#1590=CARTESIAN_POINT('Origin',(-131.164372503151,0.588457268120223,-215.));
#1591=CARTESIAN_POINT('',(-133.714372503151,0.588457268120223,-215.));
#1592=CARTESIAN_POINT('Origin',(-131.164372503151,0.588457268120223,-215.));
#1593=CARTESIAN_POINT('',(-133.714372503151,0.588457268120223,-212.9));
#1594=CARTESIAN_POINT('',(-133.714372503151,0.588457268120222,-215.));
#1595=CARTESIAN_POINT('Origin',(-131.164372503151,0.588457268120223,-212.9));
#1596=CARTESIAN_POINT('Origin',(-131.164372503151,0.588457268120223,-212.9));
#1597=CARTESIAN_POINT('Origin',(-122.164372503151,16.1769145362401,-215.));
#1598=CARTESIAN_POINT('',(-124.714372503151,16.1769145362401,-215.));
#1599=CARTESIAN_POINT('Origin',(-122.164372503151,16.1769145362401,-215.));
#1600=CARTESIAN_POINT('',(-124.714372503151,16.1769145362401,-212.9));
#1601=CARTESIAN_POINT('',(-124.714372503151,16.1769145362401,-215.));
#1602=CARTESIAN_POINT('Origin',(-122.164372503151,16.1769145362401,-212.9));
#1603=CARTESIAN_POINT('Origin',(-122.164372503151,16.1769145362401,-212.9));
#1604=CARTESIAN_POINT('Origin',(-49.8534620031766,16.1769145362401,-215.));
#1605=CARTESIAN_POINT('',(-52.4034620031766,16.1769145362401,-215.));
#1606=CARTESIAN_POINT('Origin',(-49.8534620031766,16.1769145362401,-215.));
#1607=CARTESIAN_POINT('',(-52.4034620031766,16.1769145362401,-212.9));
#1608=CARTESIAN_POINT('',(-52.4034620031766,16.1769145362401,-215.));
#1609=CARTESIAN_POINT('Origin',(-49.8534620031766,16.1769145362401,-212.9));
#1610=CARTESIAN_POINT('Origin',(-49.8534620031766,16.1769145362401,-212.9));
#1611=CARTESIAN_POINT('Origin',(-31.8534620031765,-15.0000000000003,-215.));
#1612=CARTESIAN_POINT('',(-29.3034620031765,-14.9999999999999,-212.9));
#1613=CARTESIAN_POINT('',(-29.3034620031765,-14.9999999999999,-215.));
#1614=CARTESIAN_POINT('',(-29.3034620031765,-14.9999999999999,-215.));
#1615=CARTESIAN_POINT('',(-34.4034620031765,-15.0000000000003,-212.9));
#1616=CARTESIAN_POINT('Origin',(-31.8534620031765,-15.0000000000003,-212.9));
#1617=CARTESIAN_POINT('',(-34.4034620031765,-15.0000000000003,-215.));
#1618=CARTESIAN_POINT('',(-34.4034620031765,-15.,-215.));
#1619=CARTESIAN_POINT('Origin',(-31.8534620031765,-15.0000000000003,-215.));
#1620=CARTESIAN_POINT('Origin',(-31.8534620031765,-15.0000000000003,-212.9));
#1621=CARTESIAN_POINT('',(-58.9311896281701,-15.,-212.9));
#1622=CARTESIAN_POINT('Origin',(-86.0089172531637,31.9000000000003,-215.));
#1623=CARTESIAN_POINT('',(-88.5589172531637,31.9000000000003,-215.));
#1624=CARTESIAN_POINT('Origin',(-86.0089172531637,31.9000000000003,-215.));
#1625=CARTESIAN_POINT('',(-88.5589172531637,31.9000000000003,-212.9));
#1626=CARTESIAN_POINT('',(-88.5589172531637,31.9000000000003,-215.));
#1627=CARTESIAN_POINT('Origin',(-86.0089172531637,31.9000000000003,-212.9));
#1628=CARTESIAN_POINT('Origin',(-86.0089172531637,31.9000000000003,-212.9));
#1629=CARTESIAN_POINT('Origin',(-140.164372503151,-15.,-215.));
#1630=CARTESIAN_POINT('',(-137.614372503151,-15.,-212.9));
#1631=CARTESIAN_POINT('',(-137.614372503151,-15.,-215.));
#1632=CARTESIAN_POINT('',(-137.614372503151,-15.,-215.));
#1633=CARTESIAN_POINT('',(-142.714372503151,-15.,-212.9));
#1634=CARTESIAN_POINT('Origin',(-140.164372503151,-15.,-212.9));
#1635=CARTESIAN_POINT('',(-142.714372503151,-15.,-215.));
#1636=CARTESIAN_POINT('',(-142.714372503151,-15.,-215.));
#1637=CARTESIAN_POINT('Origin',(-140.164372503151,-15.,-215.));
#1638=CARTESIAN_POINT('Origin',(-140.164372503151,-15.,-212.9));
#1639=CARTESIAN_POINT('',(-113.086644878157,-15.,-212.9));
#1640=CARTESIAN_POINT('Origin',(-40.8534620031766,0.588457268120205,-215.));
#1641=CARTESIAN_POINT('',(-43.4034620031766,0.588457268120205,-215.));
#1642=CARTESIAN_POINT('Origin',(-40.8534620031766,0.588457268120205,-215.));
#1643=CARTESIAN_POINT('',(-43.4034620031766,0.588457268120205,-212.9));
#1644=CARTESIAN_POINT('',(-43.4034620031766,0.588457268120205,-215.));
#1645=CARTESIAN_POINT('Origin',(-40.8534620031766,0.588457268120205,-212.9));
#1646=CARTESIAN_POINT('Origin',(-40.8534620031766,0.588457268120205,-212.9));
#1647=CARTESIAN_POINT('Origin',(-86.0089172531638,-15.,-215.));
#1648=CARTESIAN_POINT('',(-28.2738903342011,-15.,-215.));
#1649=CARTESIAN_POINT('',(-57.1414037936824,35.0000000000001,-215.));
#1650=CARTESIAN_POINT('',(-86.0089172531638,-15.,-215.));
#1651=CARTESIAN_POINT('',(-35.4330336721524,-15.,-215.));
#1652=CARTESIAN_POINT('',(-86.0089172531638,-15.,-215.));
#1653=CARTESIAN_POINT('',(-60.7209754626581,28.8000000000001,-215.));
#1654=CARTESIAN_POINT('',(-55.2938829322756,19.4000000000001,-215.));
#1655=CARTESIAN_POINT('',(-111.296859043669,28.8000000000001,-215.));
#1656=CARTESIAN_POINT('',(-100.442673982904,28.8000000000001,-215.));
#1657=CARTESIAN_POINT('',(-136.584800834175,-15.,-215.));
#1658=CARTESIAN_POINT('',(-131.157708303793,-5.59999999999998,-215.));
#1659=CARTESIAN_POINT('',(-86.0089172531638,-15.,-215.));
#1660=CARTESIAN_POINT('',(-143.743944172126,-15.,-215.));
#1661=CARTESIAN_POINT('',(-86.0089172531638,-15.,-215.));
#1662=CARTESIAN_POINT('',(-143.743944172126,-15.,-215.));
#1663=CARTESIAN_POINT('Origin',(-32.436509374254,-14.9999999999999,-161.433333333333));
#1664=CARTESIAN_POINT('',(-29.886509374254,-14.9999999999999,-161.433333333333));
#1665=CARTESIAN_POINT('Origin',(-32.436509374254,-15.,-161.433333333333));
#1666=CARTESIAN_POINT('',(-29.886509374254,-12.8999999999999,-161.433333333333));
#1667=CARTESIAN_POINT('',(-29.886509374254,-14.9999999999999,-161.433333333333));
#1668=CARTESIAN_POINT('Origin',(-32.436509374254,-12.8999999999999,-161.433333333333));
#1669=CARTESIAN_POINT('Origin',(-32.436509374254,-12.8999999999999,-161.433333333333));
#1670=CARTESIAN_POINT('Origin',(-32.436509374254,-12.8999999999999,-48.1));
#1671=CARTESIAN_POINT('Origin',(-139.581325132073,-14.9999999999999,-104.766666666667));
#1672=CARTESIAN_POINT('',(-137.031325132073,-14.9999999999999,-104.766666666667));
#1673=CARTESIAN_POINT('Origin',(-139.581325132073,-15.,-104.766666666667));
#1674=CARTESIAN_POINT('',(-137.031325132073,-12.8999999999999,-104.766666666667));
#1675=CARTESIAN_POINT('',(-137.031325132073,-14.9999999999999,-104.766666666667));
#1676=CARTESIAN_POINT('Origin',(-139.581325132073,-12.8999999999999,-104.766666666667));
#1677=CARTESIAN_POINT('Origin',(-139.581325132073,-12.8999999999999,-104.766666666667));
#1678=CARTESIAN_POINT('Origin',(-139.581325132073,-14.9999999999999,-189.766666666667));
#1679=CARTESIAN_POINT('',(-137.031325132073,-14.9999999999999,-189.766666666667));
#1680=CARTESIAN_POINT('Origin',(-139.581325132073,-15.,-189.766666666667));
#1681=CARTESIAN_POINT('',(-137.031325132073,-12.8999999999999,-189.766666666667));
#1682=CARTESIAN_POINT('',(-137.031325132073,-14.9999999999999,-189.766666666667));
#1683=CARTESIAN_POINT('Origin',(-139.581325132073,-12.8999999999999,-189.766666666667));
#1684=CARTESIAN_POINT('Origin',(-139.581325132073,-12.8999999999999,-189.766666666667));
#1685=CARTESIAN_POINT('Origin',(-139.581325132073,-14.9999999999999,-76.4333333333333));
#1686=CARTESIAN_POINT('',(-137.031325132073,-14.9999999999999,-76.4333333333333));
#1687=CARTESIAN_POINT('Origin',(-139.581325132073,-15.,-76.4333333333333));
#1688=CARTESIAN_POINT('',(-137.031325132073,-12.8999999999999,-76.4333333333333));
#1689=CARTESIAN_POINT('',(-137.031325132073,-14.9999999999999,-76.4333333333333));
#1690=CARTESIAN_POINT('Origin',(-139.581325132073,-12.8999999999999,-76.4333333333333));
#1691=CARTESIAN_POINT('Origin',(-139.581325132073,-12.8999999999999,-76.4333333333333));
#1692=CARTESIAN_POINT('Origin',(-32.436509374254,-14.9999999999999,-76.4333333333333));
#1693=CARTESIAN_POINT('',(-29.886509374254,-14.9999999999999,-76.4333333333333));
#1694=CARTESIAN_POINT('Origin',(-32.436509374254,-15.,-76.4333333333333));
#1695=CARTESIAN_POINT('',(-29.886509374254,-12.8999999999999,-76.4333333333333));
#1696=CARTESIAN_POINT('',(-29.886509374254,-14.9999999999999,-76.4333333333333));
#1697=CARTESIAN_POINT('Origin',(-32.436509374254,-12.8999999999999,-76.4333333333333));
#1698=CARTESIAN_POINT('Origin',(-32.436509374254,-12.8999999999999,-76.4333333333333));
#1699=CARTESIAN_POINT('Origin',(-32.436509374254,-14.9999999999999,-189.766666666667));
#1700=CARTESIAN_POINT('',(-29.886509374254,-14.9999999999999,-189.766666666667));
#1701=CARTESIAN_POINT('Origin',(-32.436509374254,-15.,-189.766666666667));
#1702=CARTESIAN_POINT('',(-29.886509374254,-12.8999999999999,-189.766666666667));
#1703=CARTESIAN_POINT('',(-29.886509374254,-14.9999999999999,-189.766666666667));
#1704=CARTESIAN_POINT('Origin',(-32.436509374254,-12.8999999999999,-189.766666666667));
#1705=CARTESIAN_POINT('Origin',(-32.436509374254,-12.8999999999999,-189.766666666667));
#1706=CARTESIAN_POINT('Origin',(-32.436509374254,-14.9999999999999,-133.1));
#1707=CARTESIAN_POINT('',(-29.886509374254,-14.9999999999999,-133.1));
#1708=CARTESIAN_POINT('Origin',(-32.436509374254,-15.,-133.1));
#1709=CARTESIAN_POINT('',(-29.886509374254,-12.8999999999999,-133.1));
#1710=CARTESIAN_POINT('',(-29.886509374254,-14.9999999999999,-133.1));
#1711=CARTESIAN_POINT('Origin',(-32.436509374254,-12.8999999999999,-133.1));
#1712=CARTESIAN_POINT('Origin',(-32.436509374254,-12.8999999999999,-133.1));
#1713=CARTESIAN_POINT('Origin',(-62.436509374254,-14.9999999999999,-48.1));
#1714=CARTESIAN_POINT('',(-59.886509374254,-14.9999999999999,-48.1));
#1715=CARTESIAN_POINT('Origin',(-62.436509374254,-15.,-48.1));
#1716=CARTESIAN_POINT('',(-59.886509374254,-12.8999999999999,-48.1));
#1717=CARTESIAN_POINT('',(-59.886509374254,-14.9999999999999,-48.1));
#1718=CARTESIAN_POINT('Origin',(-62.436509374254,-12.8999999999999,-48.1));
#1719=CARTESIAN_POINT('Origin',(-62.436509374254,-12.8999999999999,-48.1));
#1720=CARTESIAN_POINT('Origin',(-139.581325132073,-14.9999999999999,-133.1));
#1721=CARTESIAN_POINT('',(-137.031325132073,-14.9999999999999,-133.1));
#1722=CARTESIAN_POINT('Origin',(-139.581325132073,-15.,-133.1));
#1723=CARTESIAN_POINT('',(-137.031325132073,-12.8999999999999,-133.1));
#1724=CARTESIAN_POINT('',(-137.031325132073,-14.9999999999999,-133.1));
#1725=CARTESIAN_POINT('Origin',(-139.581325132073,-12.8999999999999,-133.1));
#1726=CARTESIAN_POINT('Origin',(-139.581325132073,-12.8999999999999,-133.1));
#1727=CARTESIAN_POINT('Origin',(-139.581325132073,-14.9999999999999,-161.433333333333));
#1728=CARTESIAN_POINT('',(-137.031325132073,-14.9999999999999,-161.433333333333));
#1729=CARTESIAN_POINT('Origin',(-139.581325132073,-15.,-161.433333333333));
#1730=CARTESIAN_POINT('',(-137.031325132073,-12.8999999999999,-161.433333333333));
#1731=CARTESIAN_POINT('',(-137.031325132073,-14.9999999999999,-161.433333333333));
#1732=CARTESIAN_POINT('Origin',(-139.581325132073,-12.8999999999999,-161.433333333333));
#1733=CARTESIAN_POINT('Origin',(-139.581325132073,-12.8999999999999,-161.433333333333));
#1734=CARTESIAN_POINT('Origin',(-139.581325132073,-12.8999999999999,-48.1));
#1735=CARTESIAN_POINT('Origin',(-32.436509374254,-14.9999999999999,-104.766666666667));
#1736=CARTESIAN_POINT('',(-29.886509374254,-14.9999999999999,-104.766666666667));
#1737=CARTESIAN_POINT('Origin',(-32.436509374254,-15.,-104.766666666667));
#1738=CARTESIAN_POINT('',(-29.886509374254,-12.8999999999999,-104.766666666667));
#1739=CARTESIAN_POINT('',(-29.886509374254,-14.9999999999999,-104.766666666667));
#1740=CARTESIAN_POINT('Origin',(-32.436509374254,-12.8999999999999,-104.766666666667));
#1741=CARTESIAN_POINT('Origin',(-32.436509374254,-12.8999999999999,-104.766666666667));
#1742=CARTESIAN_POINT('Origin',(-109.581325132073,-14.9999999999999,-48.1));
#1743=CARTESIAN_POINT('',(-107.031325132074,-14.9999999999999,-48.1));
#1744=CARTESIAN_POINT('Origin',(-109.581325132073,-15.,-48.1));
#1745=CARTESIAN_POINT('',(-107.031325132074,-12.8999999999999,-48.1));
#1746=CARTESIAN_POINT('',(-107.031325132074,-14.9999999999999,-48.1));
#1747=CARTESIAN_POINT('Origin',(-109.581325132073,-12.8999999999999,-48.1));
#1748=CARTESIAN_POINT('Origin',(-109.581325132073,-12.8999999999999,-48.1));
#1749=CARTESIAN_POINT('Origin',(-107.087602245556,-7.12604247183648,-45.));
#1750=CARTESIAN_POINT('',(-104.537602245556,-7.12604247183648,-45.));
#1751=CARTESIAN_POINT('Origin',(-107.087602245556,-7.12604247183648,-45.));
#1752=CARTESIAN_POINT('',(-104.537602245556,-7.12604247183648,-47.1));
#1753=CARTESIAN_POINT('',(-104.537602245556,-7.12604247183648,-45.));
#1754=CARTESIAN_POINT('Origin',(-107.087602245556,-7.12604247183648,-47.1));
#1755=CARTESIAN_POINT('Origin',(-107.087602245556,-7.12604247183648,-47.1));
#1756=CARTESIAN_POINT('Origin',(-64.930232260772,-7.12604247183648,-45.));
#1757=CARTESIAN_POINT('',(-62.380232260772,-7.12604247183648,-45.));
#1758=CARTESIAN_POINT('Origin',(-64.930232260772,-7.12604247183648,-45.));
#1759=CARTESIAN_POINT('',(-62.380232260772,-7.12604247183648,-47.1));
#1760=CARTESIAN_POINT('',(-62.380232260772,-7.12604247183648,-45.));
#1761=CARTESIAN_POINT('Origin',(-64.930232260772,-7.12604247183648,-47.1));
#1762=CARTESIAN_POINT('Origin',(-64.930232260772,-7.12604247183648,-47.1));
#1763=CARTESIAN_POINT('Origin',(-86.0089172531638,-15.,-130.));
#1764=CARTESIAN_POINT('',(-143.743944172126,-15.,-45.));
#1765=CARTESIAN_POINT('',(-136.584800834175,-15.,-51.2));
#1766=CARTESIAN_POINT('',(-136.584800834175,-15.,-45.));
#1767=CARTESIAN_POINT('',(-35.4330336721524,-15.,-51.2));
#1768=CARTESIAN_POINT('',(-86.0089172531638,-15.,-51.2));
#1769=CARTESIAN_POINT('',(-35.4330336721525,-15.,-45.));
#1770=CARTESIAN_POINT('',(-28.2738903342011,-15.,-45.));
#1771=CARTESIAN_POINT('',(-86.0089172531638,-15.,-45.));
#1772=CARTESIAN_POINT('Origin',(-86.0089172531638,-15.,-45.));
#1773=CARTESIAN_POINT('Origin',(-138.374586668663,-18.1,-45.));
#1774=CARTESIAN_POINT('',(-111.296859043669,28.8000000000001,-51.2));
#1775=CARTESIAN_POINT('',(-131.157708303793,-5.59999999999998,-51.2));
#1776=CARTESIAN_POINT('',(-111.296859043669,28.8000000000001,-45.));
#1777=CARTESIAN_POINT('Origin',(-62.5107612971459,31.9000000000001,-45.));
#1778=CARTESIAN_POINT('',(-60.7209754626581,28.8000000000001,-51.2));
#1779=CARTESIAN_POINT('',(-55.2938829322756,19.4000000000001,-51.2));
#1780=CARTESIAN_POINT('',(-60.7209754626581,28.8000000000001,-45.));
#1781=CARTESIAN_POINT('Origin',(-114.876430712645,28.8000000000001,-45.));
#1782=CARTESIAN_POINT('',(-100.442673982904,28.8000000000001,-51.2));
#1783=CARTESIAN_POINT('Origin',(-86.0089172531638,-15.,-51.2));
#1784=CARTESIAN_POINT('Origin',(-143.743944172126,-15.,-45.));
#1785=CARTESIAN_POINT('Origin',(-57.1414037936824,35.0000000000001,-45.));
#1786=CARTESIAN_POINT('',(0.,0.,0.));
#1787=CARTESIAN_POINT('',(0.,0.,0.));
#1788=UNCERTAINTY_MEASURE_WITH_UNIT(LENGTH_MEASURE(0.01),#1796,
'DISTANCE_ACCURACY_VALUE',
'Maximum model space distance between geometric entities at asserted c
onnectivities');
#1789=UNCERTAINTY_MEASURE_WITH_UNIT(LENGTH_MEASURE(0.01),#1796,
'DISTANCE_ACCURACY_VALUE',
'Maximum model space distance between geometric entities at asserted c
onnectivities');
#1790=UNCERTAINTY_MEASURE_WITH_UNIT(LENGTH_MEASURE(0.01),#1796,
'DISTANCE_ACCURACY_VALUE',
'Maximum model space distance between geometric entities at asserted c
onnectivities');
#1791=UNCERTAINTY_MEASURE_WITH_UNIT(LENGTH_MEASURE(0.01),#1796,
'DISTANCE_ACCURACY_VALUE',
'Maximum model space distance between geometric entities at asserted c
onnectivities');
#1792=(
GEOMETRIC_REPRESENTATION_CONTEXT(3)
GLOBAL_UNCERTAINTY_ASSIGNED_CONTEXT((#1788))
GLOBAL_UNIT_ASSIGNED_CONTEXT((#1796,#1798,#1799))
REPRESENTATION_CONTEXT('','3D')
);
#1793=(
GEOMETRIC_REPRESENTATION_CONTEXT(3)
GLOBAL_UNCERTAINTY_ASSIGNED_CONTEXT((#1789))
GLOBAL_UNIT_ASSIGNED_CONTEXT((#1796,#1798,#1799))
REPRESENTATION_CONTEXT('','3D')
);
#1794=(
GEOMETRIC_REPRESENTATION_CONTEXT(3)
GLOBAL_UNCERTAINTY_ASSIGNED_CONTEXT((#1790))
GLOBAL_UNIT_ASSIGNED_CONTEXT((#1796,#1798,#1799))
REPRESENTATION_CONTEXT('','3D')
);
#1795=(
GEOMETRIC_REPRESENTATION_CONTEXT(3)
GLOBAL_UNCERTAINTY_ASSIGNED_CONTEXT((#1791))
GLOBAL_UNIT_ASSIGNED_CONTEXT((#1796,#1798,#1799))
REPRESENTATION_CONTEXT('','3D')
);
#1796=(
LENGTH_UNIT()
NAMED_UNIT(*)
SI_UNIT(.MILLI.,.METRE.)
);
#1797=(
LENGTH_UNIT()
NAMED_UNIT(*)
SI_UNIT($,.METRE.)
);
#1798=(
NAMED_UNIT(*)
PLANE_ANGLE_UNIT()
SI_UNIT($,.RADIAN.)
);
#1799=(
NAMED_UNIT(*)
SI_UNIT($,.STERADIAN.)
SOLID_ANGLE_UNIT()
);
#1800=SHAPE_DEFINITION_REPRESENTATION(#1803,#1808);
#1801=SHAPE_DEFINITION_REPRESENTATION(#1804,#1809);
#1802=SHAPE_DEFINITION_REPRESENTATION(#1805,#1810);
#1803=PRODUCT_DEFINITION_SHAPE('',$,#1812);
#1804=PRODUCT_DEFINITION_SHAPE('',$,#1813);
#1805=PRODUCT_DEFINITION_SHAPE('',$,#1814);
#1806=PRODUCT_DEFINITION_SHAPE($,$,#17);
#1807=PRODUCT_DEFINITION_SHAPE($,$,#18);
#1808=SHAPE_REPRESENTATION('',(#1042,#1167),#1792);
#1809=SHAPE_REPRESENTATION('',(#1043,#1166),#1793);
#1810=SHAPE_REPRESENTATION('',(#1044),#1794);
#1811=PRODUCT_DEFINITION_CONTEXT('part definition',#1822,'design');
#1812=PRODUCT_DEFINITION('2025-12-08-00-33-07-883','Arm (1)',#1815,#1811);
#1813=PRODUCT_DEFINITION('2025-12-08-00-40-28-529','Arm',#1816,#1811);
#1814=PRODUCT_DEFINITION('2025-12-08-02-41-26-132','Forearm 2',#1817,#1811);
#1815=PRODUCT_DEFINITION_FORMATION('',$,#1824);
#1816=PRODUCT_DEFINITION_FORMATION('',$,#1825);
#1817=PRODUCT_DEFINITION_FORMATION('',$,#1826);
#1818=PRODUCT_RELATED_PRODUCT_CATEGORY('Arm (1)','Arm (1)',(#1824));
#1819=PRODUCT_RELATED_PRODUCT_CATEGORY('Arm','Arm',(#1825));
#1820=PRODUCT_RELATED_PRODUCT_CATEGORY('Forearm 2','Forearm 2',(#1826));
#1821=APPLICATION_PROTOCOL_DEFINITION('international standard',
'automotive_design',2009,#1822);
#1822=APPLICATION_CONTEXT(
'Core Data for Automotive Mechanical Design Process');
#1823=PRODUCT_CONTEXT('part definition',#1822,'mechanical');
#1824=PRODUCT('2025-12-08-00-33-07-883','Arm (1)',$,(#1823));
#1825=PRODUCT('2025-12-08-00-40-28-529','Arm',$,(#1823));
#1826=PRODUCT('2025-12-08-02-41-26-132','Forearm 2',$,(#1823));
#1827=PRESENTATION_STYLE_ASSIGNMENT((#1839));
#1828=PRESENTATION_STYLE_ASSIGNMENT((#1840));
#1829=PRESENTATION_STYLE_ASSIGNMENT((#1841));
#1830=PRESENTATION_STYLE_ASSIGNMENT((#1842));
#1831=PRESENTATION_STYLE_ASSIGNMENT((#1843));
#1832=PRESENTATION_STYLE_ASSIGNMENT((#1844));
#1833=PRESENTATION_STYLE_ASSIGNMENT((#1845));
#1834=PRESENTATION_STYLE_ASSIGNMENT((#1846));
#1835=PRESENTATION_STYLE_ASSIGNMENT((#1847));
#1836=PRESENTATION_STYLE_ASSIGNMENT((#1848));
#1837=PRESENTATION_STYLE_ASSIGNMENT((#1849));
#1838=PRESENTATION_STYLE_ASSIGNMENT((#1850));
#1839=SURFACE_STYLE_USAGE(.BOTH.,#1851);
#1840=SURFACE_STYLE_USAGE(.BOTH.,#1852);
#1841=SURFACE_STYLE_USAGE(.BOTH.,#1853);
#1842=SURFACE_STYLE_USAGE(.BOTH.,#1854);
#1843=SURFACE_STYLE_USAGE(.BOTH.,#1855);
#1844=SURFACE_STYLE_USAGE(.BOTH.,#1856);
#1845=SURFACE_STYLE_USAGE(.BOTH.,#1857);
#1846=SURFACE_STYLE_USAGE(.BOTH.,#1858);
#1847=SURFACE_STYLE_USAGE(.BOTH.,#1859);
#1848=SURFACE_STYLE_USAGE(.BOTH.,#1860);
#1849=SURFACE_STYLE_USAGE(.BOTH.,#1861);
#1850=SURFACE_STYLE_USAGE(.BOTH.,#1862);
#1851=SURFACE_SIDE_STYLE('',(#1863));
#1852=SURFACE_SIDE_STYLE('',(#1864));
#1853=SURFACE_SIDE_STYLE('',(#1865));
#1854=SURFACE_SIDE_STYLE('',(#1866));
#1855=SURFACE_SIDE_STYLE('',(#1867));
#1856=SURFACE_SIDE_STYLE('',(#1868));
#1857=SURFACE_SIDE_STYLE('',(#1869));
#1858=SURFACE_SIDE_STYLE('',(#1870));
#1859=SURFACE_SIDE_STYLE('',(#1871));
#1860=SURFACE_SIDE_STYLE('',(#1872));
#1861=SURFACE_SIDE_STYLE('',(#1873));
#1862=SURFACE_SIDE_STYLE('',(#1874));
#1863=SURFACE_STYLE_FILL_AREA(#1875);
#1864=SURFACE_STYLE_FILL_AREA(#1876);
#1865=SURFACE_STYLE_FILL_AREA(#1877);
#1866=SURFACE_STYLE_FILL_AREA(#1878);
#1867=SURFACE_STYLE_FILL_AREA(#1879);
#1868=SURFACE_STYLE_FILL_AREA(#1880);
#1869=SURFACE_STYLE_FILL_AREA(#1881);
#1870=SURFACE_STYLE_FILL_AREA(#1882);
#1871=SURFACE_STYLE_FILL_AREA(#1883);
#1872=SURFACE_STYLE_FILL_AREA(#1884);
#1873=SURFACE_STYLE_FILL_AREA(#1885);
#1874=SURFACE_STYLE_FILL_AREA(#1886);
#1875=FILL_AREA_STYLE('Steel - Satin',(#1887));
#1876=FILL_AREA_STYLE('Plastic - Matte (Black)',(#1888));
#1877=FILL_AREA_STYLE('Aluminum - Satin',(#1889));
#1878=FILL_AREA_STYLE('Aluminum - Polished',(#1890));
#1879=FILL_AREA_STYLE('Paek (Beige)',(#1891));
#1880=FILL_AREA_STYLE('Copper - Patina',(#1892));
#1881=FILL_AREA_STYLE('Plastic - Matte (Yellow)',(#1893));
#1882=FILL_AREA_STYLE('Plastic - Matte (Red)',(#1894));
#1883=FILL_AREA_STYLE('Stainless Steel - Polished',(#1895));
#1884=FILL_AREA_STYLE('Plastic - Matte (Green)',(#1896));
#1885=FILL_AREA_STYLE('Plastic - Matte (Blue)',(#1897));
#1886=FILL_AREA_STYLE('Opaque(64,64,64)',(#1898));
#1887=FILL_AREA_STYLE_COLOUR('Steel - Satin',#1899);
#1888=FILL_AREA_STYLE_COLOUR('Plastic - Matte (Black)',#1900);
#1889=FILL_AREA_STYLE_COLOUR('Aluminum - Satin',#1901);
#1890=FILL_AREA_STYLE_COLOUR('Aluminum - Polished',#1902);
#1891=FILL_AREA_STYLE_COLOUR('Paek (Beige)',#1903);
#1892=FILL_AREA_STYLE_COLOUR('Copper - Patina',#1904);
#1893=FILL_AREA_STYLE_COLOUR('Plastic - Matte (Yellow)',#1905);
#1894=FILL_AREA_STYLE_COLOUR('Plastic - Matte (Red)',#1906);
#1895=FILL_AREA_STYLE_COLOUR('Stainless Steel - Polished',#1907);
#1896=FILL_AREA_STYLE_COLOUR('Plastic - Matte (Green)',#1908);
#1897=FILL_AREA_STYLE_COLOUR('Plastic - Matte (Blue)',#1909);
#1898=FILL_AREA_STYLE_COLOUR('Opaque(64,64,64)',#1910);
#1899=COLOUR_RGB('Steel - Satin',0.627450980392157,0.627450980392157,0.627450980392157);
#1900=COLOUR_RGB('Plastic - Matte (Black)',0.0980392156862745,0.0980392156862745,
0.0980392156862745);
#1901=COLOUR_RGB('Aluminum - Satin',0.96078431372549,0.96078431372549,0.964705882352941);
#1902=COLOUR_RGB('Aluminum - Polished',0.96078431372549,0.96078431372549,
0.964705882352941);
#1903=COLOUR_RGB('Paek (Beige)',0.898039215686275,0.792156862745098,0.619607843137255);
#1904=COLOUR_RGB('Copper - Patina',0.929411764705882,0.807843137254902,
0.764705882352941);
#1905=COLOUR_RGB('Plastic - Matte (Yellow)',0.909803921568627,0.67843137254902,
0.137254901960784);
#1906=COLOUR_RGB('Plastic - Matte (Red)',0.768627450980392,0.207843137254902,
0.152941176470588);
#1907=COLOUR_RGB('Stainless Steel - Polished',0.796078431372549,0.796078431372549,
0.796078431372549);
#1908=COLOUR_RGB('Plastic - Matte (Green)',0.266666666666667,0.588235294117647,
0.282352941176471);
#1909=COLOUR_RGB('Plastic - Matte (Blue)',0.188235294117647,0.231372549019608,
0.588235294117647);
#1910=COLOUR_RGB('Opaque(64,64,64)',0.250980392156863,0.250980392156863,
0.250980392156863);
ENDSEC;
END-ISO-10303-21;
