ISO-10303-21;
HEADER;
/* Generated by software containing ST-Developer
 * from STEP Tools, Inc. (www.steptools.com) 
 */

FILE_DESCRIPTION(
/* description */ (''),
/* implementation_level */ '2;1');

FILE_NAME(
/* name */ 'Index distal phalanx.step',
/* time_stamp */ '2026-01-04T20:26:11Z',
/* author */ (''),
/* organization */ (''),
/* preprocessor_version */ 'ST-DEVELOPER v20.1',
/* originating_system */ 'Autodesk Translation Framework v14.21.0.0',
/* authorisation */ '');

FILE_SCHEMA (('AUTOMOTIVE_DESIGN { 1 0 10303 214 3 1 1 }'));
ENDSEC;

DATA;
#10=MECHANICAL_DESIGN_GEOMETRIC_PRESENTATION_REPRESENTATION('',(#17),#931);
#11=ITEM_DEFINED_TRANSFORMATION($,$,#243,#257);
#12=(
REPRESENTATION_RELATIONSHIP($,$,#942,#941)
REPRESENTATION_RELATIONSHIP_WITH_TRANSFORMATION(#11)
SHAPE_REPRESENTATION_RELATIONSHIP()
);
#13=CONTEXT_DEPENDENT_SHAPE_REPRESENTATION(#12,#940);
#14=NEXT_ASSEMBLY_USAGE_OCCURRENCE('Distal phalanx:1',
'Distal phalanx:1','Distal phalanx:1',#944,#945,'Distal phalanx:1');
#15=SHAPE_REPRESENTATION_RELATIONSHIP('SRR','None',#942,#16);
#16=ADVANCED_BREP_SHAPE_REPRESENTATION('',(#18),#930);
#17=STYLED_ITEM('',(#955),#18);
#18=MANIFOLD_SOLID_BREP('Body1',#229);
#19=ELLIPSE('',#251,1.76776695296637,1.25);
#20=CYLINDRICAL_SURFACE('',#248,2.);
#21=CYLINDRICAL_SURFACE('',#250,1.25);
#22=CYLINDRICAL_SURFACE('',#252,2.);
#23=CYLINDRICAL_SURFACE('',#254,1.);
#24=PLANE('',#247);
#25=PLANE('',#255);
#26=PLANE('',#256);
#27=LINE('',#662,#35);
#28=LINE('',#677,#36);
#29=LINE('',#681,#37);
#30=LINE('',#685,#38);
#31=LINE('',#689,#39);
#32=LINE('',#777,#40);
#33=LINE('',#810,#41);
#34=LINE('',#915,#42);
#35=VECTOR('',#268,10.);
#36=VECTOR('',#269,10.);
#37=VECTOR('',#274,2.);
#38=VECTOR('',#279,1.25);
#39=VECTOR('',#284,2.);
#40=VECTOR('',#289,10.);
#41=VECTOR('',#290,10.);
#42=VECTOR('',#291,20.0022498734517);
#43=FACE_BOUND('',#61,.T.);
#44=FACE_BOUND('',#63,.T.);
#45=FACE_BOUND('',#73,.T.);
#46=FACE_BOUND('',#75,.T.);
#47=FACE_BOUND('',#76,.T.);
#48=FACE_OUTER_BOUND('',#60,.T.);
#49=FACE_OUTER_BOUND('',#62,.T.);
#50=FACE_OUTER_BOUND('',#64,.T.);
#51=FACE_OUTER_BOUND('',#65,.T.);
#52=FACE_OUTER_BOUND('',#66,.T.);
#53=FACE_OUTER_BOUND('',#67,.T.);
#54=FACE_OUTER_BOUND('',#68,.T.);
#55=FACE_OUTER_BOUND('',#69,.T.);
#56=FACE_OUTER_BOUND('',#70,.T.);
#57=FACE_OUTER_BOUND('',#71,.T.);
#58=FACE_OUTER_BOUND('',#72,.T.);
#59=FACE_OUTER_BOUND('',#74,.T.);
#60=EDGE_LOOP('',(#150,#151,#152,#153,#154,#155));
#61=EDGE_LOOP('',(#156,#157));
#62=EDGE_LOOP('',(#158,#159,#160,#161,#162,#163));
#63=EDGE_LOOP('',(#164,#165));
#64=EDGE_LOOP('',(#166,#167,#168,#169));
#65=EDGE_LOOP('',(#170,#171));
#66=EDGE_LOOP('',(#172,#173,#174,#175,#176));
#67=EDGE_LOOP('',(#177,#178,#179,#180,#181));
#68=EDGE_LOOP('',(#182,#183,#184,#185,#186));
#69=EDGE_LOOP('',(#187,#188,#189,#190));
#70=EDGE_LOOP('',(#191,#192,#193,#194));
#71=EDGE_LOOP('',(#195,#196,#197,#198,#199,#200,#201,#202,#203));
#72=EDGE_LOOP('',(#204,#205));
#73=EDGE_LOOP('',(#206));
#74=EDGE_LOOP('',(#207,#208,#209));
#75=EDGE_LOOP('',(#210));
#76=EDGE_LOOP('',(#211));
#77=CIRCLE('',#244,5.);
#78=CIRCLE('',#245,5.);
#79=CIRCLE('',#246,5.);
#80=CIRCLE('',#249,2.);
#81=CIRCLE('',#253,2.);
#82=B_SPLINE_CURVE_WITH_KNOTS('',3,(#368,#369,#370,#371,#372,#373,#374,
#375,#376,#377,#378,#379,#380,#381,#382,#383,#384,#385,#386,#387,#388,#389),
 .UNSPECIFIED.,.F.,.F.,(4,2,2,2,2,2,2,2,2,2,4),(0.,0.0293095007013932,0.0575534454602386,
0.0902613421387598,0.139821667307729,0.190354757603325,0.245144267309728,
0.293416870143046,0.342017553393365,0.376885913908852,0.403153067379475),
 .UNSPECIFIED.);
#83=B_SPLINE_CURVE_WITH_KNOTS('',3,(#393,#394,#395,#396,#397,#398,#399,
#400,#401,#402,#403),.UNSPECIFIED.,.F.,.F.,(4,1,1,1,1,1,1,1,4),(0.,0.0437997367166049,
0.0875994734332098,0.17519894686642,0.262798420299629,0.437997367166049,
0.525596840599259,0.569396577315864,0.613196314032469),.UNSPECIFIED.);
#84=B_SPLINE_CURVE_WITH_KNOTS('',3,(#407,#408,#409,#410,#411,#412,#413,
#414,#415,#416,#417),.UNSPECIFIED.,.F.,.F.,(4,1,1,1,1,1,1,1,4),(-0.613196314032469,
-0.569396577315864,-0.525596840599259,-0.437997367166049,-0.262798420299629,
-0.17519894686642,-0.0875994734332098,-0.0437997367166049,0.),
 .UNSPECIFIED.);
#85=B_SPLINE_CURVE_WITH_KNOTS('',3,(#421,#422,#423,#424),.UNSPECIFIED.,
 .F.,.F.,(4,4),(0.,0.041740937325943),.UNSPECIFIED.);
#86=B_SPLINE_CURVE_WITH_KNOTS('',3,(#425,#426,#427,#428,#429,#430,#431,
#432,#433,#434,#435,#436,#437,#438,#439,#440,#441,#442,#443,#444,#445,#446,
#447,#448,#449,#450,#451,#452,#453,#454,#455,#456,#457,#458,#459,#460,#461,
#462,#463,#464,#465,#466,#467,#468,#469,#470),.UNSPECIFIED.,.F.,.F.,(4,
2,2,2,2,2,2,2,2,2,2,2,2,2,2,2,2,2,2,2,2,2,4),(0.041740937325943,0.0744703418139333,
0.126224120169333,0.172296007041908,0.215974420477103,0.255157947370935,
0.294516038721626,0.351927821211965,0.425987516315871,0.513491553808686,
0.623168101149298,0.76354010714658,0.868007407519635,0.935455811462573,
0.964338771496162,0.98647814385888,1.01169662948487,1.05957834316471,1.16896797386767,
1.28473086019242,1.40980639055618,1.47866167182499,1.54721013045734),
 .UNSPECIFIED.);
#87=B_SPLINE_CURVE_WITH_KNOTS('',3,(#537,#538,#539,#540,#541,#542,#543,
#544,#545,#546,#547,#548,#549,#550,#551,#552,#553,#554,#555,#556,#557,#558,
#559,#560),.UNSPECIFIED.,.F.,.F.,(4,2,2,2,2,2,2,2,2,2,2,4),(1.86206823545009E-5,
0.0269938167714973,0.0670173641806193,0.109867137162128,0.15716865681177,
0.20807749595127,0.259824009796561,0.309330732452988,0.342931934973909,
0.371250648366169,0.387350646692267,0.403047009190644),.UNSPECIFIED.);
#88=B_SPLINE_CURVE_WITH_KNOTS('',3,(#561,#562,#563,#564,#565,#566,#567,
#568,#569,#570,#571),.UNSPECIFIED.,.F.,.F.,(4,1,1,1,1,1,1,1,4),(-0.613208099970508,
-0.569407521401186,-0.525606942831864,-0.43800578569322,-0.262803471415932,
-0.175202314277288,-0.0876011571386439,-0.043800578569322,0.),
 .UNSPECIFIED.);
#89=B_SPLINE_CURVE_WITH_KNOTS('',3,(#572,#573,#574,#575,#576,#577,#578,
#579,#580,#581,#582),.UNSPECIFIED.,.F.,.F.,(4,1,1,1,1,1,1,1,4),(0.,0.043800578569322,
0.0876011571386439,0.175202314277288,0.262803471415932,0.43800578569322,
0.525606942831864,0.569407521401186,0.613208099970508),.UNSPECIFIED.);
#90=B_SPLINE_CURVE_WITH_KNOTS('',3,(#585,#586,#587,#588,#589,#590,#591,
#592),.UNSPECIFIED.,.F.,.F.,(4,2,2,4),(0.,0.0463575497543785,0.100631158089004,
0.121722562324694),.UNSPECIFIED.);
#91=B_SPLINE_CURVE_WITH_KNOTS('',3,(#593,#594,#595,#596,#597,#598,#599,
#600,#601,#602,#603,#604,#605,#606,#607,#608,#609,#610,#611,#612,#613,#614,
#615,#616,#617,#618,#619,#620,#621,#622,#623,#624,#625,#626,#627,#628,#629,
#630,#631,#632,#633,#634),.UNSPECIFIED.,.F.,.F.,(4,2,2,2,2,2,2,2,2,2,2,
2,2,2,2,2,2,2,2,2,4),(0.121722562324694,0.180286554837379,0.264318560023919,
0.369611626091128,0.508749620961056,0.61078610763073,0.689949863890511,
0.719997170871259,0.741747938214058,0.765710740214275,0.808378002808874,
0.909788892763738,1.01925589509328,1.14220667705157,1.24348282539392,1.32605978063849,
1.38916937797133,1.42934421531952,1.46743961087688,1.50996816431004,1.52730794167604),
 .UNSPECIFIED.);
#92=B_SPLINE_CURVE_WITH_KNOTS('',3,(#664,#665,#666,#667,#668,#669,#670,
#671,#672,#673,#674,#675,#676),.UNSPECIFIED.,.F.,.F.,(4,3,3,3,4),(-3.14159265358979,
-2.30956862118388,-1.5021012911815,-0.672395769165105,0.),.UNSPECIFIED.);
#93=B_SPLINE_CURVE_WITH_KNOTS('',3,(#723,#724,#725,#726,#727,#728,#729,
#730,#731,#732,#733,#734,#735,#736,#737,#738),.UNSPECIFIED.,.F.,.F.,(4,
3,3,3,3,4),(0.,0.207855823278028,1.02333124574981,1.83003409517138,2.6617679464641,
3.14159265358979),.UNSPECIFIED.);
#94=B_SPLINE_CURVE_WITH_KNOTS('',3,(#742,#743,#744,#745,#746,#747,#748,
#749,#750,#751,#752,#753,#754,#755,#756,#757,#758,#759,#760,#761,#762,#763,
#764,#765,#766,#767,#768,#769,#770,#771,#772,#773,#774,#775),
 .UNSPECIFIED.,.F.,.F.,(4,3,3,3,3,3,3,3,3,3,3,4),(-0.15771402819442,-0.153831013982037,
-0.136503124865245,-0.118695856482713,-0.116439090206409,-0.0949857076102911,
-0.0811516206355179,-0.0588760990434739,-0.0412936921008993,-0.0231956277105614,
-0.0178634337426958,0.),.UNSPECIFIED.);
#95=B_SPLINE_CURVE_WITH_KNOTS('',3,(#779,#780,#781,#782,#783,#784,#785,
#786,#787,#788,#789,#790,#791,#792,#793,#794,#795,#796,#797,#798,#799,#800,
#801,#802,#803,#804,#805,#806,#807,#808,#809),.UNSPECIFIED.,.F.,.F.,(4,
3,3,3,3,3,3,3,3,3,4),(0.,0.00121460959619124,0.0190515213334062,0.0372508255312722,
0.0430928680254656,0.0644549555724263,0.0824432801124364,0.103217882074655,
0.121781449354128,0.139770134260824,0.157758819167521),.UNSPECIFIED.);
#96=B_SPLINE_CURVE_WITH_KNOTS('',3,(#879,#880,#881,#882,#883,#884,#885,
#886,#887,#888,#889,#890,#891,#892,#893,#894,#895,#896,#897,#898,#899,#900),
 .UNSPECIFIED.,.F.,.F.,(4,2,2,2,2,2,2,2,2,2,4),(-3.00972732830419,-2.6854941864108,
-2.29398532077929,-1.99344314888805,-1.72221274780409,-1.56530857129658,
-1.42941051643911,-1.24952008820304,-0.967941223333153,-0.596809412290285,
-0.050072837130155),.UNSPECIFIED.);
#97=B_SPLINE_CURVE_WITH_KNOTS('',3,(#902,#903,#904,#905,#906,#907,#908,
#909,#910,#911,#912,#913,#914),.UNSPECIFIED.,.F.,.F.,(4,3,3,3,4),(1.70348269985774,
1.7952116566093,2.24400532226946,2.69279898792963,3.14159265358979),
 .UNSPECIFIED.);
#98=B_SPLINE_CURVE_WITH_KNOTS('',3,(#916,#917,#918,#919,#920,#921,#922),
 .UNSPECIFIED.,.F.,.F.,(4,3,4),(-3.14159265358979,-2.31329720802413,-1.70372380617159),
 .UNSPECIFIED.);
#99=VERTEX_POINT('',#366);
#100=VERTEX_POINT('',#367);
#101=VERTEX_POINT('',#390);
#102=VERTEX_POINT('',#392);
#103=VERTEX_POINT('',#404);
#104=VERTEX_POINT('',#406);
#105=VERTEX_POINT('',#419);
#106=VERTEX_POINT('',#420);
#107=VERTEX_POINT('',#583);
#108=VERTEX_POINT('',#584);
#109=VERTEX_POINT('',#661);
#110=VERTEX_POINT('',#663);
#111=VERTEX_POINT('',#680);
#112=VERTEX_POINT('',#684);
#113=VERTEX_POINT('',#688);
#114=VERTEX_POINT('',#740);
#115=VERTEX_POINT('',#741);
#116=VERTEX_POINT('',#776);
#117=VERTEX_POINT('',#778);
#118=VERTEX_POINT('',#901);
#119=EDGE_CURVE('',#99,#100,#82,.T.);
#120=EDGE_CURVE('',#101,#100,#77,.T.);
#121=EDGE_CURVE('',#101,#102,#83,.T.);
#122=EDGE_CURVE('',#103,#102,#78,.T.);
#123=EDGE_CURVE('',#103,#104,#84,.T.);
#124=EDGE_CURVE('',#99,#104,#79,.T.);
#125=EDGE_CURVE('',#105,#106,#85,.T.);
#126=EDGE_CURVE('',#106,#105,#86,.T.);
#127=EDGE_CURVE('',#100,#99,#87,.T.);
#128=EDGE_CURVE('',#104,#103,#88,.T.);
#129=EDGE_CURVE('',#102,#101,#89,.T.);
#130=EDGE_CURVE('',#107,#108,#90,.T.);
#131=EDGE_CURVE('',#108,#107,#91,.T.);
#132=EDGE_CURVE('',#109,#102,#27,.T.);
#133=EDGE_CURVE('',#109,#110,#92,.T.);
#134=EDGE_CURVE('',#101,#110,#28,.T.);
#135=EDGE_CURVE('',#108,#111,#29,.T.);
#136=EDGE_CURVE('',#111,#111,#80,.T.);
#137=EDGE_CURVE('',#100,#112,#30,.T.);
#138=EDGE_CURVE('',#112,#112,#19,.T.);
#139=EDGE_CURVE('',#106,#113,#31,.T.);
#140=EDGE_CURVE('',#113,#113,#81,.T.);
#141=EDGE_CURVE('',#110,#109,#93,.T.);
#142=EDGE_CURVE('',#114,#115,#94,.T.);
#143=EDGE_CURVE('',#115,#116,#32,.T.);
#144=EDGE_CURVE('',#116,#117,#95,.T.);
#145=EDGE_CURVE('',#114,#117,#33,.T.);
#146=EDGE_CURVE('',#114,#117,#96,.T.);
#147=EDGE_CURVE('',#116,#118,#97,.T.);
#148=EDGE_CURVE('',#109,#118,#34,.T.);
#149=EDGE_CURVE('',#118,#115,#98,.T.);
#150=ORIENTED_EDGE('',*,*,#119,.T.);
#151=ORIENTED_EDGE('',*,*,#120,.F.);
#152=ORIENTED_EDGE('',*,*,#121,.T.);
#153=ORIENTED_EDGE('',*,*,#122,.F.);
#154=ORIENTED_EDGE('',*,*,#123,.T.);
#155=ORIENTED_EDGE('',*,*,#124,.F.);
#156=ORIENTED_EDGE('',*,*,#125,.T.);
#157=ORIENTED_EDGE('',*,*,#126,.T.);
#158=ORIENTED_EDGE('',*,*,#127,.T.);
#159=ORIENTED_EDGE('',*,*,#124,.T.);
#160=ORIENTED_EDGE('',*,*,#128,.T.);
#161=ORIENTED_EDGE('',*,*,#122,.T.);
#162=ORIENTED_EDGE('',*,*,#129,.T.);
#163=ORIENTED_EDGE('',*,*,#120,.T.);
#164=ORIENTED_EDGE('',*,*,#130,.T.);
#165=ORIENTED_EDGE('',*,*,#131,.T.);
#166=ORIENTED_EDGE('',*,*,#129,.F.);
#167=ORIENTED_EDGE('',*,*,#132,.F.);
#168=ORIENTED_EDGE('',*,*,#133,.T.);
#169=ORIENTED_EDGE('',*,*,#134,.F.);
#170=ORIENTED_EDGE('',*,*,#128,.F.);
#171=ORIENTED_EDGE('',*,*,#123,.F.);
#172=ORIENTED_EDGE('',*,*,#130,.F.);
#173=ORIENTED_EDGE('',*,*,#131,.F.);
#174=ORIENTED_EDGE('',*,*,#135,.T.);
#175=ORIENTED_EDGE('',*,*,#136,.F.);
#176=ORIENTED_EDGE('',*,*,#135,.F.);
#177=ORIENTED_EDGE('',*,*,#119,.F.);
#178=ORIENTED_EDGE('',*,*,#127,.F.);
#179=ORIENTED_EDGE('',*,*,#137,.T.);
#180=ORIENTED_EDGE('',*,*,#138,.T.);
#181=ORIENTED_EDGE('',*,*,#137,.F.);
#182=ORIENTED_EDGE('',*,*,#125,.F.);
#183=ORIENTED_EDGE('',*,*,#126,.F.);
#184=ORIENTED_EDGE('',*,*,#139,.T.);
#185=ORIENTED_EDGE('',*,*,#140,.F.);
#186=ORIENTED_EDGE('',*,*,#139,.F.);
#187=ORIENTED_EDGE('',*,*,#121,.F.);
#188=ORIENTED_EDGE('',*,*,#134,.T.);
#189=ORIENTED_EDGE('',*,*,#141,.T.);
#190=ORIENTED_EDGE('',*,*,#132,.T.);
#191=ORIENTED_EDGE('',*,*,#142,.T.);
#192=ORIENTED_EDGE('',*,*,#143,.T.);
#193=ORIENTED_EDGE('',*,*,#144,.T.);
#194=ORIENTED_EDGE('',*,*,#145,.F.);
#195=ORIENTED_EDGE('',*,*,#142,.F.);
#196=ORIENTED_EDGE('',*,*,#146,.T.);
#197=ORIENTED_EDGE('',*,*,#144,.F.);
#198=ORIENTED_EDGE('',*,*,#147,.T.);
#199=ORIENTED_EDGE('',*,*,#148,.F.);
#200=ORIENTED_EDGE('',*,*,#141,.F.);
#201=ORIENTED_EDGE('',*,*,#133,.F.);
#202=ORIENTED_EDGE('',*,*,#148,.T.);
#203=ORIENTED_EDGE('',*,*,#149,.T.);
#204=ORIENTED_EDGE('',*,*,#146,.F.);
#205=ORIENTED_EDGE('',*,*,#145,.T.);
#206=ORIENTED_EDGE('',*,*,#138,.F.);
#207=ORIENTED_EDGE('',*,*,#143,.F.);
#208=ORIENTED_EDGE('',*,*,#149,.F.);
#209=ORIENTED_EDGE('',*,*,#147,.F.);
#210=ORIENTED_EDGE('',*,*,#136,.T.);
#211=ORIENTED_EDGE('',*,*,#140,.T.);
#212=B_SPLINE_SURFACE_WITH_KNOTS('',3,3,((#300,#301,#302,#303,#304,#305,
#306,#307,#308,#309,#310),(#311,#312,#313,#314,#315,#316,#317,#318,#319,
#320,#321),(#322,#323,#324,#325,#326,#327,#328,#329,#330,#331,#332),(#333,
#334,#335,#336,#337,#338,#339,#340,#341,#342,#343),(#344,#345,#346,#347,
#348,#349,#350,#351,#352,#353,#354),(#355,#356,#357,#358,#359,#360,#361,
#362,#363,#364,#365)),.UNSPECIFIED.,.F.,.F.,.F.,(4,1,1,4),(4,1,1,1,1,1,
1,1,4),(0.,0.285714285714286,0.571428571428571,1.),(0.,0.0437997367166049,
0.0875994734332098,0.17519894686642,0.262798420299629,0.437997367166049,
0.525596840599259,0.569396577315864,0.613196314032469),.UNSPECIFIED.);
#213=B_SPLINE_SURFACE_WITH_KNOTS('',3,3,((#471,#472,#473,#474,#475,#476,
#477,#478,#479,#480,#481),(#482,#483,#484,#485,#486,#487,#488,#489,#490,
#491,#492),(#493,#494,#495,#496,#497,#498,#499,#500,#501,#502,#503),(#504,
#505,#506,#507,#508,#509,#510,#511,#512,#513,#514),(#515,#516,#517,#518,
#519,#520,#521,#522,#523,#524,#525),(#526,#527,#528,#529,#530,#531,#532,
#533,#534,#535,#536)),.UNSPECIFIED.,.F.,.F.,.F.,(4,1,1,4),(4,1,1,1,1,1,
1,1,4),(0.,0.285714285714286,0.571428571428571,1.),(0.,0.043800578569322,
0.0876011571386439,0.175202314277288,0.262803471415932,0.43800578569322,
0.525606942831864,0.569407521401186,0.613208099970508),.UNSPECIFIED.);
#214=B_SPLINE_SURFACE_WITH_KNOTS('',3,1,((#635,#636),(#637,#638),(#639,
#640),(#641,#642),(#643,#644),(#645,#646),(#647,#648),(#649,#650),(#651,
#652),(#653,#654),(#655,#656),(#657,#658),(#659,#660)),.UNSPECIFIED.,.F.,
 .F.,.F.,(4,3,3,3,4),(2,2),(-3.14159265358979,-2.30956862118388,-1.5021012911815,
-0.672395769165105,0.),(0.,0.699999999999999),.UNSPECIFIED.);
#215=B_SPLINE_SURFACE_WITH_KNOTS('',3,1,((#691,#692),(#693,#694),(#695,
#696),(#697,#698),(#699,#700),(#701,#702),(#703,#704),(#705,#706),(#707,
#708),(#709,#710),(#711,#712),(#713,#714),(#715,#716),(#717,#718),(#719,
#720),(#721,#722)),.UNSPECIFIED.,.F.,.F.,.F.,(4,3,3,3,3,4),(2,2),(0.,0.207855823278028,
1.02333124574981,1.83003409517138,2.6617679464641,3.14159265358979),(0.,
0.699999999999999),.UNSPECIFIED.);
#216=B_SPLINE_SURFACE_WITH_KNOTS('',3,3,((#811,#812,#813,#814),(#815,#816,
#817,#818),(#819,#820,#821,#822),(#823,#824,#825,#826),(#827,#828,#829,
#830),(#831,#832,#833,#834),(#835,#836,#837,#838),(#839,#840,#841,#842),
(#843,#844,#845,#846),(#847,#848,#849,#850),(#851,#852,#853,#854),(#855,
#856,#857,#858),(#859,#860,#861,#862),(#863,#864,#865,#866),(#867,#868,
#869,#870),(#871,#872,#873,#874),(#875,#876,#877,#878)),.UNSPECIFIED.,.T.,
 .F.,.F.,(4,1,1,1,1,1,1,1,1,1,1,1,1,1,4),(4,4),(0.,0.0714285714285714,0.142857142857143,
0.214285714285714,0.285714285714286,0.357142857142857,0.428571428571429,
0.476190476190476,0.571428571428571,0.619047619047619,0.714285714285714,
0.785714285714286,0.857142857142857,0.928571428571429,1.),(0.,1.),
 .UNSPECIFIED.);
#217=ADVANCED_FACE('',(#48,#43),#212,.F.);
#218=ADVANCED_FACE('',(#49,#44),#213,.F.);
#219=ADVANCED_FACE('',(#50),#214,.T.);
#220=ADVANCED_FACE('',(#51),#24,.T.);
#221=ADVANCED_FACE('',(#52),#20,.F.);
#222=ADVANCED_FACE('',(#53),#21,.F.);
#223=ADVANCED_FACE('',(#54),#22,.F.);
#224=ADVANCED_FACE('',(#55),#215,.T.);
#225=ADVANCED_FACE('',(#56),#23,.T.);
#226=ADVANCED_FACE('',(#57),#216,.F.);
#227=ADVANCED_FACE('',(#58,#45),#25,.F.);
#228=ADVANCED_FACE('',(#59,#46,#47),#26,.F.);
#229=CLOSED_SHELL('',(#217,#218,#219,#220,#221,#222,#223,#224,#225,#226,
#227,#228));
#230=DERIVED_UNIT_ELEMENT(#232,1.);
#231=DERIVED_UNIT_ELEMENT(#933,-3.);
#232=(
MASS_UNIT()
NAMED_UNIT(*)
SI_UNIT(.KILO.,.GRAM.)
);
#233=DERIVED_UNIT((#230,#231));
#234=MEASURE_REPRESENTATION_ITEM('density measure',
POSITIVE_RATIO_MEASURE(7850.),#233);
#235=PROPERTY_DEFINITION_REPRESENTATION(#240,#237);
#236=PROPERTY_DEFINITION_REPRESENTATION(#241,#238);
#237=REPRESENTATION('material name',(#239),#930);
#238=REPRESENTATION('density',(#234),#930);
#239=DESCRIPTIVE_REPRESENTATION_ITEM('Steel','Steel');
#240=PROPERTY_DEFINITION('material property','material name',#945);
#241=PROPERTY_DEFINITION('material property','density of part',#945);
#242=AXIS2_PLACEMENT_3D('',#298,#258,#259);
#243=AXIS2_PLACEMENT_3D('',#299,#260,#261);
#244=AXIS2_PLACEMENT_3D('',#391,#262,#263);
#245=AXIS2_PLACEMENT_3D('',#405,#264,#265);
#246=AXIS2_PLACEMENT_3D('',#418,#266,#267);
#247=AXIS2_PLACEMENT_3D('',#678,#270,#271);
#248=AXIS2_PLACEMENT_3D('',#679,#272,#273);
#249=AXIS2_PLACEMENT_3D('',#682,#275,#276);
#250=AXIS2_PLACEMENT_3D('',#683,#277,#278);
#251=AXIS2_PLACEMENT_3D('',#686,#280,#281);
#252=AXIS2_PLACEMENT_3D('',#687,#282,#283);
#253=AXIS2_PLACEMENT_3D('',#690,#285,#286);
#254=AXIS2_PLACEMENT_3D('',#739,#287,#288);
#255=AXIS2_PLACEMENT_3D('',#923,#292,#293);
#256=AXIS2_PLACEMENT_3D('',#924,#294,#295);
#257=AXIS2_PLACEMENT_3D('',#925,#296,#297);
#258=DIRECTION('axis',(0.,0.,1.));
#259=DIRECTION('refdir',(1.,0.,0.));
#260=DIRECTION('axis',(0.,0.,1.));
#261=DIRECTION('refdir',(1.,0.,0.));
#262=DIRECTION('center_axis',(4.79985532730997E-5,-0.999999998848069,1.69406589255715E-21));
#263=DIRECTION('ref_axis',(0.999999998848069,4.79985532730997E-5,0.));
#264=DIRECTION('center_axis',(1.22692067811946E-16,-1.,0.));
#265=DIRECTION('ref_axis',(0.,0.,1.));
#266=DIRECTION('center_axis',(4.79985532730997E-5,-0.999999998848069,1.69406589255715E-21));
#267=DIRECTION('ref_axis',(0.999999998848069,4.79985532730997E-5,0.));
#268=DIRECTION('',(0.,0.,1.));
#269=DIRECTION('',(0.,0.,-1.));
#270=DIRECTION('center_axis',(3.02654202030003E-31,7.06843033009808E-31,
1.));
#271=DIRECTION('ref_axis',(1.,0.,-3.02654202030003E-31));
#272=DIRECTION('center_axis',(0.,0.,-1.));
#273=DIRECTION('ref_axis',(-1.,0.,0.));
#274=DIRECTION('',(0.,0.,-1.));
#275=DIRECTION('center_axis',(3.49307427221628E-32,-8.08279718224476E-32,
1.));
#276=DIRECTION('ref_axis',(-1.,0.,0.));
#277=DIRECTION('center_axis',(0.,0.,-1.));
#278=DIRECTION('ref_axis',(-1.,0.,0.));
#279=DIRECTION('',(0.,0.,-1.));
#280=DIRECTION('center_axis',(0.707106781186547,0.,-0.707106781186548));
#281=DIRECTION('ref_axis',(-0.707106781186548,0.,-0.707106781186547));
#282=DIRECTION('center_axis',(0.,0.,-1.));
#283=DIRECTION('ref_axis',(-1.,0.,0.));
#284=DIRECTION('',(0.,0.,-1.));
#285=DIRECTION('center_axis',(3.49307427221628E-32,-8.08279718224476E-32,
1.));
#286=DIRECTION('ref_axis',(-1.,0.,0.));
#287=DIRECTION('center_axis',(1.21421828796013E-62,-1.,-8.08279718224476E-32));
#288=DIRECTION('ref_axis',(0.707106781186555,0.,-0.70710678118654));
#289=DIRECTION('',(-1.21421828796013E-62,1.,8.08279718224476E-32));
#290=DIRECTION('',(0.,1.,0.));
#291=DIRECTION('',(-0.0149983127847123,-1.95036155196954E-18,-0.999887518980816));
#292=DIRECTION('center_axis',(-0.707106781186547,0.,0.707106781186548));
#293=DIRECTION('ref_axis',(0.707106781186548,0.,0.707106781186547));
#294=DIRECTION('center_axis',(3.49307427221628E-32,-8.08279718224476E-32,
1.));
#295=DIRECTION('ref_axis',(1.,0.,-3.49307427221628E-32));
#296=DIRECTION('',(0.,0.,1.));
#297=DIRECTION('',(1.,0.,0.));
#298=CARTESIAN_POINT('',(0.,0.,0.));
#299=CARTESIAN_POINT('',(0.,0.,0.));
#300=CARTESIAN_POINT('Ctrl Pts',(7.19999999282415,0.000299002752496003,
99.));
#301=CARTESIAN_POINT('Ctrl Pts',(7.19996448467251,0.740074457927604,99.));
#302=CARTESIAN_POINT('Ctrl Pts',(6.91803813405582,2.20266967006753,99.));
#303=CARTESIAN_POINT('Ctrl Pts',(5.67532749942872,4.37636952320573,99.));
#304=CARTESIAN_POINT('Ctrl Pts',(3.69886343076772,5.93080594322927,99.));
#305=CARTESIAN_POINT('Ctrl Pts',(0.424277468914925,6.9834093329589,99.));
#306=CARTESIAN_POINT('Ctrl Pts',(-2.90997729706529,6.52335669142439,99.));
#307=CARTESIAN_POINT('Ctrl Pts',(-5.67513802743951,4.38262159872453,99.));
#308=CARTESIAN_POINT('Ctrl Pts',(-6.91841914123041,2.19913983869199,99.));
#309=CARTESIAN_POINT('Ctrl Pts',(-7.2,0.739775457462274,99.));
#310=CARTESIAN_POINT('Ctrl Pts',(-7.2,8.1056193423842E-16,99.));
#311=CARTESIAN_POINT('Ctrl Pts',(7.19999999282415,0.000299002752496003,
99.7479982508547));
#312=CARTESIAN_POINT('Ctrl Pts',(7.19996448006203,0.740170512533737,99.7479982508547));
#313=CARTESIAN_POINT('Ctrl Pts',(6.91808853570647,2.20290249487408,99.7479982508547));
#314=CARTESIAN_POINT('Ctrl Pts',(5.67529494246443,4.3768288982919,99.7479982508547));
#315=CARTESIAN_POINT('Ctrl Pts',(3.69881889168212,5.93135229477121,99.7479982508547));
#316=CARTESIAN_POINT('Ctrl Pts',(0.424159225139733,6.98401830486078,99.7479982508547));
#317=CARTESIAN_POINT('Ctrl Pts',(-2.90990264343653,6.52395700462762,99.7479982508547));
#318=CARTESIAN_POINT('Ctrl Pts',(-5.67510016447361,4.38309263548442,99.7479982508547));
#319=CARTESIAN_POINT('Ctrl Pts',(-6.91846665394306,2.19937657641612,99.7479982508547));
#320=CARTESIAN_POINT('Ctrl Pts',(-7.2,0.739871512068748,99.7479982508547));
#321=CARTESIAN_POINT('Ctrl Pts',(-7.2,8.10561934238421E-16,99.7479982508547));
#322=CARTESIAN_POINT('Ctrl Pts',(6.85766356042235,0.00028257109898911,101.240830748448));
#323=CARTESIAN_POINT('Ctrl Pts',(6.85762999887041,0.699502643660041,101.240830748448));
#324=CARTESIAN_POINT('Ctrl Pts',(6.59139560095873,2.08204631274004,101.240830748448));
#325=CARTESIAN_POINT('Ctrl Pts',(5.41419843916577,4.1425919284444,101.240830748448));
#326=CARTESIAN_POINT('Ctrl Pts',(3.53354669138972,5.62328676281151,101.240830748447));
#327=CARTESIAN_POINT('Ctrl Pts',(0.406321755610533,6.62945481946449,101.240830748447));
#328=CARTESIAN_POINT('Ctrl Pts',(-2.78280810806507,6.18828087353914,101.240830748448));
#329=CARTESIAN_POINT('Ctrl Pts',(-5.41402757445523,4.14844140043703,101.240830748448));
#330=CARTESIAN_POINT('Ctrl Pts',(-6.59174651008151,2.07874520666118,101.240830748448));
#331=CARTESIAN_POINT('Ctrl Pts',(-6.85766356720386,0.699220074703492,101.240830748448));
#332=CARTESIAN_POINT('Ctrl Pts',(-6.85766356720386,7.66016452445899E-16,
101.240830748448));
#333=CARTESIAN_POINT('Ctrl Pts',(5.18499582697293,0.000202285467584439,
103.343797174822));
#334=CARTESIAN_POINT('Ctrl Pts',(5.18497180250484,0.500727122687793,103.343797174822));
#335=CARTESIAN_POINT('Ctrl Pts',(4.99512534094982,1.49136695107138,103.343797174822));
#336=CARTESIAN_POINT('Ctrl Pts',(4.13849585918312,2.99776287381214,103.343797174822));
#337=CARTESIAN_POINT('Ctrl Pts',(2.72605383767765,4.11766458544727,103.343797174822));
#338=CARTESIAN_POINT('Ctrl Pts',(0.319254532837331,4.89659580239383,103.343797174822));
#339=CARTESIAN_POINT('Ctrl Pts',(-2.16187488229206,4.54771251843572,103.343797174822));
#340=CARTESIAN_POINT('Ctrl Pts',(-4.13844575190585,3.00157962422946,103.343797174822));
#341=CARTESIAN_POINT('Ctrl Pts',(-4.99534543769437,1.48916139801785,103.343797174822));
#342=CARTESIAN_POINT('Ctrl Pts',(-5.18499583182764,0.500524838653569,103.343797174822));
#343=CARTESIAN_POINT('Ctrl Pts',(-5.18499583182764,5.48365676738041E-16,
103.343797174822));
#344=CARTESIAN_POINT('Ctrl Pts',(3.32199737357341,0.00011286423696821,104.));
#345=CARTESIAN_POINT('Ctrl Pts',(3.32198396142255,0.279541095486103,104.));
#346=CARTESIAN_POINT('Ctrl Pts',(3.21732662376208,0.833978879744587,104.));
#347=CARTESIAN_POINT('Ctrl Pts',(2.71756224778127,1.72365948317063,104.));
#348=CARTESIAN_POINT('Ctrl Pts',(1.82658100311578,2.44190214112089,104.));
#349=CARTESIAN_POINT('Ctrl Pts',(0.222024108988477,2.96787506820789,104.));
#350=CARTESIAN_POINT('Ctrl Pts',(-1.47012487533202,2.72176534112806,104.));
#351=CARTESIAN_POINT('Ctrl Pts',(-2.71763515417227,1.72523745238848,104.));
#352=CARTESIAN_POINT('Ctrl Pts',(-3.21739477018066,0.833002010624403,104.));
#353=CARTESIAN_POINT('Ctrl Pts',(-3.32199737628207,0.279428231893481,104.));
#354=CARTESIAN_POINT('Ctrl Pts',(-3.32199737628207,3.05948697910603E-16,
104.));
#355=CARTESIAN_POINT('Ctrl Pts',(2.1999999985838,5.90099861304434E-5,104.));
#356=CARTESIAN_POINT('Ctrl Pts',(2.19999299083715,0.146058132206633,104.));
#357=CARTESIAN_POINT('Ctrl Pts',(2.14649789401855,0.437403123537989,104.));
#358=CARTESIAN_POINT('Ctrl Pts',(1.86189247697169,0.95502110530459,104.));
#359=CARTESIAN_POINT('Ctrl Pts',(1.28499686263903,1.43111607650015,104.));
#360=CARTESIAN_POINT('Ctrl Pts',(0.163802685495534,1.80456607307789,104.));
#361=CARTESIAN_POINT('Ctrl Pts',(-1.05372809700489,1.62037668247792,104.));
#362=CARTESIAN_POINT('Ctrl Pts',(-1.86205454361641,0.955217628777418,104.));
#363=CARTESIAN_POINT('Ctrl Pts',(-2.14648273555741,0.437155116681647,104.));
#364=CARTESIAN_POINT('Ctrl Pts',(-2.2,0.145999122388683,104.));
#365=CARTESIAN_POINT('Ctrl Pts',(-2.2,1.59952219276399E-16,104.));
#366=CARTESIAN_POINT('',(2.35000000175349,6.62097692817619E-5,103.997749493422));
#367=CARTESIAN_POINT('',(4.85000136869338,3.23232845722855E-5,103.239990414737));
#368=CARTESIAN_POINT('Ctrl Pts',(2.35000000175349,6.62097692818444E-5,103.997749493422));
#369=CARTESIAN_POINT('Ctrl Pts',(2.35000517662092,0.097764545303093,103.997749197361));
#370=CARTESIAN_POINT('Ctrl Pts',(2.36147028712605,0.195144100319099,103.997198389761));
#371=CARTESIAN_POINT('Ctrl Pts',(2.40598058198743,0.381672448549232,103.993750785099));
#372=CARTESIAN_POINT('Ctrl Pts',(2.43808038258369,0.470402091803876,103.990876259487));
#373=CARTESIAN_POINT('Ctrl Pts',(2.52808670559009,0.652189207989376,103.979859243557));
#374=CARTESIAN_POINT('Ctrl Pts',(2.58875376173467,0.742701261696882,103.970966035752));
#375=CARTESIAN_POINT('Ctrl Pts',(2.76830852823781,0.947474181723162,103.93848329801));
#376=CARTESIAN_POINT('Ctrl Pts',(2.89846043490637,1.04704226730982,103.910040264249));
#377=CARTESIAN_POINT('Ctrl Pts',(3.18970337491459,1.19211612047585,103.83528829464));
#378=CARTESIAN_POINT('Ctrl Pts',(3.34805633175311,1.2348756398608,103.789597078975));
#379=CARTESIAN_POINT('Ctrl Pts',(3.68254013497743,1.25941507104922,103.684454227745));
#380=CARTESIAN_POINT('Ctrl Pts',(3.85658031974434,1.23557435405026,103.624990775039));
#381=CARTESIAN_POINT('Ctrl Pts',(4.16336208200627,1.12622973833687,103.514302480013));
#382=CARTESIAN_POINT('Ctrl Pts',(4.29733674205458,1.04883214578981,103.463405689707));
#383=CARTESIAN_POINT('Ctrl Pts',(4.53233154765374,0.847000749307747,103.371388908461));
#384=CARTESIAN_POINT('Ctrl Pts',(4.63171484885202,0.723439698456438,103.330919573901));
#385=CARTESIAN_POINT('Ctrl Pts',(4.75906434798155,0.481760046158956,103.278311909858));
#386=CARTESIAN_POINT('Ctrl Pts',(4.79856119448052,0.373292774721418,103.261703232346));
#387=CARTESIAN_POINT('Ctrl Pts',(4.84078509774724,0.174799216136972,103.243900708776));
#388=CARTESIAN_POINT('Ctrl Pts',(4.84998694816112,0.0877099634578677,103.239993736519));
#389=CARTESIAN_POINT('Ctrl Pts',(4.84999998613091,0.00018620615185299,103.239988213406));
#390=CARTESIAN_POINT('',(7.19999999282415,0.000299002752495861,99.));
#391=CARTESIAN_POINT('Origin',(2.1999999985838,5.90099861303627E-5,99.));
#392=CARTESIAN_POINT('',(-7.2,-7.52238217137874E-16,99.));
#393=CARTESIAN_POINT('Ctrl Pts',(7.19999999282415,0.000299002752496003,
99.));
#394=CARTESIAN_POINT('Ctrl Pts',(7.19996448467251,0.740074457927604,99.));
#395=CARTESIAN_POINT('Ctrl Pts',(6.91803813405582,2.20266967006753,99.));
#396=CARTESIAN_POINT('Ctrl Pts',(5.67532749942872,4.37636952320573,99.));
#397=CARTESIAN_POINT('Ctrl Pts',(3.69886343076772,5.93080594322927,99.));
#398=CARTESIAN_POINT('Ctrl Pts',(0.424277468914925,6.9834093329589,99.));
#399=CARTESIAN_POINT('Ctrl Pts',(-2.90997729706529,6.52335669142439,99.));
#400=CARTESIAN_POINT('Ctrl Pts',(-5.67513802743951,4.38262159872453,99.));
#401=CARTESIAN_POINT('Ctrl Pts',(-6.91841914123041,2.19913983869199,99.));
#402=CARTESIAN_POINT('Ctrl Pts',(-7.2,0.739775457462274,99.));
#403=CARTESIAN_POINT('Ctrl Pts',(-7.2,8.1056193423842E-16,99.));
#404=CARTESIAN_POINT('',(-2.2,-1.38777878078145E-16,104.));
#405=CARTESIAN_POINT('Origin',(-2.2,-1.38777878078145E-16,99.));
#406=CARTESIAN_POINT('',(2.1999999985838,5.90099861303628E-5,104.));
#407=CARTESIAN_POINT('Ctrl Pts',(-2.2,1.59952219276399E-16,104.));
#408=CARTESIAN_POINT('Ctrl Pts',(-2.2,0.145999122388683,104.));
#409=CARTESIAN_POINT('Ctrl Pts',(-2.14648273555741,0.437155116681647,104.));
#410=CARTESIAN_POINT('Ctrl Pts',(-1.86205454361641,0.955217628777418,104.));
#411=CARTESIAN_POINT('Ctrl Pts',(-1.05372809700489,1.62037668247792,104.));
#412=CARTESIAN_POINT('Ctrl Pts',(0.163802685495534,1.80456607307789,104.));
#413=CARTESIAN_POINT('Ctrl Pts',(1.28499686263903,1.43111607650015,104.));
#414=CARTESIAN_POINT('Ctrl Pts',(1.86189247697169,0.95502110530459,104.));
#415=CARTESIAN_POINT('Ctrl Pts',(2.14649789401855,0.437403123537989,104.));
#416=CARTESIAN_POINT('Ctrl Pts',(2.19999299083715,0.146058132206633,104.));
#417=CARTESIAN_POINT('Ctrl Pts',(2.1999999985838,5.90099861304434E-5,104.));
#418=CARTESIAN_POINT('Origin',(2.1999999985838,5.90099861303627E-5,99.));
#419=CARTESIAN_POINT('',(-1.63815477231224,3.28969230680497,103.628082692273));
#420=CARTESIAN_POINT('',(-1.6,2.9008950555257,103.764246851737));
#421=CARTESIAN_POINT('Ctrl Pts',(-1.63815477231224,3.28969230680497,103.628082692273));
#422=CARTESIAN_POINT('Ctrl Pts',(-1.6130656125238,3.16309406508316,103.68006704694));
#423=CARTESIAN_POINT('Ctrl Pts',(-1.59999999999939,3.03295681791441,103.725419639357));
#424=CARTESIAN_POINT('Ctrl Pts',(-1.6,2.90089505552111,103.764246851737));
#425=CARTESIAN_POINT('Ctrl Pts',(-1.6,2.90089505552111,103.764246851737));
#426=CARTESIAN_POINT('Ctrl Pts',(-1.60000000000047,2.7973443660621,103.794691581073));
#427=CARTESIAN_POINT('Ctrl Pts',(-1.60803105524458,2.69261133956719,103.821127418172));
#428=CARTESIAN_POINT('Ctrl Pts',(-1.65106755497235,2.42134035678669,103.879541658151));
#429=CARTESIAN_POINT('Ctrl Pts',(-1.69848589231891,2.25792828278357,103.905001598318));
#430=CARTESIAN_POINT('Ctrl Pts',(-1.82752108107162,1.9620506076525,103.938521150645));
#431=CARTESIAN_POINT('Ctrl Pts',(-1.90418095109909,1.82969669937595,103.948114777275));
#432=CARTESIAN_POINT('Ctrl Pts',(-2.08152139310499,1.59126301490341,103.958469801753));
#433=CARTESIAN_POINT('Ctrl Pts',(-2.18032097248132,1.4847772643917,103.959707466663));
#434=CARTESIAN_POINT('Ctrl Pts',(-2.38738791137132,1.30515883571157,103.955228855714));
#435=CARTESIAN_POINT('Ctrl Pts',(-2.49327631952034,1.23001499504291,103.950168863944));
#436=CARTESIAN_POINT('Ctrl Pts',(-2.71784954641057,1.10127370990334,103.932007228643));
#437=CARTESIAN_POINT('Ctrl Pts',(-2.83590463862293,1.04814311607082,103.918858412233));
#438=CARTESIAN_POINT('Ctrl Pts',(-3.13528435083695,0.946613784246475,103.873238819834));
#439=CARTESIAN_POINT('Ctrl Pts',(-3.31752418023724,0.912570210360188,103.835038168851));
#440=CARTESIAN_POINT('Ctrl Pts',(-3.73442842106085,0.891611120393203,103.717504058107));
#441=CARTESIAN_POINT('Ctrl Pts',(-3.96184321649606,0.921499023771138,103.631487074285));
#442=CARTESIAN_POINT('Ctrl Pts',(-4.42416051104427,1.05994975096575,103.405426185617));
#443=CARTESIAN_POINT('Ctrl Pts',(-4.64724722011546,1.17995964467388,103.261366971696));
#444=CARTESIAN_POINT('Ctrl Pts',(-5.07494084582453,1.51662299044997,102.903826715353));
#445=CARTESIAN_POINT('Ctrl Pts',(-5.2583723442867,1.74796329334109,102.683922262299));
#446=CARTESIAN_POINT('Ctrl Pts',(-5.54797438297642,2.32163556595875,102.16318912977));
#447=CARTESIAN_POINT('Ctrl Pts',(-5.61213475830013,2.6639984356389,101.866868749163));
#448=CARTESIAN_POINT('Ctrl Pts',(-5.58770202172877,3.22813907876912,101.409561694615));
#449=CARTESIAN_POINT('Ctrl Pts',(-5.53408647226903,3.45699962512918,101.235382865013));
#450=CARTESIAN_POINT('Ctrl Pts',(-5.39383976547155,3.79697411222101,101.020868188061));
#451=CARTESIAN_POINT('Ctrl Pts',(-5.32076228538551,3.9327962596129,100.947531201248));
#452=CARTESIAN_POINT('Ctrl Pts',(-5.18728561396768,4.1196088560156,100.883301066668));
#453=CARTESIAN_POINT('Ctrl Pts',(-5.14383449501678,4.17432225852389,100.869392152242));
#454=CARTESIAN_POINT('Ctrl Pts',(-5.0606371101069,4.26819222591201,100.856059386977));
#455=CARTESIAN_POINT('Ctrl Pts',(-5.02289015077701,4.30743975052039,100.854089474219));
#456=CARTESIAN_POINT('Ctrl Pts',(-4.93850040973023,4.38827155822456,100.858226356399));
#457=CARTESIAN_POINT('Ctrl Pts',(-4.89209855119436,4.42870644396119,100.865458655464));
#458=CARTESIAN_POINT('Ctrl Pts',(-4.75356907096265,4.53879358897281,100.899734104542));
#459=CARTESIAN_POINT('Ctrl Pts',(-4.66003330201754,4.60026840750803,100.93820358645));
#460=CARTESIAN_POINT('Ctrl Pts',(-4.3510674889777,4.77068929104885,101.096900217767));
#461=CARTESIAN_POINT('Ctrl Pts',(-4.11266651729769,4.85019755207826,101.268915820502));
#462=CARTESIAN_POINT('Ctrl Pts',(-3.60218885859955,4.91834645345557,101.673433586942));
#463=CARTESIAN_POINT('Ctrl Pts',(-3.31894566843955,4.90300358463917,101.916648323367));
#464=CARTESIAN_POINT('Ctrl Pts',(-2.7288180317207,4.72931094434288,102.441577785334));
#465=CARTESIAN_POINT('Ctrl Pts',(-2.43810174410601,4.56402788670121,102.71060879597));
#466=CARTESIAN_POINT('Ctrl Pts',(-2.06208848420405,4.1931755178785,103.087585773178));
#467=CARTESIAN_POINT('Ctrl Pts',(-1.94351142906746,4.03922694858593,103.213562829575));
#468=CARTESIAN_POINT('Ctrl Pts',(-1.7518100046958,3.69057481615556,103.4416160989));
#469=CARTESIAN_POINT('Ctrl Pts',(-1.67935708692364,3.4975964625701,103.542712127698));
#470=CARTESIAN_POINT('Ctrl Pts',(-1.63815477231224,3.28969230680497,103.628082692273));
#471=CARTESIAN_POINT('Ctrl Pts',(-7.2,4.16333634234434E-16,99.));
#472=CARTESIAN_POINT('Ctrl Pts',(-7.2,-0.739789676314385,99.));
#473=CARTESIAN_POINT('Ctrl Pts',(-6.91812829987401,-2.20245240862308,99.));
#474=CARTESIAN_POINT('Ctrl Pts',(-5.67543140989746,-4.37627056998814,99.));
#475=CARTESIAN_POINT('Ctrl Pts',(-3.69893268475176,-5.93077657933716,99.));
#476=CARTESIAN_POINT('Ctrl Pts',(-0.424286684079761,-6.98341981802273,99.));
#477=CARTESIAN_POINT('Ctrl Pts',(2.91003385053442,-6.52335192750819,99.));
#478=CARTESIAN_POINT('Ctrl Pts',(5.67524205974095,-4.38252298123442,99.));
#479=CARTESIAN_POINT('Ctrl Pts',(6.91850966632778,-2.19892063616977,99.));
#480=CARTESIAN_POINT('Ctrl Pts',(7.20003550165827,-0.73949067127468,99.));
#481=CARTESIAN_POINT('Ctrl Pts',(7.19999999282415,0.000299002752495861,
99.));
#482=CARTESIAN_POINT('Ctrl Pts',(-7.2,4.16333634234434E-16,99.7479982508547));
#483=CARTESIAN_POINT('Ctrl Pts',(-7.2,-0.739885732767075,99.7479982508547));
#484=CARTESIAN_POINT('Ctrl Pts',(-6.9181787125357,-2.20268524073737,99.7479982508547));
#485=CARTESIAN_POINT('Ctrl Pts',(-5.67539886431909,-4.3767299652283,99.7479982508547));
#486=CARTESIAN_POINT('Ctrl Pts',(-3.69888815225799,-5.93132295246712,99.7479982508547));
#487=CARTESIAN_POINT('Ctrl Pts',(-0.424168441080073,-6.98402881208319,99.7479982508547));
#488=CARTESIAN_POINT('Ctrl Pts',(2.90995920153168,-6.52395226419263,99.7479982508547));
#489=CARTESIAN_POINT('Ctrl Pts',(5.67520420810208,-4.38299403899104,99.7479982508547));
#490=CARTESIAN_POINT('Ctrl Pts',(6.91855719006858,-2.1991573812696,99.7479982508547));
#491=CARTESIAN_POINT('Ctrl Pts',(7.20003550626884,-0.739586727727027,99.7479982508547));
#492=CARTESIAN_POINT('Ctrl Pts',(7.19999999282415,0.000299002752495861,
99.7479982508547));
#493=CARTESIAN_POINT('Ctrl Pts',(-6.85766356715992,3.78326655243725E-16,
101.24083074837));
#494=CARTESIAN_POINT('Ctrl Pts',(-6.85766356715992,-0.699233514060982,101.24083074837));
#495=CARTESIAN_POINT('Ctrl Pts',(-6.59148088203429,-2.0818406684893,101.24083074837));
#496=CARTESIAN_POINT('Ctrl Pts',(-5.41429718099301,-4.14249778737969,101.24083074837));
#497=CARTESIAN_POINT('Ctrl Pts',(-3.53361281607252,-5.62325873529933,101.24083074837));
#498=CARTESIAN_POINT('Ctrl Pts',(-0.406330617696969,-6.62946487802598,101.24083074837));
#499=CARTESIAN_POINT('Ctrl Pts',(2.78286228092978,-6.18827625668091,101.24083074837));
#500=CARTESIAN_POINT('Ctrl Pts',(5.41412643449153,-4.14834757064708,101.24083074837));
#501=CARTESIAN_POINT('Ctrl Pts',(6.59183212968102,-2.07853773005349,101.24083074837));
#502=CARTESIAN_POINT('Ctrl Pts',(6.85769712257542,-0.698950940819517,101.24083074837));
#503=CARTESIAN_POINT('Ctrl Pts',(6.85766356037841,0.000282571098986863,
101.24083074837));
#504=CARTESIAN_POINT('Ctrl Pts',(-5.1849958317627,1.92623232005166E-16,
103.343797174643));
#505=CARTESIAN_POINT('Ctrl Pts',(-5.1849958317627,-0.50053445898983,103.343797174643));
#506=CARTESIAN_POINT('Ctrl Pts',(-4.99518669324807,-1.49121802774661,103.343797174643));
#507=CARTESIAN_POINT('Ctrl Pts',(-4.13856928296762,-2.99769213176785,103.343797174643));
#508=CARTESIAN_POINT('Ctrl Pts',(-2.72610463551652,-4.11764296616358,103.343797174643));
#509=CARTESIAN_POINT('Ctrl Pts',(-0.31926166544731,-4.89660365248216,103.343797174643));
#510=CARTESIAN_POINT('Ctrl Pts',(2.16191739751309,-4.54770848809275,103.343797174643));
#511=CARTESIAN_POINT('Ctrl Pts',(4.13851927652674,-3.00150906924099,103.343797174643));
#512=CARTESIAN_POINT('Ctrl Pts',(4.99540702701021,-1.48901117316669,103.343797174643));
#513=CARTESIAN_POINT('Ctrl Pts',(5.18501985183785,-0.500332172088859,103.343797174643));
#514=CARTESIAN_POINT('Ctrl Pts',(5.184995826908,0.000202285467581205,103.343797174643));
#515=CARTESIAN_POINT('Ctrl Pts',(-3.32199737628207,-1.42111460064041E-17,
104.));
#516=CARTESIAN_POINT('Ctrl Pts',(-3.32199737628207,-0.27943360264303,104.));
#517=CARTESIAN_POINT('Ctrl Pts',(-3.21736134836974,-0.833893147370412,104.));
#518=CARTESIAN_POINT('Ctrl Pts',(-2.71760749733058,-1.72361484632405,104.));
#519=CARTESIAN_POINT('Ctrl Pts',(-1.82661474440396,-2.44188770599596,104.));
#520=CARTESIAN_POINT('Ctrl Pts',(-0.222029317023135,-2.96788050650993,104.));
#521=CARTESIAN_POINT('Ctrl Pts',(1.47015441645479,-2.72176201488423,104.));
#522=CARTESIAN_POINT('Ctrl Pts',(2.71768048508155,-1.72519286606692,104.));
#523=CARTESIAN_POINT('Ctrl Pts',(3.21742961878666,-0.832915568103483,104.));
#524=CARTESIAN_POINT('Ctrl Pts',(3.32201078598206,-0.279320737761706,104.));
#525=CARTESIAN_POINT('Ctrl Pts',(3.32199737357341,0.000112864236968116,
104.));
#526=CARTESIAN_POINT('Ctrl Pts',(-2.2,-1.38777878078141E-16,104.));
#527=CARTESIAN_POINT('Ctrl Pts',(-2.2,-0.146001928564407,104.));
#528=CARTESIAN_POINT('Ctrl Pts',(-2.1465165506876,-0.437355427371661,104.));
#529=CARTESIAN_POINT('Ctrl Pts',(-1.86192072610886,-0.954992133141286,104.));
#530=CARTESIAN_POINT('Ctrl Pts',(-1.2850203128105,-1.43110590671777,104.));
#531=CARTESIAN_POINT('Ctrl Pts',(-0.163806732236905,-1.80456999590755,104.));
#532=CARTESIAN_POINT('Ctrl Pts',(1.05374981127022,-1.62037371355867,104.));
#533=CARTESIAN_POINT('Ctrl Pts',(1.86208286255091,-0.955188622519228,104.));
#534=CARTESIAN_POINT('Ctrl Pts',(2.14650144810977,-0.437107066336207,104.));
#535=CARTESIAN_POINT('Ctrl Pts',(2.20000700646515,-0.145942918410092,104.));
#536=CARTESIAN_POINT('Ctrl Pts',(2.1999999985838,5.90099861303628E-5,104.));
#537=CARTESIAN_POINT('Ctrl Pts',(4.85,-1.70893560966789E-13,103.239988207531));
#538=CARTESIAN_POINT('Ctrl Pts',(4.85,-0.0899166726965306,103.239988207531));
#539=CARTESIAN_POINT('Ctrl Pts',(4.84030202962292,-0.179364605722717,103.244106340756));
#540=CARTESIAN_POINT('Ctrl Pts',(4.79281423933057,-0.39667527114644,103.264123173408));
#541=CARTESIAN_POINT('Ctrl Pts',(4.74420383101432,-0.519972833006695,103.284556968264));
#542=CARTESIAN_POINT('Ctrl Pts',(4.60726244892741,-0.753321313657234,103.34084854403));
#543=CARTESIAN_POINT('Ctrl Pts',(4.51748169434869,-0.859947469145,103.377211548437));
#544=CARTESIAN_POINT('Ctrl Pts',(4.29854750974558,-1.04757771786762,103.462922797357));
#545=CARTESIAN_POINT('Ctrl Pts',(4.1674759381881,-1.12375605635334,103.512732431333));
#546=CARTESIAN_POINT('Ctrl Pts',(3.87570044094731,-1.22979097273554,103.618179940931));
#547=CARTESIAN_POINT('Ctrl Pts',(3.71477655048947,-1.25520689784998,103.673488065726));
#548=CARTESIAN_POINT('Ctrl Pts',(3.38850387106133,-1.24292288679531,103.777525664729));
#549=CARTESIAN_POINT('Ctrl Pts',(3.22518783859482,-1.20425831442049,103.825423593616));
#550=CARTESIAN_POINT('Ctrl Pts',(2.9271291239489,-1.06563444236379,103.903272064694));
#551=CARTESIAN_POINT('Ctrl Pts',(2.79457412725293,-0.969852136389256,103.932996202125));
#552=CARTESIAN_POINT('Ctrl Pts',(2.60767249660237,-0.768207584889838,103.967925878472));
#553=CARTESIAN_POINT('Ctrl Pts',(2.54312598671936,-0.676773872571148,103.977752518415));
#554=CARTESIAN_POINT('Ctrl Pts',(2.44790242202776,-0.494017991416008,103.989848157593));
#555=CARTESIAN_POINT('Ctrl Pts',(2.41391428143936,-0.405718302989721,103.993047922724));
#556=CARTESIAN_POINT('Ctrl Pts',(2.37668450338356,-0.262446286040751,103.996054481795));
#557=CARTESIAN_POINT('Ctrl Pts',(2.36654537275676,-0.209689678162717,103.996731385108));
#558=CARTESIAN_POINT('Ctrl Pts',(2.35328040382898,-0.104535769130552,103.997571617679));
#559=CARTESIAN_POINT('Ctrl Pts',(2.34999723025598,-0.0522579700196212,103.997749651983));
#560=CARTESIAN_POINT('Ctrl Pts',(2.35000000175349,6.62097692817619E-5,103.997749493422));
#561=CARTESIAN_POINT('Ctrl Pts',(2.1999999985838,5.90099861303628E-5,104.));
#562=CARTESIAN_POINT('Ctrl Pts',(2.20000700646515,-0.145942918410092,104.));
#563=CARTESIAN_POINT('Ctrl Pts',(2.14650144810977,-0.437107066336207,104.));
#564=CARTESIAN_POINT('Ctrl Pts',(1.86208286255091,-0.955188622519228,104.));
#565=CARTESIAN_POINT('Ctrl Pts',(1.05374981127022,-1.62037371355867,104.));
#566=CARTESIAN_POINT('Ctrl Pts',(-0.163806732236905,-1.80456999590755,104.));
#567=CARTESIAN_POINT('Ctrl Pts',(-1.2850203128105,-1.43110590671777,104.));
#568=CARTESIAN_POINT('Ctrl Pts',(-1.86192072610886,-0.954992133141286,104.));
#569=CARTESIAN_POINT('Ctrl Pts',(-2.1465165506876,-0.437355427371661,104.));
#570=CARTESIAN_POINT('Ctrl Pts',(-2.2,-0.146001928564407,104.));
#571=CARTESIAN_POINT('Ctrl Pts',(-2.2,-1.38777878078141E-16,104.));
#572=CARTESIAN_POINT('Ctrl Pts',(-7.2,4.16333634234434E-16,99.));
#573=CARTESIAN_POINT('Ctrl Pts',(-7.2,-0.739789676314385,99.));
#574=CARTESIAN_POINT('Ctrl Pts',(-6.91812829987401,-2.20245240862308,99.));
#575=CARTESIAN_POINT('Ctrl Pts',(-5.67543140989746,-4.37627056998814,99.));
#576=CARTESIAN_POINT('Ctrl Pts',(-3.69893268475176,-5.93077657933716,99.));
#577=CARTESIAN_POINT('Ctrl Pts',(-0.424286684079761,-6.98341981802273,99.));
#578=CARTESIAN_POINT('Ctrl Pts',(2.91003385053442,-6.52335192750819,99.));
#579=CARTESIAN_POINT('Ctrl Pts',(5.67524205974095,-4.38252298123442,99.));
#580=CARTESIAN_POINT('Ctrl Pts',(6.91850966632778,-2.19892063616977,99.));
#581=CARTESIAN_POINT('Ctrl Pts',(7.20003550165827,-0.73949067127468,99.));
#582=CARTESIAN_POINT('Ctrl Pts',(7.19999999282415,0.000299002752495861,
99.));
#583=CARTESIAN_POINT('',(-1.94568170469028,-1.77695956903493,103.949981870374));
#584=CARTESIAN_POINT('',(-1.6,-2.90089505552677,103.764246851736));
#585=CARTESIAN_POINT('Ctrl Pts',(-1.94568170469028,-1.77695956903493,103.949981870374));
#586=CARTESIAN_POINT('Ctrl Pts',(-1.85893506334897,-1.90464176926075,103.942889420739));
#587=CARTESIAN_POINT('Ctrl Pts',(-1.78756534197936,-2.04152589979724,103.931133950645));
#588=CARTESIAN_POINT('Ctrl Pts',(-1.66852492083901,-2.35178161632227,103.891051836896));
#589=CARTESIAN_POINT('Ctrl Pts',(-1.62787213915581,-2.52484069629171,103.860435881876));
#590=CARTESIAN_POINT('Ctrl Pts',(-1.60333049505365,-2.76692500239063,103.801832955963));
#591=CARTESIAN_POINT('Ctrl Pts',(-1.6,-2.83423200056689,103.783846322058));
#592=CARTESIAN_POINT('Ctrl Pts',(-1.6,-2.90089505552326,103.764246851736));
#593=CARTESIAN_POINT('Ctrl Pts',(-1.59999999999999,-2.90089505552326,103.764246851736));
#594=CARTESIAN_POINT('Ctrl Pts',(-1.59999999999998,-3.08599674945082,103.709825476072));
#595=CARTESIAN_POINT('Ctrl Pts',(-1.62562739254041,-3.26611002809416,103.642888622874));
#596=CARTESIAN_POINT('Ctrl Pts',(-1.74155643260125,-3.68262508856141,103.450211317965));
#597=CARTESIAN_POINT('Ctrl Pts',(-1.85292968373859,-3.90231081993727,103.314882580024));
#598=CARTESIAN_POINT('Ctrl Pts',(-2.16758058315251,-4.32731196632326,102.975323150199));
#599=CARTESIAN_POINT('Ctrl Pts',(-2.38487693725458,-4.51251462310105,102.764450805983));
#600=CARTESIAN_POINT('Ctrl Pts',(-2.93511623585428,-4.8210177933197,102.253477527092));
#601=CARTESIAN_POINT('Ctrl Pts',(-3.27362729798517,-4.90061567800973,101.953453712085));
#602=CARTESIAN_POINT('Ctrl Pts',(-3.83636923184695,-4.90109865949396,101.483839069175));
#603=CARTESIAN_POINT('Ctrl Pts',(-4.06259399390841,-4.85895573602045,101.30523414934));
#604=CARTESIAN_POINT('Ctrl Pts',(-4.42922550135676,-4.72881034837325,101.057140544173));
#605=CARTESIAN_POINT('Ctrl Pts',(-4.59464910880472,-4.6467641193198,100.960382355875));
#606=CARTESIAN_POINT('Ctrl Pts',(-4.812635753171,-4.49303213819673,100.883790428423));
#607=CARTESIAN_POINT('Ctrl Pts',(-4.8711307140339,-4.44684928850336,100.868838213991));
#608=CARTESIAN_POINT('Ctrl Pts',(-4.96886559194883,-4.36007937432694,100.855644979525));
#609=CARTESIAN_POINT('Ctrl Pts',(-5.00835613568525,-4.32200601418679,100.85400865574));
#610=CARTESIAN_POINT('Ctrl Pts',(-5.08817188217236,-4.2384353455001,100.858864530154));
#611=CARTESIAN_POINT('Ctrl Pts',(-5.12751014791943,-4.19327146841229,100.866159998477));
#612=CARTESIAN_POINT('Ctrl Pts',(-5.2303402494211,-4.06415053470349,100.898391931029));
#613=CARTESIAN_POINT('Ctrl Pts',(-5.28736041386035,-3.97911237195889,100.932236060957));
#614=CARTESIAN_POINT('Ctrl Pts',(-5.45272919936591,-3.68982095223818,101.07514047143));
#615=CARTESIAN_POINT('Ctrl Pts',(-5.53334679035362,-3.46503497925572,101.231938276368));
#616=CARTESIAN_POINT('Ctrl Pts',(-5.6147436881394,-2.97935571095986,101.605492125211));
#617=CARTESIAN_POINT('Ctrl Pts',(-5.61085866390254,-2.70551062477067,101.834712024444));
#618=CARTESIAN_POINT('Ctrl Pts',(-5.46726371061227,-2.11576591674336,102.34656313922));
#619=CARTESIAN_POINT('Ctrl Pts',(-5.31525615074985,-1.81817745963693,102.615643039491));
#620=CARTESIAN_POINT('Ctrl Pts',(-4.90367384265267,-1.35880478604716,103.065172095524));
#621=CARTESIAN_POINT('Ctrl Pts',(-4.66836765936161,-1.18326384433362,103.252448274491));
#622=CARTESIAN_POINT('Ctrl Pts',(-4.16346292044702,-0.966095035475612,103.543569172072));
#623=CARTESIAN_POINT('Ctrl Pts',(-3.91252325819963,-0.9078031665965,103.653775279444));
#624=CARTESIAN_POINT('Ctrl Pts',(-3.44559296842796,-0.896626009695311,103.804085074193));
#625=CARTESIAN_POINT('Ctrl Pts',(-3.24080076861505,-0.922335149062887,103.852768540323));
#626=CARTESIAN_POINT('Ctrl Pts',(-2.91227330453615,-1.01814423061875,103.908798229406));
#627=CARTESIAN_POINT('Ctrl Pts',(-2.78807772943335,-1.06820406812638,103.924476759742));
#628=CARTESIAN_POINT('Ctrl Pts',(-2.55687948105035,-1.18973723082945,103.946015846321));
#629=CARTESIAN_POINT('Ctrl Pts',(-2.45009950531012,-1.25958011017585,103.952329487878));
#630=CARTESIAN_POINT('Ctrl Pts',(-2.23983370838363,-1.42776239063245,103.95936863547));
#631=CARTESIAN_POINT('Ctrl Pts',(-2.1386239770471,-1.52813678226368,103.959421109071));
#632=CARTESIAN_POINT('Ctrl Pts',(-2.01265018468888,-1.68283945512843,103.95462198313));
#633=CARTESIAN_POINT('Ctrl Pts',(-1.97812879164971,-1.72920076950288,103.952634760751));
#634=CARTESIAN_POINT('Ctrl Pts',(-1.94568170469028,-1.77695956903493,103.949981870374));
#635=CARTESIAN_POINT('Ctrl Pts',(-7.2,-8.10587043885025E-16,97.));
#636=CARTESIAN_POINT('Ctrl Pts',(-7.2,-8.10587043885025E-16,104.));
#637=CARTESIAN_POINT('Ctrl Pts',(-7.2,-1.83565302149555,97.));
#638=CARTESIAN_POINT('Ctrl Pts',(-7.2,-1.83565302149555,104.));
#639=CARTESIAN_POINT('Ctrl Pts',(-6.34843292369679,-3.66652879978166,97.));
#640=CARTESIAN_POINT('Ctrl Pts',(-6.34843292369679,-3.66652879978166,104.));
#641=CARTESIAN_POINT('Ctrl Pts',(-4.87765621688895,-4.92737731595549,97.));
#642=CARTESIAN_POINT('Ctrl Pts',(-4.87765621688895,-4.92737731595549,104.));
#643=CARTESIAN_POINT('Ctrl Pts',(-3.45028862386199,-6.1510126260419,97.));
#644=CARTESIAN_POINT('Ctrl Pts',(-3.45028862386199,-6.1510126260419,104.));
#645=CARTESIAN_POINT('Ctrl Pts',(-1.45323970325429,-6.81028247502669,97.));
#646=CARTESIAN_POINT('Ctrl Pts',(-1.45323970325429,-6.81028247502669,104.));
#647=CARTESIAN_POINT('Ctrl Pts',(0.499386824808551,-6.68385207936061,97.));
#648=CARTESIAN_POINT('Ctrl Pts',(0.499386824808551,-6.68385207936061,104.));
#649=CARTESIAN_POINT('Ctrl Pts',(2.50578999750986,-6.55393970577324,97.));
#650=CARTESIAN_POINT('Ctrl Pts',(2.50578999750986,-6.55393970577324,104.));
#651=CARTESIAN_POINT('Ctrl Pts',(4.42916026851863,-5.59505064259623,97.));
#652=CARTESIAN_POINT('Ctrl Pts',(4.42916026851863,-5.59505064259623,104.));
#653=CARTESIAN_POINT('Ctrl Pts',(5.65715941643398,-4.14347615017465,97.));
#654=CARTESIAN_POINT('Ctrl Pts',(5.65715941643398,-4.14347615017465,104.));
#655=CARTESIAN_POINT('Ctrl Pts',(6.65233349890841,-2.96711595799436,97.));
#656=CARTESIAN_POINT('Ctrl Pts',(6.65233349890841,-2.96711595799436,104.));
#657=CARTESIAN_POINT('Ctrl Pts',(7.20007118951871,-1.48301017262271,97.));
#658=CARTESIAN_POINT('Ctrl Pts',(7.20007118951871,-1.48301017262271,104.));
#659=CARTESIAN_POINT('Ctrl Pts',(7.19999999282415,0.000299002752495861,
97.));
#660=CARTESIAN_POINT('Ctrl Pts',(7.19999999282415,0.000299002752495861,
104.));
#661=CARTESIAN_POINT('',(-7.2,-8.10587043885025E-16,97.));
#662=CARTESIAN_POINT('',(-7.2,-8.10587043885025E-16,97.));
#663=CARTESIAN_POINT('',(7.19999999282415,0.000299002752495861,97.));
#664=CARTESIAN_POINT('Ctrl Pts',(-7.2,-8.10587043885025E-16,97.));
#665=CARTESIAN_POINT('Ctrl Pts',(-7.2,-1.83565302149555,97.));
#666=CARTESIAN_POINT('Ctrl Pts',(-6.34843292369679,-3.66652879978166,97.));
#667=CARTESIAN_POINT('Ctrl Pts',(-4.87765621688895,-4.92737731595549,97.));
#668=CARTESIAN_POINT('Ctrl Pts',(-3.45028862386199,-6.1510126260419,97.));
#669=CARTESIAN_POINT('Ctrl Pts',(-1.45323970325429,-6.81028247502669,97.));
#670=CARTESIAN_POINT('Ctrl Pts',(0.499386824808551,-6.68385207936061,97.));
#671=CARTESIAN_POINT('Ctrl Pts',(2.50578999750986,-6.55393970577324,97.));
#672=CARTESIAN_POINT('Ctrl Pts',(4.42916026851863,-5.59505064259623,97.));
#673=CARTESIAN_POINT('Ctrl Pts',(5.65715941643398,-4.14347615017465,97.));
#674=CARTESIAN_POINT('Ctrl Pts',(6.65233349890841,-2.96711595799436,97.));
#675=CARTESIAN_POINT('Ctrl Pts',(7.20007118951871,-1.48301017262271,97.));
#676=CARTESIAN_POINT('Ctrl Pts',(7.19999999282415,0.000299002752495861,
97.));
#677=CARTESIAN_POINT('',(7.19999999282415,0.000299002752495861,97.));
#678=CARTESIAN_POINT('Origin',(-0.654467054046803,-4.28167120046654E-5,
104.));
#679=CARTESIAN_POINT('Origin',(-3.6,-2.90089505553029,97.));
#680=CARTESIAN_POINT('',(-1.6,-2.90089505553029,77.));
#681=CARTESIAN_POINT('',(-1.6,-2.90089505553029,97.));
#682=CARTESIAN_POINT('Origin',(-3.6,-2.90089505553029,77.));
#683=CARTESIAN_POINT('Origin',(3.6,-1.70237900457184E-13,97.));
#684=CARTESIAN_POINT('',(4.85,-1.70390981307077E-13,82.8500011473894));
#685=CARTESIAN_POINT('',(4.85,-1.70390981307077E-13,97.));
#686=CARTESIAN_POINT('Origin',(3.6,-1.70237900457184E-13,81.6000011473894));
#687=CARTESIAN_POINT('Origin',(-3.6,2.90089505553029,97.));
#688=CARTESIAN_POINT('',(-1.6,2.90089505553029,77.));
#689=CARTESIAN_POINT('',(-1.6,2.90089505553029,97.));
#690=CARTESIAN_POINT('Origin',(-3.6,2.90089505553029,77.));
#691=CARTESIAN_POINT('Ctrl Pts',(7.19999999282415,0.000299002752495861,
97.));
#692=CARTESIAN_POINT('Ctrl Pts',(7.19999999282415,0.000299002752495861,
104.));
#693=CARTESIAN_POINT('Ctrl Pts',(7.19997798398912,0.458830218982919,97.));
#694=CARTESIAN_POINT('Ctrl Pts',(7.19997798398912,0.458830218982919,104.));
#695=CARTESIAN_POINT('Ctrl Pts',(7.14922497306918,0.917055215938152,97.));
#696=CARTESIAN_POINT('Ctrl Pts',(7.14922497306918,0.917055215938152,104.));
#697=CARTESIAN_POINT('Ctrl Pts',(7.04856328225621,1.36636509925681,97.));
#698=CARTESIAN_POINT('Ctrl Pts',(7.04856328225621,1.36636509925681,104.));
#699=CARTESIAN_POINT('Ctrl Pts',(6.65363985144796,3.12913104510154,97.));
#700=CARTESIAN_POINT('Ctrl Pts',(6.65363985144796,3.12913104510154,104.));
#701=CARTESIAN_POINT('Ctrl Pts',(5.45193073371656,4.74235207440143,97.));
#702=CARTESIAN_POINT('Ctrl Pts',(5.45193073371656,4.74235207440143,104.));
#703=CARTESIAN_POINT('Ctrl Pts',(3.77781438738664,5.70300976641335,97.));
#704=CARTESIAN_POINT('Ctrl Pts',(3.77781438738664,5.70300976641335,104.));
#705=CARTESIAN_POINT('Ctrl Pts',(2.1217075451301,6.65333306998487,97.));
#706=CARTESIAN_POINT('Ctrl Pts',(2.1217075451301,6.65333306998487,104.));
#707=CARTESIAN_POINT('Ctrl Pts',(0.0214323831532809,6.94176858455208,97.));
#708=CARTESIAN_POINT('Ctrl Pts',(0.0214323831532809,6.94176858455208,104.));
#709=CARTESIAN_POINT('Ctrl Pts',(-1.86316427829555,6.47161519496585,97.));
#710=CARTESIAN_POINT('Ctrl Pts',(-1.86316427829555,6.47161519496585,104.));
#711=CARTESIAN_POINT('Ctrl Pts',(-3.80623766707081,5.98687352125134,97.));
#712=CARTESIAN_POINT('Ctrl Pts',(-3.80623766707081,5.98687352125134,104.));
#713=CARTESIAN_POINT('Ctrl Pts',(-5.49504834322864,4.70480596383422,97.));
#714=CARTESIAN_POINT('Ctrl Pts',(-5.49504834322864,4.70480596383422,104.));
#715=CARTESIAN_POINT('Ctrl Pts',(-6.40221510952217,3.06440662493046,97.));
#716=CARTESIAN_POINT('Ctrl Pts',(-6.40221510952217,3.06440662493046,104.));
#717=CARTESIAN_POINT('Ctrl Pts',(-6.92555683389041,2.11806527891535,97.));
#718=CARTESIAN_POINT('Ctrl Pts',(-6.92555683389041,2.11806527891535,104.));
#719=CARTESIAN_POINT('Ctrl Pts',(-7.2,1.05861326009607,97.));
#720=CARTESIAN_POINT('Ctrl Pts',(-7.2,1.05861326009607,104.));
#721=CARTESIAN_POINT('Ctrl Pts',(-7.2,8.1056193423842E-16,97.));
#722=CARTESIAN_POINT('Ctrl Pts',(-7.2,8.1056193423842E-16,104.));
#723=CARTESIAN_POINT('Ctrl Pts',(7.19999999282415,0.000299002752495861,
97.));
#724=CARTESIAN_POINT('Ctrl Pts',(7.19997798398912,0.458830218982919,97.));
#725=CARTESIAN_POINT('Ctrl Pts',(7.14922497306918,0.917055215938152,97.));
#726=CARTESIAN_POINT('Ctrl Pts',(7.04856328225621,1.36636509925681,97.));
#727=CARTESIAN_POINT('Ctrl Pts',(6.65363985144796,3.12913104510154,97.));
#728=CARTESIAN_POINT('Ctrl Pts',(5.45193073371656,4.74235207440143,97.));
#729=CARTESIAN_POINT('Ctrl Pts',(3.77781438738664,5.70300976641335,97.));
#730=CARTESIAN_POINT('Ctrl Pts',(2.1217075451301,6.65333306998487,97.));
#731=CARTESIAN_POINT('Ctrl Pts',(0.0214323831532809,6.94176858455208,97.));
#732=CARTESIAN_POINT('Ctrl Pts',(-1.86316427829555,6.47161519496585,97.));
#733=CARTESIAN_POINT('Ctrl Pts',(-3.80623766707081,5.98687352125134,97.));
#734=CARTESIAN_POINT('Ctrl Pts',(-5.49504834322864,4.70480596383422,97.));
#735=CARTESIAN_POINT('Ctrl Pts',(-6.40221510952217,3.06440662493046,97.));
#736=CARTESIAN_POINT('Ctrl Pts',(-6.92555683389041,2.11806527891535,97.));
#737=CARTESIAN_POINT('Ctrl Pts',(-7.2,1.05861326009607,97.));
#738=CARTESIAN_POINT('Ctrl Pts',(-7.2,8.1056193423842E-16,97.));
#739=CARTESIAN_POINT('Origin',(-1.,-2.22056692246697E-5,78.));
#740=CARTESIAN_POINT('',(-1.50222535662204E-31,-6.98499998278916,78.0000011473894));
#741=CARTESIAN_POINT('',(-0.999999999674925,-6.93746442646844,77.));
#742=CARTESIAN_POINT('Ctrl Pts',(-0.000753586520965355,-6.98503562299438,
78.0000011473894));
#743=CARTESIAN_POINT('Ctrl Pts',(-0.00075358504242156,-6.98522941138232,
77.9870832535588));
#744=CARTESIAN_POINT('Ctrl Pts',(-0.00100387715736887,-6.98542331090788,
77.9741553914525));
#745=CARTESIAN_POINT('Ctrl Pts',(-0.00150560283512013,-6.98561714363371,
77.9612247286625));
#746=CARTESIAN_POINT('Ctrl Pts',(-0.00374454812486461,-6.98648212002965,
77.9035217889272));
#747=CARTESIAN_POINT('Ctrl Pts',(-0.0109714256039762,-6.98734268014002,
77.8462472189785));
#748=CARTESIAN_POINT('Ctrl Pts',(-0.0230430410141338,-6.98815027147006,
77.7900304225663));
#749=CARTESIAN_POINT('Ctrl Pts',(-0.0354486199032013,-6.98898020496402,
77.7322583780563));
#750=CARTESIAN_POINT('Ctrl Pts',(-0.0529708334996037,-6.9897540577765,77.6756034436651));
#751=CARTESIAN_POINT('Ctrl Pts',(-0.0754525178668353,-6.99036450725183,
77.6207487193497));
#752=CARTESIAN_POINT('Ctrl Pts',(-0.0783016863088783,-6.99044187126746,
77.6137968225584));
#753=CARTESIAN_POINT('Ctrl Pts',(-0.0812305059577083,-6.99051654251686,
77.606873839339));
#754=CARTESIAN_POINT('Ctrl Pts',(-0.0842386530431303,-6.99058824405358,
77.599981160131));
#755=CARTESIAN_POINT('Ctrl Pts',(-0.112834848850619,-6.99126985672931,77.5344576339622));
#756=CARTESIAN_POINT('Ctrl Pts',(-0.148320809456175,-6.99168167882116,77.4723116443699));
#757=CARTESIAN_POINT('Ctrl Pts',(-0.190019293830067,-6.99156249453765,77.414565001455));
#758=CARTESIAN_POINT('Ctrl Pts',(-0.216908315035005,-6.99148563925683,77.3773274200616));
#759=CARTESIAN_POINT('Ctrl Pts',(-0.246380441151916,-6.99118652322698,77.3419191921621));
#760=CARTESIAN_POINT('Ctrl Pts',(-0.278250857931779,-6.99058455316455,77.308614307536));
#761=CARTESIAN_POINT('Ctrl Pts',(-0.32956831447386,-6.98961526642031,77.2549870838556));
#762=CARTESIAN_POINT('Ctrl Pts',(-0.386540489832997,-6.98786778959281,77.2073994526483));
#763=CARTESIAN_POINT('Ctrl Pts',(-0.448040732072868,-6.98505704743706,77.1666124311422));
#764=CARTESIAN_POINT('Ctrl Pts',(-0.496583805762983,-6.98283848603597,77.134418616639));
#765=CARTESIAN_POINT('Ctrl Pts',(-0.547947522001754,-6.97995735665641,77.1064617072848));
#766=CARTESIAN_POINT('Ctrl Pts',(-0.601570231912656,-6.9762959180135,77.0831159393059));
#767=CARTESIAN_POINT('Ctrl Pts',(-0.656765590541399,-6.9725270965696,77.0590854858245));
#768=CARTESIAN_POINT('Ctrl Pts',(-0.713913675076496,-6.96795983325571,77.0401320524299));
#769=CARTESIAN_POINT('Ctrl Pts',(-0.77231574485558,-6.962542847632,77.0264297984648));
#770=CARTESIAN_POINT('Ctrl Pts',(-0.789522621650269,-6.96094685275411,77.0223927327122));
#771=CARTESIAN_POINT('Ctrl Pts',(-0.806838343911341,-6.95927743720249,77.0188114986117));
#772=CARTESIAN_POINT('Ctrl Pts',(-0.824245038699762,-6.95753417085565,77.0156905503479));
#773=CARTESIAN_POINT('Ctrl Pts',(-0.882559372519233,-6.95169403768153,77.0052350318764));
#774=CARTESIAN_POINT('Ctrl Pts',(-0.941591655664047,-6.94505092311823,77.0000000000012));
#775=CARTESIAN_POINT('Ctrl Pts',(-1.00065533697944,-6.93764964258017,77.));
#776=CARTESIAN_POINT('',(-0.999999999999923,6.93746442638678,77.));
#777=CARTESIAN_POINT('',(-1.,-2.22056692246697E-5,77.));
#778=CARTESIAN_POINT('',(-1.50222535662204E-31,6.98499998278916,78.0000011473894));
#779=CARTESIAN_POINT('Ctrl Pts',(-0.998472366614795,6.93764699614372,77.));
#780=CARTESIAN_POINT('Ctrl Pts',(-0.994447496271684,6.9381508005218,76.9999999999999));
#781=CARTESIAN_POINT('Ctrl Pts',(-0.990422223328359,6.93865118942201,77.0000242058645));
#782=CARTESIAN_POINT('Ctrl Pts',(-0.986396764464235,6.93914813725542,77.0000726317537));
#783=CARTESIAN_POINT('Ctrl Pts',(-0.927281675396693,6.94644596749682,77.0007837806806));
#784=CARTESIAN_POINT('Ctrl Pts',(-0.868262693064631,6.95298003129709,77.0067158419348));
#785=CARTESIAN_POINT('Ctrl Pts',(-0.810027465397499,6.9587109354945,77.0178456521616));
#786=CARTESIAN_POINT('Ctrl Pts',(-0.750609072855091,6.96455827444835,77.029201586696));
#787=CARTESIAN_POINT('Ctrl Pts',(-0.692326551306892,6.96953851292633,77.0459071798024));
#788=CARTESIAN_POINT('Ctrl Pts',(-0.635890462602656,6.9736939139103,77.0677735097119));
#789=CARTESIAN_POINT('Ctrl Pts',(-0.617774273937878,6.97502781266076,77.0747926807272));
#790=CARTESIAN_POINT('Ctrl Pts',(-0.599848341105398,6.97627712750983,77.0823436312108));
#791=CARTESIAN_POINT('Ctrl Pts',(-0.582136124714473,6.97744437010105,77.0904201121448));
#792=CARTESIAN_POINT('Ctrl Pts',(-0.517369406983518,6.98171252433768,77.1199526759619));
#793=CARTESIAN_POINT('Ctrl Pts',(-0.456071565671674,6.98483918415468,77.1562342719784));
#794=CARTESIAN_POINT('Ctrl Pts',(-0.399238071685368,6.98704795970873,77.1985767368111));
#795=CARTESIAN_POINT('Ctrl Pts',(-0.35138042049276,6.98890789832264,77.2342319599985));
#796=CARTESIAN_POINT('Ctrl Pts',(-0.306688126244868,6.99011878629392,77.2741848122858));
#797=CARTESIAN_POINT('Ctrl Pts',(-0.265746631973254,6.99083443876282,77.3180243969933));
#798=CARTESIAN_POINT('Ctrl Pts',(-0.218463559815012,6.9916609412618,77.3686544554216));
#799=CARTESIAN_POINT('Ctrl Pts',(-0.176687686889845,6.99182215811386,77.4239305749514));
#800=CARTESIAN_POINT('Ctrl Pts',(-0.141010139860788,6.99158519051268,77.482906326612));
#801=CARTESIAN_POINT('Ctrl Pts',(-0.109129743507349,6.99137344330253,77.5356053066358));
#802=CARTESIAN_POINT('Ctrl Pts',(-0.0821182554801307,6.99084425663778,77.5912583240788));
#803=CARTESIAN_POINT('Ctrl Pts',(-0.0603891593118631,6.99015366481405,77.6491901140029));
#804=CARTESIAN_POINT('Ctrl Pts',(-0.0393329792985308,6.98948445953999,77.705327846916));
#805=CARTESIAN_POINT('Ctrl Pts',(-0.0234254215648678,6.98867107016915,77.7631059760971));
#806=CARTESIAN_POINT('Ctrl Pts',(-0.0127824124991469,6.98781528684438,77.8218119866326));
#807=CARTESIAN_POINT('Ctrl Pts',(-0.002139403433426,6.98695950351961,77.8805179971682));
#808=CARTESIAN_POINT('Ctrl Pts',(0.00323918386774724,6.98606163401919,77.9401518890583));
#809=CARTESIAN_POINT('Ctrl Pts',(0.00323877761922353,6.98516378732924,78.0000011473894));
#810=CARTESIAN_POINT('',(-1.50222535662204E-31,0.,78.0000011473894));
#811=CARTESIAN_POINT('Ctrl Pts',(-7.2,-8.10587043885025E-16,97.));
#812=CARTESIAN_POINT('Ctrl Pts',(-7.3,-8.23590934892842E-16,90.3333333333333));
#813=CARTESIAN_POINT('Ctrl Pts',(-7.4,-8.36594825900659E-16,83.6666666666667));
#814=CARTESIAN_POINT('Ctrl Pts',(-7.5,-8.49598716908476E-16,77.));
#815=CARTESIAN_POINT('Ctrl Pts',(-7.2,-0.990162684568927,97.));
#816=CARTESIAN_POINT('Ctrl Pts',(-7.30008253411336,-1.00604665760282,90.3333333333333));
#817=CARTESIAN_POINT('Ctrl Pts',(-7.39991746588663,-1.02196360002702,83.6666666666667));
#818=CARTESIAN_POINT('Ctrl Pts',(-7.5,-1.03784757306091,77.));
#819=CARTESIAN_POINT('Ctrl Pts',(-6.71914120549975,-2.9743261126771,97.));
#820=CARTESIAN_POINT('Ctrl Pts',(-6.81120463172241,-3.02198277625078,90.3333333333333));
#821=CARTESIAN_POINT('Ctrl Pts',(-6.90335194622597,-3.06967305831559,83.6666666666666));
#822=CARTESIAN_POINT('Ctrl Pts',(-6.99541537244864,-3.11732972188927,77.));
#823=CARTESIAN_POINT('Ctrl Pts',(-4.68266555213701,-5.39114947823755,97.));
#824=CARTESIAN_POINT('Ctrl Pts',(-4.74435237763232,-5.47403181912119,90.3333333333333));
#825=CARTESIAN_POINT('Ctrl Pts',(-4.80595895442818,-5.55691303948168,83.6666666666667));
#826=CARTESIAN_POINT('Ctrl Pts',(-4.86764577992349,-5.63979538036531,77.));
#827=CARTESIAN_POINT('Ctrl Pts',(-1.67337333226002,-6.75639668799099,97.));
#828=CARTESIAN_POINT('Ctrl Pts',(-1.6947600789237,-6.85714184004985,90.3333333333333));
#829=CARTESIAN_POINT('Ctrl Pts',(-1.71619744979514,-6.9578990410503,83.6666666666667));
#830=CARTESIAN_POINT('Ctrl Pts',(-1.73758419645881,-7.05864419310917,77.));
#831=CARTESIAN_POINT('Ctrl Pts',(1.67270221365385,-6.75747986111762,97.));
#832=CARTESIAN_POINT('Ctrl Pts',(1.69407420379048,-6.85824473264078,90.3333333333333));
#833=CARTESIAN_POINT('Ctrl Pts',(1.71546876499014,-6.95900875683039,83.6666666666667));
#834=CARTESIAN_POINT('Ctrl Pts',(1.73684075512677,-7.05977362835355,77.));
#835=CARTESIAN_POINT('Ctrl Pts',(4.68061490988196,-5.38976422128415,96.9999999999999));
#836=CARTESIAN_POINT('Ctrl Pts',(4.74234571326656,-5.47261607777278,90.3333333333333));
#837=CARTESIAN_POINT('Ctrl Pts',(4.80386691905335,-5.55552865140253,83.6666666666666));
#838=CARTESIAN_POINT('Ctrl Pts',(4.86559772243795,-5.63838050789116,77.));
#839=CARTESIAN_POINT('Ctrl Pts',(6.49119042942062,-3.24270068201673,97.));
#840=CARTESIAN_POINT('Ctrl Pts',(6.57980149601786,-3.29430308279617,90.3333333333333));
#841=CARTESIAN_POINT('Ctrl Pts',(6.66849212084046,-3.34591651274456,83.6666666666666));
#842=CARTESIAN_POINT('Ctrl Pts',(6.7571031874377,-3.397518913524,77.));
#843=CARTESIAN_POINT('Ctrl Pts',(7.43841981799761,-0.358874304417365,97.));
#844=CARTESIAN_POINT('Ctrl Pts',(7.54234469784119,-0.364831850311386,90.3333333333333));
#845=CARTESIAN_POINT('Ctrl Pts',(7.64599829601146,-0.370906639888648,83.6666666666666));
#846=CARTESIAN_POINT('Ctrl Pts',(7.74992317585504,-0.376864185782669,77.));
#847=CARTESIAN_POINT('Ctrl Pts',(7.00349066273268,2.35998715248866,96.9999999999999));
#848=CARTESIAN_POINT('Ctrl Pts',(7.1000917902751,2.39812120561642,90.3333333333333));
#849=CARTESIAN_POINT('Ctrl Pts',(7.19678975788638,2.4362841047897,83.6666666666666));
#850=CARTESIAN_POINT('Ctrl Pts',(7.2933908854288,2.47441815791746,76.9999999999999));
#851=CARTESIAN_POINT('Ctrl Pts',(4.98341547718153,5.15862639865403,97.));
#852=CARTESIAN_POINT('Ctrl Pts',(5.0493718980642,5.23840422490439,90.3333333333333));
#853=CARTESIAN_POINT('Ctrl Pts',(5.11543306309603,5.3182153643322,83.6666666666667));
#854=CARTESIAN_POINT('Ctrl Pts',(5.18138948397869,5.39799319058256,77.));
#855=CARTESIAN_POINT('Ctrl Pts',(2.05536147864359,6.7593339961696,96.9999999999999));
#856=CARTESIAN_POINT('Ctrl Pts',(2.08158675759536,6.86014366278469,90.3333333333333));
#857=CARTESIAN_POINT('Ctrl Pts',(2.10786473012617,6.96093869855554,83.6666666666666));
#858=CARTESIAN_POINT('Ctrl Pts',(2.13409000907795,7.06174836517063,77.));
#859=CARTESIAN_POINT('Ctrl Pts',(-1.67785451075917,6.75522903347769,97.));
#860=CARTESIAN_POINT('Ctrl Pts',(-1.69931851615188,6.85594078402572,90.3333333333333));
#861=CARTESIAN_POINT('Ctrl Pts',(-1.72065927360349,6.95670153721953,83.6666666666667));
#862=CARTESIAN_POINT('Ctrl Pts',(-1.74212327899619,7.05741328776755,77.));
#863=CARTESIAN_POINT('Ctrl Pts',(-4.67480531705082,5.39259584020742,97.));
#864=CARTESIAN_POINT('Ctrl Pts',(-4.73639470334814,5.47552977198871,90.3333333333333));
#865=CARTESIAN_POINT('Ctrl Pts',(-4.79794244319339,5.5584392743141,83.6666666666666));
#866=CARTESIAN_POINT('Ctrl Pts',(-4.85953182949071,5.64137320609539,77.));
#867=CARTESIAN_POINT('Ctrl Pts',(-6.72360762262034,2.97018010255343,97.));
#868=CARTESIAN_POINT('Ctrl Pts',(-6.81576597652064,3.01776565336895,90.3333333333333));
#869=CARTESIAN_POINT('Ctrl Pts',(-6.90787999920116,3.06541246855279,83.6666666666667));
#870=CARTESIAN_POINT('Ctrl Pts',(-7.00003835310145,3.11299801936831,77.));
#871=CARTESIAN_POINT('Ctrl Pts',(-7.2,0.990162684568926,97.));
#872=CARTESIAN_POINT('Ctrl Pts',(-7.30003181611666,1.00608523851614,90.3333333333333));
#873=CARTESIAN_POINT('Ctrl Pts',(-7.39996818388333,1.0219250191137,83.6666666666667));
#874=CARTESIAN_POINT('Ctrl Pts',(-7.5,1.03784757306091,77.));
#875=CARTESIAN_POINT('Ctrl Pts',(-7.2,8.1056193423842E-16,97.));
#876=CARTESIAN_POINT('Ctrl Pts',(-7.3,8.23574195128439E-16,90.3333333333333));
#877=CARTESIAN_POINT('Ctrl Pts',(-7.4,8.36586456018458E-16,83.6666666666667));
#878=CARTESIAN_POINT('Ctrl Pts',(-7.5,8.49598716908476E-16,77.));
#879=CARTESIAN_POINT('Ctrl Pts',(-2.63677968348475E-15,-6.98499998278916,
78.0000011473894));
#880=CARTESIAN_POINT('Ctrl Pts',(0.710649686130206,-6.97434023749721,78.7106508335196));
#881=CARTESIAN_POINT('Ctrl Pts',(1.42423545965426,-6.86916329660686,79.4242366070437));
#882=CARTESIAN_POINT('Ctrl Pts',(2.95621161133261,-6.42144553818103,80.956212758722));
#883=CARTESIAN_POINT('Ctrl Pts',(3.78453886360275,-6.02850949306811,81.7845400109921));
#884=CARTESIAN_POINT('Ctrl Pts',(5.11988943134924,-5.03955139160747,83.1198905787386));
#885=CARTESIAN_POINT('Ctrl Pts',(5.66848023985392,-4.50274976619708,83.6684813872433));
#886=CARTESIAN_POINT('Ctrl Pts',(6.54791691368318,-3.26356605527774,84.5479180610726));
#887=CARTESIAN_POINT('Ctrl Pts',(6.89571981617582,-2.58034782557048,84.8957209635859));
#888=CARTESIAN_POINT('Ctrl Pts',(7.24581376295081,-1.36712068399234,85.2458149103609));
#889=CARTESIAN_POINT('Ctrl Pts',(7.32920165011181,-0.902720302929259,85.3292027975013));
#890=CARTESIAN_POINT('Ctrl Pts',(7.38759596190084,-0.0107631708747654,85.3875971092903));
#891=CARTESIAN_POINT('Ctrl Pts',(7.37493728544163,0.403308648867905,85.3749384328463));
#892=CARTESIAN_POINT('Ctrl Pts',(7.25520450468114,1.35450205266149,85.2552056520858));
#893=CARTESIAN_POINT('Ctrl Pts',(7.12108639608568,1.87122816394316,85.1210875434751));
#894=CARTESIAN_POINT('Ctrl Pts',(6.64354537880498,3.11240794020894,84.6435465261944));
#895=CARTESIAN_POINT('Ctrl Pts',(6.23243078020546,3.77078024864183,84.2324319275948));
#896=CARTESIAN_POINT('Ctrl Pts',(5.14395733332941,5.05641877115209,83.1439584807188));
#897=CARTESIAN_POINT('Ctrl Pts',(4.41479567586451,5.61928713527938,82.4147968232539));
#898=CARTESIAN_POINT('Ctrl Pts',(2.5448248931948,6.63815722135105,80.5448260405842));
#899=CARTESIAN_POINT('Ctrl Pts',(1.28485545700051,6.96572715093415,79.2848566043899));
#900=CARTESIAN_POINT('Ctrl Pts',(-1.38777878078145E-15,6.98499998278916,
78.0000011473894));
#901=CARTESIAN_POINT('',(-7.5,-8.49598662991093E-16,77.));
#902=CARTESIAN_POINT('Ctrl Pts',(-0.998472366581712,6.93764699614763,77.0000000000152));
#903=CARTESIAN_POINT('Ctrl Pts',(-1.22760808507296,6.90896543169823,77.0000000000149));
#904=CARTESIAN_POINT('Ctrl Pts',(-1.45522592250925,6.87042719169618,77.0000000000146));
#905=CARTESIAN_POINT('Ctrl Pts',(-1.68025937753411,6.82205686909911,77.0000000000143));
#906=CARTESIAN_POINT('Ctrl Pts',(-2.7812594624943,6.58539992720999,77.0000000000127));
#907=CARTESIAN_POINT('Ctrl Pts',(-3.82039564599246,6.11338656665263,77.0000000000111));
#908=CARTESIAN_POINT('Ctrl Pts',(-4.69671482501,5.45598402191945,77.0000000000095));
#909=CARTESIAN_POINT('Ctrl Pts',(-5.57303400402754,4.79858147718628,77.0000000000079));
#910=CARTESIAN_POINT('Ctrl Pts',(-6.28653617856446,3.95578974827728,77.0000000000063));
#911=CARTESIAN_POINT('Ctrl Pts',(-6.76827767755757,3.01560627224594,77.0000000000047));
#912=CARTESIAN_POINT('Ctrl Pts',(-7.25001917655068,2.0754227962146,77.0000000000032));
#913=CARTESIAN_POINT('Ctrl Pts',(-7.49999999999998,1.03784757306091,77.0000000000016));
#914=CARTESIAN_POINT('Ctrl Pts',(-7.5,5.55111512312578E-16,77.));
#915=CARTESIAN_POINT('',(-7.2,-8.10587043885025E-16,97.));
#916=CARTESIAN_POINT('Ctrl Pts',(-7.5,-8.49598662991093E-16,77.));
#917=CARTESIAN_POINT('Ctrl Pts',(-7.5,-1.91543321787059,77.));
#918=CARTESIAN_POINT('Ctrl Pts',(-6.61479285556794,-3.82346961465607,77.));
#919=CARTESIAN_POINT('Ctrl Pts',(-5.09349017112008,-5.13743139257094,77.));
#920=CARTESIAN_POINT('Ctrl Pts',(-3.97390698667678,-6.10442469810673,77.));
#921=CARTESIAN_POINT('Ctrl Pts',(-2.51973625238141,-6.7465343380427,77.));
#922=CARTESIAN_POINT('Ctrl Pts',(-0.999999999669874,-6.93746442642824,77.));
#923=CARTESIAN_POINT('Origin',(-1.50222535662204E-31,0.,78.0000011473894));
#924=CARTESIAN_POINT('Origin',(-0.681736900959773,-4.44113384493395E-5,
77.));
#925=CARTESIAN_POINT('',(0.,0.,0.));
#926=UNCERTAINTY_MEASURE_WITH_UNIT(LENGTH_MEASURE(0.01),#932,
'DISTANCE_ACCURACY_VALUE',
'Maximum model space distance between geometric entities at asserted c
onnectivities');
#927=UNCERTAINTY_MEASURE_WITH_UNIT(LENGTH_MEASURE(0.01),#932,
'DISTANCE_ACCURACY_VALUE',
'Maximum model space distance between geometric entities at asserted c
onnectivities');
#928=UNCERTAINTY_MEASURE_WITH_UNIT(LENGTH_MEASURE(0.01),#932,
'DISTANCE_ACCURACY_VALUE',
'Maximum model space distance between geometric entities at asserted c
onnectivities');
#929=(
GEOMETRIC_REPRESENTATION_CONTEXT(3)
GLOBAL_UNCERTAINTY_ASSIGNED_CONTEXT((#926))
GLOBAL_UNIT_ASSIGNED_CONTEXT((#932,#934,#935))
REPRESENTATION_CONTEXT('','3D')
);
#930=(
GEOMETRIC_REPRESENTATION_CONTEXT(3)
GLOBAL_UNCERTAINTY_ASSIGNED_CONTEXT((#927))
GLOBAL_UNIT_ASSIGNED_CONTEXT((#932,#934,#935))
REPRESENTATION_CONTEXT('','3D')
);
#931=(
GEOMETRIC_REPRESENTATION_CONTEXT(3)
GLOBAL_UNCERTAINTY_ASSIGNED_CONTEXT((#928))
GLOBAL_UNIT_ASSIGNED_CONTEXT((#932,#934,#935))
REPRESENTATION_CONTEXT('','3D')
);
#932=(
LENGTH_UNIT()
NAMED_UNIT(*)
SI_UNIT(.MILLI.,.METRE.)
);
#933=(
LENGTH_UNIT()
NAMED_UNIT(*)
SI_UNIT($,.METRE.)
);
#934=(
NAMED_UNIT(*)
PLANE_ANGLE_UNIT()
SI_UNIT($,.RADIAN.)
);
#935=(
NAMED_UNIT(*)
SI_UNIT($,.STERADIAN.)
SOLID_ANGLE_UNIT()
);
#936=SHAPE_DEFINITION_REPRESENTATION(#938,#941);
#937=SHAPE_DEFINITION_REPRESENTATION(#939,#942);
#938=PRODUCT_DEFINITION_SHAPE('',$,#944);
#939=PRODUCT_DEFINITION_SHAPE('',$,#945);
#940=PRODUCT_DEFINITION_SHAPE($,$,#14);
#941=SHAPE_REPRESENTATION('',(#242,#257),#929);
#942=SHAPE_REPRESENTATION('',(#243),#930);
#943=PRODUCT_DEFINITION_CONTEXT('part definition',#951,'design');
#944=PRODUCT_DEFINITION('2025-12-07-22-13-42-785','Index Finger',#946,#943);
#945=PRODUCT_DEFINITION('2025-12-07-22-39-16-187','Distal phalanx',#947,
#943);
#946=PRODUCT_DEFINITION_FORMATION('',$,#953);
#947=PRODUCT_DEFINITION_FORMATION('',$,#954);
#948=PRODUCT_RELATED_PRODUCT_CATEGORY('Index Finger','Index Finger',(#953));
#949=PRODUCT_RELATED_PRODUCT_CATEGORY('Distal phalanx','Distal phalanx',
(#954));
#950=APPLICATION_PROTOCOL_DEFINITION('international standard',
'automotive_design',2009,#951);
#951=APPLICATION_CONTEXT(
'Core Data for Automotive Mechanical Design Process');
#952=PRODUCT_CONTEXT('part definition',#951,'mechanical');
#953=PRODUCT('2025-12-07-22-13-42-785','Index Finger',$,(#952));
#954=PRODUCT('2025-12-07-22-39-16-187','Distal phalanx',$,(#952));
#955=PRESENTATION_STYLE_ASSIGNMENT((#956));
#956=SURFACE_STYLE_USAGE(.BOTH.,#957);
#957=SURFACE_SIDE_STYLE('',(#958));
#958=SURFACE_STYLE_FILL_AREA(#959);
#959=FILL_AREA_STYLE('Steel - Satin',(#960));
#960=FILL_AREA_STYLE_COLOUR('Steel - Satin',#961);
#961=COLOUR_RGB('Steel - Satin',0.627450980392157,0.627450980392157,0.627450980392157);
ENDSEC;
END-ISO-10303-21;
