ISO-10303-21;
HEADER;
/* Generated by software containing ST-Developer
 * from STEP Tools, Inc. (www.steptools.com) 
 */

FILE_DESCRIPTION(
/* description */ (''),
/* implementation_level */ '2;1');

FILE_NAME(
/* name */ 'Index middle phalanx.step',
/* time_stamp */ '2026-01-04T20:27:04Z',
/* author */ (''),
/* organization */ (''),
/* preprocessor_version */ 'ST-DEVELOPER v20.1',
/* originating_system */ 'Autodesk Translation Framework v14.21.0.0',
/* authorisation */ '');

FILE_SCHEMA (('AUTOMOTIVE_DESIGN { 1 0 10303 214 3 1 1 }'));
ENDSEC;

DATA;
#10=MECHANICAL_DESIGN_GEOMETRIC_PRESENTATION_REPRESENTATION('',(#17),#591);
#11=ITEM_DEFINED_TRANSFORMATION($,$,#205,#221);
#12=(
REPRESENTATION_RELATIONSHIP($,$,#602,#601)
REPRESENTATION_RELATIONSHIP_WITH_TRANSFORMATION(#11)
SHAPE_REPRESENTATION_RELATIONSHIP()
);
#13=CONTEXT_DEPENDENT_SHAPE_REPRESENTATION(#12,#600);
#14=NEXT_ASSEMBLY_USAGE_OCCURRENCE('Middle phalanx:1',
'Middle phalanx:1','Middle phalanx:1',#604,#605,'Middle phalanx:1');
#15=SHAPE_REPRESENTATION_RELATIONSHIP('SRR','None',#602,#16);
#16=ADVANCED_BREP_SHAPE_REPRESENTATION('',(#18),#590);
#17=STYLED_ITEM('',(#615),#18);
#18=MANIFOLD_SOLID_BREP('Body1',#191);
#19=ELLIPSE('',#216,1.76776695296648,1.25);
#20=ELLIPSE('',#218,1.76776695296637,1.25);
#21=FACE_BOUND('',#58,.T.);
#22=FACE_BOUND('',#59,.T.);
#23=FACE_BOUND('',#61,.T.);
#24=FACE_BOUND('',#63,.T.);
#25=FACE_BOUND('',#66,.T.);
#26=FACE_BOUND('',#67,.T.);
#27=PLANE('',#214);
#28=PLANE('',#215);
#29=PLANE('',#217);
#30=PLANE('',#220);
#31=B_SPLINE_SURFACE_WITH_KNOTS('',3,3,((#346,#347,#348,#349),(#350,#351,
#352,#353),(#354,#355,#356,#357),(#358,#359,#360,#361),(#362,#363,#364,
#365),(#366,#367,#368,#369),(#370,#371,#372,#373),(#374,#375,#376,#377),
(#378,#379,#380,#381),(#382,#383,#384,#385),(#386,#387,#388,#389),(#390,
#391,#392,#393),(#394,#395,#396,#397),(#398,#399,#400,#401),(#402,#403,
#404,#405),(#406,#407,#408,#409),(#410,#411,#412,#413)),.UNSPECIFIED.,.T.,
 .F.,.F.,(4,1,1,1,1,1,1,1,1,1,1,1,1,1,4),(4,4),(0.,0.0714285714285714,0.142857142857143,
0.214285714285714,0.285714285714286,0.357142857142857,0.428571428571429,
0.476190476190476,0.571428571428571,0.619047619047619,0.714285714285714,
0.785714285714286,0.857142857142857,0.928571428571429,1.),(0.,1.),
 .UNSPECIFIED.);
#32=B_SPLINE_CURVE_WITH_KNOTS('',3,(#283,#284,#285,#286,#287,#288,#289,
#290,#291,#292,#293,#294,#295,#296,#297,#298,#299,#300,#301,#302,#303,#304,
#305,#306,#307,#308,#309,#310),.UNSPECIFIED.,.F.,.F.,(4,3,3,3,3,3,3,3,3,
4),(-0.157743052302156,-0.140066210447032,-0.121241559860932,-0.102416909274832,
-0.0760540429108607,-0.0624614574007544,-0.0426764440517872,-0.0288508357342631,
-0.0111158556059548,0.),.UNSPECIFIED.);
#33=B_SPLINE_CURVE_WITH_KNOTS('',3,(#314,#315,#316,#317,#318,#319,#320,
#321,#322,#323,#324,#325,#326,#327,#328,#329,#330,#331,#332,#333,#334,#335,
#336,#337,#338,#339,#340,#341,#342,#343,#344),.UNSPECIFIED.,.F.,.F.,(4,
3,3,3,3,3,3,3,3,3,4),(0.,0.0178281778000682,0.0221763248430831,0.0411475679464603,
0.0542361456407416,0.0796912458475925,0.0918887859835468,0.1117218533753,
0.131554920767053,0.149016223533054,0.157737430963835),.UNSPECIFIED.);
#34=B_SPLINE_CURVE_WITH_KNOTS('',3,(#414,#415,#416,#417,#418,#419,#420,
#421,#422,#423,#424,#425,#426,#427,#428,#429,#430,#431,#432,#433),
 .UNSPECIFIED.,.F.,.F.,(4,2,2,2,2,2,2,2,2,4),(-3.57352582795155,-3.02289067391322,
-2.53582656256654,-2.19997628157364,-1.93997562917141,-1.69462955343733,
-1.43025279148021,-1.08834080268719,-0.637044544362376,-0.050068956289881),
 .UNSPECIFIED.);
#35=B_SPLINE_CURVE_WITH_KNOTS('',3,(#435,#436,#437,#438,#439,#440,#441,
#442,#443,#444,#445,#446,#447),.UNSPECIFIED.,.F.,.F.,(4,3,3,3,4),(1.69567163345349,
1.79519580205131,2.24399475256414,2.69279370307697,3.14159265358979),
 .UNSPECIFIED.);
#36=B_SPLINE_CURVE_WITH_KNOTS('',3,(#451,#452,#453,#454,#455,#456,#457,
#458,#459,#460,#461,#462,#463),.UNSPECIFIED.,.F.,.F.,(4,3,3,3,4),(1.70350288835248,
1.79519580205131,2.24399475256414,2.69279370307697,3.14159265358979),
 .UNSPECIFIED.);
#37=B_SPLINE_CURVE_WITH_KNOTS('',3,(#465,#466,#467,#468,#469,#470,#471,
#472,#473,#474,#475,#476,#477,#478,#479,#480,#481,#482,#483,#484,#485,#486,
#487,#488,#489,#490,#491,#492,#493,#494,#495),.UNSPECIFIED.,.F.,.F.,(4,
3,3,3,3,3,3,3,3,3,4),(-0.157837017502525,-0.143385666383578,-0.125606632377289,
-0.107013857421745,-0.10541371420556,-0.0803605334724231,-0.065440140618279,
-0.0456533448119922,-0.0305885468783741,-0.0129574737463686,0.),
 .UNSPECIFIED.);
#38=B_SPLINE_CURVE_WITH_KNOTS('',3,(#497,#498,#499,#500,#501,#502,#503,
#504,#505,#506,#507,#508,#509,#510,#511,#512,#513,#514,#515,#516),
 .UNSPECIFIED.,.F.,.F.,(4,2,2,2,2,2,2,2,2,4),(-3.41477128558774,-2.82183136768214,
-2.38003771128313,-2.07399369624859,-1.83413852079006,-1.60431703429656,
-1.35505656721761,-1.03891979506744,-0.606743939957715,-0.0500707265938188),
 .UNSPECIFIED.);
#39=B_SPLINE_CURVE_WITH_KNOTS('',3,(#518,#519,#520,#521,#522,#523,#524,
#525,#526,#527,#528,#529,#530,#531,#532,#533,#534,#535,#536,#537,#538,#539,
#540,#541,#542,#543,#544,#545),.UNSPECIFIED.,.F.,.F.,(4,3,3,3,3,3,3,3,3,
4),(0.,0.0163557210636467,0.0346577160551178,0.0486572479178409,0.0717972712181444,
0.0860021803244153,0.10621775737786,0.125701827853747,0.143019105251374,
0.157833106698757),.UNSPECIFIED.);
#40=B_SPLINE_CURVE_WITH_KNOTS('',3,(#546,#547,#548,#549,#550,#551,#552,
#553,#554,#555,#556,#557,#558),.UNSPECIFIED.,.F.,.F.,(4,3,3,3,4),(-3.14159265358979,
-2.69279370307697,-2.24399475256414,-1.79519580205131,-1.703611006396),
 .UNSPECIFIED.);
#41=B_SPLINE_CURVE_WITH_KNOTS('',3,(#559,#560,#561,#562,#563,#564,#565,
#566,#567,#568,#569,#570,#571),.UNSPECIFIED.,.F.,.F.,(4,3,3,3,4),(-3.14159265358979,
-2.69280042102368,-2.24400818845756,-1.79521595589145,-1.69579907757759),
 .UNSPECIFIED.);
#42=FACE_OUTER_BOUND('',#52,.T.);
#43=FACE_OUTER_BOUND('',#53,.T.);
#44=FACE_OUTER_BOUND('',#54,.T.);
#45=FACE_OUTER_BOUND('',#55,.T.);
#46=FACE_OUTER_BOUND('',#56,.T.);
#47=FACE_OUTER_BOUND('',#57,.T.);
#48=FACE_OUTER_BOUND('',#60,.T.);
#49=FACE_OUTER_BOUND('',#62,.T.);
#50=FACE_OUTER_BOUND('',#64,.T.);
#51=FACE_OUTER_BOUND('',#65,.T.);
#52=EDGE_LOOP('',(#128,#129,#130,#131));
#53=EDGE_LOOP('',(#132,#133,#134,#135));
#54=EDGE_LOOP('',(#136,#137,#138,#139));
#55=EDGE_LOOP('',(#140,#141,#142,#143,#144,#145,#146,#147,#148,#149,#150,
#151));
#56=EDGE_LOOP('',(#152,#153,#154,#155));
#57=EDGE_LOOP('',(#156,#157,#158));
#58=EDGE_LOOP('',(#159));
#59=EDGE_LOOP('',(#160));
#60=EDGE_LOOP('',(#161,#162));
#61=EDGE_LOOP('',(#163));
#62=EDGE_LOOP('',(#164,#165));
#63=EDGE_LOOP('',(#166));
#64=EDGE_LOOP('',(#167,#168,#169,#170));
#65=EDGE_LOOP('',(#171,#172,#173));
#66=EDGE_LOOP('',(#174));
#67=EDGE_LOOP('',(#175));
#68=LINE('',#272,#76);
#69=LINE('',#278,#77);
#70=LINE('',#312,#78);
#71=LINE('',#345,#79);
#72=LINE('',#449,#80);
#73=LINE('',#573,#81);
#74=LINE('',#574,#82);
#75=LINE('',#583,#83);
#76=VECTOR('',#230,2.);
#77=VECTOR('',#237,2.);
#78=VECTOR('',#242,10.);
#79=VECTOR('',#243,10.);
#80=VECTOR('',#244,35.0035712463743);
#81=VECTOR('',#247,10.);
#82=VECTOR('',#248,10.);
#83=VECTOR('',#261,1.25);
#84=CIRCLE('',#207,2.);
#85=CIRCLE('',#208,2.);
#86=CIRCLE('',#210,2.);
#87=CIRCLE('',#211,2.);
#88=VERTEX_POINT('',#269);
#89=VERTEX_POINT('',#271);
#90=VERTEX_POINT('',#275);
#91=VERTEX_POINT('',#277);
#92=VERTEX_POINT('',#281);
#93=VERTEX_POINT('',#282);
#94=VERTEX_POINT('',#311);
#95=VERTEX_POINT('',#313);
#96=VERTEX_POINT('',#434);
#97=VERTEX_POINT('',#448);
#98=VERTEX_POINT('',#450);
#99=VERTEX_POINT('',#464);
#100=VERTEX_POINT('',#496);
#101=VERTEX_POINT('',#517);
#102=VERTEX_POINT('',#577);
#103=VERTEX_POINT('',#580);
#104=EDGE_CURVE('',#88,#88,#84,.T.);
#105=EDGE_CURVE('',#88,#89,#68,.T.);
#106=EDGE_CURVE('',#89,#89,#85,.T.);
#107=EDGE_CURVE('',#90,#90,#86,.T.);
#108=EDGE_CURVE('',#90,#91,#69,.T.);
#109=EDGE_CURVE('',#91,#91,#87,.T.);
#110=EDGE_CURVE('',#92,#93,#32,.T.);
#111=EDGE_CURVE('',#93,#94,#70,.T.);
#112=EDGE_CURVE('',#94,#95,#33,.T.);
#113=EDGE_CURVE('',#92,#95,#71,.T.);
#114=EDGE_CURVE('',#92,#95,#34,.T.);
#115=EDGE_CURVE('',#94,#96,#35,.T.);
#116=EDGE_CURVE('',#97,#96,#72,.T.);
#117=EDGE_CURVE('',#98,#97,#36,.T.);
#118=EDGE_CURVE('',#99,#98,#37,.T.);
#119=EDGE_CURVE('',#99,#100,#38,.T.);
#120=EDGE_CURVE('',#101,#100,#39,.T.);
#121=EDGE_CURVE('',#97,#101,#40,.T.);
#122=EDGE_CURVE('',#96,#93,#41,.T.);
#123=EDGE_CURVE('',#98,#101,#73,.T.);
#124=EDGE_CURVE('',#100,#99,#74,.T.);
#125=EDGE_CURVE('',#102,#102,#19,.T.);
#126=EDGE_CURVE('',#103,#103,#20,.T.);
#127=EDGE_CURVE('',#102,#103,#75,.T.);
#128=ORIENTED_EDGE('',*,*,#104,.F.);
#129=ORIENTED_EDGE('',*,*,#105,.T.);
#130=ORIENTED_EDGE('',*,*,#106,.F.);
#131=ORIENTED_EDGE('',*,*,#105,.F.);
#132=ORIENTED_EDGE('',*,*,#107,.F.);
#133=ORIENTED_EDGE('',*,*,#108,.T.);
#134=ORIENTED_EDGE('',*,*,#109,.F.);
#135=ORIENTED_EDGE('',*,*,#108,.F.);
#136=ORIENTED_EDGE('',*,*,#110,.T.);
#137=ORIENTED_EDGE('',*,*,#111,.T.);
#138=ORIENTED_EDGE('',*,*,#112,.T.);
#139=ORIENTED_EDGE('',*,*,#113,.F.);
#140=ORIENTED_EDGE('',*,*,#110,.F.);
#141=ORIENTED_EDGE('',*,*,#114,.T.);
#142=ORIENTED_EDGE('',*,*,#112,.F.);
#143=ORIENTED_EDGE('',*,*,#115,.T.);
#144=ORIENTED_EDGE('',*,*,#116,.F.);
#145=ORIENTED_EDGE('',*,*,#117,.F.);
#146=ORIENTED_EDGE('',*,*,#118,.F.);
#147=ORIENTED_EDGE('',*,*,#119,.T.);
#148=ORIENTED_EDGE('',*,*,#120,.F.);
#149=ORIENTED_EDGE('',*,*,#121,.F.);
#150=ORIENTED_EDGE('',*,*,#116,.T.);
#151=ORIENTED_EDGE('',*,*,#122,.T.);
#152=ORIENTED_EDGE('',*,*,#118,.T.);
#153=ORIENTED_EDGE('',*,*,#123,.T.);
#154=ORIENTED_EDGE('',*,*,#120,.T.);
#155=ORIENTED_EDGE('',*,*,#124,.T.);
#156=ORIENTED_EDGE('',*,*,#123,.F.);
#157=ORIENTED_EDGE('',*,*,#117,.T.);
#158=ORIENTED_EDGE('',*,*,#121,.T.);
#159=ORIENTED_EDGE('',*,*,#104,.T.);
#160=ORIENTED_EDGE('',*,*,#107,.T.);
#161=ORIENTED_EDGE('',*,*,#119,.F.);
#162=ORIENTED_EDGE('',*,*,#124,.F.);
#163=ORIENTED_EDGE('',*,*,#125,.F.);
#164=ORIENTED_EDGE('',*,*,#114,.F.);
#165=ORIENTED_EDGE('',*,*,#113,.T.);
#166=ORIENTED_EDGE('',*,*,#126,.F.);
#167=ORIENTED_EDGE('',*,*,#125,.T.);
#168=ORIENTED_EDGE('',*,*,#127,.T.);
#169=ORIENTED_EDGE('',*,*,#126,.T.);
#170=ORIENTED_EDGE('',*,*,#127,.F.);
#171=ORIENTED_EDGE('',*,*,#111,.F.);
#172=ORIENTED_EDGE('',*,*,#122,.F.);
#173=ORIENTED_EDGE('',*,*,#115,.F.);
#174=ORIENTED_EDGE('',*,*,#106,.T.);
#175=ORIENTED_EDGE('',*,*,#109,.T.);
#176=CYLINDRICAL_SURFACE('',#206,2.);
#177=CYLINDRICAL_SURFACE('',#209,2.);
#178=CYLINDRICAL_SURFACE('',#212,1.);
#179=CYLINDRICAL_SURFACE('',#213,1.);
#180=CYLINDRICAL_SURFACE('',#219,1.25);
#181=ADVANCED_FACE('',(#42),#176,.F.);
#182=ADVANCED_FACE('',(#43),#177,.F.);
#183=ADVANCED_FACE('',(#44),#178,.T.);
#184=ADVANCED_FACE('',(#45),#31,.F.);
#185=ADVANCED_FACE('',(#46),#179,.T.);
#186=ADVANCED_FACE('',(#47,#21,#22),#27,.T.);
#187=ADVANCED_FACE('',(#48,#23),#28,.F.);
#188=ADVANCED_FACE('',(#49,#24),#29,.F.);
#189=ADVANCED_FACE('',(#50),#180,.F.);
#190=ADVANCED_FACE('',(#51,#25,#26),#30,.F.);
#191=CLOSED_SHELL('',(#181,#182,#183,#184,#185,#186,#187,#188,#189,#190));
#192=DERIVED_UNIT_ELEMENT(#194,1.);
#193=DERIVED_UNIT_ELEMENT(#593,-3.);
#194=(
MASS_UNIT()
NAMED_UNIT(*)
SI_UNIT(.KILO.,.GRAM.)
);
#195=DERIVED_UNIT((#192,#193));
#196=MEASURE_REPRESENTATION_ITEM('density measure',
POSITIVE_RATIO_MEASURE(7850.),#195);
#197=PROPERTY_DEFINITION_REPRESENTATION(#202,#199);
#198=PROPERTY_DEFINITION_REPRESENTATION(#203,#200);
#199=REPRESENTATION('material name',(#201),#590);
#200=REPRESENTATION('density',(#196),#590);
#201=DESCRIPTIVE_REPRESENTATION_ITEM('Steel','Steel');
#202=PROPERTY_DEFINITION('material property','material name',#605);
#203=PROPERTY_DEFINITION('material property','density of part',#605);
#204=AXIS2_PLACEMENT_3D('',#266,#222,#223);
#205=AXIS2_PLACEMENT_3D('',#267,#224,#225);
#206=AXIS2_PLACEMENT_3D('',#268,#226,#227);
#207=AXIS2_PLACEMENT_3D('',#270,#228,#229);
#208=AXIS2_PLACEMENT_3D('',#273,#231,#232);
#209=AXIS2_PLACEMENT_3D('',#274,#233,#234);
#210=AXIS2_PLACEMENT_3D('',#276,#235,#236);
#211=AXIS2_PLACEMENT_3D('',#279,#238,#239);
#212=AXIS2_PLACEMENT_3D('',#280,#240,#241);
#213=AXIS2_PLACEMENT_3D('',#572,#245,#246);
#214=AXIS2_PLACEMENT_3D('',#575,#249,#250);
#215=AXIS2_PLACEMENT_3D('',#576,#251,#252);
#216=AXIS2_PLACEMENT_3D('',#578,#253,#254);
#217=AXIS2_PLACEMENT_3D('',#579,#255,#256);
#218=AXIS2_PLACEMENT_3D('',#581,#257,#258);
#219=AXIS2_PLACEMENT_3D('',#582,#259,#260);
#220=AXIS2_PLACEMENT_3D('',#584,#262,#263);
#221=AXIS2_PLACEMENT_3D('',#585,#264,#265);
#222=DIRECTION('axis',(0.,0.,1.));
#223=DIRECTION('refdir',(1.,0.,0.));
#224=DIRECTION('axis',(0.,0.,1.));
#225=DIRECTION('refdir',(1.,0.,0.));
#226=DIRECTION('center_axis',(0.,0.,-1.));
#227=DIRECTION('ref_axis',(-1.,0.,0.));
#228=DIRECTION('center_axis',(0.,0.,-1.));
#229=DIRECTION('ref_axis',(-1.,0.,0.));
#230=DIRECTION('',(0.,0.,-1.));
#231=DIRECTION('center_axis',(9.22884993459E-32,-2.10757368777042E-31,1.));
#232=DIRECTION('ref_axis',(-1.,0.,0.));
#233=DIRECTION('center_axis',(0.,0.,-1.));
#234=DIRECTION('ref_axis',(-1.,0.,0.));
#235=DIRECTION('center_axis',(0.,0.,-1.));
#236=DIRECTION('ref_axis',(-1.,0.,0.));
#237=DIRECTION('',(0.,0.,-1.));
#238=DIRECTION('center_axis',(9.22884993459E-32,-2.10757368777042E-31,1.));
#239=DIRECTION('ref_axis',(-1.,0.,0.));
#240=DIRECTION('center_axis',(-1.94833885213426E-62,-1.,-2.10757368777042E-31));
#241=DIRECTION('ref_axis',(0.707106781186555,0.,-0.70710678118654));
#242=DIRECTION('',(1.94833885213426E-62,1.,2.10757368777042E-31));
#243=DIRECTION('',(0.,1.,0.));
#244=DIRECTION('',(-0.0142842567828502,-1.85864908363818E-18,-0.99989797479951));
#245=DIRECTION('center_axis',(0.,1.,0.));
#246=DIRECTION('ref_axis',(0.707106781186549,0.,0.707106781186546));
#247=DIRECTION('',(0.,-1.,0.));
#248=DIRECTION('',(0.,1.,0.));
#249=DIRECTION('center_axis',(0.,0.,1.));
#250=DIRECTION('ref_axis',(1.,0.,0.));
#251=DIRECTION('center_axis',(-0.707106781186591,0.,-0.707106781186504));
#252=DIRECTION('ref_axis',(-0.707106781186504,0.,0.707106781186591));
#253=DIRECTION('center_axis',(0.707106781186591,0.,0.707106781186504));
#254=DIRECTION('ref_axis',(-0.707106781186504,0.,0.707106781186591));
#255=DIRECTION('center_axis',(-0.707106781186548,0.,0.707106781186547));
#256=DIRECTION('ref_axis',(0.707106781186547,0.,0.707106781186548));
#257=DIRECTION('center_axis',(0.707106781186548,0.,-0.707106781186547));
#258=DIRECTION('ref_axis',(-0.707106781186547,0.,-0.707106781186548));
#259=DIRECTION('center_axis',(0.,0.,-1.));
#260=DIRECTION('ref_axis',(-1.,0.,0.));
#261=DIRECTION('',(0.,0.,-1.));
#262=DIRECTION('center_axis',(9.22884993459E-32,-2.10757368777042E-31,1.));
#263=DIRECTION('ref_axis',(1.,0.,-9.22884993459E-32));
#264=DIRECTION('',(0.,0.,1.));
#265=DIRECTION('',(1.,0.,0.));
#266=CARTESIAN_POINT('',(0.,0.,0.));
#267=CARTESIAN_POINT('',(0.,0.,0.));
#268=CARTESIAN_POINT('Origin',(-4.24999999993597,-2.88355146009367,76.));
#269=CARTESIAN_POINT('',(-2.24999999993597,-2.88355146009367,76.));
#270=CARTESIAN_POINT('Origin',(-4.24999999993597,-2.88355146009367,76.));
#271=CARTESIAN_POINT('',(-2.24999999993597,-2.88355146009367,41.));
#272=CARTESIAN_POINT('',(-2.24999999993597,-2.88355146009367,76.));
#273=CARTESIAN_POINT('Origin',(-4.24999999993597,-2.88355146009367,41.));
#274=CARTESIAN_POINT('Origin',(-4.24999999989928,2.88355146005232,76.));
#275=CARTESIAN_POINT('',(-2.24999999989928,2.88355146005232,76.));
#276=CARTESIAN_POINT('Origin',(-4.24999999989928,2.88355146005232,76.));
#277=CARTESIAN_POINT('',(-2.24999999989928,2.88355146005232,41.));
#278=CARTESIAN_POINT('',(-2.24999999989928,2.88355146005232,76.));
#279=CARTESIAN_POINT('Origin',(-4.24999999989928,2.88355146005232,41.));
#280=CARTESIAN_POINT('Origin',(-1.,-6.28342796274571E-6,42.));
#281=CARTESIAN_POINT('',(9.24446373305873E-32,-7.48571427698646,42.0000006109476));
#282=CARTESIAN_POINT('',(-0.999999999771515,-7.44116135167526,41.));
#283=CARTESIAN_POINT('Ctrl Pts',(-0.000525818210671325,-7.48522955700406,
42.0000006109476));
#284=CARTESIAN_POINT('Ctrl Pts',(-0.00052586463136402,-7.48606725990753,
41.9413646872745));
#285=CARTESIAN_POINT('Ctrl Pts',(-0.0056820867953423,-7.48690963843916,
41.8827057827729));
#286=CARTESIAN_POINT('Ctrl Pts',(-0.0160065493138313,-7.48771895750791,
41.8247092342334));
#287=CARTESIAN_POINT('Ctrl Pts',(-0.0270014258379336,-7.48858082932096,
41.7629467077218));
#288=CARTESIAN_POINT('Ctrl Pts',(-0.0437577986000128,-7.48939717456542,
41.7024926763895));
#289=CARTESIAN_POINT('Ctrl Pts',(-0.0659837455654331,-7.49006029042278,
41.6441212634588));
#290=CARTESIAN_POINT('Ctrl Pts',(-0.0882096925308534,-7.49072340628014,
41.5857498505281));
#291=CARTESIAN_POINT('Ctrl Pts',(-0.115905402518781,-7.49123254184097,41.529461055999));
#292=CARTESIAN_POINT('Ctrl Pts',(-0.14877479436186,-7.49142642559318,41.4760290030938));
#293=CARTESIAN_POINT('Ctrl Pts',(-0.19480653240984,-7.49169794890387,41.4012004125789));
#294=CARTESIAN_POINT('Ctrl Pts',(-0.250389014091418,-7.49134455632404,41.3329421818103));
#295=CARTESIAN_POINT('Ctrl Pts',(-0.313973724155277,-7.48987647519172,41.2729093348633));
#296=CARTESIAN_POINT('Ctrl Pts',(-0.346757739244756,-7.48911953859569,41.2419566457938));
#297=CARTESIAN_POINT('Ctrl Pts',(-0.381668554683708,-7.48806538748693,41.2131905855243));
#298=CARTESIAN_POINT('Ctrl Pts',(-0.418490386321277,-7.48664559019605,41.1868380008524));
#299=CARTESIAN_POINT('Ctrl Pts',(-0.47208728515565,-7.48457897024858,41.148479865152));
#300=CARTESIAN_POINT('Ctrl Pts',(-0.529207030082991,-7.48175464170194,41.1156094826816));
#301=CARTESIAN_POINT('Ctrl Pts',(-0.588988971423823,-7.47802918434278,41.0886178045471));
#302=CARTESIAN_POINT('Ctrl Pts',(-0.630764111569619,-7.47542586468142,41.0697562367969));
#303=CARTESIAN_POINT('Ctrl Pts',(-0.673839027900354,-7.4723832878882,41.0537653003817));
#304=CARTESIAN_POINT('Ctrl Pts',(-0.717918285314055,-7.46886783660354,41.0407783984716));
#305=CARTESIAN_POINT('Ctrl Pts',(-0.774461530019729,-7.46435834543009,41.0241192799711));
#306=CARTESIAN_POINT('Ctrl Pts',(-0.832218394349369,-7.45910351797998,41.0125322990868));
#307=CARTESIAN_POINT('Ctrl Pts',(-0.890516131281671,-7.45310661192,41.0060766522782));
#308=CARTESIAN_POINT('Ctrl Pts',(-0.927055739513824,-7.44934789658099,41.0020304093589));
#309=CARTESIAN_POINT('Ctrl Pts',(-0.963807850233608,-7.44529865230325,41.0000000000006));
#310=CARTESIAN_POINT('Ctrl Pts',(-1.00060755913538,-7.44097016024463,41.));
#311=CARTESIAN_POINT('',(-0.999999999999854,7.4411613516213,41.));
#312=CARTESIAN_POINT('',(-1.,-6.28342796274571E-6,41.));
#313=CARTESIAN_POINT('',(9.24446373305873E-32,7.48571427698646,42.0000006109476));
#314=CARTESIAN_POINT('Ctrl Pts',(-0.998828575761547,7.44139728471479,41.));
#315=CARTESIAN_POINT('Ctrl Pts',(-0.939757886644282,7.44836766817684,40.9999999999994));
#316=CARTESIAN_POINT('Ctrl Pts',(-0.880779194454204,7.45462157693236,41.0052235295534));
#317=CARTESIAN_POINT('Ctrl Pts',(-0.822551545874916,7.46012169827242,41.0156349704466));
#318=CARTESIAN_POINT('Ctrl Pts',(-0.808350297669349,7.46146313297255,41.0181742358971));
#319=CARTESIAN_POINT('Ctrl Pts',(-0.794193744964229,7.46275997311625,41.0210220950628));
#320=CARTESIAN_POINT('Ctrl Pts',(-0.780091482413245,7.46401214267298,41.0241780312132));
#321=CARTESIAN_POINT('Ctrl Pts',(-0.718562410715414,7.46947543837856,41.03794758209));
#322=CARTESIAN_POINT('Ctrl Pts',(-0.658514036676993,7.47404420241857,41.0574820357011));
#323=CARTESIAN_POINT('Ctrl Pts',(-0.600735969088393,7.47778179787757,41.0825000526495));
#324=CARTESIAN_POINT('Ctrl Pts',(-0.560873914581052,7.48036042745331,41.0997604006827));
#325=CARTESIAN_POINT('Ctrl Pts',(-0.522092486976885,7.4825447287617,41.1196308430039));
#326=CARTESIAN_POINT('Ctrl Pts',(-0.484649925679927,7.48436976363265,41.1420189905528));
#327=CARTESIAN_POINT('Ctrl Pts',(-0.411830390045306,7.48791915200824,41.1855602027925));
#328=CARTESIAN_POINT('Ctrl Pts',(-0.344960947755353,7.49006543428344,41.2380993541573));
#329=CARTESIAN_POINT('Ctrl Pts',(-0.285595089024714,7.49122833086834,41.298290108121));
#330=CARTESIAN_POINT('Ctrl Pts',(-0.257148237954079,7.49178556606494,41.3271322313623));
#331=CARTESIAN_POINT('Ctrl Pts',(-0.230423838758892,7.4921177556784,41.3577312556263));
#332=CARTESIAN_POINT('Ctrl Pts',(-0.205590345943711,7.49227260527336,41.38993904991));
#333=CARTESIAN_POINT('Ctrl Pts',(-0.165211357140528,7.49252438902796,41.4423085725718));
#334=CARTESIAN_POINT('Ctrl Pts',(-0.130228193650801,7.4923082420799,41.4984189532108));
#335=CARTESIAN_POINT('Ctrl Pts',(-0.101074171267863,7.49183316596015,41.5574017805504));
#336=CARTESIAN_POINT('Ctrl Pts',(-0.0719201488849256,7.49135808984041,41.6163846078901));
#337=CARTESIAN_POINT('Ctrl Pts',(-0.0485950016988427,7.49062525345219,41.6782398819306));
#338=CARTESIAN_POINT('Ctrl Pts',(-0.0315249651715439,7.48979000951689,41.7420991913953));
#339=CARTESIAN_POINT('Ctrl Pts',(-0.0164962845855784,7.48905464997066,41.7983217520706));
#340=CARTESIAN_POINT('Ctrl Pts',(-0.00644624564004805,7.48824637949058,
41.8556136515859));
#341=CARTESIAN_POINT('Ctrl Pts',(-0.00141852175471535,7.48742705258316,
41.9133158921911));
#342=CARTESIAN_POINT('Ctrl Pts',(0.00109262094158188,7.48701783226272,41.942135804215));
#343=CARTESIAN_POINT('Ctrl Pts',(0.00235091400717526,7.48660504934717,41.9710580796983));
#344=CARTESIAN_POINT('Ctrl Pts',(0.0023509563219466,7.48619152622083,42.0000006109476));
#345=CARTESIAN_POINT('',(9.24446373305873E-32,0.,42.0000006109476));
#346=CARTESIAN_POINT('Ctrl Pts',(-7.5,-8.49598716908476E-16,76.));
#347=CARTESIAN_POINT('Ctrl Pts',(-7.66666666666667,-8.71285170643377E-16,
64.3333333333333));
#348=CARTESIAN_POINT('Ctrl Pts',(-7.83333333333333,-8.92971624378278E-16,
52.6666666666667));
#349=CARTESIAN_POINT('Ctrl Pts',(-8.,-9.14658078113179E-16,41.));
#350=CARTESIAN_POINT('Ctrl Pts',(-7.5,-1.03784757306091,76.));
#351=CARTESIAN_POINT('Ctrl Pts',(-7.66679376781529,-1.06431354159643,64.3333333333333));
#352=CARTESIAN_POINT('Ctrl Pts',(-7.8332062321847,-1.09085641867871,52.6666666666667));
#353=CARTESIAN_POINT('Ctrl Pts',(-8.,-1.11732238721423,41.));
#354=CARTESIAN_POINT('Ctrl Pts',(-6.99648127438544,-3.11597871619263,76.));
#355=CARTESIAN_POINT('Ctrl Pts',(-7.14995104958258,-3.1953802319971,64.3333333333333));
#356=CARTESIAN_POINT('Ctrl Pts',(-7.30354533961223,-3.27481726850526,52.6666666666666));
#357=CARTESIAN_POINT('Ctrl Pts',(-7.45701511480937,-3.35421878430973,41.));
#358=CARTESIAN_POINT('Ctrl Pts',(-4.86693993765016,-5.63983963398828,76.));
#359=CARTESIAN_POINT('Ctrl Pts',(-4.96973442702958,-5.77797847770285,64.3333333333333));
#360=CARTESIAN_POINT('Ctrl Pts',(-5.07240022261213,-5.91611253838171,52.6666666666667));
#361=CARTESIAN_POINT('Ctrl Pts',(-5.17519471199155,-6.05425138209628,41.));
#362=CARTESIAN_POINT('Ctrl Pts',(-1.739132500147,-7.05836797987231,76.));
#363=CARTESIAN_POINT('Ctrl Pts',(-1.77480335674946,-7.22627924524297,64.3333333333333));
#364=CARTESIAN_POINT('Ctrl Pts',(-1.8105774012732,-7.39417967766403,52.6666666666666));
#365=CARTESIAN_POINT('Ctrl Pts',(-1.84624825787567,-7.56209094303469,41.));
#366=CARTESIAN_POINT('Ctrl Pts',(1.73840425285483,-7.05892654059718,76.));
#367=CARTESIAN_POINT('Ctrl Pts',(1.7740495293855,-7.22685146527758,64.3333333333333));
#368=CARTESIAN_POINT('Ctrl Pts',(1.80976147576929,-7.39475806109519,52.6666666666667));
#369=CARTESIAN_POINT('Ctrl Pts',(1.84540675229996,-7.56268298577559,41.));
#370=CARTESIAN_POINT('Ctrl Pts',(4.86553637117925,-5.63837039951526,76.));
#371=CARTESIAN_POINT('Ctrl Pts',(4.96840887956303,-5.77648343946941,64.3333333333333));
#372=CARTESIAN_POINT('Ctrl Pts',(5.0709695366045,-5.91460882323628,52.6666666666666));
#373=CARTESIAN_POINT('Ctrl Pts',(5.17384204498828,-6.05272186319043,41.));
#374=CARTESIAN_POINT('Ctrl Pts',(6.75789738969941,-3.39602968887991,76.));
#375=CARTESIAN_POINT('Ctrl Pts',(6.90559616855008,-3.48199225089991,64.3333333333333));
#376=CARTESIAN_POINT('Ctrl Pts',(7.05344662566377,-3.567977290564,52.6666666666667));
#377=CARTESIAN_POINT('Ctrl Pts',(7.20114540451444,-3.653939852584,41.));
#378=CARTESIAN_POINT('Ctrl Pts',(7.7499104457888,-0.376452948851338,76.));
#379=CARTESIAN_POINT('Ctrl Pts',(7.92312355670822,-0.386374768210867,64.3333333333333));
#380=CARTESIAN_POINT('Ctrl Pts',(8.09587236708719,-0.396467115070529,52.6666666666666));
#381=CARTESIAN_POINT('Ctrl Pts',(8.26908547800661,-0.406388934430059,41.));
#382=CARTESIAN_POINT('Ctrl Pts',(7.29309825716844,2.47422769855705,76.));
#383=CARTESIAN_POINT('Ctrl Pts',(7.45408578088688,2.53778659810717,64.3333333333333));
#384=CARTESIAN_POINT('Ctrl Pts',(7.61524708937018,2.60137428536743,52.6666666666667));
#385=CARTESIAN_POINT('Ctrl Pts',(7.77623461308862,2.66493318491755,41.));
#386=CARTESIAN_POINT('Ctrl Pts',(5.1829776333272,5.3962319548263,76.));
#387=CARTESIAN_POINT('Ctrl Pts',(5.29293550074936,5.52917374218461,64.3333333333334));
#388=CARTESIAN_POINT('Ctrl Pts',(5.40307367604587,5.66211427317795,52.6666666666667));
#389=CARTESIAN_POINT('Ctrl Pts',(5.51303154346803,5.79505606053626,41.));
#390=CARTESIAN_POINT('Ctrl Pts',(2.13318941543056,7.06245218408875,76.));
#391=CARTESIAN_POINT('Ctrl Pts',(2.17686488300522,7.23048335243023,64.3333333333333));
#392=CARTESIAN_POINT('Ctrl Pts',(2.22065142099519,7.39849312971718,52.6666666666667));
#393=CARTESIAN_POINT('Ctrl Pts',(2.26432688856985,7.56652429805866,41.));
#394=CARTESIAN_POINT('Ctrl Pts',(-1.74183394681781,7.0573424021884,76.));
#395=CARTESIAN_POINT('Ctrl Pts',(-1.77757438687845,7.22519441088037,64.3333333333334));
#396=CARTESIAN_POINT('Ctrl Pts',(-1.81319594166699,7.39312397732699,52.6666666666667));
#397=CARTESIAN_POINT('Ctrl Pts',(-1.84893638172763,7.56097598601895,41.));
#398=CARTESIAN_POINT('Ctrl Pts',(-4.86238902770696,5.64039631512307,76.));
#399=CARTESIAN_POINT('Ctrl Pts',(-4.96512031930776,5.77858146639655,64.3333333333333));
#400=CARTESIAN_POINT('Ctrl Pts',(-5.06773138804552,5.91677507104228,52.6666666666667));
#401=CARTESIAN_POINT('Ctrl Pts',(-5.17046267964633,6.05496022231576,41.));
#402=CARTESIAN_POINT('Ctrl Pts',(-6.99888795140691,3.1135342041776,76.));
#403=CARTESIAN_POINT('Ctrl Pts',(-7.15242837189163,3.19286854800685,64.3333333333334));
#404=CARTESIAN_POINT('Ctrl Pts',(-7.30599560263143,3.27226290142886,52.6666666666667));
#405=CARTESIAN_POINT('Ctrl Pts',(-7.45953602311615,3.35159724525811,41.));
#406=CARTESIAN_POINT('Ctrl Pts',(-7.5,1.03784757306091,76.));
#407=CARTESIAN_POINT('Ctrl Pts',(-7.6667537741124,1.06435566492493,64.3333333333333));
#408=CARTESIAN_POINT('Ctrl Pts',(-7.8332462258876,1.09081429535021,52.6666666666667));
#409=CARTESIAN_POINT('Ctrl Pts',(-8.,1.11732238721423,41.));
#410=CARTESIAN_POINT('Ctrl Pts',(-7.5,8.49598716908476E-16,76.));
#411=CARTESIAN_POINT('Ctrl Pts',(-7.66666666666667,8.71285170643377E-16,
64.3333333333333));
#412=CARTESIAN_POINT('Ctrl Pts',(-7.83333333333333,8.92971624378278E-16,
52.6666666666667));
#413=CARTESIAN_POINT('Ctrl Pts',(-8.,9.14658078113179E-16,41.));
#414=CARTESIAN_POINT('Ctrl Pts',(-2.77555756156289E-16,-7.48571427698646,
42.0000006109476));
#415=CARTESIAN_POINT('Ctrl Pts',(1.04954562938729,-7.47072076799522,43.0495462403349));
#416=CARTESIAN_POINT('Ctrl Pts',(2.10860551764111,-7.26172628026645,44.1086061285887));
#417=CARTESIAN_POINT('Ctrl Pts',(3.9968985411992,-6.47925444111618,45.9968991521468));
#418=CARTESIAN_POINT('Ctrl Pts',(4.86307510490909,-5.93991506944219,46.8630757158567));
#419=CARTESIAN_POINT('Ctrl Pts',(6.14504004792913,-4.69988996918927,48.1450406588768));
#420=CARTESIAN_POINT('Ctrl Pts',(6.62512952699333,-4.09275080998121,48.6251301379409));
#421=CARTESIAN_POINT('Ctrl Pts',(7.30693258329685,-2.83358768035919,49.3069331942445));
#422=CARTESIAN_POINT('Ctrl Pts',(7.54497031325234,-2.22587314975164,49.5449709242001));
#423=CARTESIAN_POINT('Ctrl Pts',(7.83767897328246,-0.948257273312739,49.8376795842303));
#424=CARTESIAN_POINT('Ctrl Pts',(7.89679173893836,-0.305464108797348,49.8967923498351));
#425=CARTESIAN_POINT('Ctrl Pts',(7.8302237165635,1.04525575036725,49.8302243274602));
#426=CARTESIAN_POINT('Ctrl Pts',(7.69173844168536,1.71798450180779,49.691739052633));
#427=CARTESIAN_POINT('Ctrl Pts',(7.18253684707615,3.16059916503698,49.1825374580238));
#428=CARTESIAN_POINT('Ctrl Pts',(6.76608580520357,3.87345750328853,48.7660864161512));
#429=CARTESIAN_POINT('Ctrl Pts',(5.64605553451571,5.27736936672474,47.6460561454633));
#430=CARTESIAN_POINT('Ctrl Pts',(4.84475689162968,5.94926230055039,46.8447575025773));
#431=CARTESIAN_POINT('Ctrl Pts',(2.73245576855168,7.11171839440283,44.7324563794993));
#432=CARTESIAN_POINT('Ctrl Pts',(1.37964061767945,7.46600512530533,43.3796412286271));
#433=CARTESIAN_POINT('Ctrl Pts',(-2.77555756156289E-16,7.48571427698646,
42.0000006109476));
#434=CARTESIAN_POINT('',(-8.,-9.14658072529614E-16,41.));
#435=CARTESIAN_POINT('Ctrl Pts',(-0.998828575750965,7.44139728471604,41.));
#436=CARTESIAN_POINT('Ctrl Pts',(-1.26325011244805,7.41019535472463,41.));
#437=CARTESIAN_POINT('Ctrl Pts',(-1.52595128370131,7.36665167300418,41.));
#438=CARTESIAN_POINT('Ctrl Pts',(-1.78553460750279,7.31080560554104,41.));
#439=CARTESIAN_POINT('Ctrl Pts',(-2.9561118143672,7.05897073145122,41.));
#440=CARTESIAN_POINT('Ctrl Pts',(-4.06328724700677,6.55696547688349,41.));
#441=CARTESIAN_POINT('Ctrl Pts',(-4.99838718723819,5.85540235342335,41.));
#442=CARTESIAN_POINT('Ctrl Pts',(-5.93348712746961,5.15383922996321,41.));
#443=CARTESIAN_POINT('Ctrl Pts',(-6.69651157529288,4.25271823761066,41.));
#444=CARTESIAN_POINT('Ctrl Pts',(-7.21313979342548,3.24358902692341,41.));
#445=CARTESIAN_POINT('Ctrl Pts',(-7.72976801155808,2.23445981623617,41.));
#446=CARTESIAN_POINT('Ctrl Pts',(-8.,1.11732238721423,41.));
#447=CARTESIAN_POINT('Ctrl Pts',(-8.,5.55111512312578E-16,41.));
#448=CARTESIAN_POINT('',(-7.5,-8.49598716908476E-16,76.));
#449=CARTESIAN_POINT('',(-7.5,-8.49598716908476E-16,76.));
#450=CARTESIAN_POINT('',(-0.999999999999809,6.93746442638681,76.));
#451=CARTESIAN_POINT('Ctrl Pts',(-0.999029799032321,6.9376623518344,76.));
#452=CARTESIAN_POINT('Ctrl Pts',(-1.22809388463925,6.90893628848465,76.));
#453=CARTESIAN_POINT('Ctrl Pts',(-1.45565989555047,6.8703565276429,76.));
#454=CARTESIAN_POINT('Ctrl Pts',(-1.68067295596207,6.8219511882959,76.));
#455=CARTESIAN_POINT('Ctrl Pts',(-2.78201897378085,6.58502703983329,76.));
#456=CARTESIAN_POINT('Ctrl Pts',(-3.82220400074391,6.11271167747818,76.));
#457=CARTESIAN_POINT('Ctrl Pts',(-4.69837966817542,5.45541031114305,76.));
#458=CARTESIAN_POINT('Ctrl Pts',(-5.57455533560694,4.79810894480791,76.));
#459=CARTESIAN_POINT('Ctrl Pts',(-6.28672164350693,3.95582157449276,76.));
#460=CARTESIAN_POINT('Ctrl Pts',(-6.76808280960519,3.01575623155601,76.));
#461=CARTESIAN_POINT('Ctrl Pts',(-7.24944397570346,2.07569088861926,76.));
#462=CARTESIAN_POINT('Ctrl Pts',(-7.5,1.03784757306091,76.));
#463=CARTESIAN_POINT('Ctrl Pts',(-7.5,5.55111512312578E-16,76.));
#464=CARTESIAN_POINT('',(2.1570415377137E-31,7.01428569810731,75.0000011324883));
#465=CARTESIAN_POINT('Ctrl Pts',(0.00221529641338725,7.01466976538632,75.0000011324883));
#466=CARTESIAN_POINT('Ctrl Pts',(0.00221519650848697,7.01398472019901,75.0479475172232));
#467=CARTESIAN_POINT('Ctrl Pts',(-0.00123818992455466,7.01329930861863,
75.095937200344));
#468=CARTESIAN_POINT('Ctrl Pts',(-0.00816380130443517,7.01260556267352,
75.1435963342972));
#469=CARTESIAN_POINT('Ctrl Pts',(-0.0166841412935639,7.01175207104743,75.2022297173439));
#470=CARTESIAN_POINT('Ctrl Pts',(-0.0303864225353577,7.01089439875755,75.2598565437058));
#471=CARTESIAN_POINT('Ctrl Pts',(-0.0490414529698713,7.00996633364346,75.3158184152545));
#472=CARTESIAN_POINT('Ctrl Pts',(-0.0685503184422603,7.00899579127292,75.3743416445496));
#473=CARTESIAN_POINT('Ctrl Pts',(-0.0934758335644179,7.00794802536556,75.4310440222308));
#474=CARTESIAN_POINT('Ctrl Pts',(-0.123554671342534,7.00669103695414,75.4851725452332));
#475=CARTESIAN_POINT('Ctrl Pts',(-0.12614333539814,7.00658285721851,75.4898309885851));
#476=CARTESIAN_POINT('Ctrl Pts',(-0.128770167304327,7.0064730962569,75.4944703679686));
#477=CARTESIAN_POINT('Ctrl Pts',(-0.131434998131977,7.00636165254432,75.4990902033846));
#478=CARTESIAN_POINT('Ctrl Pts',(-0.173157818735196,7.00461679655613,75.5714222112087));
#479=CARTESIAN_POINT('Ctrl Pts',(-0.223677283574832,7.00248614659764,75.6380652320316));
#480=CARTESIAN_POINT('Ctrl Pts',(-0.281692840656462,6.99957019450742,75.6975676966199));
#481=CARTESIAN_POINT('Ctrl Pts',(-0.316243938679917,6.99783360260743,75.7330043206919));
#482=CARTESIAN_POINT('Ctrl Pts',(-0.353453467174274,6.9958171315364,75.7659083435105));
#483=CARTESIAN_POINT('Ctrl Pts',(-0.393043551552827,6.99343216021227,75.7959731525342));
#484=CARTESIAN_POINT('Ctrl Pts',(-0.445546251931426,6.99026931181706,75.8358438344205));
#485=CARTESIAN_POINT('Ctrl Pts',(-0.501715984333617,6.98648622298908,75.8703294970872));
#486=CARTESIAN_POINT('Ctrl Pts',(-0.560695454729563,6.98193457000354,75.8990216236103));
#487=CARTESIAN_POINT('Ctrl Pts',(-0.605599835026672,6.97846914118109,75.9208665495188));
#488=CARTESIAN_POINT('Ctrl Pts',(-0.652132751012183,6.97455880778474,75.9393531761324));
#489=CARTESIAN_POINT('Ctrl Pts',(-0.699914380220348,6.97015869885547,75.9543012126497));
#490=CARTESIAN_POINT('Ctrl Pts',(-0.755835568320426,6.96500903520498,75.9717956341599));
#491=CARTESIAN_POINT('Ctrl Pts',(-0.813020706255751,6.95922777408405,75.9843052171349));
#492=CARTESIAN_POINT('Ctrl Pts',(-0.870827073007689,6.95281275677073,75.9917642451235));
#493=CARTESIAN_POINT('Ctrl Pts',(-0.913310277175307,6.94809821569898,75.9972460532138));
#494=CARTESIAN_POINT('Ctrl Pts',(-0.956129026892179,6.94304237592238,76.0000000000002));
#495=CARTESIAN_POINT('Ctrl Pts',(-0.999029799036504,6.93766235183388,76.));
#496=CARTESIAN_POINT('',(2.1570415377137E-31,-7.01428569810731,75.0000011324883));
#497=CARTESIAN_POINT('Ctrl Pts',(1.66533453693773E-15,7.01428569810731,
75.0000011324883));
#498=CARTESIAN_POINT('Ctrl Pts',(1.13848740868941,7.03054980394573,73.8615137237987));
#499=CARTESIAN_POINT('Ctrl Pts',(2.29449338285542,6.80564787211244,72.7055077496326));
#500=CARTESIAN_POINT('Ctrl Pts',(4.17453009231408,5.96038773726546,70.8254710401737));
#501=CARTESIAN_POINT('Ctrl Pts',(4.95640584813086,5.44441006781781,70.0435952843568));
#502=CARTESIAN_POINT('Ctrl Pts',(6.10966734279059,4.27449777227195,68.8903337896969));
#503=CARTESIAN_POINT('Ctrl Pts',(6.53991694288672,3.70425993292265,68.4600841896007));
#504=CARTESIAN_POINT('Ctrl Pts',(7.14807942400617,2.52300861171347,67.8519217084812));
#505=CARTESIAN_POINT('Ctrl Pts',(7.3580210127046,1.95162661647812,67.6419801197828));
#506=CARTESIAN_POINT('Ctrl Pts',(7.60809326567562,0.747146277497182,67.3919078668117));
#507=CARTESIAN_POINT('Ctrl Pts',(7.65023467645498,0.139629171498347,67.349766455934));
#508=CARTESIAN_POINT('Ctrl Pts',(7.55851833937316,-1.1337745664397,67.4414827930159));
#509=CARTESIAN_POINT('Ctrl Pts',(7.41207083679666,-1.76585454587276,67.5879302956907));
#510=CARTESIAN_POINT('Ctrl Pts',(6.90485557185687,-3.09752370694134,68.0951455606305));
#511=CARTESIAN_POINT('Ctrl Pts',(6.50620985559151,-3.74751492172349,68.493791276896));
#512=CARTESIAN_POINT('Ctrl Pts',(5.4254485373727,-5.05055118369848,69.5745525951149));
#513=CARTESIAN_POINT('Ctrl Pts',(4.64359900609,-5.67669909761368,70.3564021263977));
#514=CARTESIAN_POINT('Ctrl Pts',(2.60239661493593,-6.73211331981772,72.397604517552));
#515=CARTESIAN_POINT('Ctrl Pts',(1.30915297689747,-7.03298788349156,73.6908481555906));
#516=CARTESIAN_POINT('Ctrl Pts',(4.16333634234434E-15,-7.01428569810731,
75.0000011324883));
#517=CARTESIAN_POINT('',(-0.999999999670692,-6.93746442646951,76.));
#518=CARTESIAN_POINT('Ctrl Pts',(-1.0005895175645,-6.93730488946463,76.));
#519=CARTESIAN_POINT('Ctrl Pts',(-0.946491296311127,-6.94407014901149,75.9999999999989));
#520=CARTESIAN_POINT('Ctrl Pts',(-0.892422853786651,-6.95032949703644,75.995611181406));
#521=CARTESIAN_POINT('Ctrl Pts',(-0.838912851359367,-6.95604577572058,75.9868469310698));
#522=CARTESIAN_POINT('Ctrl Pts',(-0.77903534472993,-6.96244227168917,75.9770397654222));
#523=CARTESIAN_POINT('Ctrl Pts',(-0.720219283214345,-6.96811969865959,75.9618143564467));
#524=CARTESIAN_POINT('Ctrl Pts',(-0.663179525702951,-6.9731084302584,75.9413770016053));
#525=CARTESIAN_POINT('Ctrl Pts',(-0.61954876834044,-6.97692440261578,75.9257440938034));
#526=CARTESIAN_POINT('Ctrl Pts',(-0.576957428004753,-6.98033871166857,75.9070616760244));
#527=CARTESIAN_POINT('Ctrl Pts',(-0.535725658445917,-6.98338540482634,75.88542207748));
#528=CARTESIAN_POINT('Ctrl Pts',(-0.467573086084214,-6.98842132683794,75.8496536804053));
#529=CARTESIAN_POINT('Ctrl Pts',(-0.403882765206782,-6.99239663534073,75.8061943063325));
#530=CARTESIAN_POINT('Ctrl Pts',(-0.345876494826914,-6.9955952696911,75.7559740322387));
#531=CARTESIAN_POINT('Ctrl Pts',(-0.310268328506312,-6.99755880748109,75.7251454362802));
#532=CARTESIAN_POINT('Ctrl Pts',(-0.276801864680162,-6.99923097979494,75.6917691076988));
#533=CARTESIAN_POINT('Ctrl Pts',(-0.245757459084484,-7.00068385741586,75.65606019726));
#534=CARTESIAN_POINT('Ctrl Pts',(-0.201576917786916,-7.00275150595026,75.6052414116507));
#535=CARTESIAN_POINT('Ctrl Pts',(-0.162747094082124,-7.00435772946229,75.5502088864363));
#536=CARTESIAN_POINT('Ctrl Pts',(-0.129780374330477,-7.00571972721691,75.4918509808751));
#537=CARTESIAN_POINT('Ctrl Pts',(-0.0980065649901946,-7.0070324406838,75.4356047732219));
#538=CARTESIAN_POINT('Ctrl Pts',(-0.0716789710410566,-7.00811926922544,
75.3762694907745));
#539=CARTESIAN_POINT('Ctrl Pts',(-0.0512521952634784,-7.00912895747599,
75.3146405036684));
#540=CARTESIAN_POINT('Ctrl Pts',(-0.0330970424616792,-7.01002636021202,
75.2598651592815));
#541=CARTESIAN_POINT('Ctrl Pts',(-0.0197605263404072,-7.0108555938722,75.203751316683));
#542=CARTESIAN_POINT('Ctrl Pts',(-0.0113221491244215,-7.01167905868852,
75.1469381457666));
#543=CARTESIAN_POINT('Ctrl Pts',(-0.00410357027851686,-7.012383488646,75.0983375270399));
#544=CARTESIAN_POINT('Ctrl Pts',(-0.000469364842688081,-7.01308295195097,
75.0492251479423));
#545=CARTESIAN_POINT('Ctrl Pts',(-0.000469258288881225,-7.01378619151119,
75.0000011324882));
#546=CARTESIAN_POINT('Ctrl Pts',(-7.5,-8.49598716908476E-16,76.));
#547=CARTESIAN_POINT('Ctrl Pts',(-7.5,-1.03784757306091,76.));
#548=CARTESIAN_POINT('Ctrl Pts',(-7.24824063719272,-2.07691314462677,76.));
#549=CARTESIAN_POINT('Ctrl Pts',(-6.76743739966653,-3.01708941670898,76.));
#550=CARTESIAN_POINT('Ctrl Pts',(-6.28663416214034,-3.95726568879118,76.));
#551=CARTESIAN_POINT('Ctrl Pts',(-5.57678704989525,-4.79855266138973,76.));
#552=CARTESIAN_POINT('Ctrl Pts',(-4.70056225418884,-5.45561753866968,76.));
#553=CARTESIAN_POINT('Ctrl Pts',(-3.82433745848244,-6.11268241594962,76.));
#554=CARTESIAN_POINT('Ctrl Pts',(-2.78173497931471,-6.58552519791097,76.));
#555=CARTESIAN_POINT('Ctrl Pts',(-1.68084428089722,-6.82203968234578,76.));
#556=CARTESIAN_POINT('Ctrl Pts',(-1.45618945597352,-6.8703043467389,76.));
#557=CARTESIAN_POINT('Ctrl Pts',(-1.22910732865915,-6.90872756720124,76.));
#558=CARTESIAN_POINT('Ctrl Pts',(-1.0005895172505,-6.9373048895039,76.));
#559=CARTESIAN_POINT('Ctrl Pts',(-8.,-1.56590852422573E-15,41.));
#560=CARTESIAN_POINT('Ctrl Pts',(-7.99999999999996,-1.11732238721423,41.0000000000026));
#561=CARTESIAN_POINT('Ctrl Pts',(-7.72850755740461,-2.23577058576196,41.0000000000052));
#562=CARTESIAN_POINT('Ctrl Pts',(-7.21245793563729,-3.24500011800023,41.0000000000078));
#563=CARTESIAN_POINT('Ctrl Pts',(-6.69640831386997,-4.25422965023849,41.0000000000104));
#564=CARTESIAN_POINT('Ctrl Pts',(-5.93580151293069,-5.1542405161673,41.0000000000131));
#565=CARTESIAN_POINT('Ctrl Pts',(-5.00067370344174,-5.85555254262141,41.0000000000157));
#566=CARTESIAN_POINT('Ctrl Pts',(-4.0655458939528,-6.55686456907552,41.0000000000183));
#567=CARTESIAN_POINT('Ctrl Pts',(-2.95589707591419,-7.05947775605494,41.0000000000209));
#568=CARTESIAN_POINT('Ctrl Pts',(-1.78579683186564,-7.31088302333478,41.0000000000235));
#569=CARTESIAN_POINT('Ctrl Pts',(-1.526595123065,-7.36657455507478,41.0000000000241));
#570=CARTESIAN_POINT('Ctrl Pts',(-1.26442697042416,-7.4099389303656,41.0000000000247));
#571=CARTESIAN_POINT('Ctrl Pts',(-1.00060755889917,-7.44097016027205,41.0000000000252));
#572=CARTESIAN_POINT('Origin',(-1.,-5.95401932995347E-6,75.));
#573=CARTESIAN_POINT('',(-1.,-5.95401932995347E-6,76.));
#574=CARTESIAN_POINT('',(2.1570415377137E-31,0.,75.0000011324883));
#575=CARTESIAN_POINT('Origin',(-0.681821627090424,-1.19080386599069E-5,
76.));
#576=CARTESIAN_POINT('Origin',(9.00000013411045,0.,66.0000009983767));
#577=CARTESIAN_POINT('',(5.,2.49921532246824E-13,70.0000011324877));
#578=CARTESIAN_POINT('Origin',(3.75,2.4976845139693E-13,71.2500011324878));
#579=CARTESIAN_POINT('Origin',(9.24446373305873E-32,0.,42.0000006109476));
#580=CARTESIAN_POINT('',(5.,2.49615370547037E-13,47.0000006109476));
#581=CARTESIAN_POINT('Origin',(3.75,2.4976845139693E-13,45.7500006109476));
#582=CARTESIAN_POINT('Origin',(3.75,2.4976845139693E-13,76.));
#583=CARTESIAN_POINT('',(5.,2.49615370547037E-13,76.));
#584=CARTESIAN_POINT('Origin',(-0.72727673865883,-1.25668559254914E-5,41.));
#585=CARTESIAN_POINT('',(0.,0.,0.));
#586=UNCERTAINTY_MEASURE_WITH_UNIT(LENGTH_MEASURE(0.01),#592,
'DISTANCE_ACCURACY_VALUE',
'Maximum model space distance between geometric entities at asserted c
onnectivities');
#587=UNCERTAINTY_MEASURE_WITH_UNIT(LENGTH_MEASURE(0.01),#592,
'DISTANCE_ACCURACY_VALUE',
'Maximum model space distance between geometric entities at asserted c
onnectivities');
#588=UNCERTAINTY_MEASURE_WITH_UNIT(LENGTH_MEASURE(0.01),#592,
'DISTANCE_ACCURACY_VALUE',
'Maximum model space distance between geometric entities at asserted c
onnectivities');
#589=(
GEOMETRIC_REPRESENTATION_CONTEXT(3)
GLOBAL_UNCERTAINTY_ASSIGNED_CONTEXT((#586))
GLOBAL_UNIT_ASSIGNED_CONTEXT((#592,#594,#595))
REPRESENTATION_CONTEXT('','3D')
);
#590=(
GEOMETRIC_REPRESENTATION_CONTEXT(3)
GLOBAL_UNCERTAINTY_ASSIGNED_CONTEXT((#587))
GLOBAL_UNIT_ASSIGNED_CONTEXT((#592,#594,#595))
REPRESENTATION_CONTEXT('','3D')
);
#591=(
GEOMETRIC_REPRESENTATION_CONTEXT(3)
GLOBAL_UNCERTAINTY_ASSIGNED_CONTEXT((#588))
GLOBAL_UNIT_ASSIGNED_CONTEXT((#592,#594,#595))
REPRESENTATION_CONTEXT('','3D')
);
#592=(
LENGTH_UNIT()
NAMED_UNIT(*)
SI_UNIT(.MILLI.,.METRE.)
);
#593=(
LENGTH_UNIT()
NAMED_UNIT(*)
SI_UNIT($,.METRE.)
);
#594=(
NAMED_UNIT(*)
PLANE_ANGLE_UNIT()
SI_UNIT($,.RADIAN.)
);
#595=(
NAMED_UNIT(*)
SI_UNIT($,.STERADIAN.)
SOLID_ANGLE_UNIT()
);
#596=SHAPE_DEFINITION_REPRESENTATION(#598,#601);
#597=SHAPE_DEFINITION_REPRESENTATION(#599,#602);
#598=PRODUCT_DEFINITION_SHAPE('',$,#604);
#599=PRODUCT_DEFINITION_SHAPE('',$,#605);
#600=PRODUCT_DEFINITION_SHAPE($,$,#14);
#601=SHAPE_REPRESENTATION('',(#204,#221),#589);
#602=SHAPE_REPRESENTATION('',(#205),#590);
#603=PRODUCT_DEFINITION_CONTEXT('part definition',#611,'design');
#604=PRODUCT_DEFINITION('2025-12-07-22-13-42-785','Index Finger',#606,#603);
#605=PRODUCT_DEFINITION('2025-12-07-22-31-24-122','Middle phalanx',#607,
#603);
#606=PRODUCT_DEFINITION_FORMATION('',$,#613);
#607=PRODUCT_DEFINITION_FORMATION('',$,#614);
#608=PRODUCT_RELATED_PRODUCT_CATEGORY('Index Finger','Index Finger',(#613));
#609=PRODUCT_RELATED_PRODUCT_CATEGORY('Middle phalanx','Middle phalanx',
(#614));
#610=APPLICATION_PROTOCOL_DEFINITION('international standard',
'automotive_design',2009,#611);
#611=APPLICATION_CONTEXT(
'Core Data for Automotive Mechanical Design Process');
#612=PRODUCT_CONTEXT('part definition',#611,'mechanical');
#613=PRODUCT('2025-12-07-22-13-42-785','Index Finger',$,(#612));
#614=PRODUCT('2025-12-07-22-31-24-122','Middle phalanx',$,(#612));
#615=PRESENTATION_STYLE_ASSIGNMENT((#616));
#616=SURFACE_STYLE_USAGE(.BOTH.,#617);
#617=SURFACE_SIDE_STYLE('',(#618));
#618=SURFACE_STYLE_FILL_AREA(#619);
#619=FILL_AREA_STYLE('Steel - Satin',(#620));
#620=FILL_AREA_STYLE_COLOUR('Steel - Satin',#621);
#621=COLOUR_RGB('Steel - Satin',0.627450980392157,0.627450980392157,0.627450980392157);
ENDSEC;
END-ISO-10303-21;
