ISO-10303-21;
HEADER;
/* Generated by software containing ST-Developer
 * from STEP Tools, Inc. (www.steptools.com) 
 */

FILE_DESCRIPTION(
/* description */ (''),
/* implementation_level */ '2;1');

FILE_NAME(
/* name */ 'Middle middle phalanx.step',
/* time_stamp */ '2026-01-04T20:29:41Z',
/* author */ (''),
/* organization */ (''),
/* preprocessor_version */ 'ST-DEVELOPER v20.1',
/* originating_system */ 'Autodesk Translation Framework v14.21.0.0',
/* authorisation */ '');

FILE_SCHEMA (('AUTOMOTIVE_DESIGN { 1 0 10303 214 3 1 1 }'));
ENDSEC;

DATA;
#10=MECHANICAL_DESIGN_GEOMETRIC_PRESENTATION_REPRESENTATION('',(#17),#595);
#11=ITEM_DEFINED_TRANSFORMATION($,$,#205,#221);
#12=(
REPRESENTATION_RELATIONSHIP($,$,#606,#605)
REPRESENTATION_RELATIONSHIP_WITH_TRANSFORMATION(#11)
SHAPE_REPRESENTATION_RELATIONSHIP()
);
#13=CONTEXT_DEPENDENT_SHAPE_REPRESENTATION(#12,#604);
#14=NEXT_ASSEMBLY_USAGE_OCCURRENCE('Middle phalanx:1',
'Middle phalanx:1','Middle phalanx:1',#608,#609,'Middle phalanx:1');
#15=SHAPE_REPRESENTATION_RELATIONSHIP('SRR','None',#606,#16);
#16=ADVANCED_BREP_SHAPE_REPRESENTATION('',(#18),#594);
#17=STYLED_ITEM('',(#619),#18);
#18=MANIFOLD_SOLID_BREP('Body1',#191);
#19=ELLIPSE('',#216,1.76776695296704,1.25);
#20=ELLIPSE('',#218,1.76776695296641,1.25);
#21=FACE_BOUND('',#58,.T.);
#22=FACE_BOUND('',#59,.T.);
#23=FACE_BOUND('',#61,.T.);
#24=FACE_BOUND('',#63,.T.);
#25=FACE_BOUND('',#66,.T.);
#26=FACE_BOUND('',#67,.T.);
#27=PLANE('',#214);
#28=PLANE('',#215);
#29=PLANE('',#217);
#30=PLANE('',#220);
#31=B_SPLINE_SURFACE_WITH_KNOTS('',3,3,((#343,#344,#345,#346),(#347,#348,
#349,#350),(#351,#352,#353,#354),(#355,#356,#357,#358),(#359,#360,#361,
#362),(#363,#364,#365,#366),(#367,#368,#369,#370),(#371,#372,#373,#374),
(#375,#376,#377,#378),(#379,#380,#381,#382),(#383,#384,#385,#386),(#387,
#388,#389,#390),(#391,#392,#393,#394),(#395,#396,#397,#398),(#399,#400,
#401,#402),(#403,#404,#405,#406),(#407,#408,#409,#410),(#411,#412,#413,
#414)),.UNSPECIFIED.,.T.,.F.,.F.,(4,1,1,1,1,1,1,1,1,1,1,1,1,1,1,4),(4,4),
(0.,0.0714285714285714,0.142857142857143,0.214285714285714,0.285714285714286,
0.357142857142857,0.428571428571429,0.476190476190476,0.571428571428571,
0.619047619047619,0.666666666666667,0.714285714285714,0.785714285714286,
0.857142857142857,0.928571428571429,1.),(0.,1.),.UNSPECIFIED.);
#32=B_SPLINE_CURVE_WITH_KNOTS('',3,(#283,#284,#285,#286,#287,#288,#289,
#290,#291,#292,#293,#294,#295,#296,#297,#298,#299,#300,#301,#302,#303,#304,
#305,#306,#307,#308,#309,#310),.UNSPECIFIED.,.F.,.F.,(4,3,3,3,3,3,3,3,3,
4),(-0.157701221868137,-0.143687774238086,-0.124691089744468,-0.105694405250851,
-0.0802456831575886,-0.0657802946773151,-0.0450410643969055,-0.0307793875915679,
-0.0125071898269078,0.),.UNSPECIFIED.);
#33=B_SPLINE_CURVE_WITH_KNOTS('',3,(#314,#315,#316,#317,#318,#319,#320,
#321,#322,#323,#324,#325,#326,#327,#328,#329,#330,#331,#332,#333,#334,#335,
#336,#337,#338,#339,#340,#341),.UNSPECIFIED.,.F.,.F.,(4,3,3,3,3,3,3,3,3,
4),(0.,0.0138114551579398,0.0327617851023242,0.0458951222209398,0.0689989031438901,
0.0831332874531021,0.104756616504158,0.122791743743471,0.140964569347159,
0.15769800150696),.UNSPECIFIED.);
#34=B_SPLINE_CURVE_WITH_KNOTS('',3,(#415,#416,#417,#418,#419,#420,#421,
#422,#423,#424,#425,#426,#427,#428,#429,#430,#431,#432,#433,#434),
 .UNSPECIFIED.,.F.,.F.,(4,2,2,2,2,2,2,2,2,4),(-3.81776830412434,-3.13169478933714,
-2.61979952385877,-2.28060923068981,-2.02396277430309,-1.7835510855898,
-1.52165297327107,-1.18131515479116,-0.707839664176864,-0.0500686870301323),
 .UNSPECIFIED.);
#35=B_SPLINE_CURVE_WITH_KNOTS('',3,(#436,#437,#438,#439,#440,#441,#442,
#443,#444,#445,#446,#447,#448),.UNSPECIFIED.,.F.,.F.,(4,3,3,3,4),(1.68798062824562,
1.79519580205131,2.24399475256414,2.69279370307697,3.14159265358979),
 .UNSPECIFIED.);
#36=B_SPLINE_CURVE_WITH_KNOTS('',3,(#452,#453,#454,#455,#456,#457,#458,
#459,#460,#461,#462,#463,#464),.UNSPECIFIED.,.F.,.F.,(4,3,3,3,4),(1.69445028508511,
1.79519580205131,2.24399475256414,2.69279370307697,3.14159265358979),
 .UNSPECIFIED.);
#37=B_SPLINE_CURVE_WITH_KNOTS('',3,(#466,#467,#468,#469,#470,#471,#472,
#473,#474,#475,#476,#477,#478,#479,#480,#481,#482,#483,#484,#485,#486,#487,
#488,#489,#490,#491,#492,#493),.UNSPECIFIED.,.F.,.F.,(4,3,3,3,3,3,3,3,3,
4),(-0.157773848256363,-0.146610291660912,-0.12747753038626,-0.108344769111608,
-0.084032006586941,-0.0684267361999584,-0.0473930925807808,-0.0323903160253495,
-0.0143321558298332,0.),.UNSPECIFIED.);
#38=B_SPLINE_CURVE_WITH_KNOTS('',3,(#495,#496,#497,#498,#499,#500,#501,
#502,#503,#504,#505,#506,#507,#508,#509,#510,#511,#512,#513,#514),
 .UNSPECIFIED.,.F.,.F.,(4,2,2,2,2,2,2,2,2,4),(-3.63499686281448,-2.94909537206514,
-2.47733486732785,-2.16433551397285,-1.926074850589,-1.70125772010385,-1.45505389673558,
-1.13184036434,-0.677698358730237,-0.0500701105345181),.UNSPECIFIED.);
#39=B_SPLINE_CURVE_WITH_KNOTS('',3,(#516,#517,#518,#519,#520,#521,#522,
#523,#524,#525,#526,#527,#528,#529,#530,#531,#532,#533,#534,#535,#536,#537,
#538,#539,#540,#541,#542,#543,#544,#545,#546,#547,#548,#549),
 .UNSPECIFIED.,.F.,.F.,(4,3,3,3,3,3,3,3,3,3,3,4),(0.,0.00599227483042841,
0.0242870912993478,0.0387725820649252,0.0608628430497233,0.0749190353667628,
0.0983772322673237,0.114614727427067,0.133093911788552,0.151035255269836,
0.154318075204449,0.157766283721663),.UNSPECIFIED.);
#40=B_SPLINE_CURVE_WITH_KNOTS('',3,(#550,#551,#552,#553,#554,#555,#556,
#557,#558,#559,#560,#561,#562),.UNSPECIFIED.,.F.,.F.,(4,3,3,3,4),(-3.14159265358979,
-2.69279370307697,-2.24399475256414,-1.79519580205131,-1.69452554175672),
 .UNSPECIFIED.);
#41=B_SPLINE_CURVE_WITH_KNOTS('',3,(#563,#564,#565,#566,#567,#568,#569,
#570,#571,#572,#573,#574,#575),.UNSPECIFIED.,.F.,.F.,(4,3,3,3,4),(-3.14159265358979,
-2.69279683325137,-2.24400101291295,-1.79520519257453,-1.68806558508037),
 .UNSPECIFIED.);
#42=FACE_OUTER_BOUND('',#52,.T.);
#43=FACE_OUTER_BOUND('',#53,.T.);
#44=FACE_OUTER_BOUND('',#54,.T.);
#45=FACE_OUTER_BOUND('',#55,.T.);
#46=FACE_OUTER_BOUND('',#56,.T.);
#47=FACE_OUTER_BOUND('',#57,.T.);
#48=FACE_OUTER_BOUND('',#60,.T.);
#49=FACE_OUTER_BOUND('',#62,.T.);
#50=FACE_OUTER_BOUND('',#64,.T.);
#51=FACE_OUTER_BOUND('',#65,.T.);
#52=EDGE_LOOP('',(#128,#129,#130,#131));
#53=EDGE_LOOP('',(#132,#133,#134,#135));
#54=EDGE_LOOP('',(#136,#137,#138,#139));
#55=EDGE_LOOP('',(#140,#141,#142,#143,#144,#145,#146,#147,#148,#149,#150,
#151));
#56=EDGE_LOOP('',(#152,#153,#154,#155));
#57=EDGE_LOOP('',(#156,#157,#158));
#58=EDGE_LOOP('',(#159));
#59=EDGE_LOOP('',(#160));
#60=EDGE_LOOP('',(#161,#162));
#61=EDGE_LOOP('',(#163));
#62=EDGE_LOOP('',(#164,#165));
#63=EDGE_LOOP('',(#166));
#64=EDGE_LOOP('',(#167,#168,#169,#170));
#65=EDGE_LOOP('',(#171,#172,#173));
#66=EDGE_LOOP('',(#174));
#67=EDGE_LOOP('',(#175));
#68=LINE('',#272,#76);
#69=LINE('',#278,#77);
#70=LINE('',#312,#78);
#71=LINE('',#342,#79);
#72=LINE('',#450,#80);
#73=LINE('',#577,#81);
#74=LINE('',#578,#82);
#75=LINE('',#587,#83);
#76=VECTOR('',#230,2.);
#77=VECTOR('',#237,2.);
#78=VECTOR('',#242,10.);
#79=VECTOR('',#243,10.);
#80=VECTOR('',#244,40.0031248779392);
#81=VECTOR('',#247,10.);
#82=VECTOR('',#248,10.);
#83=VECTOR('',#261,1.25);
#84=CIRCLE('',#207,2.);
#85=CIRCLE('',#208,2.);
#86=CIRCLE('',#210,2.);
#87=CIRCLE('',#211,2.);
#88=VERTEX_POINT('',#269);
#89=VERTEX_POINT('',#271);
#90=VERTEX_POINT('',#275);
#91=VERTEX_POINT('',#277);
#92=VERTEX_POINT('',#281);
#93=VERTEX_POINT('',#282);
#94=VERTEX_POINT('',#311);
#95=VERTEX_POINT('',#313);
#96=VERTEX_POINT('',#435);
#97=VERTEX_POINT('',#449);
#98=VERTEX_POINT('',#451);
#99=VERTEX_POINT('',#465);
#100=VERTEX_POINT('',#494);
#101=VERTEX_POINT('',#515);
#102=VERTEX_POINT('',#581);
#103=VERTEX_POINT('',#584);
#104=EDGE_CURVE('',#88,#88,#84,.T.);
#105=EDGE_CURVE('',#88,#89,#68,.T.);
#106=EDGE_CURVE('',#89,#89,#85,.T.);
#107=EDGE_CURVE('',#90,#90,#86,.T.);
#108=EDGE_CURVE('',#90,#91,#69,.T.);
#109=EDGE_CURVE('',#91,#91,#87,.T.);
#110=EDGE_CURVE('',#92,#93,#32,.T.);
#111=EDGE_CURVE('',#93,#94,#70,.T.);
#112=EDGE_CURVE('',#94,#95,#33,.T.);
#113=EDGE_CURVE('',#92,#95,#71,.T.);
#114=EDGE_CURVE('',#92,#95,#34,.T.);
#115=EDGE_CURVE('',#94,#96,#35,.T.);
#116=EDGE_CURVE('',#97,#96,#72,.T.);
#117=EDGE_CURVE('',#98,#97,#36,.T.);
#118=EDGE_CURVE('',#99,#98,#37,.T.);
#119=EDGE_CURVE('',#99,#100,#38,.T.);
#120=EDGE_CURVE('',#101,#100,#39,.T.);
#121=EDGE_CURVE('',#97,#101,#40,.T.);
#122=EDGE_CURVE('',#96,#93,#41,.T.);
#123=EDGE_CURVE('',#98,#101,#73,.T.);
#124=EDGE_CURVE('',#100,#99,#74,.T.);
#125=EDGE_CURVE('',#102,#102,#19,.T.);
#126=EDGE_CURVE('',#103,#103,#20,.T.);
#127=EDGE_CURVE('',#102,#103,#75,.T.);
#128=ORIENTED_EDGE('',*,*,#104,.F.);
#129=ORIENTED_EDGE('',*,*,#105,.T.);
#130=ORIENTED_EDGE('',*,*,#106,.F.);
#131=ORIENTED_EDGE('',*,*,#105,.F.);
#132=ORIENTED_EDGE('',*,*,#107,.F.);
#133=ORIENTED_EDGE('',*,*,#108,.T.);
#134=ORIENTED_EDGE('',*,*,#109,.F.);
#135=ORIENTED_EDGE('',*,*,#108,.F.);
#136=ORIENTED_EDGE('',*,*,#110,.T.);
#137=ORIENTED_EDGE('',*,*,#111,.T.);
#138=ORIENTED_EDGE('',*,*,#112,.T.);
#139=ORIENTED_EDGE('',*,*,#113,.F.);
#140=ORIENTED_EDGE('',*,*,#110,.F.);
#141=ORIENTED_EDGE('',*,*,#114,.T.);
#142=ORIENTED_EDGE('',*,*,#112,.F.);
#143=ORIENTED_EDGE('',*,*,#115,.T.);
#144=ORIENTED_EDGE('',*,*,#116,.F.);
#145=ORIENTED_EDGE('',*,*,#117,.F.);
#146=ORIENTED_EDGE('',*,*,#118,.F.);
#147=ORIENTED_EDGE('',*,*,#119,.T.);
#148=ORIENTED_EDGE('',*,*,#120,.F.);
#149=ORIENTED_EDGE('',*,*,#121,.F.);
#150=ORIENTED_EDGE('',*,*,#116,.T.);
#151=ORIENTED_EDGE('',*,*,#122,.T.);
#152=ORIENTED_EDGE('',*,*,#118,.T.);
#153=ORIENTED_EDGE('',*,*,#123,.T.);
#154=ORIENTED_EDGE('',*,*,#120,.T.);
#155=ORIENTED_EDGE('',*,*,#124,.T.);
#156=ORIENTED_EDGE('',*,*,#123,.F.);
#157=ORIENTED_EDGE('',*,*,#117,.T.);
#158=ORIENTED_EDGE('',*,*,#121,.T.);
#159=ORIENTED_EDGE('',*,*,#104,.T.);
#160=ORIENTED_EDGE('',*,*,#107,.T.);
#161=ORIENTED_EDGE('',*,*,#119,.F.);
#162=ORIENTED_EDGE('',*,*,#124,.F.);
#163=ORIENTED_EDGE('',*,*,#125,.F.);
#164=ORIENTED_EDGE('',*,*,#114,.F.);
#165=ORIENTED_EDGE('',*,*,#113,.T.);
#166=ORIENTED_EDGE('',*,*,#126,.F.);
#167=ORIENTED_EDGE('',*,*,#125,.T.);
#168=ORIENTED_EDGE('',*,*,#127,.T.);
#169=ORIENTED_EDGE('',*,*,#126,.T.);
#170=ORIENTED_EDGE('',*,*,#127,.F.);
#171=ORIENTED_EDGE('',*,*,#111,.F.);
#172=ORIENTED_EDGE('',*,*,#122,.F.);
#173=ORIENTED_EDGE('',*,*,#115,.F.);
#174=ORIENTED_EDGE('',*,*,#106,.T.);
#175=ORIENTED_EDGE('',*,*,#109,.T.);
#176=CYLINDRICAL_SURFACE('',#206,2.);
#177=CYLINDRICAL_SURFACE('',#209,2.);
#178=CYLINDRICAL_SURFACE('',#212,1.);
#179=CYLINDRICAL_SURFACE('',#213,1.);
#180=CYLINDRICAL_SURFACE('',#219,1.25);
#181=ADVANCED_FACE('',(#42),#176,.F.);
#182=ADVANCED_FACE('',(#43),#177,.F.);
#183=ADVANCED_FACE('',(#44),#178,.T.);
#184=ADVANCED_FACE('',(#45),#31,.F.);
#185=ADVANCED_FACE('',(#46),#179,.T.);
#186=ADVANCED_FACE('',(#47,#21,#22),#27,.T.);
#187=ADVANCED_FACE('',(#48,#23),#28,.F.);
#188=ADVANCED_FACE('',(#49,#24),#29,.F.);
#189=ADVANCED_FACE('',(#50),#180,.F.);
#190=ADVANCED_FACE('',(#51,#25,#26),#30,.F.);
#191=CLOSED_SHELL('',(#181,#182,#183,#184,#185,#186,#187,#188,#189,#190));
#192=DERIVED_UNIT_ELEMENT(#194,1.);
#193=DERIVED_UNIT_ELEMENT(#597,-3.);
#194=(
MASS_UNIT()
NAMED_UNIT(*)
SI_UNIT(.KILO.,.GRAM.)
);
#195=DERIVED_UNIT((#192,#193));
#196=MEASURE_REPRESENTATION_ITEM('density measure',
POSITIVE_RATIO_MEASURE(7850.),#195);
#197=PROPERTY_DEFINITION_REPRESENTATION(#202,#199);
#198=PROPERTY_DEFINITION_REPRESENTATION(#203,#200);
#199=REPRESENTATION('material name',(#201),#594);
#200=REPRESENTATION('density',(#196),#594);
#201=DESCRIPTIVE_REPRESENTATION_ITEM('Steel','Steel');
#202=PROPERTY_DEFINITION('material property','material name',#609);
#203=PROPERTY_DEFINITION('material property','density of part',#609);
#204=AXIS2_PLACEMENT_3D('',#266,#222,#223);
#205=AXIS2_PLACEMENT_3D('',#267,#224,#225);
#206=AXIS2_PLACEMENT_3D('',#268,#226,#227);
#207=AXIS2_PLACEMENT_3D('',#270,#228,#229);
#208=AXIS2_PLACEMENT_3D('',#273,#231,#232);
#209=AXIS2_PLACEMENT_3D('',#274,#233,#234);
#210=AXIS2_PLACEMENT_3D('',#276,#235,#236);
#211=AXIS2_PLACEMENT_3D('',#279,#238,#239);
#212=AXIS2_PLACEMENT_3D('',#280,#240,#241);
#213=AXIS2_PLACEMENT_3D('',#576,#245,#246);
#214=AXIS2_PLACEMENT_3D('',#579,#249,#250);
#215=AXIS2_PLACEMENT_3D('',#580,#251,#252);
#216=AXIS2_PLACEMENT_3D('',#582,#253,#254);
#217=AXIS2_PLACEMENT_3D('',#583,#255,#256);
#218=AXIS2_PLACEMENT_3D('',#585,#257,#258);
#219=AXIS2_PLACEMENT_3D('',#586,#259,#260);
#220=AXIS2_PLACEMENT_3D('',#588,#262,#263);
#221=AXIS2_PLACEMENT_3D('',#589,#264,#265);
#222=DIRECTION('axis',(0.,0.,1.));
#223=DIRECTION('refdir',(1.,0.,0.));
#224=DIRECTION('axis',(0.,0.,1.));
#225=DIRECTION('refdir',(1.,0.,0.));
#226=DIRECTION('center_axis',(0.,0.,-1.));
#227=DIRECTION('ref_axis',(-1.,0.,0.));
#228=DIRECTION('center_axis',(-6.11682992487496E-32,-3.245518479077E-31,
-1.));
#229=DIRECTION('ref_axis',(-1.,0.,0.));
#230=DIRECTION('',(0.,0.,-1.));
#231=DIRECTION('center_axis',(2.72051905882907E-32,-1.75944798955136E-32,
1.));
#232=DIRECTION('ref_axis',(-1.,0.,0.));
#233=DIRECTION('center_axis',(0.,0.,-1.));
#234=DIRECTION('ref_axis',(-1.,0.,0.));
#235=DIRECTION('center_axis',(-6.11682992487496E-32,-3.245518479077E-31,
-1.));
#236=DIRECTION('ref_axis',(-1.,0.,0.));
#237=DIRECTION('',(0.,0.,-1.));
#238=DIRECTION('center_axis',(2.72051905882907E-32,-1.75944798955136E-32,
1.));
#239=DIRECTION('ref_axis',(-1.,0.,0.));
#240=DIRECTION('center_axis',(1.08434354197404E-63,-1.,-1.75944798955136E-32));
#241=DIRECTION('ref_axis',(0.707106781186549,0.,-0.707106781186546));
#242=DIRECTION('',(-1.08434354197404E-63,1.,1.75944798955136E-32));
#243=DIRECTION('',(0.,1.,0.));
#244=DIRECTION('',(-0.012499023551926,-1.72202209808079E-18,-0.999921884154082));
#245=DIRECTION('center_axis',(1.4001436341573E-61,1.,-3.245518479077E-31));
#246=DIRECTION('ref_axis',(0.707106781186543,0.,0.707106781186553));
#247=DIRECTION('',(-1.4001436341573E-61,-1.,3.245518479077E-31));
#248=DIRECTION('',(0.,1.,0.));
#249=DIRECTION('center_axis',(6.11682992487496E-32,3.245518479077E-31,1.));
#250=DIRECTION('ref_axis',(1.,0.,-6.11682992487496E-32));
#251=DIRECTION('center_axis',(-0.707106781186816,0.,-0.707106781186279));
#252=DIRECTION('ref_axis',(-0.707106781186279,0.,0.707106781186816));
#253=DIRECTION('center_axis',(0.707106781186816,0.,0.707106781186279));
#254=DIRECTION('ref_axis',(-0.707106781186279,0.,0.707106781186816));
#255=DIRECTION('center_axis',(-0.707106781186565,0.,0.70710678118653));
#256=DIRECTION('ref_axis',(0.70710678118653,0.,0.707106781186565));
#257=DIRECTION('center_axis',(0.707106781186565,0.,-0.70710678118653));
#258=DIRECTION('ref_axis',(-0.70710678118653,0.,-0.707106781186565));
#259=DIRECTION('center_axis',(0.,0.,-1.));
#260=DIRECTION('ref_axis',(-1.,0.,0.));
#261=DIRECTION('',(0.,0.,-1.));
#262=DIRECTION('center_axis',(2.72051905882907E-32,-1.75944798955136E-32,
1.));
#263=DIRECTION('ref_axis',(1.,0.,-2.72051905882907E-32));
#264=DIRECTION('',(0.,0.,1.));
#265=DIRECTION('',(1.,0.,0.));
#266=CARTESIAN_POINT('',(0.,0.,0.));
#267=CARTESIAN_POINT('',(0.,0.,0.));
#268=CARTESIAN_POINT('Origin',(-4.49999999993444,2.89285527710842,93.));
#269=CARTESIAN_POINT('',(-2.49999999993444,2.89285527710842,93.));
#270=CARTESIAN_POINT('Origin',(-4.49999999993444,2.89285527710842,93.));
#271=CARTESIAN_POINT('',(-2.49999999993444,2.89285527710842,53.));
#272=CARTESIAN_POINT('',(-2.49999999993444,2.89285527710842,93.));
#273=CARTESIAN_POINT('Origin',(-4.49999999993444,2.89285527710842,53.));
#274=CARTESIAN_POINT('Origin',(-4.49999999995468,-2.89285527713291,93.));
#275=CARTESIAN_POINT('',(-2.49999999995468,-2.89285527713291,93.));
#276=CARTESIAN_POINT('Origin',(-4.49999999995468,-2.89285527713291,93.));
#277=CARTESIAN_POINT('',(-2.49999999995468,-2.89285527713291,53.));
#278=CARTESIAN_POINT('',(-2.49999999995468,-2.89285527713291,93.));
#279=CARTESIAN_POINT('Origin',(-4.49999999995468,-2.89285527713291,53.));
#280=CARTESIAN_POINT('Origin',(-1.,-1.03373777356162E-5,54.));
#281=CARTESIAN_POINT('',(-6.16297582203915E-32,-7.48749999012798,54.0000007897615));
#282=CARTESIAN_POINT('',(-0.999999999852407,-7.44787133719908,53.));
#283=CARTESIAN_POINT('Ctrl Pts',(-0.000537581705455592,-7.48696445944052,
54.0000007897615));
#284=CARTESIAN_POINT('Ctrl Pts',(-0.000537542079253426,-7.48754575096086,
53.953501165391));
#285=CARTESIAN_POINT('Ctrl Pts',(-0.00377949231803404,-7.48812917218363,
53.9069573687007));
#286=CARTESIAN_POINT('Ctrl Pts',(-0.0102820981958918,-7.48870063826806,
53.8607103724658));
#287=CARTESIAN_POINT('Ctrl Pts',(-0.0190970676672742,-7.48947532093878,
53.798017681626));
#288=CARTESIAN_POINT('Ctrl Pts',(-0.0338227749259706,-7.49022273090587,
53.7364456705597));
#289=CARTESIAN_POINT('Ctrl Pts',(-0.0541870412497862,-7.49085520724551,
53.6767996693702));
#290=CARTESIAN_POINT('Ctrl Pts',(-0.0745513075736019,-7.49148768358514,
53.6171536681808));
#291=CARTESIAN_POINT('Ctrl Pts',(-0.100554299996582,-7.49200458742974,53.5594336768681));
#292=CARTESIAN_POINT('Ctrl Pts',(-0.131920645013994,-7.49226611150018,53.5044450255353));
#293=CARTESIAN_POINT('Ctrl Pts',(-0.173940261526426,-7.49261645965654,53.4307800180167));
#294=CARTESIAN_POINT('Ctrl Pts',(-0.225060100293871,-7.49250188536787,53.3629361267569));
#295=CARTESIAN_POINT('Ctrl Pts',(-0.283941117759509,-7.49153435383774,53.3024506562488));
#296=CARTESIAN_POINT('Ctrl Pts',(-0.317409862816053,-7.49098439618568,53.2680699189722));
#297=CARTESIAN_POINT('Ctrl Pts',(-0.353385798299316,-7.49015772561151,53.2360666397408));
#298=CARTESIAN_POINT('Ctrl Pts',(-0.39161938268534,-7.48897954224512,53.2067231454569));
#299=CARTESIAN_POINT('Ctrl Pts',(-0.446435408684817,-7.48729036423365,53.1646529662831));
#300=CARTESIAN_POINT('Ctrl Pts',(-0.505328785107737,-7.48489257069277,53.1284804923295));
#301=CARTESIAN_POINT('Ctrl Pts',(-0.567320868921281,-7.48162987948556,53.0986918643604));
#302=CARTESIAN_POINT('Ctrl Pts',(-0.609950756910581,-7.4793862355854,53.0782072186514));
#303=CARTESIAN_POINT('Ctrl Pts',(-0.654045760384919,-7.47673432985794,53.0607414005549));
#304=CARTESIAN_POINT('Ctrl Pts',(-0.69928570755909,-7.47363787579778,53.04645249698));
#305=CARTESIAN_POINT('Ctrl Pts',(-0.757247563861981,-7.46967066901497,53.0281454160159));
#306=CARTESIAN_POINT('Ctrl Pts',(-0.816611769819006,-7.46500409331378,53.0152035196874));
#307=CARTESIAN_POINT('Ctrl Pts',(-0.876639745916614,-7.4596353578394,53.0077085167751));
#308=CARTESIAN_POINT('Ctrl Pts',(-0.917728469979679,-7.4559604964695,53.0025782404184));
#309=CARTESIAN_POINT('Ctrl Pts',(-0.959128192220852,-7.45195767030826,52.9999999999991));
#310=CARTESIAN_POINT('Ctrl Pts',(-1.0006029889503,-7.44764012034646,53.));
#311=CARTESIAN_POINT('',(-0.999999999988894,7.44787133717051,53.));
#312=CARTESIAN_POINT('',(-1.,-1.03373777356162E-5,53.));
#313=CARTESIAN_POINT('',(-6.16297582203915E-32,7.48749999012798,54.0000007897615));
#314=CARTESIAN_POINT('Ctrl Pts',(-0.998947877951678,7.44797039558782,53.));
#315=CARTESIAN_POINT('Ctrl Pts',(-0.953162660792693,7.45273437364385,53.000000000001));
#316=CARTESIAN_POINT('Ctrl Pts',(-0.907400117779265,7.45712139546694,53.0031446720208));
#317=CARTESIAN_POINT('Ctrl Pts',(-0.861981666753954,7.46111094252359,53.0094272721232));
#318=CARTESIAN_POINT('Ctrl Pts',(-0.799664219196834,7.4665848938334,53.0180474604733));
#319=CARTESIAN_POINT('Ctrl Pts',(-0.738363663450371,7.47127631653581,53.032522783341));
#320=CARTESIAN_POINT('Ctrl Pts',(-0.678881659132161,7.47521041607599,53.0526367866585));
#321=CARTESIAN_POINT('Ctrl Pts',(-0.637658249434564,7.47793690451556,53.0665765959995));
#322=CARTESIAN_POINT('Ctrl Pts',(-0.597308357380546,7.48030089150092,53.0832246887924));
#323=CARTESIAN_POINT('Ctrl Pts',(-0.558098616766326,7.48232533082747,53.1025090139232));
#324=CARTESIAN_POINT('Ctrl Pts',(-0.489121992697751,7.48588666503141,53.136433432298));
#325=CARTESIAN_POINT('Ctrl Pts',(-0.424395999945555,7.4883583528604,53.1781505622641));
#326=CARTESIAN_POINT('Ctrl Pts',(-0.365158054464846,7.48998816613855,53.226758342383));
#327=CARTESIAN_POINT('Ctrl Pts',(-0.328917584132098,7.49098525000558,53.2564955116762));
#328=CARTESIAN_POINT('Ctrl Pts',(-0.294730845755188,7.491668468562,53.288811660387));
#329=CARTESIAN_POINT('Ctrl Pts',(-0.262878231559482,7.49210119728061,53.3235002421148));
#330=CARTESIAN_POINT('Ctrl Pts',(-0.214148867561563,7.49276320244953,53.3765681791827));
#331=CARTESIAN_POINT('Ctrl Pts',(-0.17140680151587,7.492835353593,53.4346224057209));
#332=CARTESIAN_POINT('Ctrl Pts',(-0.135311324921496,7.49256730141152,53.4965900664771));
#333=CARTESIAN_POINT('Ctrl Pts',(-0.105205576097801,7.49234373013864,53.5482747374092));
#334=CARTESIAN_POINT('Ctrl Pts',(-0.0797232095447525,7.49188352881417,53.6026818046356));
#335=CARTESIAN_POINT('Ctrl Pts',(-0.059241345649695,7.49130392996947,53.6591887800009));
#336=CARTESIAN_POINT('Ctrl Pts',(-0.0386031047181995,7.49071990594403,53.7161271806208));
#337=CARTESIAN_POINT('Ctrl Pts',(-0.023228643203804,7.49002133605812,53.7746851712819));
#338=CARTESIAN_POINT('Ctrl Pts',(-0.0132312712654454,7.48929271667218,53.8341268599053));
#339=CARTESIAN_POINT('Ctrl Pts',(-0.0040257493089218,7.48862180817778,53.8888604211982));
#340=CARTESIAN_POINT('Ctrl Pts',(0.000620823793537032,7.48792505093488,
53.9443432363538));
#341=CARTESIAN_POINT('Ctrl Pts',(0.000620855861225955,7.48722929372197,
54.0000007897615));
#342=CARTESIAN_POINT('',(-6.16297582203915E-32,0.,54.0000007897615));
#343=CARTESIAN_POINT('Ctrl Pts',(-8.,-8.41944674413805E-16,93.));
#344=CARTESIAN_POINT('Ctrl Pts',(-8.16666666666667,-8.64906801897818E-16,
79.6666666666667));
#345=CARTESIAN_POINT('Ctrl Pts',(-8.33333333333333,-8.87868929381831E-16,
66.3333333333333));
#346=CARTESIAN_POINT('Ctrl Pts',(-8.5,-9.10831056865844E-16,53.));
#347=CARTESIAN_POINT('Ctrl Pts',(-8.,-1.02849759492523,93.));
#348=CARTESIAN_POINT('Ctrl Pts',(-8.16688567321175,-1.05657087663662,79.6666666666667));
#349=CARTESIAN_POINT('Ctrl Pts',(-8.33311432678825,-1.08457411643499,66.3333333333334));
#350=CARTESIAN_POINT('Ctrl Pts',(-8.5,-1.11264739814639,53.));
#351=CARTESIAN_POINT('Ctrl Pts',(-7.47301003853837,-3.09029865889992,93.));
#352=CARTESIAN_POINT('Ctrl Pts',(-7.62454328003753,-3.17418401558273,79.6666666666667));
#353=CARTESIAN_POINT('Ctrl Pts',(-7.77627050033705,-3.25816742255386,66.3333333333333));
#354=CARTESIAN_POINT('Ctrl Pts',(-7.92780374183621,-3.34205277923668,53.));
#355=CARTESIAN_POINT('Ctrl Pts',(-5.21644076157112,-5.62217205052886,93.));
#356=CARTESIAN_POINT('Ctrl Pts',(-5.31477158852182,-5.76323231043429,79.6666666666667));
#357=CARTESIAN_POINT('Ctrl Pts',(-5.41283646601748,-5.90420672819632,66.3333333333334));
#358=CARTESIAN_POINT('Ctrl Pts',(-5.51116729296818,-6.04526698810175,53.));
#359=CARTESIAN_POINT('Ctrl Pts',(-1.86737933922275,-7.05916036435194,93.));
#360=CARTESIAN_POINT('Ctrl Pts',(-1.90078230785074,-7.22694471656785,79.6666666666667));
#361=CARTESIAN_POINT('Ctrl Pts',(-1.93434153037653,-7.3947504712442,66.3333333333333));
#362=CARTESIAN_POINT('Ctrl Pts',(-1.96774449900451,-7.56253482346011,53.));
#363=CARTESIAN_POINT('Ctrl Pts',(1.86650843466236,-7.0595086236418,93.));
#364=CARTESIAN_POINT('Ctrl Pts',(1.89987731185504,-7.22731322084071,79.6666666666667));
#365=CARTESIAN_POINT('Ctrl Pts',(1.93339404760233,-7.39510421945005,66.3333333333333));
#366=CARTESIAN_POINT('Ctrl Pts',(1.966762924795,-7.56290881664896,53.));
#367=CARTESIAN_POINT('Ctrl Pts',(5.21476922312784,-5.62075391107676,93.));
#368=CARTESIAN_POINT('Ctrl Pts',(5.31321364509676,-5.76177697099909,79.6666666666667));
#369=CARTESIAN_POINT('Ctrl Pts',(5.41127932466039,-5.90284823650566,66.3333333333333));
#370=CARTESIAN_POINT('Ctrl Pts',(5.50972374662932,-6.04387129642799,53.));
#371=CARTESIAN_POINT('Ctrl Pts',(7.22136169500597,-3.37037260079216,93.));
#372=CARTESIAN_POINT('Ctrl Pts',(7.36677493863105,-3.46067625424607,79.6666666666667));
#373=CARTESIAN_POINT('Ctrl Pts',(7.51241866394476,-3.55101837324035,66.3333333333333));
#374=CARTESIAN_POINT('Ctrl Pts',(7.65783190756984,-3.64132202669426,53.));
#375=CARTESIAN_POINT('Ctrl Pts',(8.26136543710012,-0.371507625905758,93.));
#376=CARTESIAN_POINT('Ctrl Pts',(8.43545407316855,-0.382352312759623,79.6666666666667));
#377=CARTESIAN_POINT('Ctrl Pts',(8.60889067294898,-0.393494526301978,66.3333333333334));
#378=CARTESIAN_POINT('Ctrl Pts',(8.78297930901741,-0.404339213155842,53.));
#379=CARTESIAN_POINT('Ctrl Pts',(7.7887430599559,2.45238272843681,93.));
#380=CARTESIAN_POINT('Ctrl Pts',(7.94872222626275,2.52015849633661,79.6666666666667));
#381=CARTESIAN_POINT('Ctrl Pts',(8.10896336964399,2.58797898178197,66.3333333333333));
#382=CARTESIAN_POINT('Ctrl Pts',(8.26894253595084,2.65575474968176,53.));
#383=CARTESIAN_POINT('Ctrl Pts',(5.99618984477326,4.7885868966502,93.));
#384=CARTESIAN_POINT('Ctrl Pts',(6.11258505171209,4.91112972407279,79.6666666666667));
#385=CARTESIAN_POINT('Ctrl Pts',(6.22931452876,5.03373973981906,66.3333333333334));
#386=CARTESIAN_POINT('Ctrl Pts',(6.34570973569882,5.15628256724165,53.));
#387=CARTESIAN_POINT('Ctrl Pts',(4.11007585218767,6.12915690339672,93.));
#388=CARTESIAN_POINT('Ctrl Pts',(4.18685145181528,6.2796254853358,79.6666666666667));
#389=CARTESIAN_POINT('Ctrl Pts',(4.26372109345529,6.430101314758,66.3333333333333));
#390=CARTESIAN_POINT('Ctrl Pts',(4.34049669308291,6.58056989669709,53.));
#391=CARTESIAN_POINT('Ctrl Pts',(1.45168606340234,7.05941679945089,93.));
#392=CARTESIAN_POINT('Ctrl Pts',(1.47765248144102,7.22720546310988,79.6666666666667));
#393=CARTESIAN_POINT('Ctrl Pts',(1.50392703072463,7.39503054460321,66.3333333333334));
#394=CARTESIAN_POINT('Ctrl Pts',(1.5298934487633,7.5628192082622,53.));
#395=CARTESIAN_POINT('Ctrl Pts',(-1.8662138044638,7.05966405041523,93.));
#396=CARTESIAN_POINT('Ctrl Pts',(-1.8996479162465,7.2274481769577,79.6666666666667));
#397=CARTESIAN_POINT('Ctrl Pts',(-1.93304152011475,7.39529873597163,66.3333333333333));
#398=CARTESIAN_POINT('Ctrl Pts',(-1.96647563189746,7.5630828625141,53.));
#399=CARTESIAN_POINT('Ctrl Pts',(-5.21430619331172,5.62145315798815,93.));
#400=CARTESIAN_POINT('Ctrl Pts',(-5.31260070645583,5.76252364651981,79.6666666666667));
#401=CARTESIAN_POINT('Ctrl Pts',(-5.41058990594772,5.90359940591158,66.3333333333334));
#402=CARTESIAN_POINT('Ctrl Pts',(-5.50888441909184,6.04466989444324,53.));
#403=CARTESIAN_POINT('Ctrl Pts',(-7.47430093213844,3.08827248303358,93.));
#404=CARTESIAN_POINT('Ctrl Pts',(-7.6258871521858,3.17211605741157,79.6666666666667));
#405=CARTESIAN_POINT('Ctrl Pts',(-7.77759160222406,3.25604396594706,66.3333333333333));
#406=CARTESIAN_POINT('Ctrl Pts',(-7.92917782227141,3.33988754032505,53.));
#407=CARTESIAN_POINT('Ctrl Pts',(-8.,1.02849759492523,93.));
#408=CARTESIAN_POINT('Ctrl Pts',(-8.16685842952842,1.05658867718331,79.6666666666667));
#409=CARTESIAN_POINT('Ctrl Pts',(-8.33314157047158,1.08455631588831,66.3333333333333));
#410=CARTESIAN_POINT('Ctrl Pts',(-8.5,1.11264739814639,53.));
#411=CARTESIAN_POINT('Ctrl Pts',(-8.,8.41944674413805E-16,93.));
#412=CARTESIAN_POINT('Ctrl Pts',(-8.16666666666667,8.64906801897818E-16,
79.6666666666667));
#413=CARTESIAN_POINT('Ctrl Pts',(-8.33333333333333,8.87868929381831E-16,
66.3333333333333));
#414=CARTESIAN_POINT('Ctrl Pts',(-8.5,9.10831056865844E-16,53.));
#415=CARTESIAN_POINT('Ctrl Pts',(4.71844785465692E-15,-7.48749999012798,
54.0000007897615));
#416=CARTESIAN_POINT('Ctrl Pts',(1.26496770517658,-7.47168789381327,55.2649684949382));
#417=CARTESIAN_POINT('Ctrl Pts',(2.54898292181177,-7.20621517769899,56.5489837115734));
#418=CARTESIAN_POINT('Ctrl Pts',(4.63724715582792,-6.26571237001343,58.6372479455897));
#419=CARTESIAN_POINT('Ctrl Pts',(5.51275917123021,-5.69631322488964,59.512759960992));
#420=CARTESIAN_POINT('Ctrl Pts',(6.77552679530997,-4.42792260647848,60.7755275850718));
#421=CARTESIAN_POINT('Ctrl Pts',(7.23835036086899,-3.826037703746,61.2383511506309));
#422=CARTESIAN_POINT('Ctrl Pts',(7.88119681955345,-2.59650775698964,61.8811976093154));
#423=CARTESIAN_POINT('Ctrl Pts',(8.10111463491558,-2.0130971258093,62.1011154246779));
#424=CARTESIAN_POINT('Ctrl Pts',(8.36212091556214,-0.793965669538657,62.3621217053245));
#425=CARTESIAN_POINT('Ctrl Pts',(8.40873648271433,-0.186077322543019,62.4087372724218));
#426=CARTESIAN_POINT('Ctrl Pts',(8.32535134639225,1.09526198095802,62.3253521360997));
#427=CARTESIAN_POINT('Ctrl Pts',(8.18168929649592,1.73301866591829,62.1816900862578));
#428=CARTESIAN_POINT('Ctrl Pts',(7.67289597522034,3.09976998888934,61.6728967649822));
#429=CARTESIAN_POINT('Ctrl Pts',(7.26356005012588,3.77577642642365,61.2635608398878));
#430=CARTESIAN_POINT('Ctrl Pts',(6.14698707595837,5.15102889251252,60.1469878657202));
#431=CARTESIAN_POINT('Ctrl Pts',(5.32450648063496,5.83148246298789,59.3245072703968));
#432=CARTESIAN_POINT('Ctrl Pts',(3.05891141834958,7.07673738029295,57.0589122081113));
#433=CARTESIAN_POINT('Ctrl Pts',(1.54604233909086,7.46817446088934,55.5460431288525));
#434=CARTESIAN_POINT('Ctrl Pts',(1.66533453693773E-15,7.48749999012798,
54.0000007897615));
#435=CARTESIAN_POINT('',(-8.5,-9.10830939445902E-16,53.));
#436=CARTESIAN_POINT('Ctrl Pts',(-0.998947877961477,7.4479703955868,53.));
#437=CARTESIAN_POINT('Ctrl Pts',(-1.30228005493067,7.41640850892436,53.));
#438=CARTESIAN_POINT('Ctrl Pts',(-1.60365353992811,7.37040929989923,53.));
#439=CARTESIAN_POINT('Ctrl Pts',(-1.90130789380596,7.30996459933006,53.));
#440=CARTESIAN_POINT('Ctrl Pts',(-3.14727856096225,7.05694520649048,53.));
#441=CARTESIAN_POINT('Ctrl Pts',(-4.32808149002704,6.55080755046686,53.));
#442=CARTESIAN_POINT('Ctrl Pts',(-5.3218651884227,5.84694166343535,53.));
#443=CARTESIAN_POINT('Ctrl Pts',(-6.31564888681836,5.14307577640385,53.));
#444=CARTESIAN_POINT('Ctrl Pts',(-7.12241335454489,4.24148165836445,53.));
#445=CARTESIAN_POINT('Ctrl Pts',(-7.6685011328403,3.23387456380008,53.));
#446=CARTESIAN_POINT('Ctrl Pts',(-8.21458891113571,2.22626746923572,53.));
#447=CARTESIAN_POINT('Ctrl Pts',(-8.5,1.11264739814639,53.));
#448=CARTESIAN_POINT('Ctrl Pts',(-8.5,1.11022302462516E-15,53.));
#449=CARTESIAN_POINT('',(-8.,-8.41944674413805E-16,93.));
#450=CARTESIAN_POINT('',(-8.,-8.41944674413805E-16,93.));
#451=CARTESIAN_POINT('',(-0.999999999999997,6.94499079231823,93.));
#452=CARTESIAN_POINT('Ctrl Pts',(-0.999136990162912,6.94507175167132,93.));
#453=CARTESIAN_POINT('Ctrl Pts',(-1.2690705939748,6.915429652111,93.));
#454=CARTESIAN_POINT('Ctrl Pts',(-1.53721156684066,6.87371326683842,93.));
#455=CARTESIAN_POINT('Ctrl Pts',(-1.80212297738021,6.8199158754549,93.));
#456=CARTESIAN_POINT('Ctrl Pts',(-2.98224460074644,6.58026041960621,93.));
#457=CARTESIAN_POINT('Ctrl Pts',(-4.09827539702908,6.10085678879718,93.));
#458=CARTESIAN_POINT('Ctrl Pts',(-5.03295658497485,5.43895819423357,93.));
#459=CARTESIAN_POINT('Ctrl Pts',(-5.96763777292063,4.77705959966996,93.));
#460=CARTESIAN_POINT('Ctrl Pts',(-6.72096935252954,3.93266604135177,93.));
#461=CARTESIAN_POINT('Ctrl Pts',(-7.22905990929938,2.99552554016559,93.));
#462=CARTESIAN_POINT('Ctrl Pts',(-7.73715046606922,2.05838503897941,93.));
#463=CARTESIAN_POINT('Ctrl Pts',(-8.,1.02849759492523,93.));
#464=CARTESIAN_POINT('Ctrl Pts',(-8.,5.55111512312578E-16,93.));
#465=CARTESIAN_POINT('',(4.31408307542741E-31,7.0124999826774,92.000001385808));
#466=CARTESIAN_POINT('Ctrl Pts',(0.000472343676842346,7.01216277616117,
92.000001385808));
#467=CARTESIAN_POINT('Ctrl Pts',(0.000472357544543131,7.01169950603509,
92.0370609826048));
#468=CARTESIAN_POINT('Ctrl Pts',(-0.00158769777937447,7.01123635312428,
92.07416342108));
#469=CARTESIAN_POINT('Ctrl Pts',(-0.00572215983579771,7.01077129444512,
92.1111367694993));
#470=CARTESIAN_POINT('Ctrl Pts',(-0.0128080330474176,7.00997425076894,92.1745037699778));
#471=CARTESIAN_POINT('Ctrl Pts',(-0.0259213457284903,7.00918237008324,92.2369003705936));
#472=CARTESIAN_POINT('Ctrl Pts',(-0.0448018334874667,7.00833171047994,92.2974973421215));
#473=CARTESIAN_POINT('Ctrl Pts',(-0.0636823212464431,7.00748105087664,92.3580943136493));
#474=CARTESIAN_POINT('Ctrl Pts',(-0.0883301233994026,7.00657096997443,92.4168916560893));
#475=CARTESIAN_POINT('Ctrl Pts',(-0.118483635415262,7.00547879160094,92.4730601402163));
#476=CARTESIAN_POINT('Ctrl Pts',(-0.156800905275183,7.00409091699947,92.5444356722864));
#477=CARTESIAN_POINT('Ctrl Pts',(-0.203546905256007,7.00242348244932,92.6107075513532));
#478=CARTESIAN_POINT('Ctrl Pts',(-0.257574521806214,7.00015982978554,92.6705102984363));
#479=CARTESIAN_POINT('Ctrl Pts',(-0.292252422508563,6.9987068928005,92.7088949960687));
#480=CARTESIAN_POINT('Ctrl Pts',(-0.329929994161168,6.99700686760783,92.7446145539227));
#481=CARTESIAN_POINT('Ctrl Pts',(-0.37030089116241,6.99496921965874,92.7773078981884));
#482=CARTESIAN_POINT('Ctrl Pts',(-0.424715011459805,6.99222276543402,92.8213737897079));
#483=CARTESIAN_POINT('Ctrl Pts',(-0.483442412612503,6.98888849727944,92.8594817117053));
#484=CARTESIAN_POINT('Ctrl Pts',(-0.545494682715751,6.98479968075923,92.8911055570425));
#485=CARTESIAN_POINT('Ctrl Pts',(-0.589755028663016,6.98188322929987,92.9136620619451));
#486=CARTESIAN_POINT('Ctrl Pts',(-0.635706770039549,6.9785835399344,92.9329197181228));
#487=CARTESIAN_POINT('Ctrl Pts',(-0.682989762282636,6.97485667591218,92.9486876081437));
#488=CARTESIAN_POINT('Ctrl Pts',(-0.73990215081914,6.97037081909152,92.9676667006396));
#489=CARTESIAN_POINT('Ctrl Pts',(-0.798266099523133,6.965301490344,92.9814326494252));
#490=CARTESIAN_POINT('Ctrl Pts',(-0.857369334097881,6.95964156516622,92.9898991038871));
#491=CARTESIAN_POINT('Ctrl Pts',(-0.904277588250084,6.95514947246381,92.996618644713));
#492=CARTESIAN_POINT('Ctrl Pts',(-0.951651504293423,6.95028625434869,92.9999999999991));
#493=CARTESIAN_POINT('Ctrl Pts',(-0.999136990143803,6.94507175167342,93.));
#494=CARTESIAN_POINT('',(4.31408307542741E-31,-7.0124999826774,92.000001385808));
#495=CARTESIAN_POINT('Ctrl Pts',(3.88578058618805E-15,7.0124999826774,92.000001385808));
#496=CARTESIAN_POINT('Ctrl Pts',(1.3504674052284,7.02938082524277,90.6495339805786));
#497=CARTESIAN_POINT('Ctrl Pts',(2.68448874749647,6.74688290623152,89.3155126383095));
#498=CARTESIAN_POINT('Ctrl Pts',(4.70041134149582,5.80431503320231,87.2995900443086));
#499=CARTESIAN_POINT('Ctrl Pts',(5.50539612569038,5.26634119370185,86.4946052601134));
#500=CARTESIAN_POINT('Ctrl Pts',(6.66345089531696,4.07541020715762,85.336550490486));
#501=CARTESIAN_POINT('Ctrl Pts',(7.08674909219489,3.51167682494856,84.9132522936077));
#502=CARTESIAN_POINT('Ctrl Pts',(7.67273485273284,2.36046405121735,84.3272665330693));
#503=CARTESIAN_POINT('Ctrl Pts',(7.87178420909343,1.81365321375366,84.1282171767087));
#504=CARTESIAN_POINT('Ctrl Pts',(8.10330819358045,0.669726316354144,83.8966931922215));
#505=CARTESIAN_POINT('Ctrl Pts',(8.14001159992536,0.0988911731468937,83.8599897858195));
#506=CARTESIAN_POINT('Ctrl Pts',(8.04683776273734,-1.10378947780803,83.9531636230076));
#507=CARTESIAN_POINT('Ctrl Pts',(7.90357372543242,-1.70177833337268,84.0964276603696));
#508=CARTESIAN_POINT('Ctrl Pts',(7.40567351491242,-2.98590367132798,84.5943278708899));
#509=CARTESIAN_POINT('Ctrl Pts',(7.00750366265042,-3.62067448258734,84.9924977231523));
#510=CARTESIAN_POINT('Ctrl Pts',(5.92250233715361,-4.91292582740359,86.0774990486499));
#511=CARTESIAN_POINT('Ctrl Pts',(5.12194855331417,-5.5494439009797,86.8780528324899));
#512=CARTESIAN_POINT('Ctrl Pts',(2.92938093694843,-6.69193693118148,89.0706204488574));
#513=CARTESIAN_POINT('Ctrl Pts',(1.47582407745564,-7.03094778364561,90.5241773083512));
#514=CARTESIAN_POINT('Ctrl Pts',(-1.38777878078145E-16,-7.0124999826774,
92.000001385808));
#515=CARTESIAN_POINT('',(-0.999999999778246,-6.94499079236721,93.));
#516=CARTESIAN_POINT('Ctrl Pts',(-1.00062007663882,-6.94477809889104,93.));
#517=CARTESIAN_POINT('Ctrl Pts',(-0.980760684077351,-6.94695948230567,92.9999999999997));
#518=CARTESIAN_POINT('Ctrl Pts',(-0.960899289611715,-6.94908210666986,92.999408762532));
#519=CARTESIAN_POINT('Ctrl Pts',(-0.941062104314405,-6.95114363828076,92.9982259164755));
#520=CARTESIAN_POINT('Ctrl Pts',(-0.88049784874466,-6.95743763238711,92.9946146082286));
#521=CARTESIAN_POINT('Ctrl Pts',(-0.820442918162912,-6.96312860295799,92.9855071196628));
#522=CARTESIAN_POINT('Ctrl Pts',(-0.76162856284656,-6.96820458665696,92.9710405141733));
#523=CARTESIAN_POINT('Ctrl Pts',(-0.71506046514163,-6.97222365485164,92.9595861286875));
#524=CARTESIAN_POINT('Ctrl Pts',(-0.66927026656451,-6.97585836413804,92.9447720196364));
#525=CARTESIAN_POINT('Ctrl Pts',(-0.624622171780415,-6.97912585327894,92.9266662227352));
#526=CARTESIAN_POINT('Ctrl Pts',(-0.556534173781865,-6.98410874885737,92.8990550229936));
#527=CARTESIAN_POINT('Ctrl Pts',(-0.49180089882271,-6.98818490277348,92.8640707430341));
#528=CARTESIAN_POINT('Ctrl Pts',(-0.431556366096136,-6.99153386937841,92.8224025165944));
#529=CARTESIAN_POINT('Ctrl Pts',(-0.393222335609233,-6.99366484097239,92.7958887237175));
#530=CARTESIAN_POINT('Ctrl Pts',(-0.356705615407961,-6.99550284159612,92.7666686887082));
#531=CARTESIAN_POINT('Ctrl Pts',(-0.322296680839704,-6.99710455421696,92.7349199547663));
#532=CARTESIAN_POINT('Ctrl Pts',(-0.264872056586221,-6.99977763161874,92.6819349048071));
#533=CARTESIAN_POINT('Ctrl Pts',(-0.213986025078454,-7.00176547785345,92.6225194763943));
#534=CARTESIAN_POINT('Ctrl Pts',(-0.170586557366001,-7.00337518919127,92.5579649712565));
#535=CARTESIAN_POINT('Ctrl Pts',(-0.140545942995529,-7.0044894129386,92.5132810823302));
#536=CARTESIAN_POINT('Ctrl Pts',(-0.114091990904873,-7.00542221057966,92.4661349333678));
#537=CARTESIAN_POINT('Ctrl Pts',(-0.0915361819348623,-7.00626038343797,
92.4169547779021));
#538=CARTESIAN_POINT('Ctrl Pts',(-0.0658664004643393,-7.00721427137592,
92.3609849900232));
#539=CARTESIAN_POINT('Ctrl Pts',(-0.0454836732595387,-7.0080391302338,92.302899333622));
#540=CARTESIAN_POINT('Ctrl Pts',(-0.0305681526467763,-7.00883112532327,
92.2434590774228));
#541=CARTESIAN_POINT('Ctrl Pts',(-0.0160867516671154,-7.00960006921482,
92.1857488434523));
#542=CARTESIAN_POINT('Ctrl Pts',(-0.00675884588707729,-7.0103381661364,
92.1267617140558));
#543=CARTESIAN_POINT('Ctrl Pts',(-0.00274872812962679,-7.01108386087966,
92.067194403133));
#544=CARTESIAN_POINT('Ctrl Pts',(-0.00201497624933793,-7.01122030448383,
92.0562950657476));
#545=CARTESIAN_POINT('Ctrl Pts',(-0.00145926360171712,-7.01135686202083,
92.0453763039406));
#546=CARTESIAN_POINT('Ctrl Pts',(-0.0010825972324362,-7.01149357682768,
92.0344423857743));
#547=CARTESIAN_POINT('Ctrl Pts',(-0.000686954134554748,-7.01163717942701,
92.0229576087725));
#548=CARTESIAN_POINT('Ctrl Pts',(-0.000489545032535797,-7.01178071255473,
92.0114756009538));
#549=CARTESIAN_POINT('Ctrl Pts',(-0.000489534010952086,-7.01192415164814,
92.000001385808));
#550=CARTESIAN_POINT('Ctrl Pts',(-8.,-8.41944674413805E-16,93.));
#551=CARTESIAN_POINT('Ctrl Pts',(-8.,-1.02849759492523,93.));
#552=CARTESIAN_POINT('Ctrl Pts',(-7.73650501926918,-2.05939812691258,93.));
#553=CARTESIAN_POINT('Ctrl Pts',(-7.22866264940924,-2.99682729151107,93.));
#554=CARTESIAN_POINT('Ctrl Pts',(-6.72082027954929,-3.93425645610957,93.));
#555=CARTESIAN_POINT('Ctrl Pts',(-5.9686305205602,-4.77821425331921,93.));
#556=CARTESIAN_POINT('Ctrl Pts',(-5.03435873734093,-5.43969120422788,93.));
#557=CARTESIAN_POINT('Ctrl Pts',(-4.10008695412166,-6.10116815513655,93.));
#558=CARTESIAN_POINT('Ctrl Pts',(-2.98373314667221,-6.58016425974425,93.));
#559=CARTESIAN_POINT('Ctrl Pts',(-1.80324161396663,-6.81972035526307,93.));
#560=CARTESIAN_POINT('Ctrl Pts',(-1.53844511714498,-6.87345527256508,93.));
#561=CARTESIAN_POINT('Ctrl Pts',(-1.27042152145802,-6.91514273139307,93.));
#562=CARTESIAN_POINT('Ctrl Pts',(-1.00062007643066,-6.94477809891391,93.));
#563=CARTESIAN_POINT('Ctrl Pts',(-8.5,-5.86568282441604E-16,53.));
#564=CARTESIAN_POINT('Ctrl Pts',(-8.49999999999999,-1.11264739814639,53.0000000000005));
#565=CARTESIAN_POINT('Ctrl Pts',(-8.21390187091809,-2.22735008869153,53.000000000001));
#566=CARTESIAN_POINT('Ctrl Pts',(-7.66808006489914,-3.23523713544161,53.0000000000015));
#567=CARTESIAN_POINT('Ctrl Pts',(-7.12225825888018,-4.24312418219169,53.000000000002));
#568=CARTESIAN_POINT('Ctrl Pts',(-6.31671277592417,-5.1441955851467,53.0000000000025));
#569=CARTESIAN_POINT('Ctrl Pts',(-5.32336956878555,-5.84760925918393,53.000000000003));
#570=CARTESIAN_POINT('Ctrl Pts',(-4.33002636164694,-6.55102293322116,53.0000000000035));
#571=CARTESIAN_POINT('Ctrl Pts',(-3.14888543032572,-7.05677887834061,53.000000000004));
#572=CARTESIAN_POINT('Ctrl Pts',(-1.9025637273652,-7.30971918309847,53.0000000000045));
#573=CARTESIAN_POINT('Ctrl Pts',(-1.60503328698375,-7.3701028224799,53.0000000000047));
#574=CARTESIAN_POINT('Ctrl Pts',(-1.30378816160129,-7.41607837119817,53.0000000000048));
#575=CARTESIAN_POINT('Ctrl Pts',(-1.00060298876764,-7.44764012036542,53.0000000000049));
#576=CARTESIAN_POINT('Origin',(-1.,-9.70930850283565E-6,92.));
#577=CARTESIAN_POINT('',(-1.,-9.70930850283565E-6,93.));
#578=CARTESIAN_POINT('',(4.31408307542741E-31,0.,92.000001385808));
#579=CARTESIAN_POINT('Origin',(-0.727301328562939,-1.94186170056713E-5,
93.));
#580=CARTESIAN_POINT('Origin',(10.5125907737336,0.,81.4874106120664));
#581=CARTESIAN_POINT('',(5.50000006332994,1.53080849893419E-16,86.5000013224739));
#582=CARTESIAN_POINT('Origin',(4.25000006332994,0.,87.7500013224748));
#583=CARTESIAN_POINT('Origin',(-6.16297582203915E-32,0.,54.0000007897615));
#584=CARTESIAN_POINT('',(5.50000006332994,-1.53080849893419E-16,59.5000008530917));
#585=CARTESIAN_POINT('Origin',(4.25000006332994,0.,58.2500008530917));
#586=CARTESIAN_POINT('Origin',(4.25000006332994,0.,93.));
#587=CARTESIAN_POINT('',(5.50000006332994,-1.53080849893419E-16,93.));
#588=CARTESIAN_POINT('Origin',(-0.772758380211779,-2.06747554712323E-5,
53.));
#589=CARTESIAN_POINT('',(0.,0.,0.));
#590=UNCERTAINTY_MEASURE_WITH_UNIT(LENGTH_MEASURE(0.01),#596,
'DISTANCE_ACCURACY_VALUE',
'Maximum model space distance between geometric entities at asserted c
onnectivities');
#591=UNCERTAINTY_MEASURE_WITH_UNIT(LENGTH_MEASURE(0.01),#596,
'DISTANCE_ACCURACY_VALUE',
'Maximum model space distance between geometric entities at asserted c
onnectivities');
#592=UNCERTAINTY_MEASURE_WITH_UNIT(LENGTH_MEASURE(0.01),#596,
'DISTANCE_ACCURACY_VALUE',
'Maximum model space distance between geometric entities at asserted c
onnectivities');
#593=(
GEOMETRIC_REPRESENTATION_CONTEXT(3)
GLOBAL_UNCERTAINTY_ASSIGNED_CONTEXT((#590))
GLOBAL_UNIT_ASSIGNED_CONTEXT((#596,#598,#599))
REPRESENTATION_CONTEXT('','3D')
);
#594=(
GEOMETRIC_REPRESENTATION_CONTEXT(3)
GLOBAL_UNCERTAINTY_ASSIGNED_CONTEXT((#591))
GLOBAL_UNIT_ASSIGNED_CONTEXT((#596,#598,#599))
REPRESENTATION_CONTEXT('','3D')
);
#595=(
GEOMETRIC_REPRESENTATION_CONTEXT(3)
GLOBAL_UNCERTAINTY_ASSIGNED_CONTEXT((#592))
GLOBAL_UNIT_ASSIGNED_CONTEXT((#596,#598,#599))
REPRESENTATION_CONTEXT('','3D')
);
#596=(
LENGTH_UNIT()
NAMED_UNIT(*)
SI_UNIT(.MILLI.,.METRE.)
);
#597=(
LENGTH_UNIT()
NAMED_UNIT(*)
SI_UNIT($,.METRE.)
);
#598=(
NAMED_UNIT(*)
PLANE_ANGLE_UNIT()
SI_UNIT($,.RADIAN.)
);
#599=(
NAMED_UNIT(*)
SI_UNIT($,.STERADIAN.)
SOLID_ANGLE_UNIT()
);
#600=SHAPE_DEFINITION_REPRESENTATION(#602,#605);
#601=SHAPE_DEFINITION_REPRESENTATION(#603,#606);
#602=PRODUCT_DEFINITION_SHAPE('',$,#608);
#603=PRODUCT_DEFINITION_SHAPE('',$,#609);
#604=PRODUCT_DEFINITION_SHAPE($,$,#14);
#605=SHAPE_REPRESENTATION('',(#204,#221),#593);
#606=SHAPE_REPRESENTATION('',(#205),#594);
#607=PRODUCT_DEFINITION_CONTEXT('part definition',#615,'design');
#608=PRODUCT_DEFINITION('2025-12-07-22-56-40-952','Middle Finger',#610,
#607);
#609=PRODUCT_DEFINITION('2025-12-07-23-02-24-019','Middle phalanx',#611,
#607);
#610=PRODUCT_DEFINITION_FORMATION('',$,#617);
#611=PRODUCT_DEFINITION_FORMATION('',$,#618);
#612=PRODUCT_RELATED_PRODUCT_CATEGORY('Middle Finger','Middle Finger',(#617));
#613=PRODUCT_RELATED_PRODUCT_CATEGORY('Middle phalanx','Middle phalanx',
(#618));
#614=APPLICATION_PROTOCOL_DEFINITION('international standard',
'automotive_design',2009,#615);
#615=APPLICATION_CONTEXT(
'Core Data for Automotive Mechanical Design Process');
#616=PRODUCT_CONTEXT('part definition',#615,'mechanical');
#617=PRODUCT('2025-12-07-22-56-40-952','Middle Finger',$,(#616));
#618=PRODUCT('2025-12-07-23-02-24-019','Middle phalanx',$,(#616));
#619=PRESENTATION_STYLE_ASSIGNMENT((#620));
#620=SURFACE_STYLE_USAGE(.BOTH.,#621);
#621=SURFACE_SIDE_STYLE('',(#622));
#622=SURFACE_STYLE_FILL_AREA(#623);
#623=FILL_AREA_STYLE('Steel - Satin',(#624));
#624=FILL_AREA_STYLE_COLOUR('Steel - Satin',#625);
#625=COLOUR_RGB('Steel - Satin',0.627450980392157,0.627450980392157,0.627450980392157);
ENDSEC;
END-ISO-10303-21;
