ISO-10303-21;
HEADER;
/* Generated by software containing ST-Developer
 * from STEP Tools, Inc. (www.steptools.com) 
 */

FILE_DESCRIPTION(
/* description */ (''),
/* implementation_level */ '2;1');

FILE_NAME(
/* name */ 'Middle proximal phalanx.step',
/* time_stamp */ '2026-01-04T20:29:06Z',
/* author */ (''),
/* organization */ (''),
/* preprocessor_version */ 'ST-DEVELOPER v20.1',
/* originating_system */ 'Autodesk Translation Framework v14.21.0.0',
/* authorisation */ '');

FILE_SCHEMA (('AUTOMOTIVE_DESIGN { 1 0 10303 214 3 1 1 }'));
ENDSEC;

DATA;
#10=MECHANICAL_DESIGN_GEOMETRIC_PRESENTATION_REPRESENTATION('',(#17),#557);
#11=ITEM_DEFINED_TRANSFORMATION($,$,#205,#223);
#12=(
REPRESENTATION_RELATIONSHIP($,$,#568,#567)
REPRESENTATION_RELATIONSHIP_WITH_TRANSFORMATION(#11)
SHAPE_REPRESENTATION_RELATIONSHIP()
);
#13=CONTEXT_DEPENDENT_SHAPE_REPRESENTATION(#12,#566);
#14=NEXT_ASSEMBLY_USAGE_OCCURRENCE('Proximal phalanx:1',
'Proximal phalanx:1','Proximal phalanx:1',#570,#571,
'Proximal phalanx:1');
#15=SHAPE_REPRESENTATION_RELATIONSHIP('SRR','None',#568,#16);
#16=ADVANCED_BREP_SHAPE_REPRESENTATION('',(#18),#556);
#17=STYLED_ITEM('',(#581),#18);
#18=MANIFOLD_SOLID_BREP('Body1',#191);
#19=FACE_BOUND('',#58,.T.);
#20=FACE_BOUND('',#59,.T.);
#21=FACE_BOUND('',#61,.T.);
#22=FACE_BOUND('',#63,.T.);
#23=FACE_BOUND('',#66,.T.);
#24=FACE_BOUND('',#67,.T.);
#25=PLANE('',#216);
#26=PLANE('',#217);
#27=PLANE('',#219);
#28=PLANE('',#222);
#29=ELLIPSE('',#213,9.,8.);
#30=ELLIPSE('',#214,9.,8.);
#31=ELLIPSE('',#218,1.76776695296637,1.25);
#32=ELLIPSE('',#220,1.76776695296637,1.25);
#33=B_SPLINE_SURFACE_WITH_KNOTS('',3,3,((#352,#353,#354,#355),(#356,#357,
#358,#359),(#360,#361,#362,#363),(#364,#365,#366,#367),(#368,#369,#370,
#371),(#372,#373,#374,#375),(#376,#377,#378,#379),(#380,#381,#382,#383),
(#384,#385,#386,#387),(#388,#389,#390,#391),(#392,#393,#394,#395),(#396,
#397,#398,#399),(#400,#401,#402,#403),(#404,#405,#406,#407),(#408,#409,
#410,#411),(#412,#413,#414,#415),(#416,#417,#418,#419)),.UNSPECIFIED.,.T.,
 .F.,.F.,(4,1,1,1,1,1,1,1,1,1,1,1,1,1,4),(4,4),(0.,0.0714285714285714,0.142857142857143,
0.214285714285714,0.285714285714286,0.357142857142857,0.428571428571429,
0.523809523809524,0.571428571428571,0.666666666666667,0.714285714285714,
0.785714285714286,0.857142857142857,0.928571428571429,1.),(0.,1.),
 .UNSPECIFIED.);
#34=B_SPLINE_CURVE_WITH_KNOTS('',3,(#289,#290,#291,#292,#293,#294,#295,
#296,#297,#298,#299,#300,#301,#302,#303,#304,#305,#306,#307,#308,#309,#310,
#311,#312,#313,#314,#315,#316,#317,#318,#319),.UNSPECIFIED.,.F.,.F.,(4,
3,3,3,3,3,3,3,3,3,4),(-0.157735532193134,-0.15377980272856,-0.135383250639825,
-0.116429400658524,-0.114838191609626,-0.0923484879475805,-0.0762305118196915,
-0.0537081804752649,-0.0373920841200234,-0.0186960420600117,0.),
 .UNSPECIFIED.);
#35=B_SPLINE_CURVE_WITH_KNOTS('',3,(#323,#324,#325,#326,#327,#328,#329,
#330,#331,#332,#333,#334,#335,#336,#337,#338,#339,#340,#341,#342,#343,#344,
#345,#346,#347,#348,#349,#350),.UNSPECIFIED.,.F.,.F.,(4,3,3,3,3,3,3,3,3,
4),(0.,0.0176342113828797,0.0373449684109948,0.0554914186260737,0.0849399087836186,
0.0912843101000552,0.111878586940399,0.130970587406611,0.14923007835486,
0.157697316469833),.UNSPECIFIED.);
#36=B_SPLINE_CURVE_WITH_KNOTS('',3,(#420,#421,#422,#423,#424,#425,#426,
#427,#428,#429,#430,#431,#432,#433,#434,#435,#436,#437,#438,#439),
 .UNSPECIFIED.,.F.,.F.,(4,2,2,2,2,2,2,2,2,4),(-3.93200942054284,-3.35177939422439,
-2.81999154739311,-2.44362453820479,-2.16231622452544,-1.90415777695242,
-1.62434018640794,-1.25966210157614,-0.747743287919521,-0.050063607534446),
 .UNSPECIFIED.);
#37=B_SPLINE_CURVE_WITH_KNOTS('',3,(#445,#446,#447,#448,#449,#450,#451,
#452,#453,#454,#455,#456,#457),.UNSPECIFIED.,.F.,.F.,(4,3,3,3,4),(1.68795601525481,
1.79519580205131,2.24399475256414,2.69279370307697,3.14159265358979),
 .UNSPECIFIED.);
#38=B_SPLINE_CURVE_WITH_KNOTS('',3,(#459,#460,#461,#462,#463,#464,#465,
#466,#467,#468,#469,#470),.UNSPECIFIED.,.F.,.F.,(4,2,2,2,2,4),(-0.157814555882284,
-0.157010741698812,-0.117845324725339,-0.0788302315380956,-0.0391993014324107,
0.),.UNSPECIFIED.);
#39=B_SPLINE_CURVE_WITH_KNOTS('',3,(#472,#473,#474,#475,#476,#477,#478,
#479,#480,#481,#482,#483,#484,#485,#486,#487,#488,#489,#490,#491),
 .UNSPECIFIED.,.F.,.F.,(4,2,2,2,2,2,2,2,2,4),(-3.75577333720882,-3.16446567367801,
-2.6708499542363,-2.32096786654202,-2.05870078230776,-1.81663662567805,
-1.55308742685173,-1.20640502598135,-0.715842612331666,-0.0500654227553306),
 .UNSPECIFIED.);
#40=B_SPLINE_CURVE_WITH_KNOTS('',3,(#493,#494,#495,#496,#497,#498,#499,
#500,#501,#502,#503,#504,#505,#506,#507,#508,#509,#510,#511,#512,#513,#514,
#515,#516,#517,#518,#519,#520,#521,#522,#523),.UNSPECIFIED.,.F.,.F.,(4,
3,3,3,3,3,3,3,3,3,4),(0.,0.00277740748803901,0.0210849709698763,0.0399337928385685,
0.0419757315085405,0.0642650661951878,0.0814573733531854,0.103532172499105,
0.120949624434263,0.139382563121335,0.157815501808407),.UNSPECIFIED.);
#41=B_SPLINE_CURVE_WITH_KNOTS('',3,(#524,#525,#526,#527,#528,#529,#530,
#531,#532,#533,#534,#535,#536),.UNSPECIFIED.,.F.,.F.,(4,3,3,3,4),(-3.14159265358979,
-2.69279370307697,-2.24399475256414,-1.79519580205131,-1.68795601483288),
 .UNSPECIFIED.);
#42=FACE_OUTER_BOUND('',#52,.T.);
#43=FACE_OUTER_BOUND('',#53,.T.);
#44=FACE_OUTER_BOUND('',#54,.T.);
#45=FACE_OUTER_BOUND('',#55,.T.);
#46=FACE_OUTER_BOUND('',#56,.T.);
#47=FACE_OUTER_BOUND('',#57,.T.);
#48=FACE_OUTER_BOUND('',#60,.T.);
#49=FACE_OUTER_BOUND('',#62,.T.);
#50=FACE_OUTER_BOUND('',#64,.T.);
#51=FACE_OUTER_BOUND('',#65,.T.);
#52=EDGE_LOOP('',(#128,#129,#130,#131));
#53=EDGE_LOOP('',(#132,#133,#134,#135));
#54=EDGE_LOOP('',(#136,#137,#138,#139));
#55=EDGE_LOOP('',(#140,#141,#142,#143,#144,#145,#146,#147,#148,#149,#150,
#151));
#56=EDGE_LOOP('',(#152,#153,#154,#155));
#57=EDGE_LOOP('',(#156,#157,#158));
#58=EDGE_LOOP('',(#159));
#59=EDGE_LOOP('',(#160));
#60=EDGE_LOOP('',(#161,#162));
#61=EDGE_LOOP('',(#163));
#62=EDGE_LOOP('',(#164,#165));
#63=EDGE_LOOP('',(#166));
#64=EDGE_LOOP('',(#167,#168,#169,#170));
#65=EDGE_LOOP('',(#171,#172,#173));
#66=EDGE_LOOP('',(#174));
#67=EDGE_LOOP('',(#175));
#68=LINE('',#278,#76);
#69=LINE('',#284,#77);
#70=LINE('',#321,#78);
#71=LINE('',#351,#79);
#72=LINE('',#443,#80);
#73=LINE('',#539,#81);
#74=LINE('',#540,#82);
#75=LINE('',#549,#83);
#76=VECTOR('',#232,2.);
#77=VECTOR('',#239,2.);
#78=VECTOR('',#244,10.);
#79=VECTOR('',#245,10.);
#80=VECTOR('',#248,52.0024037905941);
#81=VECTOR('',#253,10.);
#82=VECTOR('',#254,10.);
#83=VECTOR('',#267,1.25);
#84=CIRCLE('',#207,2.);
#85=CIRCLE('',#208,2.);
#86=CIRCLE('',#210,2.);
#87=CIRCLE('',#211,2.);
#88=VERTEX_POINT('',#275);
#89=VERTEX_POINT('',#277);
#90=VERTEX_POINT('',#281);
#91=VERTEX_POINT('',#283);
#92=VERTEX_POINT('',#287);
#93=VERTEX_POINT('',#288);
#94=VERTEX_POINT('',#320);
#95=VERTEX_POINT('',#322);
#96=VERTEX_POINT('',#440);
#97=VERTEX_POINT('',#442);
#98=VERTEX_POINT('',#444);
#99=VERTEX_POINT('',#458);
#100=VERTEX_POINT('',#471);
#101=VERTEX_POINT('',#492);
#102=VERTEX_POINT('',#543);
#103=VERTEX_POINT('',#546);
#104=EDGE_CURVE('',#88,#88,#84,.T.);
#105=EDGE_CURVE('',#88,#89,#68,.T.);
#106=EDGE_CURVE('',#89,#89,#85,.T.);
#107=EDGE_CURVE('',#90,#90,#86,.T.);
#108=EDGE_CURVE('',#90,#91,#69,.T.);
#109=EDGE_CURVE('',#91,#91,#87,.T.);
#110=EDGE_CURVE('',#92,#93,#34,.T.);
#111=EDGE_CURVE('',#93,#94,#70,.T.);
#112=EDGE_CURVE('',#94,#95,#35,.T.);
#113=EDGE_CURVE('',#92,#95,#71,.T.);
#114=EDGE_CURVE('',#92,#95,#36,.T.);
#115=EDGE_CURVE('',#94,#96,#29,.T.);
#116=EDGE_CURVE('',#97,#96,#72,.T.);
#117=EDGE_CURVE('',#98,#97,#37,.T.);
#118=EDGE_CURVE('',#99,#98,#38,.T.);
#119=EDGE_CURVE('',#99,#100,#39,.T.);
#120=EDGE_CURVE('',#101,#100,#40,.T.);
#121=EDGE_CURVE('',#97,#101,#41,.T.);
#122=EDGE_CURVE('',#96,#93,#30,.T.);
#123=EDGE_CURVE('',#98,#101,#73,.T.);
#124=EDGE_CURVE('',#100,#99,#74,.T.);
#125=EDGE_CURVE('',#102,#102,#31,.T.);
#126=EDGE_CURVE('',#103,#103,#32,.T.);
#127=EDGE_CURVE('',#102,#103,#75,.T.);
#128=ORIENTED_EDGE('',*,*,#104,.F.);
#129=ORIENTED_EDGE('',*,*,#105,.T.);
#130=ORIENTED_EDGE('',*,*,#106,.F.);
#131=ORIENTED_EDGE('',*,*,#105,.F.);
#132=ORIENTED_EDGE('',*,*,#107,.F.);
#133=ORIENTED_EDGE('',*,*,#108,.T.);
#134=ORIENTED_EDGE('',*,*,#109,.F.);
#135=ORIENTED_EDGE('',*,*,#108,.F.);
#136=ORIENTED_EDGE('',*,*,#110,.T.);
#137=ORIENTED_EDGE('',*,*,#111,.T.);
#138=ORIENTED_EDGE('',*,*,#112,.T.);
#139=ORIENTED_EDGE('',*,*,#113,.F.);
#140=ORIENTED_EDGE('',*,*,#110,.F.);
#141=ORIENTED_EDGE('',*,*,#114,.T.);
#142=ORIENTED_EDGE('',*,*,#112,.F.);
#143=ORIENTED_EDGE('',*,*,#115,.T.);
#144=ORIENTED_EDGE('',*,*,#116,.F.);
#145=ORIENTED_EDGE('',*,*,#117,.F.);
#146=ORIENTED_EDGE('',*,*,#118,.F.);
#147=ORIENTED_EDGE('',*,*,#119,.T.);
#148=ORIENTED_EDGE('',*,*,#120,.F.);
#149=ORIENTED_EDGE('',*,*,#121,.F.);
#150=ORIENTED_EDGE('',*,*,#116,.T.);
#151=ORIENTED_EDGE('',*,*,#122,.T.);
#152=ORIENTED_EDGE('',*,*,#118,.T.);
#153=ORIENTED_EDGE('',*,*,#123,.T.);
#154=ORIENTED_EDGE('',*,*,#120,.T.);
#155=ORIENTED_EDGE('',*,*,#124,.T.);
#156=ORIENTED_EDGE('',*,*,#123,.F.);
#157=ORIENTED_EDGE('',*,*,#117,.T.);
#158=ORIENTED_EDGE('',*,*,#121,.T.);
#159=ORIENTED_EDGE('',*,*,#104,.T.);
#160=ORIENTED_EDGE('',*,*,#107,.T.);
#161=ORIENTED_EDGE('',*,*,#119,.F.);
#162=ORIENTED_EDGE('',*,*,#124,.F.);
#163=ORIENTED_EDGE('',*,*,#125,.F.);
#164=ORIENTED_EDGE('',*,*,#114,.F.);
#165=ORIENTED_EDGE('',*,*,#113,.T.);
#166=ORIENTED_EDGE('',*,*,#126,.F.);
#167=ORIENTED_EDGE('',*,*,#125,.T.);
#168=ORIENTED_EDGE('',*,*,#127,.T.);
#169=ORIENTED_EDGE('',*,*,#126,.T.);
#170=ORIENTED_EDGE('',*,*,#127,.F.);
#171=ORIENTED_EDGE('',*,*,#111,.F.);
#172=ORIENTED_EDGE('',*,*,#122,.F.);
#173=ORIENTED_EDGE('',*,*,#115,.F.);
#174=ORIENTED_EDGE('',*,*,#106,.T.);
#175=ORIENTED_EDGE('',*,*,#109,.T.);
#176=CYLINDRICAL_SURFACE('',#206,2.);
#177=CYLINDRICAL_SURFACE('',#209,2.);
#178=CYLINDRICAL_SURFACE('',#212,1.);
#179=CYLINDRICAL_SURFACE('',#215,1.);
#180=CYLINDRICAL_SURFACE('',#221,1.25);
#181=ADVANCED_FACE('',(#42),#176,.F.);
#182=ADVANCED_FACE('',(#43),#177,.F.);
#183=ADVANCED_FACE('',(#44),#178,.T.);
#184=ADVANCED_FACE('',(#45),#33,.F.);
#185=ADVANCED_FACE('',(#46),#179,.T.);
#186=ADVANCED_FACE('',(#47,#19,#20),#25,.T.);
#187=ADVANCED_FACE('',(#48,#21),#26,.F.);
#188=ADVANCED_FACE('',(#49,#22),#27,.F.);
#189=ADVANCED_FACE('',(#50),#180,.F.);
#190=ADVANCED_FACE('',(#51,#23,#24),#28,.F.);
#191=CLOSED_SHELL('',(#181,#182,#183,#184,#185,#186,#187,#188,#189,#190));
#192=DERIVED_UNIT_ELEMENT(#194,1.);
#193=DERIVED_UNIT_ELEMENT(#559,-3.);
#194=(
MASS_UNIT()
NAMED_UNIT(*)
SI_UNIT(.KILO.,.GRAM.)
);
#195=DERIVED_UNIT((#192,#193));
#196=MEASURE_REPRESENTATION_ITEM('density measure',
POSITIVE_RATIO_MEASURE(7850.),#195);
#197=PROPERTY_DEFINITION_REPRESENTATION(#202,#199);
#198=PROPERTY_DEFINITION_REPRESENTATION(#203,#200);
#199=REPRESENTATION('material name',(#201),#556);
#200=REPRESENTATION('density',(#196),#556);
#201=DESCRIPTIVE_REPRESENTATION_ITEM('Steel','Steel');
#202=PROPERTY_DEFINITION('material property','material name',#571);
#203=PROPERTY_DEFINITION('material property','density of part',#571);
#204=AXIS2_PLACEMENT_3D('',#272,#224,#225);
#205=AXIS2_PLACEMENT_3D('',#273,#226,#227);
#206=AXIS2_PLACEMENT_3D('',#274,#228,#229);
#207=AXIS2_PLACEMENT_3D('',#276,#230,#231);
#208=AXIS2_PLACEMENT_3D('',#279,#233,#234);
#209=AXIS2_PLACEMENT_3D('',#280,#235,#236);
#210=AXIS2_PLACEMENT_3D('',#282,#237,#238);
#211=AXIS2_PLACEMENT_3D('',#285,#240,#241);
#212=AXIS2_PLACEMENT_3D('',#286,#242,#243);
#213=AXIS2_PLACEMENT_3D('',#441,#246,#247);
#214=AXIS2_PLACEMENT_3D('',#537,#249,#250);
#215=AXIS2_PLACEMENT_3D('',#538,#251,#252);
#216=AXIS2_PLACEMENT_3D('',#541,#255,#256);
#217=AXIS2_PLACEMENT_3D('',#542,#257,#258);
#218=AXIS2_PLACEMENT_3D('',#544,#259,#260);
#219=AXIS2_PLACEMENT_3D('',#545,#261,#262);
#220=AXIS2_PLACEMENT_3D('',#547,#263,#264);
#221=AXIS2_PLACEMENT_3D('',#548,#265,#266);
#222=AXIS2_PLACEMENT_3D('',#550,#268,#269);
#223=AXIS2_PLACEMENT_3D('',#551,#270,#271);
#224=DIRECTION('axis',(0.,0.,1.));
#225=DIRECTION('refdir',(1.,0.,0.));
#226=DIRECTION('axis',(0.,0.,1.));
#227=DIRECTION('refdir',(1.,0.,0.));
#228=DIRECTION('center_axis',(0.,0.,-1.));
#229=DIRECTION('ref_axis',(-1.,0.,0.));
#230=DIRECTION('center_axis',(-5.43982898138863E-32,1.07777066857043E-48,
-1.));
#231=DIRECTION('ref_axis',(-1.,0.,0.));
#232=DIRECTION('',(0.,0.,-1.));
#233=DIRECTION('center_axis',(0.,0.,1.));
#234=DIRECTION('ref_axis',(-1.,0.,0.));
#235=DIRECTION('center_axis',(0.,0.,-1.));
#236=DIRECTION('ref_axis',(-1.,0.,0.));
#237=DIRECTION('center_axis',(-5.43982898138863E-32,1.07777066857043E-48,
-1.));
#238=DIRECTION('ref_axis',(-1.,0.,0.));
#239=DIRECTION('',(0.,0.,-1.));
#240=DIRECTION('center_axis',(0.,0.,1.));
#241=DIRECTION('ref_axis',(-1.,0.,0.));
#242=DIRECTION('center_axis',(0.,-1.,0.));
#243=DIRECTION('ref_axis',(0.707106781186548,0.,-0.707106781186548));
#244=DIRECTION('',(0.,1.,0.));
#245=DIRECTION('',(0.,1.,0.));
#246=DIRECTION('center_axis',(0.,0.,1.));
#247=DIRECTION('ref_axis',(1.,0.,0.));
#248=DIRECTION('',(-0.00961494014802518,-1.32467688858065E-18,-0.999953775394618));
#249=DIRECTION('center_axis',(0.,0.,1.));
#250=DIRECTION('ref_axis',(1.,0.,0.));
#251=DIRECTION('center_axis',(-1.99268237163076E-79,1.,1.07777066857043E-48));
#252=DIRECTION('ref_axis',(0.707106781186549,0.,0.707106781186546));
#253=DIRECTION('',(1.99268237163076E-79,-1.,-1.07777066857043E-48));
#254=DIRECTION('',(0.,1.,0.));
#255=DIRECTION('center_axis',(5.43982898138863E-32,-1.07777066857043E-48,
1.));
#256=DIRECTION('ref_axis',(1.,0.,-5.43982898138863E-32));
#257=DIRECTION('center_axis',(-0.707106781186548,0.,-0.707106781186547));
#258=DIRECTION('ref_axis',(-0.707106781186547,0.,0.707106781186548));
#259=DIRECTION('center_axis',(0.707106781186548,0.,0.707106781186547));
#260=DIRECTION('ref_axis',(-0.707106781186547,0.,0.707106781186548));
#261=DIRECTION('center_axis',(-0.707106781186547,0.,0.707106781186548));
#262=DIRECTION('ref_axis',(0.707106781186548,0.,0.707106781186547));
#263=DIRECTION('center_axis',(0.707106781186547,0.,-0.707106781186548));
#264=DIRECTION('ref_axis',(-0.707106781186548,0.,-0.707106781186547));
#265=DIRECTION('center_axis',(0.,0.,-1.));
#266=DIRECTION('ref_axis',(-1.,0.,0.));
#267=DIRECTION('',(0.,0.,-1.));
#268=DIRECTION('center_axis',(0.,0.,1.));
#269=DIRECTION('ref_axis',(1.,0.,0.));
#270=DIRECTION('',(0.,0.,1.));
#271=DIRECTION('',(1.,0.,0.));
#272=CARTESIAN_POINT('',(0.,0.,0.));
#273=CARTESIAN_POINT('',(0.,0.,0.));
#274=CARTESIAN_POINT('Origin',(-4.74999999996591,-3.1093879237477,52.));
#275=CARTESIAN_POINT('',(-2.74999999996591,-3.1093879237477,52.));
#276=CARTESIAN_POINT('Origin',(-4.74999999996591,-3.1093879237477,52.));
#277=CARTESIAN_POINT('',(-2.74999999996591,-3.1093879237477,0.));
#278=CARTESIAN_POINT('',(-2.74999999996591,-3.1093879237477,52.));
#279=CARTESIAN_POINT('Origin',(-4.74999999996591,-3.1093879237477,0.));
#280=CARTESIAN_POINT('Origin',(-4.74999999995376,3.10938792374761,52.));
#281=CARTESIAN_POINT('',(-2.74999999995376,3.10938792374761,52.));
#282=CARTESIAN_POINT('Origin',(-4.74999999995376,3.10938792374761,52.));
#283=CARTESIAN_POINT('',(-2.74999999995376,3.10938792374761,0.));
#284=CARTESIAN_POINT('',(-2.74999999995376,3.10938792374761,52.));
#285=CARTESIAN_POINT('Origin',(-4.74999999995376,3.10938792374761,0.));
#286=CARTESIAN_POINT('Origin',(-1.,0.,1.));
#287=CARTESIAN_POINT('',(0.,-7.99038461538462,1.));
#288=CARTESIAN_POINT('',(-1.,-7.95046391999925,0.));
#289=CARTESIAN_POINT('Ctrl Pts',(0.000917642002039365,-7.98933249209952,
1.));
#290=CARTESIAN_POINT('Ctrl Pts',(0.000917680304530146,-7.98945903562357,
0.98683978812361));
#291=CARTESIAN_POINT('Ctrl Pts',(0.000657797380888552,-7.98958569932768,
0.973669411765277));
#292=CARTESIAN_POINT('Ctrl Pts',(0.000136811193166775,-7.9897123505699,
0.96049645328668));
#293=CARTESIAN_POINT('Ctrl Pts',(-0.00228609329139344,-7.99030135632472,
0.899234137845701));
#294=CARTESIAN_POINT('Ctrl Pts',(-0.0103342060621232,-7.99088895712303,
0.838469883087668));
#295=CARTESIAN_POINT('Ctrl Pts',(-0.0238291546771887,-7.99142919309411,
0.778955029415016));
#296=CARTESIAN_POINT('Ctrl Pts',(-0.0377329139425977,-7.99198579476062,
0.717637256240481));
#297=CARTESIAN_POINT('Ctrl Pts',(-0.0574186368067685,-7.992491960871,0.657645728457165));
#298=CARTESIAN_POINT('Ctrl Pts',(-0.0826897871429422,-7.99284263775657,
0.599802158305508));
#299=CARTESIAN_POINT('Ctrl Pts',(-0.0848113446698105,-7.99287207769801,
0.594946088834838));
#300=CARTESIAN_POINT('Ctrl Pts',(-0.0869722661696115,-7.99290039161434,
0.590105157950187));
#301=CARTESIAN_POINT('Ctrl Pts',(-0.0891724344021647,-7.99292750103571,
0.585279851845051));
#302=CARTESIAN_POINT('Ctrl Pts',(-0.120268996850109,-7.99331065801531,0.51708032491403));
#303=CARTESIAN_POINT('Ctrl Pts',(-0.158864987305803,-7.99345360265626,0.452747788300372));
#304=CARTESIAN_POINT('Ctrl Pts',(-0.204141915440312,-7.99311766958324,0.393430649276539));
#305=CARTESIAN_POINT('Ctrl Pts',(-0.236591095642173,-7.99287691224233,0.350919096206397));
#306=CARTESIAN_POINT('Ctrl Pts',(-0.272471676497537,-7.9923886875767,0.310983620594844));
#307=CARTESIAN_POINT('Ctrl Pts',(-0.31147854866341,-7.99155301035905,0.274046965281087));
#308=CARTESIAN_POINT('Ctrl Pts',(-0.365984504787105,-7.99038528315537,0.222433810929041));
#309=CARTESIAN_POINT('Ctrl Pts',(-0.425979849729535,-7.98854836718124,0.177257129993144));
#310=CARTESIAN_POINT('Ctrl Pts',(-0.490266113875381,-7.9858229835558,0.139256694156465));
#311=CARTESIAN_POINT('Ctrl Pts',(-0.536837708266816,-7.98384860438707,0.111727626975511));
#312=CARTESIAN_POINT('Ctrl Pts',(-0.5856609389251,-7.98140835437155,0.087964757367727));
#313=CARTESIAN_POINT('Ctrl Pts',(-0.636276550678574,-7.97843618442234,0.0682493443518268));
#314=CARTESIAN_POINT('Ctrl Pts',(-0.6942752033975,-7.97503047921136,0.0456581446585644));
#315=CARTESIAN_POINT('Ctrl Pts',(-0.754070988048316,-7.97095695008092,0.0285958085699178));
#316=CARTESIAN_POINT('Ctrl Pts',(-0.814877044533779,-7.96619252885038,0.0171812724049332));
#317=CARTESIAN_POINT('Ctrl Pts',(-0.875683101019242,-7.96142810761985,0.0057667362399485));
#318=CARTESIAN_POINT('Ctrl Pts',(-0.937499181175569,-7.9559724713185,-1.37401201527609E-12));
#319=CARTESIAN_POINT('Ctrl Pts',(-0.999540836648215,-7.94985540544279,0.));
#320=CARTESIAN_POINT('',(-1.,7.95046391999925,0.));
#321=CARTESIAN_POINT('',(-1.,0.,0.));
#322=CARTESIAN_POINT('',(0.,7.99038461538462,1.));
#323=CARTESIAN_POINT('Ctrl Pts',(-1.00063104805264,7.94969914937606,0.));
#324=CARTESIAN_POINT('Ctrl Pts',(-0.942161120826333,7.95546116071896,1.24122934153092E-12));
#325=CARTESIAN_POINT('Ctrl Pts',(-0.883754019917358,7.96064857896674,0.00513165368918633));
#326=CARTESIAN_POINT('Ctrl Pts',(-0.826077542956496,7.96522695150575,0.0153639748652594));
#327=CARTESIAN_POINT('Ctrl Pts',(-0.761609277326148,7.97034445785414,0.026801219897437));
#328=CARTESIAN_POINT('Ctrl Pts',(-0.698530283812655,7.97466304178741,0.0445251274096545));
#329=CARTESIAN_POINT('Ctrl Pts',(-0.637723375993752,7.97822942840967,0.0682247665443896));
#330=CARTESIAN_POINT('Ctrl Pts',(-0.581742292979301,7.98151277552801,0.0900435288101091));
#331=CARTESIAN_POINT('Ctrl Pts',(-0.527687125610697,7.98415972665647,0.116927155663304));
#332=CARTESIAN_POINT('Ctrl Pts',(-0.476245120120706,7.98624573367191,0.14863302578695));
#333=CARTESIAN_POINT('Ctrl Pts',(-0.392763812515012,7.98963095537282,0.200086064436716));
#334=CARTESIAN_POINT('Ctrl Pts',(-0.317377571855092,7.99149158860986,0.263498575005456));
#335=CARTESIAN_POINT('Ctrl Pts',(-0.252463760486498,7.99237871750676,0.336770259628864));
#336=CARTESIAN_POINT('Ctrl Pts',(-0.238478687971794,7.99256984111653,0.352555957635631));
#337=CARTESIAN_POINT('Ctrl Pts',(-0.224979547843214,7.99271592872479,0.368799265910263));
#338=CARTESIAN_POINT('Ctrl Pts',(-0.211989883728349,7.99282258175482,0.38547918230396));
#339=CARTESIAN_POINT('Ctrl Pts',(-0.16982471707164,7.99316878337684,0.439623111534231));
#340=CARTESIAN_POINT('Ctrl Pts',(-0.133445094252156,7.99309946474002,0.49783333231789));
#341=CARTESIAN_POINT('Ctrl Pts',(-0.103339908133513,7.99280893415695,0.559140566613557));
#342=CARTESIAN_POINT('Ctrl Pts',(-0.0754307840662595,7.99253959670605,0.615975664773552));
#343=CARTESIAN_POINT('Ctrl Pts',(-0.0529138571699626,7.99208052707744,0.675472424783184));
#344=CARTESIAN_POINT('Ctrl Pts',(-0.0361740539730411,7.99154662318042,0.73685858752652));
#345=CARTESIAN_POINT('Ctrl Pts',(-0.0201641968461594,7.99103600038454,0.795567981151248));
#346=CARTESIAN_POINT('Ctrl Pts',(-0.00958384655339262,7.99046231598261,
0.855475697820809));
#347=CARTESIAN_POINT('Ctrl Pts',(-0.00448681361388381,7.98988342493518,
0.915828374190944));
#348=CARTESIAN_POINT('Ctrl Pts',(-0.00212323230151328,7.98961498325983,
0.943814942006561));
#349=CARTESIAN_POINT('Ctrl Pts',(-0.000938734509213289,7.98934469599488,
0.971897191083982));
#350=CARTESIAN_POINT('Ctrl Pts',(-0.000938641834432374,7.98907451468897,
0.999999999999993));
#351=CARTESIAN_POINT('',(0.,0.,1.));
#352=CARTESIAN_POINT('Ctrl Pts',(-8.5,-9.10831056865844E-16,52.));
#353=CARTESIAN_POINT('Ctrl Pts',(-8.66666666666667,-9.33793184349857E-16,
34.6666666666667));
#354=CARTESIAN_POINT('Ctrl Pts',(-8.83333333333333,-9.5675531183387E-16,
17.3333333333333));
#355=CARTESIAN_POINT('Ctrl Pts',(-9.,-9.79717439317883E-16,0.));
#356=CARTESIAN_POINT('Ctrl Pts',(-8.5,-1.11264739814639,52.));
#357=CARTESIAN_POINT('Ctrl Pts',(-8.6668317717352,-1.14073143603523,34.6666666666667));
#358=CARTESIAN_POINT('Ctrl Pts',(-8.8331682282648,-1.1687131634787,17.3333333333333));
#359=CARTESIAN_POINT('Ctrl Pts',(-9.,-1.19679720136754,0.));
#360=CARTESIAN_POINT('Ctrl Pts',(-7.93080223280633,-3.33801954020027,52.));
#361=CARTESIAN_POINT('Ctrl Pts',(-8.08245495764043,-3.4218299413496,34.6666666666667));
#362=CARTESIAN_POINT('Ctrl Pts',(-8.23417925941681,-3.50567475752692,17.3333333333333));
#363=CARTESIAN_POINT('Ctrl Pts',(-8.38583198425091,-3.58948515867625,0.));
#364=CARTESIAN_POINT('Ctrl Pts',(-5.50843514833995,-6.04597021421203,52.));
#365=CARTESIAN_POINT('Ctrl Pts',(-5.60666168124941,-6.18705155764065,34.6666666666667));
#366=CARTESIAN_POINT('Ctrl Pts',(-5.70466829901072,-6.32804049782405,17.3333333333333));
#367=CARTESIAN_POINT('Ctrl Pts',(-5.80289483192018,-6.46912184125267,0.));
#368=CARTESIAN_POINT('Ctrl Pts',(-1.97078232734968,-7.5622301214211,52.));
#369=CARTESIAN_POINT('Ctrl Pts',(-2.00434552125108,-7.72999983783063,34.6666666666667));
#370=CARTESIAN_POINT('Ctrl Pts',(-2.03785204730639,-7.89776047331468,17.3333333333333));
#371=CARTESIAN_POINT('Ctrl Pts',(-2.07141524120778,-8.06553018972421,0.));
#372=CARTESIAN_POINT('Ctrl Pts',(1.97237013747428,-7.56204832249752,52.));
#373=CARTESIAN_POINT('Ctrl Pts',(2.00600802309471,-7.72984805804691,34.6666666666667));
#374=CARTESIAN_POINT('Ctrl Pts',(2.03980052669593,-7.89764263507167,17.3333333333333));
#375=CARTESIAN_POINT('Ctrl Pts',(2.07343841231636,-8.06544237062106,0.));
#376=CARTESIAN_POINT('Ctrl Pts',(5.50628123062806,-6.04506833709857,52.));
#377=CARTESIAN_POINT('Ctrl Pts',(5.60428781152693,-6.18610245326704,34.6666666666667));
#378=CARTESIAN_POINT('Ctrl Pts',(5.70249433451129,-6.3269848909998,17.3333333333333));
#379=CARTESIAN_POINT('Ctrl Pts',(5.80050091541016,-6.46801900716827,0.));
#380=CARTESIAN_POINT('Ctrl Pts',(8.20709276084285,-3.0364482655223,52.));
#381=CARTESIAN_POINT('Ctrl Pts',(8.36521814952315,-3.11402226389525,34.6666666666667));
#382=CARTESIAN_POINT('Ctrl Pts',(8.52324600934584,-3.1917275187984,17.3333333333333));
#383=CARTESIAN_POINT('Ctrl Pts',(8.68137139802614,-3.26930151717135,0.));
#384=CARTESIAN_POINT('Ctrl Pts',(8.78217379305336,0.405229822434869,52.));
#385=CARTESIAN_POINT('Ctrl Pts',(8.95628940476861,0.416046050503776,34.6666666666667));
#386=CARTESIAN_POINT('Ctrl Pts',(9.1301781515685,0.427037897205961,17.3333333333334));
#387=CARTESIAN_POINT('Ctrl Pts',(9.30429376328375,0.437854125274868,0.));
#388=CARTESIAN_POINT('Ctrl Pts',(7.53795744503973,4.00076825019748,52.));
#389=CARTESIAN_POINT('Ctrl Pts',(7.68018808764482,4.09990266336127,34.6666666666667));
#390=CARTESIAN_POINT('Ctrl Pts',(7.82252075443152,4.19897600310579,17.3333333333333));
#391=CARTESIAN_POINT('Ctrl Pts',(7.96475139703661,4.29811041626959,0.));
#392=CARTESIAN_POINT('Ctrl Pts',(5.14390008315808,6.30340114757617,52.));
#393=CARTESIAN_POINT('Ctrl Pts',(5.23497307252515,6.44910388642669,34.6666666666667));
#394=CARTESIAN_POINT('Ctrl Pts',(5.32599956516848,6.59457694680892,17.3333333333333));
#395=CARTESIAN_POINT('Ctrl Pts',(5.41707255453554,6.74027968565945,0.));
#396=CARTESIAN_POINT('Ctrl Pts',(1.52991505403773,7.56109733039025,52.));
#397=CARTESIAN_POINT('Ctrl Pts',(1.55602675105481,7.72877478558651,34.6666666666667));
#398=CARTESIAN_POINT('Ctrl Pts',(1.58214372290212,7.89655909051921,17.3333333333333));
#399=CARTESIAN_POINT('Ctrl Pts',(1.60825541991921,8.06423654571546,0.));
#400=CARTESIAN_POINT('Ctrl Pts',(-1.96972408188096,7.56279411562799,52.));
#401=CARTESIAN_POINT('Ctrl Pts',(-2.00326520565933,7.73063938367448,34.6666666666667));
#402=CARTESIAN_POINT('Ctrl Pts',(-2.03679700041055,7.89832715025252,17.3333333333333));
#403=CARTESIAN_POINT('Ctrl Pts',(-2.07033812418892,8.06617241829901,0.));
#404=CARTESIAN_POINT('Ctrl Pts',(-5.50948175945615,6.04438690593235,52.));
#405=CARTESIAN_POINT('Ctrl Pts',(-5.60773155473622,6.18542275066494,34.6666666666667));
#406=CARTESIAN_POINT('Ctrl Pts',(-5.70580798151849,6.32649269463139,17.3333333333333));
#407=CARTESIAN_POINT('Ctrl Pts',(-5.80405777679856,6.46752853936398,0.));
#408=CARTESIAN_POINT('Ctrl Pts',(-7.93051404052098,3.33818756051951,52.));
#409=CARTESIAN_POINT('Ctrl Pts',(-8.0821472361236,3.42203275879924,34.6666666666667));
#410=CARTESIAN_POINT('Ctrl Pts',(-8.23390580352854,3.50582888429367,17.3333333333333));
#411=CARTESIAN_POINT('Ctrl Pts',(-8.38553899913116,3.5896740825734,0.));
#412=CARTESIAN_POINT('Ctrl Pts',(-8.5,1.11264739814639,52.));
#413=CARTESIAN_POINT('Ctrl Pts',(-8.66684273950809,1.14071250880367,34.6666666666667));
#414=CARTESIAN_POINT('Ctrl Pts',(-8.83315726049191,1.16873209071026,17.3333333333333));
#415=CARTESIAN_POINT('Ctrl Pts',(-9.,1.19679720136754,0.));
#416=CARTESIAN_POINT('Ctrl Pts',(-8.5,9.10831056865844E-16,52.));
#417=CARTESIAN_POINT('Ctrl Pts',(-8.66666666666667,9.33793184349857E-16,
34.6666666666667));
#418=CARTESIAN_POINT('Ctrl Pts',(-8.83333333333333,9.5675531183387E-16,
17.3333333333333));
#419=CARTESIAN_POINT('Ctrl Pts',(-9.,9.79717439317883E-16,0.));
#420=CARTESIAN_POINT('Ctrl Pts',(2.4980018054066E-15,-7.99038461538462,
1.));
#421=CARTESIAN_POINT('Ctrl Pts',(1.23323045852686,-7.97852663020647,2.23323045852686));
#422=CARTESIAN_POINT('Ctrl Pts',(2.48212061327728,-7.74116910772911,3.48212061327728));
#423=CARTESIAN_POINT('Ctrl Pts',(4.73931869098358,-6.81987413219424,5.73931869098357));
#424=CARTESIAN_POINT('Ctrl Pts',(5.7028810068716,-6.19810443014027,6.70288100687159));
#425=CARTESIAN_POINT('Ctrl Pts',(7.07272840577033,-4.88591308770701,8.07272840577033));
#426=CARTESIAN_POINT('Ctrl Pts',(7.59699385503306,-4.23208532351101,8.59699385503306));
#427=CARTESIAN_POINT('Ctrl Pts',(8.324276895772,-2.89205583196934,9.324276895772));
#428=CARTESIAN_POINT('Ctrl Pts',(8.57355810505552,-2.25769848455019,9.57355810505552));
#429=CARTESIAN_POINT('Ctrl Pts',(8.87152442793774,-0.93997987984782,9.87152442793774));
#430=CARTESIAN_POINT('Ctrl Pts',(8.92969017775194,-0.287766583013313,9.92969017774439));
#431=CARTESIAN_POINT('Ctrl Pts',(8.85735751915253,1.0874538600192,9.85735751914499));
#432=CARTESIAN_POINT('Ctrl Pts',(8.71277050534772,1.77280735417574,9.71277050534771));
#433=CARTESIAN_POINT('Ctrl Pts',(8.18520657824821,3.24893567863686,9.1852065782482));
#434=CARTESIAN_POINT('Ctrl Pts',(7.75367058129925,3.98138636443406,8.75367058129925));
#435=CARTESIAN_POINT('Ctrl Pts',(6.56110581423958,5.48123647781907,7.56110581423958));
#436=CARTESIAN_POINT('Ctrl Pts',(5.67300146197831,6.22433015841634,6.67300146197831));
#437=CARTESIAN_POINT('Ctrl Pts',(3.24674310756341,7.5606978173316,4.24674310756341));
#438=CARTESIAN_POINT('Ctrl Pts',(1.64023467567501,7.97461312811851,2.64023467567501));
#439=CARTESIAN_POINT('Ctrl Pts',(-2.77555756156289E-16,7.99038461538462,
1.));
#440=CARTESIAN_POINT('',(-9.,-9.79717439317883E-16,0.));
#441=CARTESIAN_POINT('Origin',(0.,0.,0.));
#442=CARTESIAN_POINT('',(-8.5,-9.10831056865844E-16,52.));
#443=CARTESIAN_POINT('',(-8.5,-9.10831056865844E-16,52.));
#444=CARTESIAN_POINT('',(-0.999999999989694,7.44787133717035,52.));
#445=CARTESIAN_POINT('Ctrl Pts',(-1.00065241461547,7.44721868432271,52.));
#446=CARTESIAN_POINT('Ctrl Pts',(-1.30419305551843,7.41572896572671,52.));
#447=CARTESIAN_POINT('Ctrl Pts',(-1.60573774356051,7.36980223910887,52.));
#448=CARTESIAN_POINT('Ctrl Pts',(-1.9035013568254,7.30940810011331,52.));
#449=CARTESIAN_POINT('Ctrl Pts',(-3.14964330773935,7.05665837906278,52.));
#450=CARTESIAN_POINT('Ctrl Pts',(-4.32956253359775,6.55052264249756,52.));
#451=CARTESIAN_POINT('Ctrl Pts',(-5.32302752670442,5.84642154997948,52.));
#452=CARTESIAN_POINT('Ctrl Pts',(-6.31649251981109,5.1423204574614,52.));
#453=CARTESIAN_POINT('Ctrl Pts',(-7.12350328016604,4.24025400899046,52.));
#454=CARTESIAN_POINT('Ctrl Pts',(-7.66938015021326,3.2328357441617,52.));
#455=CARTESIAN_POINT('Ctrl Pts',(-8.21525702026049,2.22541747933295,52.));
#456=CARTESIAN_POINT('Ctrl Pts',(-8.5,1.11264739814639,52.));
#457=CARTESIAN_POINT('Ctrl Pts',(-8.5,1.11022302462516E-15,52.));
#458=CARTESIAN_POINT('',(1.84889274661175E-31,7.5096153771648,51.0000007748604));
#459=CARTESIAN_POINT('Ctrl Pts',(-2.96127191911208E-13,7.5096153771648,
51.0000007748604));
#460=CARTESIAN_POINT('Ctrl Pts',(-2.07515796245116E-9,7.50958962982334,
51.0026784983726));
#461=CARTESIAN_POINT('Ctrl Pts',(-1.07594496136877E-5,7.50956387761418,
51.0053567300008));
#462=CARTESIAN_POINT('Ctrl Pts',(-0.00108107603159033,7.50828314561201,
51.138552485227));
#463=CARTESIAN_POINT('Ctrl Pts',(-0.0276726331619074,7.5071356038534,51.2676055075663));
#464=CARTESIAN_POINT('Ctrl Pts',(-0.128728551454319,7.50400504228938,51.5077290388351));
#465=CARTESIAN_POINT('Ctrl Pts',(-0.202040450567147,7.50200779310759,51.6165639677876));
#466=CARTESIAN_POINT('Ctrl Pts',(-0.387601671001469,7.49455715841317,51.8014962788461));
#467=CARTESIAN_POINT('Ctrl Pts',(-0.498551885792402,7.4890573022047,51.8751722906663));
#468=CARTESIAN_POINT('Ctrl Pts',(-0.741144119431999,7.47241833650427,51.9746763238777));
#469=CARTESIAN_POINT('Ctrl Pts',(-0.870044942315506,7.46146737486385,51.9999999999973));
#470=CARTESIAN_POINT('Ctrl Pts',(-0.999999999978722,7.44787133717042,52.));
#471=CARTESIAN_POINT('',(1.84889274661175E-31,-7.5096153771648,51.0000007748604));
#472=CARTESIAN_POINT('Ctrl Pts',(8.32667268468867E-16,7.5096153771648,51.0000007748604));
#473=CARTESIAN_POINT('Ctrl Pts',(1.2654527125433,7.52178319170849,49.7345480623171));
#474=CARTESIAN_POINT('Ctrl Pts',(2.55236603410849,7.28508045816219,48.4476347407519));
#475=CARTESIAN_POINT('Ctrl Pts',(4.76121849057198,6.35324396166878,46.2387822842884));
#476=CARTESIAN_POINT('Ctrl Pts',(5.65424740642448,5.76328653102859,45.3457533684359));
#477=CARTESIAN_POINT('Ctrl Pts',(6.92045365387185,4.52677199862166,44.0795471209885));
#478=CARTESIAN_POINT('Ctrl Pts',(7.40426383314094,3.9118216203343,43.5957369420529));
#479=CARTESIAN_POINT('Ctrl Pts',(8.0729891158011,2.65305372982743,42.9270116593927));
#480=CARTESIAN_POINT('Ctrl Pts',(8.30081484701852,2.05739752178069,42.6991859278419));
#481=CARTESIAN_POINT('Ctrl Pts',(8.56924583778483,0.819146053836063,42.4307549370755));
#482=CARTESIAN_POINT('Ctrl Pts',(8.61794429862825,0.20589116824091,42.3820564762246));
#483=CARTESIAN_POINT('Ctrl Pts',(8.53737539637822,-1.08700409062509,42.4626253784746));
#484=CARTESIAN_POINT('Ctrl Pts',(8.39433010199242,-1.73089014984122,42.605670672868));
#485=CARTESIAN_POINT('Ctrl Pts',(7.88082221989167,-3.12099398849768,43.1191785549687));
#486=CARTESIAN_POINT('Ctrl Pts',(7.4626577043795,-3.81077191357798,43.5373430704809));
#487=CARTESIAN_POINT('Ctrl Pts',(6.30840284341833,-5.2240173112182,44.691597931442));
#488=CARTESIAN_POINT('Ctrl Pts',(5.44765250235801,-5.92192982431945,45.5523482725024));
#489=CARTESIAN_POINT('Ctrl Pts',(3.10681795501042,-7.15824320632083,47.89318281985));
#490=CARTESIAN_POINT('Ctrl Pts',(1.56567495189037,-7.5246699440099,49.43432582297));
#491=CARTESIAN_POINT('Ctrl Pts',(-1.11022302462516E-15,-7.5096153771648,
51.0000007748604));
#492=CARTESIAN_POINT('',(-0.999999999849655,-7.44787133719965,52.));
#493=CARTESIAN_POINT('Ctrl Pts',(-0.999712187315421,-7.44732960774859,52.));
#494=CARTESIAN_POINT('Ctrl Pts',(-0.990500818194035,-7.44828521787956,52.0000000000002));
#495=CARTESIAN_POINT('Ctrl Pts',(-0.981288605541496,-7.44922868257516,51.999872825699));
#496=CARTESIAN_POINT('Ctrl Pts',(-0.972078162386149,-7.45015975941,51.9996184078514));
#497=CARTESIAN_POINT('Ctrl Pts',(-0.911366591077821,-7.45629704691059,51.9979413867748));
#498=CARTESIAN_POINT('Ctrl Pts',(-0.851039306315755,-7.46186069527499,51.9907461212719));
#499=CARTESIAN_POINT('Ctrl Pts',(-0.791827072794784,-7.46683018325052,51.9781727610762));
#500=CARTESIAN_POINT('Ctrl Pts',(-0.730864244879893,-7.47194659285478,51.9652276727331));
#501=CARTESIAN_POINT('Ctrl Pts',(-0.67108360361555,-7.47643331311734,51.9465817848832));
#502=CARTESIAN_POINT('Ctrl Pts',(-0.613285647247279,-7.48032299514787,51.9223880488576));
#503=CARTESIAN_POINT('Ctrl Pts',(-0.60702425420235,-7.48074437385299,51.9197670826505));
#504=CARTESIAN_POINT('Ctrl Pts',(-0.600786130620964,-7.48115879586309,51.9170810073669));
#505=CARTESIAN_POINT('Ctrl Pts',(-0.594572294530046,-7.48156633836743,51.9143300174663));
#506=CARTESIAN_POINT('Ctrl Pts',(-0.526743483432433,-7.48601497897156,51.8843008419983));
#507=CARTESIAN_POINT('Ctrl Pts',(-0.462600768274657,-7.48958747069415,51.8468838303476));
#508=CARTESIAN_POINT('Ctrl Pts',(-0.40327736150629,-7.49247420062819,51.8028511279818));
#509=CARTESIAN_POINT('Ctrl Pts',(-0.357519771826793,-7.49470080579187,51.7688876313269));
#510=CARTESIAN_POINT('Ctrl Pts',(-0.314629254150168,-7.49652109666709,51.7309881870887));
#511=CARTESIAN_POINT('Ctrl Pts',(-0.275122302817279,-7.49803827298622,51.6895071272016));
#512=CARTESIAN_POINT('Ctrl Pts',(-0.224395660515785,-7.49998631650394,51.636245743668));
#513=CARTESIAN_POINT('Ctrl Pts',(-0.179816832634113,-7.50141691168063,51.5776756656016));
#514=CARTESIAN_POINT('Ctrl Pts',(-0.142106108246761,-7.50257157476821,51.5149223422803));
#515=CARTESIAN_POINT('Ctrl Pts',(-0.112351602889093,-7.50348262671917,51.4654087324171));
#516=CARTESIAN_POINT('Ctrl Pts',(-0.0868725766915421,-7.5042217442854,51.4132908343299));
#517=CARTESIAN_POINT('Ctrl Pts',(-0.0660198415762057,-7.50488435235883,
51.3591214753512));
#518=CARTESIAN_POINT('Ctrl Pts',(-0.0439513323563308,-7.50558559237828,
51.3017938877977));
#519=CARTESIAN_POINT('Ctrl Pts',(-0.0272669191319757,-7.50619653993457,
51.2426931790831));
#520=CARTESIAN_POINT('Ctrl Pts',(-0.0160996860465032,-7.5067931526097,51.1825846340528));
#521=CARTESIAN_POINT('Ctrl Pts',(-0.0049324529610308,-7.50738976528484,
51.1224760890226));
#522=CARTESIAN_POINT('Ctrl Pts',(0.000717669082455513,-7.5079723403123,
51.0613597076766));
#523=CARTESIAN_POINT('Ctrl Pts',(0.000717873290688953,-7.50856234415391,
51.0000007748604));
#524=CARTESIAN_POINT('Ctrl Pts',(-8.5,-9.10831056865844E-16,52.));
#525=CARTESIAN_POINT('Ctrl Pts',(-8.5,-1.11264739814639,52.));
#526=CARTESIAN_POINT('Ctrl Pts',(-8.21540111640316,-2.22533346917333,52.));
#527=CARTESIAN_POINT('Ctrl Pts',(-7.66937382719368,-3.23300161702209,52.));
#528=CARTESIAN_POINT('Ctrl Pts',(-7.1233465379842,-4.24066976487085,52.));
#529=CARTESIAN_POINT('Ctrl Pts',(-6.31589084316207,-5.14331998954144,52.));
#530=CARTESIAN_POINT('Ctrl Pts',(-5.32255419225263,-5.84735508641158,52.));
#531=CARTESIAN_POINT('Ctrl Pts',(-4.32921754134319,-6.55139018328172,52.));
#532=CARTESIAN_POINT('Ctrl Pts',(-3.14999993434643,-7.05681015235141,52.));
#533=CARTESIAN_POINT('Ctrl Pts',(-1.9031990533774,-7.30948983706566,52.));
#534=CARTESIAN_POINT('Ctrl Pts',(-1.60527798866437,-7.36986724122895,52.));
#535=CARTESIAN_POINT('Ctrl Pts',(-1.30349816678946,-7.41581410178242,52.));
#536=CARTESIAN_POINT('Ctrl Pts',(-0.999712183498301,-7.44732960814459,52.));
#537=CARTESIAN_POINT('Origin',(0.,0.,0.));
#538=CARTESIAN_POINT('Origin',(-1.,4.14014116757202E-17,51.));
#539=CARTESIAN_POINT('',(-1.,4.14014116757202E-17,52.));
#540=CARTESIAN_POINT('',(1.84889274661175E-31,0.,51.0000007748604));
#541=CARTESIAN_POINT('Origin',(-0.772727272727272,8.28028233514404E-17,
52.));
#542=CARTESIAN_POINT('Origin',(10.5689831624178,0.,40.4310176124426));
#543=CARTESIAN_POINT('',(5.5,1.77856329801667E-16,45.5000007748604));
#544=CARTESIAN_POINT('Origin',(4.25,2.47754799082476E-17,46.7500007748604));
#545=CARTESIAN_POINT('Origin',(0.,0.,1.));
#546=CARTESIAN_POINT('',(5.5,-1.28305369985172E-16,6.49999999999999));
#547=CARTESIAN_POINT('Origin',(4.25,2.47754799082476E-17,5.24999999999999));
#548=CARTESIAN_POINT('Origin',(4.25,2.47754799082476E-17,52.));
#549=CARTESIAN_POINT('',(5.5,-1.28305369985172E-16,52.));
#550=CARTESIAN_POINT('Origin',(0.,0.,0.));
#551=CARTESIAN_POINT('',(0.,0.,0.));
#552=UNCERTAINTY_MEASURE_WITH_UNIT(LENGTH_MEASURE(0.01),#558,
'DISTANCE_ACCURACY_VALUE',
'Maximum model space distance between geometric entities at asserted c
onnectivities');
#553=UNCERTAINTY_MEASURE_WITH_UNIT(LENGTH_MEASURE(0.01),#558,
'DISTANCE_ACCURACY_VALUE',
'Maximum model space distance between geometric entities at asserted c
onnectivities');
#554=UNCERTAINTY_MEASURE_WITH_UNIT(LENGTH_MEASURE(0.01),#558,
'DISTANCE_ACCURACY_VALUE',
'Maximum model space distance between geometric entities at asserted c
onnectivities');
#555=(
GEOMETRIC_REPRESENTATION_CONTEXT(3)
GLOBAL_UNCERTAINTY_ASSIGNED_CONTEXT((#552))
GLOBAL_UNIT_ASSIGNED_CONTEXT((#558,#560,#561))
REPRESENTATION_CONTEXT('','3D')
);
#556=(
GEOMETRIC_REPRESENTATION_CONTEXT(3)
GLOBAL_UNCERTAINTY_ASSIGNED_CONTEXT((#553))
GLOBAL_UNIT_ASSIGNED_CONTEXT((#558,#560,#561))
REPRESENTATION_CONTEXT('','3D')
);
#557=(
GEOMETRIC_REPRESENTATION_CONTEXT(3)
GLOBAL_UNCERTAINTY_ASSIGNED_CONTEXT((#554))
GLOBAL_UNIT_ASSIGNED_CONTEXT((#558,#560,#561))
REPRESENTATION_CONTEXT('','3D')
);
#558=(
LENGTH_UNIT()
NAMED_UNIT(*)
SI_UNIT(.MILLI.,.METRE.)
);
#559=(
LENGTH_UNIT()
NAMED_UNIT(*)
SI_UNIT($,.METRE.)
);
#560=(
NAMED_UNIT(*)
PLANE_ANGLE_UNIT()
SI_UNIT($,.RADIAN.)
);
#561=(
NAMED_UNIT(*)
SI_UNIT($,.STERADIAN.)
SOLID_ANGLE_UNIT()
);
#562=SHAPE_DEFINITION_REPRESENTATION(#564,#567);
#563=SHAPE_DEFINITION_REPRESENTATION(#565,#568);
#564=PRODUCT_DEFINITION_SHAPE('',$,#570);
#565=PRODUCT_DEFINITION_SHAPE('',$,#571);
#566=PRODUCT_DEFINITION_SHAPE($,$,#14);
#567=SHAPE_REPRESENTATION('',(#204,#223),#555);
#568=SHAPE_REPRESENTATION('',(#205),#556);
#569=PRODUCT_DEFINITION_CONTEXT('part definition',#577,'design');
#570=PRODUCT_DEFINITION('2025-12-07-22-56-40-952','Middle Finger',#572,
#569);
#571=PRODUCT_DEFINITION('2025-12-07-22-56-49-577','Proximal phalanx',#573,
#569);
#572=PRODUCT_DEFINITION_FORMATION('',$,#579);
#573=PRODUCT_DEFINITION_FORMATION('',$,#580);
#574=PRODUCT_RELATED_PRODUCT_CATEGORY('Middle Finger','Middle Finger',(#579));
#575=PRODUCT_RELATED_PRODUCT_CATEGORY('Proximal phalanx',
'Proximal phalanx',(#580));
#576=APPLICATION_PROTOCOL_DEFINITION('international standard',
'automotive_design',2009,#577);
#577=APPLICATION_CONTEXT(
'Core Data for Automotive Mechanical Design Process');
#578=PRODUCT_CONTEXT('part definition',#577,'mechanical');
#579=PRODUCT('2025-12-07-22-56-40-952','Middle Finger',$,(#578));
#580=PRODUCT('2025-12-07-22-56-49-577','Proximal phalanx',$,(#578));
#581=PRESENTATION_STYLE_ASSIGNMENT((#582));
#582=SURFACE_STYLE_USAGE(.BOTH.,#583);
#583=SURFACE_SIDE_STYLE('',(#584));
#584=SURFACE_STYLE_FILL_AREA(#585);
#585=FILL_AREA_STYLE('Steel - Satin',(#586));
#586=FILL_AREA_STYLE_COLOUR('Steel - Satin',#587);
#587=COLOUR_RGB('Steel - Satin',0.627450980392157,0.627450980392157,0.627450980392157);
ENDSEC;
END-ISO-10303-21;
