ISO-10303-21;
HEADER;
/* Generated by software containing ST-Developer
 * from STEP Tools, Inc. (www.steptools.com) 
 */

FILE_DESCRIPTION(
/* description */ (''),
/* implementation_level */ '2;1');

FILE_NAME(
/* name */ 'Middle distal phalanx.step',
/* time_stamp */ '2026-01-04T20:30:41Z',
/* author */ (''),
/* organization */ (''),
/* preprocessor_version */ 'ST-DEVELOPER v20.1',
/* originating_system */ 'Autodesk Translation Framework v14.21.0.0',
/* authorisation */ '');

FILE_SCHEMA (('AUTOMOTIVE_DESIGN { 1 0 10303 214 3 1 1 }'));
ENDSEC;

DATA;
#10=MECHANICAL_DESIGN_GEOMETRIC_PRESENTATION_REPRESENTATION('',(#17),#1008);
#11=ITEM_DEFINED_TRANSFORMATION($,$,#283,#301);
#12=(
REPRESENTATION_RELATIONSHIP($,$,#1019,#1018)
REPRESENTATION_RELATIONSHIP_WITH_TRANSFORMATION(#11)
SHAPE_REPRESENTATION_RELATIONSHIP()
);
#13=CONTEXT_DEPENDENT_SHAPE_REPRESENTATION(#12,#1017);
#14=NEXT_ASSEMBLY_USAGE_OCCURRENCE('Distal phalanx:1',
'Distal phalanx:1','Distal phalanx:1',#1021,#1022,'Distal phalanx:1');
#15=SHAPE_REPRESENTATION_RELATIONSHIP('SRR','None',#1019,#16);
#16=ADVANCED_BREP_SHAPE_REPRESENTATION('',(#18),#1007);
#17=STYLED_ITEM('',(#1032),#18);
#18=MANIFOLD_SOLID_BREP('Body1',#269);
#19=FACE_BOUND('',#69,.T.);
#20=FACE_BOUND('',#71,.T.);
#21=FACE_BOUND('',#72,.T.);
#22=PLANE('',#292);
#23=PLANE('',#299);
#24=PLANE('',#300);
#25=ELLIPSE('',#290,1.76776695296639,1.25);
#26=CIRCLE('',#285,4.);
#27=CIRCLE('',#286,4.);
#28=CIRCLE('',#287,4.);
#29=CIRCLE('',#288,4.);
#30=CIRCLE('',#291,1.25);
#31=CIRCLE('',#293,2.);
#32=CIRCLE('',#294,2.);
#33=CIRCLE('',#296,2.);
#34=CIRCLE('',#298,2.);
#35=B_SPLINE_SURFACE_WITH_KNOTS('',3,3,((#427,#428,#429,#430),(#431,#432,
#433,#434),(#435,#436,#437,#438),(#439,#440,#441,#442),(#443,#444,#445,
#446),(#447,#448,#449,#450),(#451,#452,#453,#454),(#455,#456,#457,#458),
(#459,#460,#461,#462),(#463,#464,#465,#466),(#467,#468,#469,#470),(#471,
#472,#473,#474),(#475,#476,#477,#478),(#479,#480,#481,#482),(#483,#484,
#485,#486),(#487,#488,#489,#490)),.UNSPECIFIED.,.T.,.F.,.F.,(4,1,1,1,1,
1,1,1,1,1,1,1,1,4),(4,4),(0.,0.0714285714285714,0.142857142857143,0.214285714285714,
0.285714285714286,0.357142857142857,0.428571428571429,0.571428571428571,
0.666666666666667,0.714285714285714,0.785714285714286,0.857142857142857,
0.928571428571429,1.),(0.,1.),.UNSPECIFIED.);
#36=B_SPLINE_SURFACE_WITH_KNOTS('',3,3,((#587,#588,#589,#590,#591,#592,
#593,#594,#595,#596,#597),(#598,#599,#600,#601,#602,#603,#604,#605,#606,
#607,#608),(#609,#610,#611,#612,#613,#614,#615,#616,#617,#618,#619),(#620,
#621,#622,#623,#624,#625,#626,#627,#628,#629,#630),(#631,#632,#633,#634,
#635,#636,#637,#638,#639,#640,#641)),.UNSPECIFIED.,.F.,.F.,.F.,(4,1,4),
(4,1,1,1,1,1,1,1,4),(0.,0.571428571428571,1.),(0.,0.0633066191844222,0.126613238368844,
0.253226476737689,0.316533095922111,0.506452953475378,0.696372811028645,
0.759679430213067,0.886292668581911),.UNSPECIFIED.);
#37=B_SPLINE_SURFACE_WITH_KNOTS('',3,3,((#715,#716,#717,#718,#719,#720,
#721,#722,#723,#724),(#725,#726,#727,#728,#729,#730,#731,#732,#733,#734),
(#735,#736,#737,#738,#739,#740,#741,#742,#743,#744),(#745,#746,#747,#748,
#749,#750,#751,#752,#753,#754),(#755,#756,#757,#758,#759,#760,#761,#762,
#763,#764)),.UNSPECIFIED.,.F.,.F.,.F.,(4,1,4),(4,1,1,1,1,1,1,4),(0.,0.571428571428571,
1.),(0.12134817166733,0.247961410605349,0.374574649543368,0.627801127419406,
0.754414366357425,0.881027605295444,0.944334224764454,1.00764084423346),
 .UNSPECIFIED.);
#38=B_SPLINE_SURFACE_WITH_KNOTS('',3,3,((#833,#834,#835,#836,#837),(#838,
#839,#840,#841,#842),(#843,#844,#845,#846,#847),(#848,#849,#850,#851,#852),
(#853,#854,#855,#856,#857)),.UNSPECIFIED.,.F.,.F.,.F.,(4,1,4),(4,1,4),(0.,
0.571428571428571,1.),(1.07923546143638E-16,0.0693291257751731,0.121325970106553),
 .UNSPECIFIED.);
#39=B_SPLINE_SURFACE_WITH_KNOTS('',3,3,((#880,#881,#882,#883,#884),(#885,
#886,#887,#888,#889),(#890,#891,#892,#893,#894),(#895,#896,#897,#898,#899),
(#900,#901,#902,#903,#904)),.UNSPECIFIED.,.F.,.F.,.F.,(4,1,4),(4,1,4),(0.,
0.571428571428571,1.),(0.,0.0520061076903848,0.121347584610898),
 .UNSPECIFIED.);
#40=B_SPLINE_SURFACE_WITH_KNOTS('',3,1,((#924,#925),(#926,#927),(#928,#929),
(#930,#931),(#932,#933),(#934,#935),(#936,#937),(#938,#939),(#940,#941),
(#942,#943),(#944,#945),(#946,#947),(#948,#949)),.UNSPECIFIED.,.F.,.F.,
 .F.,(4,3,3,3,4),(2,2),(-3.14159265358979,-2.32476074342419,-1.538445141775,
-0.761498554769071,0.),(0.,1.),.UNSPECIFIED.);
#41=B_SPLINE_SURFACE_WITH_KNOTS('',3,1,((#960,#961),(#962,#963),(#964,#965),
(#966,#967),(#968,#969),(#970,#971),(#972,#973),(#974,#975),(#976,#977),
(#978,#979),(#980,#981),(#982,#983),(#984,#985),(#986,#987),(#988,#989),
(#990,#991)),.UNSPECIFIED.,.F.,.F.,.F.,(4,3,3,3,3,4),(2,2),(0.,0.113692322342697,
0.916820742609712,1.6899406921876,2.45181168844409,3.14159265358979),(0.,
1.),.UNSPECIFIED.);
#42=FACE_OUTER_BOUND('',#56,.T.);
#43=FACE_OUTER_BOUND('',#57,.T.);
#44=FACE_OUTER_BOUND('',#58,.T.);
#45=FACE_OUTER_BOUND('',#59,.T.);
#46=FACE_OUTER_BOUND('',#60,.T.);
#47=FACE_OUTER_BOUND('',#61,.T.);
#48=FACE_OUTER_BOUND('',#62,.T.);
#49=FACE_OUTER_BOUND('',#63,.T.);
#50=FACE_OUTER_BOUND('',#64,.T.);
#51=FACE_OUTER_BOUND('',#65,.T.);
#52=FACE_OUTER_BOUND('',#66,.T.);
#53=FACE_OUTER_BOUND('',#67,.T.);
#54=FACE_OUTER_BOUND('',#68,.T.);
#55=FACE_OUTER_BOUND('',#70,.T.);
#56=EDGE_LOOP('',(#173,#174,#175,#176));
#57=EDGE_LOOP('',(#177,#178,#179,#180,#181,#182,#183,#184,#185));
#58=EDGE_LOOP('',(#186,#187,#188,#189,#190,#191,#192));
#59=EDGE_LOOP('',(#193,#194,#195,#196,#197,#198,#199));
#60=EDGE_LOOP('',(#200,#201,#202,#203));
#61=EDGE_LOOP('',(#204,#205,#206,#207));
#62=EDGE_LOOP('',(#208,#209,#210,#211,#212));
#63=EDGE_LOOP('',(#213,#214,#215,#216,#217,#218));
#64=EDGE_LOOP('',(#219,#220,#221,#222,#223,#224,#225));
#65=EDGE_LOOP('',(#226,#227,#228,#229,#230));
#66=EDGE_LOOP('',(#231,#232,#233,#234,#235,#236));
#67=EDGE_LOOP('',(#237,#238,#239,#240,#241,#242));
#68=EDGE_LOOP('',(#243,#244));
#69=EDGE_LOOP('',(#245));
#70=EDGE_LOOP('',(#246,#247,#248));
#71=EDGE_LOOP('',(#249));
#72=EDGE_LOOP('',(#250));
#73=LINE('',#387,#81);
#74=LINE('',#426,#82);
#75=LINE('',#528,#83);
#76=LINE('',#950,#84);
#77=LINE('',#951,#85);
#78=LINE('',#954,#86);
#79=LINE('',#994,#87);
#80=LINE('',#998,#88);
#81=VECTOR('',#308,10.);
#82=VECTOR('',#309,10.);
#83=VECTOR('',#310,20.0022498734517);
#84=VECTOR('',#319,10.);
#85=VECTOR('',#320,10.);
#86=VECTOR('',#323,1.25);
#87=VECTOR('',#336,2.);
#88=VECTOR('',#341,2.);
#89=B_SPLINE_CURVE_WITH_KNOTS('',3,(#355,#356,#357,#358,#359,#360,#361,
#362,#363,#364,#365,#366,#367,#368,#369,#370,#371,#372,#373,#374,#375,#376,
#377,#378,#379,#380,#381,#382,#383,#384,#385),.UNSPECIFIED.,.F.,.F.,(4,
3,3,3,3,3,3,3,3,3,4),(-0.157649329817643,-0.150620833512511,-0.13204263560236,
-0.11346443769221,-0.0906473656940309,-0.0784623693824782,-0.0561375341206115,
-0.0387216085614154,-0.0201797168977925,-0.0166429664856727,0.),
 .UNSPECIFIED.);
#90=B_SPLINE_CURVE_WITH_KNOTS('',3,(#389,#390,#391,#392,#393,#394,#395,
#396,#397,#398,#399,#400,#401,#402,#403,#404,#405,#406,#407,#408,#409,#410,
#411,#412,#413,#414,#415,#416,#417,#418,#419,#420,#421,#422,#423,#424,#425),
 .UNSPECIFIED.,.F.,.F.,(4,3,3,3,3,3,3,3,3,3,3,3,4),(0.,0.0101559304780473,
0.0283167474036951,0.029326252398049,0.0492844083707732,0.0590716125828579,
0.0883589646652378,0.0977304857487209,0.117514768108885,0.136287120431769,
0.137299050469048,0.154997389681131,0.157659567217595),.UNSPECIFIED.);
#91=B_SPLINE_CURVE_WITH_KNOTS('',3,(#491,#492,#493,#494,#495,#496,#497,
#498,#499,#500,#501,#502,#503,#504,#505,#506,#507,#508,#509,#510,#511,#512),
 .UNSPECIFIED.,.F.,.F.,(4,2,2,2,2,2,2,2,2,2,4),(-3.5698714485477,-3.13662471378682,
-2.62206307049234,-2.2650866376841,-1.95254120574312,-1.77629926910994,
-1.62372881451344,-1.42286529662345,-1.0933742435549,-0.664060452959199,
-0.0500738604391067),.UNSPECIFIED.);
#92=B_SPLINE_CURVE_WITH_KNOTS('',3,(#514,#515,#516,#517,#518,#519,#520,
#521,#522,#523,#524,#525,#526),.UNSPECIFIED.,.F.,.F.,(4,3,3,3,4),(1.6944468919893,
1.79519725281755,2.24399571974163,2.69279418666571,3.14159265358979),
 .UNSPECIFIED.);
#93=B_SPLINE_CURVE_WITH_KNOTS('',3,(#530,#531,#532,#533,#534,#535,#536,
#537,#538,#539,#540,#541,#542,#543,#544,#545,#546,#547,#548,#549,#550,#551),
 .UNSPECIFIED.,.F.,.F.,(4,3,3,3,3,3,3,4),(-1.58040200568146E-17,0.448798950512827,
1.0471975511966,1.34639685153848,1.79519580205131,2.24399475256414,2.69279370307697,
3.14159265358979),.UNSPECIFIED.);
#94=B_SPLINE_CURVE_WITH_KNOTS('',3,(#552,#553,#554,#555,#556,#557,#558,
#559,#560,#561,#562,#563,#564,#565,#566,#567,#568,#569,#570,#571,#572,#573),
 .UNSPECIFIED.,.F.,.F.,(4,3,3,3,3,3,3,4),(-3.14159265358979,-2.69279370307697,
-2.24399475256414,-1.79519580205131,-1.34639685153848,-0.897597901025656,
-0.448798950512828,-1.58040200568146E-17),.UNSPECIFIED.);
#95=B_SPLINE_CURVE_WITH_KNOTS('',3,(#574,#575,#576,#577,#578,#579,#580,
#581,#582,#583,#584,#585,#586),.UNSPECIFIED.,.F.,.F.,(4,3,3,3,4),(-3.14159265358979,
-2.69279936571909,-2.24400607784838,-1.79521278997768,-1.69459593718528),
 .UNSPECIFIED.);
#96=B_SPLINE_CURVE_WITH_KNOTS('',3,(#644,#645,#646,#647),.UNSPECIFIED.,
 .F.,.F.,(4,4),(0.,0.0638942836737568),.UNSPECIFIED.);
#97=B_SPLINE_CURVE_WITH_KNOTS('',3,(#649,#650,#651,#652,#653,#654,#655,
#656,#657,#658,#659,#660,#661,#662,#663,#664,#665,#666,#667,#668,#669,#670,
#671,#672,#673,#674,#675,#676,#677,#678,#679,#680,#681,#682,#683,#684),
 .UNSPECIFIED.,.F.,.F.,(4,2,2,2,2,2,2,2,2,2,2,2,2,2,2,2,2,4),(0.0638942836737568,
0.0747244186558926,0.144258888501084,0.222189361854765,0.318642859805478,
0.437379809174196,0.52546793903634,0.575462548648023,0.599735985184195,
0.619021518223305,0.641636929949635,0.684922641045669,0.784766388953792,
0.8841269500283,0.988082244937609,1.07435855345646,1.14776163619512,1.21819935203277),
 .UNSPECIFIED.);
#98=B_SPLINE_CURVE_WITH_KNOTS('',3,(#686,#687,#688,#689,#690),
 .UNSPECIFIED.,.F.,.F.,(4,1,4),(-0.0982341799182915,-0.0633066191844222,
0.),.UNSPECIFIED.);
#99=B_SPLINE_CURVE_WITH_KNOTS('',3,(#694,#695,#696,#697,#698,#699,#700,
#701,#702,#703,#704),.UNSPECIFIED.,.F.,.F.,(4,1,1,1,1,1,1,1,4),(0.,0.0633066191844222,
0.126613238368844,0.253226476737689,0.316533095922111,0.506452953475378,
0.696372811028645,0.759679430213067,0.886292668581911),.UNSPECIFIED.);
#100=B_SPLINE_CURVE_WITH_KNOTS('',3,(#707,#708,#709,#710,#711,#712,#713,
#714),.UNSPECIFIED.,.F.,.F.,(4,1,1,1,1,4),(-0.886292668581911,-0.759679430213067,
-0.696372811028645,-0.506452953475378,-0.316533095922111,-0.302642164487082),
 .UNSPECIFIED.);
#101=B_SPLINE_CURVE_WITH_KNOTS('',3,(#767,#768,#769,#770,#771,#772,#773,
#774,#775,#776,#777,#778,#779,#780,#781,#782,#783,#784,#785,#786,#787,#788,
#789,#790,#791,#792,#793,#794,#795,#796,#797,#798,#799,#800,#801,#802),
 .UNSPECIFIED.,.F.,.F.,(4,2,2,2,2,2,2,2,2,2,2,2,2,2,2,2,2,4),(0.,0.0738188963017752,
0.143927625310943,0.223966330227734,0.321784058243121,0.438973791336122,
0.52950882908603,0.578157512209578,0.602366050989316,0.621773391750953,
0.644722863807806,0.689560445664746,0.789987415915071,0.891443719247923,
0.998612176777043,1.08404033498355,1.15806968993589,1.16261647631455),
 .UNSPECIFIED.);
#102=B_SPLINE_CURVE_WITH_KNOTS('',3,(#804,#805,#806,#807),.UNSPECIFIED.,
 .F.,.F.,(4,4),(1.16261647631455,1.2268538790791),.UNSPECIFIED.);
#103=B_SPLINE_CURVE_WITH_KNOTS('',3,(#809,#810,#811,#812,#813,#814,#815),
 .UNSPECIFIED.,.F.,.F.,(4,1,1,1,4),(-0.704984327178342,-0.627801127419406,
-0.374574649543368,-0.247961410605349,-0.12134817166733),.UNSPECIFIED.);
#104=B_SPLINE_CURVE_WITH_KNOTS('',3,(#818,#819,#820,#821,#822,#823,#824,
#825,#826,#827),.UNSPECIFIED.,.F.,.F.,(4,1,1,1,1,1,1,4),(0.12134817166733,
0.247961410605349,0.374574649543368,0.627801127419406,0.754414366357425,
0.881027605295444,0.944334224764454,1.00764084423346),.UNSPECIFIED.);
#105=B_SPLINE_CURVE_WITH_KNOTS('',3,(#828,#829,#830,#831,#832),
 .UNSPECIFIED.,.F.,.F.,(4,1,4),(-1.00764084423346,-0.944334224764454,-0.909408492722358),
 .UNSPECIFIED.);
#106=B_SPLINE_CURVE_WITH_KNOTS('',3,(#859,#860,#861,#862,#863,#864,#865,
#866,#867,#868,#869,#870,#871,#872),.UNSPECIFIED.,.F.,.F.,(4,2,2,2,2,2,
4),(0.251957483134314,0.286086753579445,0.335600327016927,0.380859118649361,
0.427552156228325,0.466327043401136,0.503761287092708),.UNSPECIFIED.);
#107=B_SPLINE_CURVE_WITH_KNOTS('',3,(#874,#875,#876,#877,#878),
 .UNSPECIFIED.,.F.,.F.,(4,1,4),(1.07923546143638E-16,0.0693291257751731,
0.121325970106553),.UNSPECIFIED.);
#108=B_SPLINE_CURVE_WITH_KNOTS('',3,(#905,#906,#907,#908,#909),
 .UNSPECIFIED.,.F.,.F.,(4,1,4),(0.,0.0520061076903848,0.121347584610898),
 .UNSPECIFIED.);
#109=B_SPLINE_CURVE_WITH_KNOTS('',3,(#910,#911,#912,#913,#914,#915,#916,
#917,#918,#919,#920,#921,#922,#923),.UNSPECIFIED.,.F.,.F.,(4,2,2,2,2,2,
4),(0.,0.0328331515947964,0.074108213971821,0.120359608243325,0.169374727722376,
0.210542178183117,0.25176440684469),.UNSPECIFIED.);
#110=VERTEX_POINT('',#353);
#111=VERTEX_POINT('',#354);
#112=VERTEX_POINT('',#386);
#113=VERTEX_POINT('',#388);
#114=VERTEX_POINT('',#513);
#115=VERTEX_POINT('',#527);
#116=VERTEX_POINT('',#529);
#117=VERTEX_POINT('',#642);
#118=VERTEX_POINT('',#643);
#119=VERTEX_POINT('',#648);
#120=VERTEX_POINT('',#685);
#121=VERTEX_POINT('',#691);
#122=VERTEX_POINT('',#693);
#123=VERTEX_POINT('',#705);
#124=VERTEX_POINT('',#765);
#125=VERTEX_POINT('',#766);
#126=VERTEX_POINT('',#803);
#127=VERTEX_POINT('',#808);
#128=VERTEX_POINT('',#816);
#129=VERTEX_POINT('',#858);
#130=VERTEX_POINT('',#873);
#131=VERTEX_POINT('',#953);
#132=VERTEX_POINT('',#993);
#133=VERTEX_POINT('',#997);
#134=EDGE_CURVE('',#110,#111,#89,.T.);
#135=EDGE_CURVE('',#111,#112,#73,.T.);
#136=EDGE_CURVE('',#112,#113,#90,.T.);
#137=EDGE_CURVE('',#110,#113,#74,.T.);
#138=EDGE_CURVE('',#110,#113,#91,.T.);
#139=EDGE_CURVE('',#112,#114,#92,.T.);
#140=EDGE_CURVE('',#115,#114,#75,.T.);
#141=EDGE_CURVE('',#116,#115,#93,.T.);
#142=EDGE_CURVE('',#115,#116,#94,.T.);
#143=EDGE_CURVE('',#114,#111,#95,.T.);
#144=EDGE_CURVE('',#117,#118,#96,.T.);
#145=EDGE_CURVE('',#118,#119,#97,.T.);
#146=EDGE_CURVE('',#119,#120,#98,.T.);
#147=EDGE_CURVE('',#120,#121,#26,.T.);
#148=EDGE_CURVE('',#121,#122,#99,.T.);
#149=EDGE_CURVE('',#122,#123,#27,.T.);
#150=EDGE_CURVE('',#123,#117,#100,.T.);
#151=EDGE_CURVE('',#124,#125,#101,.T.);
#152=EDGE_CURVE('',#125,#126,#102,.T.);
#153=EDGE_CURVE('',#126,#127,#103,.T.);
#154=EDGE_CURVE('',#127,#128,#28,.T.);
#155=EDGE_CURVE('',#128,#121,#104,.T.);
#156=EDGE_CURVE('',#120,#124,#105,.T.);
#157=EDGE_CURVE('',#129,#123,#106,.T.);
#158=EDGE_CURVE('',#122,#130,#107,.T.);
#159=EDGE_CURVE('',#130,#129,#29,.T.);
#160=EDGE_CURVE('',#130,#128,#108,.T.);
#161=EDGE_CURVE('',#127,#129,#109,.T.);
#162=EDGE_CURVE('',#115,#121,#76,.T.);
#163=EDGE_CURVE('',#130,#116,#77,.T.);
#164=EDGE_CURVE('',#129,#131,#78,.T.);
#165=EDGE_CURVE('',#131,#131,#25,.T.);
#166=EDGE_CURVE('',#123,#127,#30,.T.);
#167=EDGE_CURVE('',#126,#124,#31,.T.);
#168=EDGE_CURVE('',#119,#117,#32,.T.);
#169=EDGE_CURVE('',#118,#132,#79,.T.);
#170=EDGE_CURVE('',#132,#132,#33,.T.);
#171=EDGE_CURVE('',#125,#133,#80,.T.);
#172=EDGE_CURVE('',#133,#133,#34,.T.);
#173=ORIENTED_EDGE('',*,*,#134,.T.);
#174=ORIENTED_EDGE('',*,*,#135,.T.);
#175=ORIENTED_EDGE('',*,*,#136,.T.);
#176=ORIENTED_EDGE('',*,*,#137,.F.);
#177=ORIENTED_EDGE('',*,*,#134,.F.);
#178=ORIENTED_EDGE('',*,*,#138,.T.);
#179=ORIENTED_EDGE('',*,*,#136,.F.);
#180=ORIENTED_EDGE('',*,*,#139,.T.);
#181=ORIENTED_EDGE('',*,*,#140,.F.);
#182=ORIENTED_EDGE('',*,*,#141,.F.);
#183=ORIENTED_EDGE('',*,*,#142,.F.);
#184=ORIENTED_EDGE('',*,*,#140,.T.);
#185=ORIENTED_EDGE('',*,*,#143,.T.);
#186=ORIENTED_EDGE('',*,*,#144,.T.);
#187=ORIENTED_EDGE('',*,*,#145,.T.);
#188=ORIENTED_EDGE('',*,*,#146,.T.);
#189=ORIENTED_EDGE('',*,*,#147,.T.);
#190=ORIENTED_EDGE('',*,*,#148,.T.);
#191=ORIENTED_EDGE('',*,*,#149,.T.);
#192=ORIENTED_EDGE('',*,*,#150,.T.);
#193=ORIENTED_EDGE('',*,*,#151,.T.);
#194=ORIENTED_EDGE('',*,*,#152,.T.);
#195=ORIENTED_EDGE('',*,*,#153,.T.);
#196=ORIENTED_EDGE('',*,*,#154,.T.);
#197=ORIENTED_EDGE('',*,*,#155,.T.);
#198=ORIENTED_EDGE('',*,*,#147,.F.);
#199=ORIENTED_EDGE('',*,*,#156,.T.);
#200=ORIENTED_EDGE('',*,*,#157,.T.);
#201=ORIENTED_EDGE('',*,*,#149,.F.);
#202=ORIENTED_EDGE('',*,*,#158,.T.);
#203=ORIENTED_EDGE('',*,*,#159,.T.);
#204=ORIENTED_EDGE('',*,*,#159,.F.);
#205=ORIENTED_EDGE('',*,*,#160,.T.);
#206=ORIENTED_EDGE('',*,*,#154,.F.);
#207=ORIENTED_EDGE('',*,*,#161,.T.);
#208=ORIENTED_EDGE('',*,*,#158,.F.);
#209=ORIENTED_EDGE('',*,*,#148,.F.);
#210=ORIENTED_EDGE('',*,*,#162,.F.);
#211=ORIENTED_EDGE('',*,*,#142,.T.);
#212=ORIENTED_EDGE('',*,*,#163,.F.);
#213=ORIENTED_EDGE('',*,*,#164,.T.);
#214=ORIENTED_EDGE('',*,*,#165,.T.);
#215=ORIENTED_EDGE('',*,*,#164,.F.);
#216=ORIENTED_EDGE('',*,*,#161,.F.);
#217=ORIENTED_EDGE('',*,*,#166,.F.);
#218=ORIENTED_EDGE('',*,*,#157,.F.);
#219=ORIENTED_EDGE('',*,*,#150,.F.);
#220=ORIENTED_EDGE('',*,*,#166,.T.);
#221=ORIENTED_EDGE('',*,*,#153,.F.);
#222=ORIENTED_EDGE('',*,*,#167,.T.);
#223=ORIENTED_EDGE('',*,*,#156,.F.);
#224=ORIENTED_EDGE('',*,*,#146,.F.);
#225=ORIENTED_EDGE('',*,*,#168,.T.);
#226=ORIENTED_EDGE('',*,*,#160,.F.);
#227=ORIENTED_EDGE('',*,*,#163,.T.);
#228=ORIENTED_EDGE('',*,*,#141,.T.);
#229=ORIENTED_EDGE('',*,*,#162,.T.);
#230=ORIENTED_EDGE('',*,*,#155,.F.);
#231=ORIENTED_EDGE('',*,*,#144,.F.);
#232=ORIENTED_EDGE('',*,*,#168,.F.);
#233=ORIENTED_EDGE('',*,*,#145,.F.);
#234=ORIENTED_EDGE('',*,*,#169,.T.);
#235=ORIENTED_EDGE('',*,*,#170,.F.);
#236=ORIENTED_EDGE('',*,*,#169,.F.);
#237=ORIENTED_EDGE('',*,*,#151,.F.);
#238=ORIENTED_EDGE('',*,*,#167,.F.);
#239=ORIENTED_EDGE('',*,*,#152,.F.);
#240=ORIENTED_EDGE('',*,*,#171,.T.);
#241=ORIENTED_EDGE('',*,*,#172,.F.);
#242=ORIENTED_EDGE('',*,*,#171,.F.);
#243=ORIENTED_EDGE('',*,*,#138,.F.);
#244=ORIENTED_EDGE('',*,*,#137,.T.);
#245=ORIENTED_EDGE('',*,*,#165,.F.);
#246=ORIENTED_EDGE('',*,*,#135,.F.);
#247=ORIENTED_EDGE('',*,*,#143,.F.);
#248=ORIENTED_EDGE('',*,*,#139,.F.);
#249=ORIENTED_EDGE('',*,*,#170,.T.);
#250=ORIENTED_EDGE('',*,*,#172,.T.);
#251=CYLINDRICAL_SURFACE('',#284,1.);
#252=CYLINDRICAL_SURFACE('',#289,1.25);
#253=CYLINDRICAL_SURFACE('',#295,2.);
#254=CYLINDRICAL_SURFACE('',#297,2.);
#255=ADVANCED_FACE('',(#42),#251,.T.);
#256=ADVANCED_FACE('',(#43),#35,.F.);
#257=ADVANCED_FACE('',(#44),#36,.F.);
#258=ADVANCED_FACE('',(#45),#37,.F.);
#259=ADVANCED_FACE('',(#46),#38,.F.);
#260=ADVANCED_FACE('',(#47),#39,.F.);
#261=ADVANCED_FACE('',(#48),#40,.T.);
#262=ADVANCED_FACE('',(#49),#252,.F.);
#263=ADVANCED_FACE('',(#50),#22,.T.);
#264=ADVANCED_FACE('',(#51),#41,.T.);
#265=ADVANCED_FACE('',(#52),#253,.F.);
#266=ADVANCED_FACE('',(#53),#254,.F.);
#267=ADVANCED_FACE('',(#54,#19),#23,.F.);
#268=ADVANCED_FACE('',(#55,#20,#21),#24,.F.);
#269=CLOSED_SHELL('',(#255,#256,#257,#258,#259,#260,#261,#262,#263,#264,
#265,#266,#267,#268));
#270=DERIVED_UNIT_ELEMENT(#272,1.);
#271=DERIVED_UNIT_ELEMENT(#1010,-3.);
#272=(
MASS_UNIT()
NAMED_UNIT(*)
SI_UNIT(.KILO.,.GRAM.)
);
#273=DERIVED_UNIT((#270,#271));
#274=MEASURE_REPRESENTATION_ITEM('density measure',
POSITIVE_RATIO_MEASURE(7850.),#273);
#275=PROPERTY_DEFINITION_REPRESENTATION(#280,#277);
#276=PROPERTY_DEFINITION_REPRESENTATION(#281,#278);
#277=REPRESENTATION('material name',(#279),#1007);
#278=REPRESENTATION('density',(#274),#1007);
#279=DESCRIPTIVE_REPRESENTATION_ITEM('Steel','Steel');
#280=PROPERTY_DEFINITION('material property','material name',#1022);
#281=PROPERTY_DEFINITION('material property','density of part',#1022);
#282=AXIS2_PLACEMENT_3D('',#350,#302,#303);
#283=AXIS2_PLACEMENT_3D('',#351,#304,#305);
#284=AXIS2_PLACEMENT_3D('',#352,#306,#307);
#285=AXIS2_PLACEMENT_3D('',#692,#311,#312);
#286=AXIS2_PLACEMENT_3D('',#706,#313,#314);
#287=AXIS2_PLACEMENT_3D('',#817,#315,#316);
#288=AXIS2_PLACEMENT_3D('',#879,#317,#318);
#289=AXIS2_PLACEMENT_3D('',#952,#321,#322);
#290=AXIS2_PLACEMENT_3D('',#955,#324,#325);
#291=AXIS2_PLACEMENT_3D('',#956,#326,#327);
#292=AXIS2_PLACEMENT_3D('',#957,#328,#329);
#293=AXIS2_PLACEMENT_3D('',#958,#330,#331);
#294=AXIS2_PLACEMENT_3D('',#959,#332,#333);
#295=AXIS2_PLACEMENT_3D('',#992,#334,#335);
#296=AXIS2_PLACEMENT_3D('',#995,#337,#338);
#297=AXIS2_PLACEMENT_3D('',#996,#339,#340);
#298=AXIS2_PLACEMENT_3D('',#999,#342,#343);
#299=AXIS2_PLACEMENT_3D('',#1000,#344,#345);
#300=AXIS2_PLACEMENT_3D('',#1001,#346,#347);
#301=AXIS2_PLACEMENT_3D('',#1002,#348,#349);
#302=DIRECTION('axis',(0.,0.,1.));
#303=DIRECTION('refdir',(1.,0.,0.));
#304=DIRECTION('axis',(0.,0.,1.));
#305=DIRECTION('refdir',(1.,0.,0.));
#306=DIRECTION('center_axis',(-1.1079895875642E-66,-1.,-8.98907946062328E-36));
#307=DIRECTION('ref_axis',(0.707106781186543,0.,-0.707106781186553));
#308=DIRECTION('',(1.1079895875642E-66,1.,8.98907946062328E-36));
#309=DIRECTION('',(0.,1.,0.));
#310=DIRECTION('',(-0.0149983127847123,-2.06625126718951E-18,-0.999887518980816));
#311=DIRECTION('center_axis',(2.04160315067559E-16,-1.,0.));
#312=DIRECTION('ref_axis',(0.,0.,1.));
#313=DIRECTION('center_axis',(-0.55453677577063,-0.832159218129508,-1.46859459769667E-16));
#314=DIRECTION('ref_axis',(0.832159218129508,-0.55453677577063,0.));
#315=DIRECTION('center_axis',(-0.554536776945352,0.832159217346693,4.47207814236773E-17));
#316=DIRECTION('ref_axis',(-1.16147091944185E-10,-7.73985042723523E-11,
1.));
#317=DIRECTION('center_axis',(-5.67823730089189E-5,-0.999999998387881,-2.60208520977034E-17));
#318=DIRECTION('ref_axis',(0.999999998387881,-5.67823730089189E-5,0.));
#319=DIRECTION('',(0.,0.,1.));
#320=DIRECTION('',(0.,0.,-1.));
#321=DIRECTION('center_axis',(0.,0.,-1.));
#322=DIRECTION('ref_axis',(-1.,0.,0.));
#323=DIRECTION('',(0.,0.,-1.));
#324=DIRECTION('center_axis',(0.707106781186554,0.,-0.707106781186541));
#325=DIRECTION('ref_axis',(-0.707106781186541,0.,-0.707106781186554));
#326=DIRECTION('center_axis',(-2.46478321080748E-36,4.44081935945021E-32,
-1.));
#327=DIRECTION('ref_axis',(-1.,0.,0.));
#328=DIRECTION('center_axis',(2.46478321080748E-36,-4.44081935945021E-32,
1.));
#329=DIRECTION('ref_axis',(1.,0.,-2.46478321080748E-36));
#330=DIRECTION('center_axis',(-2.46478321080748E-36,4.44081935945021E-32,
-1.));
#331=DIRECTION('ref_axis',(-1.,0.,0.));
#332=DIRECTION('center_axis',(-2.46478321080748E-36,4.44081935945021E-32,
-1.));
#333=DIRECTION('ref_axis',(-1.,0.,0.));
#334=DIRECTION('center_axis',(0.,0.,-1.));
#335=DIRECTION('ref_axis',(-1.,0.,0.));
#336=DIRECTION('',(0.,0.,-1.));
#337=DIRECTION('center_axis',(1.22368329395661E-31,-8.98907946062328E-36,
1.));
#338=DIRECTION('ref_axis',(-1.,0.,0.));
#339=DIRECTION('center_axis',(0.,0.,-1.));
#340=DIRECTION('ref_axis',(-1.,0.,0.));
#341=DIRECTION('',(0.,0.,-1.));
#342=DIRECTION('center_axis',(1.22368329395661E-31,-8.98907946062328E-36,
1.));
#343=DIRECTION('ref_axis',(-1.,0.,0.));
#344=DIRECTION('center_axis',(-0.707106781186554,0.,0.707106781186541));
#345=DIRECTION('ref_axis',(0.707106781186541,0.,0.707106781186554));
#346=DIRECTION('center_axis',(1.22368329395661E-31,-8.98907946062328E-36,
1.));
#347=DIRECTION('ref_axis',(1.,0.,-1.22368329395661E-31));
#348=DIRECTION('',(0.,0.,1.));
#349=DIRECTION('',(1.,0.,0.));
#350=CARTESIAN_POINT('',(0.,0.,0.));
#351=CARTESIAN_POINT('',(0.,0.,0.));
#352=CARTESIAN_POINT('Origin',(-1.,-3.09596177495981E-5,95.));
#353=CARTESIAN_POINT('',(1.23259516440783E-31,-6.98499997898936,95.0000014007092));
#354=CARTESIAN_POINT('',(-0.999999999780184,-6.94499079236679,94.));
#355=CARTESIAN_POINT('Ctrl Pts',(-0.000510656043669178,-6.98482230083673,
95.0000014007091));
#356=CARTESIAN_POINT('Ctrl Pts',(-0.000510379980654121,-6.98517270308345,
94.9766444665143));
#357=CARTESIAN_POINT('Ctrl Pts',(-0.00132866243791103,-6.98552332279437,
94.9532617870159));
#358=CARTESIAN_POINT('Ctrl Pts',(-0.00297091974944785,-6.98587285657077,
94.9298960813919));
#359=CARTESIAN_POINT('Ctrl Pts',(-0.00731185188404159,-6.98679676928009,
94.8681341749729));
#360=CARTESIAN_POINT('Ctrl Pts',(-0.0173706494191637,-6.98770906424334,
94.8070422997967));
#361=CARTESIAN_POINT('Ctrl Pts',(-0.0329484406806071,-6.98854366627235,
94.7473906701644));
#362=CARTESIAN_POINT('Ctrl Pts',(-0.0485262319420505,-6.98937826830136,
94.687739040532));
#363=CARTESIAN_POINT('Ctrl Pts',(-0.0696231754487343,-6.99013469145439,
94.6295276564433));
#364=CARTESIAN_POINT('Ctrl Pts',(-0.0960380903326252,-6.99069135231907,
94.5735267321994));
#365=CARTESIAN_POINT('Ctrl Pts',(-0.128479935211573,-6.99137502309754,94.5047484186828));
#366=CARTESIAN_POINT('Ctrl Pts',(-0.168608978736466,-6.99174920889617,94.4400129174113));
#367=CARTESIAN_POINT('Ctrl Pts',(-0.215578327600267,-6.99152703151745,94.3805263844229));
#368=CARTESIAN_POINT('Ctrl Pts',(-0.240661359406764,-6.99140838217715,94.3487588033279));
#369=CARTESIAN_POINT('Ctrl Pts',(-0.267694916946861,-6.99111855370637,94.3184881640724));
#370=CARTESIAN_POINT('Ctrl Pts',(-0.296547944800453,-6.99060853274934,94.2898981627677));
#371=CARTESIAN_POINT('Ctrl Pts',(-0.349411243004884,-6.98967409390713,94.2375167706899));
#372=CARTESIAN_POINT('Ctrl Pts',(-0.407807342592316,-6.98800734589076,94.1913448548102));
#373=CARTESIAN_POINT('Ctrl Pts',(-0.470583141152974,-6.98536132989643,94.1521222862407));
#374=CARTESIAN_POINT('Ctrl Pts',(-0.519555445845362,-6.98329713470551,94.1215241955298));
#375=CARTESIAN_POINT('Ctrl Pts',(-0.57119273827533,-6.98063705023139,94.0951553280672));
#376=CARTESIAN_POINT('Ctrl Pts',(-0.62494106717363,-6.97728558157101,94.0733669456843));
#377=CARTESIAN_POINT('Ctrl Pts',(-0.682164307370981,-6.97371743535888,94.050169911206));
#378=CARTESIAN_POINT('Ctrl Pts',(-0.741332248619274,-6.96939170600989,94.0323462925496));
#379=CARTESIAN_POINT('Ctrl Pts',(-0.801686239922339,-6.96426872265575,94.0200775839908));
#380=CARTESIAN_POINT('Ctrl Pts',(-0.813198388061623,-6.96329154547136,94.0177374042055));
#381=CARTESIAN_POINT('Ctrl Pts',(-0.824753687483789,-6.962285513848,94.0155993297571));
#382=CARTESIAN_POINT('Ctrl Pts',(-0.83634687504307,-6.96125057278642,94.0136646201915));
#383=CARTESIAN_POINT('Ctrl Pts',(-0.890901200208356,-6.95638042720209,94.0045604135874));
#384=CARTESIAN_POINT('Ctrl Pts',(-0.946052764530835,-6.95088855186736,94.0000000000009));
#385=CARTESIAN_POINT('Ctrl Pts',(-1.00124079513346,-6.9448086616568,94.));
#386=CARTESIAN_POINT('',(-1.,6.94499079231823,94.));
#387=CARTESIAN_POINT('',(-1.,-3.09596177495981E-5,94.));
#388=CARTESIAN_POINT('',(1.23259516440783E-31,6.98499997898936,95.0000014007092));
#389=CARTESIAN_POINT('Ctrl Pts',(-0.997844618578156,6.94504273347105,94.));
#390=CARTESIAN_POINT('Ctrl Pts',(-0.964187934365464,6.94872960265716,94.));
#391=CARTESIAN_POINT('Ctrl Pts',(-0.930528900092758,6.95219972532684,94.0016982714083));
#392=CARTESIAN_POINT('Ctrl Pts',(-0.896995178328533,6.95544323202384,94.0050953553721));
#393=CARTESIAN_POINT('Ctrl Pts',(-0.837030236355749,6.96124326496504,94.0111700149102));
#394=CARTESIAN_POINT('Ctrl Pts',(-0.777683355514318,6.96629470729302,94.0226544257601));
#395=CARTESIAN_POINT('Ctrl Pts',(-0.719678166937347,6.97059913946108,94.0394394367754));
#396=CARTESIAN_POINT('Ctrl Pts',(-0.716453833593388,6.97083840985234,94.0403724648721));
#397=CARTESIAN_POINT('Ctrl Pts',(-0.713233646485469,6.97107538532868,94.0413218713595));
#398=CARTESIAN_POINT('Ctrl Pts',(-0.710017730044819,6.9713100707928,94.0422876374901));
#399=CARTESIAN_POINT('Ctrl Pts',(-0.646438290342478,6.97594985873202,94.0613810656298));
#400=CARTESIAN_POINT('Ctrl Pts',(-0.584959399237612,6.97965838080755,94.0867387227178));
#401=CARTESIAN_POINT('Ctrl Pts',(-0.526476548230155,6.98254054109123,94.1179682583094));
#402=CARTESIAN_POINT('Ctrl Pts',(-0.497797365318811,6.98395391271268,94.1332827915108));
#403=CARTESIAN_POINT('Ctrl Pts',(-0.46983859225065,6.98516943508224,94.1500093859661));
#404=CARTESIAN_POINT('Ctrl Pts',(-0.442705253465921,6.98620388973719,94.1681017728086));
#405=CARTESIAN_POINT('Ctrl Pts',(-0.361511111713194,6.98929940476236,94.2222416570884));
#406=CARTESIAN_POINT('Ctrl Pts',(-0.288802594461432,6.99073088644852,94.2878867076678));
#407=CARTESIAN_POINT('Ctrl Pts',(-0.226812420189586,6.99113174289628,94.362853709476));
#408=CARTESIAN_POINT('Ctrl Pts',(-0.20697647791924,6.99126001105248,94.3868420453295));
#409=CARTESIAN_POINT('Ctrl Pts',(-0.188237582278746,6.99128287728225,94.4117848610742));
#410=CARTESIAN_POINT('Ctrl Pts',(-0.170667781426014,6.99122064123681,94.4376106270017));
#411=CARTESIAN_POINT('Ctrl Pts',(-0.133576054481605,6.99108925429492,94.4921315783738));
#412=CARTESIAN_POINT('Ctrl Pts',(-0.102059680475381,6.99058357311275,94.5500534611511));
#413=CARTESIAN_POINT('Ctrl Pts',(-0.0764954648493719,6.98988874163953,94.6104909319405));
#414=CARTESIAN_POINT('Ctrl Pts',(-0.0522388123282811,6.98922944953164,94.6678371360893));
#415=CARTESIAN_POINT('Ctrl Pts',(-0.0333407525955184,6.9884002367831,94.7274481738739));
#416=CARTESIAN_POINT('Ctrl Pts',(-0.020118184194323,6.98751208486548,94.7885677229427));
#417=CARTESIAN_POINT('Ctrl Pts',(-0.0194054171470717,6.98746420873427,94.7918623930248));
#418=CARTESIAN_POINT('Ctrl Pts',(-0.0187091410936618,6.98741614858156,94.7951614465173));
#419=CARTESIAN_POINT('Ctrl Pts',(-0.0180294054328396,6.98736791731862,94.798464764952));
#420=CARTESIAN_POINT('Ctrl Pts',(-0.00614105807669199,6.9865243688037,94.8562386897928));
#421=CARTESIAN_POINT('Ctrl Pts',(0.000583735271250247,6.98564011726515,
94.9148163945634));
#422=CARTESIAN_POINT('Ctrl Pts',(0.00213795571774966,6.98475942225961,94.9735099109794));
#423=CARTESIAN_POINT('Ctrl Pts',(0.00237174097351868,6.98462694844768,94.9823385676724));
#424=CARTESIAN_POINT('Ctrl Pts',(0.00248853748338838,6.98449445903982,94.991169844727));
#425=CARTESIAN_POINT('Ctrl Pts',(0.00248832212006578,6.9843620025266,95.0000014007092));
#426=CARTESIAN_POINT('',(1.23259516440783E-31,0.,95.0000014007092));
#427=CARTESIAN_POINT('Ctrl Pts',(-7.7,-8.00615252071601E-16,114.));
#428=CARTESIAN_POINT('Ctrl Pts',(-7.8,-8.14391726185669E-16,107.333333333333));
#429=CARTESIAN_POINT('Ctrl Pts',(-7.9,-8.28168200299737E-16,100.666666666667));
#430=CARTESIAN_POINT('Ctrl Pts',(-8.,-8.41944674413805E-16,94.));
#431=CARTESIAN_POINT('Ctrl Pts',(-7.7,-0.978007712992537,114.));
#432=CARTESIAN_POINT('Ctrl Pts',(-7.80005800746508,-0.994870380037617,107.333333333333));
#433=CARTESIAN_POINT('Ctrl Pts',(-7.89994199253492,-1.01163492788015,100.666666666667));
#434=CARTESIAN_POINT('Ctrl Pts',(-8.,-1.02849759492523,94.));
#435=CARTESIAN_POINT('Ctrl Pts',(-7.1990476629104,-2.9412229841967,114.));
#436=CARTESIAN_POINT('Ctrl Pts',(-7.29008385177074,-2.99157402968984,107.333333333333));
#437=CARTESIAN_POINT('Ctrl Pts',(-7.38099679953536,-3.04200824563812,100.666666666667));
#438=CARTESIAN_POINT('Ctrl Pts',(-7.4720329883957,-3.09235929113126,94.));
#439=CARTESIAN_POINT('Ctrl Pts',(-5.03996332260301,-5.36797045507432,114.));
#440=CARTESIAN_POINT('Ctrl Pts',(-5.0987942029952,-5.45260978901405,107.333333333333));
#441=CARTESIAN_POINT('Ctrl Pts',(-5.15795795072958,-5.53715811027702,100.666666666667));
#442=CARTESIAN_POINT('Ctrl Pts',(-5.21678883112176,-5.62179744421675,94.));
#443=CARTESIAN_POINT('Ctrl Pts',(-1.80752330842519,-6.75671728861056,114.));
#444=CARTESIAN_POINT('Ctrl Pts',(-1.82779654789705,-6.85737819814153,107.333333333333));
#445=CARTESIAN_POINT('Ctrl Pts',(-1.84807318127875,-6.95803479959991,100.666666666667));
#446=CARTESIAN_POINT('Ctrl Pts',(-1.86834642075061,-7.05869570913088,93.9999999999999));
#447=CARTESIAN_POINT('Ctrl Pts',(1.80724886611033,-6.75874655898135,114.));
#448=CARTESIAN_POINT('Ctrl Pts',(1.82775171418145,-6.85945859051948,107.333333333333));
#449=CARTESIAN_POINT('Ctrl Pts',(1.84748161507277,-6.96012111503825,100.666666666667));
#450=CARTESIAN_POINT('Ctrl Pts',(1.86798446314389,-7.06083314657638,94.));
#451=CARTESIAN_POINT('Ctrl Pts',(5.03278311625961,-5.3669204325719,114.));
#452=CARTESIAN_POINT('Ctrl Pts',(5.09103065445563,-5.45149143877951,107.333333333333));
#453=CARTESIAN_POINT('Ctrl Pts',(5.14953860228137,-5.5360499976286,100.666666666667));
#454=CARTESIAN_POINT('Ctrl Pts',(5.20778614047739,-5.6206210038362,94.));
#455=CARTESIAN_POINT('Ctrl Pts',(7.93364124896718,-2.13199983235714,114.));
#456=CARTESIAN_POINT('Ctrl Pts',(8.03720981838365,-2.17108808111611,107.333333333333));
#457=CARTESIAN_POINT('Ctrl Pts',(8.13956612210312,-2.21013496862836,100.666666666667));
#458=CARTESIAN_POINT('Ctrl Pts',(8.24313469151959,-2.24922321738733,94.));
#459=CARTESIAN_POINT('Ctrl Pts',(7.94160470921297,2.4894291991606,114.));
#460=CARTESIAN_POINT('Ctrl Pts',(8.04450117590566,2.53499993055461,107.333333333333));
#461=CARTESIAN_POINT('Ctrl Pts',(8.14747808678701,2.58062582629891,100.666666666667));
#462=CARTESIAN_POINT('Ctrl Pts',(8.2503745534797,2.62619655769292,94.));
#463=CARTESIAN_POINT('Ctrl Pts',(4.70636159860746,5.60443300354324,114.));
#464=CARTESIAN_POINT('Ctrl Pts',(4.76016922058439,5.69185504102896,107.333333333333));
#465=CARTESIAN_POINT('Ctrl Pts',(4.81532637862172,5.7791165935586,100.666666666667));
#466=CARTESIAN_POINT('Ctrl Pts',(4.86913400059866,5.86653863104431,94.));
#467=CARTESIAN_POINT('Ctrl Pts',(1.40461398657068,6.75629580735321,114.));
#468=CARTESIAN_POINT('Ctrl Pts',(1.42082340348701,6.85689867235061,107.333333333333));
#469=CARTESIAN_POINT('Ctrl Pts',(1.43630255910036,6.95757441830615,100.666666666667));
#470=CARTESIAN_POINT('Ctrl Pts',(1.45251197601669,7.05817728330356,94.));
#471=CARTESIAN_POINT('Ctrl Pts',(-1.80458775361272,6.75828900550255,114.));
#472=CARTESIAN_POINT('Ctrl Pts',(-1.82505175734043,6.85900416052337,107.333333333333));
#473=CARTESIAN_POINT('Ctrl Pts',(-1.84434273385843,6.9596250909237,100.666666666667));
#474=CARTESIAN_POINT('Ctrl Pts',(-1.86480673758615,7.06034024594453,94.));
#475=CARTESIAN_POINT('Ctrl Pts',(-5.03602759847195,5.36732121187774,114.));
#476=CARTESIAN_POINT('Ctrl Pts',(-5.09474588767986,5.45194670692339,107.333333333333));
#477=CARTESIAN_POINT('Ctrl Pts',(-5.15360748059642,5.53656354209386,100.666666666667));
#478=CARTESIAN_POINT('Ctrl Pts',(-5.21232576980434,5.6211890371395,94.));
#479=CARTESIAN_POINT('Ctrl Pts',(-7.20151787369113,2.9375482721235,114.));
#480=CARTESIAN_POINT('Ctrl Pts',(-7.29266274693198,2.98787127160185,107.333333333333));
#481=CARTESIAN_POINT('Ctrl Pts',(-7.38332029845197,3.03819998484621,100.666666666667));
#482=CARTESIAN_POINT('Ctrl Pts',(-7.47446517169283,3.08852298432456,94.));
#483=CARTESIAN_POINT('Ctrl Pts',(-7.7,0.978007712992537,114.));
#484=CARTESIAN_POINT('Ctrl Pts',(-7.80000397387247,0.994873841454889,107.333333333333));
#485=CARTESIAN_POINT('Ctrl Pts',(-7.89999602612752,1.01163146646288,100.666666666667));
#486=CARTESIAN_POINT('Ctrl Pts',(-8.,1.02849759492523,94.));
#487=CARTESIAN_POINT('Ctrl Pts',(-7.7,8.00615252071602E-16,114.));
#488=CARTESIAN_POINT('Ctrl Pts',(-7.8,8.1439172618567E-16,107.333333333333));
#489=CARTESIAN_POINT('Ctrl Pts',(-7.9,8.28168200299738E-16,100.666666666667));
#490=CARTESIAN_POINT('Ctrl Pts',(-8.,8.41944674413806E-16,94.));
#491=CARTESIAN_POINT('Ctrl Pts',(4.02455846426619E-15,-6.98499997898936,
95.0000014007092));
#492=CARTESIAN_POINT('Ctrl Pts',(0.799765175629165,-6.97300350135492,95.7997665763383));
#493=CARTESIAN_POINT('Ctrl Pts',(1.60423472154511,-6.85565647767442,96.6042361222543));
#494=CARTESIAN_POINT('Ctrl Pts',(3.31215764198278,-6.35863214263786,98.312159042692));
#495=CARTESIAN_POINT('Ctrl Pts',(4.23442097356205,-5.9253286153216,99.2344223742713));
#496=CARTESIAN_POINT('Ctrl Pts',(5.6450900820596,-4.86981140755316,100.645091482769));
#497=CARTESIAN_POINT('Ctrl Pts',(6.19573879141861,-4.33349342621854,101.195740192128));
#498=CARTESIAN_POINT('Ctrl Pts',(7.06354252966708,-3.11693460790322,102.063543930376));
#499=CARTESIAN_POINT('Ctrl Pts',(7.40485241193191,-2.45707918231689,102.404853812663));
#500=CARTESIAN_POINT('Ctrl Pts',(7.74341294691579,-1.29431665129757,102.743414347647));
#501=CARTESIAN_POINT('Ctrl Pts',(7.82325706773372,-0.856520506837723,102.823258468443));
#502=CARTESIAN_POINT('Ctrl Pts',(7.87958152864711,-0.0147119474199716,102.879582929356));
#503=CARTESIAN_POINT('Ctrl Pts',(7.86780236370982,0.375715878431326,102.867803764428));
#504=CARTESIAN_POINT('Ctrl Pts',(7.75477682781393,1.27048361528649,102.754778228532));
#505=CARTESIAN_POINT('Ctrl Pts',(7.62855932788336,1.75511408470134,102.628560728593));
#506=CARTESIAN_POINT('Ctrl Pts',(7.1683643390206,2.95494045752796,102.16836573973));
#507=CARTESIAN_POINT('Ctrl Pts',(6.76030192417848,3.60216106648794,101.760303324888));
#508=CARTESIAN_POINT('Ctrl Pts',(5.6962509120061,4.85807710853441,100.696252312715));
#509=CARTESIAN_POINT('Ctrl Pts',(4.9450161045322,5.46367368385248,99.9450175052414));
#510=CARTESIAN_POINT('Ctrl Pts',(2.85383719442248,6.59986826612295,97.8538385951317));
#511=CARTESIAN_POINT('Ctrl Pts',(1.4427866367918,6.96335817943748,96.442788037501));
#512=CARTESIAN_POINT('Ctrl Pts',(0.,6.98499997898936,95.0000014007092));
#513=CARTESIAN_POINT('',(-8.,-8.41944926219262E-16,94.));
#514=CARTESIAN_POINT('Ctrl Pts',(-0.997844618579372,6.94504273347091,94.0000000000001));
#515=CARTESIAN_POINT('Ctrl Pts',(-1.26774307496489,6.9154771263558,94.0000000000001));
#516=CARTESIAN_POINT('Ctrl Pts',(-1.53585079832692,6.87383073781495,94.0000000000001));
#517=CARTESIAN_POINT('Ctrl Pts',(-1.80072931748864,6.82007615564851,94.0000000000001));
#518=CARTESIAN_POINT('Ctrl Pts',(-2.98064641499221,6.58062317634285,94.0000000000001));
#519=CARTESIAN_POINT('Ctrl Pts',(-4.09648609239827,6.10090610674118,94.0000000000001));
#520=CARTESIAN_POINT('Ctrl Pts',(-5.03142916474939,5.43893656313785,94.0000000000001));
#521=CARTESIAN_POINT('Ctrl Pts',(-5.9663722371005,4.77696701953452,94.0000000000001));
#522=CARTESIAN_POINT('Ctrl Pts',(-6.72041870439666,3.93274500192954,94.));
#523=CARTESIAN_POINT('Ctrl Pts',(-7.22882564512154,2.99562764577722,94.));
#524=CARTESIAN_POINT('Ctrl Pts',(-7.73723258584641,2.0585102896249,94.));
#525=CARTESIAN_POINT('Ctrl Pts',(-8.,1.02849759492523,94.));
#526=CARTESIAN_POINT('Ctrl Pts',(-8.,1.11022302462516E-15,94.));
#527=CARTESIAN_POINT('',(-7.7,-8.00615252071601E-16,114.));
#528=CARTESIAN_POINT('',(-7.7,-8.00615252071601E-16,114.));
#529=CARTESIAN_POINT('',(7.6999999906318,-0.000329968678843958,114.));
#530=CARTESIAN_POINT('Ctrl Pts',(7.69515661534027,0.000766424325108206,
114.));
#531=CARTESIAN_POINT('Ctrl Pts',(7.69595986397876,0.981131234147998,114.));
#532=CARTESIAN_POINT('Ctrl Pts',(7.45460303579997,1.96129505533725,114.));
#533=CARTESIAN_POINT('Ctrl Pts',(6.97005165784722,2.85513907505783,114.));
#534=CARTESIAN_POINT('Ctrl Pts',(6.32398315391021,4.04693110135192,114.));
#535=CARTESIAN_POINT('Ctrl Pts',(5.24556878370838,5.0852657028128,114.));
#536=CARTESIAN_POINT('Ctrl Pts',(3.90780173822279,5.77266991924346,114.));
#537=CARTESIAN_POINT('Ctrl Pts',(3.23891821548,6.11637202745878,114.));
#538=CARTESIAN_POINT('Ctrl Pts',(2.50519652391627,6.37234153941655,114.));
#539=CARTESIAN_POINT('Ctrl Pts',(1.7440433349597,6.52612256640615,114.));
#540=CARTESIAN_POINT('Ctrl Pts',(0.602313551524831,6.75679410689054,114.));
#541=CARTESIAN_POINT('Ctrl Pts',(-0.601137101043941,6.75754155619655,114.));
#542=CARTESIAN_POINT('Ctrl Pts',(-1.74143573480487,6.52608731524541,114.));
#543=CARTESIAN_POINT('Ctrl Pts',(-2.88173436856579,6.29463307429428,114.));
#544=CARTESIAN_POINT('Ctrl Pts',(-3.95888098351887,5.83097714308601,114.));
#545=CARTESIAN_POINT('Ctrl Pts',(-4.85836933686527,5.19418702085617,114.));
#546=CARTESIAN_POINT('Ctrl Pts',(-5.75785769021167,4.55739689862633,114.));
#547=CARTESIAN_POINT('Ctrl Pts',(-6.4796877819514,3.74747258537492,114.));
#548=CARTESIAN_POINT('Ctrl Pts',(-6.96522335939848,2.85262528896647,114.));
#549=CARTESIAN_POINT('Ctrl Pts',(-7.45075893684557,1.95777799255802,114.));
#550=CARTESIAN_POINT('Ctrl Pts',(-7.7,0.978007712992537,114.));
#551=CARTESIAN_POINT('Ctrl Pts',(-7.7,1.11022302462516E-15,114.));
#552=CARTESIAN_POINT('Ctrl Pts',(-7.7,-8.00615252071601E-16,114.));
#553=CARTESIAN_POINT('Ctrl Pts',(-7.7,-0.978007712992537,114.));
#554=CARTESIAN_POINT('Ctrl Pts',(-7.4495238314552,-1.95961534859462,114.));
#555=CARTESIAN_POINT('Ctrl Pts',(-6.96443835713157,-2.8548770782086,114.));
#556=CARTESIAN_POINT('Ctrl Pts',(-6.47935288280793,-3.75013880782257,114.));
#557=CARTESIAN_POINT('Ctrl Pts',(-5.75965810270547,-4.55905463144845,114.));
#558=CARTESIAN_POINT('Ctrl Pts',(-4.86107071029127,-5.19497034885076,114.));
#559=CARTESIAN_POINT('Ctrl Pts',(-3.96248331787707,-5.83088606625307,114.));
#560=CARTESIAN_POINT('Ctrl Pts',(-2.88500331315113,-6.29380167743182,114.));
#561=CARTESIAN_POINT('Ctrl Pts',(-1.74380128169891,-6.52559769474965,114.));
#562=CARTESIAN_POINT('Ctrl Pts',(-0.602599250246686,-6.75739371206749,114.));
#563=CARTESIAN_POINT('Ctrl Pts',(0.60232480793182,-6.75807013552442,114.));
#564=CARTESIAN_POINT('Ctrl Pts',(1.74237587871262,-6.52643732618464,114.));
#565=CARTESIAN_POINT('Ctrl Pts',(2.88242694949342,-6.29480451684487,114.));
#566=CARTESIAN_POINT('Ctrl Pts',(3.95760503287651,-5.83086247470839,114.));
#567=CARTESIAN_POINT('Ctrl Pts',(4.85780134115651,-5.1945263786133,114.));
#568=CARTESIAN_POINT('Ctrl Pts',(5.7579976494365,-4.55819028251821,114.));
#569=CARTESIAN_POINT('Ctrl Pts',(6.48321218261339,-3.74946013246452,114.));
#570=CARTESIAN_POINT('Ctrl Pts',(6.96730111192972,-2.85481215820941,114.));
#571=CARTESIAN_POINT('Ctrl Pts',(7.45139004124604,-1.96016418395431,114.));
#572=CARTESIAN_POINT('Ctrl Pts',(7.69435336670179,-0.979598385497782,114.));
#573=CARTESIAN_POINT('Ctrl Pts',(7.69515661534027,0.000766424325108206,
114.));
#574=CARTESIAN_POINT('Ctrl Pts',(-8.,-2.42467276318572E-16,94.));
#575=CARTESIAN_POINT('Ctrl Pts',(-7.99999999999997,-1.02849759492523,94.0000000000018));
#576=CARTESIAN_POINT('Ctrl Pts',(-7.73601649419779,-2.06042844302823,94.0000000000037));
#577=CARTESIAN_POINT('Ctrl Pts',(-7.22815071508438,-2.99796689259396,94.0000000000056));
#578=CARTESIAN_POINT('Ctrl Pts',(-6.72028493597096,-3.93550534215969,94.0000000000074));
#579=CARTESIAN_POINT('Ctrl Pts',(-5.96853688354631,-4.77865139318815,94.0000000000093));
#580=CARTESIAN_POINT('Ctrl Pts',(-5.03458912227213,-5.43970746285472,94.0000000000111));
#581=CARTESIAN_POINT('Ctrl Pts',(-4.10064136099795,-6.10076353252128,94.000000000013));
#582=CARTESIAN_POINT('Ctrl Pts',(-2.98449389087425,-6.57972962082596,94.0000000000148));
#583=CARTESIAN_POINT('Ctrl Pts',(-1.80369834183,-6.81956890455253,94.0000000000167));
#584=CARTESIAN_POINT('Ctrl Pts',(-1.53897082663077,-6.87333948124507,94.0000000000171));
#585=CARTESIAN_POINT('Ctrl Pts',(-1.27099390245703,-6.91509081780219,94.0000000000175));
#586=CARTESIAN_POINT('Ctrl Pts',(-1.00124079488823,-6.94480866168355,94.000000000018));
#587=CARTESIAN_POINT('Ctrl Pts',(-7.7,-2.15105711021124E-15,120.));
#588=CARTESIAN_POINT('Ctrl Pts',(-7.7,-0.677083064078791,120.));
#589=CARTESIAN_POINT('Ctrl Pts',(-7.44673804142299,-2.01499000056067,120.));
#590=CARTESIAN_POINT('Ctrl Pts',(-6.33228200800218,-4.03831003035026,120.));
#591=CARTESIAN_POINT('Ctrl Pts',(-4.89565585104848,-5.26214236346184,120.));
#592=CARTESIAN_POINT('Ctrl Pts',(-2.65549223726866,-6.42559360607236,120.));
#593=CARTESIAN_POINT('Ctrl Pts',(0.0509967779281027,-6.90945124504291,120.));
#594=CARTESIAN_POINT('Ctrl Pts',(2.75521147196973,-6.39736591628917,120.));
#595=CARTESIAN_POINT('Ctrl Pts',(4.99293323998929,-5.20185284370029,120.));
#596=CARTESIAN_POINT('Ctrl Pts',(6.06188462490256,-4.25630227818001,120.));
#597=CARTESIAN_POINT('Ctrl Pts',(6.66167294019715,-3.35623685906484,120.));
#598=CARTESIAN_POINT('Ctrl Pts',(-7.7,-2.15105711021124E-15,121.196797201368));
#599=CARTESIAN_POINT('Ctrl Pts',(-7.7,-0.678448328530653,121.196797201368));
#600=CARTESIAN_POINT('Ctrl Pts',(-7.44748474328231,-2.01791190544233,121.196797201368));
#601=CARTESIAN_POINT('Ctrl Pts',(-6.33162305874081,-4.04423743315636,121.196797201367));
#602=CARTESIAN_POINT('Ctrl Pts',(-4.89562147288758,-5.26800727843593,121.196797201368));
#603=CARTESIAN_POINT('Ctrl Pts',(-2.65392977283225,-6.43207673613019,121.196797201368));
#604=CARTESIAN_POINT('Ctrl Pts',(0.0516408706103961,-6.91505719984781,121.196797201368));
#605=CARTESIAN_POINT('Ctrl Pts',(2.75405037613672,-6.40170561594574,121.196797201368));
#606=CARTESIAN_POINT('Ctrl Pts',(4.9943673929268,-5.20454980271885,121.196797201368));
#607=CARTESIAN_POINT('Ctrl Pts',(6.06081321373795,-4.25791007898962,121.196797201368));
#608=CARTESIAN_POINT('Ctrl Pts',(6.66167294019715,-3.35623685906484,121.196797201368));
#609=CARTESIAN_POINT('Ctrl Pts',(-6.69564352792591,-1.77646674888467E-15,
123.268835285363));
#610=CARTESIAN_POINT('Ctrl Pts',(-6.69564352792591,-0.559856268219053,123.268835285363));
#611=CARTESIAN_POINT('Ctrl Pts',(-6.48681867832548,-1.66732371519156,123.268835285363));
#612=CARTESIAN_POINT('Ctrl Pts',(-5.55163051857034,-3.37117701746305,123.268835285363));
#613=CARTESIAN_POINT('Ctrl Pts',(-4.31415976978737,-4.43148856161583,123.268835285363));
#614=CARTESIAN_POINT('Ctrl Pts',(-2.35385808976882,-5.44978917283461,123.268835285363));
#615=CARTESIAN_POINT('Ctrl Pts',(0.045042699423115,-5.88262646419624,123.268835285363));
#616=CARTESIAN_POINT('Ctrl Pts',(2.44151147539054,-5.4248882336049,123.268835285363));
#617=CARTESIAN_POINT('Ctrl Pts',(4.39808979821677,-4.37898839100812,123.268835285363));
#618=CARTESIAN_POINT('Ctrl Pts',(5.3180955639182,-3.5612977888989,123.268835285363));
#619=CARTESIAN_POINT('Ctrl Pts',(5.82588844367267,-2.79928425931652,123.268835285363));
#620=CARTESIAN_POINT('Ctrl Pts',(-4.59759790102565,-9.9396801331398E-16,
124.));
#621=CARTESIAN_POINT('Ctrl Pts',(-4.59759790102565,-0.315257136559491,124.));
#622=CARTESIAN_POINT('Ctrl Pts',(-4.48175354410214,-0.941669759471599,124.));
#623=CARTESIAN_POINT('Ctrl Pts',(-3.92075660847282,-1.97879365559962,124.));
#624=CARTESIAN_POINT('Ctrl Pts',(-3.09943924334644,-2.69750636190551,124.));
#625=CARTESIAN_POINT('Ctrl Pts',(-1.72343904650856,-3.412722600431,124.));
#626=CARTESIAN_POINT('Ctrl Pts',(0.0327376274393299,-3.738800499192,124.));
#627=CARTESIAN_POINT('Ctrl Pts',(1.78597020950118,-3.3943295520271,124.));
#628=CARTESIAN_POINT('Ctrl Pts',(3.15578985860067,-2.66062517188219,124.));
#629=CARTESIAN_POINT('Ctrl Pts',(3.76414028676185,-2.10980267870528,124.));
#630=CARTESIAN_POINT('Ctrl Pts',(4.07998043519132,-1.63584080195558,124.));
#631=CARTESIAN_POINT('Ctrl Pts',(-3.7,-6.59194920871187E-16,124.));
#632=CARTESIAN_POINT('Ctrl Pts',(-3.7,-0.211022063948075,124.));
#633=CARTESIAN_POINT('Ctrl Pts',(-3.62415972972407,-0.632095359129614,124.));
#634=CARTESIAN_POINT('Ctrl Pts',(-3.22282854819388,-1.38487944165472,124.));
#635=CARTESIAN_POINT('Ctrl Pts',(-2.57974020547698,-1.95742857694897,124.));
#636=CARTESIAN_POINT('Ctrl Pts',(-1.45325950393322,-2.54316350787148,124.));
#637=CARTESIAN_POINT('Ctrl Pts',(0.0276669713870164,-2.82330310015177,124.));
#638=CARTESIAN_POINT('Ctrl Pts',(1.50516348236878,-2.52690986800064,124.));
#639=CARTESIAN_POINT('Ctrl Pts',(2.62473343449325,-1.92627653342161,124.));
#640=CARTESIAN_POINT('Ctrl Pts',(3.09899591073723,-1.48929941875179,124.));
#641=CARTESIAN_POINT('Ctrl Pts',(3.33303606767912,-1.13808975598233,124.));
#642=CARTESIAN_POINT('',(-1.94956689841647,-2.27697157064724,124.));
#643=CARTESIAN_POINT('',(-1.85,-2.90015214376764,123.964032185351));
#644=CARTESIAN_POINT('Ctrl Pts',(-1.94956689853523,-2.27697157053302,124.));
#645=CARTESIAN_POINT('Ctrl Pts',(-1.88320410465819,-2.479349590013,124.));
#646=CARTESIAN_POINT('Ctrl Pts',(-1.84999999999999,-2.68947815260953,123.990611000689));
#647=CARTESIAN_POINT('Ctrl Pts',(-1.85,-2.90015214376768,123.964032185351));
#648=CARTESIAN_POINT('',(-3.45205007971986,-0.940142982698029,124.));
#649=CARTESIAN_POINT('Ctrl Pts',(-1.85,-2.90015214376768,123.964032185351));
#650=CARTESIAN_POINT('Ctrl Pts',(-1.85,-2.9358615630522,123.959527053722));
#651=CARTESIAN_POINT('Ctrl Pts',(-1.85095628528222,-2.97158789645403,123.954537871586));
#652=CARTESIAN_POINT('Ctrl Pts',(-1.86517243823996,-3.23656903072765,123.913723060824));
#653=CARTESIAN_POINT('Ctrl Pts',(-1.91633186971876,-3.45628452293276,123.858384835394));
#654=CARTESIAN_POINT('Ctrl Pts',(-2.09344152096005,-3.8876947877046,123.698332307728));
#655=CARTESIAN_POINT('Ctrl Pts',(-2.22480991463482,-4.08833610986707,123.591194972381));
#656=CARTESIAN_POINT('Ctrl Pts',(-2.57450010730664,-4.46678091786289,123.316240387178));
#657=CARTESIAN_POINT('Ctrl Pts',(-2.80375812364298,-4.62557019817712,123.141775549977));
#658=CARTESIAN_POINT('Ctrl Pts',(-3.35112628930319,-4.86478072488729,122.736132297456));
#659=CARTESIAN_POINT('Ctrl Pts',(-3.6664649370245,-4.91407736994186,122.508630250438));
#660=CARTESIAN_POINT('Ctrl Pts',(-4.18694034134685,-4.88403073195791,122.169728493645));
#661=CARTESIAN_POINT('Ctrl Pts',(-4.40283447724547,-4.83452882055364,122.041747046688));
#662=CARTESIAN_POINT('Ctrl Pts',(-4.71902524620001,-4.70572019434373,121.898522117785));
#663=CARTESIAN_POINT('Ctrl Pts',(-4.83279010535954,-4.64700287375558,121.856795597726));
#664=CARTESIAN_POINT('Ctrl Pts',(-4.99671400824672,-4.54001194854289,121.819359025571));
#665=CARTESIAN_POINT('Ctrl Pts',(-5.04894182920642,-4.50226562776512,121.811139499187));
#666=CARTESIAN_POINT('Ctrl Pts',(-5.14005422567626,-4.4293446517172,121.804285038802));
#667=CARTESIAN_POINT('Ctrl Pts',(-5.17908712414782,-4.39554494534823,121.804055645489));
#668=CARTESIAN_POINT('Ctrl Pts',(-5.26107884112063,-4.31878922317472,121.809643987142));
#669=CARTESIAN_POINT('Ctrl Pts',(-5.30307012956817,-4.27571141866596,121.816480725544));
#670=CARTESIAN_POINT('Ctrl Pts',(-5.41903248068263,-4.14563907899525,121.846629499887));
#671=CARTESIAN_POINT('Ctrl Pts',(-5.48578835152218,-4.05601243555018,121.878945167873));
#672=CARTESIAN_POINT('Ctrl Pts',(-5.67697763034851,-3.75163478824174,122.013674210783));
#673=CARTESIAN_POINT('Ctrl Pts',(-5.77097385317281,-3.51319575724932,122.157883820939));
#674=CARTESIAN_POINT('Ctrl Pts',(-5.86331638539495,-3.00916245041222,122.485055842018));
#675=CARTESIAN_POINT('Ctrl Pts',(-5.86292301898182,-2.73899275234334,122.670848996605));
#676=CARTESIAN_POINT('Ctrl Pts',(-5.73918488506283,-2.18169778965356,123.054437478837));
#677=CARTESIAN_POINT('Ctrl Pts',(-5.61257268724895,-1.90593045186879,123.244625969305));
#678=CARTESIAN_POINT('Ctrl Pts',(-5.2635701593535,-1.46232363221357,123.551134121262));
#679=CARTESIAN_POINT('Ctrl Pts',(-5.06251927511709,-1.2861675924924,123.67332653359));
#680=CARTESIAN_POINT('Ctrl Pts',(-4.61924776203147,-1.03933130680099,123.851516672527));
#681=CARTESIAN_POINT('Ctrl Pts',(-4.39284080710806,-0.959811769895692,123.912370237799));
#682=CARTESIAN_POINT('Ctrl Pts',(-3.91992076522158,-0.887693443635322,123.98666373037));
#683=CARTESIAN_POINT('Ctrl Pts',(-3.68387673355462,-0.893074134765617,123.999999999265));
#684=CARTESIAN_POINT('Ctrl Pts',(-3.4520500822333,-0.940142995077365,124.));
#685=CARTESIAN_POINT('',(-3.7,-6.59194920871187E-16,124.));
#686=CARTESIAN_POINT('Ctrl Pts',(-3.45189814326771,-0.940061506108987,124.));
#687=CARTESIAN_POINT('Ctrl Pts',(-3.50717735375103,-0.837513846441267,124.));
#688=CARTESIAN_POINT('Ctrl Pts',(-3.64115854825832,-0.537716099820942,124.));
#689=CARTESIAN_POINT('Ctrl Pts',(-3.7,-0.211022063948075,124.));
#690=CARTESIAN_POINT('Ctrl Pts',(-3.7,-6.59194920871187E-16,124.));
#691=CARTESIAN_POINT('',(-7.7,-1.47583618114142E-15,120.));
#692=CARTESIAN_POINT('Origin',(-3.7,-6.59194920871187E-16,120.));
#693=CARTESIAN_POINT('',(6.66167294019715,-3.35623685906484,120.));
#694=CARTESIAN_POINT('Ctrl Pts',(-7.7,-2.15105711021124E-15,120.));
#695=CARTESIAN_POINT('Ctrl Pts',(-7.7,-0.677083064078791,120.));
#696=CARTESIAN_POINT('Ctrl Pts',(-7.44673804142299,-2.01499000056067,120.));
#697=CARTESIAN_POINT('Ctrl Pts',(-6.33228200800218,-4.03831003035026,120.));
#698=CARTESIAN_POINT('Ctrl Pts',(-4.89565585104848,-5.26214236346184,120.));
#699=CARTESIAN_POINT('Ctrl Pts',(-2.65549223726866,-6.42559360607236,120.));
#700=CARTESIAN_POINT('Ctrl Pts',(0.0509967779281027,-6.90945124504291,120.));
#701=CARTESIAN_POINT('Ctrl Pts',(2.75521147196973,-6.39736591628917,120.));
#702=CARTESIAN_POINT('Ctrl Pts',(4.99293323998929,-5.20185284370029,120.));
#703=CARTESIAN_POINT('Ctrl Pts',(6.06188462490256,-4.25630227818001,120.));
#704=CARTESIAN_POINT('Ctrl Pts',(6.66167294019715,-3.35623685906484,120.));
#705=CARTESIAN_POINT('',(3.33303606767949,-1.13808975598257,124.));
#706=CARTESIAN_POINT('Origin',(3.33303606767912,-1.13808975598233,120.));
#707=CARTESIAN_POINT('Ctrl Pts',(3.33303606767912,-1.13808975598233,124.));
#708=CARTESIAN_POINT('Ctrl Pts',(3.09899591073723,-1.48929941875179,124.));
#709=CARTESIAN_POINT('Ctrl Pts',(2.62473343449325,-1.92627653342161,124.));
#710=CARTESIAN_POINT('Ctrl Pts',(1.50516348236878,-2.52690986800064,124.));
#711=CARTESIAN_POINT('Ctrl Pts',(0.0276669713870164,-2.82330310015177,124.));
#712=CARTESIAN_POINT('Ctrl Pts',(-1.28811992221621,-2.57440215196523,124.));
#713=CARTESIAN_POINT('Ctrl Pts',(-1.9075175233597,-2.29630296930926,124.));
#714=CARTESIAN_POINT('Ctrl Pts',(-1.94941445944381,-2.27664735223913,124.));
#715=CARTESIAN_POINT('Ctrl Pts',(6.66167293506222,3.35623686677052,120.));
#716=CARTESIAN_POINT('Ctrl Pts',(6.06188460986484,4.25630229799281,120.));
#717=CARTESIAN_POINT('Ctrl Pts',(4.63580151897461,5.5188483427255,120.));
#718=CARTESIAN_POINT('Ctrl Pts',(1.61125775817832,6.8024224147188,120.));
#719=CARTESIAN_POINT('Ctrl Pts',(-1.5107823899353,6.81847878380741,120.));
#720=CARTESIAN_POINT('Ctrl Pts',(-4.53636658226415,5.56954264210967,120.));
#721=CARTESIAN_POINT('Ctrl Pts',(-6.33175292669271,4.03742832844083,120.));
#722=CARTESIAN_POINT('Ctrl Pts',(-7.44667372737637,2.01519660613154,120.));
#723=CARTESIAN_POINT('Ctrl Pts',(-7.7,0.677083067122537,120.));
#724=CARTESIAN_POINT('Ctrl Pts',(-7.7,1.66533453693773E-15,120.));
#725=CARTESIAN_POINT('Ctrl Pts',(6.66167293506222,3.35623686677052,121.196797201368));
#726=CARTESIAN_POINT('Ctrl Pts',(6.0608131986831,4.2579100988232,121.196797201368));
#727=CARTESIAN_POINT('Ctrl Pts',(4.63631572640421,5.52218903834883,121.196797201368));
#728=CARTESIAN_POINT('Ctrl Pts',(1.60949361450648,6.80765131518596,121.196797201368));
#729=CARTESIAN_POINT('Ctrl Pts',(-1.50887998308552,6.82528888391967,121.196797201368));
#730=CARTESIAN_POINT('Ctrl Pts',(-4.53565985632078,5.57617401426729,121.196797201368));
#731=CARTESIAN_POINT('Ctrl Pts',(-6.33112262772041,4.04346814885978,121.196797201368));
#732=CARTESIAN_POINT('Ctrl Pts',(-7.44727251880779,2.01828425407402,121.196797201368));
#733=CARTESIAN_POINT('Ctrl Pts',(-7.7,0.678448331580536,121.196797201368));
#734=CARTESIAN_POINT('Ctrl Pts',(-7.7,1.66533453693773E-15,121.196797201368));
#735=CARTESIAN_POINT('Ctrl Pts',(5.82588843932394,2.79928426584234,123.268835285363));
#736=CARTESIAN_POINT('Ctrl Pts',(5.31809555113723,3.56129780574739,123.268835285363));
#737=CARTESIAN_POINT('Ctrl Pts',(4.09075873310315,4.65285528781992,123.268835285363));
#738=CARTESIAN_POINT('Ctrl Pts',(1.43330322862012,5.78454949958852,123.268835285363));
#739=CARTESIAN_POINT('Ctrl Pts',(-1.34450638960858,5.79859624052798,123.268835285363));
#740=CARTESIAN_POINT('Ctrl Pts',(-4.00466221786717,4.69751552812457,123.268835285363));
#741=CARTESIAN_POINT('Ctrl Pts',(-5.55124489132769,3.37050293717127,123.268835285363));
#742=CARTESIAN_POINT('Ctrl Pts',(-6.48676804902645,1.66745188089337,123.268835285363));
#743=CARTESIAN_POINT('Ctrl Pts',(-6.69564352792588,0.55985627073582,123.268835285363));
#744=CARTESIAN_POINT('Ctrl Pts',(-6.69564352792588,1.42141523188787E-15,
123.268835285363));
#745=CARTESIAN_POINT('Ctrl Pts',(4.07998043248499,1.6358408060168,124.));
#746=CARTESIAN_POINT('Ctrl Pts',(3.76414027869168,2.10980268936579,124.));
#747=CARTESIAN_POINT('Ctrl Pts',(2.95230014185714,2.84453138066917,124.));
#748=CARTESIAN_POINT('Ctrl Pts',(1.06120258668321,3.65934582493733,124.));
#749=CARTESIAN_POINT('Ctrl Pts',(-0.996773075430486,3.66952026197578,124.));
#750=CARTESIAN_POINT('Ctrl Pts',(-2.89381536739114,2.87726462342597,124.));
#751=CARTESIAN_POINT('Ctrl Pts',(-3.92067655036682,1.97857644152889,124.));
#752=CARTESIAN_POINT('Ctrl Pts',(-4.48170103455835,0.94166820872549,124.));
#753=CARTESIAN_POINT('Ctrl Pts',(-4.59759790102565,0.315257137976692,124.));
#754=CARTESIAN_POINT('Ctrl Pts',(-4.59759790102565,9.11881171516262E-16,
124.));
#755=CARTESIAN_POINT('Ctrl Pts',(3.33303606567545,1.13808975898912,124.));
#756=CARTESIAN_POINT('Ctrl Pts',(3.0989959046773,1.48929942677118,124.));
#757=CARTESIAN_POINT('Ctrl Pts',(2.46539295982197,2.07188890844415,124.));
#758=CARTESIAN_POINT('Ctrl Pts',(0.901477628966398,2.75170208694636,124.));
#759=CARTESIAN_POINT('Ctrl Pts',(-0.847431492072716,2.76069554453704,124.));
#760=CARTESIAN_POINT('Ctrl Pts',(-2.41835389004873,2.10050944958672,124.));
#761=CARTESIAN_POINT('Ctrl Pts',(-3.22288783964656,1.3848915066855,124.));
#762=CARTESIAN_POINT('Ctrl Pts',(-3.62406191804463,0.632088174879003,124.));
#763=CARTESIAN_POINT('Ctrl Pts',(-3.7,0.211022064896699,124.));
#764=CARTESIAN_POINT('Ctrl Pts',(-3.7,6.93889390390723E-16,124.));
#765=CARTESIAN_POINT('',(-3.45205006170824,0.940142999196564,124.));
#766=CARTESIAN_POINT('',(-1.85,2.90015214376762,123.964032185351));
#767=CARTESIAN_POINT('Ctrl Pts',(-3.45205006164077,0.940142999258364,124.));
#768=CARTESIAN_POINT('Ctrl Pts',(-3.69319291462254,0.891182623869968,124.));
#769=CARTESIAN_POINT('Ctrl Pts',(-3.93870181936553,0.887345681345631,123.985495222896));
#770=CARTESIAN_POINT('Ctrl Pts',(-4.40686715294898,0.965378284809091,123.908265524928));
#771=CARTESIAN_POINT('Ctrl Pts',(-4.62107964973284,1.04154919114811,123.850013037748));
#772=CARTESIAN_POINT('Ctrl Pts',(-5.03619620172891,1.27019470522823,123.684750321411));
#773=CARTESIAN_POINT('Ctrl Pts',(-5.22513587897484,1.42869479003177,123.574516710743));
#774=CARTESIAN_POINT('Ctrl Pts',(-5.5649650339455,1.83112752696614,123.296171447994));
#775=CARTESIAN_POINT('Ctrl Pts',(-5.69607919880557,2.08349998009074,123.122299644385));
#776=CARTESIAN_POINT('Ctrl Pts',(-5.86262751502015,2.66166390828738,122.723870260748));
#777=CARTESIAN_POINT('Ctrl Pts',(-5.87044925436689,2.97886845758194,122.504356518482));
#778=CARTESIAN_POINT('Ctrl Pts',(-5.77270778179975,3.4967775097049,122.168833493731));
#779=CARTESIAN_POINT('Ctrl Pts',(-5.69216896746739,3.71017323696497,122.039407004588));
#780=CARTESIAN_POINT('Ctrl Pts',(-5.52026543167669,4.00675496184309,121.898358286183));
#781=CARTESIAN_POINT('Ctrl Pts',(-5.44905645772224,4.10812748940014,121.858293909817));
#782=CARTESIAN_POINT('Ctrl Pts',(-5.32478900442296,4.2525594244529,121.820911332227));
#783=CARTESIAN_POINT('Ctrl Pts',(-5.28095506752052,4.29890601728706,121.812339110601));
#784=CARTESIAN_POINT('Ctrl Pts',(-5.19724822772849,4.37920116129603,121.804603036774));
#785=CARTESIAN_POINT('Ctrl Pts',(-5.15865776404332,4.41345512494455,121.803941318157));
#786=CARTESIAN_POINT('Ctrl Pts',(-5.07146049107713,4.48500838907055,121.808637482347));
#787=CARTESIAN_POINT('Ctrl Pts',(-5.02284469209276,4.52128585734628,121.815088541871));
#788=CARTESIAN_POINT('Ctrl Pts',(-4.87539444385486,4.62133126191475,121.844894721554));
#789=CARTESIAN_POINT('Ctrl Pts',(-4.77488460272489,4.67696130692219,121.878118136055));
#790=CARTESIAN_POINT('Ctrl Pts',(-4.44526322160445,4.82581598141706,122.015501885058));
#791=CARTESIAN_POINT('Ctrl Pts',(-4.19839055560857,4.88578883458231,122.161433784078));
#792=CARTESIAN_POINT('Ctrl Pts',(-3.68990069227796,4.91008213903886,122.494287115284));
#793=CARTESIAN_POINT('Ctrl Pts',(-3.42235982421071,4.87364491992534,122.685412018312));
#794=CARTESIAN_POINT('Ctrl Pts',(-2.88478575135297,4.67635300515932,123.080284188878));
#795=CARTESIAN_POINT('Ctrl Pts',(-2.62528943357847,4.51207641196144,123.27698250031));
#796=CARTESIAN_POINT('Ctrl Pts',(-2.23498747503559,4.10603102681171,123.582725179174));
#797=CARTESIAN_POINT('Ctrl Pts',(-2.09056578423476,3.88841016042072,123.700156794396));
#798=CARTESIAN_POINT('Ctrl Pts',(-1.90530521017754,3.42209771307963,123.869084336544));
#799=CARTESIAN_POINT('Ctrl Pts',(-1.85595187407067,3.1881695675702,123.924658870093));
#800=CARTESIAN_POINT('Ctrl Pts',(-1.85016720782143,2.93001939767259,123.960179879019));
#801=CARTESIAN_POINT('Ctrl Pts',(-1.85,2.91508356685022,123.96214842393));
#802=CARTESIAN_POINT('Ctrl Pts',(-1.85,2.90015214376762,123.964032185351));
#803=CARTESIAN_POINT('',(-1.94956689843117,2.2769715706331,124.));
#804=CARTESIAN_POINT('Ctrl Pts',(-1.85,2.90015214376762,123.964032185351));
#805=CARTESIAN_POINT('Ctrl Pts',(-1.85,2.68919966909105,123.990646134414));
#806=CARTESIAN_POINT('Ctrl Pts',(-1.88329106609068,2.47908439499255,124.));
#807=CARTESIAN_POINT('Ctrl Pts',(-1.94956689853523,2.27697157053302,124.));
#808=CARTESIAN_POINT('',(3.33303606521085,1.13808975867953,124.));
#809=CARTESIAN_POINT('Ctrl Pts',(-1.94947059655826,2.27676672527756,124.));
#810=CARTESIAN_POINT('Ctrl Pts',(-1.71671717446346,2.38592556275543,124.));
#811=CARTESIAN_POINT('Ctrl Pts',(-0.676737165202327,2.75981777897952,124.));
#812=CARTESIAN_POINT('Ctrl Pts',(0.901477628966398,2.75170208694636,124.));
#813=CARTESIAN_POINT('Ctrl Pts',(2.46539295982197,2.07188890844415,124.));
#814=CARTESIAN_POINT('Ctrl Pts',(3.0989959046773,1.48929942677118,124.));
#815=CARTESIAN_POINT('Ctrl Pts',(3.33303606567545,1.13808975898912,124.));
#816=CARTESIAN_POINT('',(6.66167293506222,3.35623686677053,120.));
#817=CARTESIAN_POINT('Origin',(3.33303606567544,1.13808975898912,120.));
#818=CARTESIAN_POINT('Ctrl Pts',(6.66167293506222,3.35623686677052,120.));
#819=CARTESIAN_POINT('Ctrl Pts',(6.06188460986484,4.25630229799281,120.));
#820=CARTESIAN_POINT('Ctrl Pts',(4.63580151897461,5.5188483427255,120.));
#821=CARTESIAN_POINT('Ctrl Pts',(1.61125775817832,6.8024224147188,120.));
#822=CARTESIAN_POINT('Ctrl Pts',(-1.5107823899353,6.81847878380741,120.));
#823=CARTESIAN_POINT('Ctrl Pts',(-4.53636658226415,5.56954264210967,120.));
#824=CARTESIAN_POINT('Ctrl Pts',(-6.33175292669271,4.03742832844083,120.));
#825=CARTESIAN_POINT('Ctrl Pts',(-7.44667372737637,2.01519660613154,120.));
#826=CARTESIAN_POINT('Ctrl Pts',(-7.7,0.677083067122537,120.));
#827=CARTESIAN_POINT('Ctrl Pts',(-7.7,1.66533453693773E-15,120.));
#828=CARTESIAN_POINT('Ctrl Pts',(-3.7,6.93889390390723E-16,124.));
#829=CARTESIAN_POINT('Ctrl Pts',(-3.7,0.211022064896699,124.));
#830=CARTESIAN_POINT('Ctrl Pts',(-3.64108375694132,0.537704444023289,124.));
#831=CARTESIAN_POINT('Ctrl Pts',(-3.50713672839438,0.83750165381712,124.));
#832=CARTESIAN_POINT('Ctrl Pts',(-3.45186825403378,0.940045520770214,124.));
#833=CARTESIAN_POINT('Ctrl Pts',(6.66167294019715,-3.35623685906485,120.));
#834=CARTESIAN_POINT('Ctrl Pts',(6.99009509206235,-2.86339394394393,120.));
#835=CARTESIAN_POINT('Ctrl Pts',(7.50180609573445,-1.84617867798543,120.));
#836=CARTESIAN_POINT('Ctrl Pts',(7.69996841272387,-0.556451634667973,120.));
#837=CARTESIAN_POINT('Ctrl Pts',(7.6999999906318,-0.000329968678842996,
120.));
#838=CARTESIAN_POINT('Ctrl Pts',(6.66167294019715,-3.35623685906485,121.196797201368));
#839=CARTESIAN_POINT('Ctrl Pts',(6.99068175764292,-2.86251357100535,121.196797201368));
#840=CARTESIAN_POINT('Ctrl Pts',(7.502085409225,-1.84761262923411,121.196797201368));
#841=CARTESIAN_POINT('Ctrl Pts',(7.69996834905045,-0.557572993598394,121.196797201368));
#842=CARTESIAN_POINT('Ctrl Pts',(7.6999999906318,-0.000329968678842996,
121.196797201368));
#843=CARTESIAN_POINT('Ctrl Pts',(5.82588298258537,-2.79928062014065,123.268830343681));
#844=CARTESIAN_POINT('Ctrl Pts',(6.10393179750581,-2.38202987224483,123.268830343681));
#845=CARTESIAN_POINT('Ctrl Pts',(6.53219465719431,-1.52742425779963,123.268830343681));
#846=CARTESIAN_POINT('Ctrl Pts',(6.69561084695994,-0.460110463964106,123.268830343681));
#847=CARTESIAN_POINT('Ctrl Pts',(6.69563695762587,-0.000272938562374789,
123.268830343681));
#848=CARTESIAN_POINT('Ctrl Pts',(4.07998043519132,-1.63584080195558,124.));
#849=CARTESIAN_POINT('Ctrl Pts',(4.25292295265547,-1.3763166073441,124.));
#850=CARTESIAN_POINT('Ctrl Pts',(4.50680612070588,-0.861863060268021,124.));
#851=CARTESIAN_POINT('Ctrl Pts',(4.59758319364626,-0.259090019555467,124.));
#852=CARTESIAN_POINT('Ctrl Pts',(4.59759789665889,-0.000153806925636135,
124.));
#853=CARTESIAN_POINT('Ctrl Pts',(3.33303606767912,-1.13808975598233,124.));
#854=CARTESIAN_POINT('Ctrl Pts',(3.46118790059365,-0.945780185653425,124.));
#855=CARTESIAN_POINT('Ctrl Pts',(3.64037417827793,-0.57754970172472,124.));
#856=CARTESIAN_POINT('Ctrl Pts',(3.69999015539957,-0.173425653345324,124.));
#857=CARTESIAN_POINT('Ctrl Pts',(3.69999999708027,-0.000102839186808291,
124.));
#858=CARTESIAN_POINT('',(5.1000035223831,-9.44297130711306E-5,123.747008281113));
#859=CARTESIAN_POINT('Ctrl Pts',(5.09999998670165,-0.000182334508559388,
123.746998802074));
#860=CARTESIAN_POINT('Ctrl Pts',(5.09998343926472,-0.113623811326439,123.747002577987));
#861=CARTESIAN_POINT('Ctrl Pts',(5.08452818141041,-0.226584104679015,123.750551205726));
#862=CARTESIAN_POINT('Ctrl Pts',(5.00970993152696,-0.494696037446812,123.767408386052));
#863=CARTESIAN_POINT('Ctrl Pts',(4.93465769885768,-0.642513753341319,123.784215705148));
#864=CARTESIAN_POINT('Ctrl Pts',(4.74127532671238,-0.889114994864807,123.824919411371));
#865=CARTESIAN_POINT('Ctrl Pts',(4.62871764138258,-0.989103125458084,123.847740777439));
#866=CARTESIAN_POINT('Ctrl Pts',(4.37021548415333,-1.14696687713503,123.895332973558));
#867=CARTESIAN_POINT('Ctrl Pts',(4.22510149033379,-1.20232302809151,123.919800885558));
#868=CARTESIAN_POINT('Ctrl Pts',(3.94736932512078,-1.25276459172975,123.95853861616));
#869=CARTESIAN_POINT('Ctrl Pts',(3.81822376336443,-1.25621812355693,123.973610235996));
#870=CARTESIAN_POINT('Ctrl Pts',(3.56711508871746,-1.22390449412206,123.994268412994));
#871=CARTESIAN_POINT('Ctrl Pts',(3.44665284405355,-1.18969884497283,124.));
#872=CARTESIAN_POINT('Ctrl Pts',(3.33303606767795,-1.1380897559849,124.));
#873=CARTESIAN_POINT('',(7.6999999906318,-0.00032996867884369,120.));
#874=CARTESIAN_POINT('Ctrl Pts',(6.66167294019715,-3.35623685906485,120.));
#875=CARTESIAN_POINT('Ctrl Pts',(6.99009509206235,-2.86339394394393,120.));
#876=CARTESIAN_POINT('Ctrl Pts',(7.50180609573445,-1.84617867798543,120.));
#877=CARTESIAN_POINT('Ctrl Pts',(7.69996841272387,-0.556451634667973,120.));
#878=CARTESIAN_POINT('Ctrl Pts',(7.6999999906318,-0.000329968678842996,
120.));
#879=CARTESIAN_POINT('Origin',(3.69999999708027,-0.000102839186808014,120.));
#880=CARTESIAN_POINT('Ctrl Pts',(7.6999999906318,-0.000329968678844036,
120.));
#881=CARTESIAN_POINT('Ctrl Pts',(7.7000315741654,0.555890771681217,120.));
#882=CARTESIAN_POINT('Ctrl Pts',(7.50191664326721,1.84595823005412,120.));
#883=CARTESIAN_POINT('Ctrl Pts',(6.99015359652538,2.86330615140402,120.));
#884=CARTESIAN_POINT('Ctrl Pts',(6.66167293506222,3.35623686677053,120.));
#885=CARTESIAN_POINT('Ctrl Pts',(7.6999999906318,-0.000329968678844036,
121.196797201368));
#886=CARTESIAN_POINT('Ctrl Pts',(7.70003163785017,0.557012330384347,121.196797201368));
#887=CARTESIAN_POINT('Ctrl Pts',(7.50219617210593,1.84739262499275,121.196797201368));
#888=CARTESIAN_POINT('Ctrl Pts',(6.99074036662225,2.86242562162696,121.196797201368));
#889=CARTESIAN_POINT('Ctrl Pts',(6.66167293506222,3.35623686677053,121.196797201368));
#890=CARTESIAN_POINT('Ctrl Pts',(6.69563695762596,-0.000272938562375547,
123.268830343681));
#891=CARTESIAN_POINT('Ctrl Pts',(6.69566307294357,0.459646507966233,123.268830343681));
#892=CARTESIAN_POINT('Ctrl Pts',(6.53228649468366,1.52723951400662,123.268830343681));
#893=CARTESIAN_POINT('Ctrl Pts',(6.10398132858887,2.38195554527298,123.268830343681));
#894=CARTESIAN_POINT('Ctrl Pts',(5.82588297823674,2.79928062666653,123.268830343681));
#895=CARTESIAN_POINT('Ctrl Pts',(4.59759789665889,-0.000153806925636288,
124.));
#896=CARTESIAN_POINT('Ctrl Pts',(4.5976126022909,0.25882853579397,124.));
#897=CARTESIAN_POINT('Ctrl Pts',(4.50685891830203,0.861752990365874,124.));
#898=CARTESIAN_POINT('Ctrl Pts',(4.25295376036781,1.37627037689987,124.));
#899=CARTESIAN_POINT('Ctrl Pts',(4.07998043248499,1.6358408060168,124.));
#900=CARTESIAN_POINT('Ctrl Pts',(3.69999999708027,-0.000102839186808187,
124.));
#901=CARTESIAN_POINT('Ctrl Pts',(3.70000984051429,0.173250852835008,124.));
#902=CARTESIAN_POINT('Ctrl Pts',(3.64041033838856,0.577471712921447,124.));
#903=CARTESIAN_POINT('Ctrl Pts',(3.46121072940922,0.945745928442991,124.));
#904=CARTESIAN_POINT('Ctrl Pts',(3.33303606567544,1.13808975898912,124.));
#905=CARTESIAN_POINT('Ctrl Pts',(7.6999999906318,-0.000329968678844036,
120.));
#906=CARTESIAN_POINT('Ctrl Pts',(7.7000315741654,0.555890771681217,120.));
#907=CARTESIAN_POINT('Ctrl Pts',(7.50191664326721,1.84595823005412,120.));
#908=CARTESIAN_POINT('Ctrl Pts',(6.99015359652538,2.86330615140402,120.));
#909=CARTESIAN_POINT('Ctrl Pts',(6.66167293506222,3.35623686677053,120.));
#910=CARTESIAN_POINT('Ctrl Pts',(3.33303606714906,1.13808975574497,124.));
#911=CARTESIAN_POINT('Ctrl Pts',(3.43268159642601,1.18335256954853,124.000000000015));
#912=CARTESIAN_POINT('Ctrl Pts',(3.53766900242039,1.21526215064739,123.995597235746));
#913=CARTESIAN_POINT('Ctrl Pts',(3.78069870215767,1.25559687471795,123.977647692659));
#914=CARTESIAN_POINT('Ctrl Pts',(3.9183857977593,1.25555394921819,123.962212490181));
#915=CARTESIAN_POINT('Ctrl Pts',(4.20369695112021,1.2086125245086,123.923144487322));
#916=CARTESIAN_POINT('Ctrl Pts',(4.34840654053116,1.1564167103408,123.899075858138));
#917=CARTESIAN_POINT('Ctrl Pts',(4.6194309642501,0.998269097426494,123.849696846678));
#918=CARTESIAN_POINT('Ctrl Pts',(4.74208123612567,0.890487217747738,123.824799173551));
#919=CARTESIAN_POINT('Ctrl Pts',(4.92388950634616,0.654062107113297,123.786437269171));
#920=CARTESIAN_POINT('Ctrl Pts',(4.98891654569159,0.533020264214651,123.772020629816));
#921=CARTESIAN_POINT('Ctrl Pts',(5.07734618083469,0.273701957039325,123.752214370454));
#922=CARTESIAN_POINT('Ctrl Pts',(5.1,0.137432298660831,123.746998799039));
#923=CARTESIAN_POINT('Ctrl Pts',(5.1,1.53245471867791E-13,123.746998799039));
#924=CARTESIAN_POINT('Ctrl Pts',(-7.7,-8.00615252071601E-16,114.));
#925=CARTESIAN_POINT('Ctrl Pts',(-7.7,-8.00615252071601E-16,124.));
#926=CARTESIAN_POINT('Ctrl Pts',(-7.7,-1.78001287090254,114.));
#927=CARTESIAN_POINT('Ctrl Pts',(-7.7,-1.78001287090254,124.));
#928=CARTESIAN_POINT('Ctrl Pts',(-6.84607881136318,-3.56650036020139,114.));
#929=CARTESIAN_POINT('Ctrl Pts',(-6.84607881136318,-3.56650036020139,124.));
#930=CARTESIAN_POINT('Ctrl Pts',(-5.32777302597771,-4.83382139191761,114.));
#931=CARTESIAN_POINT('Ctrl Pts',(-5.32777302597771,-4.83382139191761,124.));
#932=CARTESIAN_POINT('Ctrl Pts',(-3.86619015652201,-6.05379613474394,114.));
#933=CARTESIAN_POINT('Ctrl Pts',(-3.86619015652201,-6.05379613474394,124.));
#934=CARTESIAN_POINT('Ctrl Pts',(-1.80063257585038,-6.75544709441683,114.));
#935=CARTESIAN_POINT('Ctrl Pts',(-1.80063257585038,-6.75544709441683,124.));
#936=CARTESIAN_POINT('Ctrl Pts',(0.25372222563815,-6.69635170911291,114.));
#937=CARTESIAN_POINT('Ctrl Pts',(0.25372222563815,-6.69635170911291,124.));
#938=CARTESIAN_POINT('Ctrl Pts',(2.28359922180622,-6.63796045015355,114.));
#939=CARTESIAN_POINT('Ctrl Pts',(2.28359922180622,-6.63796045015355,124.));
#940=CARTESIAN_POINT('Ctrl Pts',(4.26612926844591,-5.838812369512,114.));
#941=CARTESIAN_POINT('Ctrl Pts',(4.26612926844591,-5.838812369512,124.));
#942=CARTESIAN_POINT('Ctrl Pts',(5.62771631224158,-4.569212329079,114.));
#943=CARTESIAN_POINT('Ctrl Pts',(5.62771631224158,-4.569212329079,124.));
#944=CARTESIAN_POINT('Ctrl Pts',(6.96223091515441,-3.3248557515565,114.));
#945=CARTESIAN_POINT('Ctrl Pts',(6.96223091515441,-3.3248557515565,124.));
#946=CARTESIAN_POINT('Ctrl Pts',(7.69990568186967,-1.66121092480128,114.));
#947=CARTESIAN_POINT('Ctrl Pts',(7.69990568186967,-1.66121092480128,124.));
#948=CARTESIAN_POINT('Ctrl Pts',(7.6999999906318,-0.000329968678843958,
114.));
#949=CARTESIAN_POINT('Ctrl Pts',(7.6999999906318,-0.000329968678843958,
124.));
#950=CARTESIAN_POINT('',(-7.7,-8.00615252071601E-16,114.));
#951=CARTESIAN_POINT('',(7.6999999906318,-0.000329968678843958,114.));
#952=CARTESIAN_POINT('Origin',(3.85,1.53240308345106E-13,114.));
#953=CARTESIAN_POINT('',(5.1,1.53087227495213E-13,100.100001400709));
#954=CARTESIAN_POINT('',(5.1,1.53087227495213E-13,114.));
#955=CARTESIAN_POINT('Origin',(3.85,1.53240308345106E-13,98.8500014007092));
#956=CARTESIAN_POINT('Origin',(3.85,1.53240308345106E-13,124.));
#957=CARTESIAN_POINT('Origin',(-0.700017221394073,-5.92241599943128E-5,
124.));
#958=CARTESIAN_POINT('Origin',(-3.85,2.90015214376762,124.));
#959=CARTESIAN_POINT('Origin',(-3.85,-2.90015214376762,124.));
#960=CARTESIAN_POINT('Ctrl Pts',(7.6999999906318,-0.000329968678843958,
114.));
#961=CARTESIAN_POINT('Ctrl Pts',(7.6999999906318,-0.000329968678843958,
124.));
#962=CARTESIAN_POINT('Ctrl Pts',(7.70001407100282,0.247640840791153,114.));
#963=CARTESIAN_POINT('Ctrl Pts',(7.70001407100282,0.247640840791153,124.));
#964=CARTESIAN_POINT('Ctrl Pts',(7.68415272333605,0.495453172185292,114.));
#965=CARTESIAN_POINT('Ctrl Pts',(7.68415272333605,0.495453172185292,124.));
#966=CARTESIAN_POINT('Ctrl Pts',(7.65249706963777,0.741897838322965,114.));
#967=CARTESIAN_POINT('Ctrl Pts',(7.65249706963777,0.741897838322965,124.));
#968=CARTESIAN_POINT('Ctrl Pts',(7.42887990162367,2.48279565200101,114.));
#969=CARTESIAN_POINT('Ctrl Pts',(7.42887990162367,2.48279565200101,124.));
#970=CARTESIAN_POINT('Ctrl Pts',(6.37713566852699,4.16172451278478,114.));
#971=CARTESIAN_POINT('Ctrl Pts',(6.37713566852699,4.16172451278478,124.));
#972=CARTESIAN_POINT('Ctrl Pts',(4.74318287276525,5.27500273882715,114.));
#973=CARTESIAN_POINT('Ctrl Pts',(4.74318287276525,5.27500273882715,124.));
#974=CARTESIAN_POINT('Ctrl Pts',(3.17028186317082,6.34668390993784,114.));
#975=CARTESIAN_POINT('Ctrl Pts',(3.17028186317082,6.34668390993784,124.));
#976=CARTESIAN_POINT('Ctrl Pts',(1.0712207109805,6.86373397908453,114.));
#977=CARTESIAN_POINT('Ctrl Pts',(1.0712207109805,6.86373397908453,124.));
#978=CARTESIAN_POINT('Ctrl Pts',(-0.93205795945765,6.65059964203149,114.));
#979=CARTESIAN_POINT('Ctrl Pts',(-0.93205795945765,6.65059964203149,124.));
#980=CARTESIAN_POINT('Ctrl Pts',(-2.90618877481092,6.44056642558723,114.));
#981=CARTESIAN_POINT('Ctrl Pts',(-2.90618877481092,6.44056642558723,124.));
#982=CARTESIAN_POINT('Ctrl Pts',(-4.76385696113225,5.52732718574789,114.));
#983=CARTESIAN_POINT('Ctrl Pts',(-4.76385696113225,5.52732718574789,124.));
#984=CARTESIAN_POINT('Ctrl Pts',(-5.98959891422666,4.20661620024861,114.));
#985=CARTESIAN_POINT('Ctrl Pts',(-5.98959891422666,4.20661620024861,124.));
#986=CARTESIAN_POINT('Ctrl Pts',(-7.09935827188623,3.01087400408612,114.));
#987=CARTESIAN_POINT('Ctrl Pts',(-7.09935827188623,3.01087400408612,124.));
#988=CARTESIAN_POINT('Ctrl Pts',(-7.7,1.50314768654669,114.));
#989=CARTESIAN_POINT('Ctrl Pts',(-7.7,1.50314768654669,124.));
#990=CARTESIAN_POINT('Ctrl Pts',(-7.7,8.00615252071602E-16,114.));
#991=CARTESIAN_POINT('Ctrl Pts',(-7.7,8.00615252071602E-16,124.));
#992=CARTESIAN_POINT('Origin',(-3.85,-2.90015214376762,114.));
#993=CARTESIAN_POINT('',(-1.85,-2.90015214376762,94.));
#994=CARTESIAN_POINT('',(-1.85,-2.90015214376762,114.));
#995=CARTESIAN_POINT('Origin',(-3.85,-2.90015214376762,94.));
#996=CARTESIAN_POINT('Origin',(-3.85,2.90015214376762,114.));
#997=CARTESIAN_POINT('',(-1.85,2.90015214376762,94.));
#998=CARTESIAN_POINT('',(-1.85,2.90015214376762,114.));
#999=CARTESIAN_POINT('Origin',(-3.85,2.90015214376762,94.));
#1000=CARTESIAN_POINT('Origin',(1.23259516440783E-31,0.,95.0000014007092));
#1001=CARTESIAN_POINT('Origin',(-0.727291660606539,-6.19192354991962E-5,
94.));
#1002=CARTESIAN_POINT('',(0.,0.,0.));
#1003=UNCERTAINTY_MEASURE_WITH_UNIT(LENGTH_MEASURE(0.01),#1009,
'DISTANCE_ACCURACY_VALUE',
'Maximum model space distance between geometric entities at asserted c
onnectivities');
#1004=UNCERTAINTY_MEASURE_WITH_UNIT(LENGTH_MEASURE(0.01),#1009,
'DISTANCE_ACCURACY_VALUE',
'Maximum model space distance between geometric entities at asserted c
onnectivities');
#1005=UNCERTAINTY_MEASURE_WITH_UNIT(LENGTH_MEASURE(0.01),#1009,
'DISTANCE_ACCURACY_VALUE',
'Maximum model space distance between geometric entities at asserted c
onnectivities');
#1006=(
GEOMETRIC_REPRESENTATION_CONTEXT(3)
GLOBAL_UNCERTAINTY_ASSIGNED_CONTEXT((#1003))
GLOBAL_UNIT_ASSIGNED_CONTEXT((#1009,#1011,#1012))
REPRESENTATION_CONTEXT('','3D')
);
#1007=(
GEOMETRIC_REPRESENTATION_CONTEXT(3)
GLOBAL_UNCERTAINTY_ASSIGNED_CONTEXT((#1004))
GLOBAL_UNIT_ASSIGNED_CONTEXT((#1009,#1011,#1012))
REPRESENTATION_CONTEXT('','3D')
);
#1008=(
GEOMETRIC_REPRESENTATION_CONTEXT(3)
GLOBAL_UNCERTAINTY_ASSIGNED_CONTEXT((#1005))
GLOBAL_UNIT_ASSIGNED_CONTEXT((#1009,#1011,#1012))
REPRESENTATION_CONTEXT('','3D')
);
#1009=(
LENGTH_UNIT()
NAMED_UNIT(*)
SI_UNIT(.MILLI.,.METRE.)
);
#1010=(
LENGTH_UNIT()
NAMED_UNIT(*)
SI_UNIT($,.METRE.)
);
#1011=(
NAMED_UNIT(*)
PLANE_ANGLE_UNIT()
SI_UNIT($,.RADIAN.)
);
#1012=(
NAMED_UNIT(*)
SI_UNIT($,.STERADIAN.)
SOLID_ANGLE_UNIT()
);
#1013=SHAPE_DEFINITION_REPRESENTATION(#1015,#1018);
#1014=SHAPE_DEFINITION_REPRESENTATION(#1016,#1019);
#1015=PRODUCT_DEFINITION_SHAPE('',$,#1021);
#1016=PRODUCT_DEFINITION_SHAPE('',$,#1022);
#1017=PRODUCT_DEFINITION_SHAPE($,$,#14);
#1018=SHAPE_REPRESENTATION('',(#282,#301),#1006);
#1019=SHAPE_REPRESENTATION('',(#283),#1007);
#1020=PRODUCT_DEFINITION_CONTEXT('part definition',#1028,'design');
#1021=PRODUCT_DEFINITION('2025-12-07-22-56-40-952','Middle Finger',#1023,
#1020);
#1022=PRODUCT_DEFINITION('2025-12-07-23-08-42-847','Distal phalanx',#1024,
#1020);
#1023=PRODUCT_DEFINITION_FORMATION('',$,#1030);
#1024=PRODUCT_DEFINITION_FORMATION('',$,#1031);
#1025=PRODUCT_RELATED_PRODUCT_CATEGORY('Middle Finger','Middle Finger',
(#1030));
#1026=PRODUCT_RELATED_PRODUCT_CATEGORY('Distal phalanx',
'Distal phalanx',(#1031));
#1027=APPLICATION_PROTOCOL_DEFINITION('international standard',
'automotive_design',2009,#1028);
#1028=APPLICATION_CONTEXT(
'Core Data for Automotive Mechanical Design Process');
#1029=PRODUCT_CONTEXT('part definition',#1028,'mechanical');
#1030=PRODUCT('2025-12-07-22-56-40-952','Middle Finger',$,(#1029));
#1031=PRODUCT('2025-12-07-23-08-42-847','Distal phalanx',$,(#1029));
#1032=PRESENTATION_STYLE_ASSIGNMENT((#1033));
#1033=SURFACE_STYLE_USAGE(.BOTH.,#1034);
#1034=SURFACE_SIDE_STYLE('',(#1035));
#1035=SURFACE_STYLE_FILL_AREA(#1036);
#1036=FILL_AREA_STYLE('Steel - Satin',(#1037));
#1037=FILL_AREA_STYLE_COLOUR('Steel - Satin',#1038);
#1038=COLOUR_RGB('Steel - Satin',0.627450980392157,0.627450980392157,0.627450980392157);
ENDSEC;
END-ISO-10303-21;
