ISO-10303-21;
HEADER;
/* Generated by software containing ST-Developer
 * from STEP Tools, Inc. (www.steptools.com) 
 */

FILE_DESCRIPTION(
/* description */ (''),
/* implementation_level */ '2;1');

FILE_NAME(
/* name */ 'Pinky distal phalanx.step',
/* time_stamp */ '2026-01-04T20:38:22Z',
/* author */ (''),
/* organization */ (''),
/* preprocessor_version */ 'ST-DEVELOPER v20.1',
/* originating_system */ 'Autodesk Translation Framework v14.21.0.0',
/* authorisation */ '');

FILE_SCHEMA (('AUTOMOTIVE_DESIGN { 1 0 10303 214 3 1 1 }'));
ENDSEC;

DATA;
#10=MECHANICAL_DESIGN_GEOMETRIC_PRESENTATION_REPRESENTATION('',(#17),#997);
#11=ITEM_DEFINED_TRANSFORMATION($,$,#283,#301);
#12=(
REPRESENTATION_RELATIONSHIP($,$,#1008,#1007)
REPRESENTATION_RELATIONSHIP_WITH_TRANSFORMATION(#11)
SHAPE_REPRESENTATION_RELATIONSHIP()
);
#13=CONTEXT_DEPENDENT_SHAPE_REPRESENTATION(#12,#1006);
#14=NEXT_ASSEMBLY_USAGE_OCCURRENCE('Distal phalanx:1',
'Distal phalanx:1','Distal phalanx:1',#1010,#1011,'Distal phalanx:1');
#15=SHAPE_REPRESENTATION_RELATIONSHIP('SRR','None',#1008,#16);
#16=ADVANCED_BREP_SHAPE_REPRESENTATION('',(#18),#996);
#17=STYLED_ITEM('',(#1021),#18);
#18=MANIFOLD_SOLID_BREP('Body1',#269);
#19=FACE_BOUND('',#73,.T.);
#20=FACE_BOUND('',#75,.T.);
#21=FACE_BOUND('',#76,.T.);
#22=PLANE('',#291);
#23=PLANE('',#299);
#24=PLANE('',#300);
#25=ELLIPSE('',#289,1.76776695296637,1.25);
#26=CYLINDRICAL_SURFACE('',#288,1.25);
#27=CYLINDRICAL_SURFACE('',#294,2.);
#28=CYLINDRICAL_SURFACE('',#296,2.);
#29=CYLINDRICAL_SURFACE('',#298,1.);
#30=LINE('',#716,#38);
#31=LINE('',#731,#39);
#32=LINE('',#734,#40);
#33=LINE('',#790,#41);
#34=LINE('',#794,#42);
#35=LINE('',#831,#43);
#36=LINE('',#870,#44);
#37=LINE('',#975,#45);
#38=VECTOR('',#314,10.);
#39=VECTOR('',#315,10.);
#40=VECTOR('',#318,1.25);
#41=VECTOR('',#331,2.);
#42=VECTOR('',#336,2.);
#43=VECTOR('',#341,10.);
#44=VECTOR('',#342,10.);
#45=VECTOR('',#343,20.0022498734517);
#46=FACE_OUTER_BOUND('',#60,.T.);
#47=FACE_OUTER_BOUND('',#61,.T.);
#48=FACE_OUTER_BOUND('',#62,.T.);
#49=FACE_OUTER_BOUND('',#63,.T.);
#50=FACE_OUTER_BOUND('',#64,.T.);
#51=FACE_OUTER_BOUND('',#65,.T.);
#52=FACE_OUTER_BOUND('',#66,.T.);
#53=FACE_OUTER_BOUND('',#67,.T.);
#54=FACE_OUTER_BOUND('',#68,.T.);
#55=FACE_OUTER_BOUND('',#69,.T.);
#56=FACE_OUTER_BOUND('',#70,.T.);
#57=FACE_OUTER_BOUND('',#71,.T.);
#58=FACE_OUTER_BOUND('',#72,.T.);
#59=FACE_OUTER_BOUND('',#74,.T.);
#60=EDGE_LOOP('',(#170,#171,#172,#173,#174,#175,#176));
#61=EDGE_LOOP('',(#177,#178,#179,#180,#181,#182,#183));
#62=EDGE_LOOP('',(#184,#185,#186,#187));
#63=EDGE_LOOP('',(#188,#189,#190,#191));
#64=EDGE_LOOP('',(#192,#193,#194,#195,#196));
#65=EDGE_LOOP('',(#197,#198,#199,#200,#201,#202));
#66=EDGE_LOOP('',(#203,#204,#205,#206,#207,#208,#209));
#67=EDGE_LOOP('',(#210,#211,#212,#213,#214));
#68=EDGE_LOOP('',(#215,#216,#217,#218,#219,#220));
#69=EDGE_LOOP('',(#221,#222,#223,#224,#225,#226));
#70=EDGE_LOOP('',(#227,#228,#229,#230));
#71=EDGE_LOOP('',(#231,#232,#233,#234,#235,#236,#237,#238,#239));
#72=EDGE_LOOP('',(#240,#241));
#73=EDGE_LOOP('',(#242));
#74=EDGE_LOOP('',(#243,#244,#245));
#75=EDGE_LOOP('',(#246));
#76=EDGE_LOOP('',(#247));
#77=CIRCLE('',#284,4.);
#78=CIRCLE('',#285,4.);
#79=CIRCLE('',#286,4.);
#80=CIRCLE('',#287,4.);
#81=CIRCLE('',#290,1.25);
#82=CIRCLE('',#292,2.);
#83=CIRCLE('',#293,2.);
#84=CIRCLE('',#295,2.);
#85=CIRCLE('',#297,2.);
#86=B_SPLINE_CURVE_WITH_KNOTS('',3,(#409,#410,#411,#412),.UNSPECIFIED.,
 .F.,.F.,(4,4),(0.,0.0638942836737573),.UNSPECIFIED.);
#87=B_SPLINE_CURVE_WITH_KNOTS('',3,(#414,#415,#416,#417,#418,#419,#420,
#421,#422,#423,#424,#425,#426,#427,#428,#429,#430,#431,#432,#433,#434,#435,
#436,#437,#438,#439,#440,#441,#442,#443,#444,#445,#446,#447,#448,#449),
 .UNSPECIFIED.,.F.,.F.,(4,2,2,2,2,2,2,2,2,2,2,2,2,2,2,2,2,4),(0.0638942836737573,
0.0747244186558924,0.144258888501084,0.222189361854766,0.318642859805478,
0.437379809174218,0.525467939036411,0.575462548648131,0.599735985184331,
0.619021518223469,0.641636929949812,0.684922641045762,0.784766388953728,
0.884126950028071,0.988082244937241,1.07435855345597,1.14776163619455,1.21819935203211),
 .UNSPECIFIED.);
#88=B_SPLINE_CURVE_WITH_KNOTS('',3,(#451,#452,#453,#454,#455),
 .UNSPECIFIED.,.F.,.F.,(4,1,4),(-0.09823433044336,-0.0633066191844222,0.),
 .UNSPECIFIED.);
#89=B_SPLINE_CURVE_WITH_KNOTS('',3,(#459,#460,#461,#462,#463,#464,#465,
#466,#467,#468,#469),.UNSPECIFIED.,.F.,.F.,(4,1,1,1,1,1,1,1,4),(0.,0.0633066191844222,
0.126613238368844,0.253226476737689,0.316533095922111,0.506452953475378,
0.696372811028645,0.759679430213067,0.886292668581911),.UNSPECIFIED.);
#90=B_SPLINE_CURVE_WITH_KNOTS('',3,(#472,#473,#474,#475,#476,#477,#478,
#479),.UNSPECIFIED.,.F.,.F.,(4,1,1,1,1,4),(-0.886292668581911,-0.759679430213067,
-0.696372811028645,-0.506452953475378,-0.316533095922111,-0.302645216128855),
 .UNSPECIFIED.);
#91=B_SPLINE_CURVE_WITH_KNOTS('',3,(#532,#533,#534,#535,#536,#537,#538,
#539,#540,#541,#542,#543,#544,#545,#546,#547,#548,#549,#550,#551,#552,#553,
#554,#555,#556,#557,#558,#559,#560,#561,#562,#563,#564,#565,#566,#567),
 .UNSPECIFIED.,.F.,.F.,(4,2,2,2,2,2,2,2,2,2,2,2,2,2,2,2,2,4),(0.,0.0738188963017758,
0.143927625310946,0.223966330227743,0.321784058243136,0.438973791336163,
0.529508829086139,0.578157512209713,0.602366050989459,0.62177339175111,
0.644722863807986,0.689560445664973,0.789987415915373,0.891443719248212,
0.998612176777286,1.08404033498376,1.15806968993608,1.16261647631474),
 .UNSPECIFIED.);
#92=B_SPLINE_CURVE_WITH_KNOTS('',3,(#569,#570,#571,#572),.UNSPECIFIED.,
 .F.,.F.,(4,4),(1.16261647631474,1.22685387907926),.UNSPECIFIED.);
#93=B_SPLINE_CURVE_WITH_KNOTS('',3,(#574,#575,#576,#577,#578,#579,#580),
 .UNSPECIFIED.,.F.,.F.,(4,1,1,1,4),(-0.704981479949216,-0.627801127419406,
-0.374574649543368,-0.247961410605349,-0.12134817166733),.UNSPECIFIED.);
#94=B_SPLINE_CURVE_WITH_KNOTS('',3,(#583,#584,#585,#586,#587,#588,#589,
#590,#591,#592),.UNSPECIFIED.,.F.,.F.,(4,1,1,1,1,1,1,4),(0.12134817166733,
0.247961410605349,0.374574649543368,0.627801127419406,0.754414366357425,
0.881027605295444,0.944334224764454,1.00764084423346),.UNSPECIFIED.);
#95=B_SPLINE_CURVE_WITH_KNOTS('',3,(#593,#594,#595,#596,#597),
 .UNSPECIFIED.,.F.,.F.,(4,1,4),(-1.00764084423346,-0.944334224764454,-0.909408267990769),
 .UNSPECIFIED.);
#96=B_SPLINE_CURVE_WITH_KNOTS('',3,(#624,#625,#626,#627,#628,#629,#630,
#631,#632,#633,#634,#635,#636,#637),.UNSPECIFIED.,.F.,.F.,(4,2,2,2,2,2,
4),(0.25195748313431,0.286086753579442,0.335600327016933,0.38085911864937,
0.427552156228336,0.466327043401146,0.503761287092719),.UNSPECIFIED.);
#97=B_SPLINE_CURVE_WITH_KNOTS('',3,(#639,#640,#641,#642,#643),
 .UNSPECIFIED.,.F.,.F.,(4,1,4),(8.72527485797342E-17,0.0693291257751731,
0.121325970106553),.UNSPECIFIED.);
#98=B_SPLINE_CURVE_WITH_KNOTS('',3,(#670,#671,#672,#673,#674),
 .UNSPECIFIED.,.F.,.F.,(4,1,4),(0.,0.0520061076903848,0.121347584610898),
 .UNSPECIFIED.);
#99=B_SPLINE_CURVE_WITH_KNOTS('',3,(#675,#676,#677,#678,#679,#680,#681,
#682,#683,#684,#685,#686,#687,#688),.UNSPECIFIED.,.F.,.F.,(4,2,2,2,2,2,
4),(0.,0.0328331515947963,0.0741082139718205,0.120359608243325,0.169374727722377,
0.210542178183119,0.251764406844693),.UNSPECIFIED.);
#100=B_SPLINE_CURVE_WITH_KNOTS('',3,(#718,#719,#720,#721,#722,#723,#724,
#725,#726,#727,#728,#729,#730),.UNSPECIFIED.,.F.,.F.,(4,3,3,3,4),(-3.14159265358979,
-2.32476074342419,-1.538445141775,-0.761498554769071,0.),.UNSPECIFIED.);
#101=B_SPLINE_CURVE_WITH_KNOTS('',3,(#772,#773,#774,#775,#776,#777,#778,
#779,#780,#781,#782,#783,#784,#785,#786,#787),.UNSPECIFIED.,.F.,.F.,(4,
3,3,3,3,4),(0.,0.113692322342697,0.916820742609712,1.6899406921876,2.45181168844409,
3.14159265358979),.UNSPECIFIED.);
#102=B_SPLINE_CURVE_WITH_KNOTS('',3,(#799,#800,#801,#802,#803,#804,#805,
#806,#807,#808,#809,#810,#811,#812,#813,#814,#815,#816,#817,#818,#819,#820,
#821,#822,#823,#824,#825,#826,#827,#828,#829),.UNSPECIFIED.,.F.,.F.,(4,
3,3,3,3,3,3,3,3,3,4),(-0.15764929095406,-0.150620833510486,-0.132042635600601,
-0.113464437690716,-0.0906372619935862,-0.0784623693814842,-0.0561208122408687,
-0.0387216085609896,-0.0201794189205944,-0.0166429664855417,0.),
 .UNSPECIFIED.);
#103=B_SPLINE_CURVE_WITH_KNOTS('',3,(#833,#834,#835,#836,#837,#838,#839,
#840,#841,#842,#843,#844,#845,#846,#847,#848,#849,#850,#851,#852,#853,#854,
#855,#856,#857,#858,#859,#860,#861,#862,#863,#864,#865,#866,#867,#868,#869),
 .UNSPECIFIED.,.F.,.F.,(4,3,3,3,3,3,3,3,3,3,3,3,4),(0.,0.0101559304778421,
0.0283092997768657,0.0293262523972252,0.0492444620000402,0.0590716125810826,
0.0880682571894021,0.0977304857457799,0.117514768105377,0.136276963554201,
0.137299050464974,0.154981372479232,0.157659528284169),.UNSPECIFIED.);
#104=B_SPLINE_CURVE_WITH_KNOTS('',3,(#939,#940,#941,#942,#943,#944,#945,
#946,#947,#948,#949,#950,#951,#952,#953,#954,#955,#956,#957,#958,#959,#960),
 .UNSPECIFIED.,.F.,.F.,(4,2,2,2,2,2,2,2,2,2,4),(-3.56987145101771,-3.13662471543763,
-2.62206307122975,-2.26508663857776,-1.9525412066734,-1.7762992701382,-1.62372881554423,
-1.4228652975573,-1.09337424424326,-0.664060453380141,-0.0500738604390489),
 .UNSPECIFIED.);
#105=B_SPLINE_CURVE_WITH_KNOTS('',3,(#962,#963,#964,#965,#966,#967,#968,
#969,#970,#971,#972,#973,#974),.UNSPECIFIED.,.F.,.F.,(4,3,3,3,4),(1.6944468919893,
1.79519725281755,2.24399571974163,2.69279418666571,3.14159265358979),
 .UNSPECIFIED.);
#106=B_SPLINE_CURVE_WITH_KNOTS('',3,(#976,#977,#978,#979,#980,#981,#982,
#983,#984,#985,#986,#987,#988),.UNSPECIFIED.,.F.,.F.,(4,3,3,3,4),(-3.14159265358979,
-2.69279936571909,-2.24400607784838,-1.79521278997768,-1.69459593718528),
 .UNSPECIFIED.);
#107=VERTEX_POINT('',#407);
#108=VERTEX_POINT('',#408);
#109=VERTEX_POINT('',#413);
#110=VERTEX_POINT('',#450);
#111=VERTEX_POINT('',#456);
#112=VERTEX_POINT('',#458);
#113=VERTEX_POINT('',#470);
#114=VERTEX_POINT('',#530);
#115=VERTEX_POINT('',#531);
#116=VERTEX_POINT('',#568);
#117=VERTEX_POINT('',#573);
#118=VERTEX_POINT('',#581);
#119=VERTEX_POINT('',#623);
#120=VERTEX_POINT('',#638);
#121=VERTEX_POINT('',#715);
#122=VERTEX_POINT('',#717);
#123=VERTEX_POINT('',#733);
#124=VERTEX_POINT('',#789);
#125=VERTEX_POINT('',#793);
#126=VERTEX_POINT('',#797);
#127=VERTEX_POINT('',#798);
#128=VERTEX_POINT('',#830);
#129=VERTEX_POINT('',#832);
#130=VERTEX_POINT('',#961);
#131=EDGE_CURVE('',#107,#108,#86,.T.);
#132=EDGE_CURVE('',#108,#109,#87,.T.);
#133=EDGE_CURVE('',#109,#110,#88,.T.);
#134=EDGE_CURVE('',#110,#111,#77,.T.);
#135=EDGE_CURVE('',#111,#112,#89,.T.);
#136=EDGE_CURVE('',#112,#113,#78,.T.);
#137=EDGE_CURVE('',#113,#107,#90,.T.);
#138=EDGE_CURVE('',#114,#115,#91,.T.);
#139=EDGE_CURVE('',#115,#116,#92,.T.);
#140=EDGE_CURVE('',#116,#117,#93,.T.);
#141=EDGE_CURVE('',#117,#118,#79,.T.);
#142=EDGE_CURVE('',#118,#111,#94,.T.);
#143=EDGE_CURVE('',#110,#114,#95,.T.);
#144=EDGE_CURVE('',#119,#113,#96,.T.);
#145=EDGE_CURVE('',#112,#120,#97,.T.);
#146=EDGE_CURVE('',#120,#119,#80,.T.);
#147=EDGE_CURVE('',#120,#118,#98,.T.);
#148=EDGE_CURVE('',#117,#119,#99,.T.);
#149=EDGE_CURVE('',#121,#111,#30,.T.);
#150=EDGE_CURVE('',#121,#122,#100,.T.);
#151=EDGE_CURVE('',#120,#122,#31,.T.);
#152=EDGE_CURVE('',#119,#123,#32,.T.);
#153=EDGE_CURVE('',#123,#123,#25,.T.);
#154=EDGE_CURVE('',#113,#117,#81,.T.);
#155=EDGE_CURVE('',#116,#114,#82,.T.);
#156=EDGE_CURVE('',#109,#107,#83,.T.);
#157=EDGE_CURVE('',#122,#121,#101,.T.);
#158=EDGE_CURVE('',#108,#124,#33,.T.);
#159=EDGE_CURVE('',#124,#124,#84,.T.);
#160=EDGE_CURVE('',#115,#125,#34,.T.);
#161=EDGE_CURVE('',#125,#125,#85,.T.);
#162=EDGE_CURVE('',#126,#127,#102,.T.);
#163=EDGE_CURVE('',#127,#128,#35,.T.);
#164=EDGE_CURVE('',#128,#129,#103,.T.);
#165=EDGE_CURVE('',#126,#129,#36,.T.);
#166=EDGE_CURVE('',#126,#129,#104,.T.);
#167=EDGE_CURVE('',#128,#130,#105,.T.);
#168=EDGE_CURVE('',#121,#130,#37,.T.);
#169=EDGE_CURVE('',#130,#127,#106,.T.);
#170=ORIENTED_EDGE('',*,*,#131,.T.);
#171=ORIENTED_EDGE('',*,*,#132,.T.);
#172=ORIENTED_EDGE('',*,*,#133,.T.);
#173=ORIENTED_EDGE('',*,*,#134,.T.);
#174=ORIENTED_EDGE('',*,*,#135,.T.);
#175=ORIENTED_EDGE('',*,*,#136,.T.);
#176=ORIENTED_EDGE('',*,*,#137,.T.);
#177=ORIENTED_EDGE('',*,*,#138,.T.);
#178=ORIENTED_EDGE('',*,*,#139,.T.);
#179=ORIENTED_EDGE('',*,*,#140,.T.);
#180=ORIENTED_EDGE('',*,*,#141,.T.);
#181=ORIENTED_EDGE('',*,*,#142,.T.);
#182=ORIENTED_EDGE('',*,*,#134,.F.);
#183=ORIENTED_EDGE('',*,*,#143,.T.);
#184=ORIENTED_EDGE('',*,*,#144,.T.);
#185=ORIENTED_EDGE('',*,*,#136,.F.);
#186=ORIENTED_EDGE('',*,*,#145,.T.);
#187=ORIENTED_EDGE('',*,*,#146,.T.);
#188=ORIENTED_EDGE('',*,*,#146,.F.);
#189=ORIENTED_EDGE('',*,*,#147,.T.);
#190=ORIENTED_EDGE('',*,*,#141,.F.);
#191=ORIENTED_EDGE('',*,*,#148,.T.);
#192=ORIENTED_EDGE('',*,*,#145,.F.);
#193=ORIENTED_EDGE('',*,*,#135,.F.);
#194=ORIENTED_EDGE('',*,*,#149,.F.);
#195=ORIENTED_EDGE('',*,*,#150,.T.);
#196=ORIENTED_EDGE('',*,*,#151,.F.);
#197=ORIENTED_EDGE('',*,*,#152,.T.);
#198=ORIENTED_EDGE('',*,*,#153,.T.);
#199=ORIENTED_EDGE('',*,*,#152,.F.);
#200=ORIENTED_EDGE('',*,*,#148,.F.);
#201=ORIENTED_EDGE('',*,*,#154,.F.);
#202=ORIENTED_EDGE('',*,*,#144,.F.);
#203=ORIENTED_EDGE('',*,*,#137,.F.);
#204=ORIENTED_EDGE('',*,*,#154,.T.);
#205=ORIENTED_EDGE('',*,*,#140,.F.);
#206=ORIENTED_EDGE('',*,*,#155,.T.);
#207=ORIENTED_EDGE('',*,*,#143,.F.);
#208=ORIENTED_EDGE('',*,*,#133,.F.);
#209=ORIENTED_EDGE('',*,*,#156,.T.);
#210=ORIENTED_EDGE('',*,*,#147,.F.);
#211=ORIENTED_EDGE('',*,*,#151,.T.);
#212=ORIENTED_EDGE('',*,*,#157,.T.);
#213=ORIENTED_EDGE('',*,*,#149,.T.);
#214=ORIENTED_EDGE('',*,*,#142,.F.);
#215=ORIENTED_EDGE('',*,*,#131,.F.);
#216=ORIENTED_EDGE('',*,*,#156,.F.);
#217=ORIENTED_EDGE('',*,*,#132,.F.);
#218=ORIENTED_EDGE('',*,*,#158,.T.);
#219=ORIENTED_EDGE('',*,*,#159,.F.);
#220=ORIENTED_EDGE('',*,*,#158,.F.);
#221=ORIENTED_EDGE('',*,*,#138,.F.);
#222=ORIENTED_EDGE('',*,*,#155,.F.);
#223=ORIENTED_EDGE('',*,*,#139,.F.);
#224=ORIENTED_EDGE('',*,*,#160,.T.);
#225=ORIENTED_EDGE('',*,*,#161,.F.);
#226=ORIENTED_EDGE('',*,*,#160,.F.);
#227=ORIENTED_EDGE('',*,*,#162,.T.);
#228=ORIENTED_EDGE('',*,*,#163,.T.);
#229=ORIENTED_EDGE('',*,*,#164,.T.);
#230=ORIENTED_EDGE('',*,*,#165,.F.);
#231=ORIENTED_EDGE('',*,*,#162,.F.);
#232=ORIENTED_EDGE('',*,*,#166,.T.);
#233=ORIENTED_EDGE('',*,*,#164,.F.);
#234=ORIENTED_EDGE('',*,*,#167,.T.);
#235=ORIENTED_EDGE('',*,*,#168,.F.);
#236=ORIENTED_EDGE('',*,*,#157,.F.);
#237=ORIENTED_EDGE('',*,*,#150,.F.);
#238=ORIENTED_EDGE('',*,*,#168,.T.);
#239=ORIENTED_EDGE('',*,*,#169,.T.);
#240=ORIENTED_EDGE('',*,*,#166,.F.);
#241=ORIENTED_EDGE('',*,*,#165,.T.);
#242=ORIENTED_EDGE('',*,*,#153,.F.);
#243=ORIENTED_EDGE('',*,*,#163,.F.);
#244=ORIENTED_EDGE('',*,*,#169,.F.);
#245=ORIENTED_EDGE('',*,*,#167,.F.);
#246=ORIENTED_EDGE('',*,*,#159,.T.);
#247=ORIENTED_EDGE('',*,*,#161,.T.);
#248=B_SPLINE_SURFACE_WITH_KNOTS('',3,3,((#352,#353,#354,#355,#356,#357,
#358,#359,#360,#361,#362),(#363,#364,#365,#366,#367,#368,#369,#370,#371,
#372,#373),(#374,#375,#376,#377,#378,#379,#380,#381,#382,#383,#384),(#385,
#386,#387,#388,#389,#390,#391,#392,#393,#394,#395),(#396,#397,#398,#399,
#400,#401,#402,#403,#404,#405,#406)),.UNSPECIFIED.,.F.,.F.,.F.,(4,1,4),
(4,1,1,1,1,1,1,1,4),(0.,0.571428571428571,1.),(0.,0.0633066191844222,0.126613238368844,
0.253226476737689,0.316533095922111,0.506452953475378,0.696372811028645,
0.759679430213067,0.886292668581911),.UNSPECIFIED.);
#249=B_SPLINE_SURFACE_WITH_KNOTS('',3,3,((#480,#481,#482,#483,#484,#485,
#486,#487,#488,#489),(#490,#491,#492,#493,#494,#495,#496,#497,#498,#499),
(#500,#501,#502,#503,#504,#505,#506,#507,#508,#509),(#510,#511,#512,#513,
#514,#515,#516,#517,#518,#519),(#520,#521,#522,#523,#524,#525,#526,#527,
#528,#529)),.UNSPECIFIED.,.F.,.F.,.F.,(4,1,4),(4,1,1,1,1,1,1,4),(0.,0.571428571428571,
1.),(0.12134817166733,0.247961410605349,0.374574649543368,0.627801127419406,
0.754414366357425,0.881027605295444,0.944334224764454,1.00764084423346),
 .UNSPECIFIED.);
#250=B_SPLINE_SURFACE_WITH_KNOTS('',3,3,((#598,#599,#600,#601,#602),(#603,
#604,#605,#606,#607),(#608,#609,#610,#611,#612),(#613,#614,#615,#616,#617),
(#618,#619,#620,#621,#622)),.UNSPECIFIED.,.F.,.F.,.F.,(4,1,4),(4,1,4),(0.,
0.571428571428571,1.),(8.72527485797342E-17,0.0693291257751731,0.121325970106553),
 .UNSPECIFIED.);
#251=B_SPLINE_SURFACE_WITH_KNOTS('',3,3,((#645,#646,#647,#648,#649),(#650,
#651,#652,#653,#654),(#655,#656,#657,#658,#659),(#660,#661,#662,#663,#664),
(#665,#666,#667,#668,#669)),.UNSPECIFIED.,.F.,.F.,.F.,(4,1,4),(4,1,4),(0.,
0.571428571428571,1.),(0.,0.0520061076903848,0.121347584610898),
 .UNSPECIFIED.);
#252=B_SPLINE_SURFACE_WITH_KNOTS('',3,1,((#689,#690),(#691,#692),(#693,
#694),(#695,#696),(#697,#698),(#699,#700),(#701,#702),(#703,#704),(#705,
#706),(#707,#708),(#709,#710),(#711,#712),(#713,#714)),.UNSPECIFIED.,.F.,
 .F.,.F.,(4,3,3,3,4),(2,2),(-3.14159265358979,-2.32476074342419,-1.538445141775,
-0.761498554769071,0.),(0.,0.6),.UNSPECIFIED.);
#253=B_SPLINE_SURFACE_WITH_KNOTS('',3,1,((#740,#741),(#742,#743),(#744,
#745),(#746,#747),(#748,#749),(#750,#751),(#752,#753),(#754,#755),(#756,
#757),(#758,#759),(#760,#761),(#762,#763),(#764,#765),(#766,#767),(#768,
#769),(#770,#771)),.UNSPECIFIED.,.F.,.F.,.F.,(4,3,3,3,3,4),(2,2),(0.,0.113692322342697,
0.916820742609712,1.6899406921876,2.45181168844409,3.14159265358979),(0.,
0.6),.UNSPECIFIED.);
#254=B_SPLINE_SURFACE_WITH_KNOTS('',3,3,((#871,#872,#873,#874),(#875,#876,
#877,#878),(#879,#880,#881,#882),(#883,#884,#885,#886),(#887,#888,#889,
#890),(#891,#892,#893,#894),(#895,#896,#897,#898),(#899,#900,#901,#902),
(#903,#904,#905,#906),(#907,#908,#909,#910),(#911,#912,#913,#914),(#915,
#916,#917,#918),(#919,#920,#921,#922),(#923,#924,#925,#926),(#927,#928,
#929,#930),(#931,#932,#933,#934),(#935,#936,#937,#938)),.UNSPECIFIED.,.T.,
 .F.,.F.,(4,1,1,1,1,1,1,1,1,1,1,1,1,1,4),(4,4),(0.,0.0714285714285714,0.142857142857143,
0.214285714285714,0.285714285714286,0.357142857142857,0.428571428571429,
0.5,0.571428571428571,0.619047619047619,0.714285714285714,0.785714285714286,
0.857142857142857,0.928571428571429,1.),(0.,1.),.UNSPECIFIED.);
#255=ADVANCED_FACE('',(#46),#248,.F.);
#256=ADVANCED_FACE('',(#47),#249,.F.);
#257=ADVANCED_FACE('',(#48),#250,.F.);
#258=ADVANCED_FACE('',(#49),#251,.F.);
#259=ADVANCED_FACE('',(#50),#252,.T.);
#260=ADVANCED_FACE('',(#51),#26,.F.);
#261=ADVANCED_FACE('',(#52),#22,.T.);
#262=ADVANCED_FACE('',(#53),#253,.T.);
#263=ADVANCED_FACE('',(#54),#27,.F.);
#264=ADVANCED_FACE('',(#55),#28,.F.);
#265=ADVANCED_FACE('',(#56),#29,.T.);
#266=ADVANCED_FACE('',(#57),#254,.F.);
#267=ADVANCED_FACE('',(#58,#19),#23,.F.);
#268=ADVANCED_FACE('',(#59,#20,#21),#24,.F.);
#269=CLOSED_SHELL('',(#255,#256,#257,#258,#259,#260,#261,#262,#263,#264,
#265,#266,#267,#268));
#270=DERIVED_UNIT_ELEMENT(#272,1.);
#271=DERIVED_UNIT_ELEMENT(#999,-3.);
#272=(
MASS_UNIT()
NAMED_UNIT(*)
SI_UNIT(.KILO.,.GRAM.)
);
#273=DERIVED_UNIT((#270,#271));
#274=MEASURE_REPRESENTATION_ITEM('density measure',
POSITIVE_RATIO_MEASURE(7850.),#273);
#275=PROPERTY_DEFINITION_REPRESENTATION(#280,#277);
#276=PROPERTY_DEFINITION_REPRESENTATION(#281,#278);
#277=REPRESENTATION('material name',(#279),#996);
#278=REPRESENTATION('density',(#274),#996);
#279=DESCRIPTIVE_REPRESENTATION_ITEM('Steel','Steel');
#280=PROPERTY_DEFINITION('material property','material name',#1011);
#281=PROPERTY_DEFINITION('material property','density of part',#1011);
#282=AXIS2_PLACEMENT_3D('',#350,#302,#303);
#283=AXIS2_PLACEMENT_3D('',#351,#304,#305);
#284=AXIS2_PLACEMENT_3D('',#457,#306,#307);
#285=AXIS2_PLACEMENT_3D('',#471,#308,#309);
#286=AXIS2_PLACEMENT_3D('',#582,#310,#311);
#287=AXIS2_PLACEMENT_3D('',#644,#312,#313);
#288=AXIS2_PLACEMENT_3D('',#732,#316,#317);
#289=AXIS2_PLACEMENT_3D('',#735,#319,#320);
#290=AXIS2_PLACEMENT_3D('',#736,#321,#322);
#291=AXIS2_PLACEMENT_3D('',#737,#323,#324);
#292=AXIS2_PLACEMENT_3D('',#738,#325,#326);
#293=AXIS2_PLACEMENT_3D('',#739,#327,#328);
#294=AXIS2_PLACEMENT_3D('',#788,#329,#330);
#295=AXIS2_PLACEMENT_3D('',#791,#332,#333);
#296=AXIS2_PLACEMENT_3D('',#792,#334,#335);
#297=AXIS2_PLACEMENT_3D('',#795,#337,#338);
#298=AXIS2_PLACEMENT_3D('',#796,#339,#340);
#299=AXIS2_PLACEMENT_3D('',#989,#344,#345);
#300=AXIS2_PLACEMENT_3D('',#990,#346,#347);
#301=AXIS2_PLACEMENT_3D('',#991,#348,#349);
#302=DIRECTION('axis',(0.,0.,1.));
#303=DIRECTION('refdir',(1.,0.,0.));
#304=DIRECTION('axis',(0.,0.,1.));
#305=DIRECTION('refdir',(1.,0.,0.));
#306=DIRECTION('center_axis',(1.95486697687675E-16,-1.,0.));
#307=DIRECTION('ref_axis',(0.,0.,1.));
#308=DIRECTION('center_axis',(-0.55453677577063,-0.832159218129508,-1.46859459769667E-16));
#309=DIRECTION('ref_axis',(0.832159218129508,-0.55453677577063,0.));
#310=DIRECTION('center_axis',(-0.554536776945352,0.832159217346693,4.47207814135798E-17));
#311=DIRECTION('ref_axis',(-1.16147091944185E-10,-7.73985042723523E-11,
1.));
#312=DIRECTION('center_axis',(-5.678237300905E-5,-0.999999998387881,2.60208520977034E-17));
#313=DIRECTION('ref_axis',(0.999999998387881,-5.678237300905E-5,0.));
#314=DIRECTION('',(0.,0.,1.));
#315=DIRECTION('',(0.,0.,-1.));
#316=DIRECTION('center_axis',(0.,0.,-1.));
#317=DIRECTION('ref_axis',(-1.,0.,0.));
#318=DIRECTION('',(0.,0.,-1.));
#319=DIRECTION('center_axis',(0.707106781186548,0.,-0.707106781186547));
#320=DIRECTION('ref_axis',(-0.707106781186547,0.,-0.707106781186548));
#321=DIRECTION('center_axis',(2.46478321080748E-36,-4.44081935945021E-32,
-1.));
#322=DIRECTION('ref_axis',(-1.,0.,0.));
#323=DIRECTION('center_axis',(-2.46478321080748E-36,4.44081935945021E-32,
1.));
#324=DIRECTION('ref_axis',(1.,0.,2.46478321080748E-36));
#325=DIRECTION('center_axis',(2.46478321080748E-36,-4.44081935945021E-32,
-1.));
#326=DIRECTION('ref_axis',(-1.,0.,0.));
#327=DIRECTION('center_axis',(2.46478321080748E-36,-4.44081935945021E-32,
-1.));
#328=DIRECTION('ref_axis',(-1.,0.,0.));
#329=DIRECTION('center_axis',(0.,0.,-1.));
#330=DIRECTION('ref_axis',(-1.,0.,0.));
#331=DIRECTION('',(0.,0.,-1.));
#332=DIRECTION('center_axis',(-1.22368329395661E-31,8.98907946062328E-36,
1.));
#333=DIRECTION('ref_axis',(-1.,0.,0.));
#334=DIRECTION('center_axis',(0.,0.,-1.));
#335=DIRECTION('ref_axis',(-1.,0.,0.));
#336=DIRECTION('',(0.,0.,-1.));
#337=DIRECTION('center_axis',(-1.22368329395661E-31,8.98907946062328E-36,
1.));
#338=DIRECTION('ref_axis',(-1.,0.,0.));
#339=DIRECTION('center_axis',(-2.76997396891051E-67,-1.,8.98907946062328E-36));
#340=DIRECTION('ref_axis',(0.707106781186543,0.,-0.707106781186553));
#341=DIRECTION('',(2.76997396891051E-67,1.,-8.98907946062328E-36));
#342=DIRECTION('',(0.,1.,0.));
#343=DIRECTION('',(-0.0149983127847123,-2.0662512671895E-18,-0.999887518980816));
#344=DIRECTION('center_axis',(-0.707106781186548,0.,0.707106781186547));
#345=DIRECTION('ref_axis',(0.707106781186547,0.,0.707106781186548));
#346=DIRECTION('center_axis',(-1.22368329395661E-31,8.98907946062328E-36,
1.));
#347=DIRECTION('ref_axis',(1.,0.,1.22368329395661E-31));
#348=DIRECTION('',(0.,0.,1.));
#349=DIRECTION('',(1.,0.,0.));
#350=CARTESIAN_POINT('',(0.,0.,0.));
#351=CARTESIAN_POINT('',(0.,0.,0.));
#352=CARTESIAN_POINT('Ctrl Pts',(-7.7,-2.0122792321331E-15,90.));
#353=CARTESIAN_POINT('Ctrl Pts',(-7.7,-0.677083064078791,90.));
#354=CARTESIAN_POINT('Ctrl Pts',(-7.44678612748008,-2.01502690925427,90.));
#355=CARTESIAN_POINT('Ctrl Pts',(-6.33234547940042,-4.03835910399714,90.));
#356=CARTESIAN_POINT('Ctrl Pts',(-4.89581526450724,-5.26225428859386,90.));
#357=CARTESIAN_POINT('Ctrl Pts',(-2.65568729138771,-6.42572822740308,90.));
#358=CARTESIAN_POINT('Ctrl Pts',(0.0507683217515583,-6.90958267254915,90.));
#359=CARTESIAN_POINT('Ctrl Pts',(2.75502959955732,-6.3974072155528,90.));
#360=CARTESIAN_POINT('Ctrl Pts',(4.99277373199566,-5.20188705901099,90.));
#361=CARTESIAN_POINT('Ctrl Pts',(6.06188462490256,-4.25630227818001,90.));
#362=CARTESIAN_POINT('Ctrl Pts',(6.66167294019715,-3.35623685906484,90.));
#363=CARTESIAN_POINT('Ctrl Pts',(-7.7,-2.0122792321331E-15,91.1967972013675));
#364=CARTESIAN_POINT('Ctrl Pts',(-7.7,-0.678448328530653,91.1967972013675));
#365=CARTESIAN_POINT('Ctrl Pts',(-7.44754149767803,-2.01779707010132,91.1967972013675));
#366=CARTESIAN_POINT('Ctrl Pts',(-6.33170507757883,-4.04402885182363,91.1967972013675));
#367=CARTESIAN_POINT('Ctrl Pts',(-4.89582231226415,-5.26766009777614,91.1967972013675));
#368=CARTESIAN_POINT('Ctrl Pts',(-2.65418638634167,-6.431650822118,91.1967972013675));
#369=CARTESIAN_POINT('Ctrl Pts',(0.0513699192900365,-6.91462586850382,91.1967972013676));
#370=CARTESIAN_POINT('Ctrl Pts',(2.75385731102967,-6.40138040558988,91.1967972013675));
#371=CARTESIAN_POINT('Ctrl Pts',(4.99419050819836,-5.20427215428511,91.1967972013675));
#372=CARTESIAN_POINT('Ctrl Pts',(6.06081321373794,-4.25791007898962,91.1967972013675));
#373=CARTESIAN_POINT('Ctrl Pts',(6.66167294019715,-3.35623685906484,91.1967972013675));
#374=CARTESIAN_POINT('Ctrl Pts',(-6.69581085273429,-1.6638811345165E-15,
93.2689612830187));
#375=CARTESIAN_POINT('Ctrl Pts',(-6.69581085273429,-0.559856268219053,93.2689612830187));
#376=CARTESIAN_POINT('Ctrl Pts',(-6.48700456907216,-1.66739288260202,93.2689612830187));
#377=CARTESIAN_POINT('Ctrl Pts',(-5.55181680028339,-3.37128332435271,93.2689612830187));
#378=CARTESIAN_POINT('Ctrl Pts',(-4.31437766521999,-4.43170285361155,93.2689612830187));
#379=CARTESIAN_POINT('Ctrl Pts',(-2.35407619893386,-5.45005219496076,93.2689612830187));
#380=CARTESIAN_POINT('Ctrl Pts',(0.044857553784666,-5.88290939396782,93.2689612830187));
#381=CARTESIAN_POINT('Ctrl Pts',(2.44143470419117,-5.42508035863232,93.2689612830187));
#382=CARTESIAN_POINT('Ctrl Pts',(4.39804235845314,-4.37916492549528,93.2689612830187));
#383=CARTESIAN_POINT('Ctrl Pts',(5.31823480479991,-3.56139057665865,93.2689612830187));
#384=CARTESIAN_POINT('Ctrl Pts',(5.82602768455438,-2.79937704707626,93.2689612830187));
#385=CARTESIAN_POINT('Ctrl Pts',(-4.59759790102565,-9.35917281530993E-16,
94.));
#386=CARTESIAN_POINT('Ctrl Pts',(-4.59759790102565,-0.315257136559491,94.));
#387=CARTESIAN_POINT('Ctrl Pts',(-4.48176846925541,-0.941718554403756,94.));
#388=CARTESIAN_POINT('Ctrl Pts',(-3.9207732137158,-1.97887367253697,94.));
#389=CARTESIAN_POINT('Ctrl Pts',(-3.0994888823773,-2.69765134466725,94.));
#390=CARTESIAN_POINT('Ctrl Pts',(-1.72349642573963,-3.41289794722515,94.));
#391=CARTESIAN_POINT('Ctrl Pts',(0.0326577467278061,-3.73897844068774,94.));
#392=CARTESIAN_POINT('Ctrl Pts',(1.78589746753505,-3.39443638359368,94.));
#393=CARTESIAN_POINT('Ctrl Pts',(3.15572944836157,-2.66071671634557,94.));
#394=CARTESIAN_POINT('Ctrl Pts',(3.76414028676185,-2.10980267870528,94.));
#395=CARTESIAN_POINT('Ctrl Pts',(4.07998043519132,-1.63584080195558,94.));
#396=CARTESIAN_POINT('Ctrl Pts',(-3.7,-6.2450045135165E-16,94.));
#397=CARTESIAN_POINT('Ctrl Pts',(-3.7,-0.211022063948075,94.));
#398=CARTESIAN_POINT('Ctrl Pts',(-3.62416791575019,-0.632097612894006,94.));
#399=CARTESIAN_POINT('Ctrl Pts',(-3.22283770295088,-1.38488354704771,94.));
#400=CARTESIAN_POINT('Ctrl Pts',(-2.57977172869387,-1.95743190777026,94.));
#401=CARTESIAN_POINT('Ctrl Pts',(-1.4532973264798,-2.54316601322258,94.));
#402=CARTESIAN_POINT('Ctrl Pts',(0.0276160803697676,-2.82330914260161,94.));
#403=CARTESIAN_POINT('Ctrl Pts',(1.50511862785486,-2.52691494183904,94.));
#404=CARTESIAN_POINT('Ctrl Pts',(2.62469597216704,-1.92628194557764,94.));
#405=CARTESIAN_POINT('Ctrl Pts',(3.09899591073723,-1.48929941875179,94.));
#406=CARTESIAN_POINT('Ctrl Pts',(3.33303606767912,-1.13808975598233,94.));
#407=CARTESIAN_POINT('',(-1.94956689841647,-2.27697157064724,94.));
#408=CARTESIAN_POINT('',(-1.85,-2.90015214376765,93.9640321853508));
#409=CARTESIAN_POINT('Ctrl Pts',(-1.94956689853523,-2.27697157053302,94.));
#410=CARTESIAN_POINT('Ctrl Pts',(-1.88320410465819,-2.479349590013,94.));
#411=CARTESIAN_POINT('Ctrl Pts',(-1.84999999999999,-2.68947815260953,93.9906110006889));
#412=CARTESIAN_POINT('Ctrl Pts',(-1.85,-2.90015214376768,93.9640321853508));
#413=CARTESIAN_POINT('',(-3.45205007971986,-0.940142982698035,94.));
#414=CARTESIAN_POINT('Ctrl Pts',(-1.85,-2.90015214376768,93.9640321853507));
#415=CARTESIAN_POINT('Ctrl Pts',(-1.85,-2.9358615630522,93.9595270537216));
#416=CARTESIAN_POINT('Ctrl Pts',(-1.85095628528221,-2.97158789645403,93.9545378715858));
#417=CARTESIAN_POINT('Ctrl Pts',(-1.86517243823996,-3.23656903072765,93.9137230608239));
#418=CARTESIAN_POINT('Ctrl Pts',(-1.91633186971876,-3.45628452293277,93.8583848353944));
#419=CARTESIAN_POINT('Ctrl Pts',(-2.09344152096005,-3.8876947877046,93.6983323077282));
#420=CARTESIAN_POINT('Ctrl Pts',(-2.22480991463482,-4.08833610986707,93.5911949723806));
#421=CARTESIAN_POINT('Ctrl Pts',(-2.57450010730663,-4.46678091786289,93.3162403871779));
#422=CARTESIAN_POINT('Ctrl Pts',(-2.80375812364297,-4.62557019817712,93.1417755499773));
#423=CARTESIAN_POINT('Ctrl Pts',(-3.35112628930324,-4.86478072488733,92.7361322974556));
#424=CARTESIAN_POINT('Ctrl Pts',(-3.66646493702457,-4.91407736994186,92.5086302504382));
#425=CARTESIAN_POINT('Ctrl Pts',(-4.18694034134687,-4.88403073195792,92.1697284936451));
#426=CARTESIAN_POINT('Ctrl Pts',(-4.40283447724548,-4.83452882055364,92.041747046688));
#427=CARTESIAN_POINT('Ctrl Pts',(-4.71902524620001,-4.70572019434374,91.898522117785));
#428=CARTESIAN_POINT('Ctrl Pts',(-4.83279010535953,-4.64700287375559,91.8567955977262));
#429=CARTESIAN_POINT('Ctrl Pts',(-4.99671400824672,-4.54001194854289,91.8193590255708));
#430=CARTESIAN_POINT('Ctrl Pts',(-5.04894182920642,-4.50226562776513,91.8111394991871));
#431=CARTESIAN_POINT('Ctrl Pts',(-5.14005422567626,-4.42934465171721,91.8042850388016));
#432=CARTESIAN_POINT('Ctrl Pts',(-5.17908712414782,-4.39554494534823,91.8040556454893));
#433=CARTESIAN_POINT('Ctrl Pts',(-5.26107884112056,-4.3187892231748,91.8096439871423));
#434=CARTESIAN_POINT('Ctrl Pts',(-5.30307012956805,-4.27571141866611,91.8164807255437));
#435=CARTESIAN_POINT('Ctrl Pts',(-5.41903248068264,-4.14563907899526,91.8466294998873));
#436=CARTESIAN_POINT('Ctrl Pts',(-5.4857883515222,-4.05601243555016,91.8789451678733));
#437=CARTESIAN_POINT('Ctrl Pts',(-5.67697763034844,-3.75163478824187,92.0136742107828));
#438=CARTESIAN_POINT('Ctrl Pts',(-5.77097385317277,-3.51319575724948,92.1578838209394));
#439=CARTESIAN_POINT('Ctrl Pts',(-5.86331638539496,-3.00916245041224,92.4850558420182));
#440=CARTESIAN_POINT('Ctrl Pts',(-5.86292301898181,-2.73899275234336,92.6708489966049));
#441=CARTESIAN_POINT('Ctrl Pts',(-5.73918488506286,-2.18169778965366,93.0544374788372));
#442=CARTESIAN_POINT('Ctrl Pts',(-5.612572687249,-1.90593045186888,93.244625969305));
#443=CARTESIAN_POINT('Ctrl Pts',(-5.26357015935357,-1.46232363221363,93.5511341212619));
#444=CARTESIAN_POINT('Ctrl Pts',(-5.06251927511716,-1.28616759249246,93.6733265335899));
#445=CARTESIAN_POINT('Ctrl Pts',(-4.61924776203155,-1.03933130680102,93.8515166725269));
#446=CARTESIAN_POINT('Ctrl Pts',(-4.39284080710814,-0.959811769895721,93.9123702377989));
#447=CARTESIAN_POINT('Ctrl Pts',(-3.91992076522164,-0.887693443635327,93.9866637303697));
#448=CARTESIAN_POINT('Ctrl Pts',(-3.68387673355466,-0.893074134765615,93.9999999992654));
#449=CARTESIAN_POINT('Ctrl Pts',(-3.4520500822333,-0.940142995077371,94.));
#450=CARTESIAN_POINT('',(-3.7,-6.24500451351651E-16,94.));
#451=CARTESIAN_POINT('Ctrl Pts',(-3.45190614149627,-0.94006578523115,94.));
#452=CARTESIAN_POINT('Ctrl Pts',(-3.50718500949471,-0.837517463050132,94.));
#453=CARTESIAN_POINT('Ctrl Pts',(-3.64116480931715,-0.537718349025893,94.));
#454=CARTESIAN_POINT('Ctrl Pts',(-3.7,-0.211022063948075,94.));
#455=CARTESIAN_POINT('Ctrl Pts',(-3.7,-6.2450045135165E-16,94.));
#456=CARTESIAN_POINT('',(-7.7,-1.40644724210235E-15,90.));
#457=CARTESIAN_POINT('Origin',(-3.7,-6.24500451351651E-16,90.));
#458=CARTESIAN_POINT('',(6.66167294019715,-3.35623685906484,90.));
#459=CARTESIAN_POINT('Ctrl Pts',(-7.7,-2.0122792321331E-15,90.));
#460=CARTESIAN_POINT('Ctrl Pts',(-7.7,-0.677083064078791,90.));
#461=CARTESIAN_POINT('Ctrl Pts',(-7.44678612748008,-2.01502690925427,90.));
#462=CARTESIAN_POINT('Ctrl Pts',(-6.33234547940042,-4.03835910399714,90.));
#463=CARTESIAN_POINT('Ctrl Pts',(-4.89581526450724,-5.26225428859386,90.));
#464=CARTESIAN_POINT('Ctrl Pts',(-2.65568729138771,-6.42572822740308,90.));
#465=CARTESIAN_POINT('Ctrl Pts',(0.0507683217515583,-6.90958267254915,90.));
#466=CARTESIAN_POINT('Ctrl Pts',(2.75502959955732,-6.3974072155528,90.));
#467=CARTESIAN_POINT('Ctrl Pts',(4.99277373199566,-5.20188705901099,90.));
#468=CARTESIAN_POINT('Ctrl Pts',(6.06188462490256,-4.25630227818001,90.));
#469=CARTESIAN_POINT('Ctrl Pts',(6.66167294019715,-3.35623685906484,90.));
#470=CARTESIAN_POINT('',(3.33303606767949,-1.13808975598257,94.));
#471=CARTESIAN_POINT('Origin',(3.33303606767912,-1.13808975598233,90.));
#472=CARTESIAN_POINT('Ctrl Pts',(3.33303606767912,-1.13808975598233,94.));
#473=CARTESIAN_POINT('Ctrl Pts',(3.09899591073723,-1.48929941875179,94.));
#474=CARTESIAN_POINT('Ctrl Pts',(2.62469597216704,-1.92628194557764,94.));
#475=CARTESIAN_POINT('Ctrl Pts',(1.50511862785486,-2.52691494183904,94.));
#476=CARTESIAN_POINT('Ctrl Pts',(0.0276160803697676,-2.82330914260161,94.));
#477=CARTESIAN_POINT('Ctrl Pts',(-1.28814900401634,-2.57440698089336,94.));
#478=CARTESIAN_POINT('Ctrl Pts',(-1.907534361572,-2.29631423599593,94.));
#479=CARTESIAN_POINT('Ctrl Pts',(-1.94942195989206,-2.27666325402548,94.));
#480=CARTESIAN_POINT('Ctrl Pts',(6.66167293506222,3.35623686677052,90.));
#481=CARTESIAN_POINT('Ctrl Pts',(6.06188460986484,4.25630229799281,90.));
#482=CARTESIAN_POINT('Ctrl Pts',(4.6356623795316,5.51881666227506,90.));
#483=CARTESIAN_POINT('Ctrl Pts',(1.61110321935095,6.8023725962214,90.));
#484=CARTESIAN_POINT('Ctrl Pts',(-1.51098752160557,6.81848359435101,90.));
#485=CARTESIAN_POINT('Ctrl Pts',(-4.53653588700053,5.56962063694479,90.));
#486=CARTESIAN_POINT('Ctrl Pts',(-6.33182318167339,4.03745365428508,90.));
#487=CARTESIAN_POINT('Ctrl Pts',(-7.4467209721179,2.01522256243098,90.));
#488=CARTESIAN_POINT('Ctrl Pts',(-7.7,0.677083067122537,90.));
#489=CARTESIAN_POINT('Ctrl Pts',(-7.7,1.66533453693773E-15,90.));
#490=CARTESIAN_POINT('Ctrl Pts',(6.66167293506222,3.35623686677052,91.1967972013675));
#491=CARTESIAN_POINT('Ctrl Pts',(6.0608131986831,4.2579100988232,91.1967972013675));
#492=CARTESIAN_POINT('Ctrl Pts',(4.63618151833741,5.52186811520365,91.1967972013675));
#493=CARTESIAN_POINT('Ctrl Pts',(1.6093399305682,6.80721438914604,91.1967972013675));
#494=CARTESIAN_POINT('Ctrl Pts',(-1.50913286096265,6.8247330076766,91.1967972013675));
#495=CARTESIAN_POINT('Ctrl Pts',(-4.53587392701637,5.57580668920589,91.1967972013675));
#496=CARTESIAN_POINT('Ctrl Pts',(-6.33121212967554,4.04324468294548,91.1967972013675));
#497=CARTESIAN_POINT('Ctrl Pts',(-7.44732896235978,2.0181724585787,91.1967972013676));
#498=CARTESIAN_POINT('Ctrl Pts',(-7.7,0.678448331580536,91.1967972013675));
#499=CARTESIAN_POINT('Ctrl Pts',(-7.7,1.66533453693773E-15,91.1967972013675));
#500=CARTESIAN_POINT('Ctrl Pts',(5.82602768020552,2.79937705360227,93.2689612830187));
#501=CARTESIAN_POINT('Ctrl Pts',(5.31823479201881,3.56139059350732,93.2689612830187));
#502=CARTESIAN_POINT('Ctrl Pts',(4.09073125764877,4.6529764922413,93.2689612830186));
#503=CARTESIAN_POINT('Ctrl Pts',(1.43323590402036,5.78467022454294,93.2689612830186));
#504=CARTESIAN_POINT('Ctrl Pts',(-1.34471649580746,5.79876374792159,93.2689612830186));
#505=CARTESIAN_POINT('Ctrl Pts',(-4.00488800580555,4.6976974928027,93.2689612830187));
#506=CARTESIAN_POINT('Ctrl Pts',(-5.55143601958869,3.37058806906416,93.2689612830186));
#507=CARTESIAN_POINT('Ctrl Pts',(-6.48695515620238,1.66750804731642,93.2689612830187));
#508=CARTESIAN_POINT('Ctrl Pts',(-6.69581085273425,0.55985627073582,93.2689612830187));
#509=CARTESIAN_POINT('Ctrl Pts',(-6.69581085273425,1.42145586860611E-15,
93.2689612830187));
#510=CARTESIAN_POINT('Ctrl Pts',(4.07998043248499,1.6358408060168,94.));
#511=CARTESIAN_POINT('Ctrl Pts',(3.76414027869168,2.10980268936579,94.));
#512=CARTESIAN_POINT('Ctrl Pts',(2.95224940845209,2.84460158199821,94.));
#513=CARTESIAN_POINT('Ctrl Pts',(1.06114814832089,3.65943323516625,93.9999999999999));
#514=CARTESIAN_POINT('Ctrl Pts',(-0.996835862941971,3.66966347950787,94.));
#515=CARTESIAN_POINT('Ctrl Pts',(-2.89386547215848,2.87739665520332,94.));
#516=CARTESIAN_POINT('Ctrl Pts',(-3.92069546982115,1.97864795168161,93.9999999999999));
#517=CARTESIAN_POINT('Ctrl Pts',(-4.48171507869047,0.941710507252782,94.));
#518=CARTESIAN_POINT('Ctrl Pts',(-4.59759790102565,0.315257137976692,94.));
#519=CARTESIAN_POINT('Ctrl Pts',(-4.59759790102565,9.11881171516263E-16,
94.));
#520=CARTESIAN_POINT('Ctrl Pts',(3.33303606567545,1.13808975898912,94.));
#521=CARTESIAN_POINT('Ctrl Pts',(3.0989959046773,1.48929942677118,94.));
#522=CARTESIAN_POINT('Ctrl Pts',(2.46536942861716,2.0718933183142,94.));
#523=CARTESIAN_POINT('Ctrl Pts',(0.901452433599115,2.75170169854327,93.9999999999999));
#524=CARTESIAN_POINT('Ctrl Pts',(-0.84746882230307,2.76069413230768,94.));
#525=CARTESIAN_POINT('Ctrl Pts',(-2.41838425208526,2.10051043991102,94.));
#526=CARTESIAN_POINT('Ctrl Pts',(-3.22289824592741,1.38489443416986,93.9999999999999));
#527=CARTESIAN_POINT('Ctrl Pts',(-3.62406938628405,0.63208983010385,94.));
#528=CARTESIAN_POINT('Ctrl Pts',(-3.7,0.211022064896699,94.));
#529=CARTESIAN_POINT('Ctrl Pts',(-3.7,6.93889390390723E-16,94.));
#530=CARTESIAN_POINT('',(-3.45205006170823,0.940142999196581,94.));
#531=CARTESIAN_POINT('',(-1.85,2.90015214376763,93.9640321853508));
#532=CARTESIAN_POINT('Ctrl Pts',(-3.45205006164076,0.940142999258381,94.));
#533=CARTESIAN_POINT('Ctrl Pts',(-3.69319291462253,0.891182623869983,94.));
#534=CARTESIAN_POINT('Ctrl Pts',(-3.93870181936552,0.887345681345646,93.9854952228961));
#535=CARTESIAN_POINT('Ctrl Pts',(-4.40686715294898,0.965378284809104,93.9082655249283));
#536=CARTESIAN_POINT('Ctrl Pts',(-4.62107964973284,1.04154919114813,93.850013037748));
#537=CARTESIAN_POINT('Ctrl Pts',(-5.0361962017289,1.27019470522824,93.6847503214113));
#538=CARTESIAN_POINT('Ctrl Pts',(-5.22513587897483,1.42869479003177,93.574516710743));
#539=CARTESIAN_POINT('Ctrl Pts',(-5.56496503394549,1.83112752696615,93.2961714479941));
#540=CARTESIAN_POINT('Ctrl Pts',(-5.69607919880556,2.08349998009074,93.1222996443854));
#541=CARTESIAN_POINT('Ctrl Pts',(-5.86262751502016,2.66166390828742,92.723870260748));
#542=CARTESIAN_POINT('Ctrl Pts',(-5.87044925436688,2.97886845758199,92.5043565184819));
#543=CARTESIAN_POINT('Ctrl Pts',(-5.77270778179974,3.49677750970499,92.168833493731));
#544=CARTESIAN_POINT('Ctrl Pts',(-5.69216896746736,3.71017323696505,92.0394070045875));
#545=CARTESIAN_POINT('Ctrl Pts',(-5.52026543167672,4.00675496184303,91.8983582861831));
#546=CARTESIAN_POINT('Ctrl Pts',(-5.44905645772226,4.10812748940012,91.8582939098168));
#547=CARTESIAN_POINT('Ctrl Pts',(-5.32478900442296,4.25255942445292,91.8209113322274));
#548=CARTESIAN_POINT('Ctrl Pts',(-5.28095506752052,4.29890601728708,91.8123391106013));
#549=CARTESIAN_POINT('Ctrl Pts',(-5.19724822772847,4.37920116129606,91.8046030367739));
#550=CARTESIAN_POINT('Ctrl Pts',(-5.15865776404331,4.41345512494457,91.8039413181568));
#551=CARTESIAN_POINT('Ctrl Pts',(-5.07146049107713,4.48500838907056,91.8086374823473));
#552=CARTESIAN_POINT('Ctrl Pts',(-5.02284469209276,4.52128585734629,91.8150885418711));
#553=CARTESIAN_POINT('Ctrl Pts',(-4.87539444385485,4.62133126191477,91.8448947215541));
#554=CARTESIAN_POINT('Ctrl Pts',(-4.77488460272488,4.6769613069222,91.8781181360551));
#555=CARTESIAN_POINT('Ctrl Pts',(-4.44526322160458,4.82581598141701,92.0155018850576));
#556=CARTESIAN_POINT('Ctrl Pts',(-4.19839055560874,4.88578883458231,92.1614337840774));
#557=CARTESIAN_POINT('Ctrl Pts',(-3.68990069227807,4.91008213903887,92.4942871152838));
#558=CARTESIAN_POINT('Ctrl Pts',(-3.42235982421081,4.87364491992539,92.6854120183116));
#559=CARTESIAN_POINT('Ctrl Pts',(-2.88478575135299,4.67635300515935,93.0802841888784));
#560=CARTESIAN_POINT('Ctrl Pts',(-2.6252894335785,4.51207641196147,93.27698250031));
#561=CARTESIAN_POINT('Ctrl Pts',(-2.2349874750356,4.10603102681173,93.5827251791739));
#562=CARTESIAN_POINT('Ctrl Pts',(-2.09056578423477,3.88841016042075,93.7001567943955));
#563=CARTESIAN_POINT('Ctrl Pts',(-1.90530521017755,3.42209771307969,93.8690843365436));
#564=CARTESIAN_POINT('Ctrl Pts',(-1.85595187407068,3.18816956757024,93.9246588700925));
#565=CARTESIAN_POINT('Ctrl Pts',(-1.85016720782143,2.93001939767262,93.9601798790193));
#566=CARTESIAN_POINT('Ctrl Pts',(-1.85,2.91508356685024,93.9621484239302));
#567=CARTESIAN_POINT('Ctrl Pts',(-1.85,2.90015214376763,93.9640321853508));
#568=CARTESIAN_POINT('',(-1.94956689843118,2.27697157063309,94.));
#569=CARTESIAN_POINT('Ctrl Pts',(-1.85,2.90015214376763,93.9640321853508));
#570=CARTESIAN_POINT('Ctrl Pts',(-1.85,2.68919966909106,93.9906461344136));
#571=CARTESIAN_POINT('Ctrl Pts',(-1.88329106609068,2.47908439499255,94.));
#572=CARTESIAN_POINT('Ctrl Pts',(-1.94956689853523,2.27697157053302,94.));
#573=CARTESIAN_POINT('',(3.33303606521085,1.13808975867953,94.));
#574=CARTESIAN_POINT('Ctrl Pts',(-1.94947643920855,2.27677912908353,94.));
#575=CARTESIAN_POINT('Ctrl Pts',(-1.71673247258336,2.38593197078909,94.));
#576=CARTESIAN_POINT('Ctrl Pts',(-0.67676347879978,2.75981641612149,94.));
#577=CARTESIAN_POINT('Ctrl Pts',(0.901452433599115,2.75170169854327,93.9999999999999));
#578=CARTESIAN_POINT('Ctrl Pts',(2.46536942861716,2.0718933183142,94.));
#579=CARTESIAN_POINT('Ctrl Pts',(3.0989959046773,1.48929942677118,94.));
#580=CARTESIAN_POINT('Ctrl Pts',(3.33303606567545,1.13808975898912,94.));
#581=CARTESIAN_POINT('',(6.66167293506222,3.35623686677053,90.));
#582=CARTESIAN_POINT('Origin',(3.33303606567544,1.13808975898912,90.));
#583=CARTESIAN_POINT('Ctrl Pts',(6.66167293506222,3.35623686677052,90.));
#584=CARTESIAN_POINT('Ctrl Pts',(6.06188460986484,4.25630229799281,90.));
#585=CARTESIAN_POINT('Ctrl Pts',(4.6356623795316,5.51881666227506,90.));
#586=CARTESIAN_POINT('Ctrl Pts',(1.61110321935095,6.8023725962214,90.));
#587=CARTESIAN_POINT('Ctrl Pts',(-1.51098752160557,6.81848359435101,90.));
#588=CARTESIAN_POINT('Ctrl Pts',(-4.53653588700053,5.56962063694479,90.));
#589=CARTESIAN_POINT('Ctrl Pts',(-6.33182318167339,4.03745365428508,90.));
#590=CARTESIAN_POINT('Ctrl Pts',(-7.4467209721179,2.01522256243098,90.));
#591=CARTESIAN_POINT('Ctrl Pts',(-7.7,0.677083067122537,90.));
#592=CARTESIAN_POINT('Ctrl Pts',(-7.7,1.66533453693773E-15,90.));
#593=CARTESIAN_POINT('Ctrl Pts',(-3.7,6.93889390390723E-16,94.));
#594=CARTESIAN_POINT('Ctrl Pts',(-3.7,0.211022064896699,94.));
#595=CARTESIAN_POINT('Ctrl Pts',(-3.64108941637092,0.537706475594863,94.));
#596=CARTESIAN_POINT('Ctrl Pts',(-3.50714409278243,0.837504980513173,94.));
#597=CARTESIAN_POINT('Ctrl Pts',(-3.45187591821741,0.940049619448547,94.));
#598=CARTESIAN_POINT('Ctrl Pts',(6.66167294019715,-3.35623685906485,90.));
#599=CARTESIAN_POINT('Ctrl Pts',(6.99009509206235,-2.86339394394393,90.));
#600=CARTESIAN_POINT('Ctrl Pts',(7.50180692990238,-1.84618097965175,90.));
#601=CARTESIAN_POINT('Ctrl Pts',(7.69996841272387,-0.556451634667973,90.));
#602=CARTESIAN_POINT('Ctrl Pts',(7.6999999906318,-0.000329968678842787,
90.));
#603=CARTESIAN_POINT('Ctrl Pts',(6.66167294019715,-3.35623685906485,91.1967972013675));
#604=CARTESIAN_POINT('Ctrl Pts',(6.99068175764293,-2.86251357100534,91.1967972013675));
#605=CARTESIAN_POINT('Ctrl Pts',(7.50208536031844,-1.84761258190422,91.1967972013675));
#606=CARTESIAN_POINT('Ctrl Pts',(7.69996834905045,-0.557572993598394,91.1967972013675));
#607=CARTESIAN_POINT('Ctrl Pts',(7.6999999906318,-0.000329968678842787,
91.1967972013675));
#608=CARTESIAN_POINT('Ctrl Pts',(5.82602125364119,-2.79937276162489,93.2689554637508));
#609=CARTESIAN_POINT('Ctrl Pts',(6.10407006856163,-2.38212201372906,93.2689554637508));
#610=CARTESIAN_POINT('Ctrl Pts',(6.53235191052145,-1.52745877876682,93.2689554637508));
#611=CARTESIAN_POINT('Ctrl Pts',(6.69577700633496,-0.460110473399028,93.2689554637508));
#612=CARTESIAN_POINT('Ctrl Pts',(6.69580311700089,-0.000272947997298242,
93.2689554637508));
#613=CARTESIAN_POINT('Ctrl Pts',(4.07998043519132,-1.63584080195558,94.));
#614=CARTESIAN_POINT('Ctrl Pts',(4.25292295265547,-1.3763166073441,94.));
#615=CARTESIAN_POINT('Ctrl Pts',(4.50680666370318,-0.861864330368814,94.));
#616=CARTESIAN_POINT('Ctrl Pts',(4.59758319364626,-0.259090019555468,94.));
#617=CARTESIAN_POINT('Ctrl Pts',(4.59759789665889,-0.000153806925636034,
94.));
#618=CARTESIAN_POINT('Ctrl Pts',(3.33303606767912,-1.13808975598233,94.));
#619=CARTESIAN_POINT('Ctrl Pts',(3.46118790059365,-0.945780185653425,94.));
#620=CARTESIAN_POINT('Ctrl Pts',(3.64037434617329,-0.577549899677314,94.));
#621=CARTESIAN_POINT('Ctrl Pts',(3.69999015539957,-0.173425653345324,94.));
#622=CARTESIAN_POINT('Ctrl Pts',(3.69999999708027,-0.000102839186808222,
94.));
#623=CARTESIAN_POINT('',(5.10000362299996,-9.43404672713875E-5,93.7470085529132));
#624=CARTESIAN_POINT('Ctrl Pts',(5.09999998670165,-0.000182334508559943,
93.7469988020735));
#625=CARTESIAN_POINT('Ctrl Pts',(5.09998343926472,-0.113623811326454,93.7470025779874));
#626=CARTESIAN_POINT('Ctrl Pts',(5.08452818141041,-0.226584104679037,93.7505512057258));
#627=CARTESIAN_POINT('Ctrl Pts',(5.00970993152696,-0.494696037446807,93.7674083860522));
#628=CARTESIAN_POINT('Ctrl Pts',(4.93465769885768,-0.64251375334131,93.7842157051482));
#629=CARTESIAN_POINT('Ctrl Pts',(4.74127532671238,-0.889114994864808,93.8249194113712));
#630=CARTESIAN_POINT('Ctrl Pts',(4.62871764138258,-0.989103125458084,93.8477407774389));
#631=CARTESIAN_POINT('Ctrl Pts',(4.37021548415332,-1.14696687713503,93.8953329735575));
#632=CARTESIAN_POINT('Ctrl Pts',(4.22510149033378,-1.20232302809151,93.9198008855576));
#633=CARTESIAN_POINT('Ctrl Pts',(3.94736932512079,-1.25276459172975,93.9585386161602));
#634=CARTESIAN_POINT('Ctrl Pts',(3.81822376336444,-1.25621812355693,93.9736102359964));
#635=CARTESIAN_POINT('Ctrl Pts',(3.56711508871745,-1.22390449412206,93.994268412994));
#636=CARTESIAN_POINT('Ctrl Pts',(3.44665284405354,-1.18969884497283,94.));
#637=CARTESIAN_POINT('Ctrl Pts',(3.33303606767795,-1.1380897559849,94.));
#638=CARTESIAN_POINT('',(7.6999999906318,-0.000329968678844734,90.));
#639=CARTESIAN_POINT('Ctrl Pts',(6.66167294019715,-3.35623685906485,90.));
#640=CARTESIAN_POINT('Ctrl Pts',(6.99009509206235,-2.86339394394393,90.));
#641=CARTESIAN_POINT('Ctrl Pts',(7.50180692990238,-1.84618097965175,90.));
#642=CARTESIAN_POINT('Ctrl Pts',(7.69996841272387,-0.556451634667973,90.));
#643=CARTESIAN_POINT('Ctrl Pts',(7.6999999906318,-0.000329968678842787,
90.));
#644=CARTESIAN_POINT('Origin',(3.69999999708027,-0.000102839186808534,90.));
#645=CARTESIAN_POINT('Ctrl Pts',(7.6999999906318,-0.000329968678843828,
90.));
#646=CARTESIAN_POINT('Ctrl Pts',(7.7000315741654,0.555890771681218,90.));
#647=CARTESIAN_POINT('Ctrl Pts',(7.50191749728469,1.84596050868875,90.));
#648=CARTESIAN_POINT('Ctrl Pts',(6.99015359652538,2.86330615140402,90.));
#649=CARTESIAN_POINT('Ctrl Pts',(6.66167293506222,3.35623686677053,90.));
#650=CARTESIAN_POINT('Ctrl Pts',(7.6999999906318,-0.000329968678843828,
91.1967972013675));
#651=CARTESIAN_POINT('Ctrl Pts',(7.70003163785017,0.557012330384347,91.1967972013675));
#652=CARTESIAN_POINT('Ctrl Pts',(7.50219614233321,1.84739255341616,91.1967972013675));
#653=CARTESIAN_POINT('Ctrl Pts',(6.99074036662225,2.86242562162696,91.1967972013675));
#654=CARTESIAN_POINT('Ctrl Pts',(6.66167293506222,3.35623686677053,91.1967972013675));
#655=CARTESIAN_POINT('Ctrl Pts',(6.695803117001,-0.000272947997299019,93.2689554637509));
#656=CARTESIAN_POINT('Ctrl Pts',(6.69582923231861,0.459646498531309,93.2689554637509));
#657=CARTESIAN_POINT('Ctrl Pts',(6.53244376479023,1.52727400328323,93.2689554637509));
#658=CARTESIAN_POINT('Ctrl Pts',(6.10411959964458,2.38204768675742,93.2689554637509));
#659=CARTESIAN_POINT('Ctrl Pts',(5.82602124929245,2.79937276815097,93.2689554637509));
#660=CARTESIAN_POINT('Ctrl Pts',(4.59759789665889,-0.000153806925636241,
94.));
#661=CARTESIAN_POINT('Ctrl Pts',(4.5976126022909,0.258828535793971,94.));
#662=CARTESIAN_POINT('Ctrl Pts',(4.50685947137416,0.861754248102736,94.));
#663=CARTESIAN_POINT('Ctrl Pts',(4.25295376036781,1.37627037689987,94.));
#664=CARTESIAN_POINT('Ctrl Pts',(4.07998043248499,1.6358408060168,94.));
#665=CARTESIAN_POINT('Ctrl Pts',(3.69999999708027,-0.000102839186808187,
94.));
#666=CARTESIAN_POINT('Ctrl Pts',(3.70000984051429,0.173250852835008,94.));
#667=CARTESIAN_POINT('Ctrl Pts',(3.64041051329496,0.577471901196351,94.));
#668=CARTESIAN_POINT('Ctrl Pts',(3.46121072940922,0.945745928442991,94.));
#669=CARTESIAN_POINT('Ctrl Pts',(3.33303606567544,1.13808975898912,94.));
#670=CARTESIAN_POINT('Ctrl Pts',(7.6999999906318,-0.000329968678843828,
90.));
#671=CARTESIAN_POINT('Ctrl Pts',(7.7000315741654,0.555890771681218,90.));
#672=CARTESIAN_POINT('Ctrl Pts',(7.50191749728469,1.84596050868875,90.));
#673=CARTESIAN_POINT('Ctrl Pts',(6.99015359652538,2.86330615140402,90.));
#674=CARTESIAN_POINT('Ctrl Pts',(6.66167293506222,3.35623686677053,90.));
#675=CARTESIAN_POINT('Ctrl Pts',(3.33303606714906,1.13808975574497,94.));
#676=CARTESIAN_POINT('Ctrl Pts',(3.43268159642601,1.18335256954853,94.0000000000154));
#677=CARTESIAN_POINT('Ctrl Pts',(3.53766900242039,1.21526215064739,93.9955972357457));
#678=CARTESIAN_POINT('Ctrl Pts',(3.78069870215767,1.25559687471795,93.9776476926588));
#679=CARTESIAN_POINT('Ctrl Pts',(3.9183857977593,1.25555394921819,93.9622124901806));
#680=CARTESIAN_POINT('Ctrl Pts',(4.20369695112021,1.2086125245086,93.9231444873215));
#681=CARTESIAN_POINT('Ctrl Pts',(4.34840654053117,1.1564167103408,93.899075858138));
#682=CARTESIAN_POINT('Ctrl Pts',(4.61943096425009,0.998269097426496,93.8496968466782));
#683=CARTESIAN_POINT('Ctrl Pts',(4.74208123612567,0.89048721774774,93.8247991735506));
#684=CARTESIAN_POINT('Ctrl Pts',(4.92388950634616,0.654062107113296,93.7864372691711));
#685=CARTESIAN_POINT('Ctrl Pts',(4.98891654569159,0.53302026421465,93.7720206298164));
#686=CARTESIAN_POINT('Ctrl Pts',(5.07734618083469,0.273701957039324,93.7522143704543));
#687=CARTESIAN_POINT('Ctrl Pts',(5.1,0.13743229866083,93.746998799039));
#688=CARTESIAN_POINT('Ctrl Pts',(5.1,1.52516888007881E-13,93.746998799039));
#689=CARTESIAN_POINT('Ctrl Pts',(-7.7,-8.00615252071602E-16,88.));
#690=CARTESIAN_POINT('Ctrl Pts',(-7.7,-8.00615252071602E-16,94.));
#691=CARTESIAN_POINT('Ctrl Pts',(-7.7,-1.78001287090254,88.));
#692=CARTESIAN_POINT('Ctrl Pts',(-7.7,-1.78001287090254,94.));
#693=CARTESIAN_POINT('Ctrl Pts',(-6.84607881136318,-3.56650036020139,88.));
#694=CARTESIAN_POINT('Ctrl Pts',(-6.84607881136318,-3.56650036020139,94.));
#695=CARTESIAN_POINT('Ctrl Pts',(-5.32777302597771,-4.83382139191761,88.));
#696=CARTESIAN_POINT('Ctrl Pts',(-5.32777302597771,-4.83382139191761,94.));
#697=CARTESIAN_POINT('Ctrl Pts',(-3.86619015652201,-6.05379613474394,88.));
#698=CARTESIAN_POINT('Ctrl Pts',(-3.86619015652201,-6.05379613474394,94.));
#699=CARTESIAN_POINT('Ctrl Pts',(-1.80063257585038,-6.75544709441683,88.));
#700=CARTESIAN_POINT('Ctrl Pts',(-1.80063257585038,-6.75544709441683,94.));
#701=CARTESIAN_POINT('Ctrl Pts',(0.25372222563815,-6.69635170911291,88.));
#702=CARTESIAN_POINT('Ctrl Pts',(0.25372222563815,-6.69635170911291,94.));
#703=CARTESIAN_POINT('Ctrl Pts',(2.28359922180622,-6.63796045015355,88.));
#704=CARTESIAN_POINT('Ctrl Pts',(2.28359922180622,-6.63796045015355,94.));
#705=CARTESIAN_POINT('Ctrl Pts',(4.26612926844591,-5.838812369512,88.));
#706=CARTESIAN_POINT('Ctrl Pts',(4.26612926844591,-5.838812369512,94.));
#707=CARTESIAN_POINT('Ctrl Pts',(5.62771631224158,-4.569212329079,88.));
#708=CARTESIAN_POINT('Ctrl Pts',(5.62771631224158,-4.569212329079,94.));
#709=CARTESIAN_POINT('Ctrl Pts',(6.96223091515441,-3.3248557515565,88.));
#710=CARTESIAN_POINT('Ctrl Pts',(6.96223091515441,-3.3248557515565,94.));
#711=CARTESIAN_POINT('Ctrl Pts',(7.69990568186967,-1.66121092480128,88.));
#712=CARTESIAN_POINT('Ctrl Pts',(7.69990568186967,-1.66121092480128,94.));
#713=CARTESIAN_POINT('Ctrl Pts',(7.6999999906318,-0.000329968678843958,
88.));
#714=CARTESIAN_POINT('Ctrl Pts',(7.6999999906318,-0.000329968678843958,
94.));
#715=CARTESIAN_POINT('',(-7.7,-8.00615252071602E-16,88.));
#716=CARTESIAN_POINT('',(-7.7,-8.00615252071602E-16,88.));
#717=CARTESIAN_POINT('',(7.6999999906318,-0.000329968678843958,88.));
#718=CARTESIAN_POINT('Ctrl Pts',(-7.7,-8.00615252071602E-16,88.));
#719=CARTESIAN_POINT('Ctrl Pts',(-7.7,-1.78001287090254,88.));
#720=CARTESIAN_POINT('Ctrl Pts',(-6.84607881136318,-3.56650036020139,88.));
#721=CARTESIAN_POINT('Ctrl Pts',(-5.32777302597771,-4.83382139191761,88.));
#722=CARTESIAN_POINT('Ctrl Pts',(-3.86619015652201,-6.05379613474394,88.));
#723=CARTESIAN_POINT('Ctrl Pts',(-1.80063257585038,-6.75544709441683,88.));
#724=CARTESIAN_POINT('Ctrl Pts',(0.25372222563815,-6.69635170911291,88.));
#725=CARTESIAN_POINT('Ctrl Pts',(2.28359922180622,-6.63796045015355,88.));
#726=CARTESIAN_POINT('Ctrl Pts',(4.26612926844591,-5.838812369512,88.));
#727=CARTESIAN_POINT('Ctrl Pts',(5.62771631224158,-4.569212329079,88.));
#728=CARTESIAN_POINT('Ctrl Pts',(6.96223091515441,-3.3248557515565,88.));
#729=CARTESIAN_POINT('Ctrl Pts',(7.69990568186967,-1.66121092480128,88.));
#730=CARTESIAN_POINT('Ctrl Pts',(7.6999999906318,-0.000329968678843958,
88.));
#731=CARTESIAN_POINT('',(7.6999999906318,-0.000329968678843958,88.));
#732=CARTESIAN_POINT('Origin',(3.85,1.53240308345106E-13,88.));
#733=CARTESIAN_POINT('',(5.1,1.53087227495213E-13,74.100001013279));
#734=CARTESIAN_POINT('',(5.1,1.53087227495213E-13,88.));
#735=CARTESIAN_POINT('Origin',(3.85,1.53240308345106E-13,72.850001013279));
#736=CARTESIAN_POINT('Origin',(3.85,1.53240308345106E-13,94.));
#737=CARTESIAN_POINT('Origin',(-0.700017221394073,-5.92241599943128E-5,
94.));
#738=CARTESIAN_POINT('Origin',(-3.85,2.90015214376763,94.));
#739=CARTESIAN_POINT('Origin',(-3.85,-2.90015214376762,94.));
#740=CARTESIAN_POINT('Ctrl Pts',(7.6999999906318,-0.000329968678843958,
88.));
#741=CARTESIAN_POINT('Ctrl Pts',(7.6999999906318,-0.000329968678843958,
94.));
#742=CARTESIAN_POINT('Ctrl Pts',(7.70001407100282,0.247640840791153,88.));
#743=CARTESIAN_POINT('Ctrl Pts',(7.70001407100282,0.247640840791153,94.));
#744=CARTESIAN_POINT('Ctrl Pts',(7.68415272333605,0.495453172185292,88.));
#745=CARTESIAN_POINT('Ctrl Pts',(7.68415272333605,0.495453172185292,94.));
#746=CARTESIAN_POINT('Ctrl Pts',(7.65249706963777,0.741897838322965,88.));
#747=CARTESIAN_POINT('Ctrl Pts',(7.65249706963777,0.741897838322965,94.));
#748=CARTESIAN_POINT('Ctrl Pts',(7.42887990162367,2.48279565200101,88.));
#749=CARTESIAN_POINT('Ctrl Pts',(7.42887990162367,2.48279565200101,94.));
#750=CARTESIAN_POINT('Ctrl Pts',(6.37713566852699,4.16172451278478,88.));
#751=CARTESIAN_POINT('Ctrl Pts',(6.37713566852699,4.16172451278478,94.));
#752=CARTESIAN_POINT('Ctrl Pts',(4.74318287276525,5.27500273882715,88.));
#753=CARTESIAN_POINT('Ctrl Pts',(4.74318287276525,5.27500273882715,94.));
#754=CARTESIAN_POINT('Ctrl Pts',(3.17028186317082,6.34668390993784,88.));
#755=CARTESIAN_POINT('Ctrl Pts',(3.17028186317082,6.34668390993784,94.));
#756=CARTESIAN_POINT('Ctrl Pts',(1.0712207109805,6.86373397908453,88.));
#757=CARTESIAN_POINT('Ctrl Pts',(1.0712207109805,6.86373397908453,94.));
#758=CARTESIAN_POINT('Ctrl Pts',(-0.93205795945765,6.65059964203149,88.));
#759=CARTESIAN_POINT('Ctrl Pts',(-0.93205795945765,6.65059964203149,94.));
#760=CARTESIAN_POINT('Ctrl Pts',(-2.90618877481092,6.44056642558723,88.));
#761=CARTESIAN_POINT('Ctrl Pts',(-2.90618877481092,6.44056642558723,94.));
#762=CARTESIAN_POINT('Ctrl Pts',(-4.76385696113225,5.52732718574789,88.));
#763=CARTESIAN_POINT('Ctrl Pts',(-4.76385696113225,5.52732718574789,94.));
#764=CARTESIAN_POINT('Ctrl Pts',(-5.98959891422666,4.20661620024861,88.));
#765=CARTESIAN_POINT('Ctrl Pts',(-5.98959891422666,4.20661620024861,94.));
#766=CARTESIAN_POINT('Ctrl Pts',(-7.09935827188623,3.01087400408612,88.));
#767=CARTESIAN_POINT('Ctrl Pts',(-7.09935827188623,3.01087400408612,94.));
#768=CARTESIAN_POINT('Ctrl Pts',(-7.7,1.50314768654669,88.));
#769=CARTESIAN_POINT('Ctrl Pts',(-7.7,1.50314768654669,94.));
#770=CARTESIAN_POINT('Ctrl Pts',(-7.7,8.00615252071602E-16,88.));
#771=CARTESIAN_POINT('Ctrl Pts',(-7.7,8.00615252071602E-16,94.));
#772=CARTESIAN_POINT('Ctrl Pts',(7.6999999906318,-0.000329968678843958,
88.));
#773=CARTESIAN_POINT('Ctrl Pts',(7.70001407100282,0.247640840791153,88.));
#774=CARTESIAN_POINT('Ctrl Pts',(7.68415272333605,0.495453172185292,88.));
#775=CARTESIAN_POINT('Ctrl Pts',(7.65249706963777,0.741897838322965,88.));
#776=CARTESIAN_POINT('Ctrl Pts',(7.42887990162367,2.48279565200101,88.));
#777=CARTESIAN_POINT('Ctrl Pts',(6.37713566852699,4.16172451278478,88.));
#778=CARTESIAN_POINT('Ctrl Pts',(4.74318287276525,5.27500273882715,88.));
#779=CARTESIAN_POINT('Ctrl Pts',(3.17028186317082,6.34668390993784,88.));
#780=CARTESIAN_POINT('Ctrl Pts',(1.0712207109805,6.86373397908453,88.));
#781=CARTESIAN_POINT('Ctrl Pts',(-0.93205795945765,6.65059964203149,88.));
#782=CARTESIAN_POINT('Ctrl Pts',(-2.90618877481092,6.44056642558723,88.));
#783=CARTESIAN_POINT('Ctrl Pts',(-4.76385696113225,5.52732718574789,88.));
#784=CARTESIAN_POINT('Ctrl Pts',(-5.98959891422666,4.20661620024861,88.));
#785=CARTESIAN_POINT('Ctrl Pts',(-7.09935827188623,3.01087400408612,88.));
#786=CARTESIAN_POINT('Ctrl Pts',(-7.7,1.50314768654669,88.));
#787=CARTESIAN_POINT('Ctrl Pts',(-7.7,8.00615252071602E-16,88.));
#788=CARTESIAN_POINT('Origin',(-3.85,-2.90015214376762,88.));
#789=CARTESIAN_POINT('',(-1.85,-2.90015214376762,68.));
#790=CARTESIAN_POINT('',(-1.85,-2.90015214376762,88.));
#791=CARTESIAN_POINT('Origin',(-3.85,-2.90015214376762,68.));
#792=CARTESIAN_POINT('Origin',(-3.85,2.90015214376763,88.));
#793=CARTESIAN_POINT('',(-1.85,2.90015214376763,68.));
#794=CARTESIAN_POINT('',(-1.85,2.90015214376763,88.));
#795=CARTESIAN_POINT('Origin',(-3.85,2.90015214376763,68.));
#796=CARTESIAN_POINT('Origin',(-1.,-3.09596177495981E-5,69.));
#797=CARTESIAN_POINT('',(-3.08148791101958E-32,-6.98499998480082,69.000001013279));
#798=CARTESIAN_POINT('',(-0.999999999780184,-6.94499079236679,68.));
#799=CARTESIAN_POINT('Ctrl Pts',(-0.000551201426246761,-6.98502089924476,
69.0000010132789));
#800=CARTESIAN_POINT('Ctrl Pts',(-0.000551127457426659,-6.98537130798683,
68.9766442079428));
#801=CARTESIAN_POINT('Ctrl Pts',(-0.0013690634086354,-6.98572192367397,
68.953261657824));
#802=CARTESIAN_POINT('Ctrl Pts',(-0.00301041828318782,-6.98607144288288,
68.9298960813919));
#803=CARTESIAN_POINT('Ctrl Pts',(-0.00734898902022229,-6.98699532219461,
68.8681341749729));
#804=CARTESIAN_POINT('Ctrl Pts',(-0.0174016350798698,-6.98790751007329,
68.8070422997967));
#805=CARTESIAN_POINT('Ctrl Pts',(-0.032969449412263,-6.98874193697427,68.7473906701643));
#806=CARTESIAN_POINT('Ctrl Pts',(-0.0485372637446561,-6.98957636387525,
68.6877390405319));
#807=CARTESIAN_POINT('Ctrl Pts',(-0.069620399641568,-6.99033254395334,68.6295276564433));
#808=CARTESIAN_POINT('Ctrl Pts',(-0.0960175500329163,-6.99088890220809,
68.5735267321994));
#809=CARTESIAN_POINT('Ctrl Pts',(-0.128451933217426,-6.99157250390581,68.5047179627419));
#810=CARTESIAN_POINT('Ctrl Pts',(-0.168574557035664,-6.99194626489219,68.439955586743));
#811=CARTESIAN_POINT('Ctrl Pts',(-0.215537563354215,-6.99172293523977,68.3804473632555));
#812=CARTESIAN_POINT('Ctrl Pts',(-0.240585320740238,-6.99160382218911,68.3487086041505));
#813=CARTESIAN_POINT('Ctrl Pts',(-0.267578671202257,-6.99131375573972,68.3184644574771));
#814=CARTESIAN_POINT('Ctrl Pts',(-0.296386946684213,-6.99080384612699,68.2898981627677));
#815=CARTESIAN_POINT('Ctrl Pts',(-0.349251621002813,-6.98986813563554,68.2374775356723));
#816=CARTESIAN_POINT('Ctrl Pts',(-0.407652626885923,-6.9881989686743,68.1912756903754));
#817=CARTESIAN_POINT('Ctrl Pts',(-0.470435296498076,-6.98554886056963,68.1520341617824));
#818=CARTESIAN_POINT('Ctrl Pts',(-0.519329312670411,-6.983485003946,68.1214735636824));
#819=CARTESIAN_POINT('Ctrl Pts',(-0.570880420654355,-6.98082628410209,68.0951344079792));
#820=CARTESIAN_POINT('Ctrl Pts',(-0.624536963448392,-6.97747749517067,68.0733669456843));
#821=CARTESIAN_POINT('Ctrl Pts',(-0.681718304056847,-6.97390871808326,68.0501695384186));
#822=CARTESIAN_POINT('Ctrl Pts',(-0.740842989939648,-6.96958231997491,68.0323457196829));
#823=CARTESIAN_POINT('Ctrl Pts',(-0.801153425775544,-6.96445862892134,68.0200769925031));
#824=CARTESIAN_POINT('Ctrl Pts',(-0.812656111909564,-6.96348141479214,68.0177370439344));
#825=CARTESIAN_POINT('Ctrl Pts',(-0.824201930091947,-6.96247535059926,68.0155991667547));
#826=CARTESIAN_POINT('Ctrl Pts',(-0.83578562648503,-6.96144038135262,68.0136646201915));
#827=CARTESIAN_POINT('Ctrl Pts',(-0.890299881770326,-6.95656969277368,68.0045604135874));
#828=CARTESIAN_POINT('Ctrl Pts',(-0.94541147719435,-6.95107726607466,68.0000000000009));
#829=CARTESIAN_POINT('Ctrl Pts',(-1.00056046334939,-6.94499681511874,68.));
#830=CARTESIAN_POINT('',(-1.,6.94499079231823,68.));
#831=CARTESIAN_POINT('',(-1.,-3.09596177495981E-5,68.));
#832=CARTESIAN_POINT('',(-3.08148791101958E-32,6.98499998480082,69.000001013279));
#833=CARTESIAN_POINT('Ctrl Pts',(-0.999783234757717,6.94510826869141,68.));
#834=CARTESIAN_POINT('Ctrl Pts',(-0.966090348847925,6.94882053642052,68.0000000000001));
#835=CARTESIAN_POINT('Ctrl Pts',(-0.932394222445093,6.95231640770985,68.0016982714083));
#836=CARTESIAN_POINT('Ctrl Pts',(-0.898822816084277,6.95558580152818,68.005095355372));
#837=CARTESIAN_POINT('Ctrl Pts',(-0.838815105428409,6.96142972823658,68.0111675237341));
#838=CARTESIAN_POINT('Ctrl Pts',(-0.779423304150728,6.96652594946365,68.0226450073141));
#839=CARTESIAN_POINT('Ctrl Pts',(-0.721371956587161,6.97087483177775,68.0394187891972));
#840=CARTESIAN_POINT('Ctrl Pts',(-0.718119917307414,6.97111845637394,68.0403584572642));
#841=CARTESIAN_POINT('Ctrl Pts',(-0.714872085225802,6.97135974912838,68.0413147464171));
#842=CARTESIAN_POINT('Ctrl Pts',(-0.711628587860405,6.97159871485042,68.04228763749));
#843=CARTESIAN_POINT('Ctrl Pts',(-0.6481008884605,6.97627913874046,68.0613428500185));
#844=CARTESIAN_POINT('Ctrl Pts',(-0.586666182874558,6.98003048162171,68.086637240806));
#845=CARTESIAN_POINT('Ctrl Pts',(-0.528216777381952,6.9829556694344,68.117780810571));
#846=CARTESIAN_POINT('Ctrl Pts',(-0.499379290449037,6.98439888454693,68.1331462754303));
#847=CARTESIAN_POINT('Ctrl Pts',(-0.471268403638911,6.98564187742719,68.1499355420828));
#848=CARTESIAN_POINT('Ctrl Pts',(-0.443990657909803,6.98670150921201,68.1681017728085));
#849=CARTESIAN_POINT('Ctrl Pts',(-0.363503125730447,6.98982812928633,68.2217042623484));
#850=CARTESIAN_POINT('Ctrl Pts',(-0.291343315210255,6.99131559008604,68.2865846502322));
#851=CARTESIAN_POINT('Ctrl Pts',(-0.229681997034616,6.99177722255863,68.3606240902624));
#852=CARTESIAN_POINT('Ctrl Pts',(-0.209135283532129,6.99193104720005,68.3852954272885));
#853=CARTESIAN_POINT('Ctrl Pts',(-0.18975382522273,6.99197112471056,68.4109837378532));
#854=CARTESIAN_POINT('Ctrl Pts',(-0.17161667969158,6.99191970067503,68.4376106270016));
#855=CARTESIAN_POINT('Ctrl Pts',(-0.13447924226794,6.99181440533523,68.4921315783738));
#856=CARTESIAN_POINT('Ctrl Pts',(-0.102924149954931,6.99133019136228,68.5500534611511));
#857=CARTESIAN_POINT('Ctrl Pts',(-0.0773284045473572,6.99065241832694,68.6104909319405));
#858=CARTESIAN_POINT('Ctrl Pts',(-0.0530549753035465,6.99000966010464,68.6678061086436));
#859=CARTESIAN_POINT('Ctrl Pts',(-0.0341407930937619,6.98919320541359,68.7273836688468));
#860=CARTESIAN_POINT('Ctrl Pts',(-0.0209023942383091,6.98831401102551,68.78846851717));
#861=CARTESIAN_POINT('Ctrl Pts',(-0.0201812209498925,6.98826611614676,68.7917961673956));
#862=CARTESIAN_POINT('Ctrl Pts',(-0.0194768904719809,6.98821802205055,68.7951282906801));
#863=CARTESIAN_POINT('Ctrl Pts',(-0.0187894537397175,6.98816974205402,68.798464764952));
#864=CARTESIAN_POINT('Ctrl Pts',(-0.0068966676687388,6.98733448894159,68.8561864037365));
#865=CARTESIAN_POINT('Ctrl Pts',(-0.000164093741026243,6.98645515447675,
68.9147103682493));
#866=CARTESIAN_POINT('Ctrl Pts',(0.00140130676940831,6.98557603451962,68.9733505563733));
#867=CARTESIAN_POINT('Ctrl Pts',(0.00163840156163588,6.98544288344283,68.9822321704566));
#868=CARTESIAN_POINT('Ctrl Pts',(0.00175696213091644,6.98530963991443,68.9911164507075));
#869=CARTESIAN_POINT('Ctrl Pts',(0.00175696470386821,6.98517635345788,69.000001013279));
#870=CARTESIAN_POINT('',(-3.08148791101958E-32,0.,69.000001013279));
#871=CARTESIAN_POINT('Ctrl Pts',(-7.7,-8.00615252071602E-16,88.));
#872=CARTESIAN_POINT('Ctrl Pts',(-7.8,-8.14391726185669E-16,81.3333333333333));
#873=CARTESIAN_POINT('Ctrl Pts',(-7.9,-8.28168200299737E-16,74.6666666666667));
#874=CARTESIAN_POINT('Ctrl Pts',(-8.,-8.41944674413805E-16,68.));
#875=CARTESIAN_POINT('Ctrl Pts',(-7.7,-0.978007712992537,88.));
#876=CARTESIAN_POINT('Ctrl Pts',(-7.80012673438202,-0.994870084114484,81.3333333333333));
#877=CARTESIAN_POINT('Ctrl Pts',(-7.89987326561797,-1.01163522380328,74.6666666666667));
#878=CARTESIAN_POINT('Ctrl Pts',(-8.,-1.02849759492523,68.));
#879=CARTESIAN_POINT('Ctrl Pts',(-7.19854759016121,-2.94122976963836,88.));
#880=CARTESIAN_POINT('Ctrl Pts',(-7.28945903155789,-2.99158135211961,81.3333333333333));
#881=CARTESIAN_POINT('Ctrl Pts',(-7.38044162788538,-3.04202172486467,74.6666666666667));
#882=CARTESIAN_POINT('Ctrl Pts',(-7.47135306928206,-3.09237330734592,68.));
#883=CARTESIAN_POINT('Ctrl Pts',(-5.04021492105511,-5.36804290618035,88.));
#884=CARTESIAN_POINT('Ctrl Pts',(-5.09920316504403,-5.45268156326771,81.3333333333333));
#885=CARTESIAN_POINT('Ctrl Pts',(-5.15804722745378,-5.53724857376273,74.6666666666667));
#886=CARTESIAN_POINT('Ctrl Pts',(-5.21703547144271,-5.62188723085008,68.));
#887=CARTESIAN_POINT('Ctrl Pts',(-1.80570292272699,-6.75689151199347,88.));
#888=CARTESIAN_POINT('Ctrl Pts',(-1.82575689342639,-6.8575533605127,81.3333333333333));
#889=CARTESIAN_POINT('Ctrl Pts',(-1.8458032870153,-6.9582309987961,74.6666666666667));
#890=CARTESIAN_POINT('Ctrl Pts',(-1.86585725771471,-7.05889284731533,68.));
#891=CARTESIAN_POINT('Ctrl Pts',(1.80485416913947,-6.75890666771683,88.));
#892=CARTESIAN_POINT('Ctrl Pts',(1.82491890139642,-6.85961685337363,81.3333333333334));
#893=CARTESIAN_POINT('Ctrl Pts',(1.84502985347816,-6.96031626810268,74.6666666666667));
#894=CARTESIAN_POINT('Ctrl Pts',(1.86509458573511,-7.06102645375947,68.));
#895=CARTESIAN_POINT('Ctrl Pts',(5.03785263159875,-5.3673411930837,88.));
#896=CARTESIAN_POINT('Ctrl Pts',(5.09680702320358,-5.45191496874195,81.3333333333333));
#897=CARTESIAN_POINT('Ctrl Pts',(5.15581200852349,-5.53651715728319,74.6666666666667));
#898=CARTESIAN_POINT('Ctrl Pts',(5.21476640012832,-5.62109093294144,68.));
#899=CARTESIAN_POINT('Ctrl Pts',(7.19953126128127,-2.93996374228234,88.));
#900=CARTESIAN_POINT('Ctrl Pts',(7.29053588435494,-2.99042155412192,81.3333333333333));
#901=CARTESIAN_POINT('Ctrl Pts',(7.3814421649857,-3.04085152090101,74.6666666666667));
#902=CARTESIAN_POINT('Ctrl Pts',(7.47244678805937,-3.09130933274059,68.));
#903=CARTESIAN_POINT('Ctrl Pts',(7.95273211490825,0.00124148615381417,88.));
#904=CARTESIAN_POINT('Ctrl Pts',(8.05725588762693,0.00125265060961838,81.3333333333333));
#905=CARTESIAN_POINT('Ctrl Pts',(8.16178974388993,0.00111644117528153,74.6666666666667));
#906=CARTESIAN_POINT('Ctrl Pts',(8.2663135166086,0.00112760563108574,68.));
#907=CARTESIAN_POINT('Ctrl Pts',(7.2807490264842,2.61047711894744,88.));
#908=CARTESIAN_POINT('Ctrl Pts',(7.3733080305729,2.65522312031425,81.3333333333333));
#909=CARTESIAN_POINT('Ctrl Pts',(7.46584795830404,2.70001007759212,74.6666666666667));
#910=CARTESIAN_POINT('Ctrl Pts',(7.55840696239274,2.74475607895893,68.));
#911=CARTESIAN_POINT('Ctrl Pts',(5.36542977946016,5.13168142678429,88.));
#912=CARTESIAN_POINT('Ctrl Pts',(5.42879584139297,5.21350498560141,81.3333333333334));
#913=CARTESIAN_POINT('Ctrl Pts',(5.49217232177434,5.29536276204079,74.6666666666667));
#914=CARTESIAN_POINT('Ctrl Pts',(5.55553838370715,5.3771863208579,68.));
#915=CARTESIAN_POINT('Ctrl Pts',(2.2137800579192,6.76024152582186,88.));
#916=CARTESIAN_POINT('Ctrl Pts',(2.23823643879357,6.86098837966571,81.3333333333334));
#917=CARTESIAN_POINT('Ctrl Pts',(2.26275830455459,6.96168374276897,74.6666666666667));
#918=CARTESIAN_POINT('Ctrl Pts',(2.28721468542896,7.06243059661283,68.));
#919=CARTESIAN_POINT('Ctrl Pts',(-1.81004461783303,6.75635584326858,88.));
#920=CARTESIAN_POINT('Ctrl Pts',(-1.83008754493387,6.85698388011897,81.3333333333333));
#921=CARTESIAN_POINT('Ctrl Pts',(-1.85014527815951,6.95769274505412,74.6666666666667));
#922=CARTESIAN_POINT('Ctrl Pts',(-1.87018820526035,7.0583207819045,68.));
#923=CARTESIAN_POINT('Ctrl Pts',(-5.03358720032996,5.36866229122957,88.));
#924=CARTESIAN_POINT('Ctrl Pts',(-5.0925552271734,5.45334097128181,81.3333333333333));
#925=CARTESIAN_POINT('Ctrl Pts',(-5.15141857612044,5.53797190007172,74.6666666666667));
#926=CARTESIAN_POINT('Ctrl Pts',(-5.21038660296388,5.62265058012397,68.));
#927=CARTESIAN_POINT('Ctrl Pts',(-7.20304951349924,2.93705490828937,88.));
#928=CARTESIAN_POINT('Ctrl Pts',(-7.29400401691085,2.98733710027183,81.3333333333333));
#929=CARTESIAN_POINT('Ctrl Pts',(-7.38503990144444,3.03772610769539,74.6666666666667));
#930=CARTESIAN_POINT('Ctrl Pts',(-7.47599440485606,3.08800829967785,68.));
#931=CARTESIAN_POINT('Ctrl Pts',(-7.7,0.978007712992537,88.));
#932=CARTESIAN_POINT('Ctrl Pts',(-7.80010739779205,0.994896064202127,81.3333333333333));
#933=CARTESIAN_POINT('Ctrl Pts',(-7.89989260220794,1.01160924371564,74.6666666666667));
#934=CARTESIAN_POINT('Ctrl Pts',(-8.,1.02849759492523,68.));
#935=CARTESIAN_POINT('Ctrl Pts',(-7.7,8.00615252071602E-16,88.));
#936=CARTESIAN_POINT('Ctrl Pts',(-7.8,8.14391726185669E-16,81.3333333333333));
#937=CARTESIAN_POINT('Ctrl Pts',(-7.9,8.28168200299737E-16,74.6666666666667));
#938=CARTESIAN_POINT('Ctrl Pts',(-8.,8.41944674413805E-16,68.));
#939=CARTESIAN_POINT('Ctrl Pts',(4.16333634234434E-16,-6.98499998480082,
69.000001013279));
#940=CARTESIAN_POINT('Ctrl Pts',(0.7997651772122,-6.97300350714263,69.7997661904912));
#941=CARTESIAN_POINT('Ctrl Pts',(1.60423472473474,-6.85565648308853,70.6042357380137));
#942=CARTESIAN_POINT('Ctrl Pts',(3.3121576483402,-6.35863214644223,72.3121586616192));
#943=CARTESIAN_POINT('Ctrl Pts',(4.23442098156968,-5.92532861772126,73.2344219948486));
#944=CARTESIAN_POINT('Ctrl Pts',(5.64509009078574,-4.8698114073874,74.6450911040647));
#945=CARTESIAN_POINT('Ctrl Pts',(6.19573879961117,-4.33349342564775,75.1957398128901));
#946=CARTESIAN_POINT('Ctrl Pts',(7.06354253698762,-3.11693460662823,76.0635435502666));
#947=CARTESIAN_POINT('Ctrl Pts',(7.40485241882535,-2.45707918071476,76.4048534321257));
#948=CARTESIAN_POINT('Ctrl Pts',(7.74341295312659,-1.29431664956898,76.743413966427));
#949=CARTESIAN_POINT('Ctrl Pts',(7.82325707371149,-0.856520505249321,76.8232580869905));
#950=CARTESIAN_POINT('Ctrl Pts',(7.8795815343663,-0.014711945989799,76.8795825476453));
#951=CARTESIAN_POINT('Ctrl Pts',(7.86780236934576,0.37571587988452,76.8678033826334));
#952=CARTESIAN_POINT('Ctrl Pts',(7.75477683330362,1.27048361702171,76.7547778465913));
#953=CARTESIAN_POINT('Ctrl Pts',(7.62855933327119,1.75511408669432,76.6285603465501));
#954=CARTESIAN_POINT('Ctrl Pts',(7.16836434404711,2.95494046036755,76.1683653573261));
#955=CARTESIAN_POINT('Ctrl Pts',(6.7603019288694,3.60216106984974,75.7603029421484));
#956=CARTESIAN_POINT('Ctrl Pts',(5.69625091588758,4.85807711282931,74.6962519291666));
#957=CARTESIAN_POINT('Ctrl Pts',(4.94501610791601,5.46367368855909,73.945017121195));
#958=CARTESIAN_POINT('Ctrl Pts',(2.85383719639214,6.599868271652,71.8538382096711));
#959=CARTESIAN_POINT('Ctrl Pts',(1.44278663778463,6.96335818523405,70.4427876510636));
#960=CARTESIAN_POINT('Ctrl Pts',(-1.94289029309402E-15,6.98499998480082,
69.000001013279));
#961=CARTESIAN_POINT('',(-8.,-8.41944926219262E-16,68.));
#962=CARTESIAN_POINT('Ctrl Pts',(-0.999783234758934,6.94510826869128,68.0000000000002));
#963=CARTESIAN_POINT('Ctrl Pts',(-1.26997199848095,6.91533898650457,68.0000000000002));
#964=CARTESIAN_POINT('Ctrl Pts',(-1.53831074573116,6.87351266203392,68.0000000000001));
#965=CARTESIAN_POINT('Ctrl Pts',(-1.80327750460754,6.81965888714733,68.0000000000001));
#966=CARTESIAN_POINT('Ctrl Pts',(-2.98358767116153,6.57976404797766,68.0000000000001));
#967=CARTESIAN_POINT('Ctrl Pts',(-4.09698713706271,6.10120731405081,68.0000000000001));
#968=CARTESIAN_POINT('Ctrl Pts',(-5.03128817032866,5.43948856701303,68.0000000000001));
#969=CARTESIAN_POINT('Ctrl Pts',(-5.96558920359461,4.77776981997526,68.0000000000001));
#970=CARTESIAN_POINT('Ctrl Pts',(-6.72079180422533,3.93288905982655,68.0000000000001));
#971=CARTESIAN_POINT('Ctrl Pts',(-7.22939450332668,2.99557100356404,68.));
#972=CARTESIAN_POINT('Ctrl Pts',(-7.73799720242803,2.05825294730154,68.));
#973=CARTESIAN_POINT('Ctrl Pts',(-8.,1.02849759492523,68.));
#974=CARTESIAN_POINT('Ctrl Pts',(-8.,1.11022302462516E-15,68.));
#975=CARTESIAN_POINT('',(-7.7,-8.00615252071602E-16,88.));
#976=CARTESIAN_POINT('Ctrl Pts',(-8.,-2.42467276318572E-16,68.));
#977=CARTESIAN_POINT('Ctrl Pts',(-7.99999999999997,-1.02849759492523,68.0000000000019));
#978=CARTESIAN_POINT('Ctrl Pts',(-7.73567653464097,-2.06043545113556,68.0000000000038));
#979=CARTESIAN_POINT('Ctrl Pts',(-7.22779520232158,-2.99799003315807,68.0000000000056));
#980=CARTESIAN_POINT('Ctrl Pts',(-6.71991387000218,-3.93554461518058,68.0000000000075));
#981=CARTESIAN_POINT('Ctrl Pts',(-5.96847467072239,-4.77871592301526,68.0000000000093));
#982=CARTESIAN_POINT('Ctrl Pts',(-5.0342253687945,-5.43980251301013,68.0000000000112));
#983=CARTESIAN_POINT('Ctrl Pts',(-4.09997606686661,-6.10088910300499,68.000000000013));
#984=CARTESIAN_POINT('Ctrl Pts',(-2.98291666229063,-6.57989097516003,68.0000000000149));
#985=CARTESIAN_POINT('Ctrl Pts',(-1.80256165276102,-6.81974751231157,68.0000000000168));
#986=CARTESIAN_POINT('Ctrl Pts',(-1.53793290396648,-6.87352195712194,68.0000000000172));
#987=CARTESIAN_POINT('Ctrl Pts',(-1.27012272565048,-6.91527623040137,68.0000000000176));
#988=CARTESIAN_POINT('Ctrl Pts',(-1.00056046310434,-6.94499681514549,68.000000000018));
#989=CARTESIAN_POINT('Origin',(-3.08148791101958E-32,0.,69.000001013279));
#990=CARTESIAN_POINT('Origin',(-0.727291660606539,-6.19192354991962E-5,
68.));
#991=CARTESIAN_POINT('',(0.,0.,0.));
#992=UNCERTAINTY_MEASURE_WITH_UNIT(LENGTH_MEASURE(0.01),#998,
'DISTANCE_ACCURACY_VALUE',
'Maximum model space distance between geometric entities at asserted c
onnectivities');
#993=UNCERTAINTY_MEASURE_WITH_UNIT(LENGTH_MEASURE(0.01),#998,
'DISTANCE_ACCURACY_VALUE',
'Maximum model space distance between geometric entities at asserted c
onnectivities');
#994=UNCERTAINTY_MEASURE_WITH_UNIT(LENGTH_MEASURE(0.01),#998,
'DISTANCE_ACCURACY_VALUE',
'Maximum model space distance between geometric entities at asserted c
onnectivities');
#995=(
GEOMETRIC_REPRESENTATION_CONTEXT(3)
GLOBAL_UNCERTAINTY_ASSIGNED_CONTEXT((#992))
GLOBAL_UNIT_ASSIGNED_CONTEXT((#998,#1000,#1001))
REPRESENTATION_CONTEXT('','3D')
);
#996=(
GEOMETRIC_REPRESENTATION_CONTEXT(3)
GLOBAL_UNCERTAINTY_ASSIGNED_CONTEXT((#993))
GLOBAL_UNIT_ASSIGNED_CONTEXT((#998,#1000,#1001))
REPRESENTATION_CONTEXT('','3D')
);
#997=(
GEOMETRIC_REPRESENTATION_CONTEXT(3)
GLOBAL_UNCERTAINTY_ASSIGNED_CONTEXT((#994))
GLOBAL_UNIT_ASSIGNED_CONTEXT((#998,#1000,#1001))
REPRESENTATION_CONTEXT('','3D')
);
#998=(
LENGTH_UNIT()
NAMED_UNIT(*)
SI_UNIT(.MILLI.,.METRE.)
);
#999=(
LENGTH_UNIT()
NAMED_UNIT(*)
SI_UNIT($,.METRE.)
);
#1000=(
NAMED_UNIT(*)
PLANE_ANGLE_UNIT()
SI_UNIT($,.RADIAN.)
);
#1001=(
NAMED_UNIT(*)
SI_UNIT($,.STERADIAN.)
SOLID_ANGLE_UNIT()
);
#1002=SHAPE_DEFINITION_REPRESENTATION(#1004,#1007);
#1003=SHAPE_DEFINITION_REPRESENTATION(#1005,#1008);
#1004=PRODUCT_DEFINITION_SHAPE('',$,#1010);
#1005=PRODUCT_DEFINITION_SHAPE('',$,#1011);
#1006=PRODUCT_DEFINITION_SHAPE($,$,#14);
#1007=SHAPE_REPRESENTATION('',(#282,#301),#995);
#1008=SHAPE_REPRESENTATION('',(#283),#996);
#1009=PRODUCT_DEFINITION_CONTEXT('part definition',#1017,'design');
#1010=PRODUCT_DEFINITION('2025-12-07-23-45-35-518','Pinky Finger',#1012,
#1009);
#1011=PRODUCT_DEFINITION('2025-12-07-23-59-18-244','Distal phalanx',#1013,
#1009);
#1012=PRODUCT_DEFINITION_FORMATION('',$,#1019);
#1013=PRODUCT_DEFINITION_FORMATION('',$,#1020);
#1014=PRODUCT_RELATED_PRODUCT_CATEGORY('Pinky Finger','Pinky Finger',(#1019));
#1015=PRODUCT_RELATED_PRODUCT_CATEGORY('Distal phalanx',
'Distal phalanx',(#1020));
#1016=APPLICATION_PROTOCOL_DEFINITION('international standard',
'automotive_design',2009,#1017);
#1017=APPLICATION_CONTEXT(
'Core Data for Automotive Mechanical Design Process');
#1018=PRODUCT_CONTEXT('part definition',#1017,'mechanical');
#1019=PRODUCT('2025-12-07-23-45-35-518','Pinky Finger',$,(#1018));
#1020=PRODUCT('2025-12-07-23-59-18-244','Distal phalanx',$,(#1018));
#1021=PRESENTATION_STYLE_ASSIGNMENT((#1022));
#1022=SURFACE_STYLE_USAGE(.BOTH.,#1023);
#1023=SURFACE_SIDE_STYLE('',(#1024));
#1024=SURFACE_STYLE_FILL_AREA(#1025);
#1025=FILL_AREA_STYLE('Steel - Satin',(#1026));
#1026=FILL_AREA_STYLE_COLOUR('Steel - Satin',#1027);
#1027=COLOUR_RGB('Steel - Satin',0.627450980392157,0.627450980392157,0.627450980392157);
ENDSEC;
END-ISO-10303-21;
