ISO-10303-21;
HEADER;
/* Generated by software containing ST-Developer
 * from STEP Tools, Inc. (www.steptools.com) 
 */

FILE_DESCRIPTION(
/* description */ (''),
/* implementation_level */ '2;1');

FILE_NAME(
/* name */ 'Pinky middle phalanx.step',
/* time_stamp */ '2026-01-04T20:37:56Z',
/* author */ (''),
/* organization */ (''),
/* preprocessor_version */ 'ST-DEVELOPER v20.1',
/* originating_system */ 'Autodesk Translation Framework v14.21.0.0',
/* authorisation */ '');

FILE_SCHEMA (('AUTOMOTIVE_DESIGN { 1 0 10303 214 3 1 1 }'));
ENDSEC;

DATA;
#10=MECHANICAL_DESIGN_GEOMETRIC_PRESENTATION_REPRESENTATION('',(#17),#604);
#11=ITEM_DEFINED_TRANSFORMATION($,$,#205,#221);
#12=(
REPRESENTATION_RELATIONSHIP($,$,#615,#614)
REPRESENTATION_RELATIONSHIP_WITH_TRANSFORMATION(#11)
SHAPE_REPRESENTATION_RELATIONSHIP()
);
#13=CONTEXT_DEPENDENT_SHAPE_REPRESENTATION(#12,#613);
#14=NEXT_ASSEMBLY_USAGE_OCCURRENCE('Middle phalanx:1',
'Middle phalanx:1','Middle phalanx:1',#617,#618,'Middle phalanx:1');
#15=SHAPE_REPRESENTATION_RELATIONSHIP('SRR','None',#615,#16);
#16=ADVANCED_BREP_SHAPE_REPRESENTATION('',(#18),#603);
#17=STYLED_ITEM('',(#628),#18);
#18=MANIFOLD_SOLID_BREP('Body1',#191);
#19=ELLIPSE('',#216,1.76776695296678,1.25);
#20=ELLIPSE('',#218,1.76776695296638,1.25);
#21=FACE_BOUND('',#58,.T.);
#22=FACE_BOUND('',#59,.T.);
#23=FACE_BOUND('',#61,.T.);
#24=FACE_BOUND('',#63,.T.);
#25=FACE_BOUND('',#66,.T.);
#26=FACE_BOUND('',#67,.T.);
#27=PLANE('',#214);
#28=PLANE('',#215);
#29=PLANE('',#217);
#30=PLANE('',#220);
#31=B_SPLINE_SURFACE_WITH_KNOTS('',3,3,((#349,#350,#351,#352),(#353,#354,
#355,#356),(#357,#358,#359,#360),(#361,#362,#363,#364),(#365,#366,#367,
#368),(#369,#370,#371,#372),(#373,#374,#375,#376),(#377,#378,#379,#380),
(#381,#382,#383,#384),(#385,#386,#387,#388),(#389,#390,#391,#392),(#393,
#394,#395,#396),(#397,#398,#399,#400),(#401,#402,#403,#404),(#405,#406,
#407,#408),(#409,#410,#411,#412),(#413,#414,#415,#416),(#417,#418,#419,
#420)),.UNSPECIFIED.,.T.,.F.,.F.,(4,1,1,1,1,1,1,1,1,1,1,1,1,1,1,4),(4,4),
(0.,0.0714285714285714,0.142857142857143,0.214285714285714,0.285714285714286,
0.357142857142857,0.428571428571429,0.476190476190476,0.571428571428571,
0.619047619047619,0.666666666666667,0.714285714285714,0.785714285714286,
0.857142857142857,0.928571428571429,1.),(0.,1.),.UNSPECIFIED.);
#32=B_SPLINE_CURVE_WITH_KNOTS('',3,(#283,#284,#285,#286,#287,#288,#289,
#290,#291,#292,#293,#294,#295,#296,#297,#298,#299,#300,#301,#302,#303,#304,
#305,#306,#307,#308,#309,#310,#311,#312,#313),.UNSPECIFIED.,.F.,.F.,(4,
3,3,3,3,3,3,3,3,3,4),(-0.157667848905461,-0.139613220205031,-0.128724913133994,
-0.108348996959376,-0.092127279482532,-0.064333780161862,-0.0524858529131096,
-0.0329510585741639,-0.0234038460619804,-0.00524719932804582,0.),
 .UNSPECIFIED.);
#33=B_SPLINE_CURVE_WITH_KNOTS('',3,(#317,#318,#319,#320,#321,#322,#323,
#324,#325,#326,#327,#328,#329,#330,#331,#332,#333,#334,#335,#336,#337,#338,
#339,#340,#341,#342,#343,#344,#345,#346,#347),.UNSPECIFIED.,.F.,.F.,(4,
3,3,3,3,3,3,3,3,3,4),(0.,0.0181160310296198,0.0204904123003562,0.0397688814198343,
0.04848696791703,0.0725033091430625,0.0877455714957642,0.108568871201527,
0.12731209202385,0.145392266681996,0.157685270547703),.UNSPECIFIED.);
#34=B_SPLINE_CURVE_WITH_KNOTS('',3,(#421,#422,#423,#424,#425,#426,#427,
#428,#429,#430,#431,#432,#433,#434,#435,#436,#437,#438,#439,#440),
 .UNSPECIFIED.,.F.,.F.,(4,2,2,2,2,2,2,2,2,4),(-3.78648663325099,-3.14555536713308,
-2.63274524991215,-2.29452197843834,-1.99627631092986,-1.76470888865595,
-1.50652073042506,-1.15768811070115,-0.703611388759366,-0.0500703528889736),
 .UNSPECIFIED.);
#35=B_SPLINE_CURVE_WITH_KNOTS('',3,(#442,#443,#444,#445,#446,#447,#448,
#449,#450,#451,#452,#453,#454),.UNSPECIFIED.,.F.,.F.,(4,3,3,3,4),(1.68798062824562,
1.79519580205131,2.24399475256414,2.69279370307697,3.14159265358979),
 .UNSPECIFIED.);
#36=B_SPLINE_CURVE_WITH_KNOTS('',3,(#458,#459,#460,#461,#462,#463,#464,
#465,#466,#467,#468,#469,#470),.UNSPECIFIED.,.F.,.F.,(4,3,3,3,4),(1.69445028508511,
1.79519580205131,2.24399475256414,2.69279370307697,3.14159265358979),
 .UNSPECIFIED.);
#37=B_SPLINE_CURVE_WITH_KNOTS('',3,(#472,#473,#474,#475,#476,#477,#478,
#479,#480,#481,#482,#483,#484,#485,#486,#487,#488,#489,#490,#491,#492,#493,
#494,#495,#496,#497,#498,#499,#500,#501,#502),.UNSPECIFIED.,.F.,.F.,(4,
3,3,3,3,3,3,3,3,3,4),(-0.157748426224962,-0.139966070373876,-0.131534375550535,
-0.111698288345532,-0.0946282237468081,-0.0633146058779129,-0.0548746627250273,
-0.0353037824266096,-0.0246724550377067,-0.00675694905340246,0.),
 .UNSPECIFIED.);
#38=B_SPLINE_CURVE_WITH_KNOTS('',3,(#504,#505,#506,#507,#508,#509,#510,
#511,#512,#513,#514,#515,#516,#517,#518,#519,#520,#521,#522,#523),
 .UNSPECIFIED.,.F.,.F.,(4,2,2,2,2,2,2,2,2,4),(-3.64633257811073,-2.9803190009492,
-2.50567295929709,-2.19224207923993,-1.91553671715339,-1.69316048123246,
-1.44468249399168,-1.1143111105273,-0.676645660074787,-0.0500707735424816),
 .UNSPECIFIED.);
#39=B_SPLINE_CURVE_WITH_KNOTS('',3,(#525,#526,#527,#528,#529,#530,#531,
#532,#533,#534,#535,#536,#537,#538,#539,#540,#541,#542,#543,#544,#545,#546,
#547,#548,#549,#550,#551,#552,#553,#554,#555,#556,#557,#558),
 .UNSPECIFIED.,.F.,.F.,(4,3,3,3,3,3,3,3,3,3,3,4),(0.,0.0137330470224855,
0.0322471190081992,0.0407363487928044,0.0632632384693705,0.076381442497469,
0.099414162612735,0.115936658250412,0.134332183363666,0.152231616876961,
0.155868553722207,0.157737393130878),.UNSPECIFIED.);
#40=B_SPLINE_CURVE_WITH_KNOTS('',3,(#559,#560,#561,#562,#563,#564,#565,
#566,#567,#568,#569,#570,#571),.UNSPECIFIED.,.F.,.F.,(4,3,3,3,4),(-3.14159265358979,
-2.69279370307697,-2.24399475256414,-1.79519580205131,-1.69452554175672),
 .UNSPECIFIED.);
#41=B_SPLINE_CURVE_WITH_KNOTS('',3,(#572,#573,#574,#575,#576,#577,#578,
#579,#580,#581,#582,#583,#584),.UNSPECIFIED.,.F.,.F.,(4,3,3,3,4),(-3.14159265358979,
-2.69279683325137,-2.24400101291295,-1.79520519257453,-1.68806558508037),
 .UNSPECIFIED.);
#42=FACE_OUTER_BOUND('',#52,.T.);
#43=FACE_OUTER_BOUND('',#53,.T.);
#44=FACE_OUTER_BOUND('',#54,.T.);
#45=FACE_OUTER_BOUND('',#55,.T.);
#46=FACE_OUTER_BOUND('',#56,.T.);
#47=FACE_OUTER_BOUND('',#57,.T.);
#48=FACE_OUTER_BOUND('',#60,.T.);
#49=FACE_OUTER_BOUND('',#62,.T.);
#50=FACE_OUTER_BOUND('',#64,.T.);
#51=FACE_OUTER_BOUND('',#65,.T.);
#52=EDGE_LOOP('',(#128,#129,#130,#131));
#53=EDGE_LOOP('',(#132,#133,#134,#135));
#54=EDGE_LOOP('',(#136,#137,#138,#139));
#55=EDGE_LOOP('',(#140,#141,#142,#143,#144,#145,#146,#147,#148,#149,#150,
#151));
#56=EDGE_LOOP('',(#152,#153,#154,#155));
#57=EDGE_LOOP('',(#156,#157,#158));
#58=EDGE_LOOP('',(#159));
#59=EDGE_LOOP('',(#160));
#60=EDGE_LOOP('',(#161,#162));
#61=EDGE_LOOP('',(#163));
#62=EDGE_LOOP('',(#164,#165));
#63=EDGE_LOOP('',(#166));
#64=EDGE_LOOP('',(#167,#168,#169,#170));
#65=EDGE_LOOP('',(#171,#172,#173));
#66=EDGE_LOOP('',(#174));
#67=EDGE_LOOP('',(#175));
#68=LINE('',#272,#76);
#69=LINE('',#278,#77);
#70=LINE('',#315,#78);
#71=LINE('',#348,#79);
#72=LINE('',#456,#80);
#73=LINE('',#586,#81);
#74=LINE('',#587,#82);
#75=LINE('',#596,#83);
#76=VECTOR('',#230,2.);
#77=VECTOR('',#237,2.);
#78=VECTOR('',#242,10.);
#79=VECTOR('',#243,10.);
#80=VECTOR('',#244,30.004166377355);
#81=VECTOR('',#247,10.);
#82=VECTOR('',#248,10.);
#83=VECTOR('',#261,1.25);
#84=CIRCLE('',#207,2.);
#85=CIRCLE('',#208,2.);
#86=CIRCLE('',#210,2.);
#87=CIRCLE('',#211,2.);
#88=VERTEX_POINT('',#269);
#89=VERTEX_POINT('',#271);
#90=VERTEX_POINT('',#275);
#91=VERTEX_POINT('',#277);
#92=VERTEX_POINT('',#281);
#93=VERTEX_POINT('',#282);
#94=VERTEX_POINT('',#314);
#95=VERTEX_POINT('',#316);
#96=VERTEX_POINT('',#441);
#97=VERTEX_POINT('',#455);
#98=VERTEX_POINT('',#457);
#99=VERTEX_POINT('',#471);
#100=VERTEX_POINT('',#503);
#101=VERTEX_POINT('',#524);
#102=VERTEX_POINT('',#590);
#103=VERTEX_POINT('',#593);
#104=EDGE_CURVE('',#88,#88,#84,.T.);
#105=EDGE_CURVE('',#88,#89,#68,.T.);
#106=EDGE_CURVE('',#89,#89,#85,.T.);
#107=EDGE_CURVE('',#90,#90,#86,.T.);
#108=EDGE_CURVE('',#90,#91,#69,.T.);
#109=EDGE_CURVE('',#91,#91,#87,.T.);
#110=EDGE_CURVE('',#92,#93,#32,.T.);
#111=EDGE_CURVE('',#93,#94,#70,.T.);
#112=EDGE_CURVE('',#94,#95,#33,.T.);
#113=EDGE_CURVE('',#92,#95,#71,.T.);
#114=EDGE_CURVE('',#92,#95,#34,.T.);
#115=EDGE_CURVE('',#94,#96,#35,.T.);
#116=EDGE_CURVE('',#97,#96,#72,.T.);
#117=EDGE_CURVE('',#98,#97,#36,.T.);
#118=EDGE_CURVE('',#99,#98,#37,.T.);
#119=EDGE_CURVE('',#99,#100,#38,.T.);
#120=EDGE_CURVE('',#101,#100,#39,.T.);
#121=EDGE_CURVE('',#97,#101,#40,.T.);
#122=EDGE_CURVE('',#96,#93,#41,.T.);
#123=EDGE_CURVE('',#98,#101,#73,.T.);
#124=EDGE_CURVE('',#100,#99,#74,.T.);
#125=EDGE_CURVE('',#102,#102,#19,.T.);
#126=EDGE_CURVE('',#103,#103,#20,.T.);
#127=EDGE_CURVE('',#102,#103,#75,.T.);
#128=ORIENTED_EDGE('',*,*,#104,.F.);
#129=ORIENTED_EDGE('',*,*,#105,.T.);
#130=ORIENTED_EDGE('',*,*,#106,.F.);
#131=ORIENTED_EDGE('',*,*,#105,.F.);
#132=ORIENTED_EDGE('',*,*,#107,.F.);
#133=ORIENTED_EDGE('',*,*,#108,.T.);
#134=ORIENTED_EDGE('',*,*,#109,.F.);
#135=ORIENTED_EDGE('',*,*,#108,.F.);
#136=ORIENTED_EDGE('',*,*,#110,.T.);
#137=ORIENTED_EDGE('',*,*,#111,.T.);
#138=ORIENTED_EDGE('',*,*,#112,.T.);
#139=ORIENTED_EDGE('',*,*,#113,.F.);
#140=ORIENTED_EDGE('',*,*,#110,.F.);
#141=ORIENTED_EDGE('',*,*,#114,.T.);
#142=ORIENTED_EDGE('',*,*,#112,.F.);
#143=ORIENTED_EDGE('',*,*,#115,.T.);
#144=ORIENTED_EDGE('',*,*,#116,.F.);
#145=ORIENTED_EDGE('',*,*,#117,.F.);
#146=ORIENTED_EDGE('',*,*,#118,.F.);
#147=ORIENTED_EDGE('',*,*,#119,.T.);
#148=ORIENTED_EDGE('',*,*,#120,.F.);
#149=ORIENTED_EDGE('',*,*,#121,.F.);
#150=ORIENTED_EDGE('',*,*,#116,.T.);
#151=ORIENTED_EDGE('',*,*,#122,.T.);
#152=ORIENTED_EDGE('',*,*,#118,.T.);
#153=ORIENTED_EDGE('',*,*,#123,.T.);
#154=ORIENTED_EDGE('',*,*,#120,.T.);
#155=ORIENTED_EDGE('',*,*,#124,.T.);
#156=ORIENTED_EDGE('',*,*,#123,.F.);
#157=ORIENTED_EDGE('',*,*,#117,.T.);
#158=ORIENTED_EDGE('',*,*,#121,.T.);
#159=ORIENTED_EDGE('',*,*,#104,.T.);
#160=ORIENTED_EDGE('',*,*,#107,.T.);
#161=ORIENTED_EDGE('',*,*,#119,.F.);
#162=ORIENTED_EDGE('',*,*,#124,.F.);
#163=ORIENTED_EDGE('',*,*,#125,.F.);
#164=ORIENTED_EDGE('',*,*,#114,.F.);
#165=ORIENTED_EDGE('',*,*,#113,.T.);
#166=ORIENTED_EDGE('',*,*,#126,.F.);
#167=ORIENTED_EDGE('',*,*,#125,.T.);
#168=ORIENTED_EDGE('',*,*,#127,.T.);
#169=ORIENTED_EDGE('',*,*,#126,.T.);
#170=ORIENTED_EDGE('',*,*,#127,.F.);
#171=ORIENTED_EDGE('',*,*,#111,.F.);
#172=ORIENTED_EDGE('',*,*,#122,.F.);
#173=ORIENTED_EDGE('',*,*,#115,.F.);
#174=ORIENTED_EDGE('',*,*,#106,.T.);
#175=ORIENTED_EDGE('',*,*,#109,.T.);
#176=CYLINDRICAL_SURFACE('',#206,2.);
#177=CYLINDRICAL_SURFACE('',#209,2.);
#178=CYLINDRICAL_SURFACE('',#212,1.);
#179=CYLINDRICAL_SURFACE('',#213,1.);
#180=CYLINDRICAL_SURFACE('',#219,1.25);
#181=ADVANCED_FACE('',(#42),#176,.F.);
#182=ADVANCED_FACE('',(#43),#177,.F.);
#183=ADVANCED_FACE('',(#44),#178,.T.);
#184=ADVANCED_FACE('',(#45),#31,.F.);
#185=ADVANCED_FACE('',(#46),#179,.T.);
#186=ADVANCED_FACE('',(#47,#21,#22),#27,.T.);
#187=ADVANCED_FACE('',(#48,#23),#28,.F.);
#188=ADVANCED_FACE('',(#49,#24),#29,.F.);
#189=ADVANCED_FACE('',(#50),#180,.F.);
#190=ADVANCED_FACE('',(#51,#25,#26),#30,.F.);
#191=CLOSED_SHELL('',(#181,#182,#183,#184,#185,#186,#187,#188,#189,#190));
#192=DERIVED_UNIT_ELEMENT(#194,1.);
#193=DERIVED_UNIT_ELEMENT(#606,-3.);
#194=(
MASS_UNIT()
NAMED_UNIT(*)
SI_UNIT(.KILO.,.GRAM.)
);
#195=DERIVED_UNIT((#192,#193));
#196=MEASURE_REPRESENTATION_ITEM('density measure',
POSITIVE_RATIO_MEASURE(7850.),#195);
#197=PROPERTY_DEFINITION_REPRESENTATION(#202,#199);
#198=PROPERTY_DEFINITION_REPRESENTATION(#203,#200);
#199=REPRESENTATION('material name',(#201),#603);
#200=REPRESENTATION('density',(#196),#603);
#201=DESCRIPTIVE_REPRESENTATION_ITEM('Steel','Steel');
#202=PROPERTY_DEFINITION('material property','material name',#618);
#203=PROPERTY_DEFINITION('material property','density of part',#618);
#204=AXIS2_PLACEMENT_3D('',#266,#222,#223);
#205=AXIS2_PLACEMENT_3D('',#267,#224,#225);
#206=AXIS2_PLACEMENT_3D('',#268,#226,#227);
#207=AXIS2_PLACEMENT_3D('',#270,#228,#229);
#208=AXIS2_PLACEMENT_3D('',#273,#231,#232);
#209=AXIS2_PLACEMENT_3D('',#274,#233,#234);
#210=AXIS2_PLACEMENT_3D('',#276,#235,#236);
#211=AXIS2_PLACEMENT_3D('',#279,#238,#239);
#212=AXIS2_PLACEMENT_3D('',#280,#240,#241);
#213=AXIS2_PLACEMENT_3D('',#585,#245,#246);
#214=AXIS2_PLACEMENT_3D('',#588,#249,#250);
#215=AXIS2_PLACEMENT_3D('',#589,#251,#252);
#216=AXIS2_PLACEMENT_3D('',#591,#253,#254);
#217=AXIS2_PLACEMENT_3D('',#592,#255,#256);
#218=AXIS2_PLACEMENT_3D('',#594,#257,#258);
#219=AXIS2_PLACEMENT_3D('',#595,#259,#260);
#220=AXIS2_PLACEMENT_3D('',#597,#262,#263);
#221=AXIS2_PLACEMENT_3D('',#598,#264,#265);
#222=DIRECTION('axis',(0.,0.,1.));
#223=DIRECTION('refdir',(1.,0.,0.));
#224=DIRECTION('axis',(0.,0.,1.));
#225=DIRECTION('refdir',(1.,0.,0.));
#226=DIRECTION('center_axis',(0.,0.,-1.));
#227=DIRECTION('ref_axis',(-1.,0.,0.));
#228=DIRECTION('center_axis',(0.,0.,-1.));
#229=DIRECTION('ref_axis',(-1.,0.,0.));
#230=DIRECTION('',(0.,0.,-1.));
#231=DIRECTION('center_axis',(1.36025952941453E-32,-8.79723994775678E-33,
1.));
#232=DIRECTION('ref_axis',(-1.,0.,0.));
#233=DIRECTION('center_axis',(0.,0.,-1.));
#234=DIRECTION('ref_axis',(-1.,0.,0.));
#235=DIRECTION('center_axis',(0.,0.,-1.));
#236=DIRECTION('ref_axis',(-1.,0.,0.));
#237=DIRECTION('',(0.,0.,-1.));
#238=DIRECTION('center_axis',(1.36025952941453E-32,-8.79723994775678E-33,
1.));
#239=DIRECTION('ref_axis',(-1.,0.,0.));
#240=DIRECTION('center_axis',(5.38675587167579E-49,-1.,-8.79723994775678E-33));
#241=DIRECTION('ref_axis',(0.707106781186549,0.,-0.707106781186546));
#242=DIRECTION('',(-5.38675587167579E-49,1.,8.79723994775678E-33));
#243=DIRECTION('',(0.,1.,0.));
#244=DIRECTION('',(-0.0166643523339934,-2.29588998293541E-18,-0.9998611400396));
#245=DIRECTION('center_axis',(0.,1.,0.));
#246=DIRECTION('ref_axis',(0.707106781186555,0.,0.70710678118654));
#247=DIRECTION('',(0.,-1.,0.));
#248=DIRECTION('',(0.,1.,0.));
#249=DIRECTION('center_axis',(0.,0.,1.));
#250=DIRECTION('ref_axis',(1.,0.,0.));
#251=DIRECTION('center_axis',(-0.707106781186714,0.,-0.707106781186381));
#252=DIRECTION('ref_axis',(-0.707106781186381,0.,0.707106781186714));
#253=DIRECTION('center_axis',(0.707106781186714,0.,0.707106781186381));
#254=DIRECTION('ref_axis',(-0.707106781186381,0.,0.707106781186714));
#255=DIRECTION('center_axis',(-0.70710678118655,0.,0.707106781186545));
#256=DIRECTION('ref_axis',(0.707106781186545,0.,0.70710678118655));
#257=DIRECTION('center_axis',(0.70710678118655,0.,-0.707106781186545));
#258=DIRECTION('ref_axis',(-0.707106781186545,0.,-0.70710678118655));
#259=DIRECTION('center_axis',(0.,0.,-1.));
#260=DIRECTION('ref_axis',(-1.,0.,0.));
#261=DIRECTION('',(0.,0.,-1.));
#262=DIRECTION('center_axis',(1.36025952941453E-32,-8.79723994775678E-33,
1.));
#263=DIRECTION('ref_axis',(1.,0.,-1.36025952941453E-32));
#264=DIRECTION('',(0.,0.,1.));
#265=DIRECTION('',(1.,0.,0.));
#266=CARTESIAN_POINT('',(0.,0.,0.));
#267=CARTESIAN_POINT('',(0.,0.,0.));
#268=CARTESIAN_POINT('Origin',(-4.49999999995468,-2.89285527710857,67.));
#269=CARTESIAN_POINT('',(-2.49999999995468,-2.89285527710857,67.));
#270=CARTESIAN_POINT('Origin',(-4.49999999995468,-2.89285527710857,67.));
#271=CARTESIAN_POINT('',(-2.49999999995468,-2.89285527710857,37.));
#272=CARTESIAN_POINT('',(-2.49999999995468,-2.89285527710857,67.));
#273=CARTESIAN_POINT('Origin',(-4.49999999995468,-2.89285527710857,37.));
#274=CARTESIAN_POINT('Origin',(-4.49999999993444,2.89285527710842,67.));
#275=CARTESIAN_POINT('',(-2.49999999993444,2.89285527710842,67.));
#276=CARTESIAN_POINT('Origin',(-4.49999999993444,2.89285527710842,67.));
#277=CARTESIAN_POINT('',(-2.49999999993444,2.89285527710842,37.));
#278=CARTESIAN_POINT('',(-2.49999999993444,2.89285527710842,67.));
#279=CARTESIAN_POINT('Origin',(-4.49999999993444,2.89285527710842,37.));
#280=CARTESIAN_POINT('Origin',(-1.,-1.03373777356162E-5,38.));
#281=CARTESIAN_POINT('',(-6.12323399573678E-17,-7.48333332414428,38.000000551343));
#282=CARTESIAN_POINT('',(-0.999999999852407,-7.44787133719908,37.));
#283=CARTESIAN_POINT('Ctrl Pts',(-0.000474367968248401,-7.48284782547976,
38.000000551343));
#284=CARTESIAN_POINT('Ctrl Pts',(-0.000474390308331822,-7.48384734627557,
37.9400339925416));
#285=CARTESIAN_POINT('Ctrl Pts',(-0.00586630480242805,-7.48484899681372,
37.8801970461382));
#286=CARTESIAN_POINT('Ctrl Pts',(-0.0165796513172976,-7.48581399902738,
37.8212164111929));
#287=CARTESIAN_POINT('Ctrl Pts',(-0.0230406098087649,-7.4863959683717,37.7856466260045));
#288=CARTESIAN_POINT('Ctrl Pts',(-0.0314369728051099,-7.48696357709502,
37.7503882815062));
#289=CARTESIAN_POINT('Ctrl Pts',(-0.0417531143765657,-7.48749919016351,
37.7156007709732));
#290=CARTESIAN_POINT('Ctrl Pts',(-0.0610583153679264,-7.48850151432407,
37.65050086146));
#291=CARTESIAN_POINT('Ctrl Pts',(-0.0869021537682929,-7.48938533301308,
37.5876701709289));
#292=CARTESIAN_POINT('Ctrl Pts',(-0.118813117770481,-7.48998856777225,37.5280459241041));
#293=CARTESIAN_POINT('Ctrl Pts',(-0.144218141918649,-7.49046881630446,37.4805777426258));
#294=CARTESIAN_POINT('Ctrl Pts',(-0.173468545708393,-7.49076969720309,37.4351418385853));
#295=CARTESIAN_POINT('Ctrl Pts',(-0.206322963526104,-7.49078639430158,37.3922111266685));
#296=CARTESIAN_POINT('Ctrl Pts',(-0.262614120156162,-7.49081500229555,37.3186557393181));
#297=CARTESIAN_POINT('Ctrl Pts',(-0.328725750096572,-7.49000472600923,37.2534461873501));
#298=CARTESIAN_POINT('Ctrl Pts',(-0.402657111341685,-7.4878504789517,37.1983245928366));
#299=CARTESIAN_POINT('Ctrl Pts',(-0.434172876209116,-7.48693215765222,37.1748271327256));
#300=CARTESIAN_POINT('Ctrl Pts',(-0.46710915507327,-7.48576976102437,37.1531628375435));
#301=CARTESIAN_POINT('Ctrl Pts',(-0.501308848633363,-7.48432679813267,37.1334666582665));
#302=CARTESIAN_POINT('Ctrl Pts',(-0.557697106775456,-7.48194764921185,37.1009917110997));
#303=CARTESIAN_POINT('Ctrl Pts',(-0.617011411888461,-7.47882394214798,37.0741592592323));
#304=CARTESIAN_POINT('Ctrl Pts',(-0.678393996579646,-7.47486149917727,37.0532822848287));
#305=CARTESIAN_POINT('Ctrl Pts',(-0.708393420705934,-7.4729249400074,37.0430791105447));
#306=CARTESIAN_POINT('Ctrl Pts',(-0.738886789972473,-7.47078877424331,37.0342984356158));
#307=CARTESIAN_POINT('Ctrl Pts',(-0.769773696191104,-7.46844663928503,37.0269767961959));
#308=CARTESIAN_POINT('Ctrl Pts',(-0.828513631454951,-7.46399242639446,37.0130526879506));
#309=CARTESIAN_POINT('Ctrl Pts',(-0.888292132307934,-7.45881915678156,37.0044968534933));
#310=CARTESIAN_POINT('Ctrl Pts',(-0.948381553433265,-7.45294771084353,37.0013602950476));
#311=CARTESIAN_POINT('Ctrl Pts',(-0.965747159250897,-7.45125088611416,37.0004538420219));
#312=CARTESIAN_POINT('Ctrl Pts',(-0.983138756320208,-7.44949608103186,36.9999999999996));
#313=CARTESIAN_POINT('Ctrl Pts',(-1.00053885317618,-7.44768461432139,37.));
#314=CARTESIAN_POINT('',(-0.999999999988894,7.44787133717051,37.));
#315=CARTESIAN_POINT('',(-1.,-1.03373777356162E-5,37.));
#316=CARTESIAN_POINT('',(-6.12323399573678E-17,7.48333332414428,38.000000551343));
#317=CARTESIAN_POINT('Ctrl Pts',(-0.999095550724391,7.44795242588827,37.));
#318=CARTESIAN_POINT('Ctrl Pts',(-0.9390409325026,7.45420091768275,37.0000000000013));
#319=CARTESIAN_POINT('Ctrl Pts',(-0.879072610632525,7.45977147092372,37.0054099345512));
#320=CARTESIAN_POINT('Ctrl Pts',(-0.819913959893937,7.46462742043882,37.0161903037895));
#321=CARTESIAN_POINT('Ctrl Pts',(-0.812160319370465,7.4652638664441,37.017603235064));
#322=CARTESIAN_POINT('Ctrl Pts',(-0.804420593598337,7.46588810995812,37.019108420134));
#323=CARTESIAN_POINT('Ctrl Pts',(-0.796696416080827,7.46650013397238,37.0207057700677));
#324=CARTESIAN_POINT('Ctrl Pts',(-0.733980996455528,7.47146938057346,37.0336752378401));
#325=CARTESIAN_POINT('Ctrl Pts',(-0.672693846649628,7.47559658826931,37.0526370047447));
#326=CARTESIAN_POINT('Ctrl Pts',(-0.613667569788186,7.47893582524046,37.077321275231));
#327=CARTESIAN_POINT('Ctrl Pts',(-0.586974776698845,7.48044589103297,37.0884839668268));
#328=CARTESIAN_POINT('Ctrl Pts',(-0.560744319275508,7.48179556309967,37.1008169210397));
#329=CARTESIAN_POINT('Ctrl Pts',(-0.535053010836531,7.48299326399373,37.114295187288));
#330=CARTESIAN_POINT('Ctrl Pts',(-0.464279311790051,7.48629265697036,37.1514247387625));
#331=CARTESIAN_POINT('Ctrl Pts',(-0.398338012087872,7.48840125786288,37.1968421693645));
#332=CARTESIAN_POINT('Ctrl Pts',(-0.338587167068956,7.4896153947225,37.2494815713005));
#333=CARTESIAN_POINT('Ctrl Pts',(-0.300665568312409,7.49038596141174,37.2828898064203));
#334=CARTESIAN_POINT('Ctrl Pts',(-0.265237058482016,7.49079758895564,37.3192070228734));
#335=CARTESIAN_POINT('Ctrl Pts',(-0.232644524653363,7.49093248864175,37.3581607326488));
#336=CARTESIAN_POINT('Ctrl Pts',(-0.188118057100209,7.49111678258244,37.4113775553576));
#337=CARTESIAN_POINT('Ctrl Pts',(-0.149353190972002,7.4907861124344,37.468957121855));
#338=CARTESIAN_POINT('Ctrl Pts',(-0.116893413241281,7.49016340525957,37.52991531685));
#339=CARTESIAN_POINT('Ctrl Pts',(-0.0876761042437993,7.48960290148493,37.5847842821852));
#340=CARTESIAN_POINT('Ctrl Pts',(-0.0635668417142865,7.48880609445068,37.6423905940823));
#341=CARTESIAN_POINT('Ctrl Pts',(-0.0449559635650232,7.48789969928816,37.7020165739424));
#342=CARTESIAN_POINT('Ctrl Pts',(-0.0270034586399404,7.48702536850761,37.7595332418028));
#343=CARTESIAN_POINT('Ctrl Pts',(-0.0143280824766703,7.48605785061902,37.8184164844513));
#344=CARTESIAN_POINT('Ctrl Pts',(-0.00700869838839147,7.48507150775198,
37.8779374397685));
#345=CARTESIAN_POINT('Ctrl Pts',(-0.00203213048497981,7.4844008772461,37.918406702242));
#346=CARTESIAN_POINT('Ctrl Pts',(0.000468480698555999,7.48372050978458,
37.9591707703895));
#347=CARTESIAN_POINT('Ctrl Pts',(0.000468607408667721,7.48303997419772,
38.000000551343));
#348=CARTESIAN_POINT('',(-6.12323399573678E-17,0.,38.000000551343));
#349=CARTESIAN_POINT('Ctrl Pts',(-8.,-8.41944674413805E-16,67.));
#350=CARTESIAN_POINT('Ctrl Pts',(-8.16666666666667,-8.64906801897818E-16,
57.));
#351=CARTESIAN_POINT('Ctrl Pts',(-8.33333333333333,-8.87868929381831E-16,
47.));
#352=CARTESIAN_POINT('Ctrl Pts',(-8.5,-9.10831056865844E-16,37.));
#353=CARTESIAN_POINT('Ctrl Pts',(-8.,-1.02849759492523,67.));
#354=CARTESIAN_POINT('Ctrl Pts',(-8.16688567321175,-1.05657087663662,57.));
#355=CARTESIAN_POINT('Ctrl Pts',(-8.33311432678825,-1.08457411643499,47.));
#356=CARTESIAN_POINT('Ctrl Pts',(-8.5,-1.11264739814639,37.));
#357=CARTESIAN_POINT('Ctrl Pts',(-7.47299052923835,-3.09028231032389,67.));
#358=CARTESIAN_POINT('Ctrl Pts',(-7.62452377073751,-3.1741676670067,57.));
#359=CARTESIAN_POINT('Ctrl Pts',(-7.77625659168103,-3.25815022159984,47.));
#360=CARTESIAN_POINT('Ctrl Pts',(-7.92778983318019,-3.34203557828265,37.));
#361=CARTESIAN_POINT('Ctrl Pts',(-5.21638450032915,-5.62218870264707,67.));
#362=CARTESIAN_POINT('Ctrl Pts',(-5.31471532727985,-5.7632489625525,57.));
#363=CARTESIAN_POINT('Ctrl Pts',(-5.41278158467394,-5.90422201814643,47.));
#364=CARTESIAN_POINT('Ctrl Pts',(-5.51111241162464,-6.04528227805186,37.));
#365=CARTESIAN_POINT('Ctrl Pts',(-1.8673115243486,-7.05920171983266,67.));
#366=CARTESIAN_POINT('Ctrl Pts',(-1.90071449297659,-7.22698607204857,57.));
#367=CARTESIAN_POINT('Ctrl Pts',(-1.93427271828995,-7.39478950816654,47.));
#368=CARTESIAN_POINT('Ctrl Pts',(-1.96767568691794,-7.56257386038245,37.));
#369=CARTESIAN_POINT('Ctrl Pts',(1.86656019208774,-7.05957661112497,67.));
#370=CARTESIAN_POINT('Ctrl Pts',(1.89992906928042,-7.22738120832388,57.));
#371=CARTESIAN_POINT('Ctrl Pts',(1.93345098596894,-7.39516641226182,47.));
#372=CARTESIAN_POINT('Ctrl Pts',(1.96681986316162,-7.56297100946073,37.));
#373=CARTESIAN_POINT('Ctrl Pts',(5.2148262868808,-5.62083729535394,67.));
#374=CARTESIAN_POINT('Ctrl Pts',(5.31327070884972,-5.76186035527628,57.));
#375=CARTESIAN_POINT('Ctrl Pts',(5.41134894928491,-5.90292149414702,47.));
#376=CARTESIAN_POINT('Ctrl Pts',(5.50979337125384,-6.04394455406935,37.));
#377=CARTESIAN_POINT('Ctrl Pts',(7.22136682143618,-3.3704594053959,67.));
#378=CARTESIAN_POINT('Ctrl Pts',(7.36678006506125,-3.46076305884981,57.));
#379=CARTESIAN_POINT('Ctrl Pts',(7.51243217161987,-3.55109314848695,47.));
#380=CARTESIAN_POINT('Ctrl Pts',(7.65784541524494,-3.64139680194086,37.));
#381=CARTESIAN_POINT('Ctrl Pts',(8.26136808384881,-0.371614309692876,67.));
#382=CARTESIAN_POINT('Ctrl Pts',(8.43545671991724,-0.382458996546741,57.));
#383=CARTESIAN_POINT('Ctrl Pts',(8.6089072835106,-0.393585530692797,47.));
#384=CARTESIAN_POINT('Ctrl Pts',(8.78299591957903,-0.404430217546662,37.));
#385=CARTESIAN_POINT('Ctrl Pts',(7.78865491715507,2.45232675155992,67.));
#386=CARTESIAN_POINT('Ctrl Pts',(7.94863408346192,2.52010251945972,57.));
#387=CARTESIAN_POINT('Ctrl Pts',(8.10886157769849,2.58792766432773,47.));
#388=CARTESIAN_POINT('Ctrl Pts',(8.26884074400534,2.65570343222752,37.));
#389=CARTESIAN_POINT('Ctrl Pts',(5.996061430743,4.78854892823544,67.));
#390=CARTESIAN_POINT('Ctrl Pts',(6.11245663768183,4.91109175565803,57.));
#391=CARTESIAN_POINT('Ctrl Pts',(6.22915995028273,5.03370142078565,47.));
#392=CARTESIAN_POINT('Ctrl Pts',(6.34555515722156,5.15624424820824,37.));
#393=CARTESIAN_POINT('Ctrl Pts',(4.10994438866893,6.12911928861985,67.));
#394=CARTESIAN_POINT('Ctrl Pts',(4.18671998829654,6.27958787055894,57.));
#395=CARTESIAN_POINT('Ctrl Pts',(4.26356297790342,6.43006279233402,47.));
#396=CARTESIAN_POINT('Ctrl Pts',(4.34033857753103,6.5805313742731,37.));
#397=CARTESIAN_POINT('Ctrl Pts',(1.45155568361753,7.05938891055463,67.));
#398=CARTESIAN_POINT('Ctrl Pts',(1.47752210165621,7.22717757421362,57.));
#399=CARTESIAN_POINT('Ctrl Pts',(1.50376879400341,7.39500029316596,47.));
#400=CARTESIAN_POINT('Ctrl Pts',(1.52973521204208,7.56278895682495,37.));
#401=CARTESIAN_POINT('Ctrl Pts',(-1.86633345583162,7.05965547450076,67.));
#402=CARTESIAN_POINT('Ctrl Pts',(-1.89976756761432,7.22743960104322,57.));
#403=CARTESIAN_POINT('Ctrl Pts',(-1.93318879036793,7.39528635564723,47.));
#404=CARTESIAN_POINT('Ctrl Pts',(-1.96662290215063,7.5630704821897,37.));
#405=CARTESIAN_POINT('Ctrl Pts',(-5.21438673350752,5.62145269999372,67.));
#406=CARTESIAN_POINT('Ctrl Pts',(-5.31268124665164,5.76252318852538,57.));
#407=CARTESIAN_POINT('Ctrl Pts',(-5.41069067153839,5.90359607703843,47.));
#408=CARTESIAN_POINT('Ctrl Pts',(-5.50898518468251,6.04466656557009,37.));
#409=CARTESIAN_POINT('Ctrl Pts',(-7.47435176701109,3.08827007620331,67.));
#410=CARTESIAN_POINT('Ctrl Pts',(-7.62593798705844,3.17211365058129,57.));
#411=CARTESIAN_POINT('Ctrl Pts',(-7.77765748103068,3.25603986755128,47.));
#412=CARTESIAN_POINT('Ctrl Pts',(-7.92924370107804,3.33988344192927,37.));
#413=CARTESIAN_POINT('Ctrl Pts',(-8.,1.02849759492523,67.));
#414=CARTESIAN_POINT('Ctrl Pts',(-8.16685842952842,1.05658867718331,57.));
#415=CARTESIAN_POINT('Ctrl Pts',(-8.33314157047158,1.08455631588831,47.));
#416=CARTESIAN_POINT('Ctrl Pts',(-8.5,1.11264739814639,37.));
#417=CARTESIAN_POINT('Ctrl Pts',(-8.,8.41944674413805E-16,67.));
#418=CARTESIAN_POINT('Ctrl Pts',(-8.16666666666667,8.64906801897818E-16,
57.));
#419=CARTESIAN_POINT('Ctrl Pts',(-8.33333333333333,8.87868929381831E-16,
47.));
#420=CARTESIAN_POINT('Ctrl Pts',(-8.5,9.10831056865844E-16,37.));
#421=CARTESIAN_POINT('Ctrl Pts',(1.38777878078145E-15,-7.48333332414428,
38.000000551343));
#422=CARTESIAN_POINT('Ctrl Pts',(1.18930494971252,-7.46351157498241,39.1893055010555));
#423=CARTESIAN_POINT('Ctrl Pts',(2.39378521494446,-7.22282752026871,40.3937857662875));
#424=CARTESIAN_POINT('Ctrl Pts',(4.43058790582077,-6.35851448116816,42.4305884571638));
#425=CARTESIAN_POINT('Ctrl Pts',(5.32100223840949,-5.80678430303976,43.3210027897525));
#426=CARTESIAN_POINT('Ctrl Pts',(6.61322911032383,-4.56941057932574,44.6132296616668));
#427=CARTESIAN_POINT('Ctrl Pts',(7.08937371032165,-3.98175606757591,45.089374261396));
#428=CARTESIAN_POINT('Ctrl Pts',(7.81091326068033,-2.69028410912225,45.8109138117547));
#429=CARTESIAN_POINT('Ctrl Pts',(8.07507027372564,-2.01101350608202,46.0750708250687));
#430=CARTESIAN_POINT('Ctrl Pts',(8.33357493196572,-0.693802792106369,46.3335754833087));
#431=CARTESIAN_POINT('Ctrl Pts',(8.37040825250854,-0.10301012096323,46.3704088038516));
#432=CARTESIAN_POINT('Ctrl Pts',(8.27622891184995,1.15323377853365,46.276229463193));
#433=CARTESIAN_POINT('Ctrl Pts',(8.12819921763134,1.7841677098803,46.1281997689744));
#434=CARTESIAN_POINT('Ctrl Pts',(7.60267892295312,3.16445713996828,45.6026794742961));
#435=CARTESIAN_POINT('Ctrl Pts',(7.17237521815872,3.85460167837756,45.1723757695017));
#436=CARTESIAN_POINT('Ctrl Pts',(6.04776299881845,5.19640936095371,44.0477635501615));
#437=CARTESIAN_POINT('Ctrl Pts',(5.25438313809829,5.84355105528006,43.2543836894413));
#438=CARTESIAN_POINT('Ctrl Pts',(3.03751333668231,7.06488808034009,41.0375138880253));
#439=CARTESIAN_POINT('Ctrl Pts',(1.5359267735311,7.45773454458543,39.5359273248741));
#440=CARTESIAN_POINT('Ctrl Pts',(5.55111512312578E-16,7.48333332414428,
38.000000551343));
#441=CARTESIAN_POINT('',(-8.5,-9.10830939445902E-16,37.));
#442=CARTESIAN_POINT('Ctrl Pts',(-0.999095550734189,7.44795242588726,37.));
#443=CARTESIAN_POINT('Ctrl Pts',(-1.30242599128321,7.41639185944073,37.));
#444=CARTESIAN_POINT('Ctrl Pts',(-1.60379745844356,7.37039391643495,37.));
#445=CARTESIAN_POINT('Ctrl Pts',(-1.90144946949481,7.30995037674721,37.));
#446=CARTESIAN_POINT('Ctrl Pts',(-3.14741032966125,7.0569358433165,37.));
#447=CARTESIAN_POINT('Ctrl Pts',(-4.32819775717187,6.5508012044433,37.));
#448=CARTESIAN_POINT('Ctrl Pts',(-5.32196789032644,5.84693669773323,37.));
#449=CARTESIAN_POINT('Ctrl Pts',(-6.31573802348101,5.14307219102315,37.));
#450=CARTESIAN_POINT('Ctrl Pts',(-7.12249086227953,4.24147781647621,37.));
#451=CARTESIAN_POINT('Ctrl Pts',(-7.66855635640927,3.23387161825702,37.));
#452=CARTESIAN_POINT('Ctrl Pts',(-8.21462185053902,2.22626542003783,37.));
#453=CARTESIAN_POINT('Ctrl Pts',(-8.5,1.11264739814639,37.));
#454=CARTESIAN_POINT('Ctrl Pts',(-8.5,1.11022302462516E-15,37.));
#455=CARTESIAN_POINT('',(-8.,-8.41944674413805E-16,67.));
#456=CARTESIAN_POINT('',(-8.,-8.41944674413805E-16,67.));
#457=CARTESIAN_POINT('',(-0.999999999999997,6.94499079231823,67.));
#458=CARTESIAN_POINT('Ctrl Pts',(-0.999257224552552,6.94505726141745,67.));
#459=CARTESIAN_POINT('Ctrl Pts',(-1.26918934092875,6.91541646051935,67.));
#460=CARTESIAN_POINT('Ctrl Pts',(-1.53732862607982,6.87370130613434,67.));
#461=CARTESIAN_POINT('Ctrl Pts',(-1.80223812179755,6.81990503134302,67.));
#462=CARTESIAN_POINT('Ctrl Pts',(-2.98235121505692,6.58025454966508,67.));
#463=CARTESIAN_POINT('Ctrl Pts',(-4.09836897428222,6.1008536248294,67.));
#464=CARTESIAN_POINT('Ctrl Pts',(-5.03303869281213,5.43895605844649,67.));
#465=CARTESIAN_POINT('Ctrl Pts',(-5.96770841134205,4.77705849206358,67.));
#466=CARTESIAN_POINT('Ctrl Pts',(-6.72103008917657,3.93266428413344,67.));
#467=CARTESIAN_POINT('Ctrl Pts',(-7.22910298634106,2.99552405984885,67.));
#468=CARTESIAN_POINT('Ctrl Pts',(-7.73717588350554,2.05838383556427,67.));
#469=CARTESIAN_POINT('Ctrl Pts',(-8.,1.02849759492523,67.));
#470=CARTESIAN_POINT('Ctrl Pts',(-8.,5.55111512312578E-16,67.));
#471=CARTESIAN_POINT('',(2.1570415377137E-31,7.01666665002704,66.0000009983778));
#472=CARTESIAN_POINT('Ctrl Pts',(0.000347319789925304,7.01631017606567,
66.0000009983778));
#473=CARTESIAN_POINT('Ctrl Pts',(0.0003468766805033,7.01532637419784,66.0590257065006));
#474=CARTESIAN_POINT('Ctrl Pts',(-0.00487901359604048,7.0143483581576,66.117961440002));
#475=CARTESIAN_POINT('Ctrl Pts',(-0.0152816546055012,7.01336132635608,66.1761120004871));
#476=CARTESIAN_POINT('Ctrl Pts',(-0.0202141784557186,7.01289331463699,66.20368471267));
#477=CARTESIAN_POINT('Ctrl Pts',(-0.026310583867734,7.0124225119247,66.2310808956619));
#478=CARTESIAN_POINT('Ctrl Pts',(-0.0335656660907646,7.01194325709649,66.2582263313743));
#479=CARTESIAN_POINT('Ctrl Pts',(-0.0506336811091259,7.01081578143817,66.3220875930631));
#480=CARTESIAN_POINT('Ctrl Pts',(-0.0739534325775626,7.00965599177028,66.3839597701555));
#481=CARTESIAN_POINT('Ctrl Pts',(-0.103104460995655,7.00834468459966,66.4429693979573));
#482=CARTESIAN_POINT('Ctrl Pts',(-0.128190554491479,7.00721623129736,66.4937504894152));
#483=CARTESIAN_POINT('Ctrl Pts',(-0.1575951121293,7.00597411883401,66.5424117008365));
#484=CARTESIAN_POINT('Ctrl Pts',(-0.191048489850274,7.00451180039877,66.5883963814404));
#485=CARTESIAN_POINT('Ctrl Pts',(-0.25241593695746,7.00182929850085,66.6727514644531));
#486=CARTESIAN_POINT('Ctrl Pts',(-0.326468144499357,6.99844092815559,66.746808458486));
#487=CARTESIAN_POINT('Ctrl Pts',(-0.410368760321567,6.99366971167984,66.8080229154734));
#488=CARTESIAN_POINT('Ctrl Pts',(-0.432982449707326,6.99238372818237,66.8245220162567));
#489=CARTESIAN_POINT('Ctrl Pts',(-0.456311392885106,6.99099743054523,66.8400881562856));
#490=CARTESIAN_POINT('Ctrl Pts',(-0.480299611123027,6.98949840531298,66.8546715145634));
#491=CARTESIAN_POINT('Ctrl Pts',(-0.535924458257947,6.98602240519622,66.8884879934226));
#492=CARTESIAN_POINT('Ctrl Pts',(-0.594602417748719,6.98196750402826,66.9167150863642));
#493=CARTESIAN_POINT('Ctrl Pts',(-0.655488057010197,6.97723611407205,66.9390231075474));
#494=CARTESIAN_POINT('Ctrl Pts',(-0.68856245910154,6.97466592025031,66.951141309334));
#495=CARTESIAN_POINT('Ctrl Pts',(-0.722288283599637,6.97189691115106,66.9615128531566));
#496=CARTESIAN_POINT('Ctrl Pts',(-0.756529941445683,6.96892004681002,66.9700848906339));
#497=CARTESIAN_POINT('Ctrl Pts',(-0.814232672592277,6.96390354896685,66.9845301600817));
#498=CARTESIAN_POINT('Ctrl Pts',(-0.873017366083546,6.95832700256917,66.9937703827385));
#499=CARTESIAN_POINT('Ctrl Pts',(-0.932184844323826,6.95220791213329,66.9977481168751));
#500=CARTESIAN_POINT('Ctrl Pts',(-0.954500241747607,6.94990005756505,66.9992483450536));
#501=CARTESIAN_POINT('Ctrl Pts',(-0.976870136056747,6.94751555071511,66.9999999999996));
#502=CARTESIAN_POINT('Ctrl Pts',(-0.999257224533443,6.94505726141955,67.));
#503=CARTESIAN_POINT('',(2.1570415377137E-31,-7.01666665002704,66.0000009983778));
#504=CARTESIAN_POINT('Ctrl Pts',(-4.9960036108132E-15,7.01666665002704,
66.0000009983778));
#505=CARTESIAN_POINT('Ctrl Pts',(1.24422636061821,7.03740375603735,64.755774637759));
#506=CARTESIAN_POINT('Ctrl Pts',(2.51235729297724,6.80480570186995,63.4876437053994));
#507=CARTESIAN_POINT('Ctrl Pts',(4.53334259906148,5.93055675050293,61.4666583993142));
#508=CARTESIAN_POINT('Ctrl Pts',(5.35996335909797,5.41159122588261,60.6400376392773));
#509=CARTESIAN_POINT('Ctrl Pts',(6.55855879306888,4.2506248488574,59.4414422053058));
#510=CARTESIAN_POINT('Ctrl Pts',(6.99969656950098,3.69972241653848,59.0003044291284));
#511=CARTESIAN_POINT('Ctrl Pts',(7.66679623014874,2.4898337115084,58.3332047684804));
#512=CARTESIAN_POINT('Ctrl Pts',(7.90985372587004,1.8541354805802,58.090147272504));
#513=CARTESIAN_POINT('Ctrl Pts',(8.14876172183395,0.604433697225444,57.85123927654));
#514=CARTESIAN_POINT('Ctrl Pts',(8.17914964340027,0.0337114188148958,57.8208513549733));
#515=CARTESIAN_POINT('Ctrl Pts',(8.07288178668673,-1.17802303570689,57.9271192116869));
#516=CARTESIAN_POINT('Ctrl Pts',(7.9194442309923,-1.78409403818973,58.0805567673818));
#517=CARTESIAN_POINT('Ctrl Pts',(7.392339657538,-3.08941925971923,58.6076613408363));
#518=CARTESIAN_POINT('Ctrl Pts',(6.97148393226936,-3.73374495834614,59.0285170661052));
#519=CARTESIAN_POINT('Ctrl Pts',(5.87053028147348,-4.99183390837077,60.1294707169016));
#520=CARTESIAN_POINT('Ctrl Pts',(5.09071262519633,-5.59618336732803,60.9092883731791));
#521=CARTESIAN_POINT('Ctrl Pts',(2.92654345049554,-6.7095436720805,63.0734575478809));
#522=CARTESIAN_POINT('Ctrl Pts',(1.47347126436166,-7.04122450443308,64.5265297340155));
#523=CARTESIAN_POINT('Ctrl Pts',(1.11022302462516E-15,-7.01666665002704,
66.0000009983778));
#524=CARTESIAN_POINT('',(-0.999999999778246,-6.94499079236721,67.));
#525=CARTESIAN_POINT('Ctrl Pts',(-1.00055797124223,-6.94482555709744,67.));
#526=CARTESIAN_POINT('Ctrl Pts',(-0.955044466870179,-6.94982515900649,66.9999999999993));
#527=CARTESIAN_POINT('Ctrl Pts',(-0.909552815855369,-6.95452434062378,66.996894755934));
#528=CARTESIAN_POINT('Ctrl Pts',(-0.864398553505551,-6.95890149312243,66.9906925994769));
#529=CARTESIAN_POINT('Ctrl Pts',(-0.803524279774632,-6.96480250812076,66.9823312233799));
#530=CARTESIAN_POINT('Ctrl Pts',(-0.743566621801956,-6.97008706690755,66.9683835984893));
#531=CARTESIAN_POINT('Ctrl Pts',(-0.685278807772099,-6.97477023959447,66.9490308559232));
#532=CARTESIAN_POINT('Ctrl Pts',(-0.658552183433401,-6.97691760777426,66.9401570717696));
#533=CARTESIAN_POINT('Ctrl Pts',(-0.632176683094641,-6.97893928719508,66.9301468703179));
#534=CARTESIAN_POINT('Ctrl Pts',(-0.606225039828598,-6.98084033965513,66.9190177134921));
#535=CARTESIAN_POINT('Ctrl Pts',(-0.537360158135808,-6.98588494324387,66.8894855539949));
#536=CARTESIAN_POINT('Ctrl Pts',(-0.472132353762483,-6.9900282338043,66.8523537133715));
#537=CARTESIAN_POINT('Ctrl Pts',(-0.411731354680563,-6.99346658510576,66.8083752709967));
#538=CARTESIAN_POINT('Ctrl Pts',(-0.376557718158434,-6.9954688585905,66.7827650696687));
#539=CARTESIAN_POINT('Ctrl Pts',(-0.343020796361076,-6.99723338345219,66.7548330867411));
#540=CARTESIAN_POINT('Ctrl Pts',(-0.311354284208266,-6.99880656384715,66.7247280390717));
#541=CARTESIAN_POINT('Ctrl Pts',(-0.255754759312933,-7.00156872729958,66.6718701070301));
#542=CARTESIAN_POINT('Ctrl Pts',(-0.206549178480011,-7.00371360895427,66.612906593139));
#543=CARTESIAN_POINT('Ctrl Pts',(-0.164616939663687,-7.00552641153324,66.5490722722768));
#544=CARTESIAN_POINT('Ctrl Pts',(-0.134536895732551,-7.00682682340613,66.503280794644));
#545=CARTESIAN_POINT('Ctrl Pts',(-0.108199339606487,-7.00795610956953,66.4549828514016));
#546=CARTESIAN_POINT('Ctrl Pts',(-0.0859262863709991,-7.00900256801788,
66.404634247494));
#547=CARTESIAN_POINT('Ctrl Pts',(-0.0611283067481191,-7.01016765548946,
66.3485780058759));
#548=CARTESIAN_POINT('Ctrl Pts',(-0.0415980173826664,-7.01122153592208,
66.2904975982757));
#549=CARTESIAN_POINT('Ctrl Pts',(-0.0275019287371838,-7.01225252586466,
66.2311464503346));
#550=CARTESIAN_POINT('Ctrl Pts',(-0.0137859842368798,-7.01325571201001,
66.1733958876316));
#551=CARTESIAN_POINT('Ctrl Pts',(-0.005215012756406,-7.01423734571157,66.1144421992084));
#552=CARTESIAN_POINT('Ctrl Pts',(-0.00194211518155973,-7.01522907760656,
66.0549794844942));
#553=CARTESIAN_POINT('Ctrl Pts',(-0.0012771040921398,-7.01543058489264,
66.0428974184388));
#554=CARTESIAN_POINT('Ctrl Pts',(-0.000830825129375033,-7.01563233753433,
66.0307943372011));
#555=CARTESIAN_POINT('Ctrl Pts',(-0.000604564134706775,-7.01583433383864,
66.0186760633028));
#556=CARTESIAN_POINT('Ctrl Pts',(-0.000488299898979349,-7.01593812966069,
66.0124490869953));
#557=CARTESIAN_POINT('Ctrl Pts',(-0.000430243879404006,-7.01604189330124,
66.0062237993127));
#558=CARTESIAN_POINT('Ctrl Pts',(-0.000430242295641703,-7.01614561475985,
66.0000009983778));
#559=CARTESIAN_POINT('Ctrl Pts',(-8.,-8.41944674413805E-16,67.));
#560=CARTESIAN_POINT('Ctrl Pts',(-8.,-1.02849759492523,67.));
#561=CARTESIAN_POINT('Ctrl Pts',(-7.73649526461917,-2.05938995262456,67.));
#562=CARTESIAN_POINT('Ctrl Pts',(-7.22864189211056,-2.99682053019475,67.));
#563=CARTESIAN_POINT('Ctrl Pts',(-6.72078851960195,-3.93425110776495,67.));
#564=CARTESIAN_POINT('Ctrl Pts',(-5.96858650996555,-4.77821990520601,67.));
#565=CARTESIAN_POINT('Ctrl Pts',(-5.03430667581726,-5.43970647345747,67.));
#566=CARTESIAN_POINT('Ctrl Pts',(-4.10002684166897,-6.10119304170894,67.));
#567=CARTESIAN_POINT('Ctrl Pts',(-2.98366918300878,-6.5801973807708,67.));
#568=CARTESIAN_POINT('Ctrl Pts',(-1.8031784009393,-6.81976203218378,67.));
#569=CARTESIAN_POINT('Ctrl Pts',(-1.53838207249312,-6.8734988686616,67.));
#570=CARTESIAN_POINT('Ctrl Pts',(-1.27035887672421,-6.91518826283872,67.));
#571=CARTESIAN_POINT('Ctrl Pts',(-1.00055797103407,-6.94482555712031,67.));
#572=CARTESIAN_POINT('Ctrl Pts',(-8.5,1.68327113852807E-15,37.));
#573=CARTESIAN_POINT('Ctrl Pts',(-8.49999999999999,-1.11264739814638,37.0000000000007));
#574=CARTESIAN_POINT('Ctrl Pts',(-8.21389491659007,-2.22734148821451,37.0000000000014));
#575=CARTESIAN_POINT('Ctrl Pts',(-7.66806280462585,-3.23522964987677,37.000000000002));
#576=CARTESIAN_POINT('Ctrl Pts',(-7.12223069266163,-4.24311781153903,37.0000000000027));
#577=CARTESIAN_POINT('Ctrl Pts',(-6.31667155214312,-5.14420004479542,37.0000000000034));
#578=CARTESIAN_POINT('Ctrl Pts',(-5.32331919443274,-5.84762309181204,37.000000000004));
#579=CARTESIAN_POINT('Ctrl Pts',(-4.32996683672237,-6.55104613882865,37.0000000000047));
#580=CARTESIAN_POINT('Ctrl Pts',(-3.14882126182014,-7.0568099996055,37.0000000000054));
#581=CARTESIAN_POINT('Ctrl Pts',(-1.90249921602244,-7.30975812150697,37.000000000006));
#582=CARTESIAN_POINT('Ctrl Pts',(-1.60496869379657,-7.37014362705038,37.0000000000062));
#583=CARTESIAN_POINT('Ctrl Pts',(-1.30372373167123,-7.41612103631628,37.0000000000064));
#584=CARTESIAN_POINT('Ctrl Pts',(-1.00053885299352,-7.4476846143403,37.0000000000065));
#585=CARTESIAN_POINT('Origin',(-1.,-9.70930850283565E-6,66.));
#586=CARTESIAN_POINT('',(-1.,-9.70930850283565E-6,67.));
#587=CARTESIAN_POINT('',(2.1570415377137E-31,0.,66.0000009983778));
#588=CARTESIAN_POINT('Origin',(-0.727301328562939,-1.94186170056713E-5,
67.));
#589=CARTESIAN_POINT('Origin',(9.00000013411045,0.,57.0000008642631));
#590=CARTESIAN_POINT('',(5.25,-1.81388768288655E-13,60.7500009983753));
#591=CARTESIAN_POINT('Origin',(4.,-1.81541849138548E-13,62.0000009983759));
#592=CARTESIAN_POINT('Origin',(-6.12323399573678E-17,0.,38.000000551343));
#593=CARTESIAN_POINT('',(5.25,-1.81694929988442E-13,43.250000551343));
#594=CARTESIAN_POINT('Origin',(4.,-1.81541849138548E-13,42.000000551343));
#595=CARTESIAN_POINT('Origin',(4.,-1.81541849138548E-13,67.));
#596=CARTESIAN_POINT('',(5.25,-1.81694929988442E-13,67.));
#597=CARTESIAN_POINT('Origin',(-0.772758380211779,-2.06747554712323E-5,
37.));
#598=CARTESIAN_POINT('',(0.,0.,0.));
#599=UNCERTAINTY_MEASURE_WITH_UNIT(LENGTH_MEASURE(0.01),#605,
'DISTANCE_ACCURACY_VALUE',
'Maximum model space distance between geometric entities at asserted c
onnectivities');
#600=UNCERTAINTY_MEASURE_WITH_UNIT(LENGTH_MEASURE(0.01),#605,
'DISTANCE_ACCURACY_VALUE',
'Maximum model space distance between geometric entities at asserted c
onnectivities');
#601=UNCERTAINTY_MEASURE_WITH_UNIT(LENGTH_MEASURE(0.01),#605,
'DISTANCE_ACCURACY_VALUE',
'Maximum model space distance between geometric entities at asserted c
onnectivities');
#602=(
GEOMETRIC_REPRESENTATION_CONTEXT(3)
GLOBAL_UNCERTAINTY_ASSIGNED_CONTEXT((#599))
GLOBAL_UNIT_ASSIGNED_CONTEXT((#605,#607,#608))
REPRESENTATION_CONTEXT('','3D')
);
#603=(
GEOMETRIC_REPRESENTATION_CONTEXT(3)
GLOBAL_UNCERTAINTY_ASSIGNED_CONTEXT((#600))
GLOBAL_UNIT_ASSIGNED_CONTEXT((#605,#607,#608))
REPRESENTATION_CONTEXT('','3D')
);
#604=(
GEOMETRIC_REPRESENTATION_CONTEXT(3)
GLOBAL_UNCERTAINTY_ASSIGNED_CONTEXT((#601))
GLOBAL_UNIT_ASSIGNED_CONTEXT((#605,#607,#608))
REPRESENTATION_CONTEXT('','3D')
);
#605=(
LENGTH_UNIT()
NAMED_UNIT(*)
SI_UNIT(.MILLI.,.METRE.)
);
#606=(
LENGTH_UNIT()
NAMED_UNIT(*)
SI_UNIT($,.METRE.)
);
#607=(
NAMED_UNIT(*)
PLANE_ANGLE_UNIT()
SI_UNIT($,.RADIAN.)
);
#608=(
NAMED_UNIT(*)
SI_UNIT($,.STERADIAN.)
SOLID_ANGLE_UNIT()
);
#609=SHAPE_DEFINITION_REPRESENTATION(#611,#614);
#610=SHAPE_DEFINITION_REPRESENTATION(#612,#615);
#611=PRODUCT_DEFINITION_SHAPE('',$,#617);
#612=PRODUCT_DEFINITION_SHAPE('',$,#618);
#613=PRODUCT_DEFINITION_SHAPE($,$,#14);
#614=SHAPE_REPRESENTATION('',(#204,#221),#602);
#615=SHAPE_REPRESENTATION('',(#205),#603);
#616=PRODUCT_DEFINITION_CONTEXT('part definition',#624,'design');
#617=PRODUCT_DEFINITION('2025-12-07-23-45-35-518','Pinky Finger',#619,#616);
#618=PRODUCT_DEFINITION('2025-12-07-23-54-06-963','Middle phalanx',#620,
#616);
#619=PRODUCT_DEFINITION_FORMATION('',$,#626);
#620=PRODUCT_DEFINITION_FORMATION('',$,#627);
#621=PRODUCT_RELATED_PRODUCT_CATEGORY('Pinky Finger','Pinky Finger',(#626));
#622=PRODUCT_RELATED_PRODUCT_CATEGORY('Middle phalanx','Middle phalanx',
(#627));
#623=APPLICATION_PROTOCOL_DEFINITION('international standard',
'automotive_design',2009,#624);
#624=APPLICATION_CONTEXT(
'Core Data for Automotive Mechanical Design Process');
#625=PRODUCT_CONTEXT('part definition',#624,'mechanical');
#626=PRODUCT('2025-12-07-23-45-35-518','Pinky Finger',$,(#625));
#627=PRODUCT('2025-12-07-23-54-06-963','Middle phalanx',$,(#625));
#628=PRESENTATION_STYLE_ASSIGNMENT((#629));
#629=SURFACE_STYLE_USAGE(.BOTH.,#630);
#630=SURFACE_SIDE_STYLE('',(#631));
#631=SURFACE_STYLE_FILL_AREA(#632);
#632=FILL_AREA_STYLE('Steel - Satin',(#633));
#633=FILL_AREA_STYLE_COLOUR('Steel - Satin',#634);
#634=COLOUR_RGB('Steel - Satin',0.627450980392157,0.627450980392157,0.627450980392157);
ENDSEC;
END-ISO-10303-21;
