ISO-10303-21;
HEADER;
/* Generated by software containing ST-Developer
 * from STEP Tools, Inc. (www.steptools.com) 
 */

FILE_DESCRIPTION(
/* description */ (''),
/* implementation_level */ '2;1');

FILE_NAME(
/* name */ 'Pinky proximal phalanx.step',
/* time_stamp */ '2026-01-04T20:37:25Z',
/* author */ (''),
/* organization */ (''),
/* preprocessor_version */ 'ST-DEVELOPER v20.1',
/* originating_system */ 'Autodesk Translation Framework v14.21.0.0',
/* authorisation */ '');

FILE_SCHEMA (('AUTOMOTIVE_DESIGN { 1 0 10303 214 3 1 1 }'));
ENDSEC;

DATA;
#10=MECHANICAL_DESIGN_GEOMETRIC_PRESENTATION_REPRESENTATION('',(#17),#579);
#11=ITEM_DEFINED_TRANSFORMATION($,$,#205,#223);
#12=(
REPRESENTATION_RELATIONSHIP($,$,#590,#589)
REPRESENTATION_RELATIONSHIP_WITH_TRANSFORMATION(#11)
SHAPE_REPRESENTATION_RELATIONSHIP()
);
#13=CONTEXT_DEPENDENT_SHAPE_REPRESENTATION(#12,#588);
#14=NEXT_ASSEMBLY_USAGE_OCCURRENCE('Proximal phalanx:1',
'Proximal phalanx:1','Proximal phalanx:1',#592,#593,
'Proximal phalanx:1');
#15=SHAPE_REPRESENTATION_RELATIONSHIP('SRR','None',#590,#16);
#16=ADVANCED_BREP_SHAPE_REPRESENTATION('',(#18),#578);
#17=STYLED_ITEM('',(#603),#18);
#18=MANIFOLD_SOLID_BREP('Body1',#191);
#19=FACE_BOUND('',#58,.T.);
#20=FACE_BOUND('',#59,.T.);
#21=FACE_BOUND('',#61,.T.);
#22=FACE_BOUND('',#63,.T.);
#23=FACE_BOUND('',#66,.T.);
#24=FACE_BOUND('',#67,.T.);
#25=PLANE('',#216);
#26=PLANE('',#217);
#27=PLANE('',#219);
#28=PLANE('',#222);
#29=ELLIPSE('',#213,9.,8.);
#30=ELLIPSE('',#214,9.,8.);
#31=ELLIPSE('',#218,1.76776695296637,1.25);
#32=ELLIPSE('',#220,1.76776695296637,1.25);
#33=B_SPLINE_SURFACE_WITH_KNOTS('',3,3,((#355,#356,#357,#358),(#359,#360,
#361,#362),(#363,#364,#365,#366),(#367,#368,#369,#370),(#371,#372,#373,
#374),(#375,#376,#377,#378),(#379,#380,#381,#382),(#383,#384,#385,#386),
(#387,#388,#389,#390),(#391,#392,#393,#394),(#395,#396,#397,#398),(#399,
#400,#401,#402),(#403,#404,#405,#406),(#407,#408,#409,#410),(#411,#412,
#413,#414),(#415,#416,#417,#418),(#419,#420,#421,#422)),.UNSPECIFIED.,.T.,
 .F.,.F.,(4,1,1,1,1,1,1,1,1,1,1,1,1,1,4),(4,4),(0.,0.0714285714285714,0.142857142857143,
0.214285714285714,0.285714285714286,0.357142857142857,0.428571428571429,
0.476190476190476,0.571428571428571,0.619047619047619,0.714285714285714,
0.785714285714286,0.857142857142857,0.928571428571429,1.),(0.,1.),
 .UNSPECIFIED.);
#34=B_SPLINE_CURVE_WITH_KNOTS('',3,(#289,#290,#291,#292,#293,#294,#295,
#296,#297,#298,#299,#300,#301,#302,#303,#304,#305,#306,#307,#308,#309,#310,
#311,#312,#313,#314,#315,#316,#317,#318,#319),.UNSPECIFIED.,.F.,.F.,(4,
3,3,3,3,3,3,3,3,3,4),(-0.157661535869485,-0.139474567656418,-0.135214865816291,
-0.115281242939789,-0.0979818207972802,-0.0668776902879489,-0.0583202642377138,
-0.0380814186694377,-0.0265070121330137,-0.00807754348736913,0.),
 .UNSPECIFIED.);
#35=B_SPLINE_CURVE_WITH_KNOTS('',3,(#323,#324,#325,#326,#327,#328,#329,
#330,#331,#332,#333,#334,#335,#336,#337,#338,#339,#340,#341,#342,#343,#344,
#345,#346,#347,#348,#349,#350,#351,#352,#353),.UNSPECIFIED.,.F.,.F.,(4,
3,3,3,3,3,3,3,3,3,4),(0.,0.00389442662733996,0.0224426600273676,0.0308155810732308,
0.0516531925379549,0.0640254664952966,0.0929503232660779,0.103489425177852,
0.123339871783154,0.143190318388456,0.157656060965841),.UNSPECIFIED.);
#36=B_SPLINE_CURVE_WITH_KNOTS('',3,(#423,#424,#425,#426,#427,#428,#429,
#430,#431,#432,#433,#434,#435,#436,#437,#438,#439,#440,#441,#442),
 .UNSPECIFIED.,.F.,.F.,(4,2,2,2,2,2,2,2,2,4),(-4.02209207351202,-3.28601427303445,
-2.759876633457,-2.40787694812702,-2.13866184006043,-1.88263160305688,-1.60199632185471,
-1.23288180425761,-0.742692166151146,-0.0500649295382819),.UNSPECIFIED.);
#37=B_SPLINE_CURVE_WITH_KNOTS('',3,(#448,#449,#450,#451,#452,#453,#454,
#455,#456,#457,#458,#459,#460),.UNSPECIFIED.,.F.,.F.,(4,3,3,3,4),(1.68795601525481,
1.79519580205131,2.24399475256414,2.69279370307697,3.14159265358979),
 .UNSPECIFIED.);
#38=B_SPLINE_CURVE_WITH_KNOTS('',3,(#462,#463,#464,#465,#466,#467,#468,
#469,#470,#471,#472,#473,#474,#475,#476,#477,#478,#479,#480,#481,#482,#483,
#484,#485,#486,#487,#488,#489,#490,#491,#492),.UNSPECIFIED.,.F.,.F.,(4,
3,3,3,3,3,3,3,3,3,4),(-0.1577298148652,-0.139808620161454,-0.138345146194245,
-0.118932436429084,-0.100821454687662,-0.0694946689926839,-0.0607413653515741,
-0.040527879368291,-0.0278589029660951,-0.0096515641749147,0.),
 .UNSPECIFIED.);
#39=B_SPLINE_CURVE_WITH_KNOTS('',3,(#494,#495,#496,#497,#498,#499,#500,
#501,#502,#503,#504,#505,#506,#507,#508,#509,#510,#511,#512,#513),
 .UNSPECIFIED.,.F.,.F.,(4,2,2,2,2,2,2,2,2,4),(-3.84670366699067,-3.10653486875444,
-2.62136359777813,-2.29565562570708,-2.04476189553712,-1.80385768374778,
-1.53858008426231,-1.18618895540945,-0.714068160101209,-0.0500658104697337),
 .UNSPECIFIED.);
#40=B_SPLINE_CURVE_WITH_KNOTS('',3,(#515,#516,#517,#518,#519,#520,#521,
#522,#523,#524,#525,#526,#527,#528,#529,#530,#531,#532,#533,#534,#535,#536,
#537,#538,#539,#540,#541,#542,#543,#544,#545),.UNSPECIFIED.,.F.,.F.,(4,
3,3,3,3,3,3,3,3,3,4),(0.,0.0181758656516442,0.0258189498687398,0.0457869290405212,
0.058155458303689,0.0925665681937924,0.096043460743954,0.115895248696346,
0.135747036648738,0.153708921714296,0.157727882925047),.UNSPECIFIED.);
#41=B_SPLINE_CURVE_WITH_KNOTS('',3,(#546,#547,#548,#549,#550,#551,#552,
#553,#554,#555,#556,#557,#558),.UNSPECIFIED.,.F.,.F.,(4,3,3,3,4),(-3.14159265358979,
-2.69279370307697,-2.24399475256414,-1.79519580205131,-1.68795601483288),
 .UNSPECIFIED.);
#42=FACE_OUTER_BOUND('',#52,.T.);
#43=FACE_OUTER_BOUND('',#53,.T.);
#44=FACE_OUTER_BOUND('',#54,.T.);
#45=FACE_OUTER_BOUND('',#55,.T.);
#46=FACE_OUTER_BOUND('',#56,.T.);
#47=FACE_OUTER_BOUND('',#57,.T.);
#48=FACE_OUTER_BOUND('',#60,.T.);
#49=FACE_OUTER_BOUND('',#62,.T.);
#50=FACE_OUTER_BOUND('',#64,.T.);
#51=FACE_OUTER_BOUND('',#65,.T.);
#52=EDGE_LOOP('',(#128,#129,#130,#131));
#53=EDGE_LOOP('',(#132,#133,#134,#135));
#54=EDGE_LOOP('',(#136,#137,#138,#139));
#55=EDGE_LOOP('',(#140,#141,#142,#143,#144,#145,#146,#147,#148,#149,#150,
#151));
#56=EDGE_LOOP('',(#152,#153,#154,#155));
#57=EDGE_LOOP('',(#156,#157,#158));
#58=EDGE_LOOP('',(#159));
#59=EDGE_LOOP('',(#160));
#60=EDGE_LOOP('',(#161,#162));
#61=EDGE_LOOP('',(#163));
#62=EDGE_LOOP('',(#164,#165));
#63=EDGE_LOOP('',(#166));
#64=EDGE_LOOP('',(#167,#168,#169,#170));
#65=EDGE_LOOP('',(#171,#172,#173));
#66=EDGE_LOOP('',(#174));
#67=EDGE_LOOP('',(#175));
#68=LINE('',#278,#76);
#69=LINE('',#284,#77);
#70=LINE('',#321,#78);
#71=LINE('',#354,#79);
#72=LINE('',#446,#80);
#73=LINE('',#561,#81);
#74=LINE('',#562,#82);
#75=LINE('',#571,#83);
#76=VECTOR('',#232,2.);
#77=VECTOR('',#239,2.);
#78=VECTOR('',#244,10.);
#79=VECTOR('',#245,10.);
#80=VECTOR('',#248,36.0034720547894);
#81=VECTOR('',#253,10.);
#82=VECTOR('',#254,10.);
#83=VECTOR('',#267,1.25);
#84=CIRCLE('',#207,2.);
#85=CIRCLE('',#208,2.);
#86=CIRCLE('',#210,2.);
#87=CIRCLE('',#211,2.);
#88=VERTEX_POINT('',#275);
#89=VERTEX_POINT('',#277);
#90=VERTEX_POINT('',#281);
#91=VERTEX_POINT('',#283);
#92=VERTEX_POINT('',#287);
#93=VERTEX_POINT('',#288);
#94=VERTEX_POINT('',#320);
#95=VERTEX_POINT('',#322);
#96=VERTEX_POINT('',#443);
#97=VERTEX_POINT('',#445);
#98=VERTEX_POINT('',#447);
#99=VERTEX_POINT('',#461);
#100=VERTEX_POINT('',#493);
#101=VERTEX_POINT('',#514);
#102=VERTEX_POINT('',#565);
#103=VERTEX_POINT('',#568);
#104=EDGE_CURVE('',#88,#88,#84,.T.);
#105=EDGE_CURVE('',#88,#89,#68,.T.);
#106=EDGE_CURVE('',#89,#89,#85,.T.);
#107=EDGE_CURVE('',#90,#90,#86,.T.);
#108=EDGE_CURVE('',#90,#91,#69,.T.);
#109=EDGE_CURVE('',#91,#91,#87,.T.);
#110=EDGE_CURVE('',#92,#93,#34,.T.);
#111=EDGE_CURVE('',#93,#94,#70,.T.);
#112=EDGE_CURVE('',#94,#95,#35,.T.);
#113=EDGE_CURVE('',#92,#95,#71,.T.);
#114=EDGE_CURVE('',#92,#95,#36,.T.);
#115=EDGE_CURVE('',#94,#96,#29,.T.);
#116=EDGE_CURVE('',#97,#96,#72,.T.);
#117=EDGE_CURVE('',#98,#97,#37,.T.);
#118=EDGE_CURVE('',#99,#98,#38,.T.);
#119=EDGE_CURVE('',#99,#100,#39,.T.);
#120=EDGE_CURVE('',#101,#100,#40,.T.);
#121=EDGE_CURVE('',#97,#101,#41,.T.);
#122=EDGE_CURVE('',#96,#93,#30,.T.);
#123=EDGE_CURVE('',#98,#101,#73,.T.);
#124=EDGE_CURVE('',#100,#99,#74,.T.);
#125=EDGE_CURVE('',#102,#102,#31,.T.);
#126=EDGE_CURVE('',#103,#103,#32,.T.);
#127=EDGE_CURVE('',#102,#103,#75,.T.);
#128=ORIENTED_EDGE('',*,*,#104,.F.);
#129=ORIENTED_EDGE('',*,*,#105,.T.);
#130=ORIENTED_EDGE('',*,*,#106,.F.);
#131=ORIENTED_EDGE('',*,*,#105,.F.);
#132=ORIENTED_EDGE('',*,*,#107,.F.);
#133=ORIENTED_EDGE('',*,*,#108,.T.);
#134=ORIENTED_EDGE('',*,*,#109,.F.);
#135=ORIENTED_EDGE('',*,*,#108,.F.);
#136=ORIENTED_EDGE('',*,*,#110,.T.);
#137=ORIENTED_EDGE('',*,*,#111,.T.);
#138=ORIENTED_EDGE('',*,*,#112,.T.);
#139=ORIENTED_EDGE('',*,*,#113,.F.);
#140=ORIENTED_EDGE('',*,*,#110,.F.);
#141=ORIENTED_EDGE('',*,*,#114,.T.);
#142=ORIENTED_EDGE('',*,*,#112,.F.);
#143=ORIENTED_EDGE('',*,*,#115,.T.);
#144=ORIENTED_EDGE('',*,*,#116,.F.);
#145=ORIENTED_EDGE('',*,*,#117,.F.);
#146=ORIENTED_EDGE('',*,*,#118,.F.);
#147=ORIENTED_EDGE('',*,*,#119,.T.);
#148=ORIENTED_EDGE('',*,*,#120,.F.);
#149=ORIENTED_EDGE('',*,*,#121,.F.);
#150=ORIENTED_EDGE('',*,*,#116,.T.);
#151=ORIENTED_EDGE('',*,*,#122,.T.);
#152=ORIENTED_EDGE('',*,*,#118,.T.);
#153=ORIENTED_EDGE('',*,*,#123,.T.);
#154=ORIENTED_EDGE('',*,*,#120,.T.);
#155=ORIENTED_EDGE('',*,*,#124,.T.);
#156=ORIENTED_EDGE('',*,*,#123,.F.);
#157=ORIENTED_EDGE('',*,*,#117,.T.);
#158=ORIENTED_EDGE('',*,*,#121,.T.);
#159=ORIENTED_EDGE('',*,*,#104,.T.);
#160=ORIENTED_EDGE('',*,*,#107,.T.);
#161=ORIENTED_EDGE('',*,*,#119,.F.);
#162=ORIENTED_EDGE('',*,*,#124,.F.);
#163=ORIENTED_EDGE('',*,*,#125,.F.);
#164=ORIENTED_EDGE('',*,*,#114,.F.);
#165=ORIENTED_EDGE('',*,*,#113,.T.);
#166=ORIENTED_EDGE('',*,*,#126,.F.);
#167=ORIENTED_EDGE('',*,*,#125,.T.);
#168=ORIENTED_EDGE('',*,*,#127,.T.);
#169=ORIENTED_EDGE('',*,*,#126,.T.);
#170=ORIENTED_EDGE('',*,*,#127,.F.);
#171=ORIENTED_EDGE('',*,*,#111,.F.);
#172=ORIENTED_EDGE('',*,*,#122,.F.);
#173=ORIENTED_EDGE('',*,*,#115,.F.);
#174=ORIENTED_EDGE('',*,*,#106,.T.);
#175=ORIENTED_EDGE('',*,*,#109,.T.);
#176=CYLINDRICAL_SURFACE('',#206,2.);
#177=CYLINDRICAL_SURFACE('',#209,2.);
#178=CYLINDRICAL_SURFACE('',#212,1.);
#179=CYLINDRICAL_SURFACE('',#215,1.);
#180=CYLINDRICAL_SURFACE('',#221,1.25);
#181=ADVANCED_FACE('',(#42),#176,.F.);
#182=ADVANCED_FACE('',(#43),#177,.F.);
#183=ADVANCED_FACE('',(#44),#178,.T.);
#184=ADVANCED_FACE('',(#45),#33,.F.);
#185=ADVANCED_FACE('',(#46),#179,.T.);
#186=ADVANCED_FACE('',(#47,#19,#20),#25,.T.);
#187=ADVANCED_FACE('',(#48,#21),#26,.F.);
#188=ADVANCED_FACE('',(#49,#22),#27,.F.);
#189=ADVANCED_FACE('',(#50),#180,.F.);
#190=ADVANCED_FACE('',(#51,#23,#24),#28,.F.);
#191=CLOSED_SHELL('',(#181,#182,#183,#184,#185,#186,#187,#188,#189,#190));
#192=DERIVED_UNIT_ELEMENT(#194,1.);
#193=DERIVED_UNIT_ELEMENT(#581,-3.);
#194=(
MASS_UNIT()
NAMED_UNIT(*)
SI_UNIT(.KILO.,.GRAM.)
);
#195=DERIVED_UNIT((#192,#193));
#196=MEASURE_REPRESENTATION_ITEM('density measure',
POSITIVE_RATIO_MEASURE(7850.),#195);
#197=PROPERTY_DEFINITION_REPRESENTATION(#202,#199);
#198=PROPERTY_DEFINITION_REPRESENTATION(#203,#200);
#199=REPRESENTATION('material name',(#201),#578);
#200=REPRESENTATION('density',(#196),#578);
#201=DESCRIPTIVE_REPRESENTATION_ITEM('Steel','Steel');
#202=PROPERTY_DEFINITION('material property','material name',#593);
#203=PROPERTY_DEFINITION('material property','density of part',#593);
#204=AXIS2_PLACEMENT_3D('',#272,#224,#225);
#205=AXIS2_PLACEMENT_3D('',#273,#226,#227);
#206=AXIS2_PLACEMENT_3D('',#274,#228,#229);
#207=AXIS2_PLACEMENT_3D('',#276,#230,#231);
#208=AXIS2_PLACEMENT_3D('',#279,#233,#234);
#209=AXIS2_PLACEMENT_3D('',#280,#235,#236);
#210=AXIS2_PLACEMENT_3D('',#282,#237,#238);
#211=AXIS2_PLACEMENT_3D('',#285,#240,#241);
#212=AXIS2_PLACEMENT_3D('',#286,#242,#243);
#213=AXIS2_PLACEMENT_3D('',#444,#246,#247);
#214=AXIS2_PLACEMENT_3D('',#559,#249,#250);
#215=AXIS2_PLACEMENT_3D('',#560,#251,#252);
#216=AXIS2_PLACEMENT_3D('',#563,#255,#256);
#217=AXIS2_PLACEMENT_3D('',#564,#257,#258);
#218=AXIS2_PLACEMENT_3D('',#566,#259,#260);
#219=AXIS2_PLACEMENT_3D('',#567,#261,#262);
#220=AXIS2_PLACEMENT_3D('',#569,#263,#264);
#221=AXIS2_PLACEMENT_3D('',#570,#265,#266);
#222=AXIS2_PLACEMENT_3D('',#572,#268,#269);
#223=AXIS2_PLACEMENT_3D('',#573,#270,#271);
#224=DIRECTION('axis',(0.,0.,1.));
#225=DIRECTION('refdir',(1.,0.,0.));
#226=DIRECTION('axis',(0.,0.,1.));
#227=DIRECTION('refdir',(1.,0.,0.));
#228=DIRECTION('center_axis',(0.,0.,-1.));
#229=DIRECTION('ref_axis',(-1.,0.,0.));
#230=DIRECTION('center_axis',(-5.43982898138863E-32,1.07777066857043E-48,
-1.));
#231=DIRECTION('ref_axis',(-1.,0.,0.));
#232=DIRECTION('',(0.,0.,-1.));
#233=DIRECTION('center_axis',(0.,0.,1.));
#234=DIRECTION('ref_axis',(-1.,0.,0.));
#235=DIRECTION('center_axis',(0.,0.,-1.));
#236=DIRECTION('ref_axis',(-1.,0.,0.));
#237=DIRECTION('center_axis',(-5.43982898138863E-32,1.07777066857043E-48,
-1.));
#238=DIRECTION('ref_axis',(-1.,0.,0.));
#239=DIRECTION('',(0.,0.,-1.));
#240=DIRECTION('center_axis',(0.,0.,1.));
#241=DIRECTION('ref_axis',(-1.,0.,0.));
#242=DIRECTION('center_axis',(0.,-1.,0.));
#243=DIRECTION('ref_axis',(0.707106781186548,0.,-0.707106781186548));
#244=DIRECTION('',(0.,1.,0.));
#245=DIRECTION('',(0.,1.,0.));
#246=DIRECTION('center_axis',(0.,0.,1.));
#247=DIRECTION('ref_axis',(1.,0.,0.));
#248=DIRECTION('',(-0.0138875494907577,-1.9133260910839E-18,-0.999903563334556));
#249=DIRECTION('center_axis',(0.,0.,1.));
#250=DIRECTION('ref_axis',(1.,0.,0.));
#251=DIRECTION('center_axis',(6.6422745721025E-80,1.,1.07777066857043E-48));
#252=DIRECTION('ref_axis',(0.707106781186549,0.,0.707106781186546));
#253=DIRECTION('',(-6.6422745721025E-80,-1.,-1.07777066857043E-48));
#254=DIRECTION('',(0.,1.,0.));
#255=DIRECTION('center_axis',(5.43982898138863E-32,-1.07777066857043E-48,
1.));
#256=DIRECTION('ref_axis',(1.,0.,-5.43982898138863E-32));
#257=DIRECTION('center_axis',(-0.707106781186548,0.,-0.707106781186548));
#258=DIRECTION('ref_axis',(-0.707106781186548,0.,0.707106781186548));
#259=DIRECTION('center_axis',(0.707106781186548,0.,0.707106781186548));
#260=DIRECTION('ref_axis',(-0.707106781186547,0.,0.707106781186547));
#261=DIRECTION('center_axis',(-0.707106781186548,0.,0.707106781186547));
#262=DIRECTION('ref_axis',(0.707106781186547,0.,0.707106781186548));
#263=DIRECTION('center_axis',(0.707106781186548,0.,-0.707106781186547));
#264=DIRECTION('ref_axis',(-0.707106781186547,0.,-0.707106781186548));
#265=DIRECTION('center_axis',(0.,0.,-1.));
#266=DIRECTION('ref_axis',(-1.,0.,0.));
#267=DIRECTION('',(0.,0.,-1.));
#268=DIRECTION('center_axis',(0.,0.,1.));
#269=DIRECTION('ref_axis',(1.,0.,0.));
#270=DIRECTION('',(0.,0.,1.));
#271=DIRECTION('',(1.,0.,0.));
#272=CARTESIAN_POINT('',(0.,0.,0.));
#273=CARTESIAN_POINT('',(0.,0.,0.));
#274=CARTESIAN_POINT('Origin',(-4.74999999996591,-3.1093879237477,36.));
#275=CARTESIAN_POINT('',(-2.74999999996591,-3.1093879237477,36.));
#276=CARTESIAN_POINT('Origin',(-4.74999999996591,-3.1093879237477,36.));
#277=CARTESIAN_POINT('',(-2.74999999996591,-3.1093879237477,0.));
#278=CARTESIAN_POINT('',(-2.74999999996591,-3.1093879237477,36.));
#279=CARTESIAN_POINT('Origin',(-4.74999999996591,-3.1093879237477,0.));
#280=CARTESIAN_POINT('Origin',(-4.74999999995376,3.10938792374761,36.));
#281=CARTESIAN_POINT('',(-2.74999999995376,3.10938792374761,36.));
#282=CARTESIAN_POINT('Origin',(-4.74999999995376,3.10938792374761,36.));
#283=CARTESIAN_POINT('',(-2.74999999995376,3.10938792374761,0.));
#284=CARTESIAN_POINT('',(-2.74999999995376,3.10938792374761,36.));
#285=CARTESIAN_POINT('Origin',(-4.74999999995376,3.10938792374761,0.));
#286=CARTESIAN_POINT('Origin',(-1.,0.,1.));
#287=CARTESIAN_POINT('',(3.08148791101958E-32,-7.98611111111111,1.));
#288=CARTESIAN_POINT('',(-1.,-7.95046391999925,0.));
#289=CARTESIAN_POINT('Ctrl Pts',(-0.000484523580271512,-7.98528056843949,
0.999999999999993));
#290=CARTESIAN_POINT('Ctrl Pts',(-0.000484789580207672,-7.98611864240948,
0.93966069544308));
#291=CARTESIAN_POINT('Ctrl Pts',(-0.00594573502560917,-7.98696045207402,
0.879362338422383));
#292=CARTESIAN_POINT('Ctrl Pts',(-0.0168442425125073,-7.98776944264624,
0.819851012124126));
#293=CARTESIAN_POINT('Ctrl Pts',(-0.0193968610607279,-7.98795892220044,
0.805912432413026));
#294=CARTESIAN_POINT('Ctrl Pts',(-0.022247769984681,-7.98814637599365,0.792017027416317));
#295=CARTESIAN_POINT('Ctrl Pts',(-0.0253966669758736,-7.98833092201964,
0.77817438327768));
#296=CARTESIAN_POINT('Ctrl Pts',(-0.0401322005606533,-7.98919452097872,
0.713396542599642));
#297=CARTESIAN_POINT('Ctrl Pts',(-0.0612532114667226,-7.98999093227902,
0.650387370247303));
#298=CARTESIAN_POINT('Ctrl Pts',(-0.0883702911355577,-7.99059520990355,
0.590049570222242));
#299=CARTESIAN_POINT('Ctrl Pts',(-0.111903886175935,-7.99111963307453,0.537685327141562));
#300=CARTESIAN_POINT('Ctrl Pts',(-0.139953564810163,-7.99149798374076,0.487333070923418));
#301=CARTESIAN_POINT('Ctrl Pts',(-0.172261730418857,-7.99161715353532,0.439582841554241));
#302=CARTESIAN_POINT('Ctrl Pts',(-0.230351381699207,-7.99183141923807,0.353728565387417));
#303=CARTESIAN_POINT('Ctrl Pts',(-0.301329276396282,-7.991201154175,0.277583976568967));
#304=CARTESIAN_POINT('Ctrl Pts',(-0.382534544397736,-7.98904547434065,0.213758648100914));
#305=CARTESIAN_POINT('Ctrl Pts',(-0.404875888278205,-7.98845239970817,0.196198905405857));
#306=CARTESIAN_POINT('Ctrl Pts',(-0.427991060182355,-7.98774380604634,0.179571632590308));
#307=CARTESIAN_POINT('Ctrl Pts',(-0.45182394154374,-7.98690588594141,0.163931172792978));
#308=CARTESIAN_POINT('Ctrl Pts',(-0.508190190283554,-7.9849241527073,0.126940511279017));
#309=CARTESIAN_POINT('Ctrl Pts',(-0.568030395691186,-7.98223447385738,0.0958234146760866));
#310=CARTESIAN_POINT('Ctrl Pts',(-0.630409042870919,-7.97871968447288,0.0709764262517965));
#311=CARTESIAN_POINT('Ctrl Pts',(-0.666082807919164,-7.97670960928906,0.056766665904628));
#312=CARTESIAN_POINT('Ctrl Pts',(-0.702586672440651,-7.97443049657717,0.0446076003349569));
#313=CARTESIAN_POINT('Ctrl Pts',(-0.739745014000679,-7.97186826431796,0.0345733997629552));
#314=CARTESIAN_POINT('Ctrl Pts',(-0.798910768076247,-7.96778852347463,0.0185963400110058));
#315=CARTESIAN_POINT('Ctrl Pts',(-0.859303137907831,-7.96301791695033,0.00812326410141396));
#316=CARTESIAN_POINT('Ctrl Pts',(-0.920162203015633,-7.95756766258789,0.00322395290262989));
#317=CARTESIAN_POINT('Ctrl Pts',(-0.946836425396162,-7.95517884349188,0.00107660942641494));
#318=CARTESIAN_POINT('Ctrl Pts',(-0.973600334624926,-7.9526601260974,-5.94362061743446E-13));
#319=CARTESIAN_POINT('Ctrl Pts',(-1.00039018509676,-7.95001562806936,0.));
#320=CARTESIAN_POINT('',(-1.,7.95046391999925,0.));
#321=CARTESIAN_POINT('',(-1.,0.,0.));
#322=CARTESIAN_POINT('',(3.08148791101958E-32,7.98611111111111,1.));
#323=CARTESIAN_POINT('Ctrl Pts',(-0.999770271332511,7.95017068822597,0.));
#324=CARTESIAN_POINT('Ctrl Pts',(-0.986843202343892,7.95145537104587,2.75779399316889E-13));
#325=CARTESIAN_POINT('Ctrl Pts',(-0.973914517561651,7.9527116194376,0.000250302800954839));
#326=CARTESIAN_POINT('Ctrl Pts',(-0.960991429821438,7.95393879982286,0.000751094672530429));
#327=CARTESIAN_POINT('Ctrl Pts',(-0.899441817878107,7.95978356989763,0.00313624797176122));
#328=CARTESIAN_POINT('Ctrl Pts',(-0.838254236230993,7.96494238399376,0.0111933005599685));
#329=CARTESIAN_POINT('Ctrl Pts',(-0.778200201479621,7.96939524102322,0.0248178453199941));
#330=CARTESIAN_POINT('Ctrl Pts',(-0.751091005654104,7.97140532034086,0.0309681473515263));
#331=CARTESIAN_POINT('Ctrl Pts',(-0.724212845122997,7.97327226584862,0.038252959838616));
#332=CARTESIAN_POINT('Ctrl Pts',(-0.697636828533603,7.97499768444916,0.0466626787528455));
#333=CARTESIAN_POINT('Ctrl Pts',(-0.631497340900016,7.97929171782355,0.0675918687335454));
#334=CARTESIAN_POINT('Ctrl Pts',(-0.56779378418094,7.98266871869132,0.0953096574422336));
#335=CARTESIAN_POINT('Ctrl Pts',(-0.507528859948881,7.98524366982647,0.129328764127962));
#336=CARTESIAN_POINT('Ctrl Pts',(-0.471746728494912,7.98677253991433,0.149527514278016));
#337=CARTESIAN_POINT('Ctrl Pts',(-0.437176740931634,7.98801984209566,0.171947704386285));
#338=CARTESIAN_POINT('Ctrl Pts',(-0.404027564617572,7.98901802313892,0.196487338243436));
#339=CARTESIAN_POINT('Ctrl Pts',(-0.326528862256185,7.99135164780703,0.253857987888996));
#340=CARTESIAN_POINT('Ctrl Pts',(-0.257873116864251,7.99229360051961,0.322020424058362));
#341=CARTESIAN_POINT('Ctrl Pts',(-0.200092019664377,7.99240592163445,0.398755120182543));
#342=CARTESIAN_POINT('Ctrl Pts',(-0.179038816988583,7.99244684711545,0.426714283093202));
#343=CARTESIAN_POINT('Ctrl Pts',(-0.159428926534988,7.99237750384405,0.455811492763635));
#344=CARTESIAN_POINT('Ctrl Pts',(-0.141359367288936,7.99222344974363,0.485939385484124));
#345=CARTESIAN_POINT('Ctrl Pts',(-0.107325269886919,7.99193328814159,0.542685409081275));
#346=CARTESIAN_POINT('Ctrl Pts',(-0.0790937429047151,7.99134916005007,0.602526573203328));
#347=CARTESIAN_POINT('Ctrl Pts',(-0.056992423697563,7.99062830018838,0.664548608838587));
#348=CARTESIAN_POINT('Ctrl Pts',(-0.0348911044904108,7.9899074403267,0.726570644473846));
#349=CARTESIAN_POINT('Ctrl Pts',(-0.0189197930719932,7.98905063939366,0.790773551622319));
#350=CARTESIAN_POINT('Ctrl Pts',(-0.00940236731416988,7.98815736351303,
0.856243061272331));
#351=CARTESIAN_POINT('Ctrl Pts',(-0.00246668160579779,7.98750640169662,
0.903953014989626));
#352=CARTESIAN_POINT('Ctrl Pts',(0.000992217560940027,7.98683959142316,
0.951997090030133));
#353=CARTESIAN_POINT('Ctrl Pts',(0.0009922032109837,7.98617277773896,1.));
#354=CARTESIAN_POINT('',(3.08148791101958E-32,0.,1.));
#355=CARTESIAN_POINT('Ctrl Pts',(-8.5,-9.10831056865844E-16,36.));
#356=CARTESIAN_POINT('Ctrl Pts',(-8.66666666666667,-9.33793184349857E-16,
24.));
#357=CARTESIAN_POINT('Ctrl Pts',(-8.83333333333333,-9.5675531183387E-16,
12.));
#358=CARTESIAN_POINT('Ctrl Pts',(-9.,-9.79717439317883E-16,0.));
#359=CARTESIAN_POINT('Ctrl Pts',(-8.5,-1.11264739814639,36.));
#360=CARTESIAN_POINT('Ctrl Pts',(-8.66686419854484,-1.14073271073352,24.));
#361=CARTESIAN_POINT('Ctrl Pts',(-8.83313580145516,-1.1687118887804,12.));
#362=CARTESIAN_POINT('Ctrl Pts',(-9.,-1.19679720136754,0.));
#363=CARTESIAN_POINT('Ctrl Pts',(-7.93068662084364,-3.33800418388273,36.));
#364=CARTESIAN_POINT('Ctrl Pts',(-8.08228043086159,-3.42181226849592,24.));
#365=CARTESIAN_POINT('Ctrl Pts',(-8.23409777105338,-3.50567314138548,12.));
#366=CARTESIAN_POINT('Ctrl Pts',(-8.38569158107133,-3.58948122599867,0.));
#367=CARTESIAN_POINT('Ctrl Pts',(-5.50917560497235,-6.04609130198027,36.));
#368=CARTESIAN_POINT('Ctrl Pts',(-5.60747666107784,-6.18717557782436,24.));
#369=CARTESIAN_POINT('Ctrl Pts',(-5.70550274217234,-6.3281576457012,12.));
#370=CARTESIAN_POINT('Ctrl Pts',(-5.80380379827783,-6.46924192154528,0.));
#371=CARTESIAN_POINT('Ctrl Pts',(-1.97033585308519,-7.56221288872566,36.));
#372=CARTESIAN_POINT('Ctrl Pts',(-2.00379362787171,-7.72997844037996,24.));
#373=CARTESIAN_POINT('Ctrl Pts',(-2.03738588675997,-7.89778332714447,12.));
#374=CARTESIAN_POINT('Ctrl Pts',(-2.07084366154649,-8.06554887879877,0.));
#375=CARTESIAN_POINT('Ctrl Pts',(1.96941189931753,-7.56252952645339,36.));
#376=CARTESIAN_POINT('Ctrl Pts',(2.00282759708258,-7.73033816116899,24.));
#377=CARTESIAN_POINT('Ctrl Pts',(2.03640455085103,-7.89807875686896,12.));
#378=CARTESIAN_POINT('Ctrl Pts',(2.06982024861609,-8.06588739158456,0.));
#379=CARTESIAN_POINT('Ctrl Pts',(5.50902982304281,-6.04478137689373,36.));
#380=CARTESIAN_POINT('Ctrl Pts',(5.60747022947522,-6.18579713247036,24.));
#381=CARTESIAN_POINT('Ctrl Pts',(5.70557698795278,-6.32686597079096,12.));
#382=CARTESIAN_POINT('Ctrl Pts',(5.80401739438519,-6.46788172636759,0.));
#383=CARTESIAN_POINT('Ctrl Pts',(7.65931842180158,-3.63928630694222,36.));
#384=CARTESIAN_POINT('Ctrl Pts',(7.80473159587419,-3.72958586694707,24.));
#385=CARTESIAN_POINT('Ctrl Pts',(7.950496193922,-3.81976460758767,12.));
#386=CARTESIAN_POINT('Ctrl Pts',(8.09590936799461,-3.91006416759253,0.));
#387=CARTESIAN_POINT('Ctrl Pts',(8.78420339276858,-0.40505425377421,36.));
#388=CARTESIAN_POINT('Ctrl Pts',(8.95832830517678,-0.415826539143618,24.));
#389=CARTESIAN_POINT('Ctrl Pts',(9.13199320011442,-0.426923677937362,12.));
#390=CARTESIAN_POINT('Ctrl Pts',(9.30611811252262,-0.43769596330677,0.));
#391=CARTESIAN_POINT('Ctrl Pts',(8.2669697561699,2.65292804866653,36.));
#392=CARTESIAN_POINT('Ctrl Pts',(8.42699530004031,2.72059820720802,24.));
#393=CARTESIAN_POINT('Ctrl Pts',(8.58692577689022,2.78830486487286,12.));
#394=CARTESIAN_POINT('Ctrl Pts',(8.74695132076063,2.85597502341435,0.));
#395=CARTESIAN_POINT('Ctrl Pts',(5.8696178323045,5.78422781924683,36.));
#396=CARTESIAN_POINT('Ctrl Pts',(5.97506666785065,5.9205350921451,24.));
#397=CARTESIAN_POINT('Ctrl Pts',(6.08085542586767,6.05696857360279,12.));
#398=CARTESIAN_POINT('Ctrl Pts',(6.18630426141383,6.19327584650106,0.));
#399=CARTESIAN_POINT('Ctrl Pts',(2.41305269870163,7.56674066525655,36.));
#400=CARTESIAN_POINT('Ctrl Pts',(2.4539694545536,7.73468865236495,24.0000000000001));
#401=CARTESIAN_POINT('Ctrl Pts',(2.49494971463496,7.90247267680097,12.));
#402=CARTESIAN_POINT('Ctrl Pts',(2.53586647048693,8.07042066390937,0.));
#403=CARTESIAN_POINT('Ctrl Pts',(-1.9722973006379,7.56058493742759,36.));
#404=CARTESIAN_POINT('Ctrl Pts',(-2.00579340017737,7.72828510099843,24.));
#405=CARTESIAN_POINT('Ctrl Pts',(-2.03921076820285,7.89610734294621,12.));
#406=CARTESIAN_POINT('Ctrl Pts',(-2.07270686774231,8.06380750651704,0.));
#407=CARTESIAN_POINT('Ctrl Pts',(-5.50718944777313,6.04609029613444,36.));
#408=CARTESIAN_POINT('Ctrl Pts',(-5.60546498797168,6.18721265636803,24.));
#409=CARTESIAN_POINT('Ctrl Pts',(-5.70356179383638,6.32827885060821,12.));
#410=CARTESIAN_POINT('Ctrl Pts',(-5.80183733403493,6.4694012108418,0.));
#411=CARTESIAN_POINT('Ctrl Pts',(-7.93124006493882,3.33759220327393,36.));
#412=CARTESIAN_POINT('Ctrl Pts',(-8.08285380572009,3.42137137231719,24.));
#413=CARTESIAN_POINT('Ctrl Pts',(-8.23460536067353,3.50525650796585,12.));
#414=CARTESIAN_POINT('Ctrl Pts',(-8.3862191014548,3.58903567700911,0.));
#415=CARTESIAN_POINT('Ctrl Pts',(-8.5,1.11264739814639,36.));
#416=CARTESIAN_POINT('Ctrl Pts',(-8.66685327502673,1.14074839708507,24.));
#417=CARTESIAN_POINT('Ctrl Pts',(-8.83314672497327,1.16869620242886,12.));
#418=CARTESIAN_POINT('Ctrl Pts',(-9.,1.19679720136754,0.));
#419=CARTESIAN_POINT('Ctrl Pts',(-8.5,9.10831056865844E-16,36.));
#420=CARTESIAN_POINT('Ctrl Pts',(-8.66666666666667,9.33793184349857E-16,
24.));
#421=CARTESIAN_POINT('Ctrl Pts',(-8.83333333333333,9.5675531183387E-16,
12.));
#422=CARTESIAN_POINT('Ctrl Pts',(-9.,9.79717439317883E-16,0.));
#423=CARTESIAN_POINT('Ctrl Pts',(0.,-7.98611111111111,1.));
#424=CARTESIAN_POINT('Ctrl Pts',(1.36766832468444,-7.96711571771272,2.36766832468444));
#425=CARTESIAN_POINT('Ctrl Pts',(2.75669523865166,-7.67063784959648,3.75669523865166));
#426=CARTESIAN_POINT('Ctrl Pts',(4.96624622076693,-6.63989594835641,5.96624622076693));
#427=CARTESIAN_POINT('Ctrl Pts',(5.86771818372911,-6.03873753510688,6.86771818372911));
#428=CARTESIAN_POINT('Ctrl Pts',(7.17443917352188,-4.70675735558763,8.17443917352189));
#429=CARTESIAN_POINT('Ctrl Pts',(7.65520434311844,-4.07361308837975,8.65520434311845));
#430=CARTESIAN_POINT('Ctrl Pts',(8.32826295344362,-2.77862385037561,9.32826295344363));
#431=CARTESIAN_POINT('Ctrl Pts',(8.56008111032311,-2.16129529113279,9.56008111032575));
#432=CARTESIAN_POINT('Ctrl Pts',(8.83963478331365,-0.863177224710956,9.8396347833163));
#433=CARTESIAN_POINT('Ctrl Pts',(8.89060182684909,-0.210506253632594,9.89060182684761));
#434=CARTESIAN_POINT('Ctrl Pts',(8.80299643341559,1.16989252591105,9.80299643341412));
#435=CARTESIAN_POINT('Ctrl Pts',(8.64837692733834,1.85911315672867,9.64837692733835));
#436=CARTESIAN_POINT('Ctrl Pts',(8.09484245629532,3.34565399875332,9.09484245629532));
#437=CARTESIAN_POINT('Ctrl Pts',(7.64476902887258,4.08239164531664,8.64476902887259));
#438=CARTESIAN_POINT('Ctrl Pts',(6.44892660282115,5.53526060567086,7.44892660282115));
#439=CARTESIAN_POINT('Ctrl Pts',(5.59294791688254,6.24026081046856,6.59294791688254));
#440=CARTESIAN_POINT('Ctrl Pts',(3.22142908983841,7.54857193566592,4.22142908983841));
#441=CARTESIAN_POINT('Ctrl Pts',(1.62818957923914,7.96349736695501,2.62818957923914));
#442=CARTESIAN_POINT('Ctrl Pts',(1.38777878078145E-15,7.98611111111111,
1.));
#443=CARTESIAN_POINT('',(-9.,-9.79717439317883E-16,0.));
#444=CARTESIAN_POINT('Origin',(0.,0.,0.));
#445=CARTESIAN_POINT('',(-8.5,-9.10831056865844E-16,36.));
#446=CARTESIAN_POINT('',(-8.5,-9.10831056865844E-16,36.));
#447=CARTESIAN_POINT('',(-0.999999999989694,7.44787133717035,36.));
#448=CARTESIAN_POINT('Ctrl Pts',(-0.999905061568298,7.44756576826986,36.));
#449=CARTESIAN_POINT('Ctrl Pts',(-1.30380965138173,7.41580318428901,36.));
#450=CARTESIAN_POINT('Ctrl Pts',(-1.60568651202382,7.36962750101906,36.));
#451=CARTESIAN_POINT('Ctrl Pts',(-1.90364349192618,7.30909252305308,36.));
#452=CARTESIAN_POINT('Ctrl Pts',(-3.15059468301631,7.05575339032988,36.));
#453=CARTESIAN_POINT('Ctrl Pts',(-4.32889206539472,6.55092184323216,36.));
#454=CARTESIAN_POINT('Ctrl Pts',(-5.32204919277821,5.84708972087321,36.));
#455=CARTESIAN_POINT('Ctrl Pts',(-6.31520632016169,5.14325759851427,36.));
#456=CARTESIAN_POINT('Ctrl Pts',(-7.12322319255026,4.2404249008941,36.));
#457=CARTESIAN_POINT('Ctrl Pts',(-7.66942161250984,3.23277235080213,36.));
#458=CARTESIAN_POINT('Ctrl Pts',(-8.21562003246941,2.22511980071016,36.));
#459=CARTESIAN_POINT('Ctrl Pts',(-8.5,1.11264739814639,36.));
#460=CARTESIAN_POINT('Ctrl Pts',(-8.5,1.11022302462516E-15,36.));
#461=CARTESIAN_POINT('',(-6.16297582203915E-32,7.51388888143831,35.0000005364418));
#462=CARTESIAN_POINT('Ctrl Pts',(0.00093695846072861,7.51388006025054,35.0000005364418));
#463=CARTESIAN_POINT('Ctrl Pts',(0.000936790348746012,7.5130542733535,35.0594476806202));
#464=CARTESIAN_POINT('Ctrl Pts',(-0.00436826455576319,7.51222924409289,
35.1188958602454));
#465=CARTESIAN_POINT('Ctrl Pts',(-0.0149785251735124,7.51138883847585,35.1776308860255));
#466=CARTESIAN_POINT('Ctrl Pts',(-0.0158449763480051,7.51132020958348,35.1824272839562));
#467=CARTESIAN_POINT('Ctrl Pts',(-0.0167468059878483,7.51125144937462,35.1872189261337));
#468=CARTESIAN_POINT('Ctrl Pts',(-0.0176840142776531,7.51118253370732,35.1920054236314));
#469=CARTESIAN_POINT('Ctrl Pts',(-0.0301158890188618,7.51026838158874,35.2554973261125));
#470=CARTESIAN_POINT('Ctrl Pts',(-0.0486567299137916,7.50934028568254,35.3174915507414));
#471=CARTESIAN_POINT('Ctrl Pts',(-0.072968657471405,7.50831039424446,35.377145509091));
#472=CARTESIAN_POINT('Ctrl Pts',(-0.0956503377427961,7.50734956264205,35.4327993443124));
#473=CARTESIAN_POINT('Ctrl Pts',(-0.123355200972696,7.50629901314177,35.486416245628));
#474=CARTESIAN_POINT('Ctrl Pts',(-0.155807541918613,7.50504666360133,35.5373120131741));
#475=CARTESIAN_POINT('Ctrl Pts',(-0.211940751295547,7.50288045934864,35.625347042167));
#476=CARTESIAN_POINT('Ctrl Pts',(-0.281411606149483,7.50014092957225,35.7038828695706));
#477=CARTESIAN_POINT('Ctrl Pts',(-0.36155894924617,7.49617298156252,35.7701961704953));
#478=CARTESIAN_POINT('Ctrl Pts',(-0.383953651242869,7.49506426092647,35.7887253762711));
#479=CARTESIAN_POINT('Ctrl Pts',(-0.407181717051875,7.49385942198947,35.8063003075832));
#480=CARTESIAN_POINT('Ctrl Pts',(-0.431184582398288,7.49254426601552,35.8228615532858));
#481=CARTESIAN_POINT('Ctrl Pts',(-0.486612978593721,7.48950725417001,35.8611054577132));
#482=CARTESIAN_POINT('Ctrl Pts',(-0.545636413453965,7.48590778751663,35.8935750607184));
#483=CARTESIAN_POINT('Ctrl Pts',(-0.60732888420539,7.48162803555884,35.9198592241893));
#484=CARTESIAN_POINT('Ctrl Pts',(-0.645995171494448,7.47894566416553,35.9363330499825));
#485=CARTESIAN_POINT('Ctrl Pts',(-0.685709834744997,7.47599689866927,35.950377072099));
#486=CARTESIAN_POINT('Ctrl Pts',(-0.726244444328328,7.47276341417896,35.9618900653333));
#487=CARTESIAN_POINT('Ctrl Pts',(-0.78449914036865,7.46811638148096,35.9784360720243));
#488=CARTESIAN_POINT('Ctrl Pts',(-0.844018417637571,7.4629128669064,35.9896326900837));
#489=CARTESIAN_POINT('Ctrl Pts',(-0.904068915383667,7.45716221351671,35.9954047892992));
#490=CARTESIAN_POINT('Ctrl Pts',(-0.935901202319128,7.45411383830522,35.9984645327708));
#491=CARTESIAN_POINT('Ctrl Pts',(-0.96788281381444,7.45091257304947,35.9999999999993));
#492=CARTESIAN_POINT('Ctrl Pts',(-0.999905061756123,7.44756576825023,36.));
#493=CARTESIAN_POINT('',(-6.16297582203915E-32,-7.51388888143831,35.0000005364418));
#494=CARTESIAN_POINT('Ctrl Pts',(-1.66533453693773E-15,7.51388888143831,
35.0000005364418));
#495=CARTESIAN_POINT('Ctrl Pts',(1.47424387714353,7.53436449084308,33.5257566592983));
#496=CARTESIAN_POINT('Ctrl Pts',(2.93010293172671,7.21662707835566,32.0698976047151));
#497=CARTESIAN_POINT('Ctrl Pts',(5.07481602177839,6.17610148971433,29.9251845146634));
#498=CARTESIAN_POINT('Ctrl Pts',(5.90461994242001,5.60636958253878,29.0953805940218));
#499=CARTESIAN_POINT('Ctrl Pts',(7.10556634322148,4.35128967703898,27.8944341932203));
#500=CARTESIAN_POINT('Ctrl Pts',(7.54661373262207,3.75549296694,27.4533868038197));
#501=CARTESIAN_POINT('Ctrl Pts',(8.16226770358781,2.53684887833832,26.837732832854));
#502=CARTESIAN_POINT('Ctrl Pts',(8.37282799723367,1.95501628736217,26.6271725392077));
#503=CARTESIAN_POINT('Ctrl Pts',(8.62184771594584,0.728912941196909,26.3781528204955));
#504=CARTESIAN_POINT('Ctrl Pts',(8.66195085207929,0.111309218288988,26.3380496843606));
#505=CARTESIAN_POINT('Ctrl Pts',(8.56172250450754,-1.19356001560412,26.4382780319324));
#506=CARTESIAN_POINT('Ctrl Pts',(8.40574607696824,-1.84399026374744,26.5942544594736));
#507=CARTESIAN_POINT('Ctrl Pts',(7.8588985243199,-3.24898527893805,27.1411020121219));
#508=CARTESIAN_POINT('Ctrl Pts',(7.4175207173052,-3.94437707700022,27.5824798191366));
#509=CARTESIAN_POINT('Ctrl Pts',(6.24735687375165,-5.31470628453606,28.7526436626902));
#510=CARTESIAN_POINT('Ctrl Pts',(5.40922883878282,-5.97578232105655,29.590771697659));
#511=CARTESIAN_POINT('Ctrl Pts',(3.10084869614657,-7.17782070479539,31.8991518402952));
#512=CARTESIAN_POINT('Ctrl Pts',(1.56163821607665,-7.53557830110604,33.4383623203652));
#513=CARTESIAN_POINT('Ctrl Pts',(5.55111512312578E-16,-7.51388888143831,
35.0000005364418));
#514=CARTESIAN_POINT('',(-0.999999999849655,-7.44787133719965,36.));
#515=CARTESIAN_POINT('Ctrl Pts',(-1.00039587866083,-7.44747537613576,36.));
#516=CARTESIAN_POINT('Ctrl Pts',(-0.940143668030434,-7.45373345645024,36.0000000000014));
#517=CARTESIAN_POINT('Ctrl Pts',(-0.88002162662315,-7.45947327813857,35.994554400825));
#518=CARTESIAN_POINT('Ctrl Pts',(-0.820756945029865,-7.46465820026363,35.983730335933));
#519=CARTESIAN_POINT('Ctrl Pts',(-0.795835713700459,-7.46683849787478,35.9791787376143));
#520=CARTESIAN_POINT('Ctrl Pts',(-0.771066152157492,-7.46892131481712,35.9736760846162));
#521=CARTESIAN_POINT('Ctrl Pts',(-0.746502560175889,-7.470906650549,35.9672273687672));
#522=CARTESIAN_POINT('Ctrl Pts',(-0.682328820996656,-7.47609344967578,35.9503797428483));
#523=CARTESIAN_POINT('Ctrl Pts',(-0.620056365289994,-7.48057092003476,35.9272050413361));
#524=CARTESIAN_POINT('Ctrl Pts',(-0.560586527449004,-7.48441362418762,35.8980777121096));
#525=CARTESIAN_POINT('Ctrl Pts',(-0.52374982888856,-7.48679386498993,35.8800357149303));
#526=CARTESIAN_POINT('Ctrl Pts',(-0.487988443611502,-7.48893176706804,35.8597098202261));
#527=CARTESIAN_POINT('Ctrl Pts',(-0.453516239498669,-7.49085488239397,35.8371890184081));
#528=CARTESIAN_POINT('Ctrl Pts',(-0.357609379544574,-7.49620527866213,35.7745327583403));
#529=CARTESIAN_POINT('Ctrl Pts',(-0.27321143934418,-7.49980682262378,35.6958794186095));
#530=CARTESIAN_POINT('Ctrl Pts',(-0.203990006321736,-7.50252352917039,35.6047046402753));
#531=CARTESIAN_POINT('Ctrl Pts',(-0.196995884784945,-7.50279802472671,35.5954923565516));
#532=CARTESIAN_POINT('Ctrl Pts',(-0.190156660427776,-7.50306349264053,35.5861522408802));
#533=CARTESIAN_POINT('Ctrl Pts',(-0.183476090644065,-7.50332080411325,35.5766878784553));
#534=CARTESIAN_POINT('Ctrl Pts',(-0.145332474517297,-7.50478995874501,35.5226498219855));
#535=CARTESIAN_POINT('Ctrl Pts',(-0.112735456518439,-7.50598246733664,35.465090247287));
#536=CARTESIAN_POINT('Ctrl Pts',(-0.0860811542842015,-7.50705348259633,
35.4048955875716));
#537=CARTESIAN_POINT('Ctrl Pts',(-0.0594268520499644,-7.50812449785602,
35.3447009278562));
#538=CARTESIAN_POINT('Ctrl Pts',(-0.0387150870900332,-7.50907497141951,
35.281871183124));
#539=CARTESIAN_POINT('Ctrl Pts',(-0.0243396940635592,-7.51000736084675,
35.217292786587));
#540=CARTESIAN_POINT('Ctrl Pts',(-0.0113328302330931,-7.51085098733368,
35.1588622164732));
#541=CARTESIAN_POINT('Ctrl Pts',(-0.00362925981643608,-7.51167245127244,
35.0995197944381));
#542=CARTESIAN_POINT('Ctrl Pts',(-0.00124691704299518,-7.5124995766815,
35.0399844517926));
#543=CARTESIAN_POINT('Ctrl Pts',(-0.000713869249724819,-7.51268464550492,
35.0266634539191));
#544=CARTESIAN_POINT('Ctrl Pts',(-0.000447222194316619,-7.51286979125042,
35.013332797707));
#545=CARTESIAN_POINT('Ctrl Pts',(-0.000447176833241469,-7.51305496774971,
35.0000005364418));
#546=CARTESIAN_POINT('Ctrl Pts',(-8.5,-9.10831056865844E-16,36.));
#547=CARTESIAN_POINT('Ctrl Pts',(-8.5,-1.11264739814639,36.));
#548=CARTESIAN_POINT('Ctrl Pts',(-8.21534331042182,-2.22532579101456,36.));
#549=CARTESIAN_POINT('Ctrl Pts',(-7.66942979632085,-3.2330128404649,36.));
#550=CARTESIAN_POINT('Ctrl Pts',(-7.12351628221988,-4.24069988991524,36.));
#551=CARTESIAN_POINT('Ctrl Pts',(-6.31634594359611,-5.14339559594776,36.));
#552=CARTESIAN_POINT('Ctrl Pts',(-5.3229541489697,-5.84743038008825,36.));
#553=CARTESIAN_POINT('Ctrl Pts',(-4.3295623543433,-6.55146516422873,36.));
#554=CARTESIAN_POINT('Ctrl Pts',(-3.14994910371424,-7.0568390264772,36.));
#555=CARTESIAN_POINT('Ctrl Pts',(-1.90351785299926,-7.30957873055605,36.));
#556=CARTESIAN_POINT('Ctrl Pts',(-1.60568511084079,-7.36997047624996,36.));
#557=CARTESIAN_POINT('Ctrl Pts',(-1.30403730585362,-7.41593773775016,36.));
#558=CARTESIAN_POINT('Ctrl Pts',(-1.00039587484553,-7.44747537653203,36.));
#559=CARTESIAN_POINT('Origin',(0.,0.,0.));
#560=CARTESIAN_POINT('Origin',(-1.,4.14014116757202E-17,35.));
#561=CARTESIAN_POINT('',(-1.,4.14014116757202E-17,36.));
#562=CARTESIAN_POINT('',(-6.16297582203915E-32,0.,35.0000005364418));
#563=CARTESIAN_POINT('Origin',(-0.772727272727272,8.28028233514404E-17,
36.));
#564=CARTESIAN_POINT('Origin',(9.53502000524853,0.,25.4649805311933));
#565=CARTESIAN_POINT('',(5.5,1.77856329801667E-16,29.5000005364418));
#566=CARTESIAN_POINT('Origin',(4.25,2.47754799082476E-17,30.7500005364418));
#567=CARTESIAN_POINT('Origin',(3.08148791101958E-32,0.,1.));
#568=CARTESIAN_POINT('',(5.5,-1.28305369985172E-16,6.5));
#569=CARTESIAN_POINT('Origin',(4.25,2.47754799082476E-17,5.25));
#570=CARTESIAN_POINT('Origin',(4.25,2.47754799082476E-17,36.));
#571=CARTESIAN_POINT('',(5.5,-1.28305369985172E-16,36.));
#572=CARTESIAN_POINT('Origin',(0.,0.,0.));
#573=CARTESIAN_POINT('',(0.,0.,0.));
#574=UNCERTAINTY_MEASURE_WITH_UNIT(LENGTH_MEASURE(0.01),#580,
'DISTANCE_ACCURACY_VALUE',
'Maximum model space distance between geometric entities at asserted c
onnectivities');
#575=UNCERTAINTY_MEASURE_WITH_UNIT(LENGTH_MEASURE(0.01),#580,
'DISTANCE_ACCURACY_VALUE',
'Maximum model space distance between geometric entities at asserted c
onnectivities');
#576=UNCERTAINTY_MEASURE_WITH_UNIT(LENGTH_MEASURE(0.01),#580,
'DISTANCE_ACCURACY_VALUE',
'Maximum model space distance between geometric entities at asserted c
onnectivities');
#577=(
GEOMETRIC_REPRESENTATION_CONTEXT(3)
GLOBAL_UNCERTAINTY_ASSIGNED_CONTEXT((#574))
GLOBAL_UNIT_ASSIGNED_CONTEXT((#580,#582,#583))
REPRESENTATION_CONTEXT('','3D')
);
#578=(
GEOMETRIC_REPRESENTATION_CONTEXT(3)
GLOBAL_UNCERTAINTY_ASSIGNED_CONTEXT((#575))
GLOBAL_UNIT_ASSIGNED_CONTEXT((#580,#582,#583))
REPRESENTATION_CONTEXT('','3D')
);
#579=(
GEOMETRIC_REPRESENTATION_CONTEXT(3)
GLOBAL_UNCERTAINTY_ASSIGNED_CONTEXT((#576))
GLOBAL_UNIT_ASSIGNED_CONTEXT((#580,#582,#583))
REPRESENTATION_CONTEXT('','3D')
);
#580=(
LENGTH_UNIT()
NAMED_UNIT(*)
SI_UNIT(.MILLI.,.METRE.)
);
#581=(
LENGTH_UNIT()
NAMED_UNIT(*)
SI_UNIT($,.METRE.)
);
#582=(
NAMED_UNIT(*)
PLANE_ANGLE_UNIT()
SI_UNIT($,.RADIAN.)
);
#583=(
NAMED_UNIT(*)
SI_UNIT($,.STERADIAN.)
SOLID_ANGLE_UNIT()
);
#584=SHAPE_DEFINITION_REPRESENTATION(#586,#589);
#585=SHAPE_DEFINITION_REPRESENTATION(#587,#590);
#586=PRODUCT_DEFINITION_SHAPE('',$,#592);
#587=PRODUCT_DEFINITION_SHAPE('',$,#593);
#588=PRODUCT_DEFINITION_SHAPE($,$,#14);
#589=SHAPE_REPRESENTATION('',(#204,#223),#577);
#590=SHAPE_REPRESENTATION('',(#205),#578);
#591=PRODUCT_DEFINITION_CONTEXT('part definition',#599,'design');
#592=PRODUCT_DEFINITION('2025-12-07-23-45-35-518','Pinky Finger',#594,#591);
#593=PRODUCT_DEFINITION('2025-12-07-23-49-38-259','Proximal phalanx',#595,
#591);
#594=PRODUCT_DEFINITION_FORMATION('',$,#601);
#595=PRODUCT_DEFINITION_FORMATION('',$,#602);
#596=PRODUCT_RELATED_PRODUCT_CATEGORY('Pinky Finger','Pinky Finger',(#601));
#597=PRODUCT_RELATED_PRODUCT_CATEGORY('Proximal phalanx',
'Proximal phalanx',(#602));
#598=APPLICATION_PROTOCOL_DEFINITION('international standard',
'automotive_design',2009,#599);
#599=APPLICATION_CONTEXT(
'Core Data for Automotive Mechanical Design Process');
#600=PRODUCT_CONTEXT('part definition',#599,'mechanical');
#601=PRODUCT('2025-12-07-23-45-35-518','Pinky Finger',$,(#600));
#602=PRODUCT('2025-12-07-23-49-38-259','Proximal phalanx',$,(#600));
#603=PRESENTATION_STYLE_ASSIGNMENT((#604));
#604=SURFACE_STYLE_USAGE(.BOTH.,#605);
#605=SURFACE_SIDE_STYLE('',(#606));
#606=SURFACE_STYLE_FILL_AREA(#607);
#607=FILL_AREA_STYLE('Steel - Satin',(#608));
#608=FILL_AREA_STYLE_COLOUR('Steel - Satin',#609);
#609=COLOUR_RGB('Steel - Satin',0.627450980392157,0.627450980392157,0.627450980392157);
ENDSEC;
END-ISO-10303-21;
