ISO-10303-21;
HEADER;
/* Generated by software containing ST-Developer
 * from STEP Tools, Inc. (www.steptools.com) 
 */

FILE_DESCRIPTION(
/* description */ (''),
/* implementation_level */ '2;1');

FILE_NAME(
/* name */ 'Ring distal phalanx.step',
/* time_stamp */ '2026-01-04T20:35:26Z',
/* author */ (''),
/* organization */ (''),
/* preprocessor_version */ 'ST-DEVELOPER v20.1',
/* originating_system */ 'Autodesk Translation Framework v14.21.0.0',
/* authorisation */ '');

FILE_SCHEMA (('AUTOMOTIVE_DESIGN { 1 0 10303 214 3 1 1 }'));
ENDSEC;

DATA;
#10=MECHANICAL_DESIGN_GEOMETRIC_PRESENTATION_REPRESENTATION('',(#17),#988);
#11=ITEM_DEFINED_TRANSFORMATION($,$,#283,#301);
#12=(
REPRESENTATION_RELATIONSHIP($,$,#999,#998)
REPRESENTATION_RELATIONSHIP_WITH_TRANSFORMATION(#11)
SHAPE_REPRESENTATION_RELATIONSHIP()
);
#13=CONTEXT_DEPENDENT_SHAPE_REPRESENTATION(#12,#997);
#14=NEXT_ASSEMBLY_USAGE_OCCURRENCE('Distal phalanx:1',
'Distal phalanx:1','Distal phalanx:1',#1001,#1002,'Distal phalanx:1');
#15=SHAPE_REPRESENTATION_RELATIONSHIP('SRR','None',#999,#16);
#16=ADVANCED_BREP_SHAPE_REPRESENTATION('',(#18),#987);
#17=STYLED_ITEM('',(#1012),#18);
#18=MANIFOLD_SOLID_BREP('Body1',#269);
#19=FACE_BOUND('',#73,.T.);
#20=FACE_BOUND('',#75,.T.);
#21=FACE_BOUND('',#76,.T.);
#22=PLANE('',#291);
#23=PLANE('',#299);
#24=PLANE('',#300);
#25=ELLIPSE('',#289,1.76776695296637,1.25);
#26=CYLINDRICAL_SURFACE('',#288,1.25);
#27=CYLINDRICAL_SURFACE('',#294,2.);
#28=CYLINDRICAL_SURFACE('',#296,2.);
#29=CYLINDRICAL_SURFACE('',#298,1.);
#30=LINE('',#716,#38);
#31=LINE('',#731,#39);
#32=LINE('',#734,#40);
#33=LINE('',#790,#41);
#34=LINE('',#794,#42);
#35=LINE('',#831,#43);
#36=LINE('',#867,#44);
#37=LINE('',#966,#45);
#38=VECTOR('',#314,10.);
#39=VECTOR('',#315,10.);
#40=VECTOR('',#318,1.25);
#41=VECTOR('',#331,2.);
#42=VECTOR('',#336,2.);
#43=VECTOR('',#341,10.);
#44=VECTOR('',#342,10.);
#45=VECTOR('',#343,30.0014999625019);
#46=FACE_OUTER_BOUND('',#60,.T.);
#47=FACE_OUTER_BOUND('',#61,.T.);
#48=FACE_OUTER_BOUND('',#62,.T.);
#49=FACE_OUTER_BOUND('',#63,.T.);
#50=FACE_OUTER_BOUND('',#64,.T.);
#51=FACE_OUTER_BOUND('',#65,.T.);
#52=FACE_OUTER_BOUND('',#66,.T.);
#53=FACE_OUTER_BOUND('',#67,.T.);
#54=FACE_OUTER_BOUND('',#68,.T.);
#55=FACE_OUTER_BOUND('',#69,.T.);
#56=FACE_OUTER_BOUND('',#70,.T.);
#57=FACE_OUTER_BOUND('',#71,.T.);
#58=FACE_OUTER_BOUND('',#72,.T.);
#59=FACE_OUTER_BOUND('',#74,.T.);
#60=EDGE_LOOP('',(#170,#171,#172,#173,#174,#175,#176));
#61=EDGE_LOOP('',(#177,#178,#179,#180,#181,#182,#183));
#62=EDGE_LOOP('',(#184,#185,#186,#187));
#63=EDGE_LOOP('',(#188,#189,#190,#191));
#64=EDGE_LOOP('',(#192,#193,#194,#195,#196));
#65=EDGE_LOOP('',(#197,#198,#199,#200,#201,#202));
#66=EDGE_LOOP('',(#203,#204,#205,#206,#207,#208,#209));
#67=EDGE_LOOP('',(#210,#211,#212,#213,#214));
#68=EDGE_LOOP('',(#215,#216,#217,#218,#219,#220));
#69=EDGE_LOOP('',(#221,#222,#223,#224,#225,#226));
#70=EDGE_LOOP('',(#227,#228,#229,#230));
#71=EDGE_LOOP('',(#231,#232,#233,#234,#235,#236,#237,#238,#239));
#72=EDGE_LOOP('',(#240,#241));
#73=EDGE_LOOP('',(#242));
#74=EDGE_LOOP('',(#243,#244,#245));
#75=EDGE_LOOP('',(#246));
#76=EDGE_LOOP('',(#247));
#77=CIRCLE('',#284,4.);
#78=CIRCLE('',#285,4.);
#79=CIRCLE('',#286,4.);
#80=CIRCLE('',#287,4.);
#81=CIRCLE('',#290,1.25);
#82=CIRCLE('',#292,2.);
#83=CIRCLE('',#293,2.);
#84=CIRCLE('',#295,2.);
#85=CIRCLE('',#297,2.);
#86=B_SPLINE_CURVE_WITH_KNOTS('',3,(#409,#410,#411,#412),.UNSPECIFIED.,
 .F.,.F.,(4,4),(0.,0.0638942836737572),.UNSPECIFIED.);
#87=B_SPLINE_CURVE_WITH_KNOTS('',3,(#414,#415,#416,#417,#418,#419,#420,
#421,#422,#423,#424,#425,#426,#427,#428,#429,#430,#431,#432,#433,#434,#435,
#436,#437,#438,#439,#440,#441,#442,#443,#444,#445,#446,#447,#448,#449),
 .UNSPECIFIED.,.F.,.F.,(4,2,2,2,2,2,2,2,2,2,2,2,2,2,2,2,2,4),(0.0638942836737572,
0.0747244186558923,0.144258888501084,0.222189361854766,0.318642859805478,
0.437379809174218,0.525467939036407,0.57546254864812,0.599735985184321,
0.619021518223461,0.641636929949804,0.684922641045745,0.78476638895366,
0.884126950027949,0.988082244937044,1.07435855345571,1.14776163619423,1.21819935203174),
 .UNSPECIFIED.);
#88=B_SPLINE_CURVE_WITH_KNOTS('',3,(#451,#452,#453,#454,#455),
 .UNSPECIFIED.,.F.,.F.,(4,1,4),(-0.0982341847478612,-0.0633066191844222,
0.),.UNSPECIFIED.);
#89=B_SPLINE_CURVE_WITH_KNOTS('',3,(#459,#460,#461,#462,#463,#464,#465,
#466,#467,#468,#469),.UNSPECIFIED.,.F.,.F.,(4,1,1,1,1,1,1,1,4),(0.,0.0633066191844222,
0.126613238368844,0.253226476737689,0.316533095922111,0.506452953475378,
0.696372811028645,0.759679430213067,0.886292668581911),.UNSPECIFIED.);
#90=B_SPLINE_CURVE_WITH_KNOTS('',3,(#472,#473,#474,#475,#476,#477,#478,
#479),.UNSPECIFIED.,.F.,.F.,(4,1,1,1,1,4),(-0.886292668581911,-0.759679430213067,
-0.696372811028645,-0.506452953475378,-0.316533095922111,-0.302642251088477),
 .UNSPECIFIED.);
#91=B_SPLINE_CURVE_WITH_KNOTS('',3,(#532,#533,#534,#535,#536,#537,#538,
#539,#540,#541,#542,#543,#544,#545,#546,#547,#548,#549,#550,#551,#552,#553,
#554,#555,#556,#557,#558,#559,#560,#561,#562,#563,#564,#565,#566,#567),
 .UNSPECIFIED.,.F.,.F.,(4,2,2,2,2,2,2,2,2,2,2,2,2,2,2,2,2,4),(0.,0.0738188963017758,
0.143927625310946,0.223966330227743,0.321784058243136,0.438973791336163,
0.529508829086139,0.578157512209713,0.602366050989459,0.62177339175111,
0.644722863807986,0.689560445664973,0.789987415915373,0.891443719248217,
0.998612176777302,1.08404033498379,1.1580696899361,1.16261647631477),
 .UNSPECIFIED.);
#92=B_SPLINE_CURVE_WITH_KNOTS('',3,(#569,#570,#571,#572),.UNSPECIFIED.,
 .F.,.F.,(4,4),(1.16261647631477,1.22685387907929),.UNSPECIFIED.);
#93=B_SPLINE_CURVE_WITH_KNOTS('',3,(#574,#575,#576,#577,#578,#579,#580),
 .UNSPECIFIED.,.F.,.F.,(4,1,1,1,4),(-0.704984248273206,-0.627801127419406,
-0.374574649543368,-0.247961410605349,-0.12134817166733),.UNSPECIFIED.);
#94=B_SPLINE_CURVE_WITH_KNOTS('',3,(#583,#584,#585,#586,#587,#588,#589,
#590,#591,#592),.UNSPECIFIED.,.F.,.F.,(4,1,1,1,1,1,1,4),(0.12134817166733,
0.247961410605349,0.374574649543368,0.627801127419406,0.754414366357425,
0.881027605295444,0.944334224764454,1.00764084423346),.UNSPECIFIED.);
#95=B_SPLINE_CURVE_WITH_KNOTS('',3,(#593,#594,#595,#596,#597),
 .UNSPECIFIED.,.F.,.F.,(4,1,4),(-1.00764084423346,-0.944334224764454,-0.90940848613478),
 .UNSPECIFIED.);
#96=B_SPLINE_CURVE_WITH_KNOTS('',3,(#624,#625,#626,#627,#628,#629,#630,
#631,#632,#633,#634,#635,#636,#637),.UNSPECIFIED.,.F.,.F.,(4,2,2,2,2,2,
4),(0.251957483134309,0.286086753579444,0.335600327016936,0.380859118649373,
0.427552156228341,0.466327043401153,0.503761287092727),.UNSPECIFIED.);
#97=B_SPLINE_CURVE_WITH_KNOTS('',3,(#639,#640,#641,#642,#643),
 .UNSPECIFIED.,.F.,.F.,(4,1,4),(8.72527485797342E-17,0.0693291257751731,
0.121325970106553),.UNSPECIFIED.);
#98=B_SPLINE_CURVE_WITH_KNOTS('',3,(#670,#671,#672,#673,#674),
 .UNSPECIFIED.,.F.,.F.,(4,1,4),(0.,0.0520061076903848,0.121347584610898),
 .UNSPECIFIED.);
#99=B_SPLINE_CURVE_WITH_KNOTS('',3,(#675,#676,#677,#678,#679,#680,#681,
#682,#683,#684,#685,#686,#687,#688),.UNSPECIFIED.,.F.,.F.,(4,2,2,2,2,2,
4),(0.,0.0328331515947963,0.0741082139718204,0.120359608243324,0.169374727722375,
0.210542178183117,0.25176440684469),.UNSPECIFIED.);
#100=B_SPLINE_CURVE_WITH_KNOTS('',3,(#718,#719,#720,#721,#722,#723,#724,
#725,#726,#727,#728,#729,#730),.UNSPECIFIED.,.F.,.F.,(4,3,3,3,4),(-3.14159265358979,
-2.32476074342419,-1.538445141775,-0.761498554769071,0.),.UNSPECIFIED.);
#101=B_SPLINE_CURVE_WITH_KNOTS('',3,(#772,#773,#774,#775,#776,#777,#778,
#779,#780,#781,#782,#783,#784,#785,#786,#787),.UNSPECIFIED.,.F.,.F.,(4,
3,3,3,3,4),(0.,0.113692322342696,0.916820742609711,1.6899406921876,2.45181168844408,
3.14159265358979),.UNSPECIFIED.);
#102=B_SPLINE_CURVE_WITH_KNOTS('',3,(#799,#800,#801,#802,#803,#804,#805,
#806,#807,#808,#809,#810,#811,#812,#813,#814,#815,#816,#817,#818,#819,#820,
#821,#822,#823,#824,#825,#826,#827,#828,#829),.UNSPECIFIED.,.F.,.F.,(4,
3,3,3,3,3,3,3,3,3,4),(-0.157697727816138,-0.139927285813337,-0.131395019930022,
-0.111591309942711,-0.0945378111781135,-0.0658534669670816,-0.0548841795836987,
-0.0354173587892328,-0.0246716667395123,-0.00672201956203665,0.),
 .UNSPECIFIED.);
#103=B_SPLINE_CURVE_WITH_KNOTS('',3,(#833,#834,#835,#836,#837,#838,#839,
#840,#841,#842,#843,#844,#845,#846,#847,#848,#849,#850,#851,#852,#853,#854,
#855,#856,#857,#858,#859,#860,#861,#862,#863,#864,#865,#866),
 .UNSPECIFIED.,.F.,.F.,(4,3,3,3,3,3,3,3,3,3,3,4),(0.,0.0130138371660794,
0.0315017074246405,0.0398343827605447,0.0619632089993257,0.0750748502198808,
0.098272429204558,0.114555979088616,0.133028932060126,0.150963125558014,
0.154544591119346,0.157680866197415),.UNSPECIFIED.);
#104=B_SPLINE_CURVE_WITH_KNOTS('',3,(#932,#933,#934,#935,#936,#937,#938,
#939,#940,#941,#942,#943,#944,#945,#946,#947,#948,#949,#950,#951),
 .UNSPECIFIED.,.F.,.F.,(4,2,2,2,2,2,2,2,2,4),(-3.56294526172369,-2.88624335974032,
-2.43041034560812,-2.12764526431031,-1.89606661468638,-1.67353741491912,
-1.42854314737753,-1.10175370685715,-0.669187395539325,-0.0500721266989696),
 .UNSPECIFIED.);
#105=B_SPLINE_CURVE_WITH_KNOTS('',3,(#953,#954,#955,#956,#957,#958,#959,
#960,#961,#962,#963,#964,#965),.UNSPECIFIED.,.F.,.F.,(4,3,3,3,4),(1.6944468919893,
1.79519725281755,2.24399571974163,2.69279418666571,3.14159265358979),
 .UNSPECIFIED.);
#106=B_SPLINE_CURVE_WITH_KNOTS('',3,(#967,#968,#969,#970,#971,#972,#973,
#974,#975,#976,#977,#978,#979),.UNSPECIFIED.,.F.,.F.,(4,3,3,3,4),(-3.14159265358979,
-2.69279936571909,-2.24400607784838,-1.79521278997768,-1.69459593718528),
 .UNSPECIFIED.);
#107=VERTEX_POINT('',#407);
#108=VERTEX_POINT('',#408);
#109=VERTEX_POINT('',#413);
#110=VERTEX_POINT('',#450);
#111=VERTEX_POINT('',#456);
#112=VERTEX_POINT('',#458);
#113=VERTEX_POINT('',#470);
#114=VERTEX_POINT('',#530);
#115=VERTEX_POINT('',#531);
#116=VERTEX_POINT('',#568);
#117=VERTEX_POINT('',#573);
#118=VERTEX_POINT('',#581);
#119=VERTEX_POINT('',#623);
#120=VERTEX_POINT('',#638);
#121=VERTEX_POINT('',#715);
#122=VERTEX_POINT('',#717);
#123=VERTEX_POINT('',#733);
#124=VERTEX_POINT('',#789);
#125=VERTEX_POINT('',#793);
#126=VERTEX_POINT('',#797);
#127=VERTEX_POINT('',#798);
#128=VERTEX_POINT('',#830);
#129=VERTEX_POINT('',#832);
#130=VERTEX_POINT('',#952);
#131=EDGE_CURVE('',#107,#108,#86,.T.);
#132=EDGE_CURVE('',#108,#109,#87,.T.);
#133=EDGE_CURVE('',#109,#110,#88,.T.);
#134=EDGE_CURVE('',#110,#111,#77,.T.);
#135=EDGE_CURVE('',#111,#112,#89,.T.);
#136=EDGE_CURVE('',#112,#113,#78,.T.);
#137=EDGE_CURVE('',#113,#107,#90,.T.);
#138=EDGE_CURVE('',#114,#115,#91,.T.);
#139=EDGE_CURVE('',#115,#116,#92,.T.);
#140=EDGE_CURVE('',#116,#117,#93,.T.);
#141=EDGE_CURVE('',#117,#118,#79,.T.);
#142=EDGE_CURVE('',#118,#111,#94,.T.);
#143=EDGE_CURVE('',#110,#114,#95,.T.);
#144=EDGE_CURVE('',#119,#113,#96,.T.);
#145=EDGE_CURVE('',#112,#120,#97,.T.);
#146=EDGE_CURVE('',#120,#119,#80,.T.);
#147=EDGE_CURVE('',#120,#118,#98,.T.);
#148=EDGE_CURVE('',#117,#119,#99,.T.);
#149=EDGE_CURVE('',#121,#111,#30,.T.);
#150=EDGE_CURVE('',#121,#122,#100,.T.);
#151=EDGE_CURVE('',#120,#122,#31,.T.);
#152=EDGE_CURVE('',#119,#123,#32,.T.);
#153=EDGE_CURVE('',#123,#123,#25,.T.);
#154=EDGE_CURVE('',#113,#117,#81,.T.);
#155=EDGE_CURVE('',#116,#114,#82,.T.);
#156=EDGE_CURVE('',#109,#107,#83,.T.);
#157=EDGE_CURVE('',#122,#121,#101,.T.);
#158=EDGE_CURVE('',#108,#124,#33,.T.);
#159=EDGE_CURVE('',#124,#124,#84,.T.);
#160=EDGE_CURVE('',#115,#125,#34,.T.);
#161=EDGE_CURVE('',#125,#125,#85,.T.);
#162=EDGE_CURVE('',#126,#127,#102,.T.);
#163=EDGE_CURVE('',#127,#128,#35,.T.);
#164=EDGE_CURVE('',#128,#129,#103,.T.);
#165=EDGE_CURVE('',#126,#129,#36,.T.);
#166=EDGE_CURVE('',#126,#129,#104,.T.);
#167=EDGE_CURVE('',#128,#130,#105,.T.);
#168=EDGE_CURVE('',#121,#130,#37,.T.);
#169=EDGE_CURVE('',#130,#127,#106,.T.);
#170=ORIENTED_EDGE('',*,*,#131,.T.);
#171=ORIENTED_EDGE('',*,*,#132,.T.);
#172=ORIENTED_EDGE('',*,*,#133,.T.);
#173=ORIENTED_EDGE('',*,*,#134,.T.);
#174=ORIENTED_EDGE('',*,*,#135,.T.);
#175=ORIENTED_EDGE('',*,*,#136,.T.);
#176=ORIENTED_EDGE('',*,*,#137,.T.);
#177=ORIENTED_EDGE('',*,*,#138,.T.);
#178=ORIENTED_EDGE('',*,*,#139,.T.);
#179=ORIENTED_EDGE('',*,*,#140,.T.);
#180=ORIENTED_EDGE('',*,*,#141,.T.);
#181=ORIENTED_EDGE('',*,*,#142,.T.);
#182=ORIENTED_EDGE('',*,*,#134,.F.);
#183=ORIENTED_EDGE('',*,*,#143,.T.);
#184=ORIENTED_EDGE('',*,*,#144,.T.);
#185=ORIENTED_EDGE('',*,*,#136,.F.);
#186=ORIENTED_EDGE('',*,*,#145,.T.);
#187=ORIENTED_EDGE('',*,*,#146,.T.);
#188=ORIENTED_EDGE('',*,*,#146,.F.);
#189=ORIENTED_EDGE('',*,*,#147,.T.);
#190=ORIENTED_EDGE('',*,*,#141,.F.);
#191=ORIENTED_EDGE('',*,*,#148,.T.);
#192=ORIENTED_EDGE('',*,*,#145,.F.);
#193=ORIENTED_EDGE('',*,*,#135,.F.);
#194=ORIENTED_EDGE('',*,*,#149,.F.);
#195=ORIENTED_EDGE('',*,*,#150,.T.);
#196=ORIENTED_EDGE('',*,*,#151,.F.);
#197=ORIENTED_EDGE('',*,*,#152,.T.);
#198=ORIENTED_EDGE('',*,*,#153,.T.);
#199=ORIENTED_EDGE('',*,*,#152,.F.);
#200=ORIENTED_EDGE('',*,*,#148,.F.);
#201=ORIENTED_EDGE('',*,*,#154,.F.);
#202=ORIENTED_EDGE('',*,*,#144,.F.);
#203=ORIENTED_EDGE('',*,*,#137,.F.);
#204=ORIENTED_EDGE('',*,*,#154,.T.);
#205=ORIENTED_EDGE('',*,*,#140,.F.);
#206=ORIENTED_EDGE('',*,*,#155,.T.);
#207=ORIENTED_EDGE('',*,*,#143,.F.);
#208=ORIENTED_EDGE('',*,*,#133,.F.);
#209=ORIENTED_EDGE('',*,*,#156,.T.);
#210=ORIENTED_EDGE('',*,*,#147,.F.);
#211=ORIENTED_EDGE('',*,*,#151,.T.);
#212=ORIENTED_EDGE('',*,*,#157,.T.);
#213=ORIENTED_EDGE('',*,*,#149,.T.);
#214=ORIENTED_EDGE('',*,*,#142,.F.);
#215=ORIENTED_EDGE('',*,*,#131,.F.);
#216=ORIENTED_EDGE('',*,*,#156,.F.);
#217=ORIENTED_EDGE('',*,*,#132,.F.);
#218=ORIENTED_EDGE('',*,*,#158,.T.);
#219=ORIENTED_EDGE('',*,*,#159,.F.);
#220=ORIENTED_EDGE('',*,*,#158,.F.);
#221=ORIENTED_EDGE('',*,*,#138,.F.);
#222=ORIENTED_EDGE('',*,*,#155,.F.);
#223=ORIENTED_EDGE('',*,*,#139,.F.);
#224=ORIENTED_EDGE('',*,*,#160,.T.);
#225=ORIENTED_EDGE('',*,*,#161,.F.);
#226=ORIENTED_EDGE('',*,*,#160,.F.);
#227=ORIENTED_EDGE('',*,*,#162,.T.);
#228=ORIENTED_EDGE('',*,*,#163,.T.);
#229=ORIENTED_EDGE('',*,*,#164,.T.);
#230=ORIENTED_EDGE('',*,*,#165,.F.);
#231=ORIENTED_EDGE('',*,*,#162,.F.);
#232=ORIENTED_EDGE('',*,*,#166,.T.);
#233=ORIENTED_EDGE('',*,*,#164,.F.);
#234=ORIENTED_EDGE('',*,*,#167,.T.);
#235=ORIENTED_EDGE('',*,*,#168,.F.);
#236=ORIENTED_EDGE('',*,*,#157,.F.);
#237=ORIENTED_EDGE('',*,*,#150,.F.);
#238=ORIENTED_EDGE('',*,*,#168,.T.);
#239=ORIENTED_EDGE('',*,*,#169,.T.);
#240=ORIENTED_EDGE('',*,*,#166,.F.);
#241=ORIENTED_EDGE('',*,*,#165,.T.);
#242=ORIENTED_EDGE('',*,*,#153,.F.);
#243=ORIENTED_EDGE('',*,*,#163,.F.);
#244=ORIENTED_EDGE('',*,*,#169,.F.);
#245=ORIENTED_EDGE('',*,*,#167,.F.);
#246=ORIENTED_EDGE('',*,*,#159,.T.);
#247=ORIENTED_EDGE('',*,*,#161,.T.);
#248=B_SPLINE_SURFACE_WITH_KNOTS('',3,3,((#352,#353,#354,#355,#356,#357,
#358,#359,#360,#361,#362),(#363,#364,#365,#366,#367,#368,#369,#370,#371,
#372,#373),(#374,#375,#376,#377,#378,#379,#380,#381,#382,#383,#384),(#385,
#386,#387,#388,#389,#390,#391,#392,#393,#394,#395),(#396,#397,#398,#399,
#400,#401,#402,#403,#404,#405,#406)),.UNSPECIFIED.,.F.,.F.,.F.,(4,1,4),
(4,1,1,1,1,1,1,1,4),(0.,0.571428571428571,1.),(0.,0.0633066191844222,0.126613238368844,
0.253226476737689,0.316533095922111,0.506452953475378,0.696372811028645,
0.759679430213067,0.886292668581911),.UNSPECIFIED.);
#249=B_SPLINE_SURFACE_WITH_KNOTS('',3,3,((#480,#481,#482,#483,#484,#485,
#486,#487,#488,#489),(#490,#491,#492,#493,#494,#495,#496,#497,#498,#499),
(#500,#501,#502,#503,#504,#505,#506,#507,#508,#509),(#510,#511,#512,#513,
#514,#515,#516,#517,#518,#519),(#520,#521,#522,#523,#524,#525,#526,#527,
#528,#529)),.UNSPECIFIED.,.F.,.F.,.F.,(4,1,4),(4,1,1,1,1,1,1,4),(0.,0.571428571428571,
1.),(0.12134817166733,0.247961410605349,0.374574649543368,0.627801127419406,
0.754414366357425,0.881027605295444,0.944334224764454,1.00764084423346),
 .UNSPECIFIED.);
#250=B_SPLINE_SURFACE_WITH_KNOTS('',3,3,((#598,#599,#600,#601,#602),(#603,
#604,#605,#606,#607),(#608,#609,#610,#611,#612),(#613,#614,#615,#616,#617),
(#618,#619,#620,#621,#622)),.UNSPECIFIED.,.F.,.F.,.F.,(4,1,4),(4,1,4),(0.,
0.571428571428571,1.),(8.72527485797342E-17,0.0693291257751731,0.121325970106553),
 .UNSPECIFIED.);
#251=B_SPLINE_SURFACE_WITH_KNOTS('',3,3,((#645,#646,#647,#648,#649),(#650,
#651,#652,#653,#654),(#655,#656,#657,#658,#659),(#660,#661,#662,#663,#664),
(#665,#666,#667,#668,#669)),.UNSPECIFIED.,.F.,.F.,.F.,(4,1,4),(4,1,4),(0.,
0.571428571428571,1.),(0.,0.0520061076903848,0.121347584610898),
 .UNSPECIFIED.);
#252=B_SPLINE_SURFACE_WITH_KNOTS('',3,1,((#689,#690),(#691,#692),(#693,
#694),(#695,#696),(#697,#698),(#699,#700),(#701,#702),(#703,#704),(#705,
#706),(#707,#708),(#709,#710),(#711,#712),(#713,#714)),.UNSPECIFIED.,.F.,
 .F.,.F.,(4,3,3,3,4),(2,2),(-3.14159265358979,-2.32476074342419,-1.538445141775,
-0.761498554769071,0.),(0.,0.5),.UNSPECIFIED.);
#253=B_SPLINE_SURFACE_WITH_KNOTS('',3,1,((#740,#741),(#742,#743),(#744,
#745),(#746,#747),(#748,#749),(#750,#751),(#752,#753),(#754,#755),(#756,
#757),(#758,#759),(#760,#761),(#762,#763),(#764,#765),(#766,#767),(#768,
#769),(#770,#771)),.UNSPECIFIED.,.F.,.F.,.F.,(4,3,3,3,3,4),(2,2),(0.,0.113692322342696,
0.916820742609711,1.6899406921876,2.45181168844408,3.14159265358979),(0.,
0.5),.UNSPECIFIED.);
#254=B_SPLINE_SURFACE_WITH_KNOTS('',3,3,((#868,#869,#870,#871),(#872,#873,
#874,#875),(#876,#877,#878,#879),(#880,#881,#882,#883),(#884,#885,#886,
#887),(#888,#889,#890,#891),(#892,#893,#894,#895),(#896,#897,#898,#899),
(#900,#901,#902,#903),(#904,#905,#906,#907),(#908,#909,#910,#911),(#912,
#913,#914,#915),(#916,#917,#918,#919),(#920,#921,#922,#923),(#924,#925,
#926,#927),(#928,#929,#930,#931)),.UNSPECIFIED.,.T.,.F.,.F.,(4,1,1,1,1,
1,1,1,1,1,1,1,1,4),(4,4),(0.,0.0714285714285714,0.142857142857143,0.214285714285714,
0.285714285714286,0.357142857142857,0.428571428571429,0.571428571428571,
0.666666666666667,0.714285714285714,0.785714285714286,0.857142857142857,
0.928571428571429,1.),(0.,1.),.UNSPECIFIED.);
#255=ADVANCED_FACE('',(#46),#248,.F.);
#256=ADVANCED_FACE('',(#47),#249,.F.);
#257=ADVANCED_FACE('',(#48),#250,.F.);
#258=ADVANCED_FACE('',(#49),#251,.F.);
#259=ADVANCED_FACE('',(#50),#252,.T.);
#260=ADVANCED_FACE('',(#51),#26,.F.);
#261=ADVANCED_FACE('',(#52),#22,.T.);
#262=ADVANCED_FACE('',(#53),#253,.T.);
#263=ADVANCED_FACE('',(#54),#27,.F.);
#264=ADVANCED_FACE('',(#55),#28,.F.);
#265=ADVANCED_FACE('',(#56),#29,.T.);
#266=ADVANCED_FACE('',(#57),#254,.F.);
#267=ADVANCED_FACE('',(#58,#19),#23,.F.);
#268=ADVANCED_FACE('',(#59,#20,#21),#24,.F.);
#269=CLOSED_SHELL('',(#255,#256,#257,#258,#259,#260,#261,#262,#263,#264,
#265,#266,#267,#268));
#270=DERIVED_UNIT_ELEMENT(#272,1.);
#271=DERIVED_UNIT_ELEMENT(#990,-3.);
#272=(
MASS_UNIT()
NAMED_UNIT(*)
SI_UNIT(.KILO.,.GRAM.)
);
#273=DERIVED_UNIT((#270,#271));
#274=MEASURE_REPRESENTATION_ITEM('density measure',
POSITIVE_RATIO_MEASURE(7850.),#273);
#275=PROPERTY_DEFINITION_REPRESENTATION(#280,#277);
#276=PROPERTY_DEFINITION_REPRESENTATION(#281,#278);
#277=REPRESENTATION('material name',(#279),#987);
#278=REPRESENTATION('density',(#274),#987);
#279=DESCRIPTIVE_REPRESENTATION_ITEM('Steel','Steel');
#280=PROPERTY_DEFINITION('material property','material name',#1002);
#281=PROPERTY_DEFINITION('material property','density of part',#1002);
#282=AXIS2_PLACEMENT_3D('',#350,#302,#303);
#283=AXIS2_PLACEMENT_3D('',#351,#304,#305);
#284=AXIS2_PLACEMENT_3D('',#457,#306,#307);
#285=AXIS2_PLACEMENT_3D('',#471,#308,#309);
#286=AXIS2_PLACEMENT_3D('',#582,#310,#311);
#287=AXIS2_PLACEMENT_3D('',#644,#312,#313);
#288=AXIS2_PLACEMENT_3D('',#732,#316,#317);
#289=AXIS2_PLACEMENT_3D('',#735,#319,#320);
#290=AXIS2_PLACEMENT_3D('',#736,#321,#322);
#291=AXIS2_PLACEMENT_3D('',#737,#323,#324);
#292=AXIS2_PLACEMENT_3D('',#738,#325,#326);
#293=AXIS2_PLACEMENT_3D('',#739,#327,#328);
#294=AXIS2_PLACEMENT_3D('',#788,#329,#330);
#295=AXIS2_PLACEMENT_3D('',#791,#332,#333);
#296=AXIS2_PLACEMENT_3D('',#792,#334,#335);
#297=AXIS2_PLACEMENT_3D('',#795,#337,#338);
#298=AXIS2_PLACEMENT_3D('',#796,#339,#340);
#299=AXIS2_PLACEMENT_3D('',#980,#344,#345);
#300=AXIS2_PLACEMENT_3D('',#981,#346,#347);
#301=AXIS2_PLACEMENT_3D('',#982,#348,#349);
#302=DIRECTION('axis',(0.,0.,1.));
#303=DIRECTION('refdir',(1.,0.,0.));
#304=DIRECTION('axis',(0.,0.,1.));
#305=DIRECTION('refdir',(1.,0.,0.));
#306=DIRECTION('center_axis',(1.95486697687675E-16,-1.,0.));
#307=DIRECTION('ref_axis',(0.,0.,1.));
#308=DIRECTION('center_axis',(-0.55453677577063,-0.832159218129508,-1.46859459769667E-16));
#309=DIRECTION('ref_axis',(0.832159218129508,-0.55453677577063,0.));
#310=DIRECTION('center_axis',(-0.554536776945352,0.832159217346693,4.47207814236773E-17));
#311=DIRECTION('ref_axis',(-1.16147091944185E-10,-7.73985042723523E-11,
1.));
#312=DIRECTION('center_axis',(-5.67823730089929E-5,-0.999999998387881,4.33680868295056E-17));
#313=DIRECTION('ref_axis',(0.999999998387881,-5.67823730089929E-5,0.));
#314=DIRECTION('',(0.,0.,1.));
#315=DIRECTION('',(0.,0.,-1.));
#316=DIRECTION('center_axis',(0.,0.,-1.));
#317=DIRECTION('ref_axis',(-1.,0.,0.));
#318=DIRECTION('',(0.,0.,-1.));
#319=DIRECTION('center_axis',(0.707106781186547,0.,-0.707106781186548));
#320=DIRECTION('ref_axis',(-0.707106781186548,0.,-0.707106781186547));
#321=DIRECTION('center_axis',(2.46478321080748E-36,-4.44081935945021E-32,
-1.));
#322=DIRECTION('ref_axis',(-1.,0.,0.));
#323=DIRECTION('center_axis',(-2.46478321080748E-36,4.44081935945021E-32,
1.));
#324=DIRECTION('ref_axis',(1.,0.,2.46478321080748E-36));
#325=DIRECTION('center_axis',(2.46478321080748E-36,-4.44081935945021E-32,
-1.));
#326=DIRECTION('ref_axis',(-1.,0.,0.));
#327=DIRECTION('center_axis',(2.46478321080748E-36,-4.44081935945021E-32,
-1.));
#328=DIRECTION('ref_axis',(-1.,0.,0.));
#329=DIRECTION('center_axis',(0.,0.,-1.));
#330=DIRECTION('ref_axis',(-1.,0.,0.));
#331=DIRECTION('',(0.,0.,-1.));
#332=DIRECTION('center_axis',(-1.22368329395661E-31,8.98907946062328E-36,
1.));
#333=DIRECTION('ref_axis',(-1.,0.,0.));
#334=DIRECTION('center_axis',(0.,0.,-1.));
#335=DIRECTION('ref_axis',(-1.,0.,0.));
#336=DIRECTION('',(0.,0.,-1.));
#337=DIRECTION('center_axis',(-1.22368329395661E-31,8.98907946062328E-36,
1.));
#338=DIRECTION('ref_axis',(-1.,0.,0.));
#339=DIRECTION('center_axis',(1.1079895875642E-66,-1.,8.98907946062328E-36));
#340=DIRECTION('ref_axis',(0.707106781186543,0.,-0.707106781186553));
#341=DIRECTION('',(-1.1079895875642E-66,1.,-8.98907946062328E-36));
#342=DIRECTION('',(0.,1.,0.));
#343=DIRECTION('',(-0.00999950003749688,-1.37758692729754E-18,-0.999950003749688));
#344=DIRECTION('center_axis',(-0.707106781186547,0.,0.707106781186548));
#345=DIRECTION('ref_axis',(0.707106781186548,0.,0.707106781186547));
#346=DIRECTION('center_axis',(-1.22368329395661E-31,8.98907946062328E-36,
1.));
#347=DIRECTION('ref_axis',(1.,0.,1.22368329395661E-31));
#348=DIRECTION('',(0.,0.,1.));
#349=DIRECTION('',(1.,0.,0.));
#350=CARTESIAN_POINT('',(0.,0.,0.));
#351=CARTESIAN_POINT('',(0.,0.,0.));
#352=CARTESIAN_POINT('Ctrl Pts',(-7.7,-2.0122792321331E-15,119.));
#353=CARTESIAN_POINT('Ctrl Pts',(-7.7,-0.677083064078791,119.));
#354=CARTESIAN_POINT('Ctrl Pts',(-7.44673939239999,-2.01499102248871,119.));
#355=CARTESIAN_POINT('Ctrl Pts',(-6.33228382460076,-4.03831141155164,119.));
#356=CARTESIAN_POINT('Ctrl Pts',(-4.89566034959164,-5.2621454858114,119.));
#357=CARTESIAN_POINT('Ctrl Pts',(-2.6554977645453,-6.4255973783969,119.));
#358=CARTESIAN_POINT('Ctrl Pts',(0.050990312661292,-6.90945492835556,119.));
#359=CARTESIAN_POINT('Ctrl Pts',(2.75520636304813,-6.39736714343723,119.));
#360=CARTESIAN_POINT('Ctrl Pts',(4.99292876939388,-5.20185386327723,119.));
#361=CARTESIAN_POINT('Ctrl Pts',(6.06188462490256,-4.25630227818001,119.));
#362=CARTESIAN_POINT('Ctrl Pts',(6.66167294019715,-3.35623685906484,119.));
#363=CARTESIAN_POINT('Ctrl Pts',(-7.7,-2.0122792321331E-15,120.196797201368));
#364=CARTESIAN_POINT('Ctrl Pts',(-7.7,-0.678448328530653,120.196797201368));
#365=CARTESIAN_POINT('Ctrl Pts',(-7.44748634364003,-2.01790869928611,120.196797201368));
#366=CARTESIAN_POINT('Ctrl Pts',(-6.33162539787547,-4.04423164238812,120.196797201368));
#367=CARTESIAN_POINT('Ctrl Pts',(-4.89562713171019,-5.26799750229287,120.196797201368));
#368=CARTESIAN_POINT('Ctrl Pts',(-2.65393700818346,-6.43206470859163,120.196797201368));
#369=CARTESIAN_POINT('Ctrl Pts',(0.0516331995645839,-6.91504494335793,120.196797201368));
#370=CARTESIAN_POINT('Ctrl Pts',(2.75404491939703,-6.40169643893457,120.196797201368));
#371=CARTESIAN_POINT('Ctrl Pts',(4.99436242193694,-5.20454196993651,120.196797201368));
#372=CARTESIAN_POINT('Ctrl Pts',(6.06081321373794,-4.25791007898962,120.196797201368));
#373=CARTESIAN_POINT('Ctrl Pts',(6.66167294019715,-3.35623685906484,120.196797201368));
#374=CARTESIAN_POINT('Ctrl Pts',(-6.69564800202309,-1.66382463432614E-15,
122.268838654414));
#375=CARTESIAN_POINT('Ctrl Pts',(-6.69564800202309,-0.559856268219053,122.268838654414));
#376=CARTESIAN_POINT('Ctrl Pts',(-6.48682370179637,-1.66732556024512,122.268838654414));
#377=CARTESIAN_POINT('Ctrl Pts',(-5.55163559846449,-3.37117985853707,122.268838654414));
#378=CARTESIAN_POINT('Ctrl Pts',(-4.31416579260306,-4.43149431254945,122.268838654414));
#379=CARTESIAN_POINT('Ctrl Pts',(-2.35386418531042,-5.44979625028332,122.268838654414));
#380=CARTESIAN_POINT('Ctrl Pts',(0.0450374572703769,-5.88263408248696,122.268838654414));
#381=CARTESIAN_POINT('Ctrl Pts',(2.44150922838082,-5.42489341865967,122.268838654414));
#382=CARTESIAN_POINT('Ctrl Pts',(4.39808836336364,-4.37899315189626,122.268838654414));
#383=CARTESIAN_POINT('Ctrl Pts',(5.3180992870794,-3.56130026995033,122.268838654414));
#384=CARTESIAN_POINT('Ctrl Pts',(5.82589216683388,-2.79928674036794,122.268838654414));
#385=CARTESIAN_POINT('Ctrl Pts',(-4.59759790102565,-9.35917281530993E-16,
123.));
#386=CARTESIAN_POINT('Ctrl Pts',(-4.59759790102565,-0.315257136559491,123.));
#387=CARTESIAN_POINT('Ctrl Pts',(-4.48175396433316,-0.941671116361369,123.));
#388=CARTESIAN_POINT('Ctrl Pts',(-3.92075709290627,-1.9787958838513,123.));
#389=CARTESIAN_POINT('Ctrl Pts',(-3.09944064846143,-2.69751043114385,123.));
#390=CARTESIAN_POINT('Ctrl Pts',(-1.72344068631291,-3.41272754149685,123.));
#391=CARTESIAN_POINT('Ctrl Pts',(0.032735369603752,-3.73880552939328,123.));
#392=CARTESIAN_POINT('Ctrl Pts',(1.78596818037513,-3.3943325954086,123.));
#393=CARTESIAN_POINT('Ctrl Pts',(3.15578817084276,-2.66062777792091,123.));
#394=CARTESIAN_POINT('Ctrl Pts',(3.76414028676185,-2.10980267870528,123.));
#395=CARTESIAN_POINT('Ctrl Pts',(4.07998043519132,-1.63584080195558,123.));
#396=CARTESIAN_POINT('Ctrl Pts',(-3.7,-6.2450045135165E-16,123.));
#397=CARTESIAN_POINT('Ctrl Pts',(-3.7,-0.211022063948075,123.));
#398=CARTESIAN_POINT('Ctrl Pts',(-3.62415996280726,-0.63209542032191,123.));
#399=CARTESIAN_POINT('Ctrl Pts',(-3.22282881930903,-1.38487955273673,123.));
#400=CARTESIAN_POINT('Ctrl Pts',(-2.57974109775324,-1.9574286717507,123.));
#401=CARTESIAN_POINT('Ctrl Pts',(-1.45326058159121,-2.54316358305959,123.));
#402=CARTESIAN_POINT('Ctrl Pts',(0.0276655337112142,-2.82330326992546,123.));
#403=CARTESIAN_POINT('Ctrl Pts',(1.50516222973872,-2.52691001002931,123.));
#404=CARTESIAN_POINT('Ctrl Pts',(2.62473238706009,-1.92627668274759,123.));
#405=CARTESIAN_POINT('Ctrl Pts',(3.09899591073723,-1.48929941875179,123.));
#406=CARTESIAN_POINT('Ctrl Pts',(3.33303606767912,-1.13808975598233,123.));
#407=CARTESIAN_POINT('',(-1.94956689841647,-2.27697157064724,123.));
#408=CARTESIAN_POINT('',(-1.85,-2.90015214376765,122.964032185351));
#409=CARTESIAN_POINT('Ctrl Pts',(-1.94956689853523,-2.27697157053302,123.));
#410=CARTESIAN_POINT('Ctrl Pts',(-1.88320410465819,-2.479349590013,123.));
#411=CARTESIAN_POINT('Ctrl Pts',(-1.84999999999999,-2.68947815260953,122.990611000689));
#412=CARTESIAN_POINT('Ctrl Pts',(-1.85,-2.90015214376768,122.964032185351));
#413=CARTESIAN_POINT('',(-3.45205007971986,-0.940142982698035,123.));
#414=CARTESIAN_POINT('Ctrl Pts',(-1.85,-2.90015214376768,122.964032185351));
#415=CARTESIAN_POINT('Ctrl Pts',(-1.85,-2.9358615630522,122.959527053722));
#416=CARTESIAN_POINT('Ctrl Pts',(-1.85095628528221,-2.97158789645403,122.954537871586));
#417=CARTESIAN_POINT('Ctrl Pts',(-1.86517243823996,-3.23656903072765,122.913723060824));
#418=CARTESIAN_POINT('Ctrl Pts',(-1.91633186971876,-3.45628452293277,122.858384835394));
#419=CARTESIAN_POINT('Ctrl Pts',(-2.09344152096005,-3.8876947877046,122.698332307728));
#420=CARTESIAN_POINT('Ctrl Pts',(-2.22480991463482,-4.08833610986707,122.591194972381));
#421=CARTESIAN_POINT('Ctrl Pts',(-2.57450010730663,-4.46678091786289,122.316240387178));
#422=CARTESIAN_POINT('Ctrl Pts',(-2.80375812364297,-4.62557019817712,122.141775549977));
#423=CARTESIAN_POINT('Ctrl Pts',(-3.35112628930324,-4.86478072488733,121.736132297456));
#424=CARTESIAN_POINT('Ctrl Pts',(-3.66646493702457,-4.91407736994186,121.508630250438));
#425=CARTESIAN_POINT('Ctrl Pts',(-4.18694034134686,-4.88403073195792,121.169728493645));
#426=CARTESIAN_POINT('Ctrl Pts',(-4.40283447724547,-4.83452882055364,121.041747046688));
#427=CARTESIAN_POINT('Ctrl Pts',(-4.71902524620001,-4.70572019434374,120.898522117785));
#428=CARTESIAN_POINT('Ctrl Pts',(-4.83279010535952,-4.6470028737556,120.856795597726));
#429=CARTESIAN_POINT('Ctrl Pts',(-4.99671400824673,-4.54001194854289,120.819359025571));
#430=CARTESIAN_POINT('Ctrl Pts',(-5.04894182920642,-4.50226562776513,120.811139499187));
#431=CARTESIAN_POINT('Ctrl Pts',(-5.14005422567626,-4.42934465171721,120.804285038802));
#432=CARTESIAN_POINT('Ctrl Pts',(-5.17908712414782,-4.39554494534823,120.804055645489));
#433=CARTESIAN_POINT('Ctrl Pts',(-5.26107884112056,-4.31878922317479,120.809643987142));
#434=CARTESIAN_POINT('Ctrl Pts',(-5.30307012956805,-4.2757114186661,120.816480725544));
#435=CARTESIAN_POINT('Ctrl Pts',(-5.41903248068263,-4.14563907899526,120.846629499887));
#436=CARTESIAN_POINT('Ctrl Pts',(-5.48578835152219,-4.05601243555018,120.878945167873));
#437=CARTESIAN_POINT('Ctrl Pts',(-5.67697763034847,-3.75163478824182,121.013674210783));
#438=CARTESIAN_POINT('Ctrl Pts',(-5.77097385317279,-3.51319575724941,121.157883820939));
#439=CARTESIAN_POINT('Ctrl Pts',(-5.86331638539496,-3.00916245041225,121.485055842018));
#440=CARTESIAN_POINT('Ctrl Pts',(-5.86292301898182,-2.73899275234337,121.670848996605));
#441=CARTESIAN_POINT('Ctrl Pts',(-5.73918488506284,-2.18169778965361,122.054437478837));
#442=CARTESIAN_POINT('Ctrl Pts',(-5.61257268724897,-1.90593045186884,122.244625969305));
#443=CARTESIAN_POINT('Ctrl Pts',(-5.26357015935354,-1.46232363221361,122.551134121262));
#444=CARTESIAN_POINT('Ctrl Pts',(-5.06251927511713,-1.28616759249243,122.67332653359));
#445=CARTESIAN_POINT('Ctrl Pts',(-4.61924776203149,-1.039331306801,122.851516672527));
#446=CARTESIAN_POINT('Ctrl Pts',(-4.39284080710809,-0.959811769895708,122.912370237799));
#447=CARTESIAN_POINT('Ctrl Pts',(-3.91992076522162,-0.887693443635328,122.98666373037));
#448=CARTESIAN_POINT('Ctrl Pts',(-3.68387673355465,-0.893074134765616,122.999999999265));
#449=CARTESIAN_POINT('Ctrl Pts',(-3.4520500822333,-0.940142995077371,123.));
#450=CARTESIAN_POINT('',(-3.7,-6.24500451351651E-16,123.));
#451=CARTESIAN_POINT('Ctrl Pts',(-3.45189837249711,-0.940061628741779,123.));
#452=CARTESIAN_POINT('Ctrl Pts',(-3.50717757339723,-0.837513949053551,123.));
#453=CARTESIAN_POINT('Ctrl Pts',(-3.64115872620544,-0.537716163359149,123.));
#454=CARTESIAN_POINT('Ctrl Pts',(-3.7,-0.211022063948075,123.));
#455=CARTESIAN_POINT('Ctrl Pts',(-3.7,-6.2450045135165E-16,123.));
#456=CARTESIAN_POINT('',(-7.7,-1.40644724210235E-15,119.));
#457=CARTESIAN_POINT('Origin',(-3.7,-6.24500451351651E-16,119.));
#458=CARTESIAN_POINT('',(6.66167294019715,-3.35623685906484,119.));
#459=CARTESIAN_POINT('Ctrl Pts',(-7.7,-2.0122792321331E-15,119.));
#460=CARTESIAN_POINT('Ctrl Pts',(-7.7,-0.677083064078791,119.));
#461=CARTESIAN_POINT('Ctrl Pts',(-7.44673939239999,-2.01499102248871,119.));
#462=CARTESIAN_POINT('Ctrl Pts',(-6.33228382460076,-4.03831141155164,119.));
#463=CARTESIAN_POINT('Ctrl Pts',(-4.89566034959164,-5.2621454858114,119.));
#464=CARTESIAN_POINT('Ctrl Pts',(-2.6554977645453,-6.4255973783969,119.));
#465=CARTESIAN_POINT('Ctrl Pts',(0.050990312661292,-6.90945492835556,119.));
#466=CARTESIAN_POINT('Ctrl Pts',(2.75520636304813,-6.39736714343723,119.));
#467=CARTESIAN_POINT('Ctrl Pts',(4.99292876939388,-5.20185386327723,119.));
#468=CARTESIAN_POINT('Ctrl Pts',(6.06188462490256,-4.25630227818001,119.));
#469=CARTESIAN_POINT('Ctrl Pts',(6.66167294019715,-3.35623685906484,119.));
#470=CARTESIAN_POINT('',(3.33303606767949,-1.13808975598257,123.));
#471=CARTESIAN_POINT('Origin',(3.33303606767912,-1.13808975598233,119.));
#472=CARTESIAN_POINT('Ctrl Pts',(3.33303606767912,-1.13808975598233,123.));
#473=CARTESIAN_POINT('Ctrl Pts',(3.09899591073723,-1.48929941875179,123.));
#474=CARTESIAN_POINT('Ctrl Pts',(2.62473238706009,-1.92627668274759,123.));
#475=CARTESIAN_POINT('Ctrl Pts',(1.50516222973872,-2.52691001002931,123.));
#476=CARTESIAN_POINT('Ctrl Pts',(0.0276655337112142,-2.82330326992546,123.));
#477=CARTESIAN_POINT('Ctrl Pts',(-1.28812075061175,-2.57440229244667,123.));
#478=CARTESIAN_POINT('Ctrl Pts',(-1.90751800241533,-2.29630329136063,123.));
#479=CARTESIAN_POINT('Ctrl Pts',(-1.94941467336826,-2.27664780573696,123.));
#480=CARTESIAN_POINT('Ctrl Pts',(6.66167293506222,3.35623686677052,119.));
#481=CARTESIAN_POINT('Ctrl Pts',(6.06188460986484,4.25630229799281,119.));
#482=CARTESIAN_POINT('Ctrl Pts',(4.63579767157124,5.51884749225179,119.));
#483=CARTESIAN_POINT('Ctrl Pts',(1.61125344124613,6.80242109848348,119.));
#484=CARTESIAN_POINT('Ctrl Pts',(-1.51078812121156,6.81847893781787,119.));
#485=CARTESIAN_POINT('Ctrl Pts',(-4.53637126802735,5.56954472171438,119.));
#486=CARTESIAN_POINT('Ctrl Pts',(-6.33175489317402,4.03742901538546,119.));
#487=CARTESIAN_POINT('Ctrl Pts',(-7.44667503178235,2.01519729751123,119.));
#488=CARTESIAN_POINT('Ctrl Pts',(-7.7,0.677083067122537,119.));
#489=CARTESIAN_POINT('Ctrl Pts',(-7.7,1.66533453693773E-15,119.));
#490=CARTESIAN_POINT('Ctrl Pts',(6.66167293506222,3.35623686677052,120.196797201368));
#491=CARTESIAN_POINT('Ctrl Pts',(6.0608131986831,4.2579100988232,120.196797201368));
#492=CARTESIAN_POINT('Ctrl Pts',(4.63631199193228,5.52218010953529,120.196797201368));
#493=CARTESIAN_POINT('Ctrl Pts',(1.60948928807336,6.80763917771279,120.196797201368));
#494=CARTESIAN_POINT('Ctrl Pts',(-1.5088870240575,6.82527341090774,120.196797201368));
#495=CARTESIAN_POINT('Ctrl Pts',(-4.53566576435382,5.57616374815707,120.196797201368));
#496=CARTESIAN_POINT('Ctrl Pts',(-6.33112512338634,4.04346198144909,120.196797201368));
#497=CARTESIAN_POINT('Ctrl Pts',(-7.44727407852937,2.01828115323183,120.196797201368));
#498=CARTESIAN_POINT('Ctrl Pts',(-7.7,0.678448331580536,120.196797201368));
#499=CARTESIAN_POINT('Ctrl Pts',(-7.7,1.66533453693773E-15,120.196797201368));
#500=CARTESIAN_POINT('Ctrl Pts',(5.82589216248514,2.79928674689376,122.268838654414));
#501=CARTESIAN_POINT('Ctrl Pts',(5.31809927429844,3.56130028679881,122.268838654414));
#502=CARTESIAN_POINT('Ctrl Pts',(4.09075790267975,4.65285847010448,122.268838654414));
#503=CARTESIAN_POINT('Ctrl Pts',(1.43330128715761,5.78455266665008,122.268838654414));
#504=CARTESIAN_POINT('Ctrl Pts',(-1.34451221520588,5.79860062581704,122.268838654414));
#505=CARTESIAN_POINT('Ctrl Pts',(-4.00466839359037,4.69752028956323,122.268838654414));
#506=CARTESIAN_POINT('Ctrl Pts',(-5.55125007678027,3.37050515836543,122.268838654414));
#507=CARTESIAN_POINT('Ctrl Pts',(-6.48677308676414,1.66745334569299,122.268838654414));
#508=CARTESIAN_POINT('Ctrl Pts',(-6.69564800202306,0.55985627073582,122.268838654414));
#509=CARTESIAN_POINT('Ctrl Pts',(-6.69564800202306,1.40399358858251E-15,
122.268838654414));
#510=CARTESIAN_POINT('Ctrl Pts',(4.07998043248499,1.6358408060168,123.));
#511=CARTESIAN_POINT('Ctrl Pts',(3.76414027869168,2.10980268936579,123.));
#512=CARTESIAN_POINT('Ctrl Pts',(2.95229874473815,2.84453334439464,123.));
#513=CARTESIAN_POINT('Ctrl Pts',(1.06120107242868,3.65934828739136,123.));
#514=CARTESIAN_POINT('Ctrl Pts',(-0.996774833640187,3.66952426117693,123.));
#515=CARTESIAN_POINT('Ctrl Pts',(-2.89381675734006,2.87726826519202,123.));
#516=CARTESIAN_POINT('Ctrl Pts',(-3.9206770849692,1.97857840674937,123.));
#517=CARTESIAN_POINT('Ctrl Pts',(-4.48170142280305,0.941669366572051,123.));
#518=CARTESIAN_POINT('Ctrl Pts',(-4.59759790102565,0.315257137976692,123.));
#519=CARTESIAN_POINT('Ctrl Pts',(-4.59759790102565,8.58063073986157E-16,
123.));
#520=CARTESIAN_POINT('Ctrl Pts',(3.33303606567545,1.13808975898912,123.));
#521=CARTESIAN_POINT('Ctrl Pts',(3.0989959046773,1.48929942677118,123.));
#522=CARTESIAN_POINT('Ctrl Pts',(2.46539230882427,2.07188902561002,123.));
#523=CARTESIAN_POINT('Ctrl Pts',(0.901476922463112,2.75170207845847,123.));
#524=CARTESIAN_POINT('Ctrl Pts',(-0.847432532157046,2.76069550914898,123.));
#525=CARTESIAN_POINT('Ctrl Pts',(-2.41835472902171,2.10050947699811,123.));
#526=CARTESIAN_POINT('Ctrl Pts',(-3.22288813427093,1.38489158411304,123.));
#527=CARTESIAN_POINT('Ctrl Pts',(-3.62406212531597,0.632088218636194,123.));
#528=CARTESIAN_POINT('Ctrl Pts',(-3.7,0.211022064896699,123.));
#529=CARTESIAN_POINT('Ctrl Pts',(-3.7,6.24500451351651E-16,123.));
#530=CARTESIAN_POINT('',(-3.45205006170823,0.940142999196581,123.));
#531=CARTESIAN_POINT('',(-1.85,2.90015214376763,122.964032185351));
#532=CARTESIAN_POINT('Ctrl Pts',(-3.45205006164076,0.940142999258381,123.));
#533=CARTESIAN_POINT('Ctrl Pts',(-3.69319291462253,0.891182623869983,123.));
#534=CARTESIAN_POINT('Ctrl Pts',(-3.93870181936552,0.887345681345646,122.985495222896));
#535=CARTESIAN_POINT('Ctrl Pts',(-4.40686715294898,0.965378284809104,122.908265524928));
#536=CARTESIAN_POINT('Ctrl Pts',(-4.62107964973284,1.04154919114813,122.850013037748));
#537=CARTESIAN_POINT('Ctrl Pts',(-5.0361962017289,1.27019470522824,122.684750321411));
#538=CARTESIAN_POINT('Ctrl Pts',(-5.22513587897483,1.42869479003177,122.574516710743));
#539=CARTESIAN_POINT('Ctrl Pts',(-5.56496503394549,1.83112752696615,122.296171447994));
#540=CARTESIAN_POINT('Ctrl Pts',(-5.69607919880556,2.08349998009074,122.122299644385));
#541=CARTESIAN_POINT('Ctrl Pts',(-5.86262751502016,2.66166390828742,121.723870260748));
#542=CARTESIAN_POINT('Ctrl Pts',(-5.87044925436688,2.97886845758199,121.504356518482));
#543=CARTESIAN_POINT('Ctrl Pts',(-5.77270778179974,3.49677750970499,121.168833493731));
#544=CARTESIAN_POINT('Ctrl Pts',(-5.69216896746736,3.71017323696505,121.039407004587));
#545=CARTESIAN_POINT('Ctrl Pts',(-5.52026543167672,4.00675496184303,120.898358286183));
#546=CARTESIAN_POINT('Ctrl Pts',(-5.44905645772226,4.10812748940012,120.858293909817));
#547=CARTESIAN_POINT('Ctrl Pts',(-5.32478900442296,4.25255942445292,120.820911332227));
#548=CARTESIAN_POINT('Ctrl Pts',(-5.28095506752052,4.29890601728708,120.812339110601));
#549=CARTESIAN_POINT('Ctrl Pts',(-5.19724822772847,4.37920116129606,120.804603036774));
#550=CARTESIAN_POINT('Ctrl Pts',(-5.15865776404331,4.41345512494457,120.803941318157));
#551=CARTESIAN_POINT('Ctrl Pts',(-5.07146049107713,4.48500838907056,120.808637482347));
#552=CARTESIAN_POINT('Ctrl Pts',(-5.02284469209276,4.52128585734629,120.815088541871));
#553=CARTESIAN_POINT('Ctrl Pts',(-4.87539444385485,4.62133126191477,120.844894721554));
#554=CARTESIAN_POINT('Ctrl Pts',(-4.77488460272488,4.6769613069222,120.878118136055));
#555=CARTESIAN_POINT('Ctrl Pts',(-4.44526322160458,4.82581598141701,121.015501885058));
#556=CARTESIAN_POINT('Ctrl Pts',(-4.19839055560874,4.88578883458231,121.161433784077));
#557=CARTESIAN_POINT('Ctrl Pts',(-3.68990069227805,4.91008213903887,121.494287115284));
#558=CARTESIAN_POINT('Ctrl Pts',(-3.42235982421079,4.87364491992538,121.685412018312));
#559=CARTESIAN_POINT('Ctrl Pts',(-2.88478575135299,4.67635300515935,122.080284188878));
#560=CARTESIAN_POINT('Ctrl Pts',(-2.62528943357849,4.51207641196147,122.27698250031));
#561=CARTESIAN_POINT('Ctrl Pts',(-2.2349874750356,4.10603102681174,122.582725179174));
#562=CARTESIAN_POINT('Ctrl Pts',(-2.09056578423477,3.88841016042075,122.700156794395));
#563=CARTESIAN_POINT('Ctrl Pts',(-1.90530521017755,3.42209771307969,122.869084336544));
#564=CARTESIAN_POINT('Ctrl Pts',(-1.85595187407068,3.18816956757025,122.924658870093));
#565=CARTESIAN_POINT('Ctrl Pts',(-1.85016720782143,2.93001939767262,122.960179879019));
#566=CARTESIAN_POINT('Ctrl Pts',(-1.85,2.91508356685024,122.96214842393));
#567=CARTESIAN_POINT('Ctrl Pts',(-1.85,2.90015214376763,122.964032185351));
#568=CARTESIAN_POINT('',(-1.94956689843118,2.27697157063309,123.));
#569=CARTESIAN_POINT('Ctrl Pts',(-1.85,2.90015214376763,122.964032185351));
#570=CARTESIAN_POINT('Ctrl Pts',(-1.85,2.68919966909105,122.990646134414));
#571=CARTESIAN_POINT('Ctrl Pts',(-1.88329106609069,2.47908439499255,123.));
#572=CARTESIAN_POINT('Ctrl Pts',(-1.94956689853523,2.27697157053302,123.));
#573=CARTESIAN_POINT('',(3.33303606521085,1.13808975867953,123.));
#574=CARTESIAN_POINT('Ctrl Pts',(-1.94947075895969,2.27676707001609,123.));
#575=CARTESIAN_POINT('Ctrl Pts',(-1.71671759946498,2.3859257419261,123.));
#576=CARTESIAN_POINT('Ctrl Pts',(-0.676737900249711,2.75981774481576,123.));
#577=CARTESIAN_POINT('Ctrl Pts',(0.901476922463112,2.75170207845847,123.));
#578=CARTESIAN_POINT('Ctrl Pts',(2.46539230882427,2.07188902561002,123.));
#579=CARTESIAN_POINT('Ctrl Pts',(3.0989959046773,1.48929942677118,123.));
#580=CARTESIAN_POINT('Ctrl Pts',(3.33303606567545,1.13808975898912,123.));
#581=CARTESIAN_POINT('',(6.66167293506222,3.35623686677053,119.));
#582=CARTESIAN_POINT('Origin',(3.33303606567544,1.13808975898912,119.));
#583=CARTESIAN_POINT('Ctrl Pts',(6.66167293506222,3.35623686677052,119.));
#584=CARTESIAN_POINT('Ctrl Pts',(6.06188460986484,4.25630229799281,119.));
#585=CARTESIAN_POINT('Ctrl Pts',(4.63579767157124,5.51884749225179,119.));
#586=CARTESIAN_POINT('Ctrl Pts',(1.61125344124613,6.80242109848348,119.));
#587=CARTESIAN_POINT('Ctrl Pts',(-1.51078812121156,6.81847893781787,119.));
#588=CARTESIAN_POINT('Ctrl Pts',(-4.53637126802735,5.56954472171438,119.));
#589=CARTESIAN_POINT('Ctrl Pts',(-6.33175489317402,4.03742901538546,119.));
#590=CARTESIAN_POINT('Ctrl Pts',(-7.44667503178235,2.01519729751123,119.));
#591=CARTESIAN_POINT('Ctrl Pts',(-7.7,0.677083067122537,119.));
#592=CARTESIAN_POINT('Ctrl Pts',(-7.7,1.66533453693773E-15,119.));
#593=CARTESIAN_POINT('Ctrl Pts',(-3.7,6.24500451351651E-16,123.));
#594=CARTESIAN_POINT('Ctrl Pts',(-3.7,0.211022064896699,123.));
#595=CARTESIAN_POINT('Ctrl Pts',(-3.64108391380094,0.537704499879832,123.));
#596=CARTESIAN_POINT('Ctrl Pts',(-3.50713693357657,0.83750174571895,123.));
#597=CARTESIAN_POINT('Ctrl Pts',(-3.45186846736168,0.940045634846144,123.));
#598=CARTESIAN_POINT('Ctrl Pts',(6.66167294019715,-3.35623685906485,119.));
#599=CARTESIAN_POINT('Ctrl Pts',(6.99009509206235,-2.86339394394393,119.));
#600=CARTESIAN_POINT('Ctrl Pts',(7.50180611738051,-1.84617873771204,119.));
#601=CARTESIAN_POINT('Ctrl Pts',(7.69996841272387,-0.556451634667973,119.));
#602=CARTESIAN_POINT('Ctrl Pts',(7.6999999906318,-0.000329968678842718,
119.));
#603=CARTESIAN_POINT('Ctrl Pts',(6.66167294019715,-3.35623685906485,120.196797201368));
#604=CARTESIAN_POINT('Ctrl Pts',(6.99068175764293,-2.86251357100534,120.196797201368));
#605=CARTESIAN_POINT('Ctrl Pts',(7.50208540795591,-1.84761262800593,120.196797201368));
#606=CARTESIAN_POINT('Ctrl Pts',(7.69996834905045,-0.557572993598395,120.196797201368));
#607=CARTESIAN_POINT('Ctrl Pts',(7.6999999906318,-0.000329968678842718,
120.196797201368));
#608=CARTESIAN_POINT('Ctrl Pts',(5.82588667756907,-2.79928308241506,122.268833687234));
#609=CARTESIAN_POINT('Ctrl Pts',(6.10393549248951,-2.38203233451924,122.268833687234));
#610=CARTESIAN_POINT('Ctrl Pts',(6.5321988584925,-1.52742517778362,122.268833687234));
#611=CARTESIAN_POINT('Ctrl Pts',(6.6956152871964,-0.460110464216231,122.268833687234));
#612=CARTESIAN_POINT('Ctrl Pts',(6.69564139786233,-0.000272938814501709,
122.268833687234));
#613=CARTESIAN_POINT('Ctrl Pts',(4.07998043519132,-1.63584080195558,123.));
#614=CARTESIAN_POINT('Ctrl Pts',(4.25292295265547,-1.3763166073441,123.));
#615=CARTESIAN_POINT('Ctrl Pts',(4.50680613479627,-0.861863093226237,123.));
#616=CARTESIAN_POINT('Ctrl Pts',(4.59758319364626,-0.259090019555468,123.));
#617=CARTESIAN_POINT('Ctrl Pts',(4.59759789665889,-0.000153806925635965,
123.));
#618=CARTESIAN_POINT('Ctrl Pts',(3.33303606767912,-1.13808975598233,123.));
#619=CARTESIAN_POINT('Ctrl Pts',(3.46118790059365,-0.945780185653425,123.));
#620=CARTESIAN_POINT('Ctrl Pts',(3.64037418263469,-0.577549706861451,123.));
#621=CARTESIAN_POINT('Ctrl Pts',(3.69999015539957,-0.173425653345324,123.));
#622=CARTESIAN_POINT('Ctrl Pts',(3.69999999708027,-0.000102839186808153,
123.));
#623=CARTESIAN_POINT('',(5.10000352500251,-9.44273054307954E-5,122.747008288189));
#624=CARTESIAN_POINT('Ctrl Pts',(5.09999998670165,-0.000182334508559909,
122.746998802074));
#625=CARTESIAN_POINT('Ctrl Pts',(5.09998343926472,-0.113623811326455,122.747002577987));
#626=CARTESIAN_POINT('Ctrl Pts',(5.08452818141041,-0.22658410467904,122.750551205726));
#627=CARTESIAN_POINT('Ctrl Pts',(5.00970993152696,-0.494696037446807,122.767408386052));
#628=CARTESIAN_POINT('Ctrl Pts',(4.93465769885768,-0.64251375334131,122.784215705148));
#629=CARTESIAN_POINT('Ctrl Pts',(4.74127532671238,-0.88911499486481,122.824919411371));
#630=CARTESIAN_POINT('Ctrl Pts',(4.62871764138257,-0.989103125458087,122.847740777439));
#631=CARTESIAN_POINT('Ctrl Pts',(4.37021548415332,-1.14696687713503,122.895332973558));
#632=CARTESIAN_POINT('Ctrl Pts',(4.22510149033377,-1.20232302809151,122.919800885558));
#633=CARTESIAN_POINT('Ctrl Pts',(3.94736932512078,-1.25276459172975,122.95853861616));
#634=CARTESIAN_POINT('Ctrl Pts',(3.81822376336443,-1.25621812355693,122.973610235996));
#635=CARTESIAN_POINT('Ctrl Pts',(3.56711508871745,-1.22390449412206,122.994268412994));
#636=CARTESIAN_POINT('Ctrl Pts',(3.44665284405354,-1.18969884497283,123.));
#637=CARTESIAN_POINT('Ctrl Pts',(3.33303606767795,-1.1380897559849,123.));
#638=CARTESIAN_POINT('',(7.6999999906318,-0.000329968678844679,119.));
#639=CARTESIAN_POINT('Ctrl Pts',(6.66167294019715,-3.35623685906485,119.));
#640=CARTESIAN_POINT('Ctrl Pts',(6.99009509206235,-2.86339394394393,119.));
#641=CARTESIAN_POINT('Ctrl Pts',(7.50180611738051,-1.84617873771204,119.));
#642=CARTESIAN_POINT('Ctrl Pts',(7.69996841272387,-0.556451634667973,119.));
#643=CARTESIAN_POINT('Ctrl Pts',(7.6999999906318,-0.000329968678842718,
119.));
#644=CARTESIAN_POINT('Origin',(3.69999999708027,-0.000102839186808708,119.));
#645=CARTESIAN_POINT('Ctrl Pts',(7.6999999906318,-0.000329968678843759,
119.));
#646=CARTESIAN_POINT('Ctrl Pts',(7.7000315741654,0.555890771681218,119.));
#647=CARTESIAN_POINT('Ctrl Pts',(7.50191666542836,1.84595828918308,119.));
#648=CARTESIAN_POINT('Ctrl Pts',(6.99015359652538,2.86330615140402,119.));
#649=CARTESIAN_POINT('Ctrl Pts',(6.66167293506222,3.35623686677053,119.));
#650=CARTESIAN_POINT('Ctrl Pts',(7.6999999906318,-0.000329968678843759,
120.196797201368));
#651=CARTESIAN_POINT('Ctrl Pts',(7.70003163785017,0.557012330384347,120.196797201368));
#652=CARTESIAN_POINT('Ctrl Pts',(7.50219617133335,1.84739262313539,120.196797201368));
#653=CARTESIAN_POINT('Ctrl Pts',(6.99074036662225,2.86242562162696,120.196797201368));
#654=CARTESIAN_POINT('Ctrl Pts',(6.66167293506222,3.35623686677053,120.196797201368));
#655=CARTESIAN_POINT('Ctrl Pts',(6.69564139786243,-0.000272938814502503,
122.268833687234));
#656=CARTESIAN_POINT('Ctrl Pts',(6.69566751318004,0.459646507714106,122.268833687234));
#657=CARTESIAN_POINT('Ctrl Pts',(6.53229069641704,1.52724043315841,122.268833687234));
#658=CARTESIAN_POINT('Ctrl Pts',(6.10398502357258,2.3819580075474,122.268833687234));
#659=CARTESIAN_POINT('Ctrl Pts',(5.82588667322045,2.79928308894095,122.268833687234));
#660=CARTESIAN_POINT('Ctrl Pts',(4.59759789665889,-0.000153806925636225,
123.));
#661=CARTESIAN_POINT('Ctrl Pts',(4.5976126022909,0.258828535793971,123.));
#662=CARTESIAN_POINT('Ctrl Pts',(4.50685893265386,0.86175302300326,123.));
#663=CARTESIAN_POINT('Ctrl Pts',(4.25295376036781,1.37627037689987,123.));
#664=CARTESIAN_POINT('Ctrl Pts',(4.07998043248499,1.6358408060168,123.));
#665=CARTESIAN_POINT('Ctrl Pts',(3.69999999708027,-0.000102839186808187,
123.));
#666=CARTESIAN_POINT('Ctrl Pts',(3.70000984051429,0.173250852835008,123.));
#667=CARTESIAN_POINT('Ctrl Pts',(3.64041034292726,0.577471717807049,123.));
#668=CARTESIAN_POINT('Ctrl Pts',(3.46121072940922,0.945745928442991,123.));
#669=CARTESIAN_POINT('Ctrl Pts',(3.33303606567544,1.13808975898912,123.));
#670=CARTESIAN_POINT('Ctrl Pts',(7.6999999906318,-0.000329968678843759,
119.));
#671=CARTESIAN_POINT('Ctrl Pts',(7.7000315741654,0.555890771681218,119.));
#672=CARTESIAN_POINT('Ctrl Pts',(7.50191666542836,1.84595828918308,119.));
#673=CARTESIAN_POINT('Ctrl Pts',(6.99015359652538,2.86330615140402,119.));
#674=CARTESIAN_POINT('Ctrl Pts',(6.66167293506222,3.35623686677053,119.));
#675=CARTESIAN_POINT('Ctrl Pts',(3.33303606714906,1.13808975574497,123.));
#676=CARTESIAN_POINT('Ctrl Pts',(3.43268159642601,1.18335256954853,123.000000000015));
#677=CARTESIAN_POINT('Ctrl Pts',(3.53766900242039,1.21526215064739,122.995597235746));
#678=CARTESIAN_POINT('Ctrl Pts',(3.78069870215767,1.25559687471795,122.977647692659));
#679=CARTESIAN_POINT('Ctrl Pts',(3.9183857977593,1.25555394921819,122.962212490181));
#680=CARTESIAN_POINT('Ctrl Pts',(4.20369695112021,1.2086125245086,122.923144487322));
#681=CARTESIAN_POINT('Ctrl Pts',(4.34840654053116,1.1564167103408,122.899075858138));
#682=CARTESIAN_POINT('Ctrl Pts',(4.6194309642501,0.998269097426494,122.849696846678));
#683=CARTESIAN_POINT('Ctrl Pts',(4.74208123612567,0.890487217747738,122.824799173551));
#684=CARTESIAN_POINT('Ctrl Pts',(4.92388950634616,0.654062107113296,122.786437269171));
#685=CARTESIAN_POINT('Ctrl Pts',(4.98891654569159,0.53302026421465,122.772020629816));
#686=CARTESIAN_POINT('Ctrl Pts',(5.07734618083469,0.273701957039324,122.752214370454));
#687=CARTESIAN_POINT('Ctrl Pts',(5.1,0.137432298660831,122.746998799039));
#688=CARTESIAN_POINT('Ctrl Pts',(5.1,1.53592416562987E-13,122.746998799039));
#689=CARTESIAN_POINT('Ctrl Pts',(-7.7,-8.00615252071602E-16,118.));
#690=CARTESIAN_POINT('Ctrl Pts',(-7.7,-8.00615252071602E-16,123.));
#691=CARTESIAN_POINT('Ctrl Pts',(-7.7,-1.78001287090254,118.));
#692=CARTESIAN_POINT('Ctrl Pts',(-7.7,-1.78001287090254,123.));
#693=CARTESIAN_POINT('Ctrl Pts',(-6.84607881136318,-3.56650036020139,118.));
#694=CARTESIAN_POINT('Ctrl Pts',(-6.84607881136318,-3.56650036020139,123.));
#695=CARTESIAN_POINT('Ctrl Pts',(-5.32777302597771,-4.83382139191761,118.));
#696=CARTESIAN_POINT('Ctrl Pts',(-5.32777302597771,-4.83382139191761,123.));
#697=CARTESIAN_POINT('Ctrl Pts',(-3.86619015652201,-6.05379613474394,118.));
#698=CARTESIAN_POINT('Ctrl Pts',(-3.86619015652201,-6.05379613474394,123.));
#699=CARTESIAN_POINT('Ctrl Pts',(-1.80063257585038,-6.75544709441683,118.));
#700=CARTESIAN_POINT('Ctrl Pts',(-1.80063257585038,-6.75544709441683,123.));
#701=CARTESIAN_POINT('Ctrl Pts',(0.25372222563815,-6.69635170911291,118.));
#702=CARTESIAN_POINT('Ctrl Pts',(0.25372222563815,-6.69635170911291,123.));
#703=CARTESIAN_POINT('Ctrl Pts',(2.28359922180622,-6.63796045015355,118.));
#704=CARTESIAN_POINT('Ctrl Pts',(2.28359922180622,-6.63796045015355,123.));
#705=CARTESIAN_POINT('Ctrl Pts',(4.26612926844591,-5.838812369512,118.));
#706=CARTESIAN_POINT('Ctrl Pts',(4.26612926844591,-5.838812369512,123.));
#707=CARTESIAN_POINT('Ctrl Pts',(5.62771631224158,-4.569212329079,118.));
#708=CARTESIAN_POINT('Ctrl Pts',(5.62771631224158,-4.569212329079,123.));
#709=CARTESIAN_POINT('Ctrl Pts',(6.96223091515441,-3.3248557515565,118.));
#710=CARTESIAN_POINT('Ctrl Pts',(6.96223091515441,-3.3248557515565,123.));
#711=CARTESIAN_POINT('Ctrl Pts',(7.69990568186967,-1.66121092480128,118.));
#712=CARTESIAN_POINT('Ctrl Pts',(7.69990568186967,-1.66121092480128,123.));
#713=CARTESIAN_POINT('Ctrl Pts',(7.6999999906318,-0.000329968678843958,
118.));
#714=CARTESIAN_POINT('Ctrl Pts',(7.6999999906318,-0.000329968678843958,
123.));
#715=CARTESIAN_POINT('',(-7.7,-8.00615252071602E-16,118.));
#716=CARTESIAN_POINT('',(-7.7,-8.00615252071602E-16,118.));
#717=CARTESIAN_POINT('',(7.6999999906318,-0.000329968678843958,118.));
#718=CARTESIAN_POINT('Ctrl Pts',(-7.7,-8.00615252071602E-16,118.));
#719=CARTESIAN_POINT('Ctrl Pts',(-7.7,-1.78001287090254,118.));
#720=CARTESIAN_POINT('Ctrl Pts',(-6.84607881136318,-3.56650036020139,118.));
#721=CARTESIAN_POINT('Ctrl Pts',(-5.32777302597771,-4.83382139191761,118.));
#722=CARTESIAN_POINT('Ctrl Pts',(-3.86619015652201,-6.05379613474394,118.));
#723=CARTESIAN_POINT('Ctrl Pts',(-1.80063257585038,-6.75544709441683,118.));
#724=CARTESIAN_POINT('Ctrl Pts',(0.25372222563815,-6.69635170911291,118.));
#725=CARTESIAN_POINT('Ctrl Pts',(2.28359922180622,-6.63796045015355,118.));
#726=CARTESIAN_POINT('Ctrl Pts',(4.26612926844591,-5.838812369512,118.));
#727=CARTESIAN_POINT('Ctrl Pts',(5.62771631224158,-4.569212329079,118.));
#728=CARTESIAN_POINT('Ctrl Pts',(6.96223091515441,-3.3248557515565,118.));
#729=CARTESIAN_POINT('Ctrl Pts',(7.69990568186967,-1.66121092480128,118.));
#730=CARTESIAN_POINT('Ctrl Pts',(7.6999999906318,-0.000329968678843958,
118.));
#731=CARTESIAN_POINT('',(7.6999999906318,-0.000329968678843958,118.));
#732=CARTESIAN_POINT('Origin',(3.85,1.53240308345106E-13,118.));
#733=CARTESIAN_POINT('',(5.1,1.53087227495213E-13,94.1000013113022));
#734=CARTESIAN_POINT('',(5.1,1.53087227495213E-13,118.));
#735=CARTESIAN_POINT('Origin',(3.85,1.53240308345106E-13,92.8500013113022));
#736=CARTESIAN_POINT('Origin',(3.85,1.53240308345106E-13,123.));
#737=CARTESIAN_POINT('Origin',(-0.700017221394073,-5.92241599943128E-5,
123.));
#738=CARTESIAN_POINT('Origin',(-3.85,2.90015214376763,123.));
#739=CARTESIAN_POINT('Origin',(-3.85,-2.90015214376762,123.));
#740=CARTESIAN_POINT('Ctrl Pts',(7.6999999906318,-0.000329968678843958,
118.));
#741=CARTESIAN_POINT('Ctrl Pts',(7.6999999906318,-0.000329968678843958,
123.));
#742=CARTESIAN_POINT('Ctrl Pts',(7.70001407100282,0.247640840791151,118.));
#743=CARTESIAN_POINT('Ctrl Pts',(7.70001407100282,0.247640840791151,123.));
#744=CARTESIAN_POINT('Ctrl Pts',(7.68415272333605,0.495453172185286,118.));
#745=CARTESIAN_POINT('Ctrl Pts',(7.68415272333605,0.495453172185286,123.));
#746=CARTESIAN_POINT('Ctrl Pts',(7.65249706963777,0.741897838322957,118.));
#747=CARTESIAN_POINT('Ctrl Pts',(7.65249706963777,0.741897838322957,123.));
#748=CARTESIAN_POINT('Ctrl Pts',(7.42887990162367,2.482795652001,118.));
#749=CARTESIAN_POINT('Ctrl Pts',(7.42887990162367,2.482795652001,123.));
#750=CARTESIAN_POINT('Ctrl Pts',(6.37713566852699,4.16172451278477,118.));
#751=CARTESIAN_POINT('Ctrl Pts',(6.37713566852699,4.16172451278477,123.));
#752=CARTESIAN_POINT('Ctrl Pts',(4.74318287276525,5.27500273882714,118.));
#753=CARTESIAN_POINT('Ctrl Pts',(4.74318287276525,5.27500273882714,123.));
#754=CARTESIAN_POINT('Ctrl Pts',(3.17028186317083,6.34668390993784,118.));
#755=CARTESIAN_POINT('Ctrl Pts',(3.17028186317083,6.34668390993784,123.));
#756=CARTESIAN_POINT('Ctrl Pts',(1.07122071098051,6.86373397908453,118.));
#757=CARTESIAN_POINT('Ctrl Pts',(1.07122071098051,6.86373397908453,123.));
#758=CARTESIAN_POINT('Ctrl Pts',(-0.932057959457638,6.65059964203149,118.));
#759=CARTESIAN_POINT('Ctrl Pts',(-0.932057959457638,6.65059964203149,123.));
#760=CARTESIAN_POINT('Ctrl Pts',(-2.9061887748109,6.44056642558723,118.));
#761=CARTESIAN_POINT('Ctrl Pts',(-2.9061887748109,6.44056642558723,123.));
#762=CARTESIAN_POINT('Ctrl Pts',(-4.76385696113224,5.5273271857479,118.));
#763=CARTESIAN_POINT('Ctrl Pts',(-4.76385696113224,5.5273271857479,123.));
#764=CARTESIAN_POINT('Ctrl Pts',(-5.98959891422665,4.20661620024862,118.));
#765=CARTESIAN_POINT('Ctrl Pts',(-5.98959891422665,4.20661620024862,123.));
#766=CARTESIAN_POINT('Ctrl Pts',(-7.09935827188622,3.01087400408612,118.));
#767=CARTESIAN_POINT('Ctrl Pts',(-7.09935827188622,3.01087400408612,123.));
#768=CARTESIAN_POINT('Ctrl Pts',(-7.7,1.50314768654669,118.));
#769=CARTESIAN_POINT('Ctrl Pts',(-7.7,1.50314768654669,123.));
#770=CARTESIAN_POINT('Ctrl Pts',(-7.7,8.00615252071601E-16,118.));
#771=CARTESIAN_POINT('Ctrl Pts',(-7.7,8.00615252071601E-16,123.));
#772=CARTESIAN_POINT('Ctrl Pts',(7.6999999906318,-0.000329968678843958,
118.));
#773=CARTESIAN_POINT('Ctrl Pts',(7.70001407100282,0.247640840791151,118.));
#774=CARTESIAN_POINT('Ctrl Pts',(7.68415272333605,0.495453172185286,118.));
#775=CARTESIAN_POINT('Ctrl Pts',(7.65249706963777,0.741897838322957,118.));
#776=CARTESIAN_POINT('Ctrl Pts',(7.42887990162367,2.482795652001,118.));
#777=CARTESIAN_POINT('Ctrl Pts',(6.37713566852699,4.16172451278477,118.));
#778=CARTESIAN_POINT('Ctrl Pts',(4.74318287276525,5.27500273882714,118.));
#779=CARTESIAN_POINT('Ctrl Pts',(3.17028186317083,6.34668390993784,118.));
#780=CARTESIAN_POINT('Ctrl Pts',(1.07122071098051,6.86373397908453,118.));
#781=CARTESIAN_POINT('Ctrl Pts',(-0.932057959457638,6.65059964203149,118.));
#782=CARTESIAN_POINT('Ctrl Pts',(-2.9061887748109,6.44056642558723,118.));
#783=CARTESIAN_POINT('Ctrl Pts',(-4.76385696113224,5.5273271857479,118.));
#784=CARTESIAN_POINT('Ctrl Pts',(-5.98959891422665,4.20661620024862,118.));
#785=CARTESIAN_POINT('Ctrl Pts',(-7.09935827188622,3.01087400408612,118.));
#786=CARTESIAN_POINT('Ctrl Pts',(-7.7,1.50314768654669,118.));
#787=CARTESIAN_POINT('Ctrl Pts',(-7.7,8.00615252071601E-16,118.));
#788=CARTESIAN_POINT('Origin',(-3.85,-2.90015214376762,118.));
#789=CARTESIAN_POINT('',(-1.85,-2.90015214376762,88.));
#790=CARTESIAN_POINT('',(-1.85,-2.90015214376762,118.));
#791=CARTESIAN_POINT('Origin',(-3.85,-2.90015214376762,88.));
#792=CARTESIAN_POINT('Origin',(-3.85,2.90015214376763,118.));
#793=CARTESIAN_POINT('',(-1.85,2.90015214376763,88.));
#794=CARTESIAN_POINT('',(-1.85,2.90015214376763,118.));
#795=CARTESIAN_POINT('Origin',(-3.85,2.90015214376763,88.));
#796=CARTESIAN_POINT('Origin',(-1.,-3.09596177495981E-5,89.));
#797=CARTESIAN_POINT('',(1.23259516440783E-31,-6.98999998688698,89.0000013113022));
#798=CARTESIAN_POINT('',(-0.999999999780184,-6.94499079236679,88.));
#799=CARTESIAN_POINT('Ctrl Pts',(-9.49064235391539E-5,-6.99000141734704,
89.0000013113022));
#800=CARTESIAN_POINT('Ctrl Pts',(-9.44194195279868E-5,-6.9905914183664,
88.9410098075447));
#801=CARTESIAN_POINT('Ctrl Pts',(-0.00531568874467035,-6.99118290542113,
88.882108518475));
#802=CARTESIAN_POINT('Ctrl Pts',(-0.0157101346792852,-6.99174250986524,
88.8239921569883));
#803=CARTESIAN_POINT('Ctrl Pts',(-0.0207009039809096,-6.99201119726794,
88.796088278835));
#804=CARTESIAN_POINT('Ctrl Pts',(-0.0268842581237174,-6.99227175613073,
88.7683653520584));
#805=CARTESIAN_POINT('Ctrl Pts',(-0.0342547719724471,-6.99251623751433,
88.7409002726696));
#806=CARTESIAN_POINT('Ctrl Pts',(-0.0513620209128339,-6.9930836883022,88.6771527565647));
#807=CARTESIAN_POINT('Ctrl Pts',(-0.074704523592063,-6.99356302857899,88.6153896148442));
#808=CARTESIAN_POINT('Ctrl Pts',(-0.103869939623126,-6.9938119440646,88.5564814920221));
#809=CARTESIAN_POINT('Ctrl Pts',(-0.128985051214508,-6.99402629177668,88.5057541484883));
#810=CARTESIAN_POINT('Ctrl Pts',(-0.158418133351066,-6.99406832263079,88.4571439122074));
#811=CARTESIAN_POINT('Ctrl Pts',(-0.191902208366863,-6.99381667580148,88.4112067407864));
#812=CARTESIAN_POINT('Ctrl Pts',(-0.248223127997447,-6.99339340053279,88.3339394506361));
#813=CARTESIAN_POINT('Ctrl Pts',(-0.31521837700805,-6.99214066291181,88.2653136220196));
#814=CARTESIAN_POINT('Ctrl Pts',(-0.390729516321895,-6.98948268731558,88.207294019624));
#815=CARTESIAN_POINT('Ctrl Pts',(-0.419606013608581,-6.98846624092383,88.1851065264095));
#816=CARTESIAN_POINT('Ctrl Pts',(-0.449727409988092,-6.98724432764925,88.1644700905753));
#817=CARTESIAN_POINT('Ctrl Pts',(-0.480971222888977,-6.98578636971763,88.1454945901889));
#818=CARTESIAN_POINT('Ctrl Pts',(-0.536418553733708,-6.98319898142259,88.1118194158047));
#819=CARTESIAN_POINT('Ctrl Pts',(-0.594894095440629,-6.97988845524177,88.0836819629996));
#820=CARTESIAN_POINT('Ctrl Pts',(-0.655554321408379,-6.97575101436759,88.0614055227392));
#821=CARTESIAN_POINT('Ctrl Pts',(-0.689038787865336,-6.97346714552341,88.0491089197382));
#822=CARTESIAN_POINT('Ctrl Pts',(-0.723188832488226,-6.97093213146613,88.0385981930207));
#823=CARTESIAN_POINT('Ctrl Pts',(-0.757862100573781,-6.96813546131794,88.0299277191363));
#824=CARTESIAN_POINT('Ctrl Pts',(-0.815780466905703,-6.963463892265,88.0154445247207));
#825=CARTESIAN_POINT('Ctrl Pts',(-0.874766054455714,-6.95809089917563,88.006194349144));
#826=CARTESIAN_POINT('Ctrl Pts',(-0.934116382349513,-6.95203361311276,88.0022289052484));
#827=CARTESIAN_POINT('Ctrl Pts',(-0.95634267243593,-6.94976520109302,88.0007438737503));
#828=CARTESIAN_POINT('Ctrl Pts',(-0.978620152638906,-6.94740133820499,88.0000000000004));
#829=CARTESIAN_POINT('Ctrl Pts',(-1.00091210521068,-6.94494481287989,88.));
#830=CARTESIAN_POINT('',(-1.,6.94499079231823,88.));
#831=CARTESIAN_POINT('',(-1.,-3.09596177495981E-5,88.));
#832=CARTESIAN_POINT('',(1.23259516440783E-31,6.98999998688698,89.0000013113022));
#833=CARTESIAN_POINT('Ctrl Pts',(-0.997902619594398,6.94509742446186,87.9999999999999));
#834=CARTESIAN_POINT('Ctrl Pts',(-0.954774928492055,6.949821923662,88.));
#835=CARTESIAN_POINT('Ctrl Pts',(-0.911655348718515,6.95420275297001,88.0027884943966));
#836=CARTESIAN_POINT('Ctrl Pts',(-0.868812542002496,6.95822129202806,88.0083621344869));
#837=CARTESIAN_POINT('Ctrl Pts',(-0.80794869055191,6.9639301561998,88.0162802245584));
#838=CARTESIAN_POINT('Ctrl Pts',(-0.747949178560179,6.96887713944858,88.0297786496101));
#839=CARTESIAN_POINT('Ctrl Pts',(-0.689566898698304,6.97307969192651,88.0486871119054));
#840=CARTESIAN_POINT('Ctrl Pts',(-0.663253398189308,6.97497382602042,88.057209352445));
#841=CARTESIAN_POINT('Ctrl Pts',(-0.63726844614171,6.97671746808965,88.0668305872014));
#842=CARTESIAN_POINT('Ctrl Pts',(-0.611680990624555,6.97831562768564,88.0775352241826));
#843=CARTESIAN_POINT('Ctrl Pts',(-0.543729182326936,6.98255981032518,88.1059631950511));
#844=CARTESIAN_POINT('Ctrl Pts',(-0.479218820066955,6.98573408762235,88.1417665079352));
#845=CARTESIAN_POINT('Ctrl Pts',(-0.419292924295819,6.98803991467291,88.1842383816391));
#846=CARTESIAN_POINT('Ctrl Pts',(-0.383785987023452,6.98940614967685,88.209403565005));
#847=CARTESIAN_POINT('Ctrl Pts',(-0.349888315110112,6.99046878904676,88.2369098996259));
#848=CARTESIAN_POINT('Ctrl Pts',(-0.317835463783081,6.99127769249993,88.2666103639435));
#849=CARTESIAN_POINT('Ctrl Pts',(-0.261126426536297,6.9927088330742,88.319157474965));
#850=CARTESIAN_POINT('Ctrl Pts',(-0.210832657519667,6.99333316504934,88.3779808713073));
#851=CARTESIAN_POINT('Ctrl Pts',(-0.167870752804856,6.99347641809748,88.4418266356707));
#852=CARTESIAN_POINT('Ctrl Pts',(-0.137713626537505,6.99357697463214,88.4866431956049));
#853=CARTESIAN_POINT('Ctrl Pts',(-0.111168685873377,6.99344026484824,88.5339344488632));
#854=CARTESIAN_POINT('Ctrl Pts',(-0.0885480893949995,6.99316373106262,88.5832666966912));
#855=CARTESIAN_POINT('Ctrl Pts',(-0.062886042856753,6.99285001595423,88.6392319070166));
#856=CARTESIAN_POINT('Ctrl Pts',(-0.0425119877173976,6.99236157161191,88.697308243393));
#857=CARTESIAN_POINT('Ctrl Pts',(-0.027605797429604,6.99181160213237,88.7567345948389));
#858=CARTESIAN_POINT('Ctrl Pts',(-0.0131343427926584,6.99127767238766,88.8144277902553));
#859=CARTESIAN_POINT('Ctrl Pts',(-0.00381633208295243,6.99068588820124,
88.8733934032771));
#860=CARTESIAN_POINT('Ctrl Pts',(0.000185507162790977,6.99009034645325,
88.9329349925237));
#861=CARTESIAN_POINT('Ctrl Pts',(0.000984676048880371,6.98997141652975,
88.944825471534));
#862=CARTESIAN_POINT('Ctrl Pts',(0.0015718375744628,6.9898521708111,88.9567389206193));
#863=CARTESIAN_POINT('Ctrl Pts',(0.00194569919830734,6.98973278685789,88.9686697932498));
#864=CARTESIAN_POINT('Ctrl Pts',(0.0022730881661666,6.98962824285891,88.9791176055607));
#865=CARTESIAN_POINT('Ctrl Pts',(0.0024363884615895,6.98952375249081,88.9895627050373));
#866=CARTESIAN_POINT('Ctrl Pts',(0.00243620974049086,6.98941937956238,89.0000013113021));
#867=CARTESIAN_POINT('',(1.23259516440783E-31,0.,89.0000013113022));
#868=CARTESIAN_POINT('Ctrl Pts',(-7.7,-8.00615252071602E-16,118.));
#869=CARTESIAN_POINT('Ctrl Pts',(-7.8,-8.1439172618567E-16,108.));
#870=CARTESIAN_POINT('Ctrl Pts',(-7.9,-8.28168200299738E-16,98.));
#871=CARTESIAN_POINT('Ctrl Pts',(-8.,-8.41944674413806E-16,88.));
#872=CARTESIAN_POINT('Ctrl Pts',(-7.7,-0.978007712992537,118.));
#873=CARTESIAN_POINT('Ctrl Pts',(-7.80006235709194,-0.994870226608589,108.));
#874=CARTESIAN_POINT('Ctrl Pts',(-7.89993764290806,-1.01163508130918,98.));
#875=CARTESIAN_POINT('Ctrl Pts',(-8.,-1.02849759492523,88.));
#876=CARTESIAN_POINT('Ctrl Pts',(-7.19901190234109,-2.94124428907096,118.));
#877=CARTESIAN_POINT('Ctrl Pts',(-7.29004019092276,-2.99159561323906,108.));
#878=CARTESIAN_POINT('Ctrl Pts',(-7.3809426077631,-3.0420296521113,98.));
#879=CARTESIAN_POINT('Ctrl Pts',(-7.47197089634477,-3.0923809762794,88.));
#880=CARTESIAN_POINT('Ctrl Pts',(-5.03982711862783,-5.36807825517917,118.));
#881=CARTESIAN_POINT('Ctrl Pts',(-5.09866798374923,-5.4527172369169,108.));
#882=CARTESIAN_POINT('Ctrl Pts',(-5.15770184984271,-5.53726750854409,98.));
#883=CARTESIAN_POINT('Ctrl Pts',(-5.2165427149641,-5.62190649028181,88.));
#884=CARTESIAN_POINT('Ctrl Pts',(-1.8074140588846,-6.75677666465755,118.));
#885=CARTESIAN_POINT('Ctrl Pts',(-1.82767324037327,-6.85743807007076,108.));
#886=CARTESIAN_POINT('Ctrl Pts',(-1.84789931859903,-6.95809489561486,98.));
#887=CARTESIAN_POINT('Ctrl Pts',(-1.86815850008771,-7.05875630102807,88.));
#888=CARTESIAN_POINT('Ctrl Pts',(1.80760174261207,-6.75904419094413,118.));
#889=CARTESIAN_POINT('Ctrl Pts',(1.82807545224736,-6.85975519465113,108.));
#890=CARTESIAN_POINT('Ctrl Pts',(1.84815388393478,-6.96042290892655,98.));
#891=CARTESIAN_POINT('Ctrl Pts',(1.86862759357006,-7.06113391263355,88.));
#892=CARTESIAN_POINT('Ctrl Pts',(5.03303835090559,-5.36706004531364,118.));
#893=CARTESIAN_POINT('Ctrl Pts',(5.0913376475782,-5.4516328772532,108.));
#894=CARTESIAN_POINT('Ctrl Pts',(5.14992449309526,-5.5361907110708,98.));
#895=CARTESIAN_POINT('Ctrl Pts',(5.20822378976787,-5.62076354301036,88.));
#896=CARTESIAN_POINT('Ctrl Pts',(7.9332181038225,-2.13145419181666,118.));
#897=CARTESIAN_POINT('Ctrl Pts',(8.03676616159776,-2.17054171704663,108.));
#898=CARTESIAN_POINT('Ctrl Pts',(8.13874844299251,-2.20958782110418,98.));
#899=CARTESIAN_POINT('Ctrl Pts',(8.24229650076778,-2.24867534633416,88.));
#900=CARTESIAN_POINT('Ctrl Pts',(7.94166367975772,2.48942356180252,118.));
#901=CARTESIAN_POINT('Ctrl Pts',(8.04457157031122,2.5349938902305,108.));
#902=CARTESIAN_POINT('Ctrl Pts',(8.14755809358312,2.58061969647479,98.));
#903=CARTESIAN_POINT('Ctrl Pts',(8.25046598413662,2.62619002490277,88.));
#904=CARTESIAN_POINT('Ctrl Pts',(4.70628323655004,5.60455886746125,118.));
#905=CARTESIAN_POINT('Ctrl Pts',(4.76008616773075,5.69198107041042,108.));
#906=CARTESIAN_POINT('Ctrl Pts',(4.81516630359571,5.77924242194876,97.9999999999999));
#907=CARTESIAN_POINT('Ctrl Pts',(4.86896923477642,5.86666462489794,87.9999999999999));
#908=CARTESIAN_POINT('Ctrl Pts',(1.40459321151248,6.7563528489718,118.));
#909=CARTESIAN_POINT('Ctrl Pts',(1.42080585274954,6.8569556002343,108.));
#910=CARTESIAN_POINT('Ctrl Pts',(1.43624658149202,6.95763138521736,97.9999999999999));
#911=CARTESIAN_POINT('Ctrl Pts',(1.45245922272909,7.05823413647986,87.9999999999999));
#912=CARTESIAN_POINT('Ctrl Pts',(-1.80461645364505,6.75834605671007,118.));
#913=CARTESIAN_POINT('Ctrl Pts',(-1.82508251406002,6.85906128427861,108.));
#914=CARTESIAN_POINT('Ctrl Pts',(-1.84440575876782,6.95968199475303,97.9999999999999));
#915=CARTESIAN_POINT('Ctrl Pts',(-1.8648718191828,7.06039722232158,87.9999999999999));
#916=CARTESIAN_POINT('Ctrl Pts',(-5.03603691654539,5.36734742065276,118.));
#917=CARTESIAN_POINT('Ctrl Pts',(-5.09475399215082,5.45197287288972,108.));
#918=CARTESIAN_POINT('Ctrl Pts',(-5.1536329474003,5.53658968362119,98.));
#919=CARTESIAN_POINT('Ctrl Pts',(-5.21235002300573,5.62121513585814,88.));
#920=CARTESIAN_POINT('Ctrl Pts',(-7.20152579644402,2.93756480491966,118.));
#921=CARTESIAN_POINT('Ctrl Pts',(-7.29267159367172,2.98788783699079,108.));
#922=CARTESIAN_POINT('Ctrl Pts',(-7.38333779538125,3.0382164376056,98.));
#923=CARTESIAN_POINT('Ctrl Pts',(-7.47448359260894,3.08853946967673,88.));
#924=CARTESIAN_POINT('Ctrl Pts',(-7.7,0.978007712992537,118.));
#925=CARTESIAN_POINT('Ctrl Pts',(-7.80000347211276,0.994873823755784,108.));
#926=CARTESIAN_POINT('Ctrl Pts',(-7.89999652788724,1.01163148416198,98.));
#927=CARTESIAN_POINT('Ctrl Pts',(-8.,1.02849759492523,88.));
#928=CARTESIAN_POINT('Ctrl Pts',(-7.7,8.00615252071601E-16,118.));
#929=CARTESIAN_POINT('Ctrl Pts',(-7.8,8.14391726185669E-16,108.));
#930=CARTESIAN_POINT('Ctrl Pts',(-7.9,8.28168200299737E-16,98.));
#931=CARTESIAN_POINT('Ctrl Pts',(-8.,8.41944674413805E-16,88.));
#932=CARTESIAN_POINT('Ctrl Pts',(2.35922392732846E-15,-6.98999998688698,
89.0000013113022));
#933=CARTESIAN_POINT('Ctrl Pts',(1.33921065602152,-6.97660788032676,90.3392119673237));
#934=CARTESIAN_POINT('Ctrl Pts',(2.65462297772418,-6.66857327849801,91.6546242890264));
#935=CARTESIAN_POINT('Ctrl Pts',(4.61548726517712,-5.70447123370768,93.6154885764793));
#936=CARTESIAN_POINT('Ctrl Pts',(5.38750631923277,-5.17101276388121,94.3875076305349));
#937=CARTESIAN_POINT('Ctrl Pts',(6.49907816219761,-4.00558129641976,95.4990794734998));
#938=CARTESIAN_POINT('Ctrl Pts',(6.90563749288212,-3.45683142187415,95.9056388041843));
#939=CARTESIAN_POINT('Ctrl Pts',(7.47209851237481,-2.33952224737556,96.472099823677));
#940=CARTESIAN_POINT('Ctrl Pts',(7.66604516870865,-1.80837993925124,96.6660464800188));
#941=CARTESIAN_POINT('Ctrl Pts',(7.89747735079661,-0.688385482470623,96.8974786621067));
#942=CARTESIAN_POINT('Ctrl Pts',(7.93627224191003,-0.123779509789613,96.9362735532098));
#943=CARTESIAN_POINT('Ctrl Pts',(7.84874662153955,1.07072612074211,96.8487479328394));
#944=CARTESIAN_POINT('Ctrl Pts',(7.70804089050546,1.66646897264341,96.7080422018076));
#945=CARTESIAN_POINT('Ctrl Pts',(7.21112922380793,2.95825898827799,96.2111305351101));
#946=CARTESIAN_POINT('Ctrl Pts',(6.80753119426656,3.60011865125529,95.8075325055687));
#947=CARTESIAN_POINT('Ctrl Pts',(5.74546377425591,4.85916169968794,94.7454650855581));
#948=CARTESIAN_POINT('Ctrl Pts',(4.98883018656106,5.46981421052655,93.9888314978633));
#949=CARTESIAN_POINT('Ctrl Pts',(2.87960549876071,6.61322689992776,91.8796068100629));
#950=CARTESIAN_POINT('Ctrl Pts',(1.45503493318202,6.97544963755516,90.4550362444842));
#951=CARTESIAN_POINT('Ctrl Pts',(1.38777878078145E-16,6.98999998688698,
89.0000013113022));
#952=CARTESIAN_POINT('',(-8.,-8.41944926219262E-16,88.));
#953=CARTESIAN_POINT('Ctrl Pts',(-0.997902619595614,6.94509742446173,88.));
#954=CARTESIAN_POINT('Ctrl Pts',(-1.26780059818975,6.91553097303814,88.));
#955=CARTESIAN_POINT('Ctrl Pts',(-1.53590777230177,6.87388369491265,88.));
#956=CARTESIAN_POINT('Ctrl Pts',(-1.8007852827948,6.82012796264902,88.));
#957=CARTESIAN_POINT('Ctrl Pts',(-2.98069788712377,6.5806698601671,88.));
#958=CARTESIAN_POINT('Ctrl Pts',(-4.09652395506475,6.10094249801262,88.));
#959=CARTESIAN_POINT('Ctrl Pts',(-5.03145925063578,5.43896620590515,88.));
#960=CARTESIAN_POINT('Ctrl Pts',(-5.9663945462068,4.77698991379767,88.));
#961=CARTESIAN_POINT('Ctrl Pts',(-6.72043906940787,3.9327646917372,88.));
#962=CARTESIAN_POINT('Ctrl Pts',(-7.22884043285617,2.99564161201909,88.));
#963=CARTESIAN_POINT('Ctrl Pts',(-7.73724179630447,2.05851853230098,88.));
#964=CARTESIAN_POINT('Ctrl Pts',(-8.,1.02849759492523,88.));
#965=CARTESIAN_POINT('Ctrl Pts',(-8.,1.11022302462516E-15,88.));
#966=CARTESIAN_POINT('',(-7.7,-8.00615252071602E-16,118.));
#967=CARTESIAN_POINT('Ctrl Pts',(-8.,-2.42467276318572E-16,88.));
#968=CARTESIAN_POINT('Ctrl Pts',(-7.99999999999999,-1.02849759492523,88.0000000000013));
#969=CARTESIAN_POINT('Ctrl Pts',(-7.73598544817236,-2.06043928560231,88.0000000000025));
#970=CARTESIAN_POINT('Ctrl Pts',(-7.22807347536177,-2.99799771660791,88.0000000000037));
#971=CARTESIAN_POINT('Ctrl Pts',(-6.72016150255118,-3.93555614761351,88.000000000005));
#972=CARTESIAN_POINT('Ctrl Pts',(-5.96835210875762,-4.77873131894763,88.0000000000062));
#973=CARTESIAN_POINT('Ctrl Pts',(-5.0343833760481,-5.43979387307239,88.0000000000075));
#974=CARTESIAN_POINT('Ctrl Pts',(-4.1004146433386,-6.10085642719715,88.0000000000087));
#975=CARTESIAN_POINT('Ctrl Pts',(-2.98428657171314,-6.57980636411256,88.0000000000099));
#976=CARTESIAN_POINT('Ctrl Pts',(-1.80342485362412,-6.81967760117116,88.0000000000112));
#977=CARTESIAN_POINT('Ctrl Pts',(-1.53868250370873,-6.87345534161547,88.0000000000115));
#978=CARTESIAN_POINT('Ctrl Pts',(-1.27068644393401,-6.91521625981387,88.0000000000117));
#979=CARTESIAN_POINT('Ctrl Pts',(-1.00091210496545,-6.94494481290679,88.000000000012));
#980=CARTESIAN_POINT('Origin',(1.23259516440783E-31,0.,89.0000013113022));
#981=CARTESIAN_POINT('Origin',(-0.727291660606539,-6.19192354991962E-5,
88.));
#982=CARTESIAN_POINT('',(0.,0.,0.));
#983=UNCERTAINTY_MEASURE_WITH_UNIT(LENGTH_MEASURE(0.01),#989,
'DISTANCE_ACCURACY_VALUE',
'Maximum model space distance between geometric entities at asserted c
onnectivities');
#984=UNCERTAINTY_MEASURE_WITH_UNIT(LENGTH_MEASURE(0.01),#989,
'DISTANCE_ACCURACY_VALUE',
'Maximum model space distance between geometric entities at asserted c
onnectivities');
#985=UNCERTAINTY_MEASURE_WITH_UNIT(LENGTH_MEASURE(0.01),#989,
'DISTANCE_ACCURACY_VALUE',
'Maximum model space distance between geometric entities at asserted c
onnectivities');
#986=(
GEOMETRIC_REPRESENTATION_CONTEXT(3)
GLOBAL_UNCERTAINTY_ASSIGNED_CONTEXT((#983))
GLOBAL_UNIT_ASSIGNED_CONTEXT((#989,#991,#992))
REPRESENTATION_CONTEXT('','3D')
);
#987=(
GEOMETRIC_REPRESENTATION_CONTEXT(3)
GLOBAL_UNCERTAINTY_ASSIGNED_CONTEXT((#984))
GLOBAL_UNIT_ASSIGNED_CONTEXT((#989,#991,#992))
REPRESENTATION_CONTEXT('','3D')
);
#988=(
GEOMETRIC_REPRESENTATION_CONTEXT(3)
GLOBAL_UNCERTAINTY_ASSIGNED_CONTEXT((#985))
GLOBAL_UNIT_ASSIGNED_CONTEXT((#989,#991,#992))
REPRESENTATION_CONTEXT('','3D')
);
#989=(
LENGTH_UNIT()
NAMED_UNIT(*)
SI_UNIT(.MILLI.,.METRE.)
);
#990=(
LENGTH_UNIT()
NAMED_UNIT(*)
SI_UNIT($,.METRE.)
);
#991=(
NAMED_UNIT(*)
PLANE_ANGLE_UNIT()
SI_UNIT($,.RADIAN.)
);
#992=(
NAMED_UNIT(*)
SI_UNIT($,.STERADIAN.)
SOLID_ANGLE_UNIT()
);
#993=SHAPE_DEFINITION_REPRESENTATION(#995,#998);
#994=SHAPE_DEFINITION_REPRESENTATION(#996,#999);
#995=PRODUCT_DEFINITION_SHAPE('',$,#1001);
#996=PRODUCT_DEFINITION_SHAPE('',$,#1002);
#997=PRODUCT_DEFINITION_SHAPE($,$,#14);
#998=SHAPE_REPRESENTATION('',(#282,#301),#986);
#999=SHAPE_REPRESENTATION('',(#283),#987);
#1000=PRODUCT_DEFINITION_CONTEXT('part definition',#1008,'design');
#1001=PRODUCT_DEFINITION('2025-12-07-23-20-28-318','Ring Finger',#1003,
#1000);
#1002=PRODUCT_DEFINITION('2025-12-07-23-36-09-861','Distal phalanx',#1004,
#1000);
#1003=PRODUCT_DEFINITION_FORMATION('',$,#1010);
#1004=PRODUCT_DEFINITION_FORMATION('',$,#1011);
#1005=PRODUCT_RELATED_PRODUCT_CATEGORY('Ring Finger','Ring Finger',(#1010));
#1006=PRODUCT_RELATED_PRODUCT_CATEGORY('Distal phalanx',
'Distal phalanx',(#1011));
#1007=APPLICATION_PROTOCOL_DEFINITION('international standard',
'automotive_design',2009,#1008);
#1008=APPLICATION_CONTEXT(
'Core Data for Automotive Mechanical Design Process');
#1009=PRODUCT_CONTEXT('part definition',#1008,'mechanical');
#1010=PRODUCT('2025-12-07-23-20-28-318','Ring Finger',$,(#1009));
#1011=PRODUCT('2025-12-07-23-36-09-861','Distal phalanx',$,(#1009));
#1012=PRESENTATION_STYLE_ASSIGNMENT((#1013));
#1013=SURFACE_STYLE_USAGE(.BOTH.,#1014);
#1014=SURFACE_SIDE_STYLE('',(#1015));
#1015=SURFACE_STYLE_FILL_AREA(#1016);
#1016=FILL_AREA_STYLE('Steel - Satin',(#1017));
#1017=FILL_AREA_STYLE_COLOUR('Steel - Satin',#1018);
#1018=COLOUR_RGB('Steel - Satin',0.627450980392157,0.627450980392157,0.627450980392157);
ENDSEC;
END-ISO-10303-21;
