ISO-10303-21;
HEADER;
/* Generated by software containing ST-Developer
 * from STEP Tools, Inc. (www.steptools.com) 
 */

FILE_DESCRIPTION(
/* description */ (''),
/* implementation_level */ '2;1');

FILE_NAME(
/* name */ 'Thumb distal phalanx.step',
/* time_stamp */ '2026-01-04T20:39:40Z',
/* author */ (''),
/* organization */ (''),
/* preprocessor_version */ 'ST-DEVELOPER v20.1',
/* originating_system */ 'Autodesk Translation Framework v14.21.0.0',
/* authorisation */ '');

FILE_SCHEMA (('AUTOMOTIVE_DESIGN { 1 0 10303 214 3 1 1 }'));
ENDSEC;

DATA;
#10=MECHANICAL_DESIGN_GEOMETRIC_PRESENTATION_REPRESENTATION('',(#17),#997);
#11=ITEM_DEFINED_TRANSFORMATION($,$,#283,#303);
#12=(
REPRESENTATION_RELATIONSHIP($,$,#1008,#1007)
REPRESENTATION_RELATIONSHIP_WITH_TRANSFORMATION(#11)
SHAPE_REPRESENTATION_RELATIONSHIP()
);
#13=CONTEXT_DEPENDENT_SHAPE_REPRESENTATION(#12,#1006);
#14=NEXT_ASSEMBLY_USAGE_OCCURRENCE('Distal phalanx:1',
'Distal phalanx:1','Distal phalanx:1',#1010,#1011,'Distal phalanx:1');
#15=SHAPE_REPRESENTATION_RELATIONSHIP('SRR','None',#1008,#16);
#16=ADVANCED_BREP_SHAPE_REPRESENTATION('',(#18),#996);
#17=STYLED_ITEM('',(#1021),#18);
#18=MANIFOLD_SOLID_BREP('Body1',#269);
#19=FACE_BOUND('',#71,.T.);
#20=FACE_BOUND('',#73,.T.);
#21=FACE_BOUND('',#74,.T.);
#22=PLANE('',#292);
#23=PLANE('',#301);
#24=PLANE('',#302);
#25=ELLIPSE('',#290,1.76776695296637,1.25);
#26=CIRCLE('',#285,4.);
#27=CIRCLE('',#286,4.);
#28=CIRCLE('',#287,3.99999999999999);
#29=CIRCLE('',#288,4.);
#30=CIRCLE('',#291,1.25);
#31=CIRCLE('',#293,2.);
#32=CIRCLE('',#294,2.);
#33=CIRCLE('',#295,2.);
#34=CIRCLE('',#296,2.);
#35=CIRCLE('',#298,2.);
#36=CIRCLE('',#300,2.);
#37=B_SPLINE_SURFACE_WITH_KNOTS('',3,3,((#424,#425,#426,#427),(#428,#429,
#430,#431),(#432,#433,#434,#435),(#436,#437,#438,#439),(#440,#441,#442,
#443),(#444,#445,#446,#447),(#448,#449,#450,#451),(#452,#453,#454,#455),
(#456,#457,#458,#459),(#460,#461,#462,#463),(#464,#465,#466,#467),(#468,
#469,#470,#471),(#472,#473,#474,#475),(#476,#477,#478,#479),(#480,#481,
#482,#483),(#484,#485,#486,#487),(#488,#489,#490,#491),(#492,#493,#494,
#495)),.UNSPECIFIED.,.T.,.F.,.F.,(4,1,1,1,1,1,1,1,1,1,1,1,1,1,1,4),(4,4),
(0.,0.0714285714285714,0.142857142857143,0.214285714285714,0.285714285714286,
0.357142857142857,0.428571428571429,0.476190476190476,0.571428571428571,
0.619047619047619,0.666666666666667,0.714285714285714,0.785714285714286,
0.857142857142857,0.928571428571429,1.),(0.,1.),.UNSPECIFIED.);
#38=B_SPLINE_SURFACE_WITH_KNOTS('',3,3,((#600,#601,#602,#603,#604,#605,
#606,#607,#608,#609),(#610,#611,#612,#613,#614,#615,#616,#617,#618,#619),
(#620,#621,#622,#623,#624,#625,#626,#627,#628,#629),(#630,#631,#632,#633,
#634,#635,#636,#637,#638,#639),(#640,#641,#642,#643,#644,#645,#646,#647,
#648,#649)),.UNSPECIFIED.,.F.,.F.,.F.,(4,1,4),(4,1,1,1,1,1,1,4),(0.,0.571428571428571,
1.),(0.,0.0969221335097966,0.193844267019593,0.387688534039186,0.581532801058779,
0.969221335097966,1.16306560211756,1.35690986913715),.UNSPECIFIED.);
#39=B_SPLINE_SURFACE_WITH_KNOTS('',3,3,((#714,#715,#716,#717,#718,#719,
#720,#721,#722,#723,#724),(#725,#726,#727,#728,#729,#730,#731,#732,#733,
#734,#735),(#736,#737,#738,#739,#740,#741,#742,#743,#744,#745,#746),(#747,
#748,#749,#750,#751,#752,#753,#754,#755,#756,#757),(#758,#759,#760,#761,
#762,#763,#764,#765,#766,#767,#768)),.UNSPECIFIED.,.F.,.F.,.F.,(4,1,4),
(4,1,1,1,1,1,1,1,4),(0.,0.571428571428571,1.),(0.121683900475915,0.315528166896009,
0.509372433316102,0.703216699736196,0.993983099366337,1.09090523257638,
1.28474949899648,1.38167163220652,1.47859376541657),.UNSPECIFIED.);
#40=B_SPLINE_SURFACE_WITH_KNOTS('',3,3,((#832,#833,#834,#835),(#836,#837,
#838,#839),(#840,#841,#842,#843),(#844,#845,#846,#847),(#848,#849,#850,
#851)),.UNSPECIFIED.,.F.,.F.,.F.,(4,1,4),(4,4),(0.,0.571428571428571,1.),
(4.64346620623084E-17,0.12167435254578),.UNSPECIFIED.);
#41=B_SPLINE_SURFACE_WITH_KNOTS('',3,3,((#869,#870,#871,#872),(#873,#874,
#875,#876),(#877,#878,#879,#880),(#881,#882,#883,#884),(#885,#886,#887,
#888)),.UNSPECIFIED.,.F.,.F.,.F.,(4,1,4),(4,4),(0.,0.571428571428571,1.),
(0.,0.121678313039738),.UNSPECIFIED.);
#42=B_SPLINE_SURFACE_WITH_KNOTS('',3,1,((#903,#904),(#905,#906),(#907,#908),
(#909,#910),(#911,#912),(#913,#914),(#915,#916),(#917,#918),(#919,#920),
(#921,#922),(#923,#924),(#925,#926),(#927,#928),(#929,#930),(#931,#932),
(#933,#934)),.UNSPECIFIED.,.F.,.F.,.F.,(4,3,3,3,3,4),(2,2),(-3.14159265358979,
-2.35619449019234,-1.58387258929753,-0.823479525410944,-0.0329740963303552,
0.),(0.,0.7),.UNSPECIFIED.);
#43=B_SPLINE_SURFACE_WITH_KNOTS('',3,1,((#949,#950),(#951,#952),(#953,#954),
(#955,#956),(#957,#958),(#959,#960),(#961,#962),(#963,#964),(#965,#966),
(#967,#968),(#969,#970),(#971,#972),(#973,#974),(#975,#976),(#977,#978),
(#979,#980)),.UNSPECIFIED.,.F.,.F.,.F.,(4,3,3,3,3,4),(2,2),(0.,0.760667591149682,
1.53150039997978,2.2945527113369,3.08269746738003,3.14159265358979),(0.,
0.7),.UNSPECIFIED.);
#44=FACE_OUTER_BOUND('',#58,.T.);
#45=FACE_OUTER_BOUND('',#59,.T.);
#46=FACE_OUTER_BOUND('',#60,.T.);
#47=FACE_OUTER_BOUND('',#61,.T.);
#48=FACE_OUTER_BOUND('',#62,.T.);
#49=FACE_OUTER_BOUND('',#63,.T.);
#50=FACE_OUTER_BOUND('',#64,.T.);
#51=FACE_OUTER_BOUND('',#65,.T.);
#52=FACE_OUTER_BOUND('',#66,.T.);
#53=FACE_OUTER_BOUND('',#67,.T.);
#54=FACE_OUTER_BOUND('',#68,.T.);
#55=FACE_OUTER_BOUND('',#69,.T.);
#56=FACE_OUTER_BOUND('',#70,.T.);
#57=FACE_OUTER_BOUND('',#72,.T.);
#58=EDGE_LOOP('',(#173,#174,#175,#176));
#59=EDGE_LOOP('',(#177,#178,#179,#180,#181,#182,#183,#184,#185));
#60=EDGE_LOOP('',(#186,#187,#188,#189,#190,#191));
#61=EDGE_LOOP('',(#192,#193,#194,#195,#196,#197));
#62=EDGE_LOOP('',(#198,#199,#200,#201));
#63=EDGE_LOOP('',(#202,#203,#204,#205));
#64=EDGE_LOOP('',(#206,#207,#208,#209,#210));
#65=EDGE_LOOP('',(#211,#212,#213,#214,#215,#216));
#66=EDGE_LOOP('',(#217,#218,#219,#220,#221,#222,#223,#224,#225));
#67=EDGE_LOOP('',(#226,#227,#228,#229,#230));
#68=EDGE_LOOP('',(#231,#232,#233,#234,#235,#236));
#69=EDGE_LOOP('',(#237,#238,#239,#240,#241,#242));
#70=EDGE_LOOP('',(#243,#244));
#71=EDGE_LOOP('',(#245));
#72=EDGE_LOOP('',(#246,#247,#248));
#73=EDGE_LOOP('',(#249));
#74=EDGE_LOOP('',(#250));
#75=LINE('',#393,#83);
#76=LINE('',#423,#84);
#77=LINE('',#535,#85);
#78=LINE('',#935,#86);
#79=LINE('',#936,#87);
#80=LINE('',#939,#88);
#81=LINE('',#983,#89);
#82=LINE('',#987,#90);
#83=VECTOR('',#310,10.);
#84=VECTOR('',#311,10.);
#85=VECTOR('',#312,18.002499826413);
#86=VECTOR('',#321,10.);
#87=VECTOR('',#322,10.);
#88=VECTOR('',#325,1.25);
#89=VECTOR('',#342,2.);
#90=VECTOR('',#347,2.);
#91=B_SPLINE_CURVE_WITH_KNOTS('',3,(#361,#362,#363,#364,#365,#366,#367,
#368,#369,#370,#371,#372,#373,#374,#375,#376,#377,#378,#379,#380,#381,#382,
#383,#384,#385,#386,#387,#388,#389,#390,#391),.UNSPECIFIED.,.F.,.F.,(4,
3,3,3,3,3,3,3,3,3,4),(-0.157584204209883,-0.139190566540703,-0.135719204847276,
-0.115679797920286,-0.0996672685967633,-0.0699902349361847,-0.0660128568281333,
-0.0448015519883902,-0.0301560064516149,-0.0127305055900321,0.),
 .UNSPECIFIED.);
#92=B_SPLINE_CURVE_WITH_KNOTS('',3,(#395,#396,#397,#398,#399,#400,#401,
#402,#403,#404,#405,#406,#407,#408,#409,#410,#411,#412,#413,#414,#415,#416,
#417,#418,#419,#420,#421,#422),.UNSPECIFIED.,.F.,.F.,(4,3,3,3,3,3,3,3,3,
4),(0.,0.0122368755546466,0.0290734523806766,0.0498691020487235,0.0613083174488541,
0.0923233355678938,0.0996384372968541,0.119529215331761,0.139197671230717,
0.157606494219335),.UNSPECIFIED.);
#93=B_SPLINE_CURVE_WITH_KNOTS('',3,(#496,#497,#498,#499,#500,#501,#502,
#503,#504,#505,#506,#507,#508,#509,#510,#511,#512,#513,#514,#515,#516,#517,
#518,#519),.UNSPECIFIED.,.F.,.F.,(4,2,2,2,2,2,2,2,2,2,2,4),(-3.58748746561514,
-3.22934787267189,-2.80811672425954,-2.47809407807904,-2.16201030037666,
-1.99481159983838,-1.87484300033456,-1.7467099032197,-1.54211212696091,
-1.19959933419535,-0.771792911214163,-0.0500633355810863),.UNSPECIFIED.);
#94=B_SPLINE_CURVE_WITH_KNOTS('',3,(#521,#522,#523,#524,#525,#526,#527,
#528,#529,#530,#531,#532,#533),.UNSPECIFIED.,.F.,.F.,(4,3,3,3,4),(1.67580764179598,
1.79521015020744,2.24400431800155,2.69279848579567,3.14159265358979),
 .UNSPECIFIED.);
#95=B_SPLINE_CURVE_WITH_KNOTS('',3,(#537,#538,#539,#540,#541,#542,#543,
#544,#545,#546,#547,#548,#549,#550,#551,#552,#553,#554,#555,#556,#557,#558,
#559,#560,#561),.UNSPECIFIED.,.F.,.F.,(4,3,3,3,3,3,3,3,4),(-4.83283427132366E-18,
0.448798950512827,0.747998250854712,1.0471975511966,1.34639685153848,1.79519580205131,
2.24399475256414,2.69279370307697,3.14159265358979),.UNSPECIFIED.);
#96=B_SPLINE_CURVE_WITH_KNOTS('',3,(#562,#563,#564,#565,#566,#567,#568,
#569,#570,#571,#572,#573,#574,#575,#576,#577,#578,#579,#580,#581,#582,#583,
#584,#585,#586),.UNSPECIFIED.,.F.,.F.,(4,3,3,3,3,3,3,3,4),(-3.14159265358979,
-2.69279370307697,-2.24399475256414,-1.79519580205131,-1.34639685153848,
-0.897597901025656,-0.448798950512828,-0.149599650170943,-4.83283427132366E-18),
 .UNSPECIFIED.);
#97=B_SPLINE_CURVE_WITH_KNOTS('',3,(#587,#588,#589,#590,#591,#592,#593,
#594,#595,#596,#597,#598,#599),.UNSPECIFIED.,.F.,.F.,(4,3,3,3,4),(-3.14159265358979,
-2.69279370307697,-2.24399475256414,-1.79519580205131,-1.67575610766942),
 .UNSPECIFIED.);
#98=B_SPLINE_CURVE_WITH_KNOTS('',3,(#652,#653,#654,#655,#656,#657,#658,
#659,#660,#661,#662,#663,#664,#665,#666,#667,#668,#669,#670,#671,#672,#673,
#674,#675,#676,#677,#678,#679,#680,#681,#682,#683,#684,#685),
 .UNSPECIFIED.,.F.,.F.,(4,2,2,2,2,2,2,2,2,2,2,2,2,2,2,2,4),(0.,0.0692347109345746,
0.141384055942206,0.22579532478324,0.322453382004043,0.39844094368003,0.446498546296905,
0.470116787929485,0.488496924752565,0.509167044054466,0.544931530716982,
0.625141705655986,0.705211569000293,0.794068091602454,0.874732083499609,
0.920533002376131,0.967516104599569),.UNSPECIFIED.);
#99=B_SPLINE_CURVE_WITH_KNOTS('',3,(#687,#688,#689,#690,#691),
 .UNSPECIFIED.,.F.,.F.,(4,1,4),(-0.162287426907366,-0.0969221335097966,
0.),.UNSPECIFIED.);
#100=B_SPLINE_CURVE_WITH_KNOTS('',3,(#695,#696,#697,#698,#699,#700,#701,
#702,#703,#704),.UNSPECIFIED.,.F.,.F.,(4,1,1,1,1,1,1,4),(0.,0.0969221335097966,
0.193844267019593,0.387688534039186,0.581532801058779,0.969221335097966,
1.16306560211756,1.35690986913715),.UNSPECIFIED.);
#101=B_SPLINE_CURVE_WITH_KNOTS('',3,(#707,#708,#709,#710,#711,#712,#713),
 .UNSPECIFIED.,.F.,.F.,(4,1,1,1,4),(-1.35690986913715,-1.16306560211756,
-0.969221335097966,-0.581532801058779,-0.47071119480852),.UNSPECIFIED.);
#102=B_SPLINE_CURVE_WITH_KNOTS('',3,(#771,#772,#773,#774,#775,#776,#777,
#778,#779,#780,#781,#782,#783,#784,#785,#786,#787,#788,#789,#790,#791,#792,
#793,#794,#795,#796,#797,#798,#799,#800,#801,#802,#803,#804),
 .UNSPECIFIED.,.F.,.F.,(4,2,2,2,2,2,2,2,2,2,2,2,2,2,2,2,4),(0.,0.0693432418701219,
0.142215504869939,0.227425623380399,0.323604517062523,0.399948759752388,
0.448712577106732,0.472467441589146,0.490865606669191,0.511464460079002,
0.54687406577606,0.626345191278541,0.706120502609983,0.795627555143496,
0.875789079227193,0.920999866723528,0.967820835680898),.UNSPECIFIED.);
#103=B_SPLINE_CURVE_WITH_KNOTS('',3,(#806,#807,#808,#809,#810,#811,#812,
#813),.UNSPECIFIED.,.F.,.F.,(4,1,1,1,1,4),(-1.00790697765035,-0.993983099366337,
-0.703216699736196,-0.509372433316102,-0.315528166896009,-0.121683900475915),
 .UNSPECIFIED.);
#104=B_SPLINE_CURVE_WITH_KNOTS('',3,(#816,#817,#818,#819,#820,#821,#822,
#823,#824,#825,#826),.UNSPECIFIED.,.F.,.F.,(4,1,1,1,1,1,1,1,4),(0.121683900475915,
0.315528166896009,0.509372433316102,0.703216699736196,0.993983099366337,
1.09090523257638,1.28474949899648,1.38167163220652,1.47859376541657),
 .UNSPECIFIED.);
#105=B_SPLINE_CURVE_WITH_KNOTS('',3,(#827,#828,#829,#830,#831),
 .UNSPECIFIED.,.F.,.F.,(4,1,4),(-1.47859376541657,-1.38167163220652,-1.31630397494845),
 .UNSPECIFIED.);
#106=B_SPLINE_CURVE_WITH_KNOTS('',3,(#853,#854,#855,#856,#857,#858,#859,
#860,#861,#862),.UNSPECIFIED.,.F.,.F.,(4,2,2,2,4),(0.158131090565123,0.197149500042719,
0.244827132983485,0.280981062007704,0.316156873760281),.UNSPECIFIED.);
#107=B_SPLINE_CURVE_WITH_KNOTS('',3,(#864,#865,#866,#867),.UNSPECIFIED.,
 .F.,.F.,(4,4),(4.64346620623084E-17,0.12167435254578),.UNSPECIFIED.);
#108=B_SPLINE_CURVE_WITH_KNOTS('',3,(#889,#890,#891,#892),.UNSPECIFIED.,
 .F.,.F.,(4,4),(0.,0.121678313039738),.UNSPECIFIED.);
#109=B_SPLINE_CURVE_WITH_KNOTS('',3,(#893,#894,#895,#896,#897,#898,#899,
#900,#901,#902),.UNSPECIFIED.,.F.,.F.,(4,2,2,2,4),(0.,0.0438323804335615,
0.0905077322841895,0.124522305776551,0.157995495107684),.UNSPECIFIED.);
#110=VERTEX_POINT('',#359);
#111=VERTEX_POINT('',#360);
#112=VERTEX_POINT('',#392);
#113=VERTEX_POINT('',#394);
#114=VERTEX_POINT('',#520);
#115=VERTEX_POINT('',#534);
#116=VERTEX_POINT('',#536);
#117=VERTEX_POINT('',#650);
#118=VERTEX_POINT('',#651);
#119=VERTEX_POINT('',#686);
#120=VERTEX_POINT('',#692);
#121=VERTEX_POINT('',#694);
#122=VERTEX_POINT('',#705);
#123=VERTEX_POINT('',#769);
#124=VERTEX_POINT('',#770);
#125=VERTEX_POINT('',#805);
#126=VERTEX_POINT('',#814);
#127=VERTEX_POINT('',#852);
#128=VERTEX_POINT('',#863);
#129=VERTEX_POINT('',#938);
#130=VERTEX_POINT('',#943);
#131=VERTEX_POINT('',#946);
#132=VERTEX_POINT('',#982);
#133=VERTEX_POINT('',#986);
#134=EDGE_CURVE('',#110,#111,#91,.T.);
#135=EDGE_CURVE('',#111,#112,#75,.T.);
#136=EDGE_CURVE('',#112,#113,#92,.T.);
#137=EDGE_CURVE('',#110,#113,#76,.T.);
#138=EDGE_CURVE('',#110,#113,#93,.T.);
#139=EDGE_CURVE('',#112,#114,#94,.T.);
#140=EDGE_CURVE('',#115,#114,#77,.T.);
#141=EDGE_CURVE('',#116,#115,#95,.T.);
#142=EDGE_CURVE('',#115,#116,#96,.T.);
#143=EDGE_CURVE('',#114,#111,#97,.T.);
#144=EDGE_CURVE('',#117,#118,#98,.T.);
#145=EDGE_CURVE('',#118,#119,#99,.T.);
#146=EDGE_CURVE('',#119,#120,#26,.T.);
#147=EDGE_CURVE('',#120,#121,#100,.T.);
#148=EDGE_CURVE('',#121,#122,#27,.T.);
#149=EDGE_CURVE('',#122,#117,#101,.T.);
#150=EDGE_CURVE('',#123,#124,#102,.T.);
#151=EDGE_CURVE('',#124,#125,#103,.T.);
#152=EDGE_CURVE('',#125,#126,#28,.T.);
#153=EDGE_CURVE('',#126,#120,#104,.T.);
#154=EDGE_CURVE('',#119,#123,#105,.T.);
#155=EDGE_CURVE('',#127,#122,#106,.T.);
#156=EDGE_CURVE('',#121,#128,#107,.T.);
#157=EDGE_CURVE('',#128,#127,#29,.T.);
#158=EDGE_CURVE('',#128,#126,#108,.T.);
#159=EDGE_CURVE('',#125,#127,#109,.T.);
#160=EDGE_CURVE('',#115,#120,#78,.T.);
#161=EDGE_CURVE('',#128,#116,#79,.T.);
#162=EDGE_CURVE('',#127,#129,#80,.T.);
#163=EDGE_CURVE('',#129,#129,#25,.T.);
#164=EDGE_CURVE('',#122,#125,#30,.T.);
#165=EDGE_CURVE('',#124,#130,#31,.T.);
#166=EDGE_CURVE('',#130,#123,#32,.T.);
#167=EDGE_CURVE('',#118,#131,#33,.T.);
#168=EDGE_CURVE('',#131,#117,#34,.T.);
#169=EDGE_CURVE('',#131,#132,#81,.T.);
#170=EDGE_CURVE('',#132,#132,#35,.T.);
#171=EDGE_CURVE('',#130,#133,#82,.T.);
#172=EDGE_CURVE('',#133,#133,#36,.T.);
#173=ORIENTED_EDGE('',*,*,#134,.T.);
#174=ORIENTED_EDGE('',*,*,#135,.T.);
#175=ORIENTED_EDGE('',*,*,#136,.T.);
#176=ORIENTED_EDGE('',*,*,#137,.F.);
#177=ORIENTED_EDGE('',*,*,#134,.F.);
#178=ORIENTED_EDGE('',*,*,#138,.T.);
#179=ORIENTED_EDGE('',*,*,#136,.F.);
#180=ORIENTED_EDGE('',*,*,#139,.T.);
#181=ORIENTED_EDGE('',*,*,#140,.F.);
#182=ORIENTED_EDGE('',*,*,#141,.F.);
#183=ORIENTED_EDGE('',*,*,#142,.F.);
#184=ORIENTED_EDGE('',*,*,#140,.T.);
#185=ORIENTED_EDGE('',*,*,#143,.T.);
#186=ORIENTED_EDGE('',*,*,#144,.T.);
#187=ORIENTED_EDGE('',*,*,#145,.T.);
#188=ORIENTED_EDGE('',*,*,#146,.T.);
#189=ORIENTED_EDGE('',*,*,#147,.T.);
#190=ORIENTED_EDGE('',*,*,#148,.T.);
#191=ORIENTED_EDGE('',*,*,#149,.T.);
#192=ORIENTED_EDGE('',*,*,#150,.T.);
#193=ORIENTED_EDGE('',*,*,#151,.T.);
#194=ORIENTED_EDGE('',*,*,#152,.T.);
#195=ORIENTED_EDGE('',*,*,#153,.T.);
#196=ORIENTED_EDGE('',*,*,#146,.F.);
#197=ORIENTED_EDGE('',*,*,#154,.T.);
#198=ORIENTED_EDGE('',*,*,#155,.T.);
#199=ORIENTED_EDGE('',*,*,#148,.F.);
#200=ORIENTED_EDGE('',*,*,#156,.T.);
#201=ORIENTED_EDGE('',*,*,#157,.T.);
#202=ORIENTED_EDGE('',*,*,#157,.F.);
#203=ORIENTED_EDGE('',*,*,#158,.T.);
#204=ORIENTED_EDGE('',*,*,#152,.F.);
#205=ORIENTED_EDGE('',*,*,#159,.T.);
#206=ORIENTED_EDGE('',*,*,#156,.F.);
#207=ORIENTED_EDGE('',*,*,#147,.F.);
#208=ORIENTED_EDGE('',*,*,#160,.F.);
#209=ORIENTED_EDGE('',*,*,#142,.T.);
#210=ORIENTED_EDGE('',*,*,#161,.F.);
#211=ORIENTED_EDGE('',*,*,#162,.T.);
#212=ORIENTED_EDGE('',*,*,#163,.T.);
#213=ORIENTED_EDGE('',*,*,#162,.F.);
#214=ORIENTED_EDGE('',*,*,#159,.F.);
#215=ORIENTED_EDGE('',*,*,#164,.F.);
#216=ORIENTED_EDGE('',*,*,#155,.F.);
#217=ORIENTED_EDGE('',*,*,#149,.F.);
#218=ORIENTED_EDGE('',*,*,#164,.T.);
#219=ORIENTED_EDGE('',*,*,#151,.F.);
#220=ORIENTED_EDGE('',*,*,#165,.T.);
#221=ORIENTED_EDGE('',*,*,#166,.T.);
#222=ORIENTED_EDGE('',*,*,#154,.F.);
#223=ORIENTED_EDGE('',*,*,#145,.F.);
#224=ORIENTED_EDGE('',*,*,#167,.T.);
#225=ORIENTED_EDGE('',*,*,#168,.T.);
#226=ORIENTED_EDGE('',*,*,#158,.F.);
#227=ORIENTED_EDGE('',*,*,#161,.T.);
#228=ORIENTED_EDGE('',*,*,#141,.T.);
#229=ORIENTED_EDGE('',*,*,#160,.T.);
#230=ORIENTED_EDGE('',*,*,#153,.F.);
#231=ORIENTED_EDGE('',*,*,#144,.F.);
#232=ORIENTED_EDGE('',*,*,#168,.F.);
#233=ORIENTED_EDGE('',*,*,#169,.T.);
#234=ORIENTED_EDGE('',*,*,#170,.F.);
#235=ORIENTED_EDGE('',*,*,#169,.F.);
#236=ORIENTED_EDGE('',*,*,#167,.F.);
#237=ORIENTED_EDGE('',*,*,#150,.F.);
#238=ORIENTED_EDGE('',*,*,#166,.F.);
#239=ORIENTED_EDGE('',*,*,#171,.T.);
#240=ORIENTED_EDGE('',*,*,#172,.F.);
#241=ORIENTED_EDGE('',*,*,#171,.F.);
#242=ORIENTED_EDGE('',*,*,#165,.F.);
#243=ORIENTED_EDGE('',*,*,#138,.F.);
#244=ORIENTED_EDGE('',*,*,#137,.T.);
#245=ORIENTED_EDGE('',*,*,#163,.F.);
#246=ORIENTED_EDGE('',*,*,#135,.F.);
#247=ORIENTED_EDGE('',*,*,#143,.F.);
#248=ORIENTED_EDGE('',*,*,#139,.F.);
#249=ORIENTED_EDGE('',*,*,#170,.T.);
#250=ORIENTED_EDGE('',*,*,#172,.T.);
#251=CYLINDRICAL_SURFACE('',#284,1.);
#252=CYLINDRICAL_SURFACE('',#289,1.25);
#253=CYLINDRICAL_SURFACE('',#297,2.);
#254=CYLINDRICAL_SURFACE('',#299,2.);
#255=ADVANCED_FACE('',(#44),#251,.T.);
#256=ADVANCED_FACE('',(#45),#37,.F.);
#257=ADVANCED_FACE('',(#46),#38,.F.);
#258=ADVANCED_FACE('',(#47),#39,.F.);
#259=ADVANCED_FACE('',(#48),#40,.F.);
#260=ADVANCED_FACE('',(#49),#41,.F.);
#261=ADVANCED_FACE('',(#50),#42,.T.);
#262=ADVANCED_FACE('',(#51),#252,.F.);
#263=ADVANCED_FACE('',(#52),#22,.T.);
#264=ADVANCED_FACE('',(#53),#43,.T.);
#265=ADVANCED_FACE('',(#54),#253,.F.);
#266=ADVANCED_FACE('',(#55),#254,.F.);
#267=ADVANCED_FACE('',(#56,#19),#23,.F.);
#268=ADVANCED_FACE('',(#57,#20,#21),#24,.F.);
#269=CLOSED_SHELL('',(#255,#256,#257,#258,#259,#260,#261,#262,#263,#264,
#265,#266,#267,#268));
#270=DERIVED_UNIT_ELEMENT(#272,1.);
#271=DERIVED_UNIT_ELEMENT(#999,-3.);
#272=(
MASS_UNIT()
NAMED_UNIT(*)
SI_UNIT(.KILO.,.GRAM.)
);
#273=DERIVED_UNIT((#270,#271));
#274=MEASURE_REPRESENTATION_ITEM('density measure',
POSITIVE_RATIO_MEASURE(7850.),#273);
#275=PROPERTY_DEFINITION_REPRESENTATION(#280,#277);
#276=PROPERTY_DEFINITION_REPRESENTATION(#281,#278);
#277=REPRESENTATION('material name',(#279),#996);
#278=REPRESENTATION('density',(#274),#996);
#279=DESCRIPTIVE_REPRESENTATION_ITEM('Steel','Steel');
#280=PROPERTY_DEFINITION('material property','material name',#1011);
#281=PROPERTY_DEFINITION('material property','density of part',#1011);
#282=AXIS2_PLACEMENT_3D('',#356,#304,#305);
#283=AXIS2_PLACEMENT_3D('',#357,#306,#307);
#284=AXIS2_PLACEMENT_3D('',#358,#308,#309);
#285=AXIS2_PLACEMENT_3D('',#693,#313,#314);
#286=AXIS2_PLACEMENT_3D('',#706,#315,#316);
#287=AXIS2_PLACEMENT_3D('',#815,#317,#318);
#288=AXIS2_PLACEMENT_3D('',#868,#319,#320);
#289=AXIS2_PLACEMENT_3D('',#937,#323,#324);
#290=AXIS2_PLACEMENT_3D('',#940,#326,#327);
#291=AXIS2_PLACEMENT_3D('',#941,#328,#329);
#292=AXIS2_PLACEMENT_3D('',#942,#330,#331);
#293=AXIS2_PLACEMENT_3D('',#944,#332,#333);
#294=AXIS2_PLACEMENT_3D('',#945,#334,#335);
#295=AXIS2_PLACEMENT_3D('',#947,#336,#337);
#296=AXIS2_PLACEMENT_3D('',#948,#338,#339);
#297=AXIS2_PLACEMENT_3D('',#981,#340,#341);
#298=AXIS2_PLACEMENT_3D('',#984,#343,#344);
#299=AXIS2_PLACEMENT_3D('',#985,#345,#346);
#300=AXIS2_PLACEMENT_3D('',#988,#348,#349);
#301=AXIS2_PLACEMENT_3D('',#989,#350,#351);
#302=AXIS2_PLACEMENT_3D('',#990,#352,#353);
#303=AXIS2_PLACEMENT_3D('',#991,#354,#355);
#304=DIRECTION('axis',(0.,0.,1.));
#305=DIRECTION('refdir',(1.,0.,0.));
#306=DIRECTION('axis',(0.,0.,1.));
#307=DIRECTION('refdir',(1.,0.,0.));
#308=DIRECTION('center_axis',(-2.53049260217614E-63,-1.,2.05297949825387E-32));
#309=DIRECTION('ref_axis',(0.707106781186549,0.,-0.707106781186546));
#310=DIRECTION('',(2.53049260217614E-63,1.,-2.05297949825387E-32));
#311=DIRECTION('',(0.,1.,0.));
#312=DIRECTION('',(-0.0166643523339933,-2.26754835806205E-18,-0.9998611400396));
#313=DIRECTION('center_axis',(5.47766392078121E-17,-1.,0.));
#314=DIRECTION('ref_axis',(0.,0.,1.));
#315=DIRECTION('center_axis',(-0.350507193054871,-0.936560039515244,-1.11775600080408E-16));
#316=DIRECTION('ref_axis',(0.936560039515244,-0.350507193054871,0.));
#317=DIRECTION('center_axis',(-0.350507193317653,0.936560039416898,-1.69593137510679E-17));
#318=DIRECTION('ref_axis',(-8.92053098056068E-11,-3.33850308509299E-11,
1.));
#319=DIRECTION('center_axis',(-6.00249842266385E-6,-0.999999999981985,0.));
#320=DIRECTION('ref_axis',(0.999999999981985,-6.00249842266385E-6,0.));
#321=DIRECTION('',(0.,0.,1.));
#322=DIRECTION('',(0.,0.,-1.));
#323=DIRECTION('center_axis',(0.,0.,-1.));
#324=DIRECTION('ref_axis',(-1.,0.,0.));
#325=DIRECTION('',(0.,0.,-1.));
#326=DIRECTION('center_axis',(0.707106781186547,0.,-0.707106781186548));
#327=DIRECTION('ref_axis',(-0.707106781186548,0.,-0.707106781186547));
#328=DIRECTION('center_axis',(-4.63909073565553E-32,2.94703688602377E-32,
-1.));
#329=DIRECTION('ref_axis',(-1.,0.,0.));
#330=DIRECTION('center_axis',(4.63909073565553E-32,-2.94703688602377E-32,
1.));
#331=DIRECTION('ref_axis',(1.,0.,-4.63909073565553E-32));
#332=DIRECTION('center_axis',(-4.63909073565553E-32,2.94703688602377E-32,
-1.));
#333=DIRECTION('ref_axis',(-1.,0.,0.));
#334=DIRECTION('center_axis',(-4.63909073565553E-32,2.94703688602377E-32,
-1.));
#335=DIRECTION('ref_axis',(-1.,0.,0.));
#336=DIRECTION('center_axis',(-4.63909073565553E-32,2.94703688602377E-32,
-1.));
#337=DIRECTION('ref_axis',(-1.,0.,0.));
#338=DIRECTION('center_axis',(-4.63909073565553E-32,2.94703688602377E-32,
-1.));
#339=DIRECTION('ref_axis',(-1.,0.,0.));
#340=DIRECTION('center_axis',(0.,0.,-1.));
#341=DIRECTION('ref_axis',(-1.,0.,0.));
#342=DIRECTION('',(0.,0.,-1.));
#343=DIRECTION('center_axis',(-1.08967611621245E-32,2.05297949825387E-32,
1.));
#344=DIRECTION('ref_axis',(-1.,0.,0.));
#345=DIRECTION('center_axis',(0.,0.,-1.));
#346=DIRECTION('ref_axis',(-1.,0.,0.));
#347=DIRECTION('',(0.,0.,-1.));
#348=DIRECTION('center_axis',(-1.08967611621245E-32,2.05297949825387E-32,
1.));
#349=DIRECTION('ref_axis',(-1.,0.,0.));
#350=DIRECTION('center_axis',(-0.707106781186547,0.,0.707106781186548));
#351=DIRECTION('ref_axis',(0.707106781186548,0.,0.707106781186547));
#352=DIRECTION('center_axis',(-1.08967611621245E-32,2.05297949825387E-32,
1.));
#353=DIRECTION('ref_axis',(1.,0.,1.08967611621245E-32));
#354=DIRECTION('',(0.,0.,1.));
#355=DIRECTION('',(1.,0.,0.));
#356=CARTESIAN_POINT('',(0.,0.,0.));
#357=CARTESIAN_POINT('',(0.,0.,0.));
#358=CARTESIAN_POINT('Origin',(-1.,-5.38392233452557E-6,30.));
#359=CARTESIAN_POINT('',(-1.23259516440783E-31,-8.4833333261311,30.0000004321337));
#360=CARTESIAN_POINT('',(-0.999999999945638,-8.45274853333953,29.));
#361=CARTESIAN_POINT('Ctrl Pts',(-0.000302395689586898,-8.48255691076187,
30.0000004321337));
#362=CARTESIAN_POINT('Ctrl Pts',(-0.000302726071216844,-8.48357405801365,
29.9389745406566));
#363=CARTESIAN_POINT('Ctrl Pts',(-0.00588710075423932,-8.48459530235237,
29.8779844545161));
#364=CARTESIAN_POINT('Ctrl Pts',(-0.0170347491883662,-8.48558160594262,
29.8178020792998));
#365=CARTESIAN_POINT('Ctrl Pts',(-0.0191386027295749,-8.48576774729013,
29.8064440871667));
#366=CARTESIAN_POINT('Ctrl Pts',(-0.0214406052709334,-8.48595249490155,
29.7951148637468));
#367=CARTESIAN_POINT('Ctrl Pts',(-0.0239406144603551,-8.48613537857717,
29.783819597768));
#368=CARTESIAN_POINT('Ctrl Pts',(-0.0383726335743513,-8.48719112697738,
29.7186144396454));
#369=CARTESIAN_POINT('Ctrl Pts',(-0.0592661734113704,-8.48817961856113,
29.6551490161861));
#370=CARTESIAN_POINT('Ctrl Pts',(-0.0862382092404377,-8.48897781033415,
29.5943455190337));
#371=CARTESIAN_POINT('Ctrl Pts',(-0.107790269947701,-8.48961560711216,29.545760359569));
#372=CARTESIAN_POINT('Ctrl Pts',(-0.133223351982666,-8.49013050314139,29.498874797965));
#373=CARTESIAN_POINT('Ctrl Pts',(-0.162339812896159,-8.49043615448165,29.4541593198958));
#374=CARTESIAN_POINT('Ctrl Pts',(-0.216303192019361,-8.49100263744822,29.3712852953743));
#375=CARTESIAN_POINT('Ctrl Pts',(-0.282223295703843,-8.49084224681389,29.2969438665073));
#376=CARTESIAN_POINT('Ctrl Pts',(-0.357902159509424,-8.48937106020961,29.2335197182297));
#377=CARTESIAN_POINT('Ctrl Pts',(-0.36804479908672,-8.48917388870454,29.2250194812529));
#378=CARTESIAN_POINT('Ctrl Pts',(-0.37836266344845,-8.48895313131407,29.2167153396065));
#379=CARTESIAN_POINT('Ctrl Pts',(-0.388850402949295,-8.48870736966859,29.2086130339287));
#380=CARTESIAN_POINT('Ctrl Pts',(-0.444781378981452,-8.48739672606404,29.1654035449215));
#381=CARTESIAN_POINT('Ctrl Pts',(-0.505000163015649,-8.48538421984389,29.1283524512127));
#382=CARTESIAN_POINT('Ctrl Pts',(-0.568459723183349,-8.4825154972921,29.0979836761857));
#383=CARTESIAN_POINT('Ctrl Pts',(-0.612275975186779,-8.48053476074233,29.0770152689654));
#384=CARTESIAN_POINT('Ctrl Pts',(-0.65763700268042,-8.47814656237762,29.0592325517976));
#385=CARTESIAN_POINT('Ctrl Pts',(-0.704196230451511,-8.4753148399478,29.0448079822617));
#386=CARTESIAN_POINT('Ctrl Pts',(-0.759593133325667,-8.47194561197902,29.0276454021281));
#387=CARTESIAN_POINT('Ctrl Pts',(-0.816337369710123,-8.46796824661345,29.0153457816683));
#388=CARTESIAN_POINT('Ctrl Pts',(-0.873789738246065,-8.46337564422424,29.0080251554524));
#389=CARTESIAN_POINT('Ctrl Pts',(-0.915762574758321,-8.46002043791751,29.0026769434439));
#390=CARTESIAN_POINT('Ctrl Pts',(-0.958005361668485,-8.45634621414822,28.9999999999991));
#391=CARTESIAN_POINT('Ctrl Pts',(-1.00026553447729,-8.45236845295834,29.));
#392=CARTESIAN_POINT('',(-0.999999999938461,8.45274853334088,29.));
#393=CARTESIAN_POINT('',(-1.,-5.38392233452557E-6,29.));
#394=CARTESIAN_POINT('',(-1.23259516440783E-31,8.4833333261311,30.0000004321337));
#395=CARTESIAN_POINT('Ctrl Pts',(-1.00006744447399,8.45259919662001,29.));
#396=CARTESIAN_POINT('Ctrl Pts',(-0.959458626835203,8.45642578928804,29.0000000000008));
#397=CARTESIAN_POINT('Ctrl Pts',(-0.918862737451272,8.45997236902278,29.0024733771213));
#398=CARTESIAN_POINT('Ctrl Pts',(-0.878503851411599,8.46322488812127,29.0074156805402));
#399=CARTESIAN_POINT('Ctrl Pts',(-0.822974522671971,8.46769999187102,29.0142157391693));
#400=CARTESIAN_POINT('Ctrl Pts',(-0.76807599956692,8.47160253208272,29.0256672138503));
#401=CARTESIAN_POINT('Ctrl Pts',(-0.714385318549905,8.47493665323421,29.0416702247012));
#402=CARTESIAN_POINT('Ctrl Pts',(-0.648069427593819,8.47905478342978,29.0614362977413));
#403=CARTESIAN_POINT('Ctrl Pts',(-0.584055880914778,8.48227658046026,29.0880082026893));
#404=CARTESIAN_POINT('Ctrl Pts',(-0.523351420788242,8.48470615005332,29.1209225338182));
#405=CARTESIAN_POINT('Ctrl Pts',(-0.489959273573766,8.48604260120288,29.1390279611333));
#406=CARTESIAN_POINT('Ctrl Pts',(-0.457568330609329,8.48714038746477,29.1590525118967));
#407=CARTESIAN_POINT('Ctrl Pts',(-0.426345365332075,8.48802332911776,29.1809190544567));
#408=CARTESIAN_POINT('Ctrl Pts',(-0.341690885113692,8.49041723905021,29.2402055693072));
#409=CARTESIAN_POINT('Ctrl Pts',(-0.266848514704603,8.49119803405126,29.3121795826234));
#410=CARTESIAN_POINT('Ctrl Pts',(-0.204404899466583,8.49102823724942,29.3941855213809));
#411=CARTESIAN_POINT('Ctrl Pts',(-0.189677150605145,8.49098818952564,29.4135271765135));
#412=CARTESIAN_POINT('Ctrl Pts',(-0.175638906292735,8.49089522263081,29.4334268917268));
#413=CARTESIAN_POINT('Ctrl Pts',(-0.162323717900669,8.49075768422207,29.4538498250075));
#414=CARTESIAN_POINT('Ctrl Pts',(-0.126117870516341,8.49038369817773,29.5093826183658));
#415=CARTESIAN_POINT('Ctrl Pts',(-0.095612620575106,8.48968732250807,29.5682419671465));
#416=CARTESIAN_POINT('Ctrl Pts',(-0.071172057587285,8.488830068109,29.6295209954145));
#417=CARTESIAN_POINT('Ctrl Pts',(-0.0470046703474279,8.48798239536776,29.6901150990191));
#418=CARTESIAN_POINT('Ctrl Pts',(-0.0287669710626797,8.48697811517543,29.753075094175));
#419=CARTESIAN_POINT('Ctrl Pts',(-0.0168067670937968,8.4859234394101,29.8175241751845));
#420=CARTESIAN_POINT('Ctrl Pts',(-0.00561255023944574,8.48493630998833,
29.8778456371563));
#421=CARTESIAN_POINT('Ctrl Pts',(-1.86278149594851E-5,8.48391416269361,
29.9389291078857));
#422=CARTESIAN_POINT('Ctrl Pts',(-1.85662320637547E-5,8.48289626768074,
30.0000004321336));
#423=CARTESIAN_POINT('',(-1.23259516440783E-31,0.,30.0000004321337));
#424=CARTESIAN_POINT('Ctrl Pts',(-9.2,-9.93324625975075E-16,47.));
#425=CARTESIAN_POINT('Ctrl Pts',(-9.3,-1.00693181263227E-15,41.));
#426=CARTESIAN_POINT('Ctrl Pts',(-9.4,-1.02053899928946E-15,35.));
#427=CARTESIAN_POINT('Ctrl Pts',(-9.5,-1.03414618594665E-15,29.));
#428=CARTESIAN_POINT('Ctrl Pts',(-9.2,-1.21341938471987,47.));
#429=CARTESIAN_POINT('Ctrl Pts',(-9.30011590520204,-1.23004767878884,41.));
#430=CARTESIAN_POINT('Ctrl Pts',(-9.39988409479796,-1.24665764070787,35.));
#431=CARTESIAN_POINT('Ctrl Pts',(-9.5,-1.26328593477685,29.));
#432=CARTESIAN_POINT('Ctrl Pts',(-8.58490409161631,-3.64408193130595,47.));
#433=CARTESIAN_POINT('Ctrl Pts',(-8.67609580656707,-3.69381635153278,41.));
#434=CARTESIAN_POINT('Ctrl Pts',(-8.76740321205753,-3.74359390496171,35.));
#435=CARTESIAN_POINT('Ctrl Pts',(-8.8585949270083,-3.79332832518855,29.));
#436=CARTESIAN_POINT('Ctrl Pts',(-5.97398399740797,-6.60300282024488,47.));
#437=CARTESIAN_POINT('Ctrl Pts',(-6.03356189689204,-6.6872715218515,41.));
#438=CARTESIAN_POINT('Ctrl Pts',(-6.09298413511011,-6.77149931434542,35.));
#439=CARTESIAN_POINT('Ctrl Pts',(-6.15256203459417,-6.85576801595203,29.));
#440=CARTESIAN_POINT('Ctrl Pts',(-2.1356919517677,-8.26871266505102,47.));
#441=CARTESIAN_POINT('Ctrl Pts',(-2.15602115501911,-8.36940113394197,41.));
#442=CARTESIAN_POINT('Ctrl Pts',(-2.17644546438169,-8.47008683435538,35.));
#443=CARTESIAN_POINT('Ctrl Pts',(-2.1967746676331,-8.57077530324633,29.));
#444=CARTESIAN_POINT('Ctrl Pts',(2.13507044482147,-8.26858821194832,47.));
#445=CARTESIAN_POINT('Ctrl Pts',(2.15537702913236,-8.36928179133799,41.));
#446=CARTESIAN_POINT('Ctrl Pts',(2.17580579060507,-8.46994858368747,35.));
#447=CARTESIAN_POINT('Ctrl Pts',(2.19611237491596,-8.57064216307714,29.));
#448=CARTESIAN_POINT('Ctrl Pts',(5.97386416089595,-6.60166791306579,47.));
#449=CARTESIAN_POINT('Ctrl Pts',(6.03352072810195,-6.68592140164906,41.));
#450=CARTESIAN_POINT('Ctrl Pts',(6.09299932638554,-6.77015380174614,35.));
#451=CARTESIAN_POINT('Ctrl Pts',(6.15265589359154,-6.85440729032941,29.));
#452=CARTESIAN_POINT('Ctrl Pts',(8.29310725527877,-3.97180316603543,47.));
#453=CARTESIAN_POINT('Ctrl Pts',(8.38064150002621,-4.02540908108406,41.));
#454=CARTESIAN_POINT('Ctrl Pts',(8.46840869772842,-4.0790057803646,35.));
#455=CARTESIAN_POINT('Ctrl Pts',(8.55594294247586,-4.13261169541324,29.));
#456=CARTESIAN_POINT('Ctrl Pts',(9.50613759415968,-0.4414922094569,47.));
#457=CARTESIAN_POINT('Ctrl Pts',(9.61050973795856,-0.447867514032485,41.));
#458=CARTESIAN_POINT('Ctrl Pts',(9.71461318615026,-0.45435680208301,35.));
#459=CARTESIAN_POINT('Ctrl Pts',(9.81898532994914,-0.460732106658594,29.));
#460=CARTESIAN_POINT('Ctrl Pts',(8.95064680303226,2.89552278263433,47.));
#461=CARTESIAN_POINT('Ctrl Pts',(9.04677758216332,2.93563971279516,41.));
#462=CARTESIAN_POINT('Ctrl Pts',(9.14297128314197,2.97574488763465,35.));
#463=CARTESIAN_POINT('Ctrl Pts',(9.23910206227303,3.01586181779548,29.));
#464=CARTESIAN_POINT('Ctrl Pts',(6.87637244805724,5.62884155238298,47.));
#465=CARTESIAN_POINT('Ctrl Pts',(6.9466977696603,5.70189713154513,41.));
#466=CARTESIAN_POINT('Ctrl Pts',(7.01716104108809,5.77498536462708,35.));
#467=CARTESIAN_POINT('Ctrl Pts',(7.08748636269115,5.84804094378922,29.));
#468=CARTESIAN_POINT('Ctrl Pts',(4.70420991377025,7.19141719367834,47.));
#469=CARTESIAN_POINT('Ctrl Pts',(4.7507568512082,7.28147820397725,41.));
#470=CARTESIAN_POINT('Ctrl Pts',(4.79724591798632,7.37152637186177,35.));
#471=CARTESIAN_POINT('Ctrl Pts',(4.84379285542427,7.46158738216068,29.));
#472=CARTESIAN_POINT('Ctrl Pts',(1.66041398424353,8.26867047040554,47.));
#473=CARTESIAN_POINT('Ctrl Pts',(1.67622007842064,8.36935325316903,41.));
#474=CARTESIAN_POINT('Ctrl Pts',(1.69214670818091,8.47005279977342,35.));
#475=CARTESIAN_POINT('Ctrl Pts',(1.70795280235803,8.57073558253692,29.));
#476=CARTESIAN_POINT('Ctrl Pts',(-2.13480410772605,8.26919223926138,47.));
#477=CARTESIAN_POINT('Ctrl Pts',(-2.15514739415033,8.36988186390845,41.));
#478=CARTESIAN_POINT('Ctrl Pts',(-2.17554591436181,8.47058772885551,35.));
#479=CARTESIAN_POINT('Ctrl Pts',(-2.19588920078608,8.57127735350258,29.));
#480=CARTESIAN_POINT('Ctrl Pts',(-5.97320556976759,6.60195927323974,47.));
#481=CARTESIAN_POINT('Ctrl Pts',(-6.03277592697931,6.68622671540804,41.));
#482=CARTESIAN_POINT('Ctrl Pts',(-6.09220612193281,6.77050636167424,35.));
#483=CARTESIAN_POINT('Ctrl Pts',(-6.15177647914453,6.85477380384254,29.));
#484=CARTESIAN_POINT('Ctrl Pts',(-8.58501469265339,3.6434727746446,47.));
#485=CARTESIAN_POINT('Ctrl Pts',(-8.67620830148583,3.69321182851876,41.));
#486=CARTESIAN_POINT('Ctrl Pts',(-8.76752493938456,3.74295592322245,35.));
#487=CARTESIAN_POINT('Ctrl Pts',(-8.858718548217,3.7926949770966,29.));
#488=CARTESIAN_POINT('Ctrl Pts',(-9.2,1.21341938471987,47.));
#489=CARTESIAN_POINT('Ctrl Pts',(-9.30011780742952,1.23003786534648,41.));
#490=CARTESIAN_POINT('Ctrl Pts',(-9.39988219257048,1.24666745415023,35.));
#491=CARTESIAN_POINT('Ctrl Pts',(-9.5,1.26328593477685,29.));
#492=CARTESIAN_POINT('Ctrl Pts',(-9.2,9.93324625975075E-16,47.));
#493=CARTESIAN_POINT('Ctrl Pts',(-9.3,1.00693181263227E-15,41.));
#494=CARTESIAN_POINT('Ctrl Pts',(-9.4,1.02053899928946E-15,35.));
#495=CARTESIAN_POINT('Ctrl Pts',(-9.5,1.03414618594665E-15,29.));
#496=CARTESIAN_POINT('Ctrl Pts',(-1.94289029309402E-15,-8.48333332613111,
30.0000004321337));
#497=CARTESIAN_POINT('Ctrl Pts',(0.891233884531863,-8.46847942805558,30.8912343166655));
#498=CARTESIAN_POINT('Ctrl Pts',(1.78683021296768,-8.34112078245627,31.7868306451014));
#499=CARTESIAN_POINT('Ctrl Pts',(3.68457557510207,-7.80999170669289,33.6845760072357));
#500=CARTESIAN_POINT('Ctrl Pts',(4.70260886364906,-7.3543448554433,34.7026092957827));
#501=CARTESIAN_POINT('Ctrl Pts',(6.37235375719634,-6.19983170120142,36.37235418933));
#502=CARTESIAN_POINT('Ctrl Pts',(7.07406094105675,-5.5616294247117,37.0740613731904));
#503=CARTESIAN_POINT('Ctrl Pts',(8.24418141188711,-4.03258641253992,38.2441818440208));
#504=CARTESIAN_POINT('Ctrl Pts',(8.67840588708565,-3.20882214553298,38.678406319258));
#505=CARTESIAN_POINT('Ctrl Pts',(9.10691815925531,-1.87827395830842,39.1069185914277));
#506=CARTESIAN_POINT('Ctrl Pts',(9.21470140755659,-1.39660067958099,39.2147018396903));
#507=CARTESIAN_POINT('Ctrl Pts',(9.317100669371,-0.540322345927342,39.3171011015047));
#508=CARTESIAN_POINT('Ctrl Pts',(9.33445111505601,-0.179092546924253,39.3344515471897));
#509=CARTESIAN_POINT('Ctrl Pts',(9.31622826887985,0.570734777332209,39.3162287010135));
#510=CARTESIAN_POINT('Ctrl Pts',(9.27712142760435,0.953496376641446,39.277121859738));
#511=CARTESIAN_POINT('Ctrl Pts',(9.10323404309792,1.92926868506968,39.1032344752316));
#512=CARTESIAN_POINT('Ctrl Pts',(8.92789121789207,2.49723856156259,38.9278916500257));
#513=CARTESIAN_POINT('Ctrl Pts',(8.32074022647074,3.9131532214494,38.3207406586044));
#514=CARTESIAN_POINT('Ctrl Pts',(7.80239231386347,4.67814026719731,37.8023927459971));
#515=CARTESIAN_POINT('Ctrl Pts',(6.49997484753085,6.12084898841762,36.4999752796645));
#516=CARTESIAN_POINT('Ctrl Pts',(5.66588526216012,6.7485943984585,35.6658856942938));
#517=CARTESIAN_POINT('Ctrl Pts',(3.35608138927198,8.0203125412937,33.3560818214057));
#518=CARTESIAN_POINT('Ctrl Pts',(1.69667156083553,8.45505546678385,31.6966719929692));
#519=CARTESIAN_POINT('Ctrl Pts',(0.,8.4833333261311,30.0000004321337));
#520=CARTESIAN_POINT('',(-9.5,-1.03414616489747E-15,29.));
#521=CARTESIAN_POINT('Ctrl Pts',(-1.00006744441093,8.45259919662566,29.0000000000174));
#522=CARTESIAN_POINT('Ctrl Pts',(-1.3777827407654,8.41700686304916,29.000000000017));
#523=CARTESIAN_POINT('Ctrl Pts',(-1.75307947583762,8.36117797139611,29.0000000000165));
#524=CARTESIAN_POINT('Ctrl Pts',(-2.12323337158958,8.28509184650292,29.000000000016));
#525=CARTESIAN_POINT('Ctrl Pts',(-3.51451829357214,7.99910950361567,29.0000000000142));
#526=CARTESIAN_POINT('Ctrl Pts',(-4.83314738635828,7.42694165372903,29.0000000000125));
#527=CARTESIAN_POINT('Ctrl Pts',(-5.94361894426342,6.63051125766141,29.0000000000107));
#528=CARTESIAN_POINT('Ctrl Pts',(-7.05409050216857,5.83408086159379,29.0000000000089));
#529=CARTESIAN_POINT('Ctrl Pts',(-7.95640452519274,4.81338791934518,29.0000000000071));
#530=CARTESIAN_POINT('Ctrl Pts',(-8.56788189965059,3.67068918764094,29.0000000000054));
#531=CARTESIAN_POINT('Ctrl Pts',(-9.17935927410844,2.52799045593671,29.0000000000036));
#532=CARTESIAN_POINT('Ctrl Pts',(-9.49999999999997,1.26328593477685,29.0000000000018));
#533=CARTESIAN_POINT('Ctrl Pts',(-9.5,1.66533453693773E-15,29.));
#534=CARTESIAN_POINT('',(-9.2,-9.93324625975075E-16,47.));
#535=CARTESIAN_POINT('',(-9.2,-9.93324625975075E-16,47.));
#536=CARTESIAN_POINT('',(9.19999999986849,-4.38182384865403E-5,47.));
#537=CARTESIAN_POINT('Ctrl Pts',(9.19904622934464,0.00046927708698366,47.));
#538=CARTESIAN_POINT('Ctrl Pts',(9.19675087434914,1.21443828195658,47.));
#539=CARTESIAN_POINT('Ctrl Pts',(8.89351785493588,2.42808789009438,47.));
#540=CARTESIAN_POINT('Ctrl Pts',(8.3055129173012,3.52854445654295,47.));
#541=CARTESIAN_POINT('Ctrl Pts',(7.91350962554475,4.26218216750866,47.));
#542=CARTESIAN_POINT('Ctrl Pts',(7.394941036801,4.94551185994582,47.));
#543=CARTESIAN_POINT('Ctrl Pts',(6.77362965338129,5.54760597971363,47.));
#544=CARTESIAN_POINT('Ctrl Pts',(6.15231826996158,6.14970009948143,47.));
#545=CARTESIAN_POINT('Ctrl Pts',(5.42826409186591,6.67055864657989,47.));
#546=CARTESIAN_POINT('Ctrl Pts',(4.63140901288569,7.08488124537586,47.));
#547=CARTESIAN_POINT('Ctrl Pts',(3.83455393390547,7.49920384417182,47.));
#548=CARTESIAN_POINT('Ctrl Pts',(2.96489795404069,7.80699049466531,47.));
#549=CARTESIAN_POINT('Ctrl Pts',(2.06358255692487,7.99171466184698,47.));
#550=CARTESIAN_POINT('Ctrl Pts',(0.711609461251134,8.2688009126195,47.));
#551=CARTESIAN_POINT('Ctrl Pts',(-0.711597323237458,8.26899657594044,47.));
#552=CARTESIAN_POINT('Ctrl Pts',(-2.06293429248868,7.9912222465973,47.));
#553=CARTESIAN_POINT('Ctrl Pts',(-3.4142712617399,7.71344791725417,47.));
#554=CARTESIAN_POINT('Ctrl Pts',(-4.69373841575374,7.15770359524695,47.));
#555=CARTESIAN_POINT('Ctrl Pts',(-5.76877351324163,6.38675035114416,47.));
#556=CARTESIAN_POINT('Ctrl Pts',(-6.84380861072952,5.61579710704136,47.));
#557=CARTESIAN_POINT('Ctrl Pts',(-7.71441165169146,4.62963494084298,47.));
#558=CARTESIAN_POINT('Ctrl Pts',(-8.30345949900908,3.52904051026261,47.));
#559=CARTESIAN_POINT('Ctrl Pts',(-8.8925073463267,2.42844607968223,47.));
#560=CARTESIAN_POINT('Ctrl Pts',(-9.2,1.21341938471987,47.));
#561=CARTESIAN_POINT('Ctrl Pts',(-9.2,1.11022302462516E-15,47.));
#562=CARTESIAN_POINT('Ctrl Pts',(-9.2,-9.93324625975075E-16,47.));
#563=CARTESIAN_POINT('Ctrl Pts',(-9.2,-1.21341938471987,47.));
#564=CARTESIAN_POINT('Ctrl Pts',(-8.89245204580815,-2.42875065801291,47.));
#565=CARTESIAN_POINT('Ctrl Pts',(-8.30352471967751,-3.52956977614925,47.));
#566=CARTESIAN_POINT('Ctrl Pts',(-7.71459739354686,-4.63038889428559,47.));
#567=CARTESIAN_POINT('Ctrl Pts',(-6.84429069547742,-5.61669585726524,47.));
#568=CARTESIAN_POINT('Ctrl Pts',(-5.76942200550265,-6.38746764622275,47.));
#569=CARTESIAN_POINT('Ctrl Pts',(-4.69455331552788,-7.15823943518026,47.));
#570=CARTESIAN_POINT('Ctrl Pts',(-3.41512263364779,-7.71347605011564,47.));
#571=CARTESIAN_POINT('Ctrl Pts',(-2.06361355994288,-7.99107361539955,47.));
#572=CARTESIAN_POINT('Ctrl Pts',(-0.712104486237974,-8.26867118068345,47.));
#573=CARTESIAN_POINT('Ctrl Pts',(0.71148297929175,-8.26862969631589,47.));
#574=CARTESIAN_POINT('Ctrl Pts',(2.06307566473569,-7.99078890431835,47.));
#575=CARTESIAN_POINT('Ctrl Pts',(3.41466835017963,-7.71294811232081,47.));
#576=CARTESIAN_POINT('Ctrl Pts',(4.69426625553779,-7.1573080126933,47.));
#577=CARTESIAN_POINT('Ctrl Pts',(5.76892328841365,-6.38638832281135,47.));
#578=CARTESIAN_POINT('Ctrl Pts',(6.8435803212895,-5.61546863292941,47.));
#579=CARTESIAN_POINT('Ctrl Pts',(7.71329648168306,-4.62926935279302,47.));
#580=CARTESIAN_POINT('Ctrl Pts',(8.30378901361667,-3.52872744942276,47.));
#581=CARTESIAN_POINT('Ctrl Pts',(8.69745070157241,-2.79503284717592,47.));
#582=CARTESIAN_POINT('Ctrl Pts',(8.9670129991015,-2.01051930126958,47.));
#583=CARTESIAN_POINT('Ctrl Pts',(9.10043029819361,-1.20942568799109,47.));
#584=CARTESIAN_POINT('Ctrl Pts',(9.16713894773966,-0.808878881351836,47.));
#585=CARTESIAN_POINT('Ctrl Pts',(9.19981134767647,-0.404187057869549,47.));
#586=CARTESIAN_POINT('Ctrl Pts',(9.19904622934464,0.00046927708698366,47.));
#587=CARTESIAN_POINT('Ctrl Pts',(-9.5,-1.03414618594665E-15,29.));
#588=CARTESIAN_POINT('Ctrl Pts',(-9.5,-1.26328593477685,29.));
#589=CARTESIAN_POINT('Ctrl Pts',(-9.17929746350415,-2.5283071299827,29.));
#590=CARTESIAN_POINT('Ctrl Pts',(-8.5679407131872,-3.67122434271287,29.));
#591=CARTESIAN_POINT('Ctrl Pts',(-7.95658396287026,-4.81414155544304,29.));
#592=CARTESIAN_POINT('Ctrl Pts',(-7.05457299873222,-5.83495478569754,29.));
#593=CARTESIAN_POINT('Ctrl Pts',(-5.94426962216968,-6.63119594870717,29.));
#594=CARTESIAN_POINT('Ctrl Pts',(-4.83396624560715,-7.4274371117168,29.));
#595=CARTESIAN_POINT('Ctrl Pts',(-3.51537045662013,-7.99910620748156,29.));
#596=CARTESIAN_POINT('Ctrl Pts',(-2.12392472170177,-8.28491856533575,29.));
#597=CARTESIAN_POINT('Ctrl Pts',(-1.75361669594163,-8.36098233650469,29.));
#598=CARTESIAN_POINT('Ctrl Pts',(-1.37814898819104,-8.41679997236649,29.));
#599=CARTESIAN_POINT('Ctrl Pts',(-1.00026553440051,-8.45236845296557,29.));
#600=CARTESIAN_POINT('Ctrl Pts',(-9.2,-1.11022302462516E-15,50.));
#601=CARTESIAN_POINT('Ctrl Pts',(-9.2,-0.714678358203552,50.));
#602=CARTESIAN_POINT('Ctrl Pts',(-8.98462973305868,-2.14108536753352,50.));
#603=CARTESIAN_POINT('Ctrl Pts',(-7.84080571221611,-4.60596339273779,50.));
#604=CARTESIAN_POINT('Ctrl Pts',(-5.62891852980302,-6.73868293744086,50.));
#605=CARTESIAN_POINT('Ctrl Pts',(-1.57094001243656,-8.46704335759013,50.));
#606=CARTESIAN_POINT('Ctrl Pts',(2.76252013665683,-8.24173359225982,50.));
#607=CARTESIAN_POINT('Ctrl Pts',(6.6908361409689,-5.95567668119879,50.));
#608=CARTESIAN_POINT('Ctrl Pts',(8.24894494008557,-3.87143585720759,50.));
#609=CARTESIAN_POINT('Ctrl Pts',(8.72761230122235,-2.59243008630251,50.));
#610=CARTESIAN_POINT('Ctrl Pts',(-9.2,-1.11022302462516E-15,51.1967972013676));
#611=CARTESIAN_POINT('Ctrl Pts',(-9.2,-0.715825512356953,51.1967972013676));
#612=CARTESIAN_POINT('Ctrl Pts',(-8.98542718981387,-2.142835364383,51.1967972013676));
#613=CARTESIAN_POINT('Ctrl Pts',(-7.84074334879083,-4.61007944697706,51.1967972013675));
#614=CARTESIAN_POINT('Ctrl Pts',(-5.62888094267205,-6.7428699716917,51.1967972013675));
#615=CARTESIAN_POINT('Ctrl Pts',(-1.56938210968365,-8.47113264695729,51.1967972013676));
#616=CARTESIAN_POINT('Ctrl Pts',(2.76086018336161,-8.24585609966032,51.1967972013675));
#617=CARTESIAN_POINT('Ctrl Pts',(6.69185594893744,-5.95779108742441,51.1967972013675));
#618=CARTESIAN_POINT('Ctrl Pts',(8.24820617753939,-3.87340984088939,51.1967972013676));
#619=CARTESIAN_POINT('Ctrl Pts',(8.72761230122235,-2.59243008630251,51.1967972013676));
#620=CARTESIAN_POINT('Ctrl Pts',(-8.19620219604852,-1.04057055999921E-15,
53.2692559693875));
#621=CARTESIAN_POINT('Ctrl Pts',(-8.19620219604852,-0.616179341711115,53.2692559693875));
#622=CARTESIAN_POINT('Ctrl Pts',(-8.01056203999342,-1.84648613554181,53.2692559693875));
#623=CARTESIAN_POINT('Ctrl Pts',(-7.01803206261884,-3.99032609097535,53.2692559693875));
#624=CARTESIAN_POINT('Ctrl Pts',(-5.0663297013577,-5.87960892608927,53.2692559693875));
#625=CARTESIAN_POINT('Ctrl Pts',(-1.42444107208877,-7.4362277560664,53.2692559693875));
#626=CARTESIAN_POINT('Ctrl Pts',(2.50126107821226,-7.23073241069742,53.2692559693875));
#627=CARTESIAN_POINT('Ctrl Pts',(6.0093554548398,-5.1809414787934,53.2692559693875));
#628=CARTESIAN_POINT('Ctrl Pts',(7.37226098975638,-3.35010376357439,53.2692559693875));
#629=CARTESIAN_POINT('Ctrl Pts',(7.78749539028824,-2.24059173564483,53.2692559693875));
#630=CARTESIAN_POINT('Ctrl Pts',(-6.09759790102565,-8.94950634504736E-16,
54.));
#631=CARTESIAN_POINT('Ctrl Pts',(-6.09759790102565,-0.410656587918565,54.));
#632=CARTESIAN_POINT('Ctrl Pts',(-5.97439540615245,-1.23119681293543,54.));
#633=CARTESIAN_POINT('Ctrl Pts',(-5.29786646421566,-2.70469054667967,54.));
#634=CARTESIAN_POINT('Ctrl Pts',(-3.89013199678881,-4.08505402701915,54.));
#635=CARTESIAN_POINT('Ctrl Pts',(-1.11761008958863,-5.28258427276579,54.));
#636=CARTESIAN_POINT('Ctrl Pts',(1.95446912195828,-5.11852597483566,54.));
#637=CARTESIAN_POINT('Ctrl Pts',(4.58496867168332,-3.56197784796215,54.));
#638=CARTESIAN_POINT('Ctrl Pts',(5.53914787455371,-2.26087132847007,54.));
#639=CARTESIAN_POINT('Ctrl Pts',(5.82202646881477,-1.50501583486347,54.));
#640=CARTESIAN_POINT('Ctrl Pts',(-5.2,-8.32667268468868E-16,54.));
#641=CARTESIAN_POINT('Ctrl Pts',(-5.2,-0.323073778365989,54.));
#642=CARTESIAN_POINT('Ctrl Pts',(-5.10372646893022,-0.968521050767438,54.));
#643=CARTESIAN_POINT('Ctrl Pts',(-4.56211378477285,-2.15596330143699,54.));
#644=CARTESIAN_POINT('Ctrl Pts',(-3.38704777343715,-3.31867585443897,54.));
#645=CARTESIAN_POINT('Ctrl Pts',(-0.985937951296406,-4.36259225033582,54.));
#646=CARTESIAN_POINT('Ctrl Pts',(1.7201342156242,-4.21626638373179,54.));
#647=CARTESIAN_POINT('Ctrl Pts',(3.97602757474008,-2.87012089643866,54.));
#648=CARTESIAN_POINT('Ctrl Pts',(4.75489651723294,-1.79554730073208,54.));
#649=CARTESIAN_POINT('Ctrl Pts',(4.98137214316138,-1.19040131408302,54.));
#650=CARTESIAN_POINT('',(-2.60146962632564,-3.62688127170009,54.));
#651=CARTESIAN_POINT('',(-4.81816902356859,-1.562158988486,54.));
#652=CARTESIAN_POINT('Ctrl Pts',(-2.60146962632821,-3.62688127169771,54.));
#653=CARTESIAN_POINT('Ctrl Pts',(-2.61031520591699,-3.85749405955627,54.));
#654=CARTESIAN_POINT('Ctrl Pts',(-2.65872128247176,-4.08246135367604,53.9826435398544));
#655=CARTESIAN_POINT('Ctrl Pts',(-2.83159006831322,-4.51408212371852,53.9042484700915));
#656=CARTESIAN_POINT('Ctrl Pts',(-2.95610775676391,-4.71189800072299,53.8429715497044));
#657=CARTESIAN_POINT('Ctrl Pts',(-3.2851454748363,-5.08063378912958,53.6733910118211));
#658=CARTESIAN_POINT('Ctrl Pts',(-3.49600455448272,-5.23723497093557,53.5608316207022));
#659=CARTESIAN_POINT('Ctrl Pts',(-3.98705828529434,-5.47617445744612,53.3006378345903));
#660=CARTESIAN_POINT('Ctrl Pts',(-4.27301847432372,-5.54457476158392,53.1498631138533));
#661=CARTESIAN_POINT('Ctrl Pts',(-4.79169036587994,-5.55406696612753,52.9019882321674));
#662=CARTESIAN_POINT('Ctrl Pts',(-5.02524162154427,-5.51916759240828,52.7992503664596));
#663=CARTESIAN_POINT('Ctrl Pts',(-5.39552139215075,-5.39146603226959,52.6717688622191));
#664=CARTESIAN_POINT('Ctrl Pts',(-5.53564597205411,-5.32489557046674,52.6326281875535));
#665=CARTESIAN_POINT('Ctrl Pts',(-5.73452627130818,-5.19912130085831,52.5966525685185));
#666=CARTESIAN_POINT('Ctrl Pts',(-5.79787536240241,-5.1537297514633,52.5885182331375));
#667=CARTESIAN_POINT('Ctrl Pts',(-5.90612204497097,-5.06606083019092,52.5811827863146));
#668=CARTESIAN_POINT('Ctrl Pts',(-5.95170977948327,-5.02555589832029,52.580418509597));
#669=CARTESIAN_POINT('Ctrl Pts',(-6.04458599859757,-4.93509963100384,52.5840135829479));
#670=CARTESIAN_POINT('Ctrl Pts',(-6.09106027762339,-4.88491081769083,52.5890114624566));
#671=CARTESIAN_POINT('Ctrl Pts',(-6.21043133925897,-4.74204243408023,52.6106805989452));
#672=CARTESIAN_POINT('Ctrl Pts',(-6.27692691397429,-4.6462005362525,52.633055582431));
#673=CARTESIAN_POINT('Ctrl Pts',(-6.4628349007328,-4.32254796388005,52.7279755310921));
#674=CARTESIAN_POINT('Ctrl Pts',(-6.543253898183,-4.08228616827716,52.8268775166864));
#675=CARTESIAN_POINT('Ctrl Pts',(-6.61409160667858,-3.60075655530266,53.0457278248001));
#676=CARTESIAN_POINT('Ctrl Pts',(-6.60511506702134,-3.35748083016311,53.1664690212275));
#677=CARTESIAN_POINT('Ctrl Pts',(-6.49690808911049,-2.86267769952775,53.4147062480453));
#678=CARTESIAN_POINT('Ctrl Pts',(-6.38761554240217,-2.61199752729892,53.5422372950256));
#679=CARTESIAN_POINT('Ctrl Pts',(-6.08228015606677,-2.1844480213172,53.7521031494821));
#680=CARTESIAN_POINT('Ctrl Pts',(-5.89675805924888,-2.00521009027762,53.8364317442031));
#681=CARTESIAN_POINT('Ctrl Pts',(-5.55047936105338,-1.78423379854556,53.9309048400692));
#682=CARTESIAN_POINT('Ctrl Pts',(-5.41544240898624,-1.71772394778401,53.9568805529717));
#683=CARTESIAN_POINT('Ctrl Pts',(-5.12609194480793,-1.61439528346622,53.9918240585571));
#684=CARTESIAN_POINT('Ctrl Pts',(-4.97380751155433,-1.5792386602635,54.));
#685=CARTESIAN_POINT('Ctrl Pts',(-4.81816902356807,-1.56215898848656,54.));
#686=CARTESIAN_POINT('',(-5.2,-8.32667268468867E-16,54.));
#687=CARTESIAN_POINT('Ctrl Pts',(-4.81808369327922,-1.56211591241577,54.));
#688=CARTESIAN_POINT('Ctrl Pts',(-4.91646636482931,-1.36756188955025,54.));
#689=CARTESIAN_POINT('Ctrl Pts',(-5.11939929987704,-0.863445586379384,54.));
#690=CARTESIAN_POINT('Ctrl Pts',(-5.2,-0.323073778365989,54.));
#691=CARTESIAN_POINT('Ctrl Pts',(-5.2,-8.32667268468868E-16,54.));
#692=CARTESIAN_POINT('',(-9.2,-1.05177382530012E-15,50.));
#693=CARTESIAN_POINT('Origin',(-5.2,-8.32667268468867E-16,50.));
#694=CARTESIAN_POINT('',(8.72761230122235,-2.59243008630251,50.));
#695=CARTESIAN_POINT('Ctrl Pts',(-9.2,-1.11022302462516E-15,50.));
#696=CARTESIAN_POINT('Ctrl Pts',(-9.2,-0.714678358203552,50.));
#697=CARTESIAN_POINT('Ctrl Pts',(-8.98462973305868,-2.14108536753352,50.));
#698=CARTESIAN_POINT('Ctrl Pts',(-7.84080571221611,-4.60596339273779,50.));
#699=CARTESIAN_POINT('Ctrl Pts',(-5.62891852980302,-6.73868293744086,50.));
#700=CARTESIAN_POINT('Ctrl Pts',(-1.57094001243656,-8.46704335759013,50.));
#701=CARTESIAN_POINT('Ctrl Pts',(2.76252013665683,-8.24173359225982,50.));
#702=CARTESIAN_POINT('Ctrl Pts',(6.6908361409689,-5.95567668119879,50.));
#703=CARTESIAN_POINT('Ctrl Pts',(8.24894494008557,-3.87143585720759,50.));
#704=CARTESIAN_POINT('Ctrl Pts',(8.72761230122235,-2.59243008630251,50.));
#705=CARTESIAN_POINT('',(4.98137214313612,-1.19040131407357,54.));
#706=CARTESIAN_POINT('Origin',(4.98137214316138,-1.19040131408302,50.));
#707=CARTESIAN_POINT('Ctrl Pts',(4.98137214316138,-1.19040131408302,54.));
#708=CARTESIAN_POINT('Ctrl Pts',(4.75489651723294,-1.79554730073208,54.));
#709=CARTESIAN_POINT('Ctrl Pts',(3.97602757474008,-2.87012089643866,54.));
#710=CARTESIAN_POINT('Ctrl Pts',(1.7201342156242,-4.21626638373179,54.));
#711=CARTESIAN_POINT('Ctrl Pts',(-0.696188201425191,-4.34692456646305,54.));
#712=CARTESIAN_POINT('Ctrl Pts',(-2.2679160583536,-3.78501283365075,54.));
#713=CARTESIAN_POINT('Ctrl Pts',(-2.60159313820845,-3.62714232803298,54.));
#714=CARTESIAN_POINT('Ctrl Pts',(8.7276123004757,2.59243008829758,50.));
#715=CARTESIAN_POINT('Ctrl Pts',(8.24894497566077,3.87143576105697,50.));
#716=CARTESIAN_POINT('Ctrl Pts',(6.69163521687292,5.95124343268037,50.));
#717=CARTESIAN_POINT('Ctrl Pts',(3.74433079648166,7.67742919051503,50.));
#718=CARTESIAN_POINT('Ctrl Pts',(0.0733484259573508,8.45043947308454,50.));
#719=CARTESIAN_POINT('Ctrl Pts',(-3.12358201698849,7.92080279978704,50.));
#720=CARTESIAN_POINT('Ctrl Pts',(-6.07232028059985,6.31295797840642,50.));
#721=CARTESIAN_POINT('Ctrl Pts',(-7.84081386236757,4.60593652152312,50.));
#722=CARTESIAN_POINT('Ctrl Pts',(-8.98483347439084,2.14122831364009,50.));
#723=CARTESIAN_POINT('Ctrl Pts',(-9.2,0.714678355993276,50.));
#724=CARTESIAN_POINT('Ctrl Pts',(-9.2,5.55111512312578E-16,50.));
#725=CARTESIAN_POINT('Ctrl Pts',(8.7276123004757,2.59243008829758,51.1967972013676));
#726=CARTESIAN_POINT('Ctrl Pts',(8.24820621317069,3.87340974458718,51.1967972013676));
#727=CARTESIAN_POINT('Ctrl Pts',(6.69321133619165,5.95283326218994,51.1967972013676));
#728=CARTESIAN_POINT('Ctrl Pts',(3.74375072030634,7.68070178266541,51.1967972013676));
#729=CARTESIAN_POINT('Ctrl Pts',(0.0732382113868154,8.45374228026541,51.1967972013676));
#730=CARTESIAN_POINT('Ctrl Pts',(-3.12252156093219,7.92461050388971,51.1967972013676));
#731=CARTESIAN_POINT('Ctrl Pts',(-6.07306813266972,6.31631902580613,51.1967972013675));
#732=CARTESIAN_POINT('Ctrl Pts',(-7.84069155619898,4.60995430544437,51.1967972013676));
#733=CARTESIAN_POINT('Ctrl Pts',(-8.98579627104181,2.14277389692408,51.1967972013675));
#734=CARTESIAN_POINT('Ctrl Pts',(-9.2,0.71582551014313,51.1967972013676));
#735=CARTESIAN_POINT('Ctrl Pts',(-9.2,5.55111512312578E-16,51.1967972013676));
#736=CARTESIAN_POINT('Ctrl Pts',(7.7874953896403,2.24059173737612,53.2692559693875));
#737=CARTESIAN_POINT('Ctrl Pts',(7.37226102061315,3.35010368017633,53.2692559693875));
#738=CARTESIAN_POINT('Ctrl Pts',(6.0098973423896,5.17769957073355,53.2692559693875));
#739=CARTESIAN_POINT('Ctrl Pts',(3.37803953606429,6.72384272110409,53.2692559693875));
#740=CARTESIAN_POINT('Ctrl Pts',(0.0670296803460731,7.42255947511998,53.2692559693875));
#741=CARTESIAN_POINT('Ctrl Pts',(-2.82106324459169,6.94155355634984,53.2692559693875));
#742=CARTESIAN_POINT('Ctrl Pts',(-5.45749001494737,5.50256527034762,53.2692559693875));
#743=CARTESIAN_POINT('Ctrl Pts',(-7.01798173984417,3.99029438138724,53.2692559693875));
#744=CARTESIAN_POINT('Ctrl Pts',(-8.01072336125683,1.84664135201116,53.2692559693874));
#745=CARTESIAN_POINT('Ctrl Pts',(-8.19620219604851,0.616179339805467,53.2692559693875));
#746=CARTESIAN_POINT('Ctrl Pts',(-8.19620219604851,5.8993774462555E-16,
53.2692559693875));
#747=CARTESIAN_POINT('Ctrl Pts',(5.82202646837322,1.50501583604329,54.));
#748=CARTESIAN_POINT('Ctrl Pts',(5.53914789556569,2.2608712716797,54.));
#749=CARTESIAN_POINT('Ctrl Pts',(4.58516957442985,3.56104114447279,54.));
#750=CARTESIAN_POINT('Ctrl Pts',(2.61204233904514,4.73137065074952,54.));
#751=CARTESIAN_POINT('Ctrl Pts',(0.0537803326044699,5.27477525624499,54.));
#752=CARTESIAN_POINT('Ctrl Pts',(-2.18822305490634,4.8956184526086,54.));
#753=CARTESIAN_POINT('Ctrl Pts',(-4.17235072792777,3.80949457112531,54.));
#754=CARTESIAN_POINT('Ctrl Pts',(-5.29767269863653,2.70461397364028,54.));
#755=CARTESIAN_POINT('Ctrl Pts',(-5.97452650489151,1.23130540270218,54.));
#756=CARTESIAN_POINT('Ctrl Pts',(-6.09759790102565,0.410656586648533,54.));
#757=CARTESIAN_POINT('Ctrl Pts',(-6.09759790102565,6.62747707372788E-16,
54.));
#758=CARTESIAN_POINT('Ctrl Pts',(4.98137214280811,1.19040131502697,54.));
#759=CARTESIAN_POINT('Ctrl Pts',(4.75489653404992,1.79554725527963,54.));
#760=CARTESIAN_POINT('Ctrl Pts',(3.97623864493748,2.87002304513453,54.));
#761=CARTESIAN_POINT('Ctrl Pts',(2.28425359448398,3.88008451693533,54.));
#762=CARTESIAN_POINT('Ctrl Pts',(0.0480825214016364,4.35706875130099,54.));
#763=CARTESIAN_POINT('Ctrl Pts',(-1.91725242210347,4.02161561207709,54.));
#764=CARTESIAN_POINT('Ctrl Pts',(-3.62289116685218,3.08629075435584,54.));
#765=CARTESIAN_POINT('Ctrl Pts',(-4.56184185680172,2.15583998106421,54.));
#766=CARTESIAN_POINT('Ctrl Pts',(-5.10389100868161,0.968552372466777,54.));
#767=CARTESIAN_POINT('Ctrl Pts',(-5.2,0.323073777366824,54.));
#768=CARTESIAN_POINT('Ctrl Pts',(-5.2,6.93889390390723E-16,54.));
#769=CARTESIAN_POINT('',(-4.81816902369687,1.56215898834913,54.));
#770=CARTESIAN_POINT('',(-2.60146962632178,3.62688127170365,54.));
#771=CARTESIAN_POINT('Ctrl Pts',(-4.81816902356807,1.56215898848656,54.));
#772=CARTESIAN_POINT('Ctrl Pts',(-5.04793380562615,1.58737323410297,54.));
#773=CARTESIAN_POINT('Ctrl Pts',(-5.26903660611706,1.65171969762776,53.9819327841744));
#774=CARTESIAN_POINT('Ctrl Pts',(-5.68940228781385,1.8559538980678,53.902239647029));
#775=CARTESIAN_POINT('Ctrl Pts',(-5.87959822039355,1.99601314227061,53.8400843805816));
#776=CARTESIAN_POINT('Ctrl Pts',(-6.22615756706169,2.35523469973957,53.6698072380908));
#777=CARTESIAN_POINT('Ctrl Pts',(-6.36777478793929,2.5799722295556,53.5575381323956));
#778=CARTESIAN_POINT('Ctrl Pts',(-6.56810619499107,3.09068762838456,53.3002981818448));
#779=CARTESIAN_POINT('Ctrl Pts',(-6.613730845385,3.38047319759226,53.1527590728805));
#780=CARTESIAN_POINT('Ctrl Pts',(-6.58269827430753,3.89920546500577,52.9075442302977));
#781=CARTESIAN_POINT('Ctrl Pts',(-6.52905577680866,4.13054701498652,52.8049421765476));
#782=CARTESIAN_POINT('Ctrl Pts',(-6.37094175190237,4.4922648347949,52.6757550372503));
#783=CARTESIAN_POINT('Ctrl Pts',(-6.29205954456171,4.6284262490849,52.6354616387873));
#784=CARTESIAN_POINT('Ctrl Pts',(-6.1486420609663,4.81820636866075,52.5980890360701));
#785=CARTESIAN_POINT('Ctrl Pts',(-6.09786267643889,4.87785678182731,52.5895371890591));
#786=CARTESIAN_POINT('Ctrl Pts',(-6.00112893516522,4.97870485753166,52.5815049246958));
#787=CARTESIAN_POINT('Ctrl Pts',(-5.95691707530254,5.02077025493679,52.5804332205381));
#788=CARTESIAN_POINT('Ctrl Pts',(-5.85913780612929,5.10561719960505,52.5833906648163));
#789=CARTESIAN_POINT('Ctrl Pts',(-5.80542115645012,5.14759069200484,52.5880358469326));
#790=CARTESIAN_POINT('Ctrl Pts',(-5.65419204489562,5.25384749943618,52.6087092924941));
#791=CARTESIAN_POINT('Ctrl Pts',(-5.5541699069701,5.31163264857529,52.6303691115762));
#792=CARTESIAN_POINT('Ctrl Pts',(-5.21940347515409,5.46903222103737,52.7233085324376));
#793=CARTESIAN_POINT('Ctrl Pts',(-4.97602083743115,5.52925997973852,52.8213369666077));
#794=CARTESIAN_POINT('Ctrl Pts',(-4.49465148423317,5.56201957385063,53.0402961659217));
#795=CARTESIAN_POINT('Ctrl Pts',(-4.25447063313621,5.534501084888,53.1621706388093));
#796=CARTESIAN_POINT('Ctrl Pts',(-3.77022665982905,5.38949333083139,53.414327037347));
#797=CARTESIAN_POINT('Ctrl Pts',(-3.5275112123278,5.26090745031642,53.5448410424427));
#798=CARTESIAN_POINT('Ctrl Pts',(-3.12524010998781,4.92375185044479,53.7566114498066));
#799=CARTESIAN_POINT('Ctrl Pts',(-2.96180273942556,4.72671976131227,53.8404418256839));
#800=CARTESIAN_POINT('Ctrl Pts',(-2.76890716320211,4.36795007729591,53.9331479471126));
#801=CARTESIAN_POINT('Ctrl Pts',(-2.71320099260973,4.23022550606766,53.958293308341));
#802=CARTESIAN_POINT('Ctrl Pts',(-2.63156418226653,3.93661484366966,53.9921841263074));
#803=CARTESIAN_POINT('Ctrl Pts',(-2.60744758314682,3.78273236927714,54.));
#804=CARTESIAN_POINT('Ctrl Pts',(-2.60146962632821,3.62688127169771,54.));
#805=CARTESIAN_POINT('',(4.98137214245129,1.19040131489343,54.));
#806=CARTESIAN_POINT('Ctrl Pts',(-2.60147109290335,3.62688437107595,54.));
#807=CARTESIAN_POINT('Ctrl Pts',(-2.55954129686429,3.6467219107144,54.));
#808=CARTESIAN_POINT('Ctrl Pts',(-1.63675341867054,4.06949257654145,54.));
#809=CARTESIAN_POINT('Ctrl Pts',(0.0480825214016364,4.35706875130099,54.));
#810=CARTESIAN_POINT('Ctrl Pts',(2.28425359448398,3.88008451693533,54.));
#811=CARTESIAN_POINT('Ctrl Pts',(3.97623864493748,2.87002304513453,54.));
#812=CARTESIAN_POINT('Ctrl Pts',(4.75489653404992,1.79554725527963,54.));
#813=CARTESIAN_POINT('Ctrl Pts',(4.98137214280811,1.19040131502697,54.));
#814=CARTESIAN_POINT('',(8.7276123004757,2.59243008829758,50.));
#815=CARTESIAN_POINT('Origin',(4.98137214280811,1.19040131502697,50.));
#816=CARTESIAN_POINT('Ctrl Pts',(8.7276123004757,2.59243008829758,50.));
#817=CARTESIAN_POINT('Ctrl Pts',(8.24894497566077,3.87143576105697,50.));
#818=CARTESIAN_POINT('Ctrl Pts',(6.69163521687292,5.95124343268037,50.));
#819=CARTESIAN_POINT('Ctrl Pts',(3.74433079648166,7.67742919051503,50.));
#820=CARTESIAN_POINT('Ctrl Pts',(0.0733484259573508,8.45043947308454,50.));
#821=CARTESIAN_POINT('Ctrl Pts',(-3.12358201698849,7.92080279978704,50.));
#822=CARTESIAN_POINT('Ctrl Pts',(-6.07232028059985,6.31295797840642,50.));
#823=CARTESIAN_POINT('Ctrl Pts',(-7.84081386236757,4.60593652152312,50.));
#824=CARTESIAN_POINT('Ctrl Pts',(-8.98483347439084,2.14122831364009,50.));
#825=CARTESIAN_POINT('Ctrl Pts',(-9.2,0.714678355993276,50.));
#826=CARTESIAN_POINT('Ctrl Pts',(-9.2,5.55111512312578E-16,50.));
#827=CARTESIAN_POINT('Ctrl Pts',(-5.2,6.93889390390723E-16,54.));
#828=CARTESIAN_POINT('Ctrl Pts',(-5.2,0.323073777366824,54.));
#829=CARTESIAN_POINT('Ctrl Pts',(-5.11953588129679,0.863479680956487,54.));
#830=CARTESIAN_POINT('Ctrl Pts',(-4.91646766494326,1.36755287144441,54.));
#831=CARTESIAN_POINT('Ctrl Pts',(-4.81805281278517,1.5621003142283,54.));
#832=CARTESIAN_POINT('Ctrl Pts',(8.72761230122235,-2.5924300863025,50.));
#833=CARTESIAN_POINT('Ctrl Pts',(9.02807258341872,-1.78959608077458,50.));
#834=CARTESIAN_POINT('Ctrl Pts',(9.19999461445859,-0.897238539002048,50.));
#835=CARTESIAN_POINT('Ctrl Pts',(9.19999999986849,-4.38182384890351E-5,
50.));
#836=CARTESIAN_POINT('Ctrl Pts',(8.72761230122235,-2.5924300863025,51.1967972013676));
#837=CARTESIAN_POINT('Ctrl Pts',(9.02853630587219,-1.78835700800246,51.1967972013676));
#838=CARTESIAN_POINT('Ctrl Pts',(9.19999460581429,-0.898678656277892,51.1967972013676));
#839=CARTESIAN_POINT('Ctrl Pts',(9.19999999986849,-4.38182384890351E-5,
51.1967972013676));
#840=CARTESIAN_POINT('Ctrl Pts',(7.78745490285924,-2.24057658324189,53.2692234167108));
#841=CARTESIAN_POINT('Ctrl Pts',(8.04809821236993,-1.54413407623602,53.2692234167108));
#842=CARTESIAN_POINT('Ctrl Pts',(8.19615432282347,-0.773578569569426,53.2692234167108));
#843=CARTESIAN_POINT('Ctrl Pts',(8.19615896600076,-3.77926842658841E-5,
53.2692234167108));
#844=CARTESIAN_POINT('Ctrl Pts',(5.82202646881477,-1.50501583486347,54.));
#845=CARTESIAN_POINT('Ctrl Pts',(5.99958982315992,-1.03056411045642,54.));
#846=CARTESIAN_POINT('Ctrl Pts',(6.0975948064754,-0.515556299684165,54.));
#847=CARTESIAN_POINT('Ctrl Pts',(6.09759790095003,-2.51960747814755E-5,
54.));
#848=CARTESIAN_POINT('Ctrl Pts',(4.98137214316138,-1.19040131408302,54.));
#849=CARTESIAN_POINT('Ctrl Pts',(5.12353126242001,-0.810550192655464,54.));
#850=CARTESIAN_POINT('Ctrl Pts',(5.19999756544019,-0.405600983390088,54.));
#851=CARTESIAN_POINT('Ctrl Pts',(5.19999999994055,-1.98082447958048E-5,
54.));
#852=CARTESIAN_POINT('',(5.84999999977514,-2.37098687697751E-5,53.9468341743985));
#853=CARTESIAN_POINT('Ctrl Pts',(5.84999999977514,-2.37098687697751E-5,
53.9468341743985));
#854=CARTESIAN_POINT('Ctrl Pts',(5.84999753883226,-0.129766248444934,53.9468344514323));
#855=CARTESIAN_POINT('Ctrl Pts',(5.82979933477605,-0.258871999103671,53.9491691629695));
#856=CARTESIAN_POINT('Ctrl Pts',(5.74130814927741,-0.534023131466582,53.9585892007132));
#857=CARTESIAN_POINT('Ctrl Pts',(5.66425459242194,-0.674592482093281,53.9665427993733));
#858=CARTESIAN_POINT('Ctrl Pts',(5.48625843089386,-0.889687498588824,53.9810571096597));
#859=CARTESIAN_POINT('Ctrl Pts',(5.39647653514401,-0.970893958314958,53.9873787958304));
#860=CARTESIAN_POINT('Ctrl Pts',(5.19912583539989,-1.10330580145193,53.9968390368688));
#861=CARTESIAN_POINT('Ctrl Pts',(5.09306041435767,-1.15461943538088,54.0000000000009));
#862=CARTESIAN_POINT('Ctrl Pts',(4.981372143143,-1.19040131402567,54.));
#863=CARTESIAN_POINT('',(9.19999999986849,-4.3818238486599E-5,50.));
#864=CARTESIAN_POINT('Ctrl Pts',(8.72761230122235,-2.5924300863025,50.));
#865=CARTESIAN_POINT('Ctrl Pts',(9.02807258341872,-1.78959608077458,50.));
#866=CARTESIAN_POINT('Ctrl Pts',(9.19999461445859,-0.897238539002048,50.));
#867=CARTESIAN_POINT('Ctrl Pts',(9.19999999986849,-4.38182384890351E-5,
50.));
#868=CARTESIAN_POINT('Origin',(5.19999999994055,-1.98082447959436E-5,50.));
#869=CARTESIAN_POINT('Ctrl Pts',(9.19999999986849,-4.38182384857044E-5,
50.));
#870=CARTESIAN_POINT('Ctrl Pts',(9.20000538545368,0.897180106167392,50.));
#871=CARTESIAN_POINT('Ctrl Pts',(9.02808236284429,1.78956995070122,50.));
#872=CARTESIAN_POINT('Ctrl Pts',(8.7276123004757,2.59243008829758,50.));
#873=CARTESIAN_POINT('Ctrl Pts',(9.19999999986849,-4.38182384857044E-5,
51.1967972013676));
#874=CARTESIAN_POINT('Ctrl Pts',(9.20000539409826,0.898620270318982,51.1967972013676));
#875=CARTESIAN_POINT('Ctrl Pts',(9.02854610039219,1.78833083759763,51.1967972013676));
#876=CARTESIAN_POINT('Ctrl Pts',(8.7276123004757,2.59243008829758,51.1967972013676));
#877=CARTESIAN_POINT('Ctrl Pts',(8.19615896600082,-3.77926842632155E-5,
53.2692234167109));
#878=CARTESIAN_POINT('Ctrl Pts',(8.19616360932925,0.773528162913659,53.2692234167109));
#879=CARTESIAN_POINT('Ctrl Pts',(8.048106695829,1.5441114089122,53.2692234167109));
#880=CARTESIAN_POINT('Ctrl Pts',(7.78745490221136,2.24057658497319,53.2692234167109));
#881=CARTESIAN_POINT('Ctrl Pts',(6.09759790095004,-2.51960747801899E-5,
54.));
#882=CARTESIAN_POINT('Ctrl Pts',(6.0976009955254,0.515522688045686,54.));
#883=CARTESIAN_POINT('Ctrl Pts',(5.99959560252517,1.03054866831856,54.));
#884=CARTESIAN_POINT('Ctrl Pts',(5.82202646837322,1.50501583604328,54.));
#885=CARTESIAN_POINT('Ctrl Pts',(5.19999999994055,-1.98082447951109E-5,
54.));
#886=CARTESIAN_POINT('Ctrl Pts',(5.20000243452016,0.405574568547025,54.));
#887=CARTESIAN_POINT('Ctrl Pts',(5.12353588944539,0.810537829504703,54.));
#888=CARTESIAN_POINT('Ctrl Pts',(4.98137214280811,1.19040131502697,54.));
#889=CARTESIAN_POINT('Ctrl Pts',(9.19999999986849,-4.38182384857044E-5,
50.));
#890=CARTESIAN_POINT('Ctrl Pts',(9.20000538545368,0.897180106167392,50.));
#891=CARTESIAN_POINT('Ctrl Pts',(9.02808236284429,1.78956995070122,50.));
#892=CARTESIAN_POINT('Ctrl Pts',(8.7276123004757,2.59243008829758,50.));
#893=CARTESIAN_POINT('Ctrl Pts',(4.98137214254847,1.19040131421654,54.));
#894=CARTESIAN_POINT('Ctrl Pts',(5.12051380461072,1.14582411731268,54.0000000000151));
#895=CARTESIAN_POINT('Ctrl Pts',(5.25071826939776,1.07720847477544,53.9951129206782));
#896=CARTESIAN_POINT('Ctrl Pts',(5.4889164092118,0.892465283464565,53.9814784222052));
#897=CARTESIAN_POINT('Ctrl Pts',(5.59291116648132,0.775113376126523,53.9726634360117));
#898=CARTESIAN_POINT('Ctrl Pts',(5.73088988993999,0.544450069999137,53.9596998033356));
#899=CARTESIAN_POINT('Ctrl Pts',(5.77558564257003,0.439724009486598,53.9549759069207));
#900=CARTESIAN_POINT('Ctrl Pts',(5.83504727483405,0.222735192932847,53.9485506153015));
#901=CARTESIAN_POINT('Ctrl Pts',(5.85,0.111639420393479,53.9468341743732));
#902=CARTESIAN_POINT('Ctrl Pts',(5.85,2.01123839804751E-13,53.9468341743732));
#903=CARTESIAN_POINT('Ctrl Pts',(-9.2,-9.93324625975075E-16,47.));
#904=CARTESIAN_POINT('Ctrl Pts',(-9.2,-9.93324625975075E-16,54.));
#905=CARTESIAN_POINT('Ctrl Pts',(-9.2,-2.12348392325977,47.));
#906=CARTESIAN_POINT('Ctrl Pts',(-9.2,-2.12348392325977,54.));
#907=CARTESIAN_POINT('Ctrl Pts',(-8.23228217261411,-4.24257818223926,47.));
#908=CARTESIAN_POINT('Ctrl Pts',(-8.23228217261411,-4.24257818223926,54.));
#909=CARTESIAN_POINT('Ctrl Pts',(-6.53589602656751,-5.76932571368119,47.));
#910=CARTESIAN_POINT('Ctrl Pts',(-6.53589602656751,-5.76932571368119,54.));
#911=CARTESIAN_POINT('Ctrl Pts',(-4.8677533773679,-7.27065409796085,47.));
#912=CARTESIAN_POINT('Ctrl Pts',(-4.8677533773679,-7.27065409796085,54.));
#913=CARTESIAN_POINT('Ctrl Pts',(-2.51014246033819,-8.17117147640561,47.));
#914=CARTESIAN_POINT('Ctrl Pts',(-2.51014246033819,-8.17117147640561,54.));
#915=CARTESIAN_POINT('Ctrl Pts',(-0.121344041040311,-8.19928596371147,47.));
#916=CARTESIAN_POINT('Ctrl Pts',(-0.121344041040311,-8.19928596371147,54.));
#917=CARTESIAN_POINT('Ctrl Pts',(2.23055838067379,-8.22696621092101,47.));
#918=CARTESIAN_POINT('Ctrl Pts',(2.23055838067379,-8.22696621092101,54.));
#919=CARTESIAN_POINT('Ctrl Pts',(4.57891121964888,-7.40948390227729,47.));
#920=CARTESIAN_POINT('Ctrl Pts',(4.57891121964888,-7.40948390227729,54.));
#921=CARTESIAN_POINT('Ctrl Pts',(6.28436579892114,-5.98724080417556,47.));
#922=CARTESIAN_POINT('Ctrl Pts',(6.28436579892114,-5.98724080417556,54.));
#923=CARTESIAN_POINT('Ctrl Pts',(8.05735817351511,-4.50867538331909,47.));
#924=CARTESIAN_POINT('Ctrl Pts',(8.05735817351511,-4.50867538331909,54.));
#925=CARTESIAN_POINT('Ctrl Pts',(9.1168089958956,-2.40354005781904,47.));
#926=CARTESIAN_POINT('Ctrl Pts',(9.1168089958956,-2.40354005781904,54.));
#927=CARTESIAN_POINT('Ctrl Pts',(9.19510079160668,-0.267412603345148,47.));
#928=CARTESIAN_POINT('Ctrl Pts',(9.19510079160668,-0.267412603345148,54.));
#929=CARTESIAN_POINT('Ctrl Pts',(9.19836655186421,-0.178309012317745,47.));
#930=CARTESIAN_POINT('Ctrl Pts',(9.19836655186421,-0.178309012317745,54.));
#931=CARTESIAN_POINT('Ctrl Pts',(9.19999946482399,-0.0891807843702412,47.));
#932=CARTESIAN_POINT('Ctrl Pts',(9.19999946482399,-0.0891807843702412,54.));
#933=CARTESIAN_POINT('Ctrl Pts',(9.19999999986849,-4.38182384865403E-5,
47.));
#934=CARTESIAN_POINT('Ctrl Pts',(9.19999999986849,-4.38182384865403E-5,
54.));
#935=CARTESIAN_POINT('',(-9.2,-9.93324625975075E-16,47.));
#936=CARTESIAN_POINT('',(9.19999999986849,-4.38182384865403E-5,47.));
#937=CARTESIAN_POINT('Origin',(4.6,2.01334178541656E-13,47.));
#938=CARTESIAN_POINT('',(5.85,2.01181097691763E-13,35.8500004321337));
#939=CARTESIAN_POINT('',(5.85,2.01181097691763E-13,47.));
#940=CARTESIAN_POINT('Origin',(4.6,2.01334178541656E-13,34.6000004321337));
#941=CARTESIAN_POINT('Origin',(4.6,2.01334178541656E-13,54.));
#942=CARTESIAN_POINT('Origin',(-0.836358909509729,-1.04008474131869E-5,
54.));
#943=CARTESIAN_POINT('',(-2.6,3.5502239464684,54.));
#944=CARTESIAN_POINT('Origin',(-4.6,3.5502239464684,54.));
#945=CARTESIAN_POINT('Origin',(-4.6,3.5502239464684,54.));
#946=CARTESIAN_POINT('',(-2.6,-3.5502239464684,54.));
#947=CARTESIAN_POINT('Origin',(-4.6,-3.5502239464684,54.));
#948=CARTESIAN_POINT('Origin',(-4.6,-3.5502239464684,54.));
#949=CARTESIAN_POINT('Ctrl Pts',(9.19999999986849,-4.38182384865403E-5,
47.));
#950=CARTESIAN_POINT('Ctrl Pts',(9.19999999986849,-4.38182384865403E-5,
54.));
#951=CARTESIAN_POINT('Ctrl Pts',(9.20001234261796,2.05622485492039,47.));
#952=CARTESIAN_POINT('Ctrl Pts',(9.20001234261796,2.05622485492039,54.));
#953=CARTESIAN_POINT('Ctrl Pts',(8.29474792464086,4.10971860009745,47.));
#954=CARTESIAN_POINT('Ctrl Pts',(8.29474792464086,4.10971860009745,54.));
#955=CARTESIAN_POINT('Ctrl Pts',(6.69408942559125,5.62338682042022,47.));
#956=CARTESIAN_POINT('Ctrl Pts',(6.69408942559125,5.62338682042022,54.));
#957=CARTESIAN_POINT('Ctrl Pts',(5.07204045024929,7.15728301829131,47.));
#958=CARTESIAN_POINT('Ctrl Pts',(5.07204045024929,7.15728301829131,54.));
#959=CARTESIAN_POINT('Ctrl Pts',(2.74692116764371,8.10925365831836,47.));
#960=CARTESIAN_POINT('Ctrl Pts',(2.74692116764371,8.10925365831836,54.));
#961=CARTESIAN_POINT('Ctrl Pts',(0.364569687753712,8.19355243412516,47.));
#962=CARTESIAN_POINT('Ctrl Pts',(0.364569687753712,8.19355243412516,54.));
#963=CARTESIAN_POINT('Ctrl Pts',(-1.99373522917647,8.27700032968318,47.));
#964=CARTESIAN_POINT('Ctrl Pts',(-1.99373522917647,8.27700032968318,54.));
#965=CARTESIAN_POINT('Ctrl Pts',(-4.37466749878799,7.50920096132788,47.));
#966=CARTESIAN_POINT('Ctrl Pts',(-4.37466749878799,7.50920096132788,54.));
#967=CARTESIAN_POINT('Ctrl Pts',(-6.12405603870454,6.11780383298268,47.));
#968=CARTESIAN_POINT('Ctrl Pts',(-6.12405603870454,6.11780383298268,54.));
#969=CARTESIAN_POINT('Ctrl Pts',(-7.93097200435434,4.68065157755167,47.));
#970=CARTESIAN_POINT('Ctrl Pts',(-7.93097200435434,4.68065157755167,54.));
#971=CARTESIAN_POINT('Ctrl Pts',(-9.04499036337022,2.60494946555521,47.));
#972=CARTESIAN_POINT('Ctrl Pts',(-9.04499036337022,2.60494946555521,54.));
#973=CARTESIAN_POINT('Ctrl Pts',(-9.18437316815261,0.477450549345231,47.));
#974=CARTESIAN_POINT('Ctrl Pts',(-9.18437316815261,0.477450549345231,54.));
#975=CARTESIAN_POINT('Ctrl Pts',(-9.19478873734742,0.318470306349874,47.));
#976=CARTESIAN_POINT('Ctrl Pts',(-9.19478873734742,0.318470306349874,54.));
#977=CARTESIAN_POINT('Ctrl Pts',(-9.2,0.159235133085653,47.));
#978=CARTESIAN_POINT('Ctrl Pts',(-9.2,0.159235133085653,54.));
#979=CARTESIAN_POINT('Ctrl Pts',(-9.2,9.93324625975075E-16,47.));
#980=CARTESIAN_POINT('Ctrl Pts',(-9.2,9.93324625975075E-16,54.));
#981=CARTESIAN_POINT('Origin',(-4.6,-3.5502239464684,47.));
#982=CARTESIAN_POINT('',(-2.6,-3.5502239464684,29.));
#983=CARTESIAN_POINT('',(-2.6,-3.5502239464684,47.));
#984=CARTESIAN_POINT('Origin',(-4.6,-3.5502239464684,29.));
#985=CARTESIAN_POINT('Origin',(-4.6,3.5502239464684,47.));
#986=CARTESIAN_POINT('',(-2.6,3.5502239464684,29.));
#987=CARTESIAN_POINT('',(-2.6,3.5502239464684,47.));
#988=CARTESIAN_POINT('Origin',(-4.6,3.5502239464684,29.));
#989=CARTESIAN_POINT('Origin',(-1.23259516440783E-31,0.,30.0000004321337));
#990=CARTESIAN_POINT('Origin',(-0.863631310137511,-1.07678446690511E-5,
29.));
#991=CARTESIAN_POINT('',(0.,0.,0.));
#992=UNCERTAINTY_MEASURE_WITH_UNIT(LENGTH_MEASURE(0.01),#998,
'DISTANCE_ACCURACY_VALUE',
'Maximum model space distance between geometric entities at asserted c
onnectivities');
#993=UNCERTAINTY_MEASURE_WITH_UNIT(LENGTH_MEASURE(0.01),#998,
'DISTANCE_ACCURACY_VALUE',
'Maximum model space distance between geometric entities at asserted c
onnectivities');
#994=UNCERTAINTY_MEASURE_WITH_UNIT(LENGTH_MEASURE(0.01),#998,
'DISTANCE_ACCURACY_VALUE',
'Maximum model space distance between geometric entities at asserted c
onnectivities');
#995=(
GEOMETRIC_REPRESENTATION_CONTEXT(3)
GLOBAL_UNCERTAINTY_ASSIGNED_CONTEXT((#992))
GLOBAL_UNIT_ASSIGNED_CONTEXT((#998,#1000,#1001))
REPRESENTATION_CONTEXT('','3D')
);
#996=(
GEOMETRIC_REPRESENTATION_CONTEXT(3)
GLOBAL_UNCERTAINTY_ASSIGNED_CONTEXT((#993))
GLOBAL_UNIT_ASSIGNED_CONTEXT((#998,#1000,#1001))
REPRESENTATION_CONTEXT('','3D')
);
#997=(
GEOMETRIC_REPRESENTATION_CONTEXT(3)
GLOBAL_UNCERTAINTY_ASSIGNED_CONTEXT((#994))
GLOBAL_UNIT_ASSIGNED_CONTEXT((#998,#1000,#1001))
REPRESENTATION_CONTEXT('','3D')
);
#998=(
LENGTH_UNIT()
NAMED_UNIT(*)
SI_UNIT(.MILLI.,.METRE.)
);
#999=(
LENGTH_UNIT()
NAMED_UNIT(*)
SI_UNIT($,.METRE.)
);
#1000=(
NAMED_UNIT(*)
PLANE_ANGLE_UNIT()
SI_UNIT($,.RADIAN.)
);
#1001=(
NAMED_UNIT(*)
SI_UNIT($,.STERADIAN.)
SOLID_ANGLE_UNIT()
);
#1002=SHAPE_DEFINITION_REPRESENTATION(#1004,#1007);
#1003=SHAPE_DEFINITION_REPRESENTATION(#1005,#1008);
#1004=PRODUCT_DEFINITION_SHAPE('',$,#1010);
#1005=PRODUCT_DEFINITION_SHAPE('',$,#1011);
#1006=PRODUCT_DEFINITION_SHAPE($,$,#14);
#1007=SHAPE_REPRESENTATION('',(#282,#303),#995);
#1008=SHAPE_REPRESENTATION('',(#283),#996);
#1009=PRODUCT_DEFINITION_CONTEXT('part definition',#1017,'design');
#1010=PRODUCT_DEFINITION('2025-12-08-00-09-45-361','Thumb',#1012,#1009);
#1011=PRODUCT_DEFINITION('2025-12-08-00-15-25-462','Distal phalanx',#1013,
#1009);
#1012=PRODUCT_DEFINITION_FORMATION('',$,#1019);
#1013=PRODUCT_DEFINITION_FORMATION('',$,#1020);
#1014=PRODUCT_RELATED_PRODUCT_CATEGORY('Thumb','Thumb',(#1019));
#1015=PRODUCT_RELATED_PRODUCT_CATEGORY('Distal phalanx',
'Distal phalanx',(#1020));
#1016=APPLICATION_PROTOCOL_DEFINITION('international standard',
'automotive_design',2009,#1017);
#1017=APPLICATION_CONTEXT(
'Core Data for Automotive Mechanical Design Process');
#1018=PRODUCT_CONTEXT('part definition',#1017,'mechanical');
#1019=PRODUCT('2025-12-08-00-09-45-361','Thumb',$,(#1018));
#1020=PRODUCT('2025-12-08-00-15-25-462','Distal phalanx',$,(#1018));
#1021=PRESENTATION_STYLE_ASSIGNMENT((#1022));
#1022=SURFACE_STYLE_USAGE(.BOTH.,#1023);
#1023=SURFACE_SIDE_STYLE('',(#1024));
#1024=SURFACE_STYLE_FILL_AREA(#1025);
#1025=FILL_AREA_STYLE('Steel - Satin',(#1026));
#1026=FILL_AREA_STYLE_COLOUR('Steel - Satin',#1027);
#1027=COLOUR_RGB('Steel - Satin',0.627450980392157,0.627450980392157,0.627450980392157);
ENDSEC;
END-ISO-10303-21;
